solid OpenSCAD_Model
  facet normal -0.997858 0.0654149 0
    outer loop
      vertex -3 0 0
      vertex -3 0 8
      vertex -2.97433 0.391578 8
    endloop
  endfacet
  facet normal -0.997858 -0.0654149 0
    outer loop
      vertex -3 0 0
      vertex -2.97433 -0.391578 0
      vertex -3 0 8
    endloop
  endfacet
  facet normal 0 0 -1
    outer loop
      vertex -3 0 0
      vertex -2.97433 0.391578 0
      vertex -1.35 0 0
    endloop
  endfacet
  facet normal -0.997858 0.0654149 0
    outer loop
      vertex -3 0 0
      vertex -2.97433 0.391578 8
      vertex -2.97433 0.391578 0
    endloop
  endfacet
  facet normal 0 0 -1
    outer loop
      vertex -3 0 0
      vertex -1.35 0 0
      vertex -2.97433 -0.391578 0
    endloop
  endfacet
  facet normal -0.997858 -0.0654149 0
    outer loop
      vertex -3 0 8
      vertex -2.97433 -0.391578 0
      vertex -2.97433 -0.391578 8
    endloop
  endfacet
  facet normal 0 0 1
    outer loop
      vertex -3 0 8
      vertex -2.97433 -0.391578 8
      vertex -1.35 0 8
    endloop
  endfacet
  facet normal 0 0 1
    outer loop
      vertex -3 0 8
      vertex -1.35 0 8
      vertex -2.97433 0.391578 8
    endloop
  endfacet
  facet normal -0.980789 -0.195073 0
    outer loop
      vertex -2.97433 -0.391578 0
      vertex -2.89778 -0.776457 0
      vertex -2.97433 -0.391578 8
    endloop
  endfacet
  facet normal -0 0 -1
    outer loop
      vertex -2.97433 -0.391578 0
      vertex -1.35 0 0
      vertex -1.33845 -0.176209 0
    endloop
  endfacet
  facet normal 0 0 -1
    outer loop
      vertex -2.97433 -0.391578 0
      vertex -1.33845 -0.176209 0
      vertex -2.89778 -0.776457 0
    endloop
  endfacet
  facet normal -0.980789 -0.195073 0
    outer loop
      vertex -2.97433 -0.391578 8
      vertex -2.89778 -0.776457 0
      vertex -2.89778 -0.776457 8
    endloop
  endfacet
  facet normal 0 0 1
    outer loop
      vertex -2.97433 -0.391578 8
      vertex -2.89778 -0.776457 8
      vertex -1.33845 -0.176209 8
    endloop
  endfacet
  facet normal 0 0 1
    outer loop
      vertex -2.97433 -0.391578 8
      vertex -1.33845 -0.176209 8
      vertex -1.35 0 8
    endloop
  endfacet
  facet normal -0.980789 0.195073 0
    outer loop
      vertex -2.97433 0.391578 0
      vertex -2.97433 0.391578 8
      vertex -2.89778 0.776457 8
    endloop
  endfacet
  facet normal 0 0 -1
    outer loop
      vertex -2.97433 0.391578 0
      vertex -2.89778 0.776457 0
      vertex -1.33845 0.176209 0
    endloop
  endfacet
  facet normal -0.980789 0.195073 0
    outer loop
      vertex -2.97433 0.391578 0
      vertex -2.89778 0.776457 8
      vertex -2.89778 0.776457 0
    endloop
  endfacet
  facet normal 0 0 -1
    outer loop
      vertex -2.97433 0.391578 0
      vertex -1.33845 0.176209 0
      vertex -1.35 0 0
    endloop
  endfacet
  facet normal 0 0 1
    outer loop
      vertex -2.97433 0.391578 8
      vertex -1.35 0 8
      vertex -1.33845 0.176209 8
    endloop
  endfacet
  facet normal -0 0 1
    outer loop
      vertex -2.97433 0.391578 8
      vertex -1.33845 0.176209 8
      vertex -2.89778 0.776457 8
    endloop
  endfacet
  facet normal -0.946929 -0.321442 0
    outer loop
      vertex -2.89778 -0.776457 0
      vertex -2.77164 -1.14805 0
      vertex -2.89778 -0.776457 8
    endloop
  endfacet
  facet normal -0 0 -1
    outer loop
      vertex -2.89778 -0.776457 0
      vertex -1.33845 -0.176209 0
      vertex -1.304 -0.349405 0
    endloop
  endfacet
  facet normal 0 0 -1
    outer loop
      vertex -2.89778 -0.776457 0
      vertex -1.304 -0.349405 0
      vertex -2.77164 -1.14805 0
    endloop
  endfacet
  facet normal -0.946929 -0.321442 0
    outer loop
      vertex -2.89778 -0.776457 8
      vertex -2.77164 -1.14805 0
      vertex -2.77164 -1.14805 8
    endloop
  endfacet
  facet normal 0 0 1
    outer loop
      vertex -2.89778 -0.776457 8
      vertex -2.77164 -1.14805 8
      vertex -1.304 -0.349405 8
    endloop
  endfacet
  facet normal 0 0 1
    outer loop
      vertex -2.89778 -0.776457 8
      vertex -1.304 -0.349405 8
      vertex -1.33845 -0.176209 8
    endloop
  endfacet
  facet normal -0.946929 0.321442 0
    outer loop
      vertex -2.89778 0.776457 0
      vertex -2.89778 0.776457 8
      vertex -2.77164 1.14805 8
    endloop
  endfacet
  facet normal 0 0 -1
    outer loop
      vertex -2.89778 0.776457 0
      vertex -2.77164 1.14805 0
      vertex -1.304 0.349405 0
    endloop
  endfacet
  facet normal -0.946929 0.321442 0
    outer loop
      vertex -2.89778 0.776457 0
      vertex -2.77164 1.14805 8
      vertex -2.77164 1.14805 0
    endloop
  endfacet
  facet normal 0 0 -1
    outer loop
      vertex -2.89778 0.776457 0
      vertex -1.304 0.349405 0
      vertex -1.33845 0.176209 0
    endloop
  endfacet
  facet normal 0 0 1
    outer loop
      vertex -2.89778 0.776457 8
      vertex -1.33845 0.176209 8
      vertex -1.304 0.349405 8
    endloop
  endfacet
  facet normal -0 0 1
    outer loop
      vertex -2.89778 0.776457 8
      vertex -1.304 0.349405 8
      vertex -2.77164 1.14805 8
    endloop
  endfacet
  facet normal -0.896875 -0.442283 0
    outer loop
      vertex -2.77164 -1.14805 0
      vertex -2.59808 -1.5 0
      vertex -2.77164 -1.14805 8
    endloop
  endfacet
  facet normal -0 0 -1
    outer loop
      vertex -2.77164 -1.14805 0
      vertex -1.304 -0.349405 0
      vertex -1.24724 -0.516623 0
    endloop
  endfacet
  facet normal 0 0 -1
    outer loop
      vertex -2.77164 -1.14805 0
      vertex -1.24724 -0.516623 0
      vertex -2.59808 -1.5 0
    endloop
  endfacet
  facet normal -0.896875 -0.442283 0
    outer loop
      vertex -2.77164 -1.14805 8
      vertex -2.59808 -1.5 0
      vertex -2.59808 -1.5 8
    endloop
  endfacet
  facet normal 0 0 1
    outer loop
      vertex -2.77164 -1.14805 8
      vertex -2.59808 -1.5 8
      vertex -1.24724 -0.516623 8
    endloop
  endfacet
  facet normal 0 0 1
    outer loop
      vertex -2.77164 -1.14805 8
      vertex -1.24724 -0.516623 8
      vertex -1.304 -0.349405 8
    endloop
  endfacet
  facet normal -0.896875 0.442283 0
    outer loop
      vertex -2.77164 1.14805 0
      vertex -2.77164 1.14805 8
      vertex -2.59808 1.5 8
    endloop
  endfacet
  facet normal 0 0 -1
    outer loop
      vertex -2.77164 1.14805 0
      vertex -2.59808 1.5 0
      vertex -1.24724 0.516623 0
    endloop
  endfacet
  facet normal -0.896875 0.442283 0
    outer loop
      vertex -2.77164 1.14805 0
      vertex -2.59808 1.5 8
      vertex -2.59808 1.5 0
    endloop
  endfacet
  facet normal 0 0 -1
    outer loop
      vertex -2.77164 1.14805 0
      vertex -1.24724 0.516623 0
      vertex -1.304 0.349405 0
    endloop
  endfacet
  facet normal 0 0 1
    outer loop
      vertex -2.77164 1.14805 8
      vertex -1.304 0.349405 8
      vertex -1.24724 0.516623 8
    endloop
  endfacet
  facet normal -0 0 1
    outer loop
      vertex -2.77164 1.14805 8
      vertex -1.24724 0.516623 8
      vertex -2.59808 1.5 8
    endloop
  endfacet
  facet normal -0.831462 -0.555582 0
    outer loop
      vertex -2.59808 -1.5 0
      vertex -2.38006 -1.82628 0
      vertex -2.59808 -1.5 8
    endloop
  endfacet
  facet normal -0 0 -1
    outer loop
      vertex -2.59808 -1.5 0
      vertex -1.24724 -0.516623 0
      vertex -1.16913 -0.674999 0
    endloop
  endfacet
  facet normal 0 0 -1
    outer loop
      vertex -2.59808 -1.5 0
      vertex -1.16913 -0.674999 0
      vertex -2.38006 -1.82628 0
    endloop
  endfacet
  facet normal -0.831462 -0.555582 0
    outer loop
      vertex -2.59808 -1.5 8
      vertex -2.38006 -1.82628 0
      vertex -2.38006 -1.82628 8
    endloop
  endfacet
  facet normal 0 0 1
    outer loop
      vertex -2.59808 -1.5 8
      vertex -2.38006 -1.82628 8
      vertex -1.16913 -0.674999 8
    endloop
  endfacet
  facet normal 0 0 1
    outer loop
      vertex -2.59808 -1.5 8
      vertex -1.16913 -0.674999 8
      vertex -1.24724 -0.516623 8
    endloop
  endfacet
  facet normal -0.831462 0.555582 0
    outer loop
      vertex -2.59808 1.5 0
      vertex -2.59808 1.5 8
      vertex -2.38006 1.82628 8
    endloop
  endfacet
  facet normal 0 0 -1
    outer loop
      vertex -2.59808 1.5 0
      vertex -2.38006 1.82628 0
      vertex -1.16913 0.674999 0
    endloop
  endfacet
  facet normal -0.831462 0.555582 0
    outer loop
      vertex -2.59808 1.5 0
      vertex -2.38006 1.82628 8
      vertex -2.38006 1.82628 0
    endloop
  endfacet
  facet normal 0 0 -1
    outer loop
      vertex -2.59808 1.5 0
      vertex -1.16913 0.674999 0
      vertex -1.24724 0.516623 0
    endloop
  endfacet
  facet normal 0 0 1
    outer loop
      vertex -2.59808 1.5 8
      vertex -1.24724 0.516623 8
      vertex -1.16913 0.674999 8
    endloop
  endfacet
  facet normal -0 0 1
    outer loop
      vertex -2.59808 1.5 8
      vertex -1.16913 0.674999 8
      vertex -2.38006 1.82628 8
    endloop
  endfacet
  facet normal -0.751844 -0.659341 0
    outer loop
      vertex -2.38006 -1.82628 0
      vertex -2.12132 -2.12132 0
      vertex -2.38006 -1.82628 8
    endloop
  endfacet
  facet normal -0 0 -1
    outer loop
      vertex -2.38006 -1.82628 0
      vertex -1.16913 -0.674999 0
      vertex -1.07103 -0.821828 0
    endloop
  endfacet
  facet normal 0 0 -1
    outer loop
      vertex -2.38006 -1.82628 0
      vertex -1.07103 -0.821828 0
      vertex -2.12132 -2.12132 0
    endloop
  endfacet
  facet normal -0.751844 -0.659341 0
    outer loop
      vertex -2.38006 -1.82628 8
      vertex -2.12132 -2.12132 0
      vertex -2.12132 -2.12132 8
    endloop
  endfacet
  facet normal 0 0 1
    outer loop
      vertex -2.38006 -1.82628 8
      vertex -2.12132 -2.12132 8
      vertex -1.07103 -0.821828 8
    endloop
  endfacet
  facet normal 0 0 1
    outer loop
      vertex -2.38006 -1.82628 8
      vertex -1.07103 -0.821828 8
      vertex -1.16913 -0.674999 8
    endloop
  endfacet
  facet normal -0.751844 0.659341 0
    outer loop
      vertex -2.38006 1.82628 0
      vertex -2.38006 1.82628 8
      vertex -2.12132 2.12132 8
    endloop
  endfacet
  facet normal 0 0 -1
    outer loop
      vertex -2.38006 1.82628 0
      vertex -2.12132 2.12132 0
      vertex -1.07103 0.821828 0
    endloop
  endfacet
  facet normal -0.751844 0.659341 0
    outer loop
      vertex -2.38006 1.82628 0
      vertex -2.12132 2.12132 8
      vertex -2.12132 2.12132 0
    endloop
  endfacet
  facet normal 0 0 -1
    outer loop
      vertex -2.38006 1.82628 0
      vertex -1.07103 0.821828 0
      vertex -1.16913 0.674999 0
    endloop
  endfacet
  facet normal 0 0 1
    outer loop
      vertex -2.38006 1.82628 8
      vertex -1.16913 0.674999 8
      vertex -1.07103 0.821828 8
    endloop
  endfacet
  facet normal -0 0 1
    outer loop
      vertex -2.38006 1.82628 8
      vertex -1.07103 0.821828 8
      vertex -2.12132 2.12132 8
    endloop
  endfacet
  facet normal -0.659341 -0.751844 -0
    outer loop
      vertex -2.12132 -2.12132 0
      vertex -1.82628 -2.38006 0
      vertex -1.82628 -2.38006 8
    endloop
  endfacet
  facet normal -0.659341 -0.751844 0
    outer loop
      vertex -2.12132 -2.12132 0
      vertex -1.82628 -2.38006 8
      vertex -2.12132 -2.12132 8
    endloop
  endfacet
  facet normal -0 0 -1
    outer loop
      vertex -2.12132 -2.12132 0
      vertex -1.07103 -0.821828 0
      vertex -0.954594 -0.954594 0
    endloop
  endfacet
  facet normal 0 0 -1
    outer loop
      vertex -2.12132 -2.12132 0
      vertex -0.954594 -0.954594 0
      vertex -1.82628 -2.38006 0
    endloop
  endfacet
  facet normal 0 0 1
    outer loop
      vertex -2.12132 -2.12132 8
      vertex -1.82628 -2.38006 8
      vertex -0.954594 -0.954594 8
    endloop
  endfacet
  facet normal 0 0 1
    outer loop
      vertex -2.12132 -2.12132 8
      vertex -0.954594 -0.954594 8
      vertex -1.07103 -0.821828 8
    endloop
  endfacet
  facet normal -0.659341 0.751844 0
    outer loop
      vertex -2.12132 2.12132 0
      vertex -2.12132 2.12132 8
      vertex -1.82628 2.38006 0
    endloop
  endfacet
  facet normal 0 0 -1
    outer loop
      vertex -2.12132 2.12132 0
      vertex -1.82628 2.38006 0
      vertex -0.954594 0.954594 0
    endloop
  endfacet
  facet normal 0 0 -1
    outer loop
      vertex -2.12132 2.12132 0
      vertex -0.954594 0.954594 0
      vertex -1.07103 0.821828 0
    endloop
  endfacet
  facet normal -0.659341 0.751844 0
    outer loop
      vertex -2.12132 2.12132 8
      vertex -1.82628 2.38006 8
      vertex -1.82628 2.38006 0
    endloop
  endfacet
  facet normal 0 0 1
    outer loop
      vertex -2.12132 2.12132 8
      vertex -1.07103 0.821828 8
      vertex -0.954594 0.954594 8
    endloop
  endfacet
  facet normal -0 0 1
    outer loop
      vertex -2.12132 2.12132 8
      vertex -0.954594 0.954594 8
      vertex -1.82628 2.38006 8
    endloop
  endfacet
  facet normal -0.555582 -0.831462 -0
    outer loop
      vertex -1.82628 -2.38006 0
      vertex -1.5 -2.59808 0
      vertex -1.5 -2.59808 8
    endloop
  endfacet
  facet normal -0.555582 -0.831462 0
    outer loop
      vertex -1.82628 -2.38006 0
      vertex -1.5 -2.59808 8
      vertex -1.82628 -2.38006 8
    endloop
  endfacet
  facet normal -0 0 -1
    outer loop
      vertex -1.82628 -2.38006 0
      vertex -0.954594 -0.954594 0
      vertex -0.821828 -1.07103 0
    endloop
  endfacet
  facet normal 0 0 -1
    outer loop
      vertex -1.82628 -2.38006 0
      vertex -0.821828 -1.07103 0
      vertex -1.5 -2.59808 0
    endloop
  endfacet
  facet normal 0 0 1
    outer loop
      vertex -1.82628 -2.38006 8
      vertex -1.5 -2.59808 8
      vertex -0.821828 -1.07103 8
    endloop
  endfacet
  facet normal 0 0 1
    outer loop
      vertex -1.82628 -2.38006 8
      vertex -0.821828 -1.07103 8
      vertex -0.954594 -0.954594 8
    endloop
  endfacet
  facet normal -0.555582 0.831462 0
    outer loop
      vertex -1.82628 2.38006 0
      vertex -1.82628 2.38006 8
      vertex -1.5 2.59808 0
    endloop
  endfacet
  facet normal 0 0 -1
    outer loop
      vertex -1.82628 2.38006 0
      vertex -1.5 2.59808 0
      vertex -0.821828 1.07103 0
    endloop
  endfacet
  facet normal 0 0 -1
    outer loop
      vertex -1.82628 2.38006 0
      vertex -0.821828 1.07103 0
      vertex -0.954594 0.954594 0
    endloop
  endfacet
  facet normal -0.555582 0.831462 0
    outer loop
      vertex -1.82628 2.38006 8
      vertex -1.5 2.59808 8
      vertex -1.5 2.59808 0
    endloop
  endfacet
  facet normal 0 0 1
    outer loop
      vertex -1.82628 2.38006 8
      vertex -0.954594 0.954594 8
      vertex -0.821828 1.07103 8
    endloop
  endfacet
  facet normal -0 0 1
    outer loop
      vertex -1.82628 2.38006 8
      vertex -0.821828 1.07103 8
      vertex -1.5 2.59808 8
    endloop
  endfacet
  facet normal -0.442283 -0.896875 -0
    outer loop
      vertex -1.5 -2.59808 0
      vertex -1.14805 -2.77164 0
      vertex -1.14805 -2.77164 8
    endloop
  endfacet
  facet normal -0.442283 -0.896875 0
    outer loop
      vertex -1.5 -2.59808 0
      vertex -1.14805 -2.77164 8
      vertex -1.5 -2.59808 8
    endloop
  endfacet
  facet normal -0 0 -1
    outer loop
      vertex -1.5 -2.59808 0
      vertex -0.821828 -1.07103 0
      vertex -0.674999 -1.16913 0
    endloop
  endfacet
  facet normal 0 0 -1
    outer loop
      vertex -1.5 -2.59808 0
      vertex -0.674999 -1.16913 0
      vertex -1.14805 -2.77164 0
    endloop
  endfacet
  facet normal 0 0 1
    outer loop
      vertex -1.5 -2.59808 8
      vertex -1.14805 -2.77164 8
      vertex -0.674999 -1.16913 8
    endloop
  endfacet
  facet normal 0 0 1
    outer loop
      vertex -1.5 -2.59808 8
      vertex -0.674999 -1.16913 8
      vertex -0.821828 -1.07103 8
    endloop
  endfacet
  facet normal -0.442283 0.896875 0
    outer loop
      vertex -1.5 2.59808 0
      vertex -1.5 2.59808 8
      vertex -1.14805 2.77164 0
    endloop
  endfacet
  facet normal 0 0 -1
    outer loop
      vertex -1.5 2.59808 0
      vertex -1.14805 2.77164 0
      vertex -0.674999 1.16913 0
    endloop
  endfacet
  facet normal 0 0 -1
    outer loop
      vertex -1.5 2.59808 0
      vertex -0.674999 1.16913 0
      vertex -0.821828 1.07103 0
    endloop
  endfacet
  facet normal -0.442283 0.896875 0
    outer loop
      vertex -1.5 2.59808 8
      vertex -1.14805 2.77164 8
      vertex -1.14805 2.77164 0
    endloop
  endfacet
  facet normal 0 0 1
    outer loop
      vertex -1.5 2.59808 8
      vertex -0.821828 1.07103 8
      vertex -0.674999 1.16913 8
    endloop
  endfacet
  facet normal -0 0 1
    outer loop
      vertex -1.5 2.59808 8
      vertex -0.674999 1.16913 8
      vertex -1.14805 2.77164 8
    endloop
  endfacet
  facet normal 0.997859 0.0654068 0
    outer loop
      vertex -1.35 0 0
      vertex -1.35 0 8
      vertex -1.33845 -0.176209 8
    endloop
  endfacet
  facet normal 0.997859 0.0654068 0
    outer loop
      vertex -1.35 0 0
      vertex -1.33845 -0.176209 8
      vertex -1.33845 -0.176209 0
    endloop
  endfacet
  facet normal 0.997859 -0.0654068 0
    outer loop
      vertex -1.35 0 0
      vertex -1.33845 0.176209 0
      vertex -1.35 0 8
    endloop
  endfacet
  facet normal 0.997859 -0.0654068 0
    outer loop
      vertex -1.35 0 8
      vertex -1.33845 0.176209 0
      vertex -1.33845 0.176209 8
    endloop
  endfacet
  facet normal 0.980786 0.195086 0
    outer loop
      vertex -1.33845 -0.176209 0
      vertex -1.33845 -0.176209 8
      vertex -1.304 -0.349405 8
    endloop
  endfacet
  facet normal 0.980786 0.195086 0
    outer loop
      vertex -1.33845 -0.176209 0
      vertex -1.304 -0.349405 8
      vertex -1.304 -0.349405 0
    endloop
  endfacet
  facet normal 0.980786 -0.195086 0
    outer loop
      vertex -1.33845 0.176209 0
      vertex -1.304 0.349405 0
      vertex -1.33845 0.176209 8
    endloop
  endfacet
  facet normal 0.980786 -0.195086 0
    outer loop
      vertex -1.33845 0.176209 8
      vertex -1.304 0.349405 0
      vertex -1.304 0.349405 8
    endloop
  endfacet
  facet normal 0.946935 0.321425 0
    outer loop
      vertex -1.304 -0.349405 0
      vertex -1.304 -0.349405 8
      vertex -1.24724 -0.516623 8
    endloop
  endfacet
  facet normal 0.946935 0.321425 0
    outer loop
      vertex -1.304 -0.349405 0
      vertex -1.24724 -0.516623 8
      vertex -1.24724 -0.516623 0
    endloop
  endfacet
  facet normal 0.946935 -0.321425 0
    outer loop
      vertex -1.304 0.349405 0
      vertex -1.24724 0.516623 0
      vertex -1.304 0.349405 8
    endloop
  endfacet
  facet normal 0.946935 -0.321425 0
    outer loop
      vertex -1.304 0.349405 8
      vertex -1.24724 0.516623 0
      vertex -1.24724 0.516623 8
    endloop
  endfacet
  facet normal 0.896856 0.442323 0
    outer loop
      vertex -1.24724 -0.516623 0
      vertex -1.24724 -0.516623 8
      vertex -1.16913 -0.674999 8
    endloop
  endfacet
  facet normal 0.896856 0.442323 0
    outer loop
      vertex -1.24724 -0.516623 0
      vertex -1.16913 -0.674999 8
      vertex -1.16913 -0.674999 0
    endloop
  endfacet
  facet normal 0.896856 -0.442323 0
    outer loop
      vertex -1.24724 0.516623 0
      vertex -1.16913 0.674999 0
      vertex -1.24724 0.516623 8
    endloop
  endfacet
  facet normal 0.896856 -0.442323 0
    outer loop
      vertex -1.24724 0.516623 8
      vertex -1.16913 0.674999 0
      vertex -1.16913 0.674999 8
    endloop
  endfacet
  facet normal 0.831491 0.555539 0
    outer loop
      vertex -1.16913 -0.674999 0
      vertex -1.16913 -0.674999 8
      vertex -1.07103 -0.821828 8
    endloop
  endfacet
  facet normal 0.831491 0.555539 0
    outer loop
      vertex -1.16913 -0.674999 0
      vertex -1.07103 -0.821828 8
      vertex -1.07103 -0.821828 0
    endloop
  endfacet
  facet normal 0.831491 -0.555539 0
    outer loop
      vertex -1.16913 0.674999 0
      vertex -1.07103 0.821828 0
      vertex -1.16913 0.674999 8
    endloop
  endfacet
  facet normal 0.831491 -0.555539 0
    outer loop
      vertex -1.16913 0.674999 8
      vertex -1.07103 0.821828 0
      vertex -1.07103 0.821828 8
    endloop
  endfacet
  facet normal -0.321442 -0.946929 -0
    outer loop
      vertex -1.14805 -2.77164 0
      vertex -0.776457 -2.89778 0
      vertex -0.776457 -2.89778 8
    endloop
  endfacet
  facet normal -0.321442 -0.946929 0
    outer loop
      vertex -1.14805 -2.77164 0
      vertex -0.776457 -2.89778 8
      vertex -1.14805 -2.77164 8
    endloop
  endfacet
  facet normal -0 0 -1
    outer loop
      vertex -1.14805 -2.77164 0
      vertex -0.674999 -1.16913 0
      vertex -0.516623 -1.24724 0
    endloop
  endfacet
  facet normal 0 0 -1
    outer loop
      vertex -1.14805 -2.77164 0
      vertex -0.516623 -1.24724 0
      vertex -0.776457 -2.89778 0
    endloop
  endfacet
  facet normal 0 0 1
    outer loop
      vertex -1.14805 -2.77164 8
      vertex -0.776457 -2.89778 8
      vertex -0.516623 -1.24724 8
    endloop
  endfacet
  facet normal 0 0 1
    outer loop
      vertex -1.14805 -2.77164 8
      vertex -0.516623 -1.24724 8
      vertex -0.674999 -1.16913 8
    endloop
  endfacet
  facet normal -0.321442 0.946929 0
    outer loop
      vertex -1.14805 2.77164 0
      vertex -1.14805 2.77164 8
      vertex -0.776457 2.89778 0
    endloop
  endfacet
  facet normal 0 0 -1
    outer loop
      vertex -1.14805 2.77164 0
      vertex -0.776457 2.89778 0
      vertex -0.516623 1.24724 0
    endloop
  endfacet
  facet normal 0 0 -1
    outer loop
      vertex -1.14805 2.77164 0
      vertex -0.516623 1.24724 0
      vertex -0.674999 1.16913 0
    endloop
  endfacet
  facet normal -0.321442 0.946929 0
    outer loop
      vertex -1.14805 2.77164 8
      vertex -0.776457 2.89778 8
      vertex -0.776457 2.89778 0
    endloop
  endfacet
  facet normal 0 0 1
    outer loop
      vertex -1.14805 2.77164 8
      vertex -0.674999 1.16913 8
      vertex -0.516623 1.24724 8
    endloop
  endfacet
  facet normal -0 0 1
    outer loop
      vertex -1.14805 2.77164 8
      vertex -0.516623 1.24724 8
      vertex -0.776457 2.89778 8
    endloop
  endfacet
  facet normal 0.75183 0.659357 0
    outer loop
      vertex -1.07103 -0.821828 0
      vertex -1.07103 -0.821828 8
      vertex -0.954594 -0.954594 8
    endloop
  endfacet
  facet normal 0.75183 0.659357 0
    outer loop
      vertex -1.07103 -0.821828 0
      vertex -0.954594 -0.954594 8
      vertex -0.954594 -0.954594 0
    endloop
  endfacet
  facet normal 0.75183 -0.659357 0
    outer loop
      vertex -1.07103 0.821828 0
      vertex -0.954594 0.954594 0
      vertex -1.07103 0.821828 8
    endloop
  endfacet
  facet normal 0.75183 -0.659357 0
    outer loop
      vertex -1.07103 0.821828 8
      vertex -0.954594 0.954594 0
      vertex -0.954594 0.954594 8
    endloop
  endfacet
  facet normal 0.659357 0.75183 0
    outer loop
      vertex -0.954594 -0.954594 0
      vertex -0.954594 -0.954594 8
      vertex -0.821828 -1.07103 0
    endloop
  endfacet
  facet normal 0.659357 0.75183 -0
    outer loop
      vertex -0.954594 -0.954594 8
      vertex -0.821828 -1.07103 8
      vertex -0.821828 -1.07103 0
    endloop
  endfacet
  facet normal 0.659357 -0.75183 0
    outer loop
      vertex -0.954594 0.954594 0
      vertex -0.821828 1.07103 0
      vertex -0.821828 1.07103 8
    endloop
  endfacet
  facet normal 0.659357 -0.75183 0
    outer loop
      vertex -0.954594 0.954594 0
      vertex -0.821828 1.07103 8
      vertex -0.954594 0.954594 8
    endloop
  endfacet
  facet normal 0.555539 0.831491 0
    outer loop
      vertex -0.821828 -1.07103 0
      vertex -0.821828 -1.07103 8
      vertex -0.674999 -1.16913 0
    endloop
  endfacet
  facet normal 0.555539 0.831491 -0
    outer loop
      vertex -0.821828 -1.07103 8
      vertex -0.674999 -1.16913 8
      vertex -0.674999 -1.16913 0
    endloop
  endfacet
  facet normal 0.555539 -0.831491 0
    outer loop
      vertex -0.821828 1.07103 0
      vertex -0.674999 1.16913 0
      vertex -0.674999 1.16913 8
    endloop
  endfacet
  facet normal 0.555539 -0.831491 0
    outer loop
      vertex -0.821828 1.07103 0
      vertex -0.674999 1.16913 8
      vertex -0.821828 1.07103 8
    endloop
  endfacet
  facet normal -0 0 -1
    outer loop
      vertex -0.776457 -2.89778 0
      vertex -0.516623 -1.24724 0
      vertex -0.349405 -1.304 0
    endloop
  endfacet
  facet normal -0.195073 -0.980789 -0
    outer loop
      vertex -0.776457 -2.89778 0
      vertex -0.391578 -2.97433 0
      vertex -0.391578 -2.97433 8
    endloop
  endfacet
  facet normal -0.195073 -0.980789 0
    outer loop
      vertex -0.776457 -2.89778 0
      vertex -0.391578 -2.97433 8
      vertex -0.776457 -2.89778 8
    endloop
  endfacet
  facet normal 0 0 -1
    outer loop
      vertex -0.776457 -2.89778 0
      vertex -0.349405 -1.304 0
      vertex -0.391578 -2.97433 0
    endloop
  endfacet
  facet normal 0 0 1
    outer loop
      vertex -0.776457 -2.89778 8
      vertex -0.391578 -2.97433 8
      vertex -0.349405 -1.304 8
    endloop
  endfacet
  facet normal 0 0 1
    outer loop
      vertex -0.776457 -2.89778 8
      vertex -0.349405 -1.304 8
      vertex -0.516623 -1.24724 8
    endloop
  endfacet
  facet normal -0.195073 0.980789 0
    outer loop
      vertex -0.776457 2.89778 0
      vertex -0.776457 2.89778 8
      vertex -0.391578 2.97433 0
    endloop
  endfacet
  facet normal 0 0 -1
    outer loop
      vertex -0.776457 2.89778 0
      vertex -0.391578 2.97433 0
      vertex -0.349405 1.304 0
    endloop
  endfacet
  facet normal 0 0 -1
    outer loop
      vertex -0.776457 2.89778 0
      vertex -0.349405 1.304 0
      vertex -0.516623 1.24724 0
    endloop
  endfacet
  facet normal 0 0 1
    outer loop
      vertex -0.776457 2.89778 8
      vertex -0.516623 1.24724 8
      vertex -0.349405 1.304 8
    endloop
  endfacet
  facet normal -0.195073 0.980789 0
    outer loop
      vertex -0.776457 2.89778 8
      vertex -0.391578 2.97433 8
      vertex -0.391578 2.97433 0
    endloop
  endfacet
  facet normal -0 0 1
    outer loop
      vertex -0.776457 2.89778 8
      vertex -0.349405 1.304 8
      vertex -0.391578 2.97433 8
    endloop
  endfacet
  facet normal 0.442323 0.896856 0
    outer loop
      vertex -0.674999 -1.16913 0
      vertex -0.674999 -1.16913 8
      vertex -0.516623 -1.24724 0
    endloop
  endfacet
  facet normal 0.442323 0.896856 -0
    outer loop
      vertex -0.674999 -1.16913 8
      vertex -0.516623 -1.24724 8
      vertex -0.516623 -1.24724 0
    endloop
  endfacet
  facet normal 0.442323 -0.896856 0
    outer loop
      vertex -0.674999 1.16913 0
      vertex -0.516623 1.24724 0
      vertex -0.516623 1.24724 8
    endloop
  endfacet
  facet normal 0.442323 -0.896856 0
    outer loop
      vertex -0.674999 1.16913 0
      vertex -0.516623 1.24724 8
      vertex -0.674999 1.16913 8
    endloop
  endfacet
  facet normal 0.321425 0.946935 0
    outer loop
      vertex -0.516623 -1.24724 0
      vertex -0.516623 -1.24724 8
      vertex -0.349405 -1.304 0
    endloop
  endfacet
  facet normal 0.321425 0.946935 -0
    outer loop
      vertex -0.516623 -1.24724 8
      vertex -0.349405 -1.304 8
      vertex -0.349405 -1.304 0
    endloop
  endfacet
  facet normal 0.321425 -0.946935 0
    outer loop
      vertex -0.516623 1.24724 0
      vertex -0.349405 1.304 0
      vertex -0.349405 1.304 8
    endloop
  endfacet
  facet normal 0.321425 -0.946935 0
    outer loop
      vertex -0.516623 1.24724 0
      vertex -0.349405 1.304 8
      vertex -0.516623 1.24724 8
    endloop
  endfacet
  facet normal -0 0 -1
    outer loop
      vertex -0.391578 -2.97433 0
      vertex -0.349405 -1.304 0
      vertex -0.176209 -1.33845 0
    endloop
  endfacet
  facet normal 0 0 -1
    outer loop
      vertex -0.391578 -2.97433 0
      vertex -0.176209 -1.33845 0
      vertex 0 -3 0
    endloop
  endfacet
  facet normal -0.0654149 -0.997858 -0
    outer loop
      vertex -0.391578 -2.97433 0
      vertex 0 -3 0
      vertex 0 -3 8
    endloop
  endfacet
  facet normal -0.0654149 -0.997858 0
    outer loop
      vertex -0.391578 -2.97433 0
      vertex 0 -3 8
      vertex -0.391578 -2.97433 8
    endloop
  endfacet
  facet normal 0 0 1
    outer loop
      vertex -0.391578 -2.97433 8
      vertex -0.176209 -1.33845 8
      vertex -0.349405 -1.304 8
    endloop
  endfacet
  facet normal 0 0 1
    outer loop
      vertex -0.391578 -2.97433 8
      vertex 0 -3 8
      vertex -0.176209 -1.33845 8
    endloop
  endfacet
  facet normal -0.0654149 0.997858 0
    outer loop
      vertex -0.391578 2.97433 0
      vertex -0.391578 2.97433 8
      vertex 0 3 0
    endloop
  endfacet
  facet normal 0 0 -1
    outer loop
      vertex -0.391578 2.97433 0
      vertex -0.176209 1.33845 0
      vertex -0.349405 1.304 0
    endloop
  endfacet
  facet normal 0 0 -1
    outer loop
      vertex -0.391578 2.97433 0
      vertex 0 3 0
      vertex -0.176209 1.33845 0
    endloop
  endfacet
  facet normal 0 0 1
    outer loop
      vertex -0.391578 2.97433 8
      vertex -0.349405 1.304 8
      vertex -0.176209 1.33845 8
    endloop
  endfacet
  facet normal -0 0 1
    outer loop
      vertex -0.391578 2.97433 8
      vertex -0.176209 1.33845 8
      vertex 0 3 8
    endloop
  endfacet
  facet normal -0.0654149 0.997858 0
    outer loop
      vertex -0.391578 2.97433 8
      vertex 0 3 8
      vertex 0 3 0
    endloop
  endfacet
  facet normal 0.195086 0.980786 0
    outer loop
      vertex -0.349405 -1.304 0
      vertex -0.349405 -1.304 8
      vertex -0.176209 -1.33845 0
    endloop
  endfacet
  facet normal 0.195086 0.980786 -0
    outer loop
      vertex -0.349405 -1.304 8
      vertex -0.176209 -1.33845 8
      vertex -0.176209 -1.33845 0
    endloop
  endfacet
  facet normal 0.195086 -0.980786 0
    outer loop
      vertex -0.349405 1.304 0
      vertex -0.176209 1.33845 0
      vertex -0.176209 1.33845 8
    endloop
  endfacet
  facet normal 0.195086 -0.980786 0
    outer loop
      vertex -0.349405 1.304 0
      vertex -0.176209 1.33845 8
      vertex -0.349405 1.304 8
    endloop
  endfacet
  facet normal 0.0654068 0.997859 0
    outer loop
      vertex -0.176209 -1.33845 0
      vertex -0.176209 -1.33845 8
      vertex 0 -1.35 0
    endloop
  endfacet
  facet normal 0 0 -1
    outer loop
      vertex -0.176209 -1.33845 0
      vertex 0 -1.35 0
      vertex 0 -3 0
    endloop
  endfacet
  facet normal 0 0 1
    outer loop
      vertex -0.176209 -1.33845 8
      vertex 0 -3 8
      vertex 0 -1.35 8
    endloop
  endfacet
  facet normal 0.0654068 0.997859 -0
    outer loop
      vertex -0.176209 -1.33845 8
      vertex 0 -1.35 8
      vertex 0 -1.35 0
    endloop
  endfacet
  facet normal 0.0654068 -0.997859 0
    outer loop
      vertex -0.176209 1.33845 0
      vertex 0 1.35 0
      vertex 0 1.35 8
    endloop
  endfacet
  facet normal 0.0654068 -0.997859 0
    outer loop
      vertex -0.176209 1.33845 0
      vertex 0 1.35 8
      vertex -0.176209 1.33845 8
    endloop
  endfacet
  facet normal 0 0 -1
    outer loop
      vertex -0.176209 1.33845 0
      vertex 0 3 0
      vertex 0 1.35 0
    endloop
  endfacet
  facet normal 0 0 1
    outer loop
      vertex -0.176209 1.33845 8
      vertex 0 1.35 8
      vertex 0 3 8
    endloop
  endfacet
  facet normal 0 0 -1
    outer loop
      vertex 0 -3 0
      vertex 0 -1.35 0
      vertex 0.176209 -1.33845 0
    endloop
  endfacet
  facet normal 0 0 -1
    outer loop
      vertex 0 -3 0
      vertex 0.176209 -1.33845 0
      vertex 0.391578 -2.97433 0
    endloop
  endfacet
  facet normal 0.0654149 -0.997858 0
    outer loop
      vertex 0 -3 0
      vertex 0.391578 -2.97433 0
      vertex 0.391578 -2.97433 8
    endloop
  endfacet
  facet normal 0.0654149 -0.997858 0
    outer loop
      vertex 0 -3 0
      vertex 0.391578 -2.97433 8
      vertex 0 -3 8
    endloop
  endfacet
  facet normal 0 0 1
    outer loop
      vertex 0 -3 8
      vertex 0.391578 -2.97433 8
      vertex 0 -1.35 8
    endloop
  endfacet
  facet normal -0.0654068 0.997859 0
    outer loop
      vertex 0 -1.35 0
      vertex 0 -1.35 8
      vertex 0.176209 -1.33845 0
    endloop
  endfacet
  facet normal -0.0654068 0.997859 0
    outer loop
      vertex 0 -1.35 8
      vertex 0.176209 -1.33845 8
      vertex 0.176209 -1.33845 0
    endloop
  endfacet
  facet normal -0 0 1
    outer loop
      vertex 0 -1.35 8
      vertex 0.391578 -2.97433 8
      vertex 0.176209 -1.33845 8
    endloop
  endfacet
  facet normal 0 0 -1
    outer loop
      vertex 0 1.35 0
      vertex 0 3 0
      vertex 0.391578 2.97433 0
    endloop
  endfacet
  facet normal -0.0654068 -0.997859 -0
    outer loop
      vertex 0 1.35 0
      vertex 0.176209 1.33845 0
      vertex 0.176209 1.33845 8
    endloop
  endfacet
  facet normal -0.0654068 -0.997859 0
    outer loop
      vertex 0 1.35 0
      vertex 0.176209 1.33845 8
      vertex 0 1.35 8
    endloop
  endfacet
  facet normal 0 0 -1
    outer loop
      vertex 0 1.35 0
      vertex 0.391578 2.97433 0
      vertex 0.176209 1.33845 0
    endloop
  endfacet
  facet normal 0 0 1
    outer loop
      vertex 0 1.35 8
      vertex 0.176209 1.33845 8
      vertex 0 3 8
    endloop
  endfacet
  facet normal 0.0654149 0.997858 0
    outer loop
      vertex 0 3 0
      vertex 0 3 8
      vertex 0.391578 2.97433 0
    endloop
  endfacet
  facet normal 0 0 1
    outer loop
      vertex 0 3 8
      vertex 0.176209 1.33845 8
      vertex 0.391578 2.97433 8
    endloop
  endfacet
  facet normal 0.0654149 0.997858 -0
    outer loop
      vertex 0 3 8
      vertex 0.391578 2.97433 8
      vertex 0.391578 2.97433 0
    endloop
  endfacet
  facet normal -0.195086 0.980786 0
    outer loop
      vertex 0.176209 -1.33845 0
      vertex 0.176209 -1.33845 8
      vertex 0.349405 -1.304 0
    endloop
  endfacet
  facet normal 0 0 -1
    outer loop
      vertex 0.176209 -1.33845 0
      vertex 0.349405 -1.304 0
      vertex 0.391578 -2.97433 0
    endloop
  endfacet
  facet normal -0.195086 0.980786 0
    outer loop
      vertex 0.176209 -1.33845 8
      vertex 0.349405 -1.304 8
      vertex 0.349405 -1.304 0
    endloop
  endfacet
  facet normal -0 0 1
    outer loop
      vertex 0.176209 -1.33845 8
      vertex 0.391578 -2.97433 8
      vertex 0.349405 -1.304 8
    endloop
  endfacet
  facet normal -0.195086 -0.980786 -0
    outer loop
      vertex 0.176209 1.33845 0
      vertex 0.349405 1.304 0
      vertex 0.349405 1.304 8
    endloop
  endfacet
  facet normal -0.195086 -0.980786 0
    outer loop
      vertex 0.176209 1.33845 0
      vertex 0.349405 1.304 8
      vertex 0.176209 1.33845 8
    endloop
  endfacet
  facet normal 0 0 -1
    outer loop
      vertex 0.176209 1.33845 0
      vertex 0.391578 2.97433 0
      vertex 0.349405 1.304 0
    endloop
  endfacet
  facet normal 0 0 1
    outer loop
      vertex 0.176209 1.33845 8
      vertex 0.349405 1.304 8
      vertex 0.391578 2.97433 8
    endloop
  endfacet
  facet normal -0.321425 0.946935 0
    outer loop
      vertex 0.349405 -1.304 0
      vertex 0.349405 -1.304 8
      vertex 0.516623 -1.24724 0
    endloop
  endfacet
  facet normal 0 0 -1
    outer loop
      vertex 0.349405 -1.304 0
      vertex 0.516623 -1.24724 0
      vertex 0.776457 -2.89778 0
    endloop
  endfacet
  facet normal 0 0 -1
    outer loop
      vertex 0.349405 -1.304 0
      vertex 0.776457 -2.89778 0
      vertex 0.391578 -2.97433 0
    endloop
  endfacet
  facet normal 0 0 1
    outer loop
      vertex 0.349405 -1.304 8
      vertex 0.391578 -2.97433 8
      vertex 0.776457 -2.89778 8
    endloop
  endfacet
  facet normal -0.321425 0.946935 0
    outer loop
      vertex 0.349405 -1.304 8
      vertex 0.516623 -1.24724 8
      vertex 0.516623 -1.24724 0
    endloop
  endfacet
  facet normal -0 0 1
    outer loop
      vertex 0.349405 -1.304 8
      vertex 0.776457 -2.89778 8
      vertex 0.516623 -1.24724 8
    endloop
  endfacet
  facet normal -0 0 -1
    outer loop
      vertex 0.349405 1.304 0
      vertex 0.391578 2.97433 0
      vertex 0.776457 2.89778 0
    endloop
  endfacet
  facet normal -0.321425 -0.946935 -0
    outer loop
      vertex 0.349405 1.304 0
      vertex 0.516623 1.24724 0
      vertex 0.516623 1.24724 8
    endloop
  endfacet
  facet normal -0.321425 -0.946935 0
    outer loop
      vertex 0.349405 1.304 0
      vertex 0.516623 1.24724 8
      vertex 0.349405 1.304 8
    endloop
  endfacet
  facet normal 0 0 -1
    outer loop
      vertex 0.349405 1.304 0
      vertex 0.776457 2.89778 0
      vertex 0.516623 1.24724 0
    endloop
  endfacet
  facet normal 0 0 1
    outer loop
      vertex 0.349405 1.304 8
      vertex 0.516623 1.24724 8
      vertex 0.776457 2.89778 8
    endloop
  endfacet
  facet normal 0 0 1
    outer loop
      vertex 0.349405 1.304 8
      vertex 0.776457 2.89778 8
      vertex 0.391578 2.97433 8
    endloop
  endfacet
  facet normal 0.195073 -0.980789 0
    outer loop
      vertex 0.391578 -2.97433 0
      vertex 0.776457 -2.89778 0
      vertex 0.776457 -2.89778 8
    endloop
  endfacet
  facet normal 0.195073 -0.980789 0
    outer loop
      vertex 0.391578 -2.97433 0
      vertex 0.776457 -2.89778 8
      vertex 0.391578 -2.97433 8
    endloop
  endfacet
  facet normal 0.195073 0.980789 0
    outer loop
      vertex 0.391578 2.97433 0
      vertex 0.391578 2.97433 8
      vertex 0.776457 2.89778 0
    endloop
  endfacet
  facet normal 0.195073 0.980789 -0
    outer loop
      vertex 0.391578 2.97433 8
      vertex 0.776457 2.89778 8
      vertex 0.776457 2.89778 0
    endloop
  endfacet
  facet normal -0.442323 0.896856 0
    outer loop
      vertex 0.516623 -1.24724 0
      vertex 0.516623 -1.24724 8
      vertex 0.674999 -1.16913 0
    endloop
  endfacet
  facet normal 0 0 -1
    outer loop
      vertex 0.516623 -1.24724 0
      vertex 0.674999 -1.16913 0
      vertex 1.14805 -2.77164 0
    endloop
  endfacet
  facet normal 0 0 -1
    outer loop
      vertex 0.516623 -1.24724 0
      vertex 1.14805 -2.77164 0
      vertex 0.776457 -2.89778 0
    endloop
  endfacet
  facet normal -0.442323 0.896856 0
    outer loop
      vertex 0.516623 -1.24724 8
      vertex 0.674999 -1.16913 8
      vertex 0.674999 -1.16913 0
    endloop
  endfacet
  facet normal 0 0 1
    outer loop
      vertex 0.516623 -1.24724 8
      vertex 0.776457 -2.89778 8
      vertex 1.14805 -2.77164 8
    endloop
  endfacet
  facet normal -0 0 1
    outer loop
      vertex 0.516623 -1.24724 8
      vertex 1.14805 -2.77164 8
      vertex 0.674999 -1.16913 8
    endloop
  endfacet
  facet normal -0.442323 -0.896856 -0
    outer loop
      vertex 0.516623 1.24724 0
      vertex 0.674999 1.16913 0
      vertex 0.674999 1.16913 8
    endloop
  endfacet
  facet normal -0.442323 -0.896856 0
    outer loop
      vertex 0.516623 1.24724 0
      vertex 0.674999 1.16913 8
      vertex 0.516623 1.24724 8
    endloop
  endfacet
  facet normal -0 0 -1
    outer loop
      vertex 0.516623 1.24724 0
      vertex 0.776457 2.89778 0
      vertex 1.14805 2.77164 0
    endloop
  endfacet
  facet normal 0 0 -1
    outer loop
      vertex 0.516623 1.24724 0
      vertex 1.14805 2.77164 0
      vertex 0.674999 1.16913 0
    endloop
  endfacet
  facet normal 0 0 1
    outer loop
      vertex 0.516623 1.24724 8
      vertex 0.674999 1.16913 8
      vertex 1.14805 2.77164 8
    endloop
  endfacet
  facet normal 0 0 1
    outer loop
      vertex 0.516623 1.24724 8
      vertex 1.14805 2.77164 8
      vertex 0.776457 2.89778 8
    endloop
  endfacet
  facet normal -0.555539 0.831491 0
    outer loop
      vertex 0.674999 -1.16913 0
      vertex 0.674999 -1.16913 8
      vertex 0.821828 -1.07103 0
    endloop
  endfacet
  facet normal 0 0 -1
    outer loop
      vertex 0.674999 -1.16913 0
      vertex 0.821828 -1.07103 0
      vertex 1.5 -2.59808 0
    endloop
  endfacet
  facet normal 0 0 -1
    outer loop
      vertex 0.674999 -1.16913 0
      vertex 1.5 -2.59808 0
      vertex 1.14805 -2.77164 0
    endloop
  endfacet
  facet normal -0.555539 0.831491 0
    outer loop
      vertex 0.674999 -1.16913 8
      vertex 0.821828 -1.07103 8
      vertex 0.821828 -1.07103 0
    endloop
  endfacet
  facet normal 0 0 1
    outer loop
      vertex 0.674999 -1.16913 8
      vertex 1.14805 -2.77164 8
      vertex 1.5 -2.59808 8
    endloop
  endfacet
  facet normal -0 0 1
    outer loop
      vertex 0.674999 -1.16913 8
      vertex 1.5 -2.59808 8
      vertex 0.821828 -1.07103 8
    endloop
  endfacet
  facet normal -0.555539 -0.831491 -0
    outer loop
      vertex 0.674999 1.16913 0
      vertex 0.821828 1.07103 0
      vertex 0.821828 1.07103 8
    endloop
  endfacet
  facet normal -0.555539 -0.831491 0
    outer loop
      vertex 0.674999 1.16913 0
      vertex 0.821828 1.07103 8
      vertex 0.674999 1.16913 8
    endloop
  endfacet
  facet normal -0 0 -1
    outer loop
      vertex 0.674999 1.16913 0
      vertex 1.14805 2.77164 0
      vertex 1.5 2.59808 0
    endloop
  endfacet
  facet normal 0 0 -1
    outer loop
      vertex 0.674999 1.16913 0
      vertex 1.5 2.59808 0
      vertex 0.821828 1.07103 0
    endloop
  endfacet
  facet normal 0 0 1
    outer loop
      vertex 0.674999 1.16913 8
      vertex 0.821828 1.07103 8
      vertex 1.5 2.59808 8
    endloop
  endfacet
  facet normal 0 0 1
    outer loop
      vertex 0.674999 1.16913 8
      vertex 1.5 2.59808 8
      vertex 1.14805 2.77164 8
    endloop
  endfacet
  facet normal 0.321442 -0.946929 0
    outer loop
      vertex 0.776457 -2.89778 0
      vertex 1.14805 -2.77164 0
      vertex 1.14805 -2.77164 8
    endloop
  endfacet
  facet normal 0.321442 -0.946929 0
    outer loop
      vertex 0.776457 -2.89778 0
      vertex 1.14805 -2.77164 8
      vertex 0.776457 -2.89778 8
    endloop
  endfacet
  facet normal 0.321442 0.946929 0
    outer loop
      vertex 0.776457 2.89778 0
      vertex 0.776457 2.89778 8
      vertex 1.14805 2.77164 0
    endloop
  endfacet
  facet normal 0.321442 0.946929 -0
    outer loop
      vertex 0.776457 2.89778 8
      vertex 1.14805 2.77164 8
      vertex 1.14805 2.77164 0
    endloop
  endfacet
  facet normal -0.659357 0.75183 0
    outer loop
      vertex 0.821828 -1.07103 0
      vertex 0.821828 -1.07103 8
      vertex 0.954594 -0.954594 0
    endloop
  endfacet
  facet normal 0 0 -1
    outer loop
      vertex 0.821828 -1.07103 0
      vertex 0.954594 -0.954594 0
      vertex 1.82628 -2.38006 0
    endloop
  endfacet
  facet normal 0 0 -1
    outer loop
      vertex 0.821828 -1.07103 0
      vertex 1.82628 -2.38006 0
      vertex 1.5 -2.59808 0
    endloop
  endfacet
  facet normal -0.659357 0.75183 0
    outer loop
      vertex 0.821828 -1.07103 8
      vertex 0.954594 -0.954594 8
      vertex 0.954594 -0.954594 0
    endloop
  endfacet
  facet normal 0 0 1
    outer loop
      vertex 0.821828 -1.07103 8
      vertex 1.5 -2.59808 8
      vertex 1.82628 -2.38006 8
    endloop
  endfacet
  facet normal -0 0 1
    outer loop
      vertex 0.821828 -1.07103 8
      vertex 1.82628 -2.38006 8
      vertex 0.954594 -0.954594 8
    endloop
  endfacet
  facet normal -0.659357 -0.75183 -0
    outer loop
      vertex 0.821828 1.07103 0
      vertex 0.954594 0.954594 0
      vertex 0.954594 0.954594 8
    endloop
  endfacet
  facet normal -0.659357 -0.75183 0
    outer loop
      vertex 0.821828 1.07103 0
      vertex 0.954594 0.954594 8
      vertex 0.821828 1.07103 8
    endloop
  endfacet
  facet normal -0 0 -1
    outer loop
      vertex 0.821828 1.07103 0
      vertex 1.5 2.59808 0
      vertex 1.82628 2.38006 0
    endloop
  endfacet
  facet normal 0 0 -1
    outer loop
      vertex 0.821828 1.07103 0
      vertex 1.82628 2.38006 0
      vertex 0.954594 0.954594 0
    endloop
  endfacet
  facet normal 0 0 1
    outer loop
      vertex 0.821828 1.07103 8
      vertex 0.954594 0.954594 8
      vertex 1.82628 2.38006 8
    endloop
  endfacet
  facet normal 0 0 1
    outer loop
      vertex 0.821828 1.07103 8
      vertex 1.82628 2.38006 8
      vertex 1.5 2.59808 8
    endloop
  endfacet
  facet normal -0.75183 0.659357 0
    outer loop
      vertex 0.954594 -0.954594 0
      vertex 0.954594 -0.954594 8
      vertex 1.07103 -0.821828 8
    endloop
  endfacet
  facet normal 0 0 -1
    outer loop
      vertex 0.954594 -0.954594 0
      vertex 1.07103 -0.821828 0
      vertex 2.12132 -2.12132 0
    endloop
  endfacet
  facet normal -0.75183 0.659357 0
    outer loop
      vertex 0.954594 -0.954594 0
      vertex 1.07103 -0.821828 8
      vertex 1.07103 -0.821828 0
    endloop
  endfacet
  facet normal 0 0 -1
    outer loop
      vertex 0.954594 -0.954594 0
      vertex 2.12132 -2.12132 0
      vertex 1.82628 -2.38006 0
    endloop
  endfacet
  facet normal 0 0 1
    outer loop
      vertex 0.954594 -0.954594 8
      vertex 1.82628 -2.38006 8
      vertex 2.12132 -2.12132 8
    endloop
  endfacet
  facet normal -0 0 1
    outer loop
      vertex 0.954594 -0.954594 8
      vertex 2.12132 -2.12132 8
      vertex 1.07103 -0.821828 8
    endloop
  endfacet
  facet normal -0.75183 -0.659357 0
    outer loop
      vertex 0.954594 0.954594 0
      vertex 1.07103 0.821828 0
      vertex 0.954594 0.954594 8
    endloop
  endfacet
  facet normal -0 0 -1
    outer loop
      vertex 0.954594 0.954594 0
      vertex 1.82628 2.38006 0
      vertex 2.12132 2.12132 0
    endloop
  endfacet
  facet normal 0 0 -1
    outer loop
      vertex 0.954594 0.954594 0
      vertex 2.12132 2.12132 0
      vertex 1.07103 0.821828 0
    endloop
  endfacet
  facet normal -0.75183 -0.659357 0
    outer loop
      vertex 0.954594 0.954594 8
      vertex 1.07103 0.821828 0
      vertex 1.07103 0.821828 8
    endloop
  endfacet
  facet normal 0 0 1
    outer loop
      vertex 0.954594 0.954594 8
      vertex 1.07103 0.821828 8
      vertex 2.12132 2.12132 8
    endloop
  endfacet
  facet normal 0 0 1
    outer loop
      vertex 0.954594 0.954594 8
      vertex 2.12132 2.12132 8
      vertex 1.82628 2.38006 8
    endloop
  endfacet
  facet normal -0.831491 0.555539 0
    outer loop
      vertex 1.07103 -0.821828 0
      vertex 1.07103 -0.821828 8
      vertex 1.16913 -0.674999 8
    endloop
  endfacet
  facet normal 0 0 -1
    outer loop
      vertex 1.07103 -0.821828 0
      vertex 1.16913 -0.674999 0
      vertex 2.38006 -1.82628 0
    endloop
  endfacet
  facet normal -0.831491 0.555539 0
    outer loop
      vertex 1.07103 -0.821828 0
      vertex 1.16913 -0.674999 8
      vertex 1.16913 -0.674999 0
    endloop
  endfacet
  facet normal 0 0 -1
    outer loop
      vertex 1.07103 -0.821828 0
      vertex 2.38006 -1.82628 0
      vertex 2.12132 -2.12132 0
    endloop
  endfacet
  facet normal 0 0 1
    outer loop
      vertex 1.07103 -0.821828 8
      vertex 2.12132 -2.12132 8
      vertex 2.38006 -1.82628 8
    endloop
  endfacet
  facet normal -0 0 1
    outer loop
      vertex 1.07103 -0.821828 8
      vertex 2.38006 -1.82628 8
      vertex 1.16913 -0.674999 8
    endloop
  endfacet
  facet normal -0.831491 -0.555539 0
    outer loop
      vertex 1.07103 0.821828 0
      vertex 1.16913 0.674999 0
      vertex 1.07103 0.821828 8
    endloop
  endfacet
  facet normal -0 0 -1
    outer loop
      vertex 1.07103 0.821828 0
      vertex 2.12132 2.12132 0
      vertex 2.38006 1.82628 0
    endloop
  endfacet
  facet normal 0 0 -1
    outer loop
      vertex 1.07103 0.821828 0
      vertex 2.38006 1.82628 0
      vertex 1.16913 0.674999 0
    endloop
  endfacet
  facet normal -0.831491 -0.555539 0
    outer loop
      vertex 1.07103 0.821828 8
      vertex 1.16913 0.674999 0
      vertex 1.16913 0.674999 8
    endloop
  endfacet
  facet normal 0 0 1
    outer loop
      vertex 1.07103 0.821828 8
      vertex 1.16913 0.674999 8
      vertex 2.38006 1.82628 8
    endloop
  endfacet
  facet normal 0 0 1
    outer loop
      vertex 1.07103 0.821828 8
      vertex 2.38006 1.82628 8
      vertex 2.12132 2.12132 8
    endloop
  endfacet
  facet normal 0.442283 -0.896875 0
    outer loop
      vertex 1.14805 -2.77164 0
      vertex 1.5 -2.59808 0
      vertex 1.5 -2.59808 8
    endloop
  endfacet
  facet normal 0.442283 -0.896875 0
    outer loop
      vertex 1.14805 -2.77164 0
      vertex 1.5 -2.59808 8
      vertex 1.14805 -2.77164 8
    endloop
  endfacet
  facet normal 0.442283 0.896875 0
    outer loop
      vertex 1.14805 2.77164 0
      vertex 1.14805 2.77164 8
      vertex 1.5 2.59808 0
    endloop
  endfacet
  facet normal 0.442283 0.896875 -0
    outer loop
      vertex 1.14805 2.77164 8
      vertex 1.5 2.59808 8
      vertex 1.5 2.59808 0
    endloop
  endfacet
  facet normal -0.896856 0.442323 0
    outer loop
      vertex 1.16913 -0.674999 0
      vertex 1.16913 -0.674999 8
      vertex 1.24724 -0.516623 8
    endloop
  endfacet
  facet normal 0 0 -1
    outer loop
      vertex 1.16913 -0.674999 0
      vertex 1.24724 -0.516623 0
      vertex 2.59808 -1.5 0
    endloop
  endfacet
  facet normal -0.896856 0.442323 0
    outer loop
      vertex 1.16913 -0.674999 0
      vertex 1.24724 -0.516623 8
      vertex 1.24724 -0.516623 0
    endloop
  endfacet
  facet normal 0 0 -1
    outer loop
      vertex 1.16913 -0.674999 0
      vertex 2.59808 -1.5 0
      vertex 2.38006 -1.82628 0
    endloop
  endfacet
  facet normal 0 0 1
    outer loop
      vertex 1.16913 -0.674999 8
      vertex 2.38006 -1.82628 8
      vertex 2.59808 -1.5 8
    endloop
  endfacet
  facet normal -0 0 1
    outer loop
      vertex 1.16913 -0.674999 8
      vertex 2.59808 -1.5 8
      vertex 1.24724 -0.516623 8
    endloop
  endfacet
  facet normal -0.896856 -0.442323 0
    outer loop
      vertex 1.16913 0.674999 0
      vertex 1.24724 0.516623 0
      vertex 1.16913 0.674999 8
    endloop
  endfacet
  facet normal -0 0 -1
    outer loop
      vertex 1.16913 0.674999 0
      vertex 2.38006 1.82628 0
      vertex 2.59808 1.5 0
    endloop
  endfacet
  facet normal 0 0 -1
    outer loop
      vertex 1.16913 0.674999 0
      vertex 2.59808 1.5 0
      vertex 1.24724 0.516623 0
    endloop
  endfacet
  facet normal -0.896856 -0.442323 0
    outer loop
      vertex 1.16913 0.674999 8
      vertex 1.24724 0.516623 0
      vertex 1.24724 0.516623 8
    endloop
  endfacet
  facet normal 0 0 1
    outer loop
      vertex 1.16913 0.674999 8
      vertex 1.24724 0.516623 8
      vertex 2.59808 1.5 8
    endloop
  endfacet
  facet normal 0 0 1
    outer loop
      vertex 1.16913 0.674999 8
      vertex 2.59808 1.5 8
      vertex 2.38006 1.82628 8
    endloop
  endfacet
  facet normal -0.946935 0.321425 0
    outer loop
      vertex 1.24724 -0.516623 0
      vertex 1.24724 -0.516623 8
      vertex 1.304 -0.349405 8
    endloop
  endfacet
  facet normal 0 0 -1
    outer loop
      vertex 1.24724 -0.516623 0
      vertex 1.304 -0.349405 0
      vertex 2.77164 -1.14805 0
    endloop
  endfacet
  facet normal -0.946935 0.321425 0
    outer loop
      vertex 1.24724 -0.516623 0
      vertex 1.304 -0.349405 8
      vertex 1.304 -0.349405 0
    endloop
  endfacet
  facet normal 0 0 -1
    outer loop
      vertex 1.24724 -0.516623 0
      vertex 2.77164 -1.14805 0
      vertex 2.59808 -1.5 0
    endloop
  endfacet
  facet normal 0 0 1
    outer loop
      vertex 1.24724 -0.516623 8
      vertex 2.59808 -1.5 8
      vertex 2.77164 -1.14805 8
    endloop
  endfacet
  facet normal -0 0 1
    outer loop
      vertex 1.24724 -0.516623 8
      vertex 2.77164 -1.14805 8
      vertex 1.304 -0.349405 8
    endloop
  endfacet
  facet normal -0.946935 -0.321425 0
    outer loop
      vertex 1.24724 0.516623 0
      vertex 1.304 0.349405 0
      vertex 1.24724 0.516623 8
    endloop
  endfacet
  facet normal -0 0 -1
    outer loop
      vertex 1.24724 0.516623 0
      vertex 2.59808 1.5 0
      vertex 2.77164 1.14805 0
    endloop
  endfacet
  facet normal 0 0 -1
    outer loop
      vertex 1.24724 0.516623 0
      vertex 2.77164 1.14805 0
      vertex 1.304 0.349405 0
    endloop
  endfacet
  facet normal -0.946935 -0.321425 0
    outer loop
      vertex 1.24724 0.516623 8
      vertex 1.304 0.349405 0
      vertex 1.304 0.349405 8
    endloop
  endfacet
  facet normal 0 0 1
    outer loop
      vertex 1.24724 0.516623 8
      vertex 1.304 0.349405 8
      vertex 2.77164 1.14805 8
    endloop
  endfacet
  facet normal 0 0 1
    outer loop
      vertex 1.24724 0.516623 8
      vertex 2.77164 1.14805 8
      vertex 2.59808 1.5 8
    endloop
  endfacet
  facet normal -0.980786 0.195086 0
    outer loop
      vertex 1.304 -0.349405 0
      vertex 1.304 -0.349405 8
      vertex 1.33845 -0.176209 8
    endloop
  endfacet
  facet normal 0 0 -1
    outer loop
      vertex 1.304 -0.349405 0
      vertex 1.33845 -0.176209 0
      vertex 2.89778 -0.776457 0
    endloop
  endfacet
  facet normal -0.980786 0.195086 0
    outer loop
      vertex 1.304 -0.349405 0
      vertex 1.33845 -0.176209 8
      vertex 1.33845 -0.176209 0
    endloop
  endfacet
  facet normal 0 0 -1
    outer loop
      vertex 1.304 -0.349405 0
      vertex 2.89778 -0.776457 0
      vertex 2.77164 -1.14805 0
    endloop
  endfacet
  facet normal 0 0 1
    outer loop
      vertex 1.304 -0.349405 8
      vertex 2.77164 -1.14805 8
      vertex 2.89778 -0.776457 8
    endloop
  endfacet
  facet normal -0 0 1
    outer loop
      vertex 1.304 -0.349405 8
      vertex 2.89778 -0.776457 8
      vertex 1.33845 -0.176209 8
    endloop
  endfacet
  facet normal -0.980786 -0.195086 0
    outer loop
      vertex 1.304 0.349405 0
      vertex 1.33845 0.176209 0
      vertex 1.304 0.349405 8
    endloop
  endfacet
  facet normal -0 0 -1
    outer loop
      vertex 1.304 0.349405 0
      vertex 2.77164 1.14805 0
      vertex 2.89778 0.776457 0
    endloop
  endfacet
  facet normal 0 0 -1
    outer loop
      vertex 1.304 0.349405 0
      vertex 2.89778 0.776457 0
      vertex 1.33845 0.176209 0
    endloop
  endfacet
  facet normal -0.980786 -0.195086 0
    outer loop
      vertex 1.304 0.349405 8
      vertex 1.33845 0.176209 0
      vertex 1.33845 0.176209 8
    endloop
  endfacet
  facet normal 0 0 1
    outer loop
      vertex 1.304 0.349405 8
      vertex 1.33845 0.176209 8
      vertex 2.89778 0.776457 8
    endloop
  endfacet
  facet normal 0 0 1
    outer loop
      vertex 1.304 0.349405 8
      vertex 2.89778 0.776457 8
      vertex 2.77164 1.14805 8
    endloop
  endfacet
  facet normal -0.997859 0.0654068 0
    outer loop
      vertex 1.33845 -0.176209 0
      vertex 1.33845 -0.176209 8
      vertex 1.35 0 8
    endloop
  endfacet
  facet normal 0 0 -1
    outer loop
      vertex 1.33845 -0.176209 0
      vertex 1.35 0 0
      vertex 2.97433 -0.391578 0
    endloop
  endfacet
  facet normal -0.997859 0.0654068 0
    outer loop
      vertex 1.33845 -0.176209 0
      vertex 1.35 0 8
      vertex 1.35 0 0
    endloop
  endfacet
  facet normal 0 0 -1
    outer loop
      vertex 1.33845 -0.176209 0
      vertex 2.97433 -0.391578 0
      vertex 2.89778 -0.776457 0
    endloop
  endfacet
  facet normal 0 0 1
    outer loop
      vertex 1.33845 -0.176209 8
      vertex 2.89778 -0.776457 8
      vertex 2.97433 -0.391578 8
    endloop
  endfacet
  facet normal -0 0 1
    outer loop
      vertex 1.33845 -0.176209 8
      vertex 2.97433 -0.391578 8
      vertex 1.35 0 8
    endloop
  endfacet
  facet normal -0.997859 -0.0654068 0
    outer loop
      vertex 1.33845 0.176209 0
      vertex 1.35 0 0
      vertex 1.33845 0.176209 8
    endloop
  endfacet
  facet normal -0 0 -1
    outer loop
      vertex 1.33845 0.176209 0
      vertex 2.89778 0.776457 0
      vertex 2.97433 0.391578 0
    endloop
  endfacet
  facet normal 0 0 -1
    outer loop
      vertex 1.33845 0.176209 0
      vertex 2.97433 0.391578 0
      vertex 1.35 0 0
    endloop
  endfacet
  facet normal -0.997859 -0.0654068 0
    outer loop
      vertex 1.33845 0.176209 8
      vertex 1.35 0 0
      vertex 1.35 0 8
    endloop
  endfacet
  facet normal 0 0 1
    outer loop
      vertex 1.33845 0.176209 8
      vertex 1.35 0 8
      vertex 2.97433 0.391578 8
    endloop
  endfacet
  facet normal 0 0 1
    outer loop
      vertex 1.33845 0.176209 8
      vertex 2.97433 0.391578 8
      vertex 2.89778 0.776457 8
    endloop
  endfacet
  facet normal 0 0 -1
    outer loop
      vertex 1.35 0 0
      vertex 2.97433 0.391578 0
      vertex 3 0 0
    endloop
  endfacet
  facet normal 0 0 -1
    outer loop
      vertex 1.35 0 0
      vertex 3 0 0
      vertex 2.97433 -0.391578 0
    endloop
  endfacet
  facet normal 0 0 1
    outer loop
      vertex 1.35 0 8
      vertex 2.97433 -0.391578 8
      vertex 3 0 8
    endloop
  endfacet
  facet normal 0 0 1
    outer loop
      vertex 1.35 0 8
      vertex 3 0 8
      vertex 2.97433 0.391578 8
    endloop
  endfacet
  facet normal 0.555582 -0.831462 0
    outer loop
      vertex 1.5 -2.59808 0
      vertex 1.82628 -2.38006 0
      vertex 1.82628 -2.38006 8
    endloop
  endfacet
  facet normal 0.555582 -0.831462 0
    outer loop
      vertex 1.5 -2.59808 0
      vertex 1.82628 -2.38006 8
      vertex 1.5 -2.59808 8
    endloop
  endfacet
  facet normal 0.555582 0.831462 0
    outer loop
      vertex 1.5 2.59808 0
      vertex 1.5 2.59808 8
      vertex 1.82628 2.38006 0
    endloop
  endfacet
  facet normal 0.555582 0.831462 -0
    outer loop
      vertex 1.5 2.59808 8
      vertex 1.82628 2.38006 8
      vertex 1.82628 2.38006 0
    endloop
  endfacet
  facet normal 0.659341 -0.751844 0
    outer loop
      vertex 1.82628 -2.38006 0
      vertex 2.12132 -2.12132 0
      vertex 2.12132 -2.12132 8
    endloop
  endfacet
  facet normal 0.659341 -0.751844 0
    outer loop
      vertex 1.82628 -2.38006 0
      vertex 2.12132 -2.12132 8
      vertex 1.82628 -2.38006 8
    endloop
  endfacet
  facet normal 0.659341 0.751844 0
    outer loop
      vertex 1.82628 2.38006 0
      vertex 1.82628 2.38006 8
      vertex 2.12132 2.12132 0
    endloop
  endfacet
  facet normal 0.659341 0.751844 -0
    outer loop
      vertex 1.82628 2.38006 8
      vertex 2.12132 2.12132 8
      vertex 2.12132 2.12132 0
    endloop
  endfacet
  facet normal 0.751844 -0.659341 0
    outer loop
      vertex 2.12132 -2.12132 0
      vertex 2.38006 -1.82628 0
      vertex 2.12132 -2.12132 8
    endloop
  endfacet
  facet normal 0.751844 -0.659341 0
    outer loop
      vertex 2.12132 -2.12132 8
      vertex 2.38006 -1.82628 0
      vertex 2.38006 -1.82628 8
    endloop
  endfacet
  facet normal 0.751844 0.659341 0
    outer loop
      vertex 2.12132 2.12132 0
      vertex 2.12132 2.12132 8
      vertex 2.38006 1.82628 8
    endloop
  endfacet
  facet normal 0.751844 0.659341 0
    outer loop
      vertex 2.12132 2.12132 0
      vertex 2.38006 1.82628 8
      vertex 2.38006 1.82628 0
    endloop
  endfacet
  facet normal 0.831462 -0.555582 0
    outer loop
      vertex 2.38006 -1.82628 0
      vertex 2.59808 -1.5 0
      vertex 2.38006 -1.82628 8
    endloop
  endfacet
  facet normal 0.831462 -0.555582 0
    outer loop
      vertex 2.38006 -1.82628 8
      vertex 2.59808 -1.5 0
      vertex 2.59808 -1.5 8
    endloop
  endfacet
  facet normal 0.831462 0.555582 0
    outer loop
      vertex 2.38006 1.82628 0
      vertex 2.38006 1.82628 8
      vertex 2.59808 1.5 8
    endloop
  endfacet
  facet normal 0.831462 0.555582 0
    outer loop
      vertex 2.38006 1.82628 0
      vertex 2.59808 1.5 8
      vertex 2.59808 1.5 0
    endloop
  endfacet
  facet normal 0.896875 -0.442283 0
    outer loop
      vertex 2.59808 -1.5 0
      vertex 2.77164 -1.14805 0
      vertex 2.59808 -1.5 8
    endloop
  endfacet
  facet normal 0.896875 -0.442283 0
    outer loop
      vertex 2.59808 -1.5 8
      vertex 2.77164 -1.14805 0
      vertex 2.77164 -1.14805 8
    endloop
  endfacet
  facet normal 0.896875 0.442283 0
    outer loop
      vertex 2.59808 1.5 0
      vertex 2.59808 1.5 8
      vertex 2.77164 1.14805 8
    endloop
  endfacet
  facet normal 0.896875 0.442283 0
    outer loop
      vertex 2.59808 1.5 0
      vertex 2.77164 1.14805 8
      vertex 2.77164 1.14805 0
    endloop
  endfacet
  facet normal 0.946929 -0.321442 0
    outer loop
      vertex 2.77164 -1.14805 0
      vertex 2.89778 -0.776457 0
      vertex 2.77164 -1.14805 8
    endloop
  endfacet
  facet normal 0.946929 -0.321442 0
    outer loop
      vertex 2.77164 -1.14805 8
      vertex 2.89778 -0.776457 0
      vertex 2.89778 -0.776457 8
    endloop
  endfacet
  facet normal 0.946929 0.321442 0
    outer loop
      vertex 2.77164 1.14805 0
      vertex 2.77164 1.14805 8
      vertex 2.89778 0.776457 8
    endloop
  endfacet
  facet normal 0.946929 0.321442 0
    outer loop
      vertex 2.77164 1.14805 0
      vertex 2.89778 0.776457 8
      vertex 2.89778 0.776457 0
    endloop
  endfacet
  facet normal 0.980789 -0.195073 0
    outer loop
      vertex 2.89778 -0.776457 0
      vertex 2.97433 -0.391578 0
      vertex 2.89778 -0.776457 8
    endloop
  endfacet
  facet normal 0.980789 -0.195073 0
    outer loop
      vertex 2.89778 -0.776457 8
      vertex 2.97433 -0.391578 0
      vertex 2.97433 -0.391578 8
    endloop
  endfacet
  facet normal 0.980789 0.195073 0
    outer loop
      vertex 2.89778 0.776457 0
      vertex 2.89778 0.776457 8
      vertex 2.97433 0.391578 8
    endloop
  endfacet
  facet normal 0.980789 0.195073 0
    outer loop
      vertex 2.89778 0.776457 0
      vertex 2.97433 0.391578 8
      vertex 2.97433 0.391578 0
    endloop
  endfacet
  facet normal 0.997858 -0.0654149 0
    outer loop
      vertex 2.97433 -0.391578 0
      vertex 3 0 0
      vertex 2.97433 -0.391578 8
    endloop
  endfacet
  facet normal 0.997858 -0.0654149 0
    outer loop
      vertex 2.97433 -0.391578 8
      vertex 3 0 0
      vertex 3 0 8
    endloop
  endfacet
  facet normal 0.997858 0.0654149 0
    outer loop
      vertex 2.97433 0.391578 0
      vertex 2.97433 0.391578 8
      vertex 3 0 8
    endloop
  endfacet
  facet normal 0.997858 0.0654149 0
    outer loop
      vertex 2.97433 0.391578 0
      vertex 3 0 8
      vertex 3 0 0
    endloop
  endfacet
endsolid OpenSCAD_Model
