solid OpenSCAD_Model
  facet normal -0.997859 0.0653967 0
    outer loop
      vertex -3.5 0 0
      vertex -3.5 0 5.5
      vertex -3.47006 0.456841 5.5
    endloop
  endfacet
  facet normal -0.997859 -0.0653967 0
    outer loop
      vertex -3.5 0 0
      vertex -3.47006 -0.456841 0
      vertex -3.5 0 5.5
    endloop
  endfacet
  facet normal 0 0 -1
    outer loop
      vertex -3.5 0 0
      vertex -3.47006 0.456841 0
      vertex -1.7 0 0
    endloop
  endfacet
  facet normal -0.997859 0.0653967 0
    outer loop
      vertex -3.5 0 0
      vertex -3.47006 0.456841 5.5
      vertex -3.47006 0.456841 0
    endloop
  endfacet
  facet normal 0 0 -1
    outer loop
      vertex -3.5 0 0
      vertex -1.7 0 0
      vertex -3.47006 -0.456841 0
    endloop
  endfacet
  facet normal -0.997859 -0.0653967 0
    outer loop
      vertex -3.5 0 5.5
      vertex -3.47006 -0.456841 0
      vertex -3.47006 -0.456841 5.5
    endloop
  endfacet
  facet normal 0 0 1
    outer loop
      vertex -3.5 0 5.5
      vertex -3.47006 -0.456841 5.5
      vertex -1.7 0 5.5
    endloop
  endfacet
  facet normal 0 0 1
    outer loop
      vertex -3.5 0 5.5
      vertex -1.7 0 5.5
      vertex -3.47006 0.456841 5.5
    endloop
  endfacet
  facet normal -0.980784 -0.195097 0
    outer loop
      vertex -3.47006 -0.456841 0
      vertex -3.38074 -0.905867 0
      vertex -3.47006 -0.456841 5.5
    endloop
  endfacet
  facet normal -0 0 -1
    outer loop
      vertex -3.47006 -0.456841 0
      vertex -1.7 0 0
      vertex -1.68546 -0.221894 0
    endloop
  endfacet
  facet normal 0 0 -1
    outer loop
      vertex -3.47006 -0.456841 0
      vertex -1.68546 -0.221894 0
      vertex -3.38074 -0.905867 0
    endloop
  endfacet
  facet normal -0.980784 -0.195097 0
    outer loop
      vertex -3.47006 -0.456841 5.5
      vertex -3.38074 -0.905867 0
      vertex -3.38074 -0.905867 5.5
    endloop
  endfacet
  facet normal 0 0 1
    outer loop
      vertex -3.47006 -0.456841 5.5
      vertex -3.38074 -0.905867 5.5
      vertex -1.68546 -0.221894 5.5
    endloop
  endfacet
  facet normal 0 0 1
    outer loop
      vertex -3.47006 -0.456841 5.5
      vertex -1.68546 -0.221894 5.5
      vertex -1.7 0 5.5
    endloop
  endfacet
  facet normal -0.980784 0.195097 0
    outer loop
      vertex -3.47006 0.456841 0
      vertex -3.47006 0.456841 5.5
      vertex -3.38074 0.905867 5.5
    endloop
  endfacet
  facet normal 0 0 -1
    outer loop
      vertex -3.47006 0.456841 0
      vertex -3.38074 0.905867 0
      vertex -1.68546 0.221894 0
    endloop
  endfacet
  facet normal -0.980784 0.195097 0
    outer loop
      vertex -3.47006 0.456841 0
      vertex -3.38074 0.905867 5.5
      vertex -3.38074 0.905867 0
    endloop
  endfacet
  facet normal 0 0 -1
    outer loop
      vertex -3.47006 0.456841 0
      vertex -1.68546 0.221894 0
      vertex -1.7 0 0
    endloop
  endfacet
  facet normal 0 0 1
    outer loop
      vertex -3.47006 0.456841 5.5
      vertex -1.7 0 5.5
      vertex -1.68546 0.221894 5.5
    endloop
  endfacet
  facet normal -0 0 1
    outer loop
      vertex -3.47006 0.456841 5.5
      vertex -1.68546 0.221894 5.5
      vertex -3.38074 0.905867 5.5
    endloop
  endfacet
  facet normal -0.946931 -0.321437 0
    outer loop
      vertex -3.38074 -0.905867 0
      vertex -3.23358 -1.33939 0
      vertex -3.38074 -0.905867 5.5
    endloop
  endfacet
  facet normal -0 0 -1
    outer loop
      vertex -3.38074 -0.905867 0
      vertex -1.68546 -0.221894 0
      vertex -1.64207 -0.439992 0
    endloop
  endfacet
  facet normal 0 0 -1
    outer loop
      vertex -3.38074 -0.905867 0
      vertex -1.64207 -0.439992 0
      vertex -3.23358 -1.33939 0
    endloop
  endfacet
  facet normal -0.946931 -0.321437 0
    outer loop
      vertex -3.38074 -0.905867 5.5
      vertex -3.23358 -1.33939 0
      vertex -3.23358 -1.33939 5.5
    endloop
  endfacet
  facet normal 0 0 1
    outer loop
      vertex -3.38074 -0.905867 5.5
      vertex -3.23358 -1.33939 5.5
      vertex -1.64207 -0.439992 5.5
    endloop
  endfacet
  facet normal 0 0 1
    outer loop
      vertex -3.38074 -0.905867 5.5
      vertex -1.64207 -0.439992 5.5
      vertex -1.68546 -0.221894 5.5
    endloop
  endfacet
  facet normal -0.946931 0.321437 0
    outer loop
      vertex -3.38074 0.905867 0
      vertex -3.38074 0.905867 5.5
      vertex -3.23358 1.33939 5.5
    endloop
  endfacet
  facet normal 0 0 -1
    outer loop
      vertex -3.38074 0.905867 0
      vertex -3.23358 1.33939 0
      vertex -1.64207 0.439992 0
    endloop
  endfacet
  facet normal -0.946931 0.321437 0
    outer loop
      vertex -3.38074 0.905867 0
      vertex -3.23358 1.33939 5.5
      vertex -3.23358 1.33939 0
    endloop
  endfacet
  facet normal 0 0 -1
    outer loop
      vertex -3.38074 0.905867 0
      vertex -1.64207 0.439992 0
      vertex -1.68546 0.221894 0
    endloop
  endfacet
  facet normal 0 0 1
    outer loop
      vertex -3.38074 0.905867 5.5
      vertex -1.68546 0.221894 5.5
      vertex -1.64207 0.439992 5.5
    endloop
  endfacet
  facet normal -0 0 1
    outer loop
      vertex -3.38074 0.905867 5.5
      vertex -1.64207 0.439992 5.5
      vertex -3.23358 1.33939 5.5
    endloop
  endfacet
  facet normal -0.896873 -0.442288 0
    outer loop
      vertex -3.23358 -1.33939 0
      vertex -3.03109 -1.75 0
      vertex -3.23358 -1.33939 5.5
    endloop
  endfacet
  facet normal -0 0 -1
    outer loop
      vertex -3.23358 -1.33939 0
      vertex -1.64207 -0.439992 0
      vertex -1.57059 -0.650561 0
    endloop
  endfacet
  facet normal 0 0 -1
    outer loop
      vertex -3.23358 -1.33939 0
      vertex -1.57059 -0.650561 0
      vertex -3.03109 -1.75 0
    endloop
  endfacet
  facet normal -0.896873 -0.442288 0
    outer loop
      vertex -3.23358 -1.33939 5.5
      vertex -3.03109 -1.75 0
      vertex -3.03109 -1.75 5.5
    endloop
  endfacet
  facet normal 0 0 1
    outer loop
      vertex -3.23358 -1.33939 5.5
      vertex -3.03109 -1.75 5.5
      vertex -1.57059 -0.650561 5.5
    endloop
  endfacet
  facet normal 0 0 1
    outer loop
      vertex -3.23358 -1.33939 5.5
      vertex -1.57059 -0.650561 5.5
      vertex -1.64207 -0.439992 5.5
    endloop
  endfacet
  facet normal -0.896873 0.442288 0
    outer loop
      vertex -3.23358 1.33939 0
      vertex -3.23358 1.33939 5.5
      vertex -3.03109 1.75 5.5
    endloop
  endfacet
  facet normal 0 0 -1
    outer loop
      vertex -3.23358 1.33939 0
      vertex -3.03109 1.75 0
      vertex -1.57059 0.650561 0
    endloop
  endfacet
  facet normal -0.896873 0.442288 0
    outer loop
      vertex -3.23358 1.33939 0
      vertex -3.03109 1.75 5.5
      vertex -3.03109 1.75 0
    endloop
  endfacet
  facet normal 0 0 -1
    outer loop
      vertex -3.23358 1.33939 0
      vertex -1.57059 0.650561 0
      vertex -1.64207 0.439992 0
    endloop
  endfacet
  facet normal 0 0 1
    outer loop
      vertex -3.23358 1.33939 5.5
      vertex -1.64207 0.439992 5.5
      vertex -1.57059 0.650561 5.5
    endloop
  endfacet
  facet normal -0 0 1
    outer loop
      vertex -3.23358 1.33939 5.5
      vertex -1.57059 0.650561 5.5
      vertex -3.03109 1.75 5.5
    endloop
  endfacet
  facet normal -0.831468 -0.555572 0
    outer loop
      vertex -3.03109 -1.75 0
      vertex -2.77674 -2.13066 0
      vertex -3.03109 -1.75 5.5
    endloop
  endfacet
  facet normal -0 0 -1
    outer loop
      vertex -3.03109 -1.75 0
      vertex -1.57059 -0.650561 0
      vertex -1.47224 -0.849999 0
    endloop
  endfacet
  facet normal 0 0 -1
    outer loop
      vertex -3.03109 -1.75 0
      vertex -1.47224 -0.849999 0
      vertex -2.77674 -2.13066 0
    endloop
  endfacet
  facet normal -0.831468 -0.555572 0
    outer loop
      vertex -3.03109 -1.75 5.5
      vertex -2.77674 -2.13066 0
      vertex -2.77674 -2.13066 5.5
    endloop
  endfacet
  facet normal 0 0 1
    outer loop
      vertex -3.03109 -1.75 5.5
      vertex -2.77674 -2.13066 5.5
      vertex -1.47224 -0.849999 5.5
    endloop
  endfacet
  facet normal 0 0 1
    outer loop
      vertex -3.03109 -1.75 5.5
      vertex -1.47224 -0.849999 5.5
      vertex -1.57059 -0.650561 5.5
    endloop
  endfacet
  facet normal -0.831468 0.555572 0
    outer loop
      vertex -3.03109 1.75 0
      vertex -3.03109 1.75 5.5
      vertex -2.77674 2.13066 5.5
    endloop
  endfacet
  facet normal 0 0 -1
    outer loop
      vertex -3.03109 1.75 0
      vertex -2.77674 2.13066 0
      vertex -1.47224 0.849999 0
    endloop
  endfacet
  facet normal -0.831468 0.555572 0
    outer loop
      vertex -3.03109 1.75 0
      vertex -2.77674 2.13066 5.5
      vertex -2.77674 2.13066 0
    endloop
  endfacet
  facet normal 0 0 -1
    outer loop
      vertex -3.03109 1.75 0
      vertex -1.47224 0.849999 0
      vertex -1.57059 0.650561 0
    endloop
  endfacet
  facet normal 0 0 1
    outer loop
      vertex -3.03109 1.75 5.5
      vertex -1.57059 0.650561 5.5
      vertex -1.47224 0.849999 5.5
    endloop
  endfacet
  facet normal -0 0 1
    outer loop
      vertex -3.03109 1.75 5.5
      vertex -1.47224 0.849999 5.5
      vertex -2.77674 2.13066 5.5
    endloop
  endfacet
  facet normal -0.751833 -0.659353 0
    outer loop
      vertex -2.77674 -2.13066 0
      vertex -2.47487 -2.47487 0
      vertex -2.77674 -2.13066 5.5
    endloop
  endfacet
  facet normal -0 0 -1
    outer loop
      vertex -2.77674 -2.13066 0
      vertex -1.47224 -0.849999 0
      vertex -1.3487 -1.03489 0
    endloop
  endfacet
  facet normal 0 0 -1
    outer loop
      vertex -2.77674 -2.13066 0
      vertex -1.3487 -1.03489 0
      vertex -2.47487 -2.47487 0
    endloop
  endfacet
  facet normal -0.751833 -0.659353 0
    outer loop
      vertex -2.77674 -2.13066 5.5
      vertex -2.47487 -2.47487 0
      vertex -2.47487 -2.47487 5.5
    endloop
  endfacet
  facet normal 0 0 1
    outer loop
      vertex -2.77674 -2.13066 5.5
      vertex -2.47487 -2.47487 5.5
      vertex -1.3487 -1.03489 5.5
    endloop
  endfacet
  facet normal 0 0 1
    outer loop
      vertex -2.77674 -2.13066 5.5
      vertex -1.3487 -1.03489 5.5
      vertex -1.47224 -0.849999 5.5
    endloop
  endfacet
  facet normal -0.751833 0.659353 0
    outer loop
      vertex -2.77674 2.13066 0
      vertex -2.77674 2.13066 5.5
      vertex -2.47487 2.47487 5.5
    endloop
  endfacet
  facet normal 0 0 -1
    outer loop
      vertex -2.77674 2.13066 0
      vertex -2.47487 2.47487 0
      vertex -1.3487 1.03489 0
    endloop
  endfacet
  facet normal -0.751833 0.659353 0
    outer loop
      vertex -2.77674 2.13066 0
      vertex -2.47487 2.47487 5.5
      vertex -2.47487 2.47487 0
    endloop
  endfacet
  facet normal 0 0 -1
    outer loop
      vertex -2.77674 2.13066 0
      vertex -1.3487 1.03489 0
      vertex -1.47224 0.849999 0
    endloop
  endfacet
  facet normal 0 0 1
    outer loop
      vertex -2.77674 2.13066 5.5
      vertex -1.47224 0.849999 5.5
      vertex -1.3487 1.03489 5.5
    endloop
  endfacet
  facet normal -0 0 1
    outer loop
      vertex -2.77674 2.13066 5.5
      vertex -1.3487 1.03489 5.5
      vertex -2.47487 2.47487 5.5
    endloop
  endfacet
  facet normal -0.659353 -0.751833 -0
    outer loop
      vertex -2.47487 -2.47487 0
      vertex -2.13066 -2.77674 0
      vertex -2.13066 -2.77674 5.5
    endloop
  endfacet
  facet normal -0.659353 -0.751833 0
    outer loop
      vertex -2.47487 -2.47487 0
      vertex -2.13066 -2.77674 5.5
      vertex -2.47487 -2.47487 5.5
    endloop
  endfacet
  facet normal -0 0 -1
    outer loop
      vertex -2.47487 -2.47487 0
      vertex -1.3487 -1.03489 0
      vertex -1.20208 -1.20208 0
    endloop
  endfacet
  facet normal 0 0 -1
    outer loop
      vertex -2.47487 -2.47487 0
      vertex -1.20208 -1.20208 0
      vertex -2.13066 -2.77674 0
    endloop
  endfacet
  facet normal 0 0 1
    outer loop
      vertex -2.47487 -2.47487 5.5
      vertex -2.13066 -2.77674 5.5
      vertex -1.20208 -1.20208 5.5
    endloop
  endfacet
  facet normal 0 0 1
    outer loop
      vertex -2.47487 -2.47487 5.5
      vertex -1.20208 -1.20208 5.5
      vertex -1.3487 -1.03489 5.5
    endloop
  endfacet
  facet normal -0.659353 0.751833 0
    outer loop
      vertex -2.47487 2.47487 0
      vertex -2.47487 2.47487 5.5
      vertex -2.13066 2.77674 0
    endloop
  endfacet
  facet normal 0 0 -1
    outer loop
      vertex -2.47487 2.47487 0
      vertex -2.13066 2.77674 0
      vertex -1.20208 1.20208 0
    endloop
  endfacet
  facet normal 0 0 -1
    outer loop
      vertex -2.47487 2.47487 0
      vertex -1.20208 1.20208 0
      vertex -1.3487 1.03489 0
    endloop
  endfacet
  facet normal -0.659353 0.751833 0
    outer loop
      vertex -2.47487 2.47487 5.5
      vertex -2.13066 2.77674 5.5
      vertex -2.13066 2.77674 0
    endloop
  endfacet
  facet normal 0 0 1
    outer loop
      vertex -2.47487 2.47487 5.5
      vertex -1.3487 1.03489 5.5
      vertex -1.20208 1.20208 5.5
    endloop
  endfacet
  facet normal -0 0 1
    outer loop
      vertex -2.47487 2.47487 5.5
      vertex -1.20208 1.20208 5.5
      vertex -2.13066 2.77674 5.5
    endloop
  endfacet
  facet normal -0.555572 -0.831468 -0
    outer loop
      vertex -2.13066 -2.77674 0
      vertex -1.75 -3.03109 0
      vertex -1.75 -3.03109 5.5
    endloop
  endfacet
  facet normal -0.555572 -0.831468 0
    outer loop
      vertex -2.13066 -2.77674 0
      vertex -1.75 -3.03109 5.5
      vertex -2.13066 -2.77674 5.5
    endloop
  endfacet
  facet normal -0 0 -1
    outer loop
      vertex -2.13066 -2.77674 0
      vertex -1.20208 -1.20208 0
      vertex -1.03489 -1.3487 0
    endloop
  endfacet
  facet normal 0 0 -1
    outer loop
      vertex -2.13066 -2.77674 0
      vertex -1.03489 -1.3487 0
      vertex -1.75 -3.03109 0
    endloop
  endfacet
  facet normal 0 0 1
    outer loop
      vertex -2.13066 -2.77674 5.5
      vertex -1.75 -3.03109 5.5
      vertex -1.03489 -1.3487 5.5
    endloop
  endfacet
  facet normal 0 0 1
    outer loop
      vertex -2.13066 -2.77674 5.5
      vertex -1.03489 -1.3487 5.5
      vertex -1.20208 -1.20208 5.5
    endloop
  endfacet
  facet normal -0.555572 0.831468 0
    outer loop
      vertex -2.13066 2.77674 0
      vertex -2.13066 2.77674 5.5
      vertex -1.75 3.03109 0
    endloop
  endfacet
  facet normal 0 0 -1
    outer loop
      vertex -2.13066 2.77674 0
      vertex -1.75 3.03109 0
      vertex -1.03489 1.3487 0
    endloop
  endfacet
  facet normal 0 0 -1
    outer loop
      vertex -2.13066 2.77674 0
      vertex -1.03489 1.3487 0
      vertex -1.20208 1.20208 0
    endloop
  endfacet
  facet normal -0.555572 0.831468 0
    outer loop
      vertex -2.13066 2.77674 5.5
      vertex -1.75 3.03109 5.5
      vertex -1.75 3.03109 0
    endloop
  endfacet
  facet normal 0 0 1
    outer loop
      vertex -2.13066 2.77674 5.5
      vertex -1.20208 1.20208 5.5
      vertex -1.03489 1.3487 5.5
    endloop
  endfacet
  facet normal -0 0 1
    outer loop
      vertex -2.13066 2.77674 5.5
      vertex -1.03489 1.3487 5.5
      vertex -1.75 3.03109 5.5
    endloop
  endfacet
  facet normal -0.442288 -0.896873 -0
    outer loop
      vertex -1.75 -3.03109 0
      vertex -1.33939 -3.23358 0
      vertex -1.33939 -3.23358 5.5
    endloop
  endfacet
  facet normal -0.442288 -0.896873 0
    outer loop
      vertex -1.75 -3.03109 0
      vertex -1.33939 -3.23358 5.5
      vertex -1.75 -3.03109 5.5
    endloop
  endfacet
  facet normal -0 0 -1
    outer loop
      vertex -1.75 -3.03109 0
      vertex -1.03489 -1.3487 0
      vertex -0.849999 -1.47224 0
    endloop
  endfacet
  facet normal 0 0 -1
    outer loop
      vertex -1.75 -3.03109 0
      vertex -0.849999 -1.47224 0
      vertex -1.33939 -3.23358 0
    endloop
  endfacet
  facet normal 0 0 1
    outer loop
      vertex -1.75 -3.03109 5.5
      vertex -1.33939 -3.23358 5.5
      vertex -0.849999 -1.47224 5.5
    endloop
  endfacet
  facet normal 0 0 1
    outer loop
      vertex -1.75 -3.03109 5.5
      vertex -0.849999 -1.47224 5.5
      vertex -1.03489 -1.3487 5.5
    endloop
  endfacet
  facet normal -0.442288 0.896873 0
    outer loop
      vertex -1.75 3.03109 0
      vertex -1.75 3.03109 5.5
      vertex -1.33939 3.23358 0
    endloop
  endfacet
  facet normal 0 0 -1
    outer loop
      vertex -1.75 3.03109 0
      vertex -1.33939 3.23358 0
      vertex -0.849999 1.47224 0
    endloop
  endfacet
  facet normal 0 0 -1
    outer loop
      vertex -1.75 3.03109 0
      vertex -0.849999 1.47224 0
      vertex -1.03489 1.3487 0
    endloop
  endfacet
  facet normal -0.442288 0.896873 0
    outer loop
      vertex -1.75 3.03109 5.5
      vertex -1.33939 3.23358 5.5
      vertex -1.33939 3.23358 0
    endloop
  endfacet
  facet normal 0 0 1
    outer loop
      vertex -1.75 3.03109 5.5
      vertex -1.03489 1.3487 5.5
      vertex -0.849999 1.47224 5.5
    endloop
  endfacet
  facet normal -0 0 1
    outer loop
      vertex -1.75 3.03109 5.5
      vertex -0.849999 1.47224 5.5
      vertex -1.33939 3.23358 5.5
    endloop
  endfacet
  facet normal 0.99786 0.0653866 0
    outer loop
      vertex -1.7 0 0
      vertex -1.7 0 5.5
      vertex -1.68546 -0.221894 5.5
    endloop
  endfacet
  facet normal 0.99786 0.0653866 0
    outer loop
      vertex -1.7 0 0
      vertex -1.68546 -0.221894 5.5
      vertex -1.68546 -0.221894 0
    endloop
  endfacet
  facet normal 0.99786 -0.0653866 0
    outer loop
      vertex -1.7 0 0
      vertex -1.68546 0.221894 0
      vertex -1.7 0 5.5
    endloop
  endfacet
  facet normal 0.99786 -0.0653866 0
    outer loop
      vertex -1.7 0 5.5
      vertex -1.68546 0.221894 0
      vertex -1.68546 0.221894 5.5
    endloop
  endfacet
  facet normal 0.980779 0.195123 0
    outer loop
      vertex -1.68546 -0.221894 0
      vertex -1.68546 -0.221894 5.5
      vertex -1.64207 -0.439992 5.5
    endloop
  endfacet
  facet normal 0.980779 0.195123 0
    outer loop
      vertex -1.68546 -0.221894 0
      vertex -1.64207 -0.439992 5.5
      vertex -1.64207 -0.439992 0
    endloop
  endfacet
  facet normal 0.980779 -0.195123 0
    outer loop
      vertex -1.68546 0.221894 0
      vertex -1.64207 0.439992 0
      vertex -1.68546 0.221894 5.5
    endloop
  endfacet
  facet normal 0.980779 -0.195123 0
    outer loop
      vertex -1.68546 0.221894 5.5
      vertex -1.64207 0.439992 0
      vertex -1.64207 0.439992 5.5
    endloop
  endfacet
  facet normal 0.946928 0.321445 0
    outer loop
      vertex -1.64207 -0.439992 0
      vertex -1.64207 -0.439992 5.5
      vertex -1.57059 -0.650561 5.5
    endloop
  endfacet
  facet normal 0.946928 0.321445 0
    outer loop
      vertex -1.64207 -0.439992 0
      vertex -1.57059 -0.650561 5.5
      vertex -1.57059 -0.650561 0
    endloop
  endfacet
  facet normal 0.946928 -0.321445 0
    outer loop
      vertex -1.64207 0.439992 0
      vertex -1.57059 0.650561 0
      vertex -1.64207 0.439992 5.5
    endloop
  endfacet
  facet normal 0.946928 -0.321445 0
    outer loop
      vertex -1.64207 0.439992 5.5
      vertex -1.57059 0.650561 0
      vertex -1.57059 0.650561 5.5
    endloop
  endfacet
  facet normal 0.896876 0.442282 0
    outer loop
      vertex -1.57059 -0.650561 0
      vertex -1.57059 -0.650561 5.5
      vertex -1.47224 -0.849999 5.5
    endloop
  endfacet
  facet normal 0.896876 0.442282 0
    outer loop
      vertex -1.57059 -0.650561 0
      vertex -1.47224 -0.849999 5.5
      vertex -1.47224 -0.849999 0
    endloop
  endfacet
  facet normal 0.896876 -0.442282 0
    outer loop
      vertex -1.57059 0.650561 0
      vertex -1.47224 0.849999 0
      vertex -1.57059 0.650561 5.5
    endloop
  endfacet
  facet normal 0.896876 -0.442282 0
    outer loop
      vertex -1.57059 0.650561 5.5
      vertex -1.47224 0.849999 0
      vertex -1.47224 0.849999 5.5
    endloop
  endfacet
  facet normal 0.83147 0.55557 0
    outer loop
      vertex -1.47224 -0.849999 0
      vertex -1.47224 -0.849999 5.5
      vertex -1.3487 -1.03489 5.5
    endloop
  endfacet
  facet normal 0.83147 0.55557 0
    outer loop
      vertex -1.47224 -0.849999 0
      vertex -1.3487 -1.03489 5.5
      vertex -1.3487 -1.03489 0
    endloop
  endfacet
  facet normal 0.83147 -0.55557 0
    outer loop
      vertex -1.47224 0.849999 0
      vertex -1.3487 1.03489 0
      vertex -1.47224 0.849999 5.5
    endloop
  endfacet
  facet normal 0.83147 -0.55557 0
    outer loop
      vertex -1.47224 0.849999 5.5
      vertex -1.3487 1.03489 0
      vertex -1.3487 1.03489 5.5
    endloop
  endfacet
  facet normal 0.751844 0.659342 0
    outer loop
      vertex -1.3487 -1.03489 0
      vertex -1.3487 -1.03489 5.5
      vertex -1.20208 -1.20208 5.5
    endloop
  endfacet
  facet normal 0.751844 0.659342 0
    outer loop
      vertex -1.3487 -1.03489 0
      vertex -1.20208 -1.20208 5.5
      vertex -1.20208 -1.20208 0
    endloop
  endfacet
  facet normal 0.751844 -0.659342 0
    outer loop
      vertex -1.3487 1.03489 0
      vertex -1.20208 1.20208 0
      vertex -1.3487 1.03489 5.5
    endloop
  endfacet
  facet normal 0.751844 -0.659342 0
    outer loop
      vertex -1.3487 1.03489 5.5
      vertex -1.20208 1.20208 0
      vertex -1.20208 1.20208 5.5
    endloop
  endfacet
  facet normal -0.321437 -0.946931 -0
    outer loop
      vertex -1.33939 -3.23358 0
      vertex -0.905867 -3.38074 0
      vertex -0.905867 -3.38074 5.5
    endloop
  endfacet
  facet normal -0.321437 -0.946931 0
    outer loop
      vertex -1.33939 -3.23358 0
      vertex -0.905867 -3.38074 5.5
      vertex -1.33939 -3.23358 5.5
    endloop
  endfacet
  facet normal -0 0 -1
    outer loop
      vertex -1.33939 -3.23358 0
      vertex -0.849999 -1.47224 0
      vertex -0.650561 -1.57059 0
    endloop
  endfacet
  facet normal 0 0 -1
    outer loop
      vertex -1.33939 -3.23358 0
      vertex -0.650561 -1.57059 0
      vertex -0.905867 -3.38074 0
    endloop
  endfacet
  facet normal 0 0 1
    outer loop
      vertex -1.33939 -3.23358 5.5
      vertex -0.905867 -3.38074 5.5
      vertex -0.650561 -1.57059 5.5
    endloop
  endfacet
  facet normal 0 0 1
    outer loop
      vertex -1.33939 -3.23358 5.5
      vertex -0.650561 -1.57059 5.5
      vertex -0.849999 -1.47224 5.5
    endloop
  endfacet
  facet normal -0.321437 0.946931 0
    outer loop
      vertex -1.33939 3.23358 0
      vertex -1.33939 3.23358 5.5
      vertex -0.905867 3.38074 0
    endloop
  endfacet
  facet normal 0 0 -1
    outer loop
      vertex -1.33939 3.23358 0
      vertex -0.905867 3.38074 0
      vertex -0.650561 1.57059 0
    endloop
  endfacet
  facet normal 0 0 -1
    outer loop
      vertex -1.33939 3.23358 0
      vertex -0.650561 1.57059 0
      vertex -0.849999 1.47224 0
    endloop
  endfacet
  facet normal -0.321437 0.946931 0
    outer loop
      vertex -1.33939 3.23358 5.5
      vertex -0.905867 3.38074 5.5
      vertex -0.905867 3.38074 0
    endloop
  endfacet
  facet normal 0 0 1
    outer loop
      vertex -1.33939 3.23358 5.5
      vertex -0.849999 1.47224 5.5
      vertex -0.650561 1.57059 5.5
    endloop
  endfacet
  facet normal -0 0 1
    outer loop
      vertex -1.33939 3.23358 5.5
      vertex -0.650561 1.57059 5.5
      vertex -0.905867 3.38074 5.5
    endloop
  endfacet
  facet normal 0.659342 0.751844 0
    outer loop
      vertex -1.20208 -1.20208 0
      vertex -1.20208 -1.20208 5.5
      vertex -1.03489 -1.3487 0
    endloop
  endfacet
  facet normal 0.659342 0.751844 -0
    outer loop
      vertex -1.20208 -1.20208 5.5
      vertex -1.03489 -1.3487 5.5
      vertex -1.03489 -1.3487 0
    endloop
  endfacet
  facet normal 0.659342 -0.751844 0
    outer loop
      vertex -1.20208 1.20208 0
      vertex -1.03489 1.3487 0
      vertex -1.03489 1.3487 5.5
    endloop
  endfacet
  facet normal 0.659342 -0.751844 0
    outer loop
      vertex -1.20208 1.20208 0
      vertex -1.03489 1.3487 5.5
      vertex -1.20208 1.20208 5.5
    endloop
  endfacet
  facet normal 0.55557 0.83147 0
    outer loop
      vertex -1.03489 -1.3487 0
      vertex -1.03489 -1.3487 5.5
      vertex -0.849999 -1.47224 0
    endloop
  endfacet
  facet normal 0.55557 0.83147 -0
    outer loop
      vertex -1.03489 -1.3487 5.5
      vertex -0.849999 -1.47224 5.5
      vertex -0.849999 -1.47224 0
    endloop
  endfacet
  facet normal 0.55557 -0.83147 0
    outer loop
      vertex -1.03489 1.3487 0
      vertex -0.849999 1.47224 0
      vertex -0.849999 1.47224 5.5
    endloop
  endfacet
  facet normal 0.55557 -0.83147 0
    outer loop
      vertex -1.03489 1.3487 0
      vertex -0.849999 1.47224 5.5
      vertex -1.03489 1.3487 5.5
    endloop
  endfacet
  facet normal -0 0 -1
    outer loop
      vertex -0.905867 -3.38074 0
      vertex -0.650561 -1.57059 0
      vertex -0.439992 -1.64207 0
    endloop
  endfacet
  facet normal -0.195097 -0.980784 -0
    outer loop
      vertex -0.905867 -3.38074 0
      vertex -0.456841 -3.47006 0
      vertex -0.456841 -3.47006 5.5
    endloop
  endfacet
  facet normal -0.195097 -0.980784 0
    outer loop
      vertex -0.905867 -3.38074 0
      vertex -0.456841 -3.47006 5.5
      vertex -0.905867 -3.38074 5.5
    endloop
  endfacet
  facet normal 0 0 -1
    outer loop
      vertex -0.905867 -3.38074 0
      vertex -0.439992 -1.64207 0
      vertex -0.456841 -3.47006 0
    endloop
  endfacet
  facet normal 0 0 1
    outer loop
      vertex -0.905867 -3.38074 5.5
      vertex -0.456841 -3.47006 5.5
      vertex -0.439992 -1.64207 5.5
    endloop
  endfacet
  facet normal 0 0 1
    outer loop
      vertex -0.905867 -3.38074 5.5
      vertex -0.439992 -1.64207 5.5
      vertex -0.650561 -1.57059 5.5
    endloop
  endfacet
  facet normal -0.195097 0.980784 0
    outer loop
      vertex -0.905867 3.38074 0
      vertex -0.905867 3.38074 5.5
      vertex -0.456841 3.47006 0
    endloop
  endfacet
  facet normal 0 0 -1
    outer loop
      vertex -0.905867 3.38074 0
      vertex -0.456841 3.47006 0
      vertex -0.439992 1.64207 0
    endloop
  endfacet
  facet normal 0 0 -1
    outer loop
      vertex -0.905867 3.38074 0
      vertex -0.439992 1.64207 0
      vertex -0.650561 1.57059 0
    endloop
  endfacet
  facet normal 0 0 1
    outer loop
      vertex -0.905867 3.38074 5.5
      vertex -0.650561 1.57059 5.5
      vertex -0.439992 1.64207 5.5
    endloop
  endfacet
  facet normal -0.195097 0.980784 0
    outer loop
      vertex -0.905867 3.38074 5.5
      vertex -0.456841 3.47006 5.5
      vertex -0.456841 3.47006 0
    endloop
  endfacet
  facet normal -0 0 1
    outer loop
      vertex -0.905867 3.38074 5.5
      vertex -0.439992 1.64207 5.5
      vertex -0.456841 3.47006 5.5
    endloop
  endfacet
  facet normal 0.442282 0.896876 0
    outer loop
      vertex -0.849999 -1.47224 0
      vertex -0.849999 -1.47224 5.5
      vertex -0.650561 -1.57059 0
    endloop
  endfacet
  facet normal 0.442282 0.896876 -0
    outer loop
      vertex -0.849999 -1.47224 5.5
      vertex -0.650561 -1.57059 5.5
      vertex -0.650561 -1.57059 0
    endloop
  endfacet
  facet normal 0.442282 -0.896876 0
    outer loop
      vertex -0.849999 1.47224 0
      vertex -0.650561 1.57059 0
      vertex -0.650561 1.57059 5.5
    endloop
  endfacet
  facet normal 0.442282 -0.896876 0
    outer loop
      vertex -0.849999 1.47224 0
      vertex -0.650561 1.57059 5.5
      vertex -0.849999 1.47224 5.5
    endloop
  endfacet
  facet normal 0.321445 0.946928 0
    outer loop
      vertex -0.650561 -1.57059 0
      vertex -0.650561 -1.57059 5.5
      vertex -0.439992 -1.64207 0
    endloop
  endfacet
  facet normal 0.321445 0.946928 -0
    outer loop
      vertex -0.650561 -1.57059 5.5
      vertex -0.439992 -1.64207 5.5
      vertex -0.439992 -1.64207 0
    endloop
  endfacet
  facet normal 0.321445 -0.946928 0
    outer loop
      vertex -0.650561 1.57059 0
      vertex -0.439992 1.64207 0
      vertex -0.439992 1.64207 5.5
    endloop
  endfacet
  facet normal 0.321445 -0.946928 0
    outer loop
      vertex -0.650561 1.57059 0
      vertex -0.439992 1.64207 5.5
      vertex -0.650561 1.57059 5.5
    endloop
  endfacet
  facet normal -0 0 -1
    outer loop
      vertex -0.456841 -3.47006 0
      vertex -0.439992 -1.64207 0
      vertex -0.221894 -1.68546 0
    endloop
  endfacet
  facet normal 0 0 -1
    outer loop
      vertex -0.456841 -3.47006 0
      vertex -0.221894 -1.68546 0
      vertex 0 -3.5 0
    endloop
  endfacet
  facet normal -0.0653967 -0.997859 -0
    outer loop
      vertex -0.456841 -3.47006 0
      vertex 0 -3.5 0
      vertex 0 -3.5 5.5
    endloop
  endfacet
  facet normal -0.0653967 -0.997859 0
    outer loop
      vertex -0.456841 -3.47006 0
      vertex 0 -3.5 5.5
      vertex -0.456841 -3.47006 5.5
    endloop
  endfacet
  facet normal 0 0 1
    outer loop
      vertex -0.456841 -3.47006 5.5
      vertex -0.221894 -1.68546 5.5
      vertex -0.439992 -1.64207 5.5
    endloop
  endfacet
  facet normal 0 0 1
    outer loop
      vertex -0.456841 -3.47006 5.5
      vertex 0 -3.5 5.5
      vertex -0.221894 -1.68546 5.5
    endloop
  endfacet
  facet normal -0.0653967 0.997859 0
    outer loop
      vertex -0.456841 3.47006 0
      vertex -0.456841 3.47006 5.5
      vertex 0 3.5 0
    endloop
  endfacet
  facet normal 0 0 -1
    outer loop
      vertex -0.456841 3.47006 0
      vertex -0.221894 1.68546 0
      vertex -0.439992 1.64207 0
    endloop
  endfacet
  facet normal 0 0 -1
    outer loop
      vertex -0.456841 3.47006 0
      vertex 0 3.5 0
      vertex -0.221894 1.68546 0
    endloop
  endfacet
  facet normal 0 0 1
    outer loop
      vertex -0.456841 3.47006 5.5
      vertex -0.439992 1.64207 5.5
      vertex -0.221894 1.68546 5.5
    endloop
  endfacet
  facet normal -0 0 1
    outer loop
      vertex -0.456841 3.47006 5.5
      vertex -0.221894 1.68546 5.5
      vertex 0 3.5 5.5
    endloop
  endfacet
  facet normal -0.0653967 0.997859 0
    outer loop
      vertex -0.456841 3.47006 5.5
      vertex 0 3.5 5.5
      vertex 0 3.5 0
    endloop
  endfacet
  facet normal 0.195123 0.980779 0
    outer loop
      vertex -0.439992 -1.64207 0
      vertex -0.439992 -1.64207 5.5
      vertex -0.221894 -1.68546 0
    endloop
  endfacet
  facet normal 0.195123 0.980779 -0
    outer loop
      vertex -0.439992 -1.64207 5.5
      vertex -0.221894 -1.68546 5.5
      vertex -0.221894 -1.68546 0
    endloop
  endfacet
  facet normal 0.195123 -0.980779 0
    outer loop
      vertex -0.439992 1.64207 0
      vertex -0.221894 1.68546 0
      vertex -0.221894 1.68546 5.5
    endloop
  endfacet
  facet normal 0.195123 -0.980779 0
    outer loop
      vertex -0.439992 1.64207 0
      vertex -0.221894 1.68546 5.5
      vertex -0.439992 1.64207 5.5
    endloop
  endfacet
  facet normal 0.0653866 0.99786 0
    outer loop
      vertex -0.221894 -1.68546 0
      vertex -0.221894 -1.68546 5.5
      vertex 0 -1.7 0
    endloop
  endfacet
  facet normal 0 0 -1
    outer loop
      vertex -0.221894 -1.68546 0
      vertex 0 -1.7 0
      vertex 0 -3.5 0
    endloop
  endfacet
  facet normal 0 0 1
    outer loop
      vertex -0.221894 -1.68546 5.5
      vertex 0 -3.5 5.5
      vertex 0 -1.7 5.5
    endloop
  endfacet
  facet normal 0.0653866 0.99786 -0
    outer loop
      vertex -0.221894 -1.68546 5.5
      vertex 0 -1.7 5.5
      vertex 0 -1.7 0
    endloop
  endfacet
  facet normal 0.0653866 -0.99786 0
    outer loop
      vertex -0.221894 1.68546 0
      vertex 0 1.7 0
      vertex 0 1.7 5.5
    endloop
  endfacet
  facet normal 0.0653866 -0.99786 0
    outer loop
      vertex -0.221894 1.68546 0
      vertex 0 1.7 5.5
      vertex -0.221894 1.68546 5.5
    endloop
  endfacet
  facet normal 0 0 -1
    outer loop
      vertex -0.221894 1.68546 0
      vertex 0 3.5 0
      vertex 0 1.7 0
    endloop
  endfacet
  facet normal 0 0 1
    outer loop
      vertex -0.221894 1.68546 5.5
      vertex 0 1.7 5.5
      vertex 0 3.5 5.5
    endloop
  endfacet
  facet normal 0 0 -1
    outer loop
      vertex 0 -3.5 0
      vertex 0 -1.7 0
      vertex 0.221894 -1.68546 0
    endloop
  endfacet
  facet normal 0 0 -1
    outer loop
      vertex 0 -3.5 0
      vertex 0.221894 -1.68546 0
      vertex 0.456841 -3.47006 0
    endloop
  endfacet
  facet normal 0.0653967 -0.997859 0
    outer loop
      vertex 0 -3.5 0
      vertex 0.456841 -3.47006 0
      vertex 0.456841 -3.47006 5.5
    endloop
  endfacet
  facet normal 0.0653967 -0.997859 0
    outer loop
      vertex 0 -3.5 0
      vertex 0.456841 -3.47006 5.5
      vertex 0 -3.5 5.5
    endloop
  endfacet
  facet normal 0 0 1
    outer loop
      vertex 0 -3.5 5.5
      vertex 0.456841 -3.47006 5.5
      vertex 0 -1.7 5.5
    endloop
  endfacet
  facet normal -0.0653866 0.99786 0
    outer loop
      vertex 0 -1.7 0
      vertex 0 -1.7 5.5
      vertex 0.221894 -1.68546 0
    endloop
  endfacet
  facet normal -0.0653866 0.99786 0
    outer loop
      vertex 0 -1.7 5.5
      vertex 0.221894 -1.68546 5.5
      vertex 0.221894 -1.68546 0
    endloop
  endfacet
  facet normal -0 0 1
    outer loop
      vertex 0 -1.7 5.5
      vertex 0.456841 -3.47006 5.5
      vertex 0.221894 -1.68546 5.5
    endloop
  endfacet
  facet normal 0 0 -1
    outer loop
      vertex 0 1.7 0
      vertex 0 3.5 0
      vertex 0.456841 3.47006 0
    endloop
  endfacet
  facet normal -0.0653866 -0.99786 -0
    outer loop
      vertex 0 1.7 0
      vertex 0.221894 1.68546 0
      vertex 0.221894 1.68546 5.5
    endloop
  endfacet
  facet normal -0.0653866 -0.99786 0
    outer loop
      vertex 0 1.7 0
      vertex 0.221894 1.68546 5.5
      vertex 0 1.7 5.5
    endloop
  endfacet
  facet normal 0 0 -1
    outer loop
      vertex 0 1.7 0
      vertex 0.456841 3.47006 0
      vertex 0.221894 1.68546 0
    endloop
  endfacet
  facet normal 0 0 1
    outer loop
      vertex 0 1.7 5.5
      vertex 0.221894 1.68546 5.5
      vertex 0 3.5 5.5
    endloop
  endfacet
  facet normal 0.0653967 0.997859 0
    outer loop
      vertex 0 3.5 0
      vertex 0 3.5 5.5
      vertex 0.456841 3.47006 0
    endloop
  endfacet
  facet normal 0 0 1
    outer loop
      vertex 0 3.5 5.5
      vertex 0.221894 1.68546 5.5
      vertex 0.456841 3.47006 5.5
    endloop
  endfacet
  facet normal 0.0653967 0.997859 -0
    outer loop
      vertex 0 3.5 5.5
      vertex 0.456841 3.47006 5.5
      vertex 0.456841 3.47006 0
    endloop
  endfacet
  facet normal -0.195123 0.980779 0
    outer loop
      vertex 0.221894 -1.68546 0
      vertex 0.221894 -1.68546 5.5
      vertex 0.439992 -1.64207 0
    endloop
  endfacet
  facet normal 0 0 -1
    outer loop
      vertex 0.221894 -1.68546 0
      vertex 0.439992 -1.64207 0
      vertex 0.456841 -3.47006 0
    endloop
  endfacet
  facet normal -0.195123 0.980779 0
    outer loop
      vertex 0.221894 -1.68546 5.5
      vertex 0.439992 -1.64207 5.5
      vertex 0.439992 -1.64207 0
    endloop
  endfacet
  facet normal -0 0 1
    outer loop
      vertex 0.221894 -1.68546 5.5
      vertex 0.456841 -3.47006 5.5
      vertex 0.439992 -1.64207 5.5
    endloop
  endfacet
  facet normal -0.195123 -0.980779 -0
    outer loop
      vertex 0.221894 1.68546 0
      vertex 0.439992 1.64207 0
      vertex 0.439992 1.64207 5.5
    endloop
  endfacet
  facet normal -0.195123 -0.980779 0
    outer loop
      vertex 0.221894 1.68546 0
      vertex 0.439992 1.64207 5.5
      vertex 0.221894 1.68546 5.5
    endloop
  endfacet
  facet normal 0 0 -1
    outer loop
      vertex 0.221894 1.68546 0
      vertex 0.456841 3.47006 0
      vertex 0.439992 1.64207 0
    endloop
  endfacet
  facet normal 0 0 1
    outer loop
      vertex 0.221894 1.68546 5.5
      vertex 0.439992 1.64207 5.5
      vertex 0.456841 3.47006 5.5
    endloop
  endfacet
  facet normal -0.321445 0.946928 0
    outer loop
      vertex 0.439992 -1.64207 0
      vertex 0.439992 -1.64207 5.5
      vertex 0.650561 -1.57059 0
    endloop
  endfacet
  facet normal 0 0 -1
    outer loop
      vertex 0.439992 -1.64207 0
      vertex 0.650561 -1.57059 0
      vertex 0.905867 -3.38074 0
    endloop
  endfacet
  facet normal 0 0 -1
    outer loop
      vertex 0.439992 -1.64207 0
      vertex 0.905867 -3.38074 0
      vertex 0.456841 -3.47006 0
    endloop
  endfacet
  facet normal 0 0 1
    outer loop
      vertex 0.439992 -1.64207 5.5
      vertex 0.456841 -3.47006 5.5
      vertex 0.905867 -3.38074 5.5
    endloop
  endfacet
  facet normal -0.321445 0.946928 0
    outer loop
      vertex 0.439992 -1.64207 5.5
      vertex 0.650561 -1.57059 5.5
      vertex 0.650561 -1.57059 0
    endloop
  endfacet
  facet normal -0 0 1
    outer loop
      vertex 0.439992 -1.64207 5.5
      vertex 0.905867 -3.38074 5.5
      vertex 0.650561 -1.57059 5.5
    endloop
  endfacet
  facet normal -0 0 -1
    outer loop
      vertex 0.439992 1.64207 0
      vertex 0.456841 3.47006 0
      vertex 0.905867 3.38074 0
    endloop
  endfacet
  facet normal -0.321445 -0.946928 -0
    outer loop
      vertex 0.439992 1.64207 0
      vertex 0.650561 1.57059 0
      vertex 0.650561 1.57059 5.5
    endloop
  endfacet
  facet normal -0.321445 -0.946928 0
    outer loop
      vertex 0.439992 1.64207 0
      vertex 0.650561 1.57059 5.5
      vertex 0.439992 1.64207 5.5
    endloop
  endfacet
  facet normal 0 0 -1
    outer loop
      vertex 0.439992 1.64207 0
      vertex 0.905867 3.38074 0
      vertex 0.650561 1.57059 0
    endloop
  endfacet
  facet normal 0 0 1
    outer loop
      vertex 0.439992 1.64207 5.5
      vertex 0.650561 1.57059 5.5
      vertex 0.905867 3.38074 5.5
    endloop
  endfacet
  facet normal 0 0 1
    outer loop
      vertex 0.439992 1.64207 5.5
      vertex 0.905867 3.38074 5.5
      vertex 0.456841 3.47006 5.5
    endloop
  endfacet
  facet normal 0.195097 -0.980784 0
    outer loop
      vertex 0.456841 -3.47006 0
      vertex 0.905867 -3.38074 0
      vertex 0.905867 -3.38074 5.5
    endloop
  endfacet
  facet normal 0.195097 -0.980784 0
    outer loop
      vertex 0.456841 -3.47006 0
      vertex 0.905867 -3.38074 5.5
      vertex 0.456841 -3.47006 5.5
    endloop
  endfacet
  facet normal 0.195097 0.980784 0
    outer loop
      vertex 0.456841 3.47006 0
      vertex 0.456841 3.47006 5.5
      vertex 0.905867 3.38074 0
    endloop
  endfacet
  facet normal 0.195097 0.980784 -0
    outer loop
      vertex 0.456841 3.47006 5.5
      vertex 0.905867 3.38074 5.5
      vertex 0.905867 3.38074 0
    endloop
  endfacet
  facet normal -0.442282 0.896876 0
    outer loop
      vertex 0.650561 -1.57059 0
      vertex 0.650561 -1.57059 5.5
      vertex 0.849999 -1.47224 0
    endloop
  endfacet
  facet normal 0 0 -1
    outer loop
      vertex 0.650561 -1.57059 0
      vertex 0.849999 -1.47224 0
      vertex 1.33939 -3.23358 0
    endloop
  endfacet
  facet normal 0 0 -1
    outer loop
      vertex 0.650561 -1.57059 0
      vertex 1.33939 -3.23358 0
      vertex 0.905867 -3.38074 0
    endloop
  endfacet
  facet normal -0.442282 0.896876 0
    outer loop
      vertex 0.650561 -1.57059 5.5
      vertex 0.849999 -1.47224 5.5
      vertex 0.849999 -1.47224 0
    endloop
  endfacet
  facet normal 0 0 1
    outer loop
      vertex 0.650561 -1.57059 5.5
      vertex 0.905867 -3.38074 5.5
      vertex 1.33939 -3.23358 5.5
    endloop
  endfacet
  facet normal -0 0 1
    outer loop
      vertex 0.650561 -1.57059 5.5
      vertex 1.33939 -3.23358 5.5
      vertex 0.849999 -1.47224 5.5
    endloop
  endfacet
  facet normal -0.442282 -0.896876 -0
    outer loop
      vertex 0.650561 1.57059 0
      vertex 0.849999 1.47224 0
      vertex 0.849999 1.47224 5.5
    endloop
  endfacet
  facet normal -0.442282 -0.896876 0
    outer loop
      vertex 0.650561 1.57059 0
      vertex 0.849999 1.47224 5.5
      vertex 0.650561 1.57059 5.5
    endloop
  endfacet
  facet normal -0 0 -1
    outer loop
      vertex 0.650561 1.57059 0
      vertex 0.905867 3.38074 0
      vertex 1.33939 3.23358 0
    endloop
  endfacet
  facet normal 0 0 -1
    outer loop
      vertex 0.650561 1.57059 0
      vertex 1.33939 3.23358 0
      vertex 0.849999 1.47224 0
    endloop
  endfacet
  facet normal 0 0 1
    outer loop
      vertex 0.650561 1.57059 5.5
      vertex 0.849999 1.47224 5.5
      vertex 1.33939 3.23358 5.5
    endloop
  endfacet
  facet normal 0 0 1
    outer loop
      vertex 0.650561 1.57059 5.5
      vertex 1.33939 3.23358 5.5
      vertex 0.905867 3.38074 5.5
    endloop
  endfacet
  facet normal -0.55557 0.83147 0
    outer loop
      vertex 0.849999 -1.47224 0
      vertex 0.849999 -1.47224 5.5
      vertex 1.03489 -1.3487 0
    endloop
  endfacet
  facet normal 0 0 -1
    outer loop
      vertex 0.849999 -1.47224 0
      vertex 1.03489 -1.3487 0
      vertex 1.75 -3.03109 0
    endloop
  endfacet
  facet normal 0 0 -1
    outer loop
      vertex 0.849999 -1.47224 0
      vertex 1.75 -3.03109 0
      vertex 1.33939 -3.23358 0
    endloop
  endfacet
  facet normal -0.55557 0.83147 0
    outer loop
      vertex 0.849999 -1.47224 5.5
      vertex 1.03489 -1.3487 5.5
      vertex 1.03489 -1.3487 0
    endloop
  endfacet
  facet normal 0 0 1
    outer loop
      vertex 0.849999 -1.47224 5.5
      vertex 1.33939 -3.23358 5.5
      vertex 1.75 -3.03109 5.5
    endloop
  endfacet
  facet normal -0 0 1
    outer loop
      vertex 0.849999 -1.47224 5.5
      vertex 1.75 -3.03109 5.5
      vertex 1.03489 -1.3487 5.5
    endloop
  endfacet
  facet normal -0.55557 -0.83147 -0
    outer loop
      vertex 0.849999 1.47224 0
      vertex 1.03489 1.3487 0
      vertex 1.03489 1.3487 5.5
    endloop
  endfacet
  facet normal -0.55557 -0.83147 0
    outer loop
      vertex 0.849999 1.47224 0
      vertex 1.03489 1.3487 5.5
      vertex 0.849999 1.47224 5.5
    endloop
  endfacet
  facet normal -0 0 -1
    outer loop
      vertex 0.849999 1.47224 0
      vertex 1.33939 3.23358 0
      vertex 1.75 3.03109 0
    endloop
  endfacet
  facet normal 0 0 -1
    outer loop
      vertex 0.849999 1.47224 0
      vertex 1.75 3.03109 0
      vertex 1.03489 1.3487 0
    endloop
  endfacet
  facet normal 0 0 1
    outer loop
      vertex 0.849999 1.47224 5.5
      vertex 1.03489 1.3487 5.5
      vertex 1.75 3.03109 5.5
    endloop
  endfacet
  facet normal 0 0 1
    outer loop
      vertex 0.849999 1.47224 5.5
      vertex 1.75 3.03109 5.5
      vertex 1.33939 3.23358 5.5
    endloop
  endfacet
  facet normal 0.321437 -0.946931 0
    outer loop
      vertex 0.905867 -3.38074 0
      vertex 1.33939 -3.23358 0
      vertex 1.33939 -3.23358 5.5
    endloop
  endfacet
  facet normal 0.321437 -0.946931 0
    outer loop
      vertex 0.905867 -3.38074 0
      vertex 1.33939 -3.23358 5.5
      vertex 0.905867 -3.38074 5.5
    endloop
  endfacet
  facet normal 0.321437 0.946931 0
    outer loop
      vertex 0.905867 3.38074 0
      vertex 0.905867 3.38074 5.5
      vertex 1.33939 3.23358 0
    endloop
  endfacet
  facet normal 0.321437 0.946931 -0
    outer loop
      vertex 0.905867 3.38074 5.5
      vertex 1.33939 3.23358 5.5
      vertex 1.33939 3.23358 0
    endloop
  endfacet
  facet normal -0.659342 0.751844 0
    outer loop
      vertex 1.03489 -1.3487 0
      vertex 1.03489 -1.3487 5.5
      vertex 1.20208 -1.20208 0
    endloop
  endfacet
  facet normal 0 0 -1
    outer loop
      vertex 1.03489 -1.3487 0
      vertex 1.20208 -1.20208 0
      vertex 2.13066 -2.77674 0
    endloop
  endfacet
  facet normal 0 0 -1
    outer loop
      vertex 1.03489 -1.3487 0
      vertex 2.13066 -2.77674 0
      vertex 1.75 -3.03109 0
    endloop
  endfacet
  facet normal -0.659342 0.751844 0
    outer loop
      vertex 1.03489 -1.3487 5.5
      vertex 1.20208 -1.20208 5.5
      vertex 1.20208 -1.20208 0
    endloop
  endfacet
  facet normal 0 0 1
    outer loop
      vertex 1.03489 -1.3487 5.5
      vertex 1.75 -3.03109 5.5
      vertex 2.13066 -2.77674 5.5
    endloop
  endfacet
  facet normal -0 0 1
    outer loop
      vertex 1.03489 -1.3487 5.5
      vertex 2.13066 -2.77674 5.5
      vertex 1.20208 -1.20208 5.5
    endloop
  endfacet
  facet normal -0.659342 -0.751844 -0
    outer loop
      vertex 1.03489 1.3487 0
      vertex 1.20208 1.20208 0
      vertex 1.20208 1.20208 5.5
    endloop
  endfacet
  facet normal -0.659342 -0.751844 0
    outer loop
      vertex 1.03489 1.3487 0
      vertex 1.20208 1.20208 5.5
      vertex 1.03489 1.3487 5.5
    endloop
  endfacet
  facet normal -0 0 -1
    outer loop
      vertex 1.03489 1.3487 0
      vertex 1.75 3.03109 0
      vertex 2.13066 2.77674 0
    endloop
  endfacet
  facet normal 0 0 -1
    outer loop
      vertex 1.03489 1.3487 0
      vertex 2.13066 2.77674 0
      vertex 1.20208 1.20208 0
    endloop
  endfacet
  facet normal 0 0 1
    outer loop
      vertex 1.03489 1.3487 5.5
      vertex 1.20208 1.20208 5.5
      vertex 2.13066 2.77674 5.5
    endloop
  endfacet
  facet normal 0 0 1
    outer loop
      vertex 1.03489 1.3487 5.5
      vertex 2.13066 2.77674 5.5
      vertex 1.75 3.03109 5.5
    endloop
  endfacet
  facet normal -0.751844 0.659342 0
    outer loop
      vertex 1.20208 -1.20208 0
      vertex 1.20208 -1.20208 5.5
      vertex 1.3487 -1.03489 5.5
    endloop
  endfacet
  facet normal 0 0 -1
    outer loop
      vertex 1.20208 -1.20208 0
      vertex 1.3487 -1.03489 0
      vertex 2.47487 -2.47487 0
    endloop
  endfacet
  facet normal -0.751844 0.659342 0
    outer loop
      vertex 1.20208 -1.20208 0
      vertex 1.3487 -1.03489 5.5
      vertex 1.3487 -1.03489 0
    endloop
  endfacet
  facet normal 0 0 -1
    outer loop
      vertex 1.20208 -1.20208 0
      vertex 2.47487 -2.47487 0
      vertex 2.13066 -2.77674 0
    endloop
  endfacet
  facet normal 0 0 1
    outer loop
      vertex 1.20208 -1.20208 5.5
      vertex 2.13066 -2.77674 5.5
      vertex 2.47487 -2.47487 5.5
    endloop
  endfacet
  facet normal -0 0 1
    outer loop
      vertex 1.20208 -1.20208 5.5
      vertex 2.47487 -2.47487 5.5
      vertex 1.3487 -1.03489 5.5
    endloop
  endfacet
  facet normal -0.751844 -0.659342 0
    outer loop
      vertex 1.20208 1.20208 0
      vertex 1.3487 1.03489 0
      vertex 1.20208 1.20208 5.5
    endloop
  endfacet
  facet normal -0 0 -1
    outer loop
      vertex 1.20208 1.20208 0
      vertex 2.13066 2.77674 0
      vertex 2.47487 2.47487 0
    endloop
  endfacet
  facet normal 0 0 -1
    outer loop
      vertex 1.20208 1.20208 0
      vertex 2.47487 2.47487 0
      vertex 1.3487 1.03489 0
    endloop
  endfacet
  facet normal -0.751844 -0.659342 0
    outer loop
      vertex 1.20208 1.20208 5.5
      vertex 1.3487 1.03489 0
      vertex 1.3487 1.03489 5.5
    endloop
  endfacet
  facet normal 0 0 1
    outer loop
      vertex 1.20208 1.20208 5.5
      vertex 1.3487 1.03489 5.5
      vertex 2.47487 2.47487 5.5
    endloop
  endfacet
  facet normal 0 0 1
    outer loop
      vertex 1.20208 1.20208 5.5
      vertex 2.47487 2.47487 5.5
      vertex 2.13066 2.77674 5.5
    endloop
  endfacet
  facet normal 0.442288 -0.896873 0
    outer loop
      vertex 1.33939 -3.23358 0
      vertex 1.75 -3.03109 0
      vertex 1.75 -3.03109 5.5
    endloop
  endfacet
  facet normal 0.442288 -0.896873 0
    outer loop
      vertex 1.33939 -3.23358 0
      vertex 1.75 -3.03109 5.5
      vertex 1.33939 -3.23358 5.5
    endloop
  endfacet
  facet normal 0.442288 0.896873 0
    outer loop
      vertex 1.33939 3.23358 0
      vertex 1.33939 3.23358 5.5
      vertex 1.75 3.03109 0
    endloop
  endfacet
  facet normal 0.442288 0.896873 -0
    outer loop
      vertex 1.33939 3.23358 5.5
      vertex 1.75 3.03109 5.5
      vertex 1.75 3.03109 0
    endloop
  endfacet
  facet normal -0.83147 0.55557 0
    outer loop
      vertex 1.3487 -1.03489 0
      vertex 1.3487 -1.03489 5.5
      vertex 1.47224 -0.849999 5.5
    endloop
  endfacet
  facet normal 0 0 -1
    outer loop
      vertex 1.3487 -1.03489 0
      vertex 1.47224 -0.849999 0
      vertex 2.77674 -2.13066 0
    endloop
  endfacet
  facet normal -0.83147 0.55557 0
    outer loop
      vertex 1.3487 -1.03489 0
      vertex 1.47224 -0.849999 5.5
      vertex 1.47224 -0.849999 0
    endloop
  endfacet
  facet normal 0 0 -1
    outer loop
      vertex 1.3487 -1.03489 0
      vertex 2.77674 -2.13066 0
      vertex 2.47487 -2.47487 0
    endloop
  endfacet
  facet normal 0 0 1
    outer loop
      vertex 1.3487 -1.03489 5.5
      vertex 2.47487 -2.47487 5.5
      vertex 2.77674 -2.13066 5.5
    endloop
  endfacet
  facet normal -0 0 1
    outer loop
      vertex 1.3487 -1.03489 5.5
      vertex 2.77674 -2.13066 5.5
      vertex 1.47224 -0.849999 5.5
    endloop
  endfacet
  facet normal -0.83147 -0.55557 0
    outer loop
      vertex 1.3487 1.03489 0
      vertex 1.47224 0.849999 0
      vertex 1.3487 1.03489 5.5
    endloop
  endfacet
  facet normal -0 0 -1
    outer loop
      vertex 1.3487 1.03489 0
      vertex 2.47487 2.47487 0
      vertex 2.77674 2.13066 0
    endloop
  endfacet
  facet normal 0 0 -1
    outer loop
      vertex 1.3487 1.03489 0
      vertex 2.77674 2.13066 0
      vertex 1.47224 0.849999 0
    endloop
  endfacet
  facet normal -0.83147 -0.55557 0
    outer loop
      vertex 1.3487 1.03489 5.5
      vertex 1.47224 0.849999 0
      vertex 1.47224 0.849999 5.5
    endloop
  endfacet
  facet normal 0 0 1
    outer loop
      vertex 1.3487 1.03489 5.5
      vertex 1.47224 0.849999 5.5
      vertex 2.77674 2.13066 5.5
    endloop
  endfacet
  facet normal 0 0 1
    outer loop
      vertex 1.3487 1.03489 5.5
      vertex 2.77674 2.13066 5.5
      vertex 2.47487 2.47487 5.5
    endloop
  endfacet
  facet normal -0.896876 0.442282 0
    outer loop
      vertex 1.47224 -0.849999 0
      vertex 1.47224 -0.849999 5.5
      vertex 1.57059 -0.650561 5.5
    endloop
  endfacet
  facet normal 0 0 -1
    outer loop
      vertex 1.47224 -0.849999 0
      vertex 1.57059 -0.650561 0
      vertex 3.03109 -1.75 0
    endloop
  endfacet
  facet normal -0.896876 0.442282 0
    outer loop
      vertex 1.47224 -0.849999 0
      vertex 1.57059 -0.650561 5.5
      vertex 1.57059 -0.650561 0
    endloop
  endfacet
  facet normal 0 0 -1
    outer loop
      vertex 1.47224 -0.849999 0
      vertex 3.03109 -1.75 0
      vertex 2.77674 -2.13066 0
    endloop
  endfacet
  facet normal 0 0 1
    outer loop
      vertex 1.47224 -0.849999 5.5
      vertex 2.77674 -2.13066 5.5
      vertex 3.03109 -1.75 5.5
    endloop
  endfacet
  facet normal -0 0 1
    outer loop
      vertex 1.47224 -0.849999 5.5
      vertex 3.03109 -1.75 5.5
      vertex 1.57059 -0.650561 5.5
    endloop
  endfacet
  facet normal -0.896876 -0.442282 0
    outer loop
      vertex 1.47224 0.849999 0
      vertex 1.57059 0.650561 0
      vertex 1.47224 0.849999 5.5
    endloop
  endfacet
  facet normal -0 0 -1
    outer loop
      vertex 1.47224 0.849999 0
      vertex 2.77674 2.13066 0
      vertex 3.03109 1.75 0
    endloop
  endfacet
  facet normal 0 0 -1
    outer loop
      vertex 1.47224 0.849999 0
      vertex 3.03109 1.75 0
      vertex 1.57059 0.650561 0
    endloop
  endfacet
  facet normal -0.896876 -0.442282 0
    outer loop
      vertex 1.47224 0.849999 5.5
      vertex 1.57059 0.650561 0
      vertex 1.57059 0.650561 5.5
    endloop
  endfacet
  facet normal 0 0 1
    outer loop
      vertex 1.47224 0.849999 5.5
      vertex 1.57059 0.650561 5.5
      vertex 3.03109 1.75 5.5
    endloop
  endfacet
  facet normal 0 0 1
    outer loop
      vertex 1.47224 0.849999 5.5
      vertex 3.03109 1.75 5.5
      vertex 2.77674 2.13066 5.5
    endloop
  endfacet
  facet normal -0.946928 0.321445 0
    outer loop
      vertex 1.57059 -0.650561 0
      vertex 1.57059 -0.650561 5.5
      vertex 1.64207 -0.439992 5.5
    endloop
  endfacet
  facet normal 0 0 -1
    outer loop
      vertex 1.57059 -0.650561 0
      vertex 1.64207 -0.439992 0
      vertex 3.23358 -1.33939 0
    endloop
  endfacet
  facet normal -0.946928 0.321445 0
    outer loop
      vertex 1.57059 -0.650561 0
      vertex 1.64207 -0.439992 5.5
      vertex 1.64207 -0.439992 0
    endloop
  endfacet
  facet normal 0 0 -1
    outer loop
      vertex 1.57059 -0.650561 0
      vertex 3.23358 -1.33939 0
      vertex 3.03109 -1.75 0
    endloop
  endfacet
  facet normal 0 0 1
    outer loop
      vertex 1.57059 -0.650561 5.5
      vertex 3.03109 -1.75 5.5
      vertex 3.23358 -1.33939 5.5
    endloop
  endfacet
  facet normal -0 0 1
    outer loop
      vertex 1.57059 -0.650561 5.5
      vertex 3.23358 -1.33939 5.5
      vertex 1.64207 -0.439992 5.5
    endloop
  endfacet
  facet normal -0.946928 -0.321445 0
    outer loop
      vertex 1.57059 0.650561 0
      vertex 1.64207 0.439992 0
      vertex 1.57059 0.650561 5.5
    endloop
  endfacet
  facet normal -0 0 -1
    outer loop
      vertex 1.57059 0.650561 0
      vertex 3.03109 1.75 0
      vertex 3.23358 1.33939 0
    endloop
  endfacet
  facet normal 0 0 -1
    outer loop
      vertex 1.57059 0.650561 0
      vertex 3.23358 1.33939 0
      vertex 1.64207 0.439992 0
    endloop
  endfacet
  facet normal -0.946928 -0.321445 0
    outer loop
      vertex 1.57059 0.650561 5.5
      vertex 1.64207 0.439992 0
      vertex 1.64207 0.439992 5.5
    endloop
  endfacet
  facet normal 0 0 1
    outer loop
      vertex 1.57059 0.650561 5.5
      vertex 1.64207 0.439992 5.5
      vertex 3.23358 1.33939 5.5
    endloop
  endfacet
  facet normal 0 0 1
    outer loop
      vertex 1.57059 0.650561 5.5
      vertex 3.23358 1.33939 5.5
      vertex 3.03109 1.75 5.5
    endloop
  endfacet
  facet normal -0.980779 0.195123 0
    outer loop
      vertex 1.64207 -0.439992 0
      vertex 1.64207 -0.439992 5.5
      vertex 1.68546 -0.221894 5.5
    endloop
  endfacet
  facet normal 0 0 -1
    outer loop
      vertex 1.64207 -0.439992 0
      vertex 1.68546 -0.221894 0
      vertex 3.38074 -0.905867 0
    endloop
  endfacet
  facet normal -0.980779 0.195123 0
    outer loop
      vertex 1.64207 -0.439992 0
      vertex 1.68546 -0.221894 5.5
      vertex 1.68546 -0.221894 0
    endloop
  endfacet
  facet normal 0 0 -1
    outer loop
      vertex 1.64207 -0.439992 0
      vertex 3.38074 -0.905867 0
      vertex 3.23358 -1.33939 0
    endloop
  endfacet
  facet normal 0 0 1
    outer loop
      vertex 1.64207 -0.439992 5.5
      vertex 3.23358 -1.33939 5.5
      vertex 3.38074 -0.905867 5.5
    endloop
  endfacet
  facet normal -0 0 1
    outer loop
      vertex 1.64207 -0.439992 5.5
      vertex 3.38074 -0.905867 5.5
      vertex 1.68546 -0.221894 5.5
    endloop
  endfacet
  facet normal -0.980779 -0.195123 0
    outer loop
      vertex 1.64207 0.439992 0
      vertex 1.68546 0.221894 0
      vertex 1.64207 0.439992 5.5
    endloop
  endfacet
  facet normal -0 0 -1
    outer loop
      vertex 1.64207 0.439992 0
      vertex 3.23358 1.33939 0
      vertex 3.38074 0.905867 0
    endloop
  endfacet
  facet normal 0 0 -1
    outer loop
      vertex 1.64207 0.439992 0
      vertex 3.38074 0.905867 0
      vertex 1.68546 0.221894 0
    endloop
  endfacet
  facet normal -0.980779 -0.195123 0
    outer loop
      vertex 1.64207 0.439992 5.5
      vertex 1.68546 0.221894 0
      vertex 1.68546 0.221894 5.5
    endloop
  endfacet
  facet normal 0 0 1
    outer loop
      vertex 1.64207 0.439992 5.5
      vertex 1.68546 0.221894 5.5
      vertex 3.38074 0.905867 5.5
    endloop
  endfacet
  facet normal 0 0 1
    outer loop
      vertex 1.64207 0.439992 5.5
      vertex 3.38074 0.905867 5.5
      vertex 3.23358 1.33939 5.5
    endloop
  endfacet
  facet normal -0.99786 0.0653866 0
    outer loop
      vertex 1.68546 -0.221894 0
      vertex 1.68546 -0.221894 5.5
      vertex 1.7 0 5.5
    endloop
  endfacet
  facet normal 0 0 -1
    outer loop
      vertex 1.68546 -0.221894 0
      vertex 1.7 0 0
      vertex 3.47006 -0.456841 0
    endloop
  endfacet
  facet normal -0.99786 0.0653866 0
    outer loop
      vertex 1.68546 -0.221894 0
      vertex 1.7 0 5.5
      vertex 1.7 0 0
    endloop
  endfacet
  facet normal 0 0 -1
    outer loop
      vertex 1.68546 -0.221894 0
      vertex 3.47006 -0.456841 0
      vertex 3.38074 -0.905867 0
    endloop
  endfacet
  facet normal 0 0 1
    outer loop
      vertex 1.68546 -0.221894 5.5
      vertex 3.38074 -0.905867 5.5
      vertex 3.47006 -0.456841 5.5
    endloop
  endfacet
  facet normal -0 0 1
    outer loop
      vertex 1.68546 -0.221894 5.5
      vertex 3.47006 -0.456841 5.5
      vertex 1.7 0 5.5
    endloop
  endfacet
  facet normal -0.99786 -0.0653866 0
    outer loop
      vertex 1.68546 0.221894 0
      vertex 1.7 0 0
      vertex 1.68546 0.221894 5.5
    endloop
  endfacet
  facet normal -0 0 -1
    outer loop
      vertex 1.68546 0.221894 0
      vertex 3.38074 0.905867 0
      vertex 3.47006 0.456841 0
    endloop
  endfacet
  facet normal 0 0 -1
    outer loop
      vertex 1.68546 0.221894 0
      vertex 3.47006 0.456841 0
      vertex 1.7 0 0
    endloop
  endfacet
  facet normal -0.99786 -0.0653866 0
    outer loop
      vertex 1.68546 0.221894 5.5
      vertex 1.7 0 0
      vertex 1.7 0 5.5
    endloop
  endfacet
  facet normal 0 0 1
    outer loop
      vertex 1.68546 0.221894 5.5
      vertex 1.7 0 5.5
      vertex 3.47006 0.456841 5.5
    endloop
  endfacet
  facet normal 0 0 1
    outer loop
      vertex 1.68546 0.221894 5.5
      vertex 3.47006 0.456841 5.5
      vertex 3.38074 0.905867 5.5
    endloop
  endfacet
  facet normal 0 0 -1
    outer loop
      vertex 1.7 0 0
      vertex 3.47006 0.456841 0
      vertex 3.5 0 0
    endloop
  endfacet
  facet normal 0 0 -1
    outer loop
      vertex 1.7 0 0
      vertex 3.5 0 0
      vertex 3.47006 -0.456841 0
    endloop
  endfacet
  facet normal 0 0 1
    outer loop
      vertex 1.7 0 5.5
      vertex 3.47006 -0.456841 5.5
      vertex 3.5 0 5.5
    endloop
  endfacet
  facet normal 0 0 1
    outer loop
      vertex 1.7 0 5.5
      vertex 3.5 0 5.5
      vertex 3.47006 0.456841 5.5
    endloop
  endfacet
  facet normal 0.555572 -0.831468 0
    outer loop
      vertex 1.75 -3.03109 0
      vertex 2.13066 -2.77674 0
      vertex 2.13066 -2.77674 5.5
    endloop
  endfacet
  facet normal 0.555572 -0.831468 0
    outer loop
      vertex 1.75 -3.03109 0
      vertex 2.13066 -2.77674 5.5
      vertex 1.75 -3.03109 5.5
    endloop
  endfacet
  facet normal 0.555572 0.831468 0
    outer loop
      vertex 1.75 3.03109 0
      vertex 1.75 3.03109 5.5
      vertex 2.13066 2.77674 0
    endloop
  endfacet
  facet normal 0.555572 0.831468 -0
    outer loop
      vertex 1.75 3.03109 5.5
      vertex 2.13066 2.77674 5.5
      vertex 2.13066 2.77674 0
    endloop
  endfacet
  facet normal 0.659353 -0.751833 0
    outer loop
      vertex 2.13066 -2.77674 0
      vertex 2.47487 -2.47487 0
      vertex 2.47487 -2.47487 5.5
    endloop
  endfacet
  facet normal 0.659353 -0.751833 0
    outer loop
      vertex 2.13066 -2.77674 0
      vertex 2.47487 -2.47487 5.5
      vertex 2.13066 -2.77674 5.5
    endloop
  endfacet
  facet normal 0.659353 0.751833 0
    outer loop
      vertex 2.13066 2.77674 0
      vertex 2.13066 2.77674 5.5
      vertex 2.47487 2.47487 0
    endloop
  endfacet
  facet normal 0.659353 0.751833 -0
    outer loop
      vertex 2.13066 2.77674 5.5
      vertex 2.47487 2.47487 5.5
      vertex 2.47487 2.47487 0
    endloop
  endfacet
  facet normal 0.751833 -0.659353 0
    outer loop
      vertex 2.47487 -2.47487 0
      vertex 2.77674 -2.13066 0
      vertex 2.47487 -2.47487 5.5
    endloop
  endfacet
  facet normal 0.751833 -0.659353 0
    outer loop
      vertex 2.47487 -2.47487 5.5
      vertex 2.77674 -2.13066 0
      vertex 2.77674 -2.13066 5.5
    endloop
  endfacet
  facet normal 0.751833 0.659353 0
    outer loop
      vertex 2.47487 2.47487 0
      vertex 2.47487 2.47487 5.5
      vertex 2.77674 2.13066 5.5
    endloop
  endfacet
  facet normal 0.751833 0.659353 0
    outer loop
      vertex 2.47487 2.47487 0
      vertex 2.77674 2.13066 5.5
      vertex 2.77674 2.13066 0
    endloop
  endfacet
  facet normal 0.831468 -0.555572 0
    outer loop
      vertex 2.77674 -2.13066 0
      vertex 3.03109 -1.75 0
      vertex 2.77674 -2.13066 5.5
    endloop
  endfacet
  facet normal 0.831468 -0.555572 0
    outer loop
      vertex 2.77674 -2.13066 5.5
      vertex 3.03109 -1.75 0
      vertex 3.03109 -1.75 5.5
    endloop
  endfacet
  facet normal 0.831468 0.555572 0
    outer loop
      vertex 2.77674 2.13066 0
      vertex 2.77674 2.13066 5.5
      vertex 3.03109 1.75 5.5
    endloop
  endfacet
  facet normal 0.831468 0.555572 0
    outer loop
      vertex 2.77674 2.13066 0
      vertex 3.03109 1.75 5.5
      vertex 3.03109 1.75 0
    endloop
  endfacet
  facet normal 0.896873 -0.442288 0
    outer loop
      vertex 3.03109 -1.75 0
      vertex 3.23358 -1.33939 0
      vertex 3.03109 -1.75 5.5
    endloop
  endfacet
  facet normal 0.896873 -0.442288 0
    outer loop
      vertex 3.03109 -1.75 5.5
      vertex 3.23358 -1.33939 0
      vertex 3.23358 -1.33939 5.5
    endloop
  endfacet
  facet normal 0.896873 0.442288 0
    outer loop
      vertex 3.03109 1.75 0
      vertex 3.03109 1.75 5.5
      vertex 3.23358 1.33939 5.5
    endloop
  endfacet
  facet normal 0.896873 0.442288 0
    outer loop
      vertex 3.03109 1.75 0
      vertex 3.23358 1.33939 5.5
      vertex 3.23358 1.33939 0
    endloop
  endfacet
  facet normal 0.946931 -0.321437 0
    outer loop
      vertex 3.23358 -1.33939 0
      vertex 3.38074 -0.905867 0
      vertex 3.23358 -1.33939 5.5
    endloop
  endfacet
  facet normal 0.946931 -0.321437 0
    outer loop
      vertex 3.23358 -1.33939 5.5
      vertex 3.38074 -0.905867 0
      vertex 3.38074 -0.905867 5.5
    endloop
  endfacet
  facet normal 0.946931 0.321437 0
    outer loop
      vertex 3.23358 1.33939 0
      vertex 3.23358 1.33939 5.5
      vertex 3.38074 0.905867 5.5
    endloop
  endfacet
  facet normal 0.946931 0.321437 0
    outer loop
      vertex 3.23358 1.33939 0
      vertex 3.38074 0.905867 5.5
      vertex 3.38074 0.905867 0
    endloop
  endfacet
  facet normal 0.980784 -0.195097 0
    outer loop
      vertex 3.38074 -0.905867 0
      vertex 3.47006 -0.456841 0
      vertex 3.38074 -0.905867 5.5
    endloop
  endfacet
  facet normal 0.980784 -0.195097 0
    outer loop
      vertex 3.38074 -0.905867 5.5
      vertex 3.47006 -0.456841 0
      vertex 3.47006 -0.456841 5.5
    endloop
  endfacet
  facet normal 0.980784 0.195097 0
    outer loop
      vertex 3.38074 0.905867 0
      vertex 3.38074 0.905867 5.5
      vertex 3.47006 0.456841 5.5
    endloop
  endfacet
  facet normal 0.980784 0.195097 0
    outer loop
      vertex 3.38074 0.905867 0
      vertex 3.47006 0.456841 5.5
      vertex 3.47006 0.456841 0
    endloop
  endfacet
  facet normal 0.997859 -0.0653967 0
    outer loop
      vertex 3.47006 -0.456841 0
      vertex 3.5 0 0
      vertex 3.47006 -0.456841 5.5
    endloop
  endfacet
  facet normal 0.997859 -0.0653967 0
    outer loop
      vertex 3.47006 -0.456841 5.5
      vertex 3.5 0 0
      vertex 3.5 0 5.5
    endloop
  endfacet
  facet normal 0.997859 0.0653967 0
    outer loop
      vertex 3.47006 0.456841 0
      vertex 3.47006 0.456841 5.5
      vertex 3.5 0 5.5
    endloop
  endfacet
  facet normal 0.997859 0.0653967 0
    outer loop
      vertex 3.47006 0.456841 0
      vertex 3.5 0 5.5
      vertex 3.5 0 0
    endloop
  endfacet
endsolid OpenSCAD_Model
