solid OpenSCAD_Model
  facet normal -1 0 0
    outer loop
      vertex 0 0 0
      vertex 0 0 20
      vertex 0 7.9 10
    endloop
  endfacet
  facet normal -1 -0 0
    outer loop
      vertex 0 0 0
      vertex 0 7.9 10
      vertex 0 7.91796 9.72589
    endloop
  endfacet
  facet normal -1 -0 0
    outer loop
      vertex 0 0 0
      vertex 0 7.91796 9.72589
      vertex 0 7.97156 9.45648
    endloop
  endfacet
  facet normal -1 -0 0
    outer loop
      vertex 0 0 0
      vertex 0 7.97156 9.45648
      vertex 0 8.05985 9.19636
    endloop
  endfacet
  facet normal -1 -0 0
    outer loop
      vertex 0 0 0
      vertex 0 8.05985 9.19636
      vertex 0 8.18135 8.95
    endloop
  endfacet
  facet normal -1 -0 0
    outer loop
      vertex 0 0 0
      vertex 0 8.18135 8.95
      vertex 0 8.33396 8.7216
    endloop
  endfacet
  facet normal -1 -0 0
    outer loop
      vertex 0 0 0
      vertex 0 8.33396 8.7216
      vertex 0 8.51508 8.51508
    endloop
  endfacet
  facet normal -1 -0 0
    outer loop
      vertex 0 0 0
      vertex 0 8.51508 8.51508
      vertex 0 8.7216 8.33396
    endloop
  endfacet
  facet normal -1 -0 0
    outer loop
      vertex 0 0 0
      vertex 0 8.7216 8.33396
      vertex 0 8.95 8.18135
    endloop
  endfacet
  facet normal -1 -0 0
    outer loop
      vertex 0 0 0
      vertex 0 8.95 8.18135
      vertex 0 9.19636 8.05985
    endloop
  endfacet
  facet normal -1 -0 0
    outer loop
      vertex 0 0 0
      vertex 0 9.19636 8.05985
      vertex 0 9.45648 7.97156
    endloop
  endfacet
  facet normal -1 -0 0
    outer loop
      vertex 0 0 0
      vertex 0 9.45648 7.97156
      vertex 0 9.72589 7.91796
    endloop
  endfacet
  facet normal -1 -0 0
    outer loop
      vertex 0 0 0
      vertex 0 9.72589 7.91796
      vertex 0 10 7.9
    endloop
  endfacet
  facet normal -1 0 0
    outer loop
      vertex 0 0 0
      vertex 0 10 7.9
      vertex 0 20 0
    endloop
  endfacet
  facet normal 0 0 -1
    outer loop
      vertex 0 0 0
      vertex 0 20 0
      vertex 7.9 10 0
    endloop
  endfacet
  facet normal 0 -1 0
    outer loop
      vertex 0 0 0
      vertex 7.9 0 10
      vertex 0 0 20
    endloop
  endfacet
  facet normal -0 0 -1
    outer loop
      vertex 0 0 0
      vertex 7.9 10 0
      vertex 7.91796 9.72589 0
    endloop
  endfacet
  facet normal 0 -1 -0
    outer loop
      vertex 0 0 0
      vertex 7.91796 0 9.72589
      vertex 7.9 0 10
    endloop
  endfacet
  facet normal -0 0 -1
    outer loop
      vertex 0 0 0
      vertex 7.91796 9.72589 0
      vertex 7.97156 9.45648 0
    endloop
  endfacet
  facet normal 0 -1 -0
    outer loop
      vertex 0 0 0
      vertex 7.97156 0 9.45648
      vertex 7.91796 0 9.72589
    endloop
  endfacet
  facet normal -0 0 -1
    outer loop
      vertex 0 0 0
      vertex 7.97156 9.45648 0
      vertex 8.05985 9.19636 0
    endloop
  endfacet
  facet normal 0 -1 -0
    outer loop
      vertex 0 0 0
      vertex 8.05985 0 9.19636
      vertex 7.97156 0 9.45648
    endloop
  endfacet
  facet normal -0 0 -1
    outer loop
      vertex 0 0 0
      vertex 8.05985 9.19636 0
      vertex 8.18135 8.95 0
    endloop
  endfacet
  facet normal 0 -1 -0
    outer loop
      vertex 0 0 0
      vertex 8.18135 0 8.95
      vertex 8.05985 0 9.19636
    endloop
  endfacet
  facet normal -0 0 -1
    outer loop
      vertex 0 0 0
      vertex 8.18135 8.95 0
      vertex 8.33396 8.7216 0
    endloop
  endfacet
  facet normal 0 -1 -0
    outer loop
      vertex 0 0 0
      vertex 8.33396 0 8.7216
      vertex 8.18135 0 8.95
    endloop
  endfacet
  facet normal -0 0 -1
    outer loop
      vertex 0 0 0
      vertex 8.33396 8.7216 0
      vertex 8.51508 8.51508 0
    endloop
  endfacet
  facet normal 0 -1 -0
    outer loop
      vertex 0 0 0
      vertex 8.51508 0 8.51508
      vertex 8.33396 0 8.7216
    endloop
  endfacet
  facet normal -0 0 -1
    outer loop
      vertex 0 0 0
      vertex 8.51508 8.51508 0
      vertex 8.7216 8.33396 0
    endloop
  endfacet
  facet normal 0 -1 -0
    outer loop
      vertex 0 0 0
      vertex 8.7216 0 8.33396
      vertex 8.51508 0 8.51508
    endloop
  endfacet
  facet normal -0 0 -1
    outer loop
      vertex 0 0 0
      vertex 8.7216 8.33396 0
      vertex 8.95 8.18135 0
    endloop
  endfacet
  facet normal 0 -1 -0
    outer loop
      vertex 0 0 0
      vertex 8.95 0 8.18135
      vertex 8.7216 0 8.33396
    endloop
  endfacet
  facet normal -0 0 -1
    outer loop
      vertex 0 0 0
      vertex 8.95 8.18135 0
      vertex 9.19636 8.05985 0
    endloop
  endfacet
  facet normal 0 -1 -0
    outer loop
      vertex 0 0 0
      vertex 9.19636 0 8.05985
      vertex 8.95 0 8.18135
    endloop
  endfacet
  facet normal -0 0 -1
    outer loop
      vertex 0 0 0
      vertex 9.19636 8.05985 0
      vertex 9.45648 7.97156 0
    endloop
  endfacet
  facet normal 0 -1 -0
    outer loop
      vertex 0 0 0
      vertex 9.45648 0 7.97156
      vertex 9.19636 0 8.05985
    endloop
  endfacet
  facet normal -0 0 -1
    outer loop
      vertex 0 0 0
      vertex 9.45648 7.97156 0
      vertex 9.72589 7.91796 0
    endloop
  endfacet
  facet normal 0 -1 -0
    outer loop
      vertex 0 0 0
      vertex 9.72589 0 7.91796
      vertex 9.45648 0 7.97156
    endloop
  endfacet
  facet normal -0 0 -1
    outer loop
      vertex 0 0 0
      vertex 9.72589 7.91796 0
      vertex 10 7.9 0
    endloop
  endfacet
  facet normal 0 -1 -0
    outer loop
      vertex 0 0 0
      vertex 10 0 7.9
      vertex 9.72589 0 7.91796
    endloop
  endfacet
  facet normal 0 0 -1
    outer loop
      vertex 0 0 0
      vertex 10 7.9 0
      vertex 20 0 0
    endloop
  endfacet
  facet normal 0 -1 0
    outer loop
      vertex 0 0 0
      vertex 20 0 0
      vertex 10 0 7.9
    endloop
  endfacet
  facet normal -1 0 0
    outer loop
      vertex 0 0 20
      vertex 0 7.91796 10.2741
      vertex 0 7.9 10
    endloop
  endfacet
  facet normal -1 0 0
    outer loop
      vertex 0 0 20
      vertex 0 7.97156 10.5435
      vertex 0 7.91796 10.2741
    endloop
  endfacet
  facet normal -1 0 0
    outer loop
      vertex 0 0 20
      vertex 0 8.05985 10.8036
      vertex 0 7.97156 10.5435
    endloop
  endfacet
  facet normal -1 0 0
    outer loop
      vertex 0 0 20
      vertex 0 8.18135 11.05
      vertex 0 8.05985 10.8036
    endloop
  endfacet
  facet normal -1 0 0
    outer loop
      vertex 0 0 20
      vertex 0 8.33396 11.2784
      vertex 0 8.18135 11.05
    endloop
  endfacet
  facet normal -1 0 0
    outer loop
      vertex 0 0 20
      vertex 0 8.51508 11.4849
      vertex 0 8.33396 11.2784
    endloop
  endfacet
  facet normal -1 0 0
    outer loop
      vertex 0 0 20
      vertex 0 8.7216 11.666
      vertex 0 8.51508 11.4849
    endloop
  endfacet
  facet normal -1 0 0
    outer loop
      vertex 0 0 20
      vertex 0 8.95 11.8187
      vertex 0 8.7216 11.666
    endloop
  endfacet
  facet normal -1 0 0
    outer loop
      vertex 0 0 20
      vertex 0 9.19636 11.9401
      vertex 0 8.95 11.8187
    endloop
  endfacet
  facet normal -1 0 0
    outer loop
      vertex 0 0 20
      vertex 0 9.45648 12.0284
      vertex 0 9.19636 11.9401
    endloop
  endfacet
  facet normal -1 0 0
    outer loop
      vertex 0 0 20
      vertex 0 9.72589 12.082
      vertex 0 9.45648 12.0284
    endloop
  endfacet
  facet normal -1 0 0
    outer loop
      vertex 0 0 20
      vertex 0 10 12.1
      vertex 0 9.72589 12.082
    endloop
  endfacet
  facet normal -1 0 0
    outer loop
      vertex 0 0 20
      vertex 0 20 20
      vertex 0 10 12.1
    endloop
  endfacet
  facet normal 0 -1 0
    outer loop
      vertex 0 0 20
      vertex 7.9 0 10
      vertex 7.91796 0 10.2741
    endloop
  endfacet
  facet normal 0 -1 0
    outer loop
      vertex 0 0 20
      vertex 7.91796 0 10.2741
      vertex 7.97156 0 10.5435
    endloop
  endfacet
  facet normal 0 -1 0
    outer loop
      vertex 0 0 20
      vertex 7.97156 0 10.5435
      vertex 8.05985 0 10.8036
    endloop
  endfacet
  facet normal 0 -1 0
    outer loop
      vertex 0 0 20
      vertex 8.05985 0 10.8036
      vertex 8.18135 0 11.05
    endloop
  endfacet
  facet normal 0 -1 0
    outer loop
      vertex 0 0 20
      vertex 8.18135 0 11.05
      vertex 8.33396 0 11.2784
    endloop
  endfacet
  facet normal 0 -1 0
    outer loop
      vertex 0 0 20
      vertex 8.33396 0 11.2784
      vertex 8.51508 0 11.4849
    endloop
  endfacet
  facet normal 0 -1 0
    outer loop
      vertex 0 0 20
      vertex 8.51508 0 11.4849
      vertex 8.7216 0 11.666
    endloop
  endfacet
  facet normal 0 -1 0
    outer loop
      vertex 0 0 20
      vertex 8.7216 0 11.666
      vertex 8.95 0 11.8187
    endloop
  endfacet
  facet normal 0 -1 0
    outer loop
      vertex 0 0 20
      vertex 8.95 0 11.8187
      vertex 9.19636 0 11.9401
    endloop
  endfacet
  facet normal 0 -1 0
    outer loop
      vertex 0 0 20
      vertex 9.19636 0 11.9401
      vertex 9.45648 0 12.0284
    endloop
  endfacet
  facet normal 0 -1 0
    outer loop
      vertex 0 0 20
      vertex 9.45648 0 12.0284
      vertex 9.72589 0 12.082
    endloop
  endfacet
  facet normal 0 -1 0
    outer loop
      vertex 0 0 20
      vertex 9.72589 0 12.082
      vertex 10 0 12.1
    endloop
  endfacet
  facet normal 0 -1 0
    outer loop
      vertex 0 0 20
      vertex 10 0 12.1
      vertex 20 0 20
    endloop
  endfacet
  facet normal 0 0 1
    outer loop
      vertex 0 0 20
      vertex 20 0 20
      vertex 0 20 20
    endloop
  endfacet
  facet normal 0 0.99786 -0.0653833
    outer loop
      vertex 0 7.9 10
      vertex 0 7.91796 10.2741
      vertex 7 7.9 10
    endloop
  endfacet
  facet normal 0 0.99786 0.065381
    outer loop
      vertex 0 7.9 10
      vertex 7 7.9 10
      vertex 7 7.91796 9.72589
    endloop
  endfacet
  facet normal 0 0.99786 0.065381
    outer loop
      vertex 0 7.9 10
      vertex 7 7.91796 9.72589
      vertex 0 7.91796 9.72589
    endloop
  endfacet
  facet normal 0 0.980778 0.195129
    outer loop
      vertex 0 7.91796 9.72589
      vertex 7 7.91796 9.72589
      vertex 7 7.97156 9.45648
    endloop
  endfacet
  facet normal 0 0.980778 0.195129
    outer loop
      vertex 0 7.91796 9.72589
      vertex 7 7.97156 9.45648
      vertex 0 7.97156 9.45648
    endloop
  endfacet
  facet normal 0 0.980776 -0.195136
    outer loop
      vertex 0 7.91796 10.2741
      vertex 0 7.97156 10.5435
      vertex 7 7.91796 10.2741
    endloop
  endfacet
  facet normal 0 0.99786 -0.0653833
    outer loop
      vertex 0 7.91796 10.2741
      vertex 7 7.91796 10.2741
      vertex 7 7.9 10
    endloop
  endfacet
  facet normal 0 0.94694 0.321411
    outer loop
      vertex 0 7.97156 9.45648
      vertex 7 7.97156 9.45648
      vertex 7 8.05985 9.19636
    endloop
  endfacet
  facet normal 0 0.94694 0.321411
    outer loop
      vertex 0 7.97156 9.45648
      vertex 7 8.05985 9.19636
      vertex 0 8.05985 9.19636
    endloop
  endfacet
  facet normal 0 0.946932 -0.321433
    outer loop
      vertex 0 7.97156 10.5435
      vertex 0 8.05985 10.8036
      vertex 7 7.97156 10.5435
    endloop
  endfacet
  facet normal 0 0.980776 -0.195136
    outer loop
      vertex 0 7.97156 10.5435
      vertex 7 7.97156 10.5435
      vertex 7 7.91796 10.2741
    endloop
  endfacet
  facet normal 0 0.89686 0.442314
    outer loop
      vertex 0 8.05985 9.19636
      vertex 7 8.05985 9.19636
      vertex 7 8.18135 8.95
    endloop
  endfacet
  facet normal 0 0.89686 0.442314
    outer loop
      vertex 0 8.05985 9.19636
      vertex 7 8.18135 8.95
      vertex 0 8.18135 8.95
    endloop
  endfacet
  facet normal 0 0.896889 -0.442256
    outer loop
      vertex 0 8.05985 10.8036
      vertex 0 8.18135 11.05
      vertex 7 8.05985 10.8036
    endloop
  endfacet
  facet normal 0 0.946932 -0.321433
    outer loop
      vertex 0 8.05985 10.8036
      vertex 7 8.05985 10.8036
      vertex 7 7.97156 10.5435
    endloop
  endfacet
  facet normal 0 0.831473 0.555565
    outer loop
      vertex 0 8.18135 8.95
      vertex 7 8.18135 8.95
      vertex 7 8.33396 8.7216
    endloop
  endfacet
  facet normal 0 0.831473 0.555565
    outer loop
      vertex 0 8.18135 8.95
      vertex 7 8.33396 8.7216
      vertex 0 8.33396 8.7216
    endloop
  endfacet
  facet normal 0 0.831473 -0.555565
    outer loop
      vertex 0 8.18135 11.05
      vertex 0 8.33396 11.2784
      vertex 7 8.18135 11.05
    endloop
  endfacet
  facet normal 0 0.896889 -0.442256
    outer loop
      vertex 0 8.18135 11.05
      vertex 7 8.18135 11.05
      vertex 7 8.05985 10.8036
    endloop
  endfacet
  facet normal 0 0.751827 0.65936
    outer loop
      vertex 0 8.33396 8.7216
      vertex 7 8.33396 8.7216
      vertex 7 8.51508 8.51508
    endloop
  endfacet
  facet normal 0 0.751827 0.65936
    outer loop
      vertex 0 8.33396 8.7216
      vertex 7 8.51508 8.51508
      vertex 0 8.51508 8.51508
    endloop
  endfacet
  facet normal 0 0.751796 -0.659396
    outer loop
      vertex 0 8.33396 11.2784
      vertex 0 8.51508 11.4849
      vertex 7 8.33396 11.2784
    endloop
  endfacet
  facet normal 0 0.831473 -0.555565
    outer loop
      vertex 0 8.33396 11.2784
      vertex 7 8.33396 11.2784
      vertex 7 8.18135 11.05
    endloop
  endfacet
  facet normal 0 0.65936 0.751827
    outer loop
      vertex 0 8.51508 8.51508
      vertex 7 8.51508 8.51508
      vertex 0 8.7216 8.33396
    endloop
  endfacet
  facet normal 0 0.659319 -0.751864
    outer loop
      vertex 0 8.51508 11.4849
      vertex 0 8.7216 11.666
      vertex 7 8.7216 11.666
    endloop
  endfacet
  facet normal 0 0.751796 -0.659396
    outer loop
      vertex 0 8.51508 11.4849
      vertex 7 8.51508 11.4849
      vertex 7 8.33396 11.2784
    endloop
  endfacet
  facet normal 0 0.659319 -0.751864
    outer loop
      vertex 0 8.51508 11.4849
      vertex 7 8.7216 11.666
      vertex 7 8.51508 11.4849
    endloop
  endfacet
  facet normal -0 0.65936 0.751827
    outer loop
      vertex 0 8.7216 8.33396
      vertex 7 8.51508 8.51508
      vertex 7 8.7216 8.33396
    endloop
  endfacet
  facet normal 0 0.555565 0.831473
    outer loop
      vertex 0 8.7216 8.33396
      vertex 7 8.7216 8.33396
      vertex 0 8.95 8.18135
    endloop
  endfacet
  facet normal 0 0.555792 -0.831322
    outer loop
      vertex 0 8.7216 11.666
      vertex 0 8.95 11.8187
      vertex 7 8.95 11.8187
    endloop
  endfacet
  facet normal 0 0.555792 -0.831322
    outer loop
      vertex 0 8.7216 11.666
      vertex 7 8.95 11.8187
      vertex 7 8.7216 11.666
    endloop
  endfacet
  facet normal -0 0.555565 0.831473
    outer loop
      vertex 0 8.95 8.18135
      vertex 7 8.7216 8.33396
      vertex 7 8.95 8.18135
    endloop
  endfacet
  facet normal 0 0.442314 0.89686
    outer loop
      vertex 0 8.95 8.18135
      vertex 7 8.95 8.18135
      vertex 0 9.19636 8.05985
    endloop
  endfacet
  facet normal 0 0.442021 -0.897005
    outer loop
      vertex 0 8.95 11.8187
      vertex 0 9.19636 11.9401
      vertex 7 9.19636 11.9401
    endloop
  endfacet
  facet normal 0 0.442021 -0.897005
    outer loop
      vertex 0 8.95 11.8187
      vertex 7 9.19636 11.9401
      vertex 7 8.95 11.8187
    endloop
  endfacet
  facet normal -0 0.442314 0.89686
    outer loop
      vertex 0 9.19636 8.05985
      vertex 7 8.95 8.18135
      vertex 7 9.19636 8.05985
    endloop
  endfacet
  facet normal 0 0.321411 0.94694
    outer loop
      vertex 0 9.19636 8.05985
      vertex 7 9.19636 8.05985
      vertex 0 9.45648 7.97156
    endloop
  endfacet
  facet normal 0 0.321443 -0.946929
    outer loop
      vertex 0 9.19636 11.9401
      vertex 0 9.45648 12.0284
      vertex 7 9.45648 12.0284
    endloop
  endfacet
  facet normal 0 0.321443 -0.946929
    outer loop
      vertex 0 9.19636 11.9401
      vertex 7 9.45648 12.0284
      vertex 7 9.19636 11.9401
    endloop
  endfacet
  facet normal -0 0.321411 0.94694
    outer loop
      vertex 0 9.45648 7.97156
      vertex 7 9.19636 8.05985
      vertex 7 9.45648 7.97156
    endloop
  endfacet
  facet normal 0 0.195129 0.980778
    outer loop
      vertex 0 9.45648 7.97156
      vertex 7 9.45648 7.97156
      vertex 0 9.72589 7.91796
    endloop
  endfacet
  facet normal 0 0.195129 -0.980778
    outer loop
      vertex 0 9.45648 12.0284
      vertex 0 9.72589 12.082
      vertex 7 9.72589 12.082
    endloop
  endfacet
  facet normal 0 0.195129 -0.980778
    outer loop
      vertex 0 9.45648 12.0284
      vertex 7 9.72589 12.082
      vertex 7 9.45648 12.0284
    endloop
  endfacet
  facet normal -0 0.195129 0.980778
    outer loop
      vertex 0 9.72589 7.91796
      vertex 7 9.45648 7.97156
      vertex 7 9.72589 7.91796
    endloop
  endfacet
  facet normal 0 0.065381 0.99786
    outer loop
      vertex 0 9.72589 7.91796
      vertex 7 9.72589 7.91796
      vertex 0 10 7.9
    endloop
  endfacet
  facet normal 0 0.0655259 -0.997851
    outer loop
      vertex 0 9.72589 12.082
      vertex 0 10 12.1
      vertex 7 10 12.1
    endloop
  endfacet
  facet normal 0 0.0655259 -0.997851
    outer loop
      vertex 0 9.72589 12.082
      vertex 7 10 12.1
      vertex 7 9.72589 12.082
    endloop
  endfacet
  facet normal -1 0 0
    outer loop
      vertex 0 10 7.9
      vertex 0 10.2741 7.91796
      vertex 0 20 0
    endloop
  endfacet
  facet normal -0 0.065381 0.99786
    outer loop
      vertex 0 10 7.9
      vertex 7 9.72589 7.91796
      vertex 7 10 7.9
    endloop
  endfacet
  facet normal 0 -0.0653833 0.99786
    outer loop
      vertex 0 10 7.9
      vertex 7 10 7.9
      vertex 0 10.2741 7.91796
    endloop
  endfacet
  facet normal -0 -0.0655283 -0.997851
    outer loop
      vertex 0 10 12.1
      vertex 0 10.2741 12.082
      vertex 7 10.2741 12.082
    endloop
  endfacet
  facet normal -1 0 0
    outer loop
      vertex 0 10 12.1
      vertex 0 20 20
      vertex 0 10.2741 12.082
    endloop
  endfacet
  facet normal 0 -0.0655283 -0.997851
    outer loop
      vertex 0 10 12.1
      vertex 7 10.2741 12.082
      vertex 7 10 12.1
    endloop
  endfacet
  facet normal -1 0 0
    outer loop
      vertex 0 10.2741 7.91796
      vertex 0 10.5435 7.97156
      vertex 0 20 0
    endloop
  endfacet
  facet normal 0 -0.0653833 0.99786
    outer loop
      vertex 0 10.2741 7.91796
      vertex 7 10 7.9
      vertex 7 10.2741 7.91796
    endloop
  endfacet
  facet normal 0 -0.195136 0.980776
    outer loop
      vertex 0 10.2741 7.91796
      vertex 7 10.2741 7.91796
      vertex 0 10.5435 7.97156
    endloop
  endfacet
  facet normal -0 -0.195136 -0.980776
    outer loop
      vertex 0 10.2741 12.082
      vertex 0 10.5435 12.0284
      vertex 7 10.5435 12.0284
    endloop
  endfacet
  facet normal -1 0 0
    outer loop
      vertex 0 10.2741 12.082
      vertex 0 20 20
      vertex 0 10.5435 12.0284
    endloop
  endfacet
  facet normal 0 -0.195136 -0.980776
    outer loop
      vertex 0 10.2741 12.082
      vertex 7 10.5435 12.0284
      vertex 7 10.2741 12.082
    endloop
  endfacet
  facet normal -1 0 0
    outer loop
      vertex 0 10.5435 7.97156
      vertex 0 10.8036 8.05985
      vertex 0 20 0
    endloop
  endfacet
  facet normal 0 -0.195136 0.980776
    outer loop
      vertex 0 10.5435 7.97156
      vertex 7 10.2741 7.91796
      vertex 7 10.5435 7.97156
    endloop
  endfacet
  facet normal 0 -0.321433 0.946932
    outer loop
      vertex 0 10.5435 7.97156
      vertex 7 10.5435 7.97156
      vertex 0 10.8036 8.05985
    endloop
  endfacet
  facet normal -0 -0.321465 -0.946921
    outer loop
      vertex 0 10.5435 12.0284
      vertex 0 10.8036 11.9401
      vertex 7 10.8036 11.9401
    endloop
  endfacet
  facet normal -1 0 0
    outer loop
      vertex 0 10.5435 12.0284
      vertex 0 20 20
      vertex 0 10.8036 11.9401
    endloop
  endfacet
  facet normal 0 -0.321465 -0.946921
    outer loop
      vertex 0 10.5435 12.0284
      vertex 7 10.8036 11.9401
      vertex 7 10.5435 12.0284
    endloop
  endfacet
  facet normal -1 0 0
    outer loop
      vertex 0 10.8036 8.05985
      vertex 0 11.05 8.18135
      vertex 0 20 0
    endloop
  endfacet
  facet normal 0 -0.321433 0.946932
    outer loop
      vertex 0 10.8036 8.05985
      vertex 7 10.5435 7.97156
      vertex 7 10.8036 8.05985
    endloop
  endfacet
  facet normal 0 -0.442256 0.896889
    outer loop
      vertex 0 10.8036 8.05985
      vertex 7 10.8036 8.05985
      vertex 0 11.05 8.18135
    endloop
  endfacet
  facet normal -0 -0.441964 -0.897033
    outer loop
      vertex 0 10.8036 11.9401
      vertex 0 11.05 11.8187
      vertex 7 11.05 11.8187
    endloop
  endfacet
  facet normal -1 0 0
    outer loop
      vertex 0 10.8036 11.9401
      vertex 0 20 20
      vertex 0 11.05 11.8187
    endloop
  endfacet
  facet normal 0 -0.441964 -0.897033
    outer loop
      vertex 0 10.8036 11.9401
      vertex 7 11.05 11.8187
      vertex 7 10.8036 11.9401
    endloop
  endfacet
  facet normal -1 0 0
    outer loop
      vertex 0 11.05 8.18135
      vertex 0 11.2784 8.33396
      vertex 0 20 0
    endloop
  endfacet
  facet normal 0 -0.442256 0.896889
    outer loop
      vertex 0 11.05 8.18135
      vertex 7 10.8036 8.05985
      vertex 7 11.05 8.18135
    endloop
  endfacet
  facet normal 0 -0.555565 0.831473
    outer loop
      vertex 0 11.05 8.18135
      vertex 7 11.05 8.18135
      vertex 0 11.2784 8.33396
    endloop
  endfacet
  facet normal -0 -0.555792 -0.831322
    outer loop
      vertex 0 11.05 11.8187
      vertex 0 11.2784 11.666
      vertex 7 11.2784 11.666
    endloop
  endfacet
  facet normal -1 0 0
    outer loop
      vertex 0 11.05 11.8187
      vertex 0 20 20
      vertex 0 11.2784 11.666
    endloop
  endfacet
  facet normal 0 -0.555792 -0.831322
    outer loop
      vertex 0 11.05 11.8187
      vertex 7 11.2784 11.666
      vertex 7 11.05 11.8187
    endloop
  endfacet
  facet normal -1 0 0
    outer loop
      vertex 0 11.2784 8.33396
      vertex 0 11.4849 8.51508
      vertex 0 20 0
    endloop
  endfacet
  facet normal 0 -0.555565 0.831473
    outer loop
      vertex 0 11.2784 8.33396
      vertex 7 11.05 8.18135
      vertex 7 11.2784 8.33396
    endloop
  endfacet
  facet normal 0 -0.659396 0.751796
    outer loop
      vertex 0 11.2784 8.33396
      vertex 7 11.2784 8.33396
      vertex 0 11.4849 8.51508
    endloop
  endfacet
  facet normal -0 -0.659355 -0.751832
    outer loop
      vertex 0 11.2784 11.666
      vertex 0 11.4849 11.4849
      vertex 7 11.4849 11.4849
    endloop
  endfacet
  facet normal -1 0 0
    outer loop
      vertex 0 11.2784 11.666
      vertex 0 20 20
      vertex 0 11.4849 11.4849
    endloop
  endfacet
  facet normal 0 -0.659355 -0.751832
    outer loop
      vertex 0 11.2784 11.666
      vertex 7 11.4849 11.4849
      vertex 7 11.2784 11.666
    endloop
  endfacet
  facet normal -1 0 0
    outer loop
      vertex 0 11.4849 8.51508
      vertex 0 11.666 8.7216
      vertex 0 20 0
    endloop
  endfacet
  facet normal 0 -0.659396 0.751796
    outer loop
      vertex 0 11.4849 8.51508
      vertex 7 11.2784 8.33396
      vertex 7 11.4849 8.51508
    endloop
  endfacet
  facet normal 0 -0.751864 0.659319
    outer loop
      vertex 0 11.4849 8.51508
      vertex 7 11.4849 8.51508
      vertex 7 11.666 8.7216
    endloop
  endfacet
  facet normal 0 -0.751864 0.659319
    outer loop
      vertex 0 11.4849 8.51508
      vertex 7 11.666 8.7216
      vertex 0 11.666 8.7216
    endloop
  endfacet
  facet normal 0 -0.751832 -0.659355
    outer loop
      vertex 0 11.4849 11.4849
      vertex 0 11.666 11.2784
      vertex 7 11.4849 11.4849
    endloop
  endfacet
  facet normal -1 0 0
    outer loop
      vertex 0 11.4849 11.4849
      vertex 0 20 20
      vertex 0 11.666 11.2784
    endloop
  endfacet
  facet normal -1 0 0
    outer loop
      vertex 0 11.666 8.7216
      vertex 0 11.8187 8.95
      vertex 0 20 0
    endloop
  endfacet
  facet normal 0 -0.831322 0.555792
    outer loop
      vertex 0 11.666 8.7216
      vertex 7 11.666 8.7216
      vertex 7 11.8187 8.95
    endloop
  endfacet
  facet normal 0 -0.831322 0.555792
    outer loop
      vertex 0 11.666 8.7216
      vertex 7 11.8187 8.95
      vertex 0 11.8187 8.95
    endloop
  endfacet
  facet normal 0 -0.831322 -0.555792
    outer loop
      vertex 0 11.666 11.2784
      vertex 0 11.8187 11.05
      vertex 7 11.666 11.2784
    endloop
  endfacet
  facet normal -1 0 0
    outer loop
      vertex 0 11.666 11.2784
      vertex 0 20 20
      vertex 0 11.8187 11.05
    endloop
  endfacet
  facet normal 0 -0.751832 -0.659355
    outer loop
      vertex 0 11.666 11.2784
      vertex 7 11.666 11.2784
      vertex 7 11.4849 11.4849
    endloop
  endfacet
  facet normal -1 0 0
    outer loop
      vertex 0 11.8187 8.95
      vertex 0 11.9401 9.19636
      vertex 0 20 0
    endloop
  endfacet
  facet normal 0 -0.897005 0.442021
    outer loop
      vertex 0 11.8187 8.95
      vertex 7 11.8187 8.95
      vertex 7 11.9401 9.19636
    endloop
  endfacet
  facet normal 0 -0.897005 0.442021
    outer loop
      vertex 0 11.8187 8.95
      vertex 7 11.9401 9.19636
      vertex 0 11.9401 9.19636
    endloop
  endfacet
  facet normal 0 -0.897033 -0.441964
    outer loop
      vertex 0 11.8187 11.05
      vertex 0 11.9401 10.8036
      vertex 7 11.8187 11.05
    endloop
  endfacet
  facet normal -1 0 0
    outer loop
      vertex 0 11.8187 11.05
      vertex 0 20 20
      vertex 0 11.9401 10.8036
    endloop
  endfacet
  facet normal 0 -0.831322 -0.555792
    outer loop
      vertex 0 11.8187 11.05
      vertex 7 11.8187 11.05
      vertex 7 11.666 11.2784
    endloop
  endfacet
  facet normal -1 0 0
    outer loop
      vertex 0 11.9401 9.19636
      vertex 0 12.0284 9.45648
      vertex 0 20 0
    endloop
  endfacet
  facet normal 0 -0.946929 0.321443
    outer loop
      vertex 0 11.9401 9.19636
      vertex 7 11.9401 9.19636
      vertex 7 12.0284 9.45648
    endloop
  endfacet
  facet normal 0 -0.946929 0.321443
    outer loop
      vertex 0 11.9401 9.19636
      vertex 7 12.0284 9.45648
      vertex 0 12.0284 9.45648
    endloop
  endfacet
  facet normal 0 -0.946921 -0.321465
    outer loop
      vertex 0 11.9401 10.8036
      vertex 0 12.0284 10.5435
      vertex 7 11.9401 10.8036
    endloop
  endfacet
  facet normal -1 0 0
    outer loop
      vertex 0 11.9401 10.8036
      vertex 0 20 20
      vertex 0 12.0284 10.5435
    endloop
  endfacet
  facet normal 0 -0.897033 -0.441964
    outer loop
      vertex 0 11.9401 10.8036
      vertex 7 11.9401 10.8036
      vertex 7 11.8187 11.05
    endloop
  endfacet
  facet normal -1 0 0
    outer loop
      vertex 0 12.0284 9.45648
      vertex 0 12.082 9.72589
      vertex 0 20 0
    endloop
  endfacet
  facet normal 0 -0.980778 0.195129
    outer loop
      vertex 0 12.0284 9.45648
      vertex 7 12.0284 9.45648
      vertex 7 12.082 9.72589
    endloop
  endfacet
  facet normal 0 -0.980778 0.195129
    outer loop
      vertex 0 12.0284 9.45648
      vertex 7 12.082 9.72589
      vertex 0 12.082 9.72589
    endloop
  endfacet
  facet normal 0 -0.980776 -0.195136
    outer loop
      vertex 0 12.0284 10.5435
      vertex 0 12.082 10.2741
      vertex 7 12.0284 10.5435
    endloop
  endfacet
  facet normal -1 0 0
    outer loop
      vertex 0 12.0284 10.5435
      vertex 0 20 20
      vertex 0 12.082 10.2741
    endloop
  endfacet
  facet normal 0 -0.946921 -0.321465
    outer loop
      vertex 0 12.0284 10.5435
      vertex 7 12.0284 10.5435
      vertex 7 11.9401 10.8036
    endloop
  endfacet
  facet normal -1 0 0
    outer loop
      vertex 0 12.082 9.72589
      vertex 0 12.1 10
      vertex 0 20 0
    endloop
  endfacet
  facet normal 0 -0.997851 0.0655259
    outer loop
      vertex 0 12.082 9.72589
      vertex 7 12.082 9.72589
      vertex 7 12.1 10
    endloop
  endfacet
  facet normal 0 -0.997851 0.0655259
    outer loop
      vertex 0 12.082 9.72589
      vertex 7 12.1 10
      vertex 0 12.1 10
    endloop
  endfacet
  facet normal 0 -0.997851 -0.0655283
    outer loop
      vertex 0 12.082 10.2741
      vertex 0 12.1 10
      vertex 7 12.082 10.2741
    endloop
  endfacet
  facet normal -1 0 0
    outer loop
      vertex 0 12.082 10.2741
      vertex 0 20 20
      vertex 0 12.1 10
    endloop
  endfacet
  facet normal 0 -0.980776 -0.195136
    outer loop
      vertex 0 12.082 10.2741
      vertex 7 12.082 10.2741
      vertex 7 12.0284 10.5435
    endloop
  endfacet
  facet normal -1 0 0
    outer loop
      vertex 0 12.1 10
      vertex 0 20 20
      vertex 0 20 0
    endloop
  endfacet
  facet normal 0 -0.997851 -0.0655283
    outer loop
      vertex 0 12.1 10
      vertex 7 12.1 10
      vertex 7 12.082 10.2741
    endloop
  endfacet
  facet normal 0 1 0
    outer loop
      vertex 0 20 0
      vertex 0 20 20
      vertex 20 20 0
    endloop
  endfacet
  facet normal 0 0 -1
    outer loop
      vertex 0 20 0
      vertex 7.91796 10.2741 0
      vertex 7.9 10 0
    endloop
  endfacet
  facet normal 0 0 -1
    outer loop
      vertex 0 20 0
      vertex 7.97156 10.5435 0
      vertex 7.91796 10.2741 0
    endloop
  endfacet
  facet normal 0 0 -1
    outer loop
      vertex 0 20 0
      vertex 8.05985 10.8036 0
      vertex 7.97156 10.5435 0
    endloop
  endfacet
  facet normal 0 0 -1
    outer loop
      vertex 0 20 0
      vertex 8.18135 11.05 0
      vertex 8.05985 10.8036 0
    endloop
  endfacet
  facet normal 0 0 -1
    outer loop
      vertex 0 20 0
      vertex 8.33396 11.2784 0
      vertex 8.18135 11.05 0
    endloop
  endfacet
  facet normal 0 0 -1
    outer loop
      vertex 0 20 0
      vertex 8.51508 11.4849 0
      vertex 8.33396 11.2784 0
    endloop
  endfacet
  facet normal 0 0 -1
    outer loop
      vertex 0 20 0
      vertex 8.7216 11.666 0
      vertex 8.51508 11.4849 0
    endloop
  endfacet
  facet normal 0 0 -1
    outer loop
      vertex 0 20 0
      vertex 8.95 11.8187 0
      vertex 8.7216 11.666 0
    endloop
  endfacet
  facet normal 0 0 -1
    outer loop
      vertex 0 20 0
      vertex 9.19636 11.9401 0
      vertex 8.95 11.8187 0
    endloop
  endfacet
  facet normal 0 0 -1
    outer loop
      vertex 0 20 0
      vertex 9.45648 12.0284 0
      vertex 9.19636 11.9401 0
    endloop
  endfacet
  facet normal 0 0 -1
    outer loop
      vertex 0 20 0
      vertex 9.72589 12.082 0
      vertex 9.45648 12.0284 0
    endloop
  endfacet
  facet normal 0 0 -1
    outer loop
      vertex 0 20 0
      vertex 10 12.1 0
      vertex 9.72589 12.082 0
    endloop
  endfacet
  facet normal 0 0 -1
    outer loop
      vertex 0 20 0
      vertex 20 20 0
      vertex 10 12.1 0
    endloop
  endfacet
  facet normal -0 0 1
    outer loop
      vertex 0 20 20
      vertex 20 0 20
      vertex 20 20 20
    endloop
  endfacet
  facet normal 0 1 -0
    outer loop
      vertex 0 20 20
      vertex 20 20 20
      vertex 20 20 0
    endloop
  endfacet
  facet normal -1 0 -0
    outer loop
      vertex 7 7.9 10
      vertex 7 7.91796 10.2741
      vertex 7 7.91796 9.72589
    endloop
  endfacet
  facet normal -1 0 0
    outer loop
      vertex 7 7.91796 9.72589
      vertex 7 7.91796 10.2741
      vertex 7 7.97156 10.5435
    endloop
  endfacet
  facet normal -1 0 0
    outer loop
      vertex 7 7.91796 9.72589
      vertex 7 7.97156 10.5435
      vertex 7 7.97156 9.45648
    endloop
  endfacet
  facet normal -1 0 0
    outer loop
      vertex 7 7.97156 9.45648
      vertex 7 7.97156 10.5435
      vertex 7 8.05985 10.8036
    endloop
  endfacet
  facet normal -1 0 0
    outer loop
      vertex 7 7.97156 9.45648
      vertex 7 8.05985 10.8036
      vertex 7 8.05985 9.19636
    endloop
  endfacet
  facet normal -1 0 0
    outer loop
      vertex 7 8.05985 9.19636
      vertex 7 8.05985 10.8036
      vertex 7 8.18135 11.05
    endloop
  endfacet
  facet normal -1 0 0
    outer loop
      vertex 7 8.05985 9.19636
      vertex 7 8.18135 11.05
      vertex 7 8.18135 8.95
    endloop
  endfacet
  facet normal -1 0 0
    outer loop
      vertex 7 8.18135 8.95
      vertex 7 8.18135 11.05
      vertex 7 8.33396 11.2784
    endloop
  endfacet
  facet normal -1 0 0
    outer loop
      vertex 7 8.18135 8.95
      vertex 7 8.33396 11.2784
      vertex 7 8.33396 8.7216
    endloop
  endfacet
  facet normal -1 0 0
    outer loop
      vertex 7 8.33396 8.7216
      vertex 7 8.33396 11.2784
      vertex 7 8.51508 11.4849
    endloop
  endfacet
  facet normal -1 0 0
    outer loop
      vertex 7 8.33396 8.7216
      vertex 7 8.51508 11.4849
      vertex 7 8.51508 8.51508
    endloop
  endfacet
  facet normal -1 0 0
    outer loop
      vertex 7 8.51508 8.51508
      vertex 7 8.51508 11.4849
      vertex 7 8.7216 11.666
    endloop
  endfacet
  facet normal -1 0 0
    outer loop
      vertex 7 8.51508 8.51508
      vertex 7 8.7216 11.666
      vertex 7 8.7216 8.33396
    endloop
  endfacet
  facet normal -1 0 0
    outer loop
      vertex 7 8.7216 8.33396
      vertex 7 8.7216 11.666
      vertex 7 8.95 11.8187
    endloop
  endfacet
  facet normal -1 0 0
    outer loop
      vertex 7 8.7216 8.33396
      vertex 7 8.95 11.8187
      vertex 7 8.95 8.18135
    endloop
  endfacet
  facet normal -1 0 0
    outer loop
      vertex 7 8.95 8.18135
      vertex 7 8.95 11.8187
      vertex 7 9.19636 11.9401
    endloop
  endfacet
  facet normal -1 0 0
    outer loop
      vertex 7 8.95 8.18135
      vertex 7 9.19636 11.9401
      vertex 7 9.19636 8.05985
    endloop
  endfacet
  facet normal -1 0 0
    outer loop
      vertex 7 9.19636 8.05985
      vertex 7 9.19636 11.9401
      vertex 7 9.45648 12.0284
    endloop
  endfacet
  facet normal -1 0 0
    outer loop
      vertex 7 9.19636 8.05985
      vertex 7 9.45648 12.0284
      vertex 7 9.45648 7.97156
    endloop
  endfacet
  facet normal -1 0 0
    outer loop
      vertex 7 9.45648 7.97156
      vertex 7 9.45648 12.0284
      vertex 7 9.72589 12.082
    endloop
  endfacet
  facet normal -1 0 0
    outer loop
      vertex 7 9.45648 7.97156
      vertex 7 9.72589 12.082
      vertex 7 9.72589 7.91796
    endloop
  endfacet
  facet normal -1 0 0
    outer loop
      vertex 7 9.72589 7.91796
      vertex 7 9.72589 12.082
      vertex 7 10 12.1
    endloop
  endfacet
  facet normal -1 0 0
    outer loop
      vertex 7 9.72589 7.91796
      vertex 7 10 12.1
      vertex 7 10 7.9
    endloop
  endfacet
  facet normal -1 0 0
    outer loop
      vertex 7 10 7.9
      vertex 7 10 12.1
      vertex 7 10.2741 12.082
    endloop
  endfacet
  facet normal -1 0 0
    outer loop
      vertex 7 10 7.9
      vertex 7 10.2741 12.082
      vertex 7 10.2741 7.91796
    endloop
  endfacet
  facet normal -1 0 0
    outer loop
      vertex 7 10.2741 7.91796
      vertex 7 10.2741 12.082
      vertex 7 10.5435 12.0284
    endloop
  endfacet
  facet normal -1 0 0
    outer loop
      vertex 7 10.2741 7.91796
      vertex 7 10.5435 12.0284
      vertex 7 10.5435 7.97156
    endloop
  endfacet
  facet normal -1 0 0
    outer loop
      vertex 7 10.5435 7.97156
      vertex 7 10.5435 12.0284
      vertex 7 10.8036 11.9401
    endloop
  endfacet
  facet normal -1 0 0
    outer loop
      vertex 7 10.5435 7.97156
      vertex 7 10.8036 11.9401
      vertex 7 10.8036 8.05985
    endloop
  endfacet
  facet normal -1 0 0
    outer loop
      vertex 7 10.8036 8.05985
      vertex 7 10.8036 11.9401
      vertex 7 11.05 11.8187
    endloop
  endfacet
  facet normal -1 0 0
    outer loop
      vertex 7 10.8036 8.05985
      vertex 7 11.05 11.8187
      vertex 7 11.05 8.18135
    endloop
  endfacet
  facet normal -1 0 0
    outer loop
      vertex 7 11.05 8.18135
      vertex 7 11.05 11.8187
      vertex 7 11.2784 11.666
    endloop
  endfacet
  facet normal -1 0 0
    outer loop
      vertex 7 11.05 8.18135
      vertex 7 11.2784 11.666
      vertex 7 11.2784 8.33396
    endloop
  endfacet
  facet normal -1 0 0
    outer loop
      vertex 7 11.2784 8.33396
      vertex 7 11.2784 11.666
      vertex 7 11.4849 11.4849
    endloop
  endfacet
  facet normal -1 0 0
    outer loop
      vertex 7 11.2784 8.33396
      vertex 7 11.4849 11.4849
      vertex 7 11.4849 8.51508
    endloop
  endfacet
  facet normal -1 0 0
    outer loop
      vertex 7 11.4849 8.51508
      vertex 7 11.4849 11.4849
      vertex 7 11.666 11.2784
    endloop
  endfacet
  facet normal -1 0 0
    outer loop
      vertex 7 11.4849 8.51508
      vertex 7 11.666 11.2784
      vertex 7 11.666 8.7216
    endloop
  endfacet
  facet normal -1 0 0
    outer loop
      vertex 7 11.666 8.7216
      vertex 7 11.666 11.2784
      vertex 7 11.8187 11.05
    endloop
  endfacet
  facet normal -1 0 0
    outer loop
      vertex 7 11.666 8.7216
      vertex 7 11.8187 11.05
      vertex 7 11.8187 8.95
    endloop
  endfacet
  facet normal -1 0 0
    outer loop
      vertex 7 11.8187 8.95
      vertex 7 11.8187 11.05
      vertex 7 11.9401 10.8036
    endloop
  endfacet
  facet normal -1 0 0
    outer loop
      vertex 7 11.8187 8.95
      vertex 7 11.9401 10.8036
      vertex 7 11.9401 9.19636
    endloop
  endfacet
  facet normal -1 0 0
    outer loop
      vertex 7 11.9401 9.19636
      vertex 7 11.9401 10.8036
      vertex 7 12.0284 10.5435
    endloop
  endfacet
  facet normal -1 0 0
    outer loop
      vertex 7 11.9401 9.19636
      vertex 7 12.0284 10.5435
      vertex 7 12.0284 9.45648
    endloop
  endfacet
  facet normal -1 0 0
    outer loop
      vertex 7 12.0284 9.45648
      vertex 7 12.0284 10.5435
      vertex 7 12.082 10.2741
    endloop
  endfacet
  facet normal -1 0 0
    outer loop
      vertex 7 12.0284 9.45648
      vertex 7 12.082 10.2741
      vertex 7 12.082 9.72589
    endloop
  endfacet
  facet normal -1 0 0
    outer loop
      vertex 7 12.082 9.72589
      vertex 7 12.082 10.2741
      vertex 7 12.1 10
    endloop
  endfacet
  facet normal 0.99786 0 -0.0653833
    outer loop
      vertex 7.9 0 10
      vertex 7.9 7 10
      vertex 7.91796 0 10.2741
    endloop
  endfacet
  facet normal 0.99786 0 0.065381
    outer loop
      vertex 7.9 0 10
      vertex 7.91796 0 9.72589
      vertex 7.91796 7 9.72589
    endloop
  endfacet
  facet normal 0.99786 -0 0.065381
    outer loop
      vertex 7.9 0 10
      vertex 7.91796 7 9.72589
      vertex 7.9 7 10
    endloop
  endfacet
  facet normal 0 -1 0
    outer loop
      vertex 7.9 7 10
      vertex 7.91796 7 9.72589
      vertex 12.1 7 10
    endloop
  endfacet
  facet normal 0.99786 0 -0.0653833
    outer loop
      vertex 7.9 7 10
      vertex 7.91796 7 10.2741
      vertex 7.91796 0 10.2741
    endloop
  endfacet
  facet normal 0 -1 0
    outer loop
      vertex 7.9 7 10
      vertex 12.082 7 10.2741
      vertex 7.91796 7 10.2741
    endloop
  endfacet
  facet normal 0 -1 0
    outer loop
      vertex 7.9 7 10
      vertex 12.1 7 10
      vertex 12.082 7 10.2741
    endloop
  endfacet
  facet normal 0.99786 0.065381 0
    outer loop
      vertex 7.9 10 0
      vertex 7.9 10 7
      vertex 7.91796 9.72589 7
    endloop
  endfacet
  facet normal 0.99786 0.065381 0
    outer loop
      vertex 7.9 10 0
      vertex 7.91796 9.72589 7
      vertex 7.91796 9.72589 0
    endloop
  endfacet
  facet normal 0.99786 -0.0653833 0
    outer loop
      vertex 7.9 10 0
      vertex 7.91796 10.2741 0
      vertex 7.9 10 7
    endloop
  endfacet
  facet normal 0.99786 -0.0653833 0
    outer loop
      vertex 7.9 10 7
      vertex 7.91796 10.2741 0
      vertex 7.91796 10.2741 7
    endloop
  endfacet
  facet normal 0 -0 -1
    outer loop
      vertex 7.9 10 7
      vertex 7.91796 10.2741 7
      vertex 7.91796 9.72589 7
    endloop
  endfacet
  facet normal 0.980778 0 0.195129
    outer loop
      vertex 7.91796 0 9.72589
      vertex 7.97156 0 9.45648
      vertex 7.97156 7 9.45648
    endloop
  endfacet
  facet normal 0.980778 -0 0.195129
    outer loop
      vertex 7.91796 0 9.72589
      vertex 7.97156 7 9.45648
      vertex 7.91796 7 9.72589
    endloop
  endfacet
  facet normal 0.980776 0 -0.195136
    outer loop
      vertex 7.91796 0 10.2741
      vertex 7.91796 7 10.2741
      vertex 7.97156 0 10.5435
    endloop
  endfacet
  facet normal 0 -1 0
    outer loop
      vertex 7.91796 7 9.72589
      vertex 7.97156 7 9.45648
      vertex 12.082 7 9.72589
    endloop
  endfacet
  facet normal 0 -1 0
    outer loop
      vertex 7.91796 7 9.72589
      vertex 12.082 7 9.72589
      vertex 12.1 7 10
    endloop
  endfacet
  facet normal 0.980776 0 -0.195136
    outer loop
      vertex 7.91796 7 10.2741
      vertex 7.97156 7 10.5435
      vertex 7.97156 0 10.5435
    endloop
  endfacet
  facet normal 0 -1 0
    outer loop
      vertex 7.91796 7 10.2741
      vertex 12.0284 7 10.5435
      vertex 7.97156 7 10.5435
    endloop
  endfacet
  facet normal 0 -1 0
    outer loop
      vertex 7.91796 7 10.2741
      vertex 12.082 7 10.2741
      vertex 12.0284 7 10.5435
    endloop
  endfacet
  facet normal 0.980778 0.195129 0
    outer loop
      vertex 7.91796 9.72589 0
      vertex 7.91796 9.72589 7
      vertex 7.97156 9.45648 7
    endloop
  endfacet
  facet normal 0.980778 0.195129 0
    outer loop
      vertex 7.91796 9.72589 0
      vertex 7.97156 9.45648 7
      vertex 7.97156 9.45648 0
    endloop
  endfacet
  facet normal 0 0 -1
    outer loop
      vertex 7.91796 9.72589 7
      vertex 7.91796 10.2741 7
      vertex 7.97156 10.5435 7
    endloop
  endfacet
  facet normal 0 0 -1
    outer loop
      vertex 7.91796 9.72589 7
      vertex 7.97156 10.5435 7
      vertex 7.97156 9.45648 7
    endloop
  endfacet
  facet normal 0.980776 -0.195136 0
    outer loop
      vertex 7.91796 10.2741 0
      vertex 7.97156 10.5435 0
      vertex 7.91796 10.2741 7
    endloop
  endfacet
  facet normal 0.980776 -0.195136 0
    outer loop
      vertex 7.91796 10.2741 7
      vertex 7.97156 10.5435 0
      vertex 7.97156 10.5435 7
    endloop
  endfacet
  facet normal 0.94694 0 0.321411
    outer loop
      vertex 7.97156 0 9.45648
      vertex 8.05985 0 9.19636
      vertex 8.05985 7 9.19636
    endloop
  endfacet
  facet normal 0.94694 -0 0.321411
    outer loop
      vertex 7.97156 0 9.45648
      vertex 8.05985 7 9.19636
      vertex 7.97156 7 9.45648
    endloop
  endfacet
  facet normal 0.946932 0 -0.321433
    outer loop
      vertex 7.97156 0 10.5435
      vertex 7.97156 7 10.5435
      vertex 8.05985 0 10.8036
    endloop
  endfacet
  facet normal 0 -1 0
    outer loop
      vertex 7.97156 7 9.45648
      vertex 8.05985 7 9.19636
      vertex 12.0284 7 9.45648
    endloop
  endfacet
  facet normal 0 -1 0
    outer loop
      vertex 7.97156 7 9.45648
      vertex 12.0284 7 9.45648
      vertex 12.082 7 9.72589
    endloop
  endfacet
  facet normal 0.946932 0 -0.321433
    outer loop
      vertex 7.97156 7 10.5435
      vertex 8.05985 7 10.8036
      vertex 8.05985 0 10.8036
    endloop
  endfacet
  facet normal 0 -1 0
    outer loop
      vertex 7.97156 7 10.5435
      vertex 11.9401 7 10.8036
      vertex 8.05985 7 10.8036
    endloop
  endfacet
  facet normal 0 -1 0
    outer loop
      vertex 7.97156 7 10.5435
      vertex 12.0284 7 10.5435
      vertex 11.9401 7 10.8036
    endloop
  endfacet
  facet normal 0.94694 0.321411 0
    outer loop
      vertex 7.97156 9.45648 0
      vertex 7.97156 9.45648 7
      vertex 8.05985 9.19636 7
    endloop
  endfacet
  facet normal 0.94694 0.321411 0
    outer loop
      vertex 7.97156 9.45648 0
      vertex 8.05985 9.19636 7
      vertex 8.05985 9.19636 0
    endloop
  endfacet
  facet normal 0 0 -1
    outer loop
      vertex 7.97156 9.45648 7
      vertex 7.97156 10.5435 7
      vertex 8.05985 10.8036 7
    endloop
  endfacet
  facet normal 0 0 -1
    outer loop
      vertex 7.97156 9.45648 7
      vertex 8.05985 10.8036 7
      vertex 8.05985 9.19636 7
    endloop
  endfacet
  facet normal 0.946932 -0.321433 0
    outer loop
      vertex 7.97156 10.5435 0
      vertex 8.05985 10.8036 0
      vertex 7.97156 10.5435 7
    endloop
  endfacet
  facet normal 0.946932 -0.321433 0
    outer loop
      vertex 7.97156 10.5435 7
      vertex 8.05985 10.8036 0
      vertex 8.05985 10.8036 7
    endloop
  endfacet
  facet normal 0.89686 0 0.442314
    outer loop
      vertex 8.05985 0 9.19636
      vertex 8.18135 0 8.95
      vertex 8.18135 7 8.95
    endloop
  endfacet
  facet normal 0.89686 -0 0.442314
    outer loop
      vertex 8.05985 0 9.19636
      vertex 8.18135 7 8.95
      vertex 8.05985 7 9.19636
    endloop
  endfacet
  facet normal 0.896889 0 -0.442256
    outer loop
      vertex 8.05985 0 10.8036
      vertex 8.05985 7 10.8036
      vertex 8.18135 0 11.05
    endloop
  endfacet
  facet normal 0 -1 0
    outer loop
      vertex 8.05985 7 9.19636
      vertex 8.18135 7 8.95
      vertex 11.9401 7 9.19636
    endloop
  endfacet
  facet normal 0 -1 0
    outer loop
      vertex 8.05985 7 9.19636
      vertex 11.9401 7 9.19636
      vertex 12.0284 7 9.45648
    endloop
  endfacet
  facet normal 0.896889 0 -0.442256
    outer loop
      vertex 8.05985 7 10.8036
      vertex 8.18135 7 11.05
      vertex 8.18135 0 11.05
    endloop
  endfacet
  facet normal 0 -1 0
    outer loop
      vertex 8.05985 7 10.8036
      vertex 11.8187 7 11.05
      vertex 8.18135 7 11.05
    endloop
  endfacet
  facet normal 0 -1 0
    outer loop
      vertex 8.05985 7 10.8036
      vertex 11.9401 7 10.8036
      vertex 11.8187 7 11.05
    endloop
  endfacet
  facet normal 0.89686 0.442314 0
    outer loop
      vertex 8.05985 9.19636 0
      vertex 8.05985 9.19636 7
      vertex 8.18135 8.95 7
    endloop
  endfacet
  facet normal 0.89686 0.442314 0
    outer loop
      vertex 8.05985 9.19636 0
      vertex 8.18135 8.95 7
      vertex 8.18135 8.95 0
    endloop
  endfacet
  facet normal 0 0 -1
    outer loop
      vertex 8.05985 9.19636 7
      vertex 8.05985 10.8036 7
      vertex 8.18135 11.05 7
    endloop
  endfacet
  facet normal 0 0 -1
    outer loop
      vertex 8.05985 9.19636 7
      vertex 8.18135 11.05 7
      vertex 8.18135 8.95 7
    endloop
  endfacet
  facet normal 0.896889 -0.442256 0
    outer loop
      vertex 8.05985 10.8036 0
      vertex 8.18135 11.05 0
      vertex 8.05985 10.8036 7
    endloop
  endfacet
  facet normal 0.896889 -0.442256 0
    outer loop
      vertex 8.05985 10.8036 7
      vertex 8.18135 11.05 0
      vertex 8.18135 11.05 7
    endloop
  endfacet
  facet normal 0.831473 0 0.555565
    outer loop
      vertex 8.18135 0 8.95
      vertex 8.33396 0 8.7216
      vertex 8.33396 7 8.7216
    endloop
  endfacet
  facet normal 0.831473 -0 0.555565
    outer loop
      vertex 8.18135 0 8.95
      vertex 8.33396 7 8.7216
      vertex 8.18135 7 8.95
    endloop
  endfacet
  facet normal 0.831473 0 -0.555565
    outer loop
      vertex 8.18135 0 11.05
      vertex 8.18135 7 11.05
      vertex 8.33396 0 11.2784
    endloop
  endfacet
  facet normal 0 -1 0
    outer loop
      vertex 8.18135 7 8.95
      vertex 8.33396 7 8.7216
      vertex 11.8187 7 8.95
    endloop
  endfacet
  facet normal 0 -1 0
    outer loop
      vertex 8.18135 7 8.95
      vertex 11.8187 7 8.95
      vertex 11.9401 7 9.19636
    endloop
  endfacet
  facet normal 0.831473 0 -0.555565
    outer loop
      vertex 8.18135 7 11.05
      vertex 8.33396 7 11.2784
      vertex 8.33396 0 11.2784
    endloop
  endfacet
  facet normal 0 -1 0
    outer loop
      vertex 8.18135 7 11.05
      vertex 11.666 7 11.2784
      vertex 8.33396 7 11.2784
    endloop
  endfacet
  facet normal 0 -1 0
    outer loop
      vertex 8.18135 7 11.05
      vertex 11.8187 7 11.05
      vertex 11.666 7 11.2784
    endloop
  endfacet
  facet normal 0.831473 0.555565 0
    outer loop
      vertex 8.18135 8.95 0
      vertex 8.18135 8.95 7
      vertex 8.33396 8.7216 7
    endloop
  endfacet
  facet normal 0.831473 0.555565 0
    outer loop
      vertex 8.18135 8.95 0
      vertex 8.33396 8.7216 7
      vertex 8.33396 8.7216 0
    endloop
  endfacet
  facet normal 0 0 -1
    outer loop
      vertex 8.18135 8.95 7
      vertex 8.18135 11.05 7
      vertex 8.33396 11.2784 7
    endloop
  endfacet
  facet normal 0 0 -1
    outer loop
      vertex 8.18135 8.95 7
      vertex 8.33396 11.2784 7
      vertex 8.33396 8.7216 7
    endloop
  endfacet
  facet normal 0.831473 -0.555565 0
    outer loop
      vertex 8.18135 11.05 0
      vertex 8.33396 11.2784 0
      vertex 8.18135 11.05 7
    endloop
  endfacet
  facet normal 0.831473 -0.555565 0
    outer loop
      vertex 8.18135 11.05 7
      vertex 8.33396 11.2784 0
      vertex 8.33396 11.2784 7
    endloop
  endfacet
  facet normal 0.751827 0 0.65936
    outer loop
      vertex 8.33396 0 8.7216
      vertex 8.51508 0 8.51508
      vertex 8.51508 7 8.51508
    endloop
  endfacet
  facet normal 0.751827 -0 0.65936
    outer loop
      vertex 8.33396 0 8.7216
      vertex 8.51508 7 8.51508
      vertex 8.33396 7 8.7216
    endloop
  endfacet
  facet normal 0.751796 0 -0.659396
    outer loop
      vertex 8.33396 0 11.2784
      vertex 8.33396 7 11.2784
      vertex 8.51508 0 11.4849
    endloop
  endfacet
  facet normal 0 -1 0
    outer loop
      vertex 8.33396 7 8.7216
      vertex 8.51508 7 8.51508
      vertex 11.666 7 8.7216
    endloop
  endfacet
  facet normal 0 -1 0
    outer loop
      vertex 8.33396 7 8.7216
      vertex 11.666 7 8.7216
      vertex 11.8187 7 8.95
    endloop
  endfacet
  facet normal 0.751796 0 -0.659396
    outer loop
      vertex 8.33396 7 11.2784
      vertex 8.51508 7 11.4849
      vertex 8.51508 0 11.4849
    endloop
  endfacet
  facet normal 0 -1 0
    outer loop
      vertex 8.33396 7 11.2784
      vertex 11.4849 7 11.4849
      vertex 8.51508 7 11.4849
    endloop
  endfacet
  facet normal 0 -1 0
    outer loop
      vertex 8.33396 7 11.2784
      vertex 11.666 7 11.2784
      vertex 11.4849 7 11.4849
    endloop
  endfacet
  facet normal 0.751827 0.65936 0
    outer loop
      vertex 8.33396 8.7216 0
      vertex 8.33396 8.7216 7
      vertex 8.51508 8.51508 7
    endloop
  endfacet
  facet normal 0.751827 0.65936 0
    outer loop
      vertex 8.33396 8.7216 0
      vertex 8.51508 8.51508 7
      vertex 8.51508 8.51508 0
    endloop
  endfacet
  facet normal 0 0 -1
    outer loop
      vertex 8.33396 8.7216 7
      vertex 8.33396 11.2784 7
      vertex 8.51508 11.4849 7
    endloop
  endfacet
  facet normal 0 0 -1
    outer loop
      vertex 8.33396 8.7216 7
      vertex 8.51508 11.4849 7
      vertex 8.51508 8.51508 7
    endloop
  endfacet
  facet normal 0.751796 -0.659396 0
    outer loop
      vertex 8.33396 11.2784 0
      vertex 8.51508 11.4849 0
      vertex 8.33396 11.2784 7
    endloop
  endfacet
  facet normal 0.751796 -0.659396 0
    outer loop
      vertex 8.33396 11.2784 7
      vertex 8.51508 11.4849 0
      vertex 8.51508 11.4849 7
    endloop
  endfacet
  facet normal 0.65936 0 0.751827
    outer loop
      vertex 8.51508 0 8.51508
      vertex 8.7216 0 8.33396
      vertex 8.51508 7 8.51508
    endloop
  endfacet
  facet normal 0.659319 0 -0.751864
    outer loop
      vertex 8.51508 0 11.4849
      vertex 8.51508 7 11.4849
      vertex 8.7216 7 11.666
    endloop
  endfacet
  facet normal 0.659319 0 -0.751864
    outer loop
      vertex 8.51508 0 11.4849
      vertex 8.7216 7 11.666
      vertex 8.7216 0 11.666
    endloop
  endfacet
  facet normal 0.65936 0 0.751827
    outer loop
      vertex 8.51508 7 8.51508
      vertex 8.7216 0 8.33396
      vertex 8.7216 7 8.33396
    endloop
  endfacet
  facet normal 0 -1 0
    outer loop
      vertex 8.51508 7 8.51508
      vertex 8.7216 7 8.33396
      vertex 11.4849 7 8.51508
    endloop
  endfacet
  facet normal 0 -1 0
    outer loop
      vertex 8.51508 7 8.51508
      vertex 11.4849 7 8.51508
      vertex 11.666 7 8.7216
    endloop
  endfacet
  facet normal 0 -1 0
    outer loop
      vertex 8.51508 7 11.4849
      vertex 11.2784 7 11.666
      vertex 8.7216 7 11.666
    endloop
  endfacet
  facet normal 0 -1 0
    outer loop
      vertex 8.51508 7 11.4849
      vertex 11.4849 7 11.4849
      vertex 11.2784 7 11.666
    endloop
  endfacet
  facet normal 0.65936 0.751827 0
    outer loop
      vertex 8.51508 8.51508 0
      vertex 8.51508 8.51508 7
      vertex 8.7216 8.33396 0
    endloop
  endfacet
  facet normal 0 0 -1
    outer loop
      vertex 8.51508 8.51508 7
      vertex 8.51508 11.4849 7
      vertex 8.7216 11.666 7
    endloop
  endfacet
  facet normal 0.65936 0.751827 -0
    outer loop
      vertex 8.51508 8.51508 7
      vertex 8.7216 8.33396 7
      vertex 8.7216 8.33396 0
    endloop
  endfacet
  facet normal 0 0 -1
    outer loop
      vertex 8.51508 8.51508 7
      vertex 8.7216 11.666 7
      vertex 8.7216 8.33396 7
    endloop
  endfacet
  facet normal 0.659319 -0.751864 0
    outer loop
      vertex 8.51508 11.4849 0
      vertex 8.7216 11.666 0
      vertex 8.7216 11.666 7
    endloop
  endfacet
  facet normal 0.659319 -0.751864 0
    outer loop
      vertex 8.51508 11.4849 0
      vertex 8.7216 11.666 7
      vertex 8.51508 11.4849 7
    endloop
  endfacet
  facet normal 0.555565 0 0.831473
    outer loop
      vertex 8.7216 0 8.33396
      vertex 8.95 0 8.18135
      vertex 8.7216 7 8.33396
    endloop
  endfacet
  facet normal 0.555792 0 -0.831322
    outer loop
      vertex 8.7216 0 11.666
      vertex 8.7216 7 11.666
      vertex 8.95 7 11.8187
    endloop
  endfacet
  facet normal 0.555792 0 -0.831322
    outer loop
      vertex 8.7216 0 11.666
      vertex 8.95 7 11.8187
      vertex 8.95 0 11.8187
    endloop
  endfacet
  facet normal 0.555565 0 0.831473
    outer loop
      vertex 8.7216 7 8.33396
      vertex 8.95 0 8.18135
      vertex 8.95 7 8.18135
    endloop
  endfacet
  facet normal 0 -1 0
    outer loop
      vertex 8.7216 7 8.33396
      vertex 8.95 7 8.18135
      vertex 11.2784 7 8.33396
    endloop
  endfacet
  facet normal 0 -1 0
    outer loop
      vertex 8.7216 7 8.33396
      vertex 11.2784 7 8.33396
      vertex 11.4849 7 8.51508
    endloop
  endfacet
  facet normal 0 -1 0
    outer loop
      vertex 8.7216 7 11.666
      vertex 11.05 7 11.8187
      vertex 8.95 7 11.8187
    endloop
  endfacet
  facet normal 0 -1 0
    outer loop
      vertex 8.7216 7 11.666
      vertex 11.2784 7 11.666
      vertex 11.05 7 11.8187
    endloop
  endfacet
  facet normal 0.555565 0.831473 0
    outer loop
      vertex 8.7216 8.33396 0
      vertex 8.7216 8.33396 7
      vertex 8.95 8.18135 0
    endloop
  endfacet
  facet normal 0 0 -1
    outer loop
      vertex 8.7216 8.33396 7
      vertex 8.7216 11.666 7
      vertex 8.95 11.8187 7
    endloop
  endfacet
  facet normal 0.555565 0.831473 -0
    outer loop
      vertex 8.7216 8.33396 7
      vertex 8.95 8.18135 7
      vertex 8.95 8.18135 0
    endloop
  endfacet
  facet normal 0 0 -1
    outer loop
      vertex 8.7216 8.33396 7
      vertex 8.95 11.8187 7
      vertex 8.95 8.18135 7
    endloop
  endfacet
  facet normal 0.555792 -0.831322 0
    outer loop
      vertex 8.7216 11.666 0
      vertex 8.95 11.8187 0
      vertex 8.95 11.8187 7
    endloop
  endfacet
  facet normal 0.555792 -0.831322 0
    outer loop
      vertex 8.7216 11.666 0
      vertex 8.95 11.8187 7
      vertex 8.7216 11.666 7
    endloop
  endfacet
  facet normal 0.442314 0 0.89686
    outer loop
      vertex 8.95 0 8.18135
      vertex 9.19636 0 8.05985
      vertex 8.95 7 8.18135
    endloop
  endfacet
  facet normal 0.442021 0 -0.897005
    outer loop
      vertex 8.95 0 11.8187
      vertex 8.95 7 11.8187
      vertex 9.19636 7 11.9401
    endloop
  endfacet
  facet normal 0.442021 0 -0.897005
    outer loop
      vertex 8.95 0 11.8187
      vertex 9.19636 7 11.9401
      vertex 9.19636 0 11.9401
    endloop
  endfacet
  facet normal 0.442314 0 0.89686
    outer loop
      vertex 8.95 7 8.18135
      vertex 9.19636 0 8.05985
      vertex 9.19636 7 8.05985
    endloop
  endfacet
  facet normal 0 -1 0
    outer loop
      vertex 8.95 7 8.18135
      vertex 9.19636 7 8.05985
      vertex 11.05 7 8.18135
    endloop
  endfacet
  facet normal 0 -1 0
    outer loop
      vertex 8.95 7 8.18135
      vertex 11.05 7 8.18135
      vertex 11.2784 7 8.33396
    endloop
  endfacet
  facet normal 0 -1 0
    outer loop
      vertex 8.95 7 11.8187
      vertex 10.8036 7 11.9401
      vertex 9.19636 7 11.9401
    endloop
  endfacet
  facet normal 0 -1 0
    outer loop
      vertex 8.95 7 11.8187
      vertex 11.05 7 11.8187
      vertex 10.8036 7 11.9401
    endloop
  endfacet
  facet normal 0.442314 0.89686 0
    outer loop
      vertex 8.95 8.18135 0
      vertex 8.95 8.18135 7
      vertex 9.19636 8.05985 0
    endloop
  endfacet
  facet normal 0 0 -1
    outer loop
      vertex 8.95 8.18135 7
      vertex 8.95 11.8187 7
      vertex 9.19636 11.9401 7
    endloop
  endfacet
  facet normal 0.442314 0.89686 -0
    outer loop
      vertex 8.95 8.18135 7
      vertex 9.19636 8.05985 7
      vertex 9.19636 8.05985 0
    endloop
  endfacet
  facet normal 0 0 -1
    outer loop
      vertex 8.95 8.18135 7
      vertex 9.19636 11.9401 7
      vertex 9.19636 8.05985 7
    endloop
  endfacet
  facet normal 0.442021 -0.897005 0
    outer loop
      vertex 8.95 11.8187 0
      vertex 9.19636 11.9401 0
      vertex 9.19636 11.9401 7
    endloop
  endfacet
  facet normal 0.442021 -0.897005 0
    outer loop
      vertex 8.95 11.8187 0
      vertex 9.19636 11.9401 7
      vertex 8.95 11.8187 7
    endloop
  endfacet
  facet normal 0.321411 0 0.94694
    outer loop
      vertex 9.19636 0 8.05985
      vertex 9.45648 0 7.97156
      vertex 9.19636 7 8.05985
    endloop
  endfacet
  facet normal 0.321443 0 -0.946929
    outer loop
      vertex 9.19636 0 11.9401
      vertex 9.19636 7 11.9401
      vertex 9.45648 7 12.0284
    endloop
  endfacet
  facet normal 0.321443 0 -0.946929
    outer loop
      vertex 9.19636 0 11.9401
      vertex 9.45648 7 12.0284
      vertex 9.45648 0 12.0284
    endloop
  endfacet
  facet normal 0.321411 0 0.94694
    outer loop
      vertex 9.19636 7 8.05985
      vertex 9.45648 0 7.97156
      vertex 9.45648 7 7.97156
    endloop
  endfacet
  facet normal 0 -1 0
    outer loop
      vertex 9.19636 7 8.05985
      vertex 9.45648 7 7.97156
      vertex 10.8036 7 8.05985
    endloop
  endfacet
  facet normal 0 -1 0
    outer loop
      vertex 9.19636 7 8.05985
      vertex 10.8036 7 8.05985
      vertex 11.05 7 8.18135
    endloop
  endfacet
  facet normal 0 -1 0
    outer loop
      vertex 9.19636 7 11.9401
      vertex 10.5435 7 12.0284
      vertex 9.45648 7 12.0284
    endloop
  endfacet
  facet normal 0 -1 0
    outer loop
      vertex 9.19636 7 11.9401
      vertex 10.8036 7 11.9401
      vertex 10.5435 7 12.0284
    endloop
  endfacet
  facet normal 0.321411 0.94694 0
    outer loop
      vertex 9.19636 8.05985 0
      vertex 9.19636 8.05985 7
      vertex 9.45648 7.97156 0
    endloop
  endfacet
  facet normal 0 0 -1
    outer loop
      vertex 9.19636 8.05985 7
      vertex 9.19636 11.9401 7
      vertex 9.45648 12.0284 7
    endloop
  endfacet
  facet normal 0.321411 0.94694 -0
    outer loop
      vertex 9.19636 8.05985 7
      vertex 9.45648 7.97156 7
      vertex 9.45648 7.97156 0
    endloop
  endfacet
  facet normal 0 0 -1
    outer loop
      vertex 9.19636 8.05985 7
      vertex 9.45648 12.0284 7
      vertex 9.45648 7.97156 7
    endloop
  endfacet
  facet normal 0.321443 -0.946929 0
    outer loop
      vertex 9.19636 11.9401 0
      vertex 9.45648 12.0284 0
      vertex 9.45648 12.0284 7
    endloop
  endfacet
  facet normal 0.321443 -0.946929 0
    outer loop
      vertex 9.19636 11.9401 0
      vertex 9.45648 12.0284 7
      vertex 9.19636 11.9401 7
    endloop
  endfacet
  facet normal 0.195129 0 0.980778
    outer loop
      vertex 9.45648 0 7.97156
      vertex 9.72589 0 7.91796
      vertex 9.45648 7 7.97156
    endloop
  endfacet
  facet normal 0.195129 0 -0.980778
    outer loop
      vertex 9.45648 0 12.0284
      vertex 9.45648 7 12.0284
      vertex 9.72589 7 12.082
    endloop
  endfacet
  facet normal 0.195129 0 -0.980778
    outer loop
      vertex 9.45648 0 12.0284
      vertex 9.72589 7 12.082
      vertex 9.72589 0 12.082
    endloop
  endfacet
  facet normal 0.195129 0 0.980778
    outer loop
      vertex 9.45648 7 7.97156
      vertex 9.72589 0 7.91796
      vertex 9.72589 7 7.91796
    endloop
  endfacet
  facet normal 0 -1 0
    outer loop
      vertex 9.45648 7 7.97156
      vertex 9.72589 7 7.91796
      vertex 10.5435 7 7.97156
    endloop
  endfacet
  facet normal 0 -1 0
    outer loop
      vertex 9.45648 7 7.97156
      vertex 10.5435 7 7.97156
      vertex 10.8036 7 8.05985
    endloop
  endfacet
  facet normal 0 -1 0
    outer loop
      vertex 9.45648 7 12.0284
      vertex 10.2741 7 12.082
      vertex 9.72589 7 12.082
    endloop
  endfacet
  facet normal 0 -1 0
    outer loop
      vertex 9.45648 7 12.0284
      vertex 10.5435 7 12.0284
      vertex 10.2741 7 12.082
    endloop
  endfacet
  facet normal 0.195129 0.980778 0
    outer loop
      vertex 9.45648 7.97156 0
      vertex 9.45648 7.97156 7
      vertex 9.72589 7.91796 0
    endloop
  endfacet
  facet normal 0 0 -1
    outer loop
      vertex 9.45648 7.97156 7
      vertex 9.45648 12.0284 7
      vertex 9.72589 12.082 7
    endloop
  endfacet
  facet normal 0.195129 0.980778 -0
    outer loop
      vertex 9.45648 7.97156 7
      vertex 9.72589 7.91796 7
      vertex 9.72589 7.91796 0
    endloop
  endfacet
  facet normal 0 0 -1
    outer loop
      vertex 9.45648 7.97156 7
      vertex 9.72589 12.082 7
      vertex 9.72589 7.91796 7
    endloop
  endfacet
  facet normal 0.195129 -0.980778 0
    outer loop
      vertex 9.45648 12.0284 0
      vertex 9.72589 12.082 0
      vertex 9.72589 12.082 7
    endloop
  endfacet
  facet normal 0.195129 -0.980778 0
    outer loop
      vertex 9.45648 12.0284 0
      vertex 9.72589 12.082 7
      vertex 9.45648 12.0284 7
    endloop
  endfacet
  facet normal 0.065381 0 0.99786
    outer loop
      vertex 9.72589 0 7.91796
      vertex 10 0 7.9
      vertex 9.72589 7 7.91796
    endloop
  endfacet
  facet normal 0.0655259 0 -0.997851
    outer loop
      vertex 9.72589 0 12.082
      vertex 9.72589 7 12.082
      vertex 10 7 12.1
    endloop
  endfacet
  facet normal 0.0655259 0 -0.997851
    outer loop
      vertex 9.72589 0 12.082
      vertex 10 7 12.1
      vertex 10 0 12.1
    endloop
  endfacet
  facet normal 0.065381 0 0.99786
    outer loop
      vertex 9.72589 7 7.91796
      vertex 10 0 7.9
      vertex 10 7 7.9
    endloop
  endfacet
  facet normal -0 -1 0
    outer loop
      vertex 9.72589 7 7.91796
      vertex 10 7 7.9
      vertex 10.2741 7 7.91796
    endloop
  endfacet
  facet normal 0 -1 0
    outer loop
      vertex 9.72589 7 7.91796
      vertex 10.2741 7 7.91796
      vertex 10.5435 7 7.97156
    endloop
  endfacet
  facet normal 0 -1 0
    outer loop
      vertex 9.72589 7 12.082
      vertex 10.2741 7 12.082
      vertex 10 7 12.1
    endloop
  endfacet
  facet normal 0.065381 0.99786 0
    outer loop
      vertex 9.72589 7.91796 0
      vertex 9.72589 7.91796 7
      vertex 10 7.9 0
    endloop
  endfacet
  facet normal 0 0 -1
    outer loop
      vertex 9.72589 7.91796 7
      vertex 9.72589 12.082 7
      vertex 10 12.1 7
    endloop
  endfacet
  facet normal 0.065381 0.99786 -0
    outer loop
      vertex 9.72589 7.91796 7
      vertex 10 7.9 7
      vertex 10 7.9 0
    endloop
  endfacet
  facet normal 0 0 -1
    outer loop
      vertex 9.72589 7.91796 7
      vertex 10 12.1 7
      vertex 10 7.9 7
    endloop
  endfacet
  facet normal 0.0655259 -0.997851 0
    outer loop
      vertex 9.72589 12.082 0
      vertex 10 12.1 0
      vertex 10 12.1 7
    endloop
  endfacet
  facet normal 0.0655259 -0.997851 0
    outer loop
      vertex 9.72589 12.082 0
      vertex 10 12.1 7
      vertex 9.72589 12.082 7
    endloop
  endfacet
  facet normal -0.0653833 0 0.99786
    outer loop
      vertex 10 0 7.9
      vertex 10.2741 0 7.91796
      vertex 10 7 7.9
    endloop
  endfacet
  facet normal 0 -1 0
    outer loop
      vertex 10 0 7.9
      vertex 20 0 0
      vertex 10.2741 0 7.91796
    endloop
  endfacet
  facet normal -0.0655283 0 -0.997851
    outer loop
      vertex 10 0 12.1
      vertex 10 7 12.1
      vertex 10.2741 7 12.082
    endloop
  endfacet
  facet normal 0 -1 0
    outer loop
      vertex 10 0 12.1
      vertex 10.2741 0 12.082
      vertex 20 0 20
    endloop
  endfacet
  facet normal -0.0655283 0 -0.997851
    outer loop
      vertex 10 0 12.1
      vertex 10.2741 7 12.082
      vertex 10.2741 0 12.082
    endloop
  endfacet
  facet normal -0.0653833 0 0.99786
    outer loop
      vertex 10 7 7.9
      vertex 10.2741 0 7.91796
      vertex 10.2741 7 7.91796
    endloop
  endfacet
  facet normal -0.0653833 0.99786 0
    outer loop
      vertex 10 7.9 0
      vertex 10 7.9 7
      vertex 10.2741 7.91796 0
    endloop
  endfacet
  facet normal 0 0 -1
    outer loop
      vertex 10 7.9 0
      vertex 10.2741 7.91796 0
      vertex 20 0 0
    endloop
  endfacet
  facet normal 0 0 -1
    outer loop
      vertex 10 7.9 7
      vertex 10 12.1 7
      vertex 10.2741 12.082 7
    endloop
  endfacet
  facet normal -0.0653833 0.99786 0
    outer loop
      vertex 10 7.9 7
      vertex 10.2741 7.91796 7
      vertex 10.2741 7.91796 0
    endloop
  endfacet
  facet normal 0 0 -1
    outer loop
      vertex 10 7.9 7
      vertex 10.2741 12.082 7
      vertex 10.2741 7.91796 7
    endloop
  endfacet
  facet normal -0.0655283 -0.997851 -0
    outer loop
      vertex 10 12.1 0
      vertex 10.2741 12.082 0
      vertex 10.2741 12.082 7
    endloop
  endfacet
  facet normal -0.0655283 -0.997851 0
    outer loop
      vertex 10 12.1 0
      vertex 10.2741 12.082 7
      vertex 10 12.1 7
    endloop
  endfacet
  facet normal 0 0 -1
    outer loop
      vertex 10 12.1 0
      vertex 20 20 0
      vertex 10.2741 12.082 0
    endloop
  endfacet
  facet normal -0.195136 0 0.980776
    outer loop
      vertex 10.2741 0 7.91796
      vertex 10.5435 0 7.97156
      vertex 10.2741 7 7.91796
    endloop
  endfacet
  facet normal 0 -1 0
    outer loop
      vertex 10.2741 0 7.91796
      vertex 20 0 0
      vertex 10.5435 0 7.97156
    endloop
  endfacet
  facet normal -0.195136 0 -0.980776
    outer loop
      vertex 10.2741 0 12.082
      vertex 10.2741 7 12.082
      vertex 10.5435 7 12.0284
    endloop
  endfacet
  facet normal 0 -1 0
    outer loop
      vertex 10.2741 0 12.082
      vertex 10.5435 0 12.0284
      vertex 20 0 20
    endloop
  endfacet
  facet normal -0.195136 0 -0.980776
    outer loop
      vertex 10.2741 0 12.082
      vertex 10.5435 7 12.0284
      vertex 10.5435 0 12.0284
    endloop
  endfacet
  facet normal -0.195136 0 0.980776
    outer loop
      vertex 10.2741 7 7.91796
      vertex 10.5435 0 7.97156
      vertex 10.5435 7 7.97156
    endloop
  endfacet
  facet normal -0.195136 0.980776 0
    outer loop
      vertex 10.2741 7.91796 0
      vertex 10.2741 7.91796 7
      vertex 10.5435 7.97156 0
    endloop
  endfacet
  facet normal 0 0 -1
    outer loop
      vertex 10.2741 7.91796 0
      vertex 10.5435 7.97156 0
      vertex 20 0 0
    endloop
  endfacet
  facet normal 0 0 -1
    outer loop
      vertex 10.2741 7.91796 7
      vertex 10.2741 12.082 7
      vertex 10.5435 12.0284 7
    endloop
  endfacet
  facet normal -0.195136 0.980776 0
    outer loop
      vertex 10.2741 7.91796 7
      vertex 10.5435 7.97156 7
      vertex 10.5435 7.97156 0
    endloop
  endfacet
  facet normal 0 0 -1
    outer loop
      vertex 10.2741 7.91796 7
      vertex 10.5435 12.0284 7
      vertex 10.5435 7.97156 7
    endloop
  endfacet
  facet normal -0.195136 -0.980776 -0
    outer loop
      vertex 10.2741 12.082 0
      vertex 10.5435 12.0284 0
      vertex 10.5435 12.0284 7
    endloop
  endfacet
  facet normal -0.195136 -0.980776 0
    outer loop
      vertex 10.2741 12.082 0
      vertex 10.5435 12.0284 7
      vertex 10.2741 12.082 7
    endloop
  endfacet
  facet normal 0 0 -1
    outer loop
      vertex 10.2741 12.082 0
      vertex 20 20 0
      vertex 10.5435 12.0284 0
    endloop
  endfacet
  facet normal -0.321433 0 0.946932
    outer loop
      vertex 10.5435 0 7.97156
      vertex 10.8036 0 8.05985
      vertex 10.5435 7 7.97156
    endloop
  endfacet
  facet normal 0 -1 0
    outer loop
      vertex 10.5435 0 7.97156
      vertex 20 0 0
      vertex 10.8036 0 8.05985
    endloop
  endfacet
  facet normal -0.321465 0 -0.946921
    outer loop
      vertex 10.5435 0 12.0284
      vertex 10.5435 7 12.0284
      vertex 10.8036 7 11.9401
    endloop
  endfacet
  facet normal 0 -1 0
    outer loop
      vertex 10.5435 0 12.0284
      vertex 10.8036 0 11.9401
      vertex 20 0 20
    endloop
  endfacet
  facet normal -0.321465 0 -0.946921
    outer loop
      vertex 10.5435 0 12.0284
      vertex 10.8036 7 11.9401
      vertex 10.8036 0 11.9401
    endloop
  endfacet
  facet normal -0.321433 0 0.946932
    outer loop
      vertex 10.5435 7 7.97156
      vertex 10.8036 0 8.05985
      vertex 10.8036 7 8.05985
    endloop
  endfacet
  facet normal -0.321433 0.946932 0
    outer loop
      vertex 10.5435 7.97156 0
      vertex 10.5435 7.97156 7
      vertex 10.8036 8.05985 0
    endloop
  endfacet
  facet normal 0 0 -1
    outer loop
      vertex 10.5435 7.97156 0
      vertex 10.8036 8.05985 0
      vertex 20 0 0
    endloop
  endfacet
  facet normal 0 0 -1
    outer loop
      vertex 10.5435 7.97156 7
      vertex 10.5435 12.0284 7
      vertex 10.8036 11.9401 7
    endloop
  endfacet
  facet normal -0.321433 0.946932 0
    outer loop
      vertex 10.5435 7.97156 7
      vertex 10.8036 8.05985 7
      vertex 10.8036 8.05985 0
    endloop
  endfacet
  facet normal 0 0 -1
    outer loop
      vertex 10.5435 7.97156 7
      vertex 10.8036 11.9401 7
      vertex 10.8036 8.05985 7
    endloop
  endfacet
  facet normal -0.321465 -0.946921 -0
    outer loop
      vertex 10.5435 12.0284 0
      vertex 10.8036 11.9401 0
      vertex 10.8036 11.9401 7
    endloop
  endfacet
  facet normal -0.321465 -0.946921 0
    outer loop
      vertex 10.5435 12.0284 0
      vertex 10.8036 11.9401 7
      vertex 10.5435 12.0284 7
    endloop
  endfacet
  facet normal 0 0 -1
    outer loop
      vertex 10.5435 12.0284 0
      vertex 20 20 0
      vertex 10.8036 11.9401 0
    endloop
  endfacet
  facet normal -0.442256 0 0.896889
    outer loop
      vertex 10.8036 0 8.05985
      vertex 11.05 0 8.18135
      vertex 10.8036 7 8.05985
    endloop
  endfacet
  facet normal 0 -1 0
    outer loop
      vertex 10.8036 0 8.05985
      vertex 20 0 0
      vertex 11.05 0 8.18135
    endloop
  endfacet
  facet normal -0.441964 0 -0.897033
    outer loop
      vertex 10.8036 0 11.9401
      vertex 10.8036 7 11.9401
      vertex 11.05 7 11.8187
    endloop
  endfacet
  facet normal 0 -1 0
    outer loop
      vertex 10.8036 0 11.9401
      vertex 11.05 0 11.8187
      vertex 20 0 20
    endloop
  endfacet
  facet normal -0.441964 0 -0.897033
    outer loop
      vertex 10.8036 0 11.9401
      vertex 11.05 7 11.8187
      vertex 11.05 0 11.8187
    endloop
  endfacet
  facet normal -0.442256 0 0.896889
    outer loop
      vertex 10.8036 7 8.05985
      vertex 11.05 0 8.18135
      vertex 11.05 7 8.18135
    endloop
  endfacet
  facet normal -0.442256 0.896889 0
    outer loop
      vertex 10.8036 8.05985 0
      vertex 10.8036 8.05985 7
      vertex 11.05 8.18135 0
    endloop
  endfacet
  facet normal 0 0 -1
    outer loop
      vertex 10.8036 8.05985 0
      vertex 11.05 8.18135 0
      vertex 20 0 0
    endloop
  endfacet
  facet normal 0 0 -1
    outer loop
      vertex 10.8036 8.05985 7
      vertex 10.8036 11.9401 7
      vertex 11.05 11.8187 7
    endloop
  endfacet
  facet normal -0.442256 0.896889 0
    outer loop
      vertex 10.8036 8.05985 7
      vertex 11.05 8.18135 7
      vertex 11.05 8.18135 0
    endloop
  endfacet
  facet normal 0 0 -1
    outer loop
      vertex 10.8036 8.05985 7
      vertex 11.05 11.8187 7
      vertex 11.05 8.18135 7
    endloop
  endfacet
  facet normal -0.441964 -0.897033 -0
    outer loop
      vertex 10.8036 11.9401 0
      vertex 11.05 11.8187 0
      vertex 11.05 11.8187 7
    endloop
  endfacet
  facet normal -0.441964 -0.897033 0
    outer loop
      vertex 10.8036 11.9401 0
      vertex 11.05 11.8187 7
      vertex 10.8036 11.9401 7
    endloop
  endfacet
  facet normal 0 0 -1
    outer loop
      vertex 10.8036 11.9401 0
      vertex 20 20 0
      vertex 11.05 11.8187 0
    endloop
  endfacet
  facet normal -0.555565 0 0.831473
    outer loop
      vertex 11.05 0 8.18135
      vertex 11.2784 0 8.33396
      vertex 11.05 7 8.18135
    endloop
  endfacet
  facet normal 0 -1 0
    outer loop
      vertex 11.05 0 8.18135
      vertex 20 0 0
      vertex 11.2784 0 8.33396
    endloop
  endfacet
  facet normal -0.555792 0 -0.831322
    outer loop
      vertex 11.05 0 11.8187
      vertex 11.05 7 11.8187
      vertex 11.2784 7 11.666
    endloop
  endfacet
  facet normal 0 -1 0
    outer loop
      vertex 11.05 0 11.8187
      vertex 11.2784 0 11.666
      vertex 20 0 20
    endloop
  endfacet
  facet normal -0.555792 0 -0.831322
    outer loop
      vertex 11.05 0 11.8187
      vertex 11.2784 7 11.666
      vertex 11.2784 0 11.666
    endloop
  endfacet
  facet normal -0.555565 0 0.831473
    outer loop
      vertex 11.05 7 8.18135
      vertex 11.2784 0 8.33396
      vertex 11.2784 7 8.33396
    endloop
  endfacet
  facet normal -0.555565 0.831473 0
    outer loop
      vertex 11.05 8.18135 0
      vertex 11.05 8.18135 7
      vertex 11.2784 8.33396 0
    endloop
  endfacet
  facet normal 0 0 -1
    outer loop
      vertex 11.05 8.18135 0
      vertex 11.2784 8.33396 0
      vertex 20 0 0
    endloop
  endfacet
  facet normal 0 0 -1
    outer loop
      vertex 11.05 8.18135 7
      vertex 11.05 11.8187 7
      vertex 11.2784 11.666 7
    endloop
  endfacet
  facet normal -0.555565 0.831473 0
    outer loop
      vertex 11.05 8.18135 7
      vertex 11.2784 8.33396 7
      vertex 11.2784 8.33396 0
    endloop
  endfacet
  facet normal 0 0 -1
    outer loop
      vertex 11.05 8.18135 7
      vertex 11.2784 11.666 7
      vertex 11.2784 8.33396 7
    endloop
  endfacet
  facet normal -0.555792 -0.831322 -0
    outer loop
      vertex 11.05 11.8187 0
      vertex 11.2784 11.666 0
      vertex 11.2784 11.666 7
    endloop
  endfacet
  facet normal -0.555792 -0.831322 0
    outer loop
      vertex 11.05 11.8187 0
      vertex 11.2784 11.666 7
      vertex 11.05 11.8187 7
    endloop
  endfacet
  facet normal 0 0 -1
    outer loop
      vertex 11.05 11.8187 0
      vertex 20 20 0
      vertex 11.2784 11.666 0
    endloop
  endfacet
  facet normal -0.659396 0 0.751796
    outer loop
      vertex 11.2784 0 8.33396
      vertex 11.4849 0 8.51508
      vertex 11.2784 7 8.33396
    endloop
  endfacet
  facet normal 0 -1 0
    outer loop
      vertex 11.2784 0 8.33396
      vertex 20 0 0
      vertex 11.4849 0 8.51508
    endloop
  endfacet
  facet normal -0.659355 0 -0.751832
    outer loop
      vertex 11.2784 0 11.666
      vertex 11.2784 7 11.666
      vertex 11.4849 7 11.4849
    endloop
  endfacet
  facet normal 0 -1 0
    outer loop
      vertex 11.2784 0 11.666
      vertex 11.4849 0 11.4849
      vertex 20 0 20
    endloop
  endfacet
  facet normal -0.659355 0 -0.751832
    outer loop
      vertex 11.2784 0 11.666
      vertex 11.4849 7 11.4849
      vertex 11.4849 0 11.4849
    endloop
  endfacet
  facet normal -0.659396 0 0.751796
    outer loop
      vertex 11.2784 7 8.33396
      vertex 11.4849 0 8.51508
      vertex 11.4849 7 8.51508
    endloop
  endfacet
  facet normal -0.659396 0.751796 0
    outer loop
      vertex 11.2784 8.33396 0
      vertex 11.2784 8.33396 7
      vertex 11.4849 8.51508 0
    endloop
  endfacet
  facet normal 0 0 -1
    outer loop
      vertex 11.2784 8.33396 0
      vertex 11.4849 8.51508 0
      vertex 20 0 0
    endloop
  endfacet
  facet normal 0 0 -1
    outer loop
      vertex 11.2784 8.33396 7
      vertex 11.2784 11.666 7
      vertex 11.4849 11.4849 7
    endloop
  endfacet
  facet normal -0.659396 0.751796 0
    outer loop
      vertex 11.2784 8.33396 7
      vertex 11.4849 8.51508 7
      vertex 11.4849 8.51508 0
    endloop
  endfacet
  facet normal 0 0 -1
    outer loop
      vertex 11.2784 8.33396 7
      vertex 11.4849 11.4849 7
      vertex 11.4849 8.51508 7
    endloop
  endfacet
  facet normal -0.659355 -0.751832 -0
    outer loop
      vertex 11.2784 11.666 0
      vertex 11.4849 11.4849 0
      vertex 11.4849 11.4849 7
    endloop
  endfacet
  facet normal -0.659355 -0.751832 0
    outer loop
      vertex 11.2784 11.666 0
      vertex 11.4849 11.4849 7
      vertex 11.2784 11.666 7
    endloop
  endfacet
  facet normal 0 0 -1
    outer loop
      vertex 11.2784 11.666 0
      vertex 20 20 0
      vertex 11.4849 11.4849 0
    endloop
  endfacet
  facet normal -0.751864 0 0.659319
    outer loop
      vertex 11.4849 0 8.51508
      vertex 11.666 0 8.7216
      vertex 11.666 7 8.7216
    endloop
  endfacet
  facet normal -0.751864 0 0.659319
    outer loop
      vertex 11.4849 0 8.51508
      vertex 11.666 7 8.7216
      vertex 11.4849 7 8.51508
    endloop
  endfacet
  facet normal 0 -1 0
    outer loop
      vertex 11.4849 0 8.51508
      vertex 20 0 0
      vertex 11.666 0 8.7216
    endloop
  endfacet
  facet normal -0.751832 -0 -0.659355
    outer loop
      vertex 11.4849 0 11.4849
      vertex 11.4849 7 11.4849
      vertex 11.666 0 11.2784
    endloop
  endfacet
  facet normal 0 -1 0
    outer loop
      vertex 11.4849 0 11.4849
      vertex 11.666 0 11.2784
      vertex 20 0 20
    endloop
  endfacet
  facet normal -0.751832 0 -0.659355
    outer loop
      vertex 11.4849 7 11.4849
      vertex 11.666 7 11.2784
      vertex 11.666 0 11.2784
    endloop
  endfacet
  facet normal -0.751864 0.659319 0
    outer loop
      vertex 11.4849 8.51508 0
      vertex 11.4849 8.51508 7
      vertex 11.666 8.7216 7
    endloop
  endfacet
  facet normal 0 0 -1
    outer loop
      vertex 11.4849 8.51508 0
      vertex 11.666 8.7216 0
      vertex 20 0 0
    endloop
  endfacet
  facet normal -0.751864 0.659319 0
    outer loop
      vertex 11.4849 8.51508 0
      vertex 11.666 8.7216 7
      vertex 11.666 8.7216 0
    endloop
  endfacet
  facet normal 0 0 -1
    outer loop
      vertex 11.4849 8.51508 7
      vertex 11.4849 11.4849 7
      vertex 11.666 11.2784 7
    endloop
  endfacet
  facet normal 0 0 -1
    outer loop
      vertex 11.4849 8.51508 7
      vertex 11.666 11.2784 7
      vertex 11.666 8.7216 7
    endloop
  endfacet
  facet normal -0.751832 -0.659355 0
    outer loop
      vertex 11.4849 11.4849 0
      vertex 11.666 11.2784 0
      vertex 11.4849 11.4849 7
    endloop
  endfacet
  facet normal 0 0 -1
    outer loop
      vertex 11.4849 11.4849 0
      vertex 20 20 0
      vertex 11.666 11.2784 0
    endloop
  endfacet
  facet normal -0.751832 -0.659355 0
    outer loop
      vertex 11.4849 11.4849 7
      vertex 11.666 11.2784 0
      vertex 11.666 11.2784 7
    endloop
  endfacet
  facet normal -0.831322 0 0.555792
    outer loop
      vertex 11.666 0 8.7216
      vertex 11.8187 0 8.95
      vertex 11.8187 7 8.95
    endloop
  endfacet
  facet normal -0.831322 0 0.555792
    outer loop
      vertex 11.666 0 8.7216
      vertex 11.8187 7 8.95
      vertex 11.666 7 8.7216
    endloop
  endfacet
  facet normal 0 -1 0
    outer loop
      vertex 11.666 0 8.7216
      vertex 20 0 0
      vertex 11.8187 0 8.95
    endloop
  endfacet
  facet normal -0.831322 -0 -0.555792
    outer loop
      vertex 11.666 0 11.2784
      vertex 11.666 7 11.2784
      vertex 11.8187 0 11.05
    endloop
  endfacet
  facet normal 0 -1 0
    outer loop
      vertex 11.666 0 11.2784
      vertex 11.8187 0 11.05
      vertex 20 0 20
    endloop
  endfacet
  facet normal -0.831322 0 -0.555792
    outer loop
      vertex 11.666 7 11.2784
      vertex 11.8187 7 11.05
      vertex 11.8187 0 11.05
    endloop
  endfacet
  facet normal -0.831322 0.555792 0
    outer loop
      vertex 11.666 8.7216 0
      vertex 11.666 8.7216 7
      vertex 11.8187 8.95 7
    endloop
  endfacet
  facet normal 0 0 -1
    outer loop
      vertex 11.666 8.7216 0
      vertex 11.8187 8.95 0
      vertex 20 0 0
    endloop
  endfacet
  facet normal -0.831322 0.555792 0
    outer loop
      vertex 11.666 8.7216 0
      vertex 11.8187 8.95 7
      vertex 11.8187 8.95 0
    endloop
  endfacet
  facet normal 0 0 -1
    outer loop
      vertex 11.666 8.7216 7
      vertex 11.666 11.2784 7
      vertex 11.8187 11.05 7
    endloop
  endfacet
  facet normal 0 0 -1
    outer loop
      vertex 11.666 8.7216 7
      vertex 11.8187 11.05 7
      vertex 11.8187 8.95 7
    endloop
  endfacet
  facet normal -0.831322 -0.555792 0
    outer loop
      vertex 11.666 11.2784 0
      vertex 11.8187 11.05 0
      vertex 11.666 11.2784 7
    endloop
  endfacet
  facet normal 0 0 -1
    outer loop
      vertex 11.666 11.2784 0
      vertex 20 20 0
      vertex 11.8187 11.05 0
    endloop
  endfacet
  facet normal -0.831322 -0.555792 0
    outer loop
      vertex 11.666 11.2784 7
      vertex 11.8187 11.05 0
      vertex 11.8187 11.05 7
    endloop
  endfacet
  facet normal -0.897005 0 0.442021
    outer loop
      vertex 11.8187 0 8.95
      vertex 11.9401 0 9.19636
      vertex 11.9401 7 9.19636
    endloop
  endfacet
  facet normal -0.897005 0 0.442021
    outer loop
      vertex 11.8187 0 8.95
      vertex 11.9401 7 9.19636
      vertex 11.8187 7 8.95
    endloop
  endfacet
  facet normal 0 -1 0
    outer loop
      vertex 11.8187 0 8.95
      vertex 20 0 0
      vertex 11.9401 0 9.19636
    endloop
  endfacet
  facet normal -0.897033 -0 -0.441964
    outer loop
      vertex 11.8187 0 11.05
      vertex 11.8187 7 11.05
      vertex 11.9401 0 10.8036
    endloop
  endfacet
  facet normal 0 -1 0
    outer loop
      vertex 11.8187 0 11.05
      vertex 11.9401 0 10.8036
      vertex 20 0 20
    endloop
  endfacet
  facet normal -0.897033 0 -0.441964
    outer loop
      vertex 11.8187 7 11.05
      vertex 11.9401 7 10.8036
      vertex 11.9401 0 10.8036
    endloop
  endfacet
  facet normal -0.897005 0.442021 0
    outer loop
      vertex 11.8187 8.95 0
      vertex 11.8187 8.95 7
      vertex 11.9401 9.19636 7
    endloop
  endfacet
  facet normal 0 0 -1
    outer loop
      vertex 11.8187 8.95 0
      vertex 11.9401 9.19636 0
      vertex 20 0 0
    endloop
  endfacet
  facet normal -0.897005 0.442021 0
    outer loop
      vertex 11.8187 8.95 0
      vertex 11.9401 9.19636 7
      vertex 11.9401 9.19636 0
    endloop
  endfacet
  facet normal 0 0 -1
    outer loop
      vertex 11.8187 8.95 7
      vertex 11.8187 11.05 7
      vertex 11.9401 10.8036 7
    endloop
  endfacet
  facet normal 0 0 -1
    outer loop
      vertex 11.8187 8.95 7
      vertex 11.9401 10.8036 7
      vertex 11.9401 9.19636 7
    endloop
  endfacet
  facet normal -0.897033 -0.441964 0
    outer loop
      vertex 11.8187 11.05 0
      vertex 11.9401 10.8036 0
      vertex 11.8187 11.05 7
    endloop
  endfacet
  facet normal 0 0 -1
    outer loop
      vertex 11.8187 11.05 0
      vertex 20 20 0
      vertex 11.9401 10.8036 0
    endloop
  endfacet
  facet normal -0.897033 -0.441964 0
    outer loop
      vertex 11.8187 11.05 7
      vertex 11.9401 10.8036 0
      vertex 11.9401 10.8036 7
    endloop
  endfacet
  facet normal -0.946929 0 0.321443
    outer loop
      vertex 11.9401 0 9.19636
      vertex 12.0284 0 9.45648
      vertex 12.0284 7 9.45648
    endloop
  endfacet
  facet normal -0.946929 0 0.321443
    outer loop
      vertex 11.9401 0 9.19636
      vertex 12.0284 7 9.45648
      vertex 11.9401 7 9.19636
    endloop
  endfacet
  facet normal 0 -1 0
    outer loop
      vertex 11.9401 0 9.19636
      vertex 20 0 0
      vertex 12.0284 0 9.45648
    endloop
  endfacet
  facet normal -0.946921 -0 -0.321465
    outer loop
      vertex 11.9401 0 10.8036
      vertex 11.9401 7 10.8036
      vertex 12.0284 0 10.5435
    endloop
  endfacet
  facet normal 0 -1 0
    outer loop
      vertex 11.9401 0 10.8036
      vertex 12.0284 0 10.5435
      vertex 20 0 20
    endloop
  endfacet
  facet normal -0.946921 0 -0.321465
    outer loop
      vertex 11.9401 7 10.8036
      vertex 12.0284 7 10.5435
      vertex 12.0284 0 10.5435
    endloop
  endfacet
  facet normal -0.946929 0.321443 0
    outer loop
      vertex 11.9401 9.19636 0
      vertex 11.9401 9.19636 7
      vertex 12.0284 9.45648 7
    endloop
  endfacet
  facet normal 0 0 -1
    outer loop
      vertex 11.9401 9.19636 0
      vertex 12.0284 9.45648 0
      vertex 20 0 0
    endloop
  endfacet
  facet normal -0.946929 0.321443 0
    outer loop
      vertex 11.9401 9.19636 0
      vertex 12.0284 9.45648 7
      vertex 12.0284 9.45648 0
    endloop
  endfacet
  facet normal 0 0 -1
    outer loop
      vertex 11.9401 9.19636 7
      vertex 11.9401 10.8036 7
      vertex 12.0284 10.5435 7
    endloop
  endfacet
  facet normal 0 0 -1
    outer loop
      vertex 11.9401 9.19636 7
      vertex 12.0284 10.5435 7
      vertex 12.0284 9.45648 7
    endloop
  endfacet
  facet normal -0.946921 -0.321465 0
    outer loop
      vertex 11.9401 10.8036 0
      vertex 12.0284 10.5435 0
      vertex 11.9401 10.8036 7
    endloop
  endfacet
  facet normal 0 0 -1
    outer loop
      vertex 11.9401 10.8036 0
      vertex 20 20 0
      vertex 12.0284 10.5435 0
    endloop
  endfacet
  facet normal -0.946921 -0.321465 0
    outer loop
      vertex 11.9401 10.8036 7
      vertex 12.0284 10.5435 0
      vertex 12.0284 10.5435 7
    endloop
  endfacet
  facet normal -0.980778 0 0.195129
    outer loop
      vertex 12.0284 0 9.45648
      vertex 12.082 0 9.72589
      vertex 12.082 7 9.72589
    endloop
  endfacet
  facet normal -0.980778 0 0.195129
    outer loop
      vertex 12.0284 0 9.45648
      vertex 12.082 7 9.72589
      vertex 12.0284 7 9.45648
    endloop
  endfacet
  facet normal 0 -1 0
    outer loop
      vertex 12.0284 0 9.45648
      vertex 20 0 0
      vertex 12.082 0 9.72589
    endloop
  endfacet
  facet normal -0.980776 -0 -0.195136
    outer loop
      vertex 12.0284 0 10.5435
      vertex 12.0284 7 10.5435
      vertex 12.082 0 10.2741
    endloop
  endfacet
  facet normal 0 -1 0
    outer loop
      vertex 12.0284 0 10.5435
      vertex 12.082 0 10.2741
      vertex 20 0 20
    endloop
  endfacet
  facet normal -0.980776 0 -0.195136
    outer loop
      vertex 12.0284 7 10.5435
      vertex 12.082 7 10.2741
      vertex 12.082 0 10.2741
    endloop
  endfacet
  facet normal -0.980778 0.195129 0
    outer loop
      vertex 12.0284 9.45648 0
      vertex 12.0284 9.45648 7
      vertex 12.082 9.72589 7
    endloop
  endfacet
  facet normal 0 0 -1
    outer loop
      vertex 12.0284 9.45648 0
      vertex 12.082 9.72589 0
      vertex 20 0 0
    endloop
  endfacet
  facet normal -0.980778 0.195129 0
    outer loop
      vertex 12.0284 9.45648 0
      vertex 12.082 9.72589 7
      vertex 12.082 9.72589 0
    endloop
  endfacet
  facet normal 0 0 -1
    outer loop
      vertex 12.0284 9.45648 7
      vertex 12.0284 10.5435 7
      vertex 12.082 10.2741 7
    endloop
  endfacet
  facet normal 0 0 -1
    outer loop
      vertex 12.0284 9.45648 7
      vertex 12.082 10.2741 7
      vertex 12.082 9.72589 7
    endloop
  endfacet
  facet normal -0.980776 -0.195136 0
    outer loop
      vertex 12.0284 10.5435 0
      vertex 12.082 10.2741 0
      vertex 12.0284 10.5435 7
    endloop
  endfacet
  facet normal 0 0 -1
    outer loop
      vertex 12.0284 10.5435 0
      vertex 20 20 0
      vertex 12.082 10.2741 0
    endloop
  endfacet
  facet normal -0.980776 -0.195136 0
    outer loop
      vertex 12.0284 10.5435 7
      vertex 12.082 10.2741 0
      vertex 12.082 10.2741 7
    endloop
  endfacet
  facet normal -0.997851 0 0.0655259
    outer loop
      vertex 12.082 0 9.72589
      vertex 12.1 0 10
      vertex 12.1 7 10
    endloop
  endfacet
  facet normal -0.997851 0 0.0655259
    outer loop
      vertex 12.082 0 9.72589
      vertex 12.1 7 10
      vertex 12.082 7 9.72589
    endloop
  endfacet
  facet normal 0 -1 0
    outer loop
      vertex 12.082 0 9.72589
      vertex 20 0 0
      vertex 12.1 0 10
    endloop
  endfacet
  facet normal -0.997851 -0 -0.0655283
    outer loop
      vertex 12.082 0 10.2741
      vertex 12.082 7 10.2741
      vertex 12.1 0 10
    endloop
  endfacet
  facet normal 0 -1 0
    outer loop
      vertex 12.082 0 10.2741
      vertex 12.1 0 10
      vertex 20 0 20
    endloop
  endfacet
  facet normal -0.997851 0 -0.0655283
    outer loop
      vertex 12.082 7 10.2741
      vertex 12.1 7 10
      vertex 12.1 0 10
    endloop
  endfacet
  facet normal -0.997851 0.0655259 0
    outer loop
      vertex 12.082 9.72589 0
      vertex 12.082 9.72589 7
      vertex 12.1 10 7
    endloop
  endfacet
  facet normal 0 0 -1
    outer loop
      vertex 12.082 9.72589 0
      vertex 12.1 10 0
      vertex 20 0 0
    endloop
  endfacet
  facet normal -0.997851 0.0655259 0
    outer loop
      vertex 12.082 9.72589 0
      vertex 12.1 10 7
      vertex 12.1 10 0
    endloop
  endfacet
  facet normal 0 0 -1
    outer loop
      vertex 12.082 9.72589 7
      vertex 12.082 10.2741 7
      vertex 12.1 10 7
    endloop
  endfacet
  facet normal -0.997851 -0.0655283 0
    outer loop
      vertex 12.082 10.2741 0
      vertex 12.1 10 0
      vertex 12.082 10.2741 7
    endloop
  endfacet
  facet normal 0 0 -1
    outer loop
      vertex 12.082 10.2741 0
      vertex 20 20 0
      vertex 12.1 10 0
    endloop
  endfacet
  facet normal -0.997851 -0.0655283 0
    outer loop
      vertex 12.082 10.2741 7
      vertex 12.1 10 0
      vertex 12.1 10 7
    endloop
  endfacet
  facet normal 0 -1 0
    outer loop
      vertex 12.1 0 10
      vertex 20 0 0
      vertex 20 0 20
    endloop
  endfacet
  facet normal 0 0 -1
    outer loop
      vertex 12.1 10 0
      vertex 20 20 0
      vertex 20 0 0
    endloop
  endfacet
  facet normal 1 0 0
    outer loop
      vertex 20 0 0
      vertex 20 20 0
      vertex 20 0 20
    endloop
  endfacet
  facet normal 1 -0 0
    outer loop
      vertex 20 0 20
      vertex 20 20 0
      vertex 20 20 20
    endloop
  endfacet
endsolid OpenSCAD_Model
