<?xml version="1.0" encoding="UTF-8" standalone="no"?>
<svg xmlns="http://www.w3.org/2000/svg" width="180mm" height="171.5mm" viewBox="0 -171.5 180 171.5">
<title>Flux, back sheet, seen from behind. Red hairline: cut. Black: engrave. Millimetres.</title>
<path d="M46.226 -144.613L46.208 -144.66L46.189 -144.706L46.168 -144.752L46.145 -144.797L46.121 -144.841L46.095 -144.884L46.068 -144.926L46.039 -144.967L46.008 -145.007L45.976 -145.045L45.942 -145.082L45.907 -145.118L45.87 -145.152L45.832 -145.185L45.793 -145.216L45.753 -145.246L45.711 -145.274L45.669 -145.301L45.625 -145.326L45.581 -145.349L45.535 -145.371L45.489 -145.39L45.442 -145.408L45.395 -145.425L45.347 -145.439L45.298 -145.452L45.249 -145.463L45.2 -145.472L45.15 -145.48L45.101 -145.486L45.051 -145.491L45.001 -145.494L44.95 -145.496L44.9 -145.496L44.85 -145.495L44.8 -145.493L44.75 -145.489L44.7 -145.484L44.65 -145.477L44.601 -145.468L44.552 -145.458L44.503 -145.445L44.455 -145.432L44.407 -145.416L44.36 -145.399L44.314 -145.379L44.268 -145.358L44.223 -145.336L44.18 -145.311L44.137 -145.285L44.095 -145.257L44.054 -145.228L44.015 -145.197L43.976 -145.165L43.939 -145.131L43.903 -145.096L43.869 -145.059L43.836 -145.021L43.804 -144.982L43.774 -144.942L43.746 -144.901L43.719 -144.859L43.693 -144.816L43.668 -144.772L43.646 -144.727L43.624 -144.682L43.604 -144.636L43.586 -144.589L43.569 -144.542L43.553 -144.494L43.539 -144.446L43.527 -144.397L43.515 -144.348L43.506 -144.299L43.497 -144.25L43.49 -144.2L43.484 -144.15L43.479 -144.1L43.475 -144.05L43.472 -144L43.471 -143.95L43.47 -143.9L43.471 -143.85L43.473 -143.799L43.475 -143.749L43.479 -143.699L43.484 -143.649L43.49 -143.599L43.498 -143.55L43.506 -143.5L43.516 -143.451L43.528 -143.402L43.54 -143.354L43.555 -143.306L43.57 -143.258L43.587 -143.211L43.606 -143.164L43.625 -143.118L43.647 -143.073L43.67 -143.028L43.694 -142.984L43.72 -142.941L43.747 -142.899L43.775 -142.857L43.805 -142.817L43.837 -142.778L43.87 -142.74L43.904 -142.704L43.94 -142.668L43.977 -142.635L44.016 -142.602L44.055 -142.571L44.096 -142.542L44.138 -142.514L44.181 -142.488L44.224 -142.464L44.269 -142.441L44.315 -142.42L44.361 -142.401L44.408 -142.384L44.456 -142.368L44.504 -142.354L44.553 -142.342L44.602 -142.332L44.651 -142.323L44.701 -142.316L44.751 -142.311L44.801 -142.307L44.851 -142.305L44.901 -142.304L44.952 -142.304L45.002 -142.306L45.052 -142.309L45.102 -142.314L45.152 -142.32L45.201 -142.328L45.25 -142.338L45.299 -142.349L45.348 -142.362L45.396 -142.377L45.443 -142.394L45.49 -142.412L45.536 -142.432L45.581 -142.454L45.625 -142.477L45.669 -142.503L45.711 -142.53L45.752 -142.558L45.792 -142.588L45.832 -142.62L45.869 -142.653L45.906 -142.687L45.941 -142.723L45.975 -142.76L46.007 -142.798L46.038 -142.838L46.067 -142.879L46.094 -142.921L46.12 -142.964L46.145 -143.008L46.167 -143.053L46.189 -143.098L46.208 -143.144L46.226 -143.191L45.807 -143.341L45.788 -143.295L45.767 -143.249L45.743 -143.205L45.718 -143.161L45.691 -143.119L45.661 -143.079L45.629 -143.04L45.595 -143.003L45.559 -142.968L45.522 -142.935L45.482 -142.904L45.441 -142.876L45.398 -142.85L45.353 -142.826L45.308 -142.806L45.261 -142.788L45.213 -142.772L45.165 -142.76L45.115 -142.75L45.066 -142.742L45.016 -142.736L44.966 -142.733L44.916 -142.732L44.865 -142.733L44.815 -142.736L44.765 -142.741L44.716 -142.748L44.667 -142.758L44.618 -142.771L44.57 -142.786L44.523 -142.804L44.478 -142.825L44.433 -142.848L44.39 -142.873L44.348 -142.902L44.308 -142.932L44.27 -142.965L44.234 -142.999L44.2 -143.036L44.168 -143.075L44.138 -143.115L44.11 -143.156L44.084 -143.199L44.06 -143.244L44.038 -143.289L44.018 -143.335L44.001 -143.382L43.985 -143.43L43.971 -143.478L43.959 -143.527L43.949 -143.576L43.941 -143.625L43.934 -143.675L43.929 -143.725L43.925 -143.775L43.922 -143.825L43.921 -143.875L43.921 -143.925L43.922 -143.976L43.925 -144.026L43.928 -144.076L43.934 -144.126L43.94 -144.175L43.949 -144.225L43.959 -144.274L43.971 -144.323L43.984 -144.371L44 -144.419L44.018 -144.466L44.037 -144.512L44.059 -144.557L44.083 -144.601L44.109 -144.644L44.137 -144.686L44.167 -144.726L44.2 -144.764L44.234 -144.801L44.27 -144.835L44.308 -144.868L44.348 -144.898L44.39 -144.927L44.433 -144.952L44.478 -144.975L44.523 -144.996L44.57 -145.014L44.618 -145.029L44.667 -145.042L44.716 -145.052L44.765 -145.059L44.815 -145.064L44.865 -145.067L44.916 -145.068L44.966 -145.067L45.016 -145.064L45.066 -145.058L45.115 -145.05L45.165 -145.04L45.213 -145.028L45.261 -145.012L45.308 -144.994L45.353 -144.974L45.398 -144.95L45.441 -144.924L45.482 -144.896L45.522 -144.865L45.559 -144.832L45.595 -144.797L45.629 -144.76L45.661 -144.721L45.691 -144.681L45.718 -144.639L45.743 -144.595L45.767 -144.551L45.788 -144.505L45.807 -144.459L46.226 -144.613ZM46.716 -142.361L47.167 -142.361L47.167 -143.73L48.62 -143.73L48.62 -142.361L49.07 -142.361L49.07 -145.439L48.62 -145.439L48.62 -144.15L47.167 -144.15L47.167 -145.439L46.716 -145.439L46.716 -142.361ZM49.463 -142.361L49.958 -142.361L50.205 -143.046L51.463 -143.046L51.711 -142.361L52.201 -142.361L51.009 -145.439L50.66 -145.439L49.463 -142.361ZM51.318 -143.447L50.351 -143.447L50.836 -144.785L51.318 -143.447ZM52.598 -142.361L53.049 -142.361L53.049 -143.677L53.526 -143.677L53.528 -143.677L53.53 -143.677L53.532 -143.677L53.535 -143.677L53.537 -143.677L53.539 -143.677L53.541 -143.677L53.543 -143.677L54.303 -142.361L54.82 -142.361L54.003 -143.739L54.051 -143.755L54.099 -143.774L54.146 -143.796L54.191 -143.82L54.235 -143.846L54.278 -143.875L54.318 -143.907L54.356 -143.942L54.39 -143.979L54.422 -144.018L54.451 -144.06L54.477 -144.103L54.5 -144.149L54.519 -144.195L54.536 -144.243L54.55 -144.292L54.561 -144.341L54.569 -144.391L54.575 -144.441L54.579 -144.492L54.581 -144.542L54.581 -144.593L54.579 -144.644L54.574 -144.694L54.568 -144.744L54.559 -144.794L54.547 -144.843L54.533 -144.892L54.516 -144.939L54.496 -144.986L54.473 -145.031L54.447 -145.074L54.417 -145.115L54.385 -145.154L54.35 -145.191L54.312 -145.224L54.272 -145.255L54.23 -145.283L54.186 -145.309L54.141 -145.331L54.094 -145.352L54.047 -145.369L53.999 -145.384L53.95 -145.397L53.9 -145.408L53.85 -145.417L53.8 -145.424L53.75 -145.43L53.7 -145.434L53.649 -145.437L53.598 -145.438L53.548 -145.439L52.598 -145.439L52.598 -142.361ZM53.049 -144.074L53.049 -145.037L53.504 -145.037L53.554 -145.036L53.604 -145.033L53.654 -145.029L53.704 -145.022L53.753 -145.012L53.802 -145L53.85 -144.985L53.897 -144.965L53.941 -144.942L53.982 -144.913L54.02 -144.88L54.053 -144.842L54.081 -144.8L54.103 -144.755L54.118 -144.707L54.128 -144.658L54.134 -144.608L54.135 -144.558L54.133 -144.507L54.127 -144.457L54.117 -144.408L54.101 -144.36L54.08 -144.315L54.051 -144.273L54.018 -144.236L53.981 -144.202L53.94 -144.173L53.896 -144.148L53.85 -144.128L53.802 -144.113L53.753 -144.1L53.704 -144.09L53.654 -144.083L53.604 -144.078L53.554 -144.075L53.504 -144.074L53.049 -144.074ZM57.889 -144.613L57.871 -144.66L57.852 -144.706L57.831 -144.752L57.808 -144.796L57.784 -144.84L57.759 -144.883L57.731 -144.925L57.703 -144.966L57.672 -145.005L57.64 -145.044L57.606 -145.081L57.571 -145.116L57.535 -145.151L57.497 -145.183L57.458 -145.215L57.418 -145.244L57.377 -145.273L57.334 -145.299L57.291 -145.324L57.247 -145.347L57.202 -145.369L57.156 -145.389L57.109 -145.407L57.062 -145.423L57.014 -145.438L56.966 -145.451L56.917 -145.462L56.868 -145.471L56.819 -145.479L56.769 -145.486L56.719 -145.491L56.669 -145.494L56.619 -145.496L56.569 -145.496L56.519 -145.496L56.469 -145.493L56.419 -145.49L56.37 -145.485L56.32 -145.478L56.271 -145.469L56.222 -145.459L56.173 -145.447L56.125 -145.434L56.078 -145.419L56.031 -145.402L55.984 -145.383L55.939 -145.362L55.894 -145.34L55.85 -145.316L55.807 -145.29L55.765 -145.263L55.725 -145.234L55.685 -145.203L55.647 -145.171L55.609 -145.138L55.573 -145.103L55.539 -145.067L55.506 -145.03L55.474 -144.991L55.444 -144.951L55.415 -144.91L55.387 -144.869L55.361 -144.826L55.337 -144.782L55.314 -144.738L55.292 -144.693L55.272 -144.647L55.253 -144.601L55.236 -144.554L55.22 -144.506L55.206 -144.459L55.193 -144.41L55.181 -144.362L55.171 -144.313L55.162 -144.263L55.154 -144.214L55.148 -144.164L55.143 -144.115L55.139 -144.065L55.136 -144.015L55.134 -143.965L55.133 -143.915L55.133 -143.865L55.135 -143.815L55.137 -143.765L55.14 -143.715L55.145 -143.665L55.151 -143.616L55.158 -143.566L55.166 -143.517L55.176 -143.468L55.186 -143.419L55.199 -143.37L55.212 -143.322L55.227 -143.275L55.244 -143.227L55.261 -143.181L55.281 -143.135L55.302 -143.089L55.324 -143.044L55.347 -143L55.372 -142.957L55.399 -142.914L55.427 -142.873L55.456 -142.832L55.486 -142.793L55.518 -142.754L55.552 -142.717L55.587 -142.681L55.623 -142.647L55.66 -142.614L55.699 -142.582L55.739 -142.552L55.78 -142.524L55.822 -142.497L55.865 -142.471L55.91 -142.448L55.955 -142.426L56 -142.406L56.047 -142.388L56.094 -142.372L56.142 -142.357L56.19 -142.344L56.239 -142.333L56.288 -142.324L56.338 -142.317L56.388 -142.311L56.437 -142.307L56.487 -142.305L56.537 -142.304L56.587 -142.304L56.637 -142.306L56.687 -142.31L56.737 -142.316L56.786 -142.324L56.835 -142.334L56.884 -142.345L56.932 -142.359L56.979 -142.375L57.026 -142.393L57.072 -142.413L57.116 -142.436L57.159 -142.461L57.201 -142.489L57.241 -142.519L57.279 -142.551L57.304 -142.573L57.328 -142.595L57.351 -142.619L57.373 -142.645L57.393 -142.671L57.412 -142.698L57.43 -142.725L57.447 -142.754L57.491 -142.361L57.889 -142.361L57.889 -143.995L56.719 -143.995L56.719 -143.593L57.487 -143.593L57.484 -143.545L57.48 -143.497L57.474 -143.449L57.466 -143.401L57.455 -143.354L57.442 -143.308L57.426 -143.262L57.407 -143.218L57.386 -143.172L57.361 -143.128L57.334 -143.086L57.305 -143.045L57.273 -143.006L57.238 -142.97L57.201 -142.936L57.161 -142.905L57.12 -142.876L57.077 -142.85L57.032 -142.827L56.986 -142.806L56.939 -142.789L56.891 -142.775L56.842 -142.763L56.793 -142.753L56.743 -142.744L56.693 -142.738L56.643 -142.734L56.592 -142.732L56.542 -142.732L56.492 -142.735L56.442 -142.739L56.392 -142.746L56.342 -142.755L56.293 -142.767L56.245 -142.782L56.198 -142.799L56.152 -142.819L56.107 -142.842L56.063 -142.867L56.021 -142.895L55.981 -142.924L55.942 -142.957L55.905 -142.991L55.87 -143.027L55.838 -143.066L55.807 -143.105L55.778 -143.147L55.752 -143.19L55.728 -143.234L55.705 -143.279L55.685 -143.325L55.667 -143.372L55.651 -143.42L55.637 -143.468L55.624 -143.517L55.614 -143.566L55.605 -143.616L55.598 -143.665L55.592 -143.715L55.588 -143.766L55.585 -143.816L55.584 -143.866L55.584 -143.917L55.585 -143.967L55.587 -144.017L55.59 -144.067L55.595 -144.118L55.602 -144.167L55.61 -144.217L55.62 -144.267L55.631 -144.315L55.645 -144.364L55.66 -144.412L55.678 -144.459L55.697 -144.506L55.719 -144.551L55.743 -144.595L55.768 -144.639L55.796 -144.681L55.826 -144.721L55.858 -144.76L55.893 -144.797L55.929 -144.832L55.967 -144.865L56.007 -144.895L56.048 -144.924L56.091 -144.95L56.136 -144.973L56.182 -144.994L56.229 -145.012L56.276 -145.028L56.325 -145.041L56.374 -145.051L56.424 -145.059L56.474 -145.064L56.524 -145.067L56.575 -145.068L56.625 -145.067L56.675 -145.064L56.725 -145.059L56.775 -145.051L56.824 -145.041L56.873 -145.028L56.921 -145.013L56.968 -144.995L57.014 -144.975L57.059 -144.951L57.102 -144.925L57.143 -144.897L57.183 -144.866L57.221 -144.833L57.257 -144.798L57.291 -144.761L57.323 -144.722L57.353 -144.681L57.38 -144.639L57.406 -144.596L57.429 -144.551L57.45 -144.505L57.469 -144.459L57.889 -144.613ZM58.494 -142.361L60.53 -142.361L60.53 -142.763L58.944 -142.763L58.944 -143.734L60.397 -143.734L60.397 -144.136L58.944 -144.136L58.944 -145.037L60.53 -145.037L60.53 -145.439L58.494 -145.439L58.494 -142.361ZM62.818 -85.181L59.258 -85.181L59.205 -85.179L59.153 -85.174L59.101 -85.164L59.051 -85.149L59.004 -85.126L58.962 -85.095L58.926 -85.056L58.899 -85.011L58.882 -84.961L58.873 -84.91L58.872 -84.857L58.877 -84.805L58.889 -84.754L58.909 -84.705L58.937 -84.661L58.973 -84.622L59.014 -84.59L59.06 -84.564L59.108 -84.543L59.297 -84.475L59.346 -84.456L59.393 -84.432L59.437 -84.403L59.476 -84.367L59.507 -84.324L59.528 -84.276L59.54 -84.224L59.543 -84.171L59.543 -79.428L59.54 -79.375L59.528 -79.324L59.507 -79.275L59.476 -79.232L59.437 -79.196L59.393 -79.167L59.346 -79.143L59.297 -79.124L59.108 -79.056L59.06 -79.035L59.014 -79.009L58.973 -78.977L58.937 -78.938L58.909 -78.894L58.889 -78.845L58.877 -78.794L58.872 -78.742L58.873 -78.689L58.882 -78.638L58.899 -78.588L58.926 -78.543L58.962 -78.504L59.004 -78.473L59.051 -78.451L59.101 -78.435L59.153 -78.425L59.205 -78.42L59.258 -78.419L62.209 -78.419L62.261 -78.42L62.313 -78.425L62.365 -78.435L62.415 -78.45L62.462 -78.472L62.504 -78.503L62.54 -78.541L62.567 -78.586L62.585 -78.635L62.594 -78.686L62.595 -78.738L62.592 -78.791L62.583 -78.842L62.567 -78.892L62.543 -78.938L62.509 -78.978L62.467 -79.009L62.42 -79.032L62.371 -79.049L62.32 -79.061L62.016 -79.124L61.964 -79.138L61.914 -79.158L61.868 -79.187L61.831 -79.225L61.803 -79.271L61.783 -79.321L61.773 -79.374L61.77 -79.428L61.77 -81.35L62.383 -81.35L62.435 -81.35L62.487 -81.348L62.538 -81.346L62.59 -81.342L62.641 -81.336L62.693 -81.328L62.744 -81.319L62.794 -81.307L62.844 -81.292L62.892 -81.273L62.939 -81.252L62.984 -81.226L63.027 -81.198L63.068 -81.166L63.107 -81.132L63.144 -81.096L63.18 -81.059L63.215 -81.02L63.249 -80.981L63.283 -80.942L63.315 -80.901L63.347 -80.86L63.378 -80.819L63.41 -80.779L63.445 -80.741L63.483 -80.707L63.526 -80.678L63.571 -80.655L63.62 -80.64L63.671 -80.633L63.722 -80.633L63.773 -80.641L63.822 -80.655L63.87 -80.678L63.915 -80.708L63.954 -80.744L63.986 -80.787L64.007 -80.835L64.016 -80.888L64.015 -80.941L64.008 -80.994L63.996 -81.046L63.619 -82.611L63.605 -82.661L63.585 -82.708L63.557 -82.752L63.523 -82.79L63.481 -82.82L63.434 -82.841L63.384 -82.855L63.333 -82.861L63.282 -82.862L63.23 -82.856L63.181 -82.842L63.134 -82.82L63.092 -82.791L63.056 -82.753L63.027 -82.711L63.005 -82.664L62.987 -82.616L62.971 -82.568L62.954 -82.52L62.937 -82.472L62.918 -82.425L62.898 -82.378L62.877 -82.332L62.854 -82.287L62.829 -82.243L62.801 -82.2L62.771 -82.16L62.737 -82.122L62.699 -82.089L62.656 -82.061L62.611 -82.039L62.563 -82.022L62.514 -82.008L62.464 -81.998L62.414 -81.991L62.364 -81.987L62.313 -81.984L62.262 -81.983L61.77 -81.983L61.77 -84.533L62.267 -84.533L62.317 -84.533L62.367 -84.531L62.418 -84.527L62.468 -84.523L62.517 -84.516L62.567 -84.509L62.616 -84.499L62.665 -84.488L62.714 -84.476L62.762 -84.462L62.81 -84.446L62.857 -84.429L62.903 -84.409L62.949 -84.388L62.993 -84.364L63.036 -84.339L63.078 -84.312L63.119 -84.283L63.16 -84.253L63.199 -84.221L63.237 -84.188L63.274 -84.154L63.31 -84.12L63.345 -84.084L63.38 -84.047L63.413 -84.01L63.446 -83.972L63.477 -83.933L63.508 -83.893L63.539 -83.853L63.568 -83.813L63.597 -83.772L63.625 -83.73L63.653 -83.688L63.68 -83.646L63.707 -83.604L63.733 -83.561L63.759 -83.518L63.784 -83.474L63.809 -83.431L63.834 -83.387L63.858 -83.343L63.882 -83.299L63.905 -83.254L63.929 -83.21L63.954 -83.165L63.983 -83.122L64.017 -83.083L64.056 -83.049L64.1 -83.023L64.149 -83.005L64.199 -82.993L64.25 -82.986L64.302 -82.984L64.354 -82.988L64.405 -82.999L64.454 -83.015L64.501 -83.038L64.544 -83.068L64.582 -83.104L64.612 -83.147L64.632 -83.195L64.641 -83.246L64.639 -83.299L64.629 -83.35L64.199 -84.862L64.184 -84.911L64.167 -84.96L64.149 -85.008L64.128 -85.055L64.105 -85.101L64.078 -85.145L64.048 -85.186L64.013 -85.224L63.973 -85.256L63.928 -85.281L63.88 -85.3L63.83 -85.313L63.78 -85.321L63.728 -85.325L63.677 -85.325L63.626 -85.322L63.574 -85.316L63.524 -85.307L63.474 -85.296L63.424 -85.282L63.374 -85.269L63.325 -85.256L63.275 -85.243L63.225 -85.23L63.175 -85.217L63.125 -85.206L63.074 -85.198L63.023 -85.191L62.972 -85.186L62.921 -85.183L62.869 -85.181L62.818 -85.181ZM67.426 -79.375L67.426 -85.306L67.423 -85.357L67.415 -85.408L67.401 -85.457L67.381 -85.504L67.355 -85.548L67.324 -85.588L67.287 -85.624L67.245 -85.653L67.199 -85.676L67.151 -85.692L67.101 -85.703L67.05 -85.71L66.999 -85.712L66.947 -85.71L66.896 -85.705L66.846 -85.697L66.796 -85.686L66.746 -85.674L66.697 -85.659L66.648 -85.644L66.599 -85.628L66.551 -85.612L66.502 -85.595L66.454 -85.578L66.406 -85.561L66.358 -85.543L65.228 -85.118L65.18 -85.099L65.134 -85.078L65.088 -85.054L65.045 -85.026L65.006 -84.993L64.977 -84.951L64.958 -84.904L64.949 -84.853L64.948 -84.802L64.956 -84.751L64.973 -84.703L65.001 -84.661L65.04 -84.627L65.084 -84.601L65.131 -84.582L65.242 -84.553L65.285 -84.536L65.324 -84.512L65.356 -84.479L65.378 -84.439L65.39 -84.395L65.397 -84.35L65.401 -84.304L65.402 -84.258L65.402 -79.375L65.401 -79.323L65.399 -79.271L65.395 -79.219L65.387 -79.168L65.374 -79.118L65.351 -79.072L65.316 -79.034L65.271 -79.008L65.16 -78.96L65.115 -78.938L65.072 -78.912L65.033 -78.879L65.002 -78.839L64.98 -78.794L64.967 -78.746L64.962 -78.696L64.965 -78.645L64.976 -78.596L64.996 -78.55L65.026 -78.509L65.063 -78.476L65.108 -78.452L65.155 -78.435L65.205 -78.425L65.255 -78.42L65.305 -78.419L67.522 -78.419L67.573 -78.42L67.623 -78.425L67.672 -78.435L67.72 -78.452L67.764 -78.476L67.802 -78.509L67.831 -78.55L67.852 -78.596L67.862 -78.645L67.865 -78.696L67.86 -78.746L67.847 -78.794L67.825 -78.839L67.794 -78.879L67.756 -78.912L67.713 -78.938L67.667 -78.96L67.556 -79.008L67.511 -79.034L67.476 -79.072L67.453 -79.118L67.44 -79.168L67.433 -79.219L67.428 -79.271L67.426 -79.323L67.426 -79.375ZM68.657 -81.737L68.657 -79.8L68.658 -79.749L68.659 -79.699L68.662 -79.649L68.666 -79.598L68.672 -79.548L68.678 -79.498L68.686 -79.448L68.695 -79.399L68.706 -79.349L68.719 -79.3L68.733 -79.252L68.748 -79.204L68.765 -79.156L68.784 -79.109L68.804 -79.063L68.826 -79.018L68.85 -78.973L68.875 -78.929L68.902 -78.887L68.93 -78.845L68.96 -78.804L68.992 -78.765L69.025 -78.727L69.059 -78.69L69.095 -78.654L69.132 -78.62L69.17 -78.587L69.209 -78.555L69.25 -78.525L69.292 -78.497L69.335 -78.471L69.379 -78.446L69.424 -78.423L69.47 -78.402L69.517 -78.383L69.564 -78.366L69.612 -78.35L69.661 -78.337L69.71 -78.325L69.759 -78.315L69.809 -78.307L69.859 -78.3L69.909 -78.295L69.96 -78.291L70.01 -78.289L70.061 -78.288L70.111 -78.289L70.161 -78.292L70.212 -78.296L70.262 -78.302L70.312 -78.31L70.361 -78.319L70.411 -78.33L70.46 -78.342L70.508 -78.355L70.557 -78.369L70.605 -78.385L70.652 -78.402L70.7 -78.419L70.747 -78.438L70.793 -78.458L70.839 -78.478L70.885 -78.499L70.93 -78.521L70.976 -78.544L71.02 -78.567L71.064 -78.591L71.108 -78.615L71.151 -78.641L71.194 -78.667L71.237 -78.694L71.279 -78.721L71.32 -78.749L71.362 -78.777L71.403 -78.806L71.443 -78.835L71.484 -78.865L71.524 -78.895L71.564 -78.926L71.603 -78.957L71.642 -78.988L71.681 -79.019L71.72 -79.051L71.759 -79.083L71.797 -79.115L71.835 -79.148L71.845 -79.097L71.858 -79.048L71.874 -78.999L71.893 -78.951L71.915 -78.904L71.94 -78.859L71.967 -78.815L71.996 -78.773L72.028 -78.733L72.062 -78.694L72.099 -78.654L72.138 -78.616L72.179 -78.581L72.222 -78.548L72.267 -78.519L72.314 -78.492L72.364 -78.47L72.414 -78.451L72.466 -78.437L72.52 -78.427L72.573 -78.421L72.627 -78.419L73.869 -78.419L73.919 -78.42L73.969 -78.425L74.019 -78.435L74.066 -78.452L74.11 -78.476L74.148 -78.509L74.178 -78.55L74.198 -78.596L74.209 -78.645L74.212 -78.696L74.207 -78.746L74.194 -78.794L74.172 -78.839L74.141 -78.879L74.102 -78.912L74.059 -78.938L74.014 -78.96L73.903 -79.008L73.858 -79.034L73.823 -79.072L73.8 -79.118L73.787 -79.168L73.779 -79.219L73.775 -79.271L73.773 -79.323L73.772 -79.375L73.772 -82.785L73.77 -82.836L73.762 -82.887L73.749 -82.936L73.73 -82.984L73.704 -83.028L73.673 -83.069L73.637 -83.105L73.595 -83.135L73.55 -83.158L73.501 -83.174L73.451 -83.184L73.4 -83.19L73.349 -83.191L73.297 -83.188L73.246 -83.184L73.196 -83.176L73.146 -83.166L73.096 -83.154L73.047 -83.139L72.998 -83.123L72.949 -83.107L72.901 -83.09L72.853 -83.072L72.805 -83.054L72.757 -83.035L72.71 -83.017L71.574 -82.597L71.527 -82.577L71.481 -82.555L71.435 -82.531L71.392 -82.503L71.354 -82.47L71.324 -82.428L71.305 -82.381L71.296 -82.33L71.295 -82.279L71.302 -82.229L71.319 -82.18L71.347 -82.138L71.385 -82.103L71.43 -82.078L71.478 -82.06L71.594 -82.027L71.636 -82.011L71.674 -81.987L71.704 -81.954L71.724 -81.914L71.737 -81.871L71.744 -81.826L71.747 -81.782L71.748 -81.737L71.748 -79.636L71.725 -79.62L71.7 -79.604L71.676 -79.59L71.65 -79.576L71.625 -79.563L71.599 -79.551L71.572 -79.54L71.546 -79.529L71.498 -79.513L71.449 -79.499L71.4 -79.487L71.35 -79.478L71.3 -79.471L71.249 -79.467L71.199 -79.467L71.148 -79.47L71.098 -79.476L71.049 -79.486L71 -79.501L70.954 -79.521L70.91 -79.546L70.869 -79.576L70.832 -79.61L70.798 -79.648L70.77 -79.69L70.746 -79.735L70.727 -79.781L70.711 -79.83L70.699 -79.879L70.691 -79.929L70.685 -79.979L70.682 -80.029L70.681 -80.08L70.681 -82.785L70.678 -82.836L70.671 -82.887L70.657 -82.936L70.637 -82.983L70.611 -83.027L70.579 -83.068L70.542 -83.103L70.5 -83.132L70.454 -83.155L70.405 -83.171L70.355 -83.182L70.304 -83.188L70.253 -83.191L70.202 -83.189L70.151 -83.184L70.1 -83.176L70.05 -83.165L70.001 -83.152L69.951 -83.138L69.902 -83.122L69.854 -83.106L69.805 -83.089L69.757 -83.071L69.709 -83.054L69.661 -83.035L69.614 -83.017L68.483 -82.597L68.436 -82.577L68.389 -82.556L68.343 -82.532L68.3 -82.505L68.261 -82.471L68.232 -82.429L68.213 -82.382L68.205 -82.331L68.204 -82.28L68.211 -82.229L68.228 -82.181L68.256 -82.138L68.294 -82.104L68.339 -82.078L68.387 -82.06L68.498 -82.027L68.541 -82.012L68.58 -81.989L68.611 -81.956L68.632 -81.916L68.645 -81.872L68.652 -81.828L68.656 -81.782L68.657 -81.737ZM78.071 -81.389L77.54 -82.152L77.515 -82.19L77.492 -82.229L77.472 -82.269L77.458 -82.312L77.456 -82.357L77.471 -82.399L77.499 -82.434L77.535 -82.461L77.641 -82.524L77.68 -82.558L77.714 -82.598L77.741 -82.642L77.758 -82.692L77.765 -82.743L77.766 -82.795L77.759 -82.847L77.742 -82.896L77.715 -82.94L77.678 -82.977L77.635 -83.006L77.587 -83.027L77.537 -83.041L77.485 -83.048L77.433 -83.051L74.951 -83.051L74.898 -83.048L74.847 -83.041L74.796 -83.027L74.748 -83.005L74.705 -82.976L74.668 -82.939L74.64 -82.896L74.622 -82.846L74.613 -82.795L74.613 -82.742L74.619 -82.69L74.632 -82.64L74.654 -82.592L74.687 -82.552L74.727 -82.519L74.773 -82.492L74.82 -82.471L74.867 -82.45L74.913 -82.427L74.957 -82.401L75 -82.373L75.042 -82.343L75.082 -82.31L75.118 -82.275L75.153 -82.237L75.185 -82.197L75.216 -82.156L75.245 -82.114L76.279 -80.602L75.728 -79.872L75.696 -79.832L75.664 -79.791L75.632 -79.751L75.599 -79.711L75.566 -79.671L75.534 -79.631L75.501 -79.591L75.468 -79.551L75.435 -79.511L75.401 -79.472L75.368 -79.433L75.333 -79.394L75.299 -79.356L75.263 -79.318L75.226 -79.282L75.189 -79.246L75.15 -79.212L75.111 -79.178L75.07 -79.147L75.028 -79.117L74.984 -79.088L74.94 -79.062L74.894 -79.037L74.848 -79.015L74.801 -78.993L74.757 -78.967L74.714 -78.938L74.674 -78.906L74.637 -78.87L74.606 -78.829L74.586 -78.781L74.576 -78.731L74.574 -78.68L74.582 -78.629L74.599 -78.58L74.626 -78.536L74.662 -78.499L74.704 -78.47L74.751 -78.448L74.8 -78.434L74.851 -78.426L74.902 -78.423L76.231 -78.423L76.282 -78.426L76.332 -78.433L76.382 -78.446L76.429 -78.467L76.471 -78.496L76.508 -78.531L76.536 -78.574L76.554 -78.622L76.563 -78.672L76.563 -78.723L76.555 -78.774L76.536 -78.821L76.506 -78.863L76.468 -78.897L76.426 -78.926L76.38 -78.95L76.284 -78.998L76.238 -79.023L76.196 -79.055L76.16 -79.093L76.132 -79.137L76.112 -79.185L76.1 -79.236L76.096 -79.288L76.101 -79.34L76.113 -79.391L76.131 -79.44L76.153 -79.488L76.178 -79.534L76.206 -79.578L76.235 -79.621L76.612 -80.133L77.168 -79.327L77.198 -79.282L77.226 -79.236L77.249 -79.187L77.267 -79.136L77.271 -79.083L77.251 -79.033L77.211 -78.997L77.163 -78.974L77.047 -78.935L77.001 -78.914L76.96 -78.884L76.927 -78.846L76.904 -78.801L76.891 -78.752L76.887 -78.701L76.891 -78.651L76.903 -78.601L76.924 -78.555L76.955 -78.515L76.994 -78.482L77.038 -78.457L77.085 -78.439L77.134 -78.427L77.185 -78.42L77.235 -78.419L79.79 -78.419L79.843 -78.421L79.895 -78.428L79.946 -78.442L79.994 -78.463L80.038 -78.493L80.075 -78.53L80.103 -78.575L80.121 -78.624L80.128 -78.676L80.127 -78.729L80.116 -78.781L80.095 -78.829L80.064 -78.871L80.026 -78.908L79.984 -78.94L79.94 -78.969L79.899 -78.998L79.859 -79.03L79.822 -79.064L79.785 -79.099L79.75 -79.136L79.717 -79.173L79.683 -79.212L79.651 -79.25L79.619 -79.29L79.587 -79.329L79.556 -79.369L79.525 -79.409L78.409 -80.92L78.911 -81.592L78.943 -81.631L78.974 -81.67L79.006 -81.709L79.037 -81.748L79.069 -81.786L79.101 -81.825L79.133 -81.864L79.165 -81.902L79.197 -81.94L79.23 -81.978L79.263 -82.016L79.296 -82.054L79.329 -82.092L79.362 -82.129L79.396 -82.166L79.431 -82.202L79.467 -82.237L79.504 -82.27L79.543 -82.302L79.582 -82.333L79.623 -82.362L79.666 -82.389L79.709 -82.414L79.753 -82.438L79.798 -82.46L79.843 -82.481L79.888 -82.508L79.931 -82.537L79.972 -82.569L80.009 -82.605L80.039 -82.647L80.059 -82.695L80.069 -82.746L80.07 -82.798L80.062 -82.849L80.045 -82.898L80.018 -82.943L79.982 -82.979L79.939 -83.008L79.891 -83.029L79.841 -83.042L79.789 -83.048L79.737 -83.051L78.414 -83.051L78.362 -83.048L78.312 -83.041L78.262 -83.027L78.215 -83.006L78.172 -82.978L78.136 -82.942L78.107 -82.9L78.09 -82.852L78.081 -82.801L78.082 -82.75L78.091 -82.699L78.111 -82.652L78.141 -82.61L78.178 -82.575L78.22 -82.545L78.264 -82.519L78.356 -82.481L78.401 -82.458L78.442 -82.429L78.477 -82.394L78.506 -82.353L78.527 -82.307L78.541 -82.259L78.548 -82.209L78.547 -82.159L78.539 -82.11L78.525 -82.061L78.507 -82.015L78.485 -81.97L78.46 -81.926L78.433 -81.884L78.404 -81.843L78.071 -81.389Z" fill="#000000" stroke="none" fill-rule="evenodd"/>
<path d="M0 -159.5L0 -12L0 -11.95L0 -11.9L0.001 -11.85L0.002 -11.799L0.003 -11.749L0.004 -11.699L0.005 -11.649L0.007 -11.599L0.008 -11.549L0.01 -11.499L0.013 -11.449L0.015 -11.399L0.018 -11.349L0.021 -11.299L0.024 -11.249L0.027 -11.198L0.03 -11.148L0.034 -11.098L0.038 -11.048L0.042 -10.999L0.046 -10.949L0.051 -10.899L0.055 -10.849L0.06 -10.799L0.065 -10.749L0.071 -10.699L0.076 -10.649L0.082 -10.6L0.088 -10.55L0.094 -10.5L0.1 -10.45L0.107 -10.401L0.114 -10.351L0.121 -10.301L0.128 -10.252L0.135 -10.202L0.143 -10.153L0.151 -10.103L0.159 -10.053L0.167 -10.004L0.176 -9.955L0.184 -9.905L0.193 -9.856L0.202 -9.807L0.211 -9.757L0.221 -9.708L0.231 -9.659L0.24 -9.61L0.251 -9.561L0.261 -9.512L0.271 -9.463L0.282 -9.414L0.293 -9.365L0.304 -9.316L0.315 -9.267L0.327 -9.218L0.339 -9.169L0.351 -9.121L0.363 -9.072L0.375 -9.023L0.388 -8.975L0.4 -8.926L0.413 -8.878L0.426 -8.83L0.44 -8.781L0.453 -8.733L0.467 -8.685L0.481 -8.637L0.495 -8.589L0.509 -8.541L0.524 -8.493L0.539 -8.445L0.554 -8.397L0.569 -8.349L0.584 -8.301L0.6 -8.254L0.616 -8.206L0.631 -8.159L0.648 -8.111L0.664 -8.064L0.681 -8.016L0.697 -7.969L0.714 -7.922L0.731 -7.875L0.749 -7.828L0.766 -7.781L0.784 -7.734L0.802 -7.687L0.82 -7.64L0.838 -7.594L0.857 -7.547L0.875 -7.501L0.894 -7.454L0.913 -7.408L0.933 -7.362L0.952 -7.315L0.972 -7.269L0.992 -7.223L1.012 -7.177L1.032 -7.131L1.052 -7.086L1.073 -7.04L1.094 -6.994L1.115 -6.949L1.136 -6.903L1.157 -6.858L1.179 -6.813L1.201 -6.768L1.223 -6.723L1.245 -6.678L1.267 -6.633L1.29 -6.588L1.312 -6.543L1.335 -6.499L1.358 -6.454L1.382 -6.41L1.405 -6.365L1.429 -6.321L1.453 -6.277L1.477 -6.233L1.501 -6.189L1.525 -6.145L1.55 -6.102L1.574 -6.058L1.599 -6.014L1.624 -5.971L1.65 -5.928L1.675 -5.885L1.701 -5.842L1.727 -5.799L1.753 -5.756L1.779 -5.713L1.805 -5.67L1.832 -5.628L1.858 -5.585L1.885 -5.543L1.912 -5.501L1.94 -5.459L1.967 -5.417L1.995 -5.375L2.022 -5.333L2.05 -5.292L2.078 -5.25L2.107 -5.209L2.135 -5.167L2.164 -5.126L2.193 -5.085L2.222 -5.044L2.251 -5.003L2.28 -4.963L2.31 -4.922L2.339 -4.882L2.369 -4.842L2.399 -4.801L2.429 -4.761L2.459 -4.721L2.49 -4.682L2.521 -4.642L2.551 -4.602L2.582 -4.563L2.614 -4.524L2.645 -4.485L2.676 -4.446L2.708 -4.407L2.74 -4.368L2.772 -4.329L2.804 -4.291L2.836 -4.252L2.869 -4.214L2.901 -4.176L2.934 -4.138L2.967 -4.1L3 -4.063L3.033 -4.025L3.067 -3.988L3.1 -3.951L3.134 -3.913L3.168 -3.877L3.202 -3.84L3.236 -3.803L3.27 -3.766L3.305 -3.73L3.339 -3.694L3.374 -3.658L3.409 -3.622L3.444 -3.586L3.479 -3.55L3.515 -3.515L3.55 -3.479L3.586 -3.444L3.622 -3.409L3.658 -3.374L3.694 -3.339L3.73 -3.305L3.766 -3.27L3.803 -3.236L3.84 -3.202L3.877 -3.168L3.913 -3.134L3.951 -3.1L3.988 -3.067L4.025 -3.033L4.063 -3L4.1 -2.967L4.138 -2.934L4.176 -2.901L4.214 -2.869L4.252 -2.836L4.291 -2.804L4.329 -2.772L4.368 -2.74L4.407 -2.708L4.446 -2.676L4.485 -2.645L4.524 -2.614L4.563 -2.582L4.602 -2.551L4.642 -2.521L4.682 -2.49L4.721 -2.459L4.761 -2.429L4.801 -2.399L4.842 -2.369L4.882 -2.339L4.922 -2.31L4.963 -2.28L5.003 -2.251L5.044 -2.222L5.085 -2.193L5.126 -2.164L5.167 -2.135L5.209 -2.107L5.25 -2.078L5.292 -2.05L5.333 -2.022L5.375 -1.995L5.417 -1.967L5.459 -1.94L5.501 -1.912L5.543 -1.885L5.585 -1.858L5.628 -1.832L5.67 -1.805L5.713 -1.779L5.756 -1.753L5.799 -1.727L5.842 -1.701L5.885 -1.675L5.928 -1.65L5.971 -1.624L6.014 -1.599L6.058 -1.574L6.102 -1.55L6.145 -1.525L6.189 -1.501L6.233 -1.477L6.277 -1.453L6.321 -1.429L6.365 -1.405L6.41 -1.382L6.454 -1.358L6.499 -1.335L6.543 -1.312L6.588 -1.29L6.633 -1.267L6.678 -1.245L6.723 -1.223L6.768 -1.201L6.813 -1.179L6.858 -1.157L6.903 -1.136L6.949 -1.115L6.994 -1.094L7.04 -1.073L7.086 -1.052L7.131 -1.032L7.177 -1.012L7.223 -0.992L7.269 -0.972L7.315 -0.952L7.362 -0.933L7.408 -0.913L7.454 -0.894L7.501 -0.875L7.547 -0.857L7.594 -0.838L7.64 -0.82L7.687 -0.802L7.734 -0.784L7.781 -0.766L7.828 -0.749L7.875 -0.731L7.922 -0.714L7.969 -0.697L8.016 -0.681L8.064 -0.664L8.111 -0.648L8.159 -0.631L8.206 -0.616L8.254 -0.6L8.301 -0.584L8.349 -0.569L8.397 -0.554L8.445 -0.539L8.493 -0.524L8.541 -0.509L8.589 -0.495L8.637 -0.481L8.685 -0.467L8.733 -0.453L8.781 -0.44L8.83 -0.426L8.878 -0.413L8.926 -0.4L8.975 -0.388L9.023 -0.375L9.072 -0.363L9.121 -0.351L9.169 -0.339L9.218 -0.327L9.267 -0.315L9.316 -0.304L9.365 -0.293L9.414 -0.282L9.463 -0.271L9.512 -0.261L9.561 -0.251L9.61 -0.24L9.659 -0.231L9.708 -0.221L9.757 -0.211L9.807 -0.202L9.856 -0.193L9.905 -0.184L9.955 -0.176L10.004 -0.167L10.053 -0.159L10.103 -0.151L10.153 -0.143L10.202 -0.135L10.252 -0.128L10.301 -0.121L10.351 -0.114L10.401 -0.107L10.45 -0.1L10.5 -0.094L10.55 -0.088L10.6 -0.082L10.649 -0.076L10.699 -0.071L10.749 -0.065L10.799 -0.06L10.849 -0.055L10.899 -0.051L10.949 -0.046L10.999 -0.042L11.048 -0.038L11.098 -0.034L11.148 -0.03L11.198 -0.027L11.249 -0.024L11.299 -0.021L11.349 -0.018L11.399 -0.015L11.449 -0.013L11.499 -0.01L11.549 -0.008L11.599 -0.007L11.649 -0.005L11.699 -0.004L11.749 -0.003L11.799 -0.002L11.85 -0.001L11.9 0L11.95 0L12 0L168 0L168.05 0L168.1 0L168.15 -0.001L168.201 -0.002L168.251 -0.003L168.301 -0.004L168.351 -0.005L168.401 -0.007L168.451 -0.008L168.501 -0.01L168.551 -0.013L168.601 -0.015L168.651 -0.018L168.701 -0.021L168.751 -0.024L168.802 -0.027L168.852 -0.03L168.902 -0.034L168.952 -0.038L169.001 -0.042L169.051 -0.046L169.101 -0.051L169.151 -0.055L169.201 -0.06L169.251 -0.065L169.301 -0.071L169.351 -0.076L169.4 -0.082L169.45 -0.088L169.5 -0.094L169.55 -0.1L169.599 -0.107L169.649 -0.114L169.699 -0.121L169.748 -0.128L169.798 -0.135L169.847 -0.143L169.897 -0.151L169.947 -0.159L169.996 -0.167L170.045 -0.176L170.095 -0.184L170.144 -0.193L170.193 -0.202L170.243 -0.211L170.292 -0.221L170.341 -0.231L170.39 -0.24L170.439 -0.251L170.488 -0.261L170.537 -0.271L170.586 -0.282L170.635 -0.293L170.684 -0.304L170.733 -0.315L170.782 -0.327L170.831 -0.339L170.879 -0.351L170.928 -0.363L170.977 -0.375L171.025 -0.388L171.074 -0.4L171.122 -0.413L171.17 -0.426L171.219 -0.44L171.267 -0.453L171.315 -0.467L171.363 -0.481L171.411 -0.495L171.459 -0.509L171.507 -0.524L171.555 -0.539L171.603 -0.554L171.651 -0.569L171.699 -0.584L171.746 -0.6L171.794 -0.616L171.841 -0.631L171.889 -0.648L171.936 -0.664L171.984 -0.681L172.031 -0.697L172.078 -0.714L172.125 -0.731L172.172 -0.749L172.219 -0.766L172.266 -0.784L172.313 -0.802L172.36 -0.82L172.406 -0.838L172.453 -0.857L172.499 -0.875L172.546 -0.894L172.592 -0.913L172.638 -0.933L172.685 -0.952L172.731 -0.972L172.777 -0.992L172.823 -1.012L172.869 -1.032L172.914 -1.052L172.96 -1.073L173.006 -1.094L173.051 -1.115L173.097 -1.136L173.142 -1.157L173.187 -1.179L173.232 -1.201L173.277 -1.223L173.322 -1.245L173.367 -1.267L173.412 -1.29L173.457 -1.312L173.501 -1.335L173.546 -1.358L173.59 -1.382L173.635 -1.405L173.679 -1.429L173.723 -1.453L173.767 -1.477L173.811 -1.501L173.855 -1.525L173.898 -1.55L173.942 -1.574L173.986 -1.599L174.029 -1.624L174.072 -1.65L174.115 -1.675L174.158 -1.701L174.201 -1.727L174.244 -1.753L174.287 -1.779L174.33 -1.805L174.372 -1.832L174.415 -1.858L174.457 -1.885L174.499 -1.912L174.541 -1.94L174.583 -1.967L174.625 -1.995L174.667 -2.022L174.708 -2.05L174.75 -2.078L174.791 -2.107L174.833 -2.135L174.874 -2.164L174.915 -2.193L174.956 -2.222L174.997 -2.251L175.037 -2.28L175.078 -2.31L175.118 -2.339L175.158 -2.369L175.199 -2.399L175.239 -2.429L175.279 -2.459L175.318 -2.49L175.358 -2.521L175.398 -2.551L175.437 -2.582L175.476 -2.614L175.515 -2.645L175.554 -2.676L175.593 -2.708L175.632 -2.74L175.671 -2.772L175.709 -2.804L175.748 -2.836L175.786 -2.869L175.824 -2.901L175.862 -2.934L175.9 -2.967L175.937 -3L175.975 -3.033L176.012 -3.067L176.049 -3.1L176.087 -3.134L176.123 -3.168L176.16 -3.202L176.197 -3.236L176.234 -3.27L176.27 -3.305L176.306 -3.339L176.342 -3.374L176.378 -3.409L176.414 -3.444L176.45 -3.479L176.485 -3.515L176.521 -3.55L176.556 -3.586L176.591 -3.622L176.626 -3.658L176.661 -3.694L176.695 -3.73L176.73 -3.766L176.764 -3.803L176.798 -3.84L176.832 -3.877L176.866 -3.913L176.9 -3.951L176.933 -3.988L176.967 -4.025L177 -4.063L177.033 -4.1L177.066 -4.138L177.099 -4.176L177.131 -4.214L177.164 -4.252L177.196 -4.291L177.228 -4.329L177.26 -4.368L177.292 -4.407L177.324 -4.446L177.355 -4.485L177.386 -4.524L177.418 -4.563L177.449 -4.602L177.479 -4.642L177.51 -4.682L177.541 -4.721L177.571 -4.761L177.601 -4.801L177.631 -4.842L177.661 -4.882L177.69 -4.922L177.72 -4.963L177.749 -5.003L177.778 -5.044L177.807 -5.085L177.836 -5.126L177.865 -5.167L177.893 -5.209L177.922 -5.25L177.95 -5.292L177.978 -5.333L178.005 -5.375L178.033 -5.417L178.06 -5.459L178.088 -5.501L178.115 -5.543L178.142 -5.585L178.168 -5.628L178.195 -5.67L178.221 -5.713L178.247 -5.756L178.273 -5.799L178.299 -5.842L178.325 -5.885L178.35 -5.928L178.376 -5.971L178.401 -6.014L178.426 -6.058L178.45 -6.102L178.475 -6.145L178.499 -6.189L178.523 -6.233L178.547 -6.277L178.571 -6.321L178.595 -6.365L178.618 -6.41L178.642 -6.454L178.665 -6.499L178.688 -6.543L178.71 -6.588L178.733 -6.633L178.755 -6.678L178.777 -6.723L178.799 -6.768L178.821 -6.813L178.843 -6.858L178.864 -6.903L178.885 -6.949L178.906 -6.994L178.927 -7.04L178.948 -7.086L178.968 -7.131L178.988 -7.177L179.008 -7.223L179.028 -7.269L179.048 -7.315L179.067 -7.362L179.087 -7.408L179.106 -7.454L179.125 -7.501L179.143 -7.547L179.162 -7.594L179.18 -7.64L179.198 -7.687L179.216 -7.734L179.234 -7.781L179.251 -7.828L179.269 -7.875L179.286 -7.922L179.303 -7.969L179.319 -8.016L179.336 -8.064L179.352 -8.111L179.369 -8.159L179.384 -8.206L179.4 -8.254L179.416 -8.301L179.431 -8.349L179.446 -8.397L179.461 -8.445L179.476 -8.493L179.491 -8.541L179.505 -8.589L179.519 -8.637L179.533 -8.685L179.547 -8.733L179.56 -8.781L179.574 -8.83L179.587 -8.878L179.6 -8.926L179.612 -8.975L179.625 -9.023L179.637 -9.072L179.649 -9.121L179.661 -9.169L179.673 -9.218L179.685 -9.267L179.696 -9.316L179.707 -9.365L179.718 -9.414L179.729 -9.463L179.739 -9.512L179.749 -9.561L179.76 -9.61L179.769 -9.659L179.779 -9.708L179.789 -9.757L179.798 -9.807L179.807 -9.856L179.816 -9.905L179.824 -9.955L179.833 -10.004L179.841 -10.053L179.849 -10.103L179.857 -10.153L179.865 -10.202L179.872 -10.252L179.879 -10.301L179.886 -10.351L179.893 -10.401L179.9 -10.45L179.906 -10.5L179.912 -10.55L179.918 -10.6L179.924 -10.649L179.929 -10.699L179.935 -10.749L179.94 -10.799L179.945 -10.849L179.949 -10.899L179.954 -10.949L179.958 -10.999L179.962 -11.048L179.966 -11.098L179.97 -11.148L179.973 -11.198L179.976 -11.249L179.979 -11.299L179.982 -11.349L179.985 -11.399L179.987 -11.449L179.99 -11.499L179.992 -11.549L179.993 -11.599L179.995 -11.649L179.996 -11.699L179.997 -11.749L179.998 -11.799L179.999 -11.85L180 -11.9L180 -11.95L180 -12L180 -159.5L180 -159.55L180 -159.6L179.999 -159.65L179.998 -159.701L179.997 -159.751L179.996 -159.801L179.995 -159.851L179.993 -159.901L179.992 -159.951L179.99 -160.001L179.987 -160.051L179.985 -160.101L179.982 -160.151L179.979 -160.201L179.976 -160.251L179.973 -160.302L179.97 -160.352L179.966 -160.402L179.962 -160.452L179.958 -160.501L179.954 -160.551L179.949 -160.601L179.945 -160.651L179.94 -160.701L179.935 -160.751L179.929 -160.801L179.924 -160.851L179.918 -160.9L179.912 -160.95L179.906 -161L179.9 -161.05L179.893 -161.099L179.886 -161.149L179.879 -161.199L179.872 -161.248L179.865 -161.298L179.857 -161.347L179.849 -161.397L179.841 -161.447L179.833 -161.496L179.824 -161.545L179.816 -161.595L179.807 -161.644L179.798 -161.693L179.789 -161.743L179.779 -161.792L179.769 -161.841L179.76 -161.89L179.749 -161.939L179.739 -161.988L179.729 -162.037L179.718 -162.086L179.707 -162.135L179.696 -162.184L179.685 -162.233L179.673 -162.282L179.661 -162.331L179.649 -162.379L179.637 -162.428L179.625 -162.477L179.612 -162.525L179.6 -162.574L179.587 -162.622L179.574 -162.67L179.56 -162.719L179.547 -162.767L179.533 -162.815L179.519 -162.863L179.505 -162.911L179.491 -162.959L179.476 -163.007L179.461 -163.055L179.446 -163.103L179.431 -163.151L179.416 -163.199L179.4 -163.246L179.384 -163.294L179.369 -163.341L179.352 -163.389L179.336 -163.436L179.319 -163.484L179.303 -163.531L179.286 -163.578L179.269 -163.625L179.251 -163.672L179.234 -163.719L179.216 -163.766L179.198 -163.813L179.18 -163.86L179.162 -163.906L179.143 -163.953L179.125 -163.999L179.106 -164.046L179.087 -164.092L179.067 -164.138L179.048 -164.185L179.028 -164.231L179.008 -164.277L178.988 -164.323L178.968 -164.369L178.948 -164.414L178.927 -164.46L178.906 -164.506L178.885 -164.551L178.864 -164.597L178.843 -164.642L178.821 -164.687L178.799 -164.732L178.777 -164.777L178.755 -164.822L178.733 -164.867L178.71 -164.912L178.688 -164.957L178.665 -165.001L178.642 -165.046L178.618 -165.09L178.595 -165.135L178.571 -165.179L178.547 -165.223L178.523 -165.267L178.499 -165.311L178.475 -165.355L178.45 -165.398L178.426 -165.442L178.401 -165.486L178.376 -165.529L178.35 -165.572L178.325 -165.615L178.299 -165.658L178.273 -165.701L178.247 -165.744L178.221 -165.787L178.195 -165.83L178.168 -165.872L178.142 -165.915L178.115 -165.957L178.088 -165.999L178.06 -166.041L178.033 -166.083L178.005 -166.125L177.978 -166.167L177.95 -166.208L177.922 -166.25L177.893 -166.291L177.865 -166.333L177.836 -166.374L177.807 -166.415L177.778 -166.456L177.749 -166.497L177.72 -166.537L177.69 -166.578L177.661 -166.618L177.631 -166.658L177.601 -166.699L177.571 -166.739L177.541 -166.779L177.51 -166.818L177.479 -166.858L177.449 -166.898L177.418 -166.937L177.386 -166.976L177.355 -167.015L177.324 -167.054L177.292 -167.093L177.26 -167.132L177.228 -167.171L177.196 -167.209L177.164 -167.248L177.131 -167.286L177.099 -167.324L177.066 -167.362L177.033 -167.4L177 -167.437L176.967 -167.475L176.933 -167.512L176.9 -167.549L176.866 -167.587L176.832 -167.623L176.798 -167.66L176.764 -167.697L176.73 -167.734L176.695 -167.77L176.661 -167.806L176.626 -167.842L176.591 -167.878L176.556 -167.914L176.521 -167.95L176.485 -167.985L176.45 -168.021L176.414 -168.056L176.378 -168.091L176.342 -168.126L176.306 -168.161L176.27 -168.195L176.234 -168.23L176.197 -168.264L176.16 -168.298L176.123 -168.332L176.087 -168.366L176.049 -168.4L176.012 -168.433L175.975 -168.467L175.937 -168.5L175.9 -168.533L175.862 -168.566L175.824 -168.599L175.786 -168.631L175.748 -168.664L175.709 -168.696L175.671 -168.728L175.632 -168.76L175.593 -168.792L175.554 -168.824L175.515 -168.855L175.476 -168.886L175.437 -168.918L175.398 -168.949L175.358 -168.979L175.318 -169.01L175.279 -169.041L175.239 -169.071L175.199 -169.101L175.158 -169.131L175.118 -169.161L175.078 -169.19L175.037 -169.22L174.997 -169.249L174.956 -169.278L174.915 -169.307L174.874 -169.336L174.833 -169.365L174.791 -169.393L174.75 -169.422L174.708 -169.45L174.667 -169.478L174.625 -169.505L174.583 -169.533L174.541 -169.56L174.499 -169.588L174.457 -169.615L174.415 -169.642L174.372 -169.668L174.33 -169.695L174.287 -169.721L174.244 -169.747L174.201 -169.773L174.158 -169.799L174.115 -169.825L174.072 -169.85L174.029 -169.876L173.986 -169.901L173.942 -169.926L173.898 -169.95L173.855 -169.975L173.811 -169.999L173.767 -170.023L173.723 -170.047L173.679 -170.071L173.635 -170.095L173.59 -170.118L173.546 -170.142L173.501 -170.165L173.457 -170.188L173.412 -170.21L173.367 -170.233L173.322 -170.255L173.277 -170.277L173.232 -170.299L173.187 -170.321L173.142 -170.343L173.097 -170.364L173.051 -170.385L173.006 -170.406L172.96 -170.427L172.914 -170.448L172.869 -170.468L172.823 -170.488L172.777 -170.508L172.731 -170.528L172.685 -170.548L172.638 -170.567L172.592 -170.587L172.546 -170.606L172.499 -170.625L172.453 -170.643L172.406 -170.662L172.36 -170.68L172.313 -170.698L172.266 -170.716L172.219 -170.734L172.172 -170.751L172.125 -170.769L172.078 -170.786L172.031 -170.803L171.984 -170.819L171.936 -170.836L171.889 -170.852L171.841 -170.869L171.794 -170.884L171.746 -170.9L171.699 -170.916L171.651 -170.931L171.603 -170.946L171.555 -170.961L171.507 -170.976L171.459 -170.991L171.411 -171.005L171.363 -171.019L171.315 -171.033L171.267 -171.047L171.219 -171.06L171.17 -171.074L171.122 -171.087L171.074 -171.1L171.025 -171.112L170.977 -171.125L170.928 -171.137L170.879 -171.149L170.831 -171.161L170.782 -171.173L170.733 -171.185L170.684 -171.196L170.635 -171.207L170.586 -171.218L170.537 -171.229L170.488 -171.239L170.439 -171.249L170.39 -171.26L170.341 -171.269L170.292 -171.279L170.243 -171.289L170.193 -171.298L170.144 -171.307L170.095 -171.316L170.045 -171.324L169.996 -171.333L169.947 -171.341L169.897 -171.349L169.847 -171.357L169.798 -171.365L169.748 -171.372L169.699 -171.379L169.649 -171.386L169.599 -171.393L169.55 -171.4L169.5 -171.406L169.45 -171.412L169.4 -171.418L169.351 -171.424L169.301 -171.429L169.251 -171.435L169.201 -171.44L169.151 -171.445L169.101 -171.449L169.051 -171.454L169.001 -171.458L168.952 -171.462L168.902 -171.466L168.852 -171.47L168.802 -171.473L168.751 -171.476L168.701 -171.479L168.651 -171.482L168.601 -171.485L168.551 -171.487L168.501 -171.49L168.451 -171.492L168.401 -171.493L168.351 -171.495L168.301 -171.496L168.251 -171.497L168.201 -171.498L168.15 -171.499L168.1 -171.5L168.05 -171.5L168 -171.5L12 -171.5L11.95 -171.5L11.9 -171.5L11.85 -171.499L11.799 -171.498L11.749 -171.497L11.699 -171.496L11.649 -171.495L11.599 -171.493L11.549 -171.492L11.499 -171.49L11.449 -171.487L11.399 -171.485L11.349 -171.482L11.299 -171.479L11.249 -171.476L11.198 -171.473L11.148 -171.47L11.098 -171.466L11.048 -171.462L10.999 -171.458L10.949 -171.454L10.899 -171.449L10.849 -171.445L10.799 -171.44L10.749 -171.435L10.699 -171.429L10.649 -171.424L10.6 -171.418L10.55 -171.412L10.5 -171.406L10.45 -171.4L10.401 -171.393L10.351 -171.386L10.301 -171.379L10.252 -171.372L10.202 -171.365L10.153 -171.357L10.103 -171.349L10.053 -171.341L10.004 -171.333L9.955 -171.324L9.905 -171.316L9.856 -171.307L9.807 -171.298L9.757 -171.289L9.708 -171.279L9.659 -171.269L9.61 -171.26L9.561 -171.249L9.512 -171.239L9.463 -171.229L9.414 -171.218L9.365 -171.207L9.316 -171.196L9.267 -171.185L9.218 -171.173L9.169 -171.161L9.121 -171.149L9.072 -171.137L9.023 -171.125L8.975 -171.112L8.926 -171.1L8.878 -171.087L8.83 -171.074L8.781 -171.06L8.733 -171.047L8.685 -171.033L8.637 -171.019L8.589 -171.005L8.541 -170.991L8.493 -170.976L8.445 -170.961L8.397 -170.946L8.349 -170.931L8.301 -170.916L8.254 -170.9L8.206 -170.884L8.159 -170.869L8.111 -170.852L8.064 -170.836L8.016 -170.819L7.969 -170.803L7.922 -170.786L7.875 -170.769L7.828 -170.751L7.781 -170.734L7.734 -170.716L7.687 -170.698L7.64 -170.68L7.594 -170.662L7.547 -170.643L7.501 -170.625L7.454 -170.606L7.408 -170.587L7.362 -170.567L7.315 -170.548L7.269 -170.528L7.223 -170.508L7.177 -170.488L7.131 -170.468L7.086 -170.448L7.04 -170.427L6.994 -170.406L6.949 -170.385L6.903 -170.364L6.858 -170.343L6.813 -170.321L6.768 -170.299L6.723 -170.277L6.678 -170.255L6.633 -170.233L6.588 -170.21L6.543 -170.188L6.499 -170.165L6.454 -170.142L6.41 -170.118L6.365 -170.095L6.321 -170.071L6.277 -170.047L6.233 -170.023L6.189 -169.999L6.145 -169.975L6.102 -169.95L6.058 -169.926L6.014 -169.901L5.971 -169.876L5.928 -169.85L5.885 -169.825L5.842 -169.799L5.799 -169.773L5.756 -169.747L5.713 -169.721L5.67 -169.695L5.628 -169.668L5.585 -169.642L5.543 -169.615L5.501 -169.588L5.459 -169.56L5.417 -169.533L5.375 -169.505L5.333 -169.478L5.292 -169.45L5.25 -169.422L5.209 -169.393L5.167 -169.365L5.126 -169.336L5.085 -169.307L5.044 -169.278L5.003 -169.249L4.963 -169.22L4.922 -169.19L4.882 -169.161L4.842 -169.131L4.801 -169.101L4.761 -169.071L4.721 -169.041L4.682 -169.01L4.642 -168.979L4.602 -168.949L4.563 -168.918L4.524 -168.886L4.485 -168.855L4.446 -168.824L4.407 -168.792L4.368 -168.76L4.329 -168.728L4.291 -168.696L4.252 -168.664L4.214 -168.631L4.176 -168.599L4.138 -168.566L4.1 -168.533L4.063 -168.5L4.025 -168.467L3.988 -168.433L3.951 -168.4L3.913 -168.366L3.877 -168.332L3.84 -168.298L3.803 -168.264L3.766 -168.23L3.73 -168.195L3.694 -168.161L3.658 -168.126L3.622 -168.091L3.586 -168.056L3.55 -168.021L3.515 -167.985L3.479 -167.95L3.444 -167.914L3.409 -167.878L3.374 -167.842L3.339 -167.806L3.305 -167.77L3.27 -167.734L3.236 -167.697L3.202 -167.66L3.168 -167.623L3.134 -167.587L3.1 -167.549L3.067 -167.512L3.033 -167.475L3 -167.437L2.967 -167.4L2.934 -167.362L2.901 -167.324L2.869 -167.286L2.836 -167.248L2.804 -167.209L2.772 -167.171L2.74 -167.132L2.708 -167.093L2.676 -167.054L2.645 -167.015L2.614 -166.976L2.582 -166.937L2.551 -166.898L2.521 -166.858L2.49 -166.818L2.459 -166.779L2.429 -166.739L2.399 -166.699L2.369 -166.658L2.339 -166.618L2.31 -166.578L2.28 -166.537L2.251 -166.497L2.222 -166.456L2.193 -166.415L2.164 -166.374L2.135 -166.333L2.107 -166.291L2.078 -166.25L2.05 -166.208L2.022 -166.167L1.995 -166.125L1.967 -166.083L1.94 -166.041L1.912 -165.999L1.885 -165.957L1.858 -165.915L1.832 -165.872L1.805 -165.83L1.779 -165.787L1.753 -165.744L1.727 -165.701L1.701 -165.658L1.675 -165.615L1.65 -165.572L1.624 -165.529L1.599 -165.486L1.574 -165.442L1.55 -165.398L1.525 -165.355L1.501 -165.311L1.477 -165.267L1.453 -165.223L1.429 -165.179L1.405 -165.135L1.382 -165.09L1.358 -165.046L1.335 -165.001L1.312 -164.957L1.29 -164.912L1.267 -164.867L1.245 -164.822L1.223 -164.777L1.201 -164.732L1.179 -164.687L1.157 -164.642L1.136 -164.597L1.115 -164.551L1.094 -164.506L1.073 -164.46L1.052 -164.414L1.032 -164.369L1.012 -164.323L0.992 -164.277L0.972 -164.231L0.952 -164.185L0.933 -164.138L0.913 -164.092L0.894 -164.046L0.875 -163.999L0.857 -163.953L0.838 -163.906L0.82 -163.86L0.802 -163.813L0.784 -163.766L0.766 -163.719L0.749 -163.672L0.731 -163.625L0.714 -163.578L0.697 -163.531L0.681 -163.484L0.664 -163.436L0.648 -163.389L0.631 -163.341L0.616 -163.294L0.6 -163.246L0.584 -163.199L0.569 -163.151L0.554 -163.103L0.539 -163.055L0.524 -163.007L0.509 -162.959L0.495 -162.911L0.481 -162.863L0.467 -162.815L0.453 -162.767L0.44 -162.719L0.426 -162.67L0.413 -162.622L0.4 -162.574L0.388 -162.525L0.375 -162.477L0.363 -162.428L0.351 -162.379L0.339 -162.331L0.327 -162.282L0.315 -162.233L0.304 -162.184L0.293 -162.135L0.282 -162.086L0.271 -162.037L0.261 -161.988L0.251 -161.939L0.24 -161.89L0.231 -161.841L0.221 -161.792L0.211 -161.743L0.202 -161.693L0.193 -161.644L0.184 -161.595L0.176 -161.545L0.167 -161.496L0.159 -161.447L0.151 -161.397L0.143 -161.347L0.135 -161.298L0.128 -161.248L0.121 -161.199L0.114 -161.149L0.107 -161.099L0.1 -161.05L0.094 -161L0.088 -160.95L0.082 -160.9L0.076 -160.851L0.071 -160.801L0.065 -160.751L0.06 -160.701L0.055 -160.651L0.051 -160.601L0.046 -160.551L0.042 -160.501L0.038 -160.452L0.034 -160.402L0.03 -160.352L0.027 -160.302L0.024 -160.251L0.021 -160.201L0.018 -160.151L0.015 -160.101L0.013 -160.051L0.01 -160.001L0.008 -159.951L0.007 -159.901L0.005 -159.851L0.004 -159.801L0.003 -159.751L0.002 -159.701L0.001 -159.65L0 -159.6L0 -159.55L0 -159.5ZM8.7 -7L8.699 -6.95L8.697 -6.9L8.693 -6.85L8.688 -6.8L8.682 -6.75L8.673 -6.701L8.664 -6.651L8.653 -6.603L8.64 -6.554L8.627 -6.506L8.611 -6.458L8.595 -6.411L8.577 -6.364L8.557 -6.318L8.536 -6.272L8.514 -6.227L8.491 -6.183L8.466 -6.139L8.44 -6.096L8.413 -6.054L8.384 -6.013L8.354 -5.973L8.324 -5.933L8.291 -5.895L8.258 -5.857L8.224 -5.82L8.189 -5.785L8.152 -5.75L8.115 -5.717L8.077 -5.684L8.037 -5.653L7.997 -5.623L7.956 -5.594L7.914 -5.567L7.872 -5.54L7.828 -5.515L7.784 -5.492L7.739 -5.469L7.694 -5.448L7.648 -5.428L7.601 -5.41L7.554 -5.393L7.506 -5.377L7.458 -5.363L7.41 -5.35L7.361 -5.339L7.312 -5.329L7.262 -5.32L7.213 -5.313L7.163 -5.308L7.113 -5.304L7.063 -5.301L7.013 -5.3L6.962 -5.3L6.912 -5.302L6.862 -5.306L6.812 -5.31L6.763 -5.317L6.713 -5.324L6.664 -5.334L6.615 -5.344L6.566 -5.356L6.518 -5.37L6.47 -5.385L6.422 -5.401L6.376 -5.419L6.329 -5.438L6.283 -5.458L6.238 -5.48L6.194 -5.503L6.15 -5.528L6.107 -5.553L6.065 -5.58L6.023 -5.609L5.983 -5.638L5.943 -5.669L5.904 -5.7L5.866 -5.733L5.829 -5.767L5.793 -5.802L5.759 -5.838L5.725 -5.876L5.692 -5.914L5.661 -5.953L5.631 -5.993L5.601 -6.033L5.574 -6.075L5.547 -6.118L5.522 -6.161L5.497 -6.205L5.475 -6.25L5.453 -6.295L5.433 -6.341L5.414 -6.387L5.397 -6.434L5.381 -6.482L5.366 -6.53L5.353 -6.578L5.341 -6.627L5.331 -6.676L5.322 -6.725L5.315 -6.775L5.309 -6.825L5.305 -6.875L5.302 -6.925L5.3 -6.975L5.3 -7.025L5.302 -7.075L5.305 -7.125L5.309 -7.175L5.315 -7.225L5.322 -7.275L5.331 -7.324L5.341 -7.373L5.353 -7.422L5.366 -7.47L5.381 -7.518L5.397 -7.566L5.414 -7.613L5.433 -7.659L5.453 -7.705L5.475 -7.75L5.497 -7.795L5.522 -7.839L5.547 -7.882L5.574 -7.925L5.601 -7.967L5.631 -8.007L5.661 -8.047L5.692 -8.086L5.725 -8.124L5.759 -8.162L5.793 -8.198L5.829 -8.233L5.866 -8.267L5.904 -8.3L5.943 -8.331L5.983 -8.362L6.023 -8.391L6.065 -8.42L6.107 -8.447L6.15 -8.472L6.194 -8.497L6.238 -8.52L6.283 -8.542L6.329 -8.562L6.376 -8.581L6.422 -8.599L6.47 -8.615L6.518 -8.63L6.566 -8.644L6.615 -8.656L6.664 -8.666L6.713 -8.676L6.763 -8.683L6.812 -8.69L6.862 -8.694L6.912 -8.698L6.962 -8.7L7.013 -8.7L7.063 -8.699L7.113 -8.696L7.163 -8.692L7.213 -8.687L7.262 -8.68L7.312 -8.671L7.361 -8.661L7.41 -8.65L7.458 -8.637L7.506 -8.623L7.554 -8.607L7.601 -8.59L7.648 -8.572L7.694 -8.552L7.739 -8.531L7.784 -8.508L7.828 -8.485L7.872 -8.46L7.914 -8.433L7.956 -8.406L7.997 -8.377L8.037 -8.347L8.077 -8.316L8.115 -8.283L8.152 -8.25L8.189 -8.215L8.224 -8.18L8.258 -8.143L8.291 -8.105L8.324 -8.067L8.354 -8.027L8.384 -7.987L8.413 -7.946L8.44 -7.904L8.466 -7.861L8.491 -7.817L8.514 -7.773L8.536 -7.728L8.557 -7.682L8.577 -7.636L8.595 -7.589L8.611 -7.542L8.627 -7.494L8.64 -7.446L8.653 -7.397L8.664 -7.349L8.673 -7.299L8.682 -7.25L8.688 -7.2L8.693 -7.15L8.697 -7.1L8.699 -7.05L8.7 -7ZM51.85 -19.5L51.849 -19.45L51.846 -19.4L51.842 -19.35L51.835 -19.3L51.827 -19.25L51.817 -19.201L51.805 -19.153L51.791 -19.104L51.775 -19.057L51.758 -19.01L51.739 -18.963L51.718 -18.917L51.695 -18.873L51.671 -18.829L51.645 -18.786L51.618 -18.743L51.589 -18.702L51.559 -18.662L51.527 -18.624L51.494 -18.586L51.459 -18.55L51.423 -18.515L51.386 -18.481L51.347 -18.449L51.308 -18.418L51.267 -18.389L51.225 -18.361L51.182 -18.335L51.138 -18.311L51.094 -18.288L51.048 -18.266L51.002 -18.247L50.955 -18.229L50.908 -18.213L50.859 -18.199L50.811 -18.186L50.762 -18.176L50.712 -18.167L50.663 -18.16L50.613 -18.155L50.563 -18.151L50.513 -18.15L50.462 -18.151L50.412 -18.153L50.362 -18.157L50.312 -18.163L50.263 -18.171L50.214 -18.181L50.165 -18.192L50.116 -18.206L50.069 -18.221L50.021 -18.238L49.975 -18.256L49.929 -18.277L49.884 -18.299L49.84 -18.323L49.796 -18.348L49.754 -18.375L49.713 -18.403L49.672 -18.433L49.633 -18.465L49.595 -18.498L49.559 -18.532L49.523 -18.568L49.49 -18.605L49.457 -18.643L49.426 -18.682L49.396 -18.723L49.368 -18.764L49.341 -18.807L49.317 -18.851L49.293 -18.895L49.272 -18.94L49.252 -18.986L49.233 -19.033L49.217 -19.08L49.202 -19.128L49.189 -19.177L49.178 -19.226L49.169 -19.275L49.161 -19.325L49.156 -19.375L49.152 -19.425L49.15 -19.475L49.15 -19.525L49.152 -19.575L49.156 -19.625L49.161 -19.675L49.169 -19.725L49.178 -19.774L49.189 -19.823L49.202 -19.872L49.217 -19.92L49.233 -19.967L49.252 -20.014L49.272 -20.06L49.293 -20.105L49.317 -20.149L49.341 -20.193L49.368 -20.236L49.396 -20.277L49.426 -20.318L49.457 -20.357L49.49 -20.395L49.523 -20.432L49.559 -20.468L49.595 -20.502L49.633 -20.535L49.672 -20.567L49.713 -20.597L49.754 -20.625L49.796 -20.652L49.84 -20.677L49.884 -20.701L49.929 -20.723L49.975 -20.744L50.021 -20.762L50.069 -20.779L50.116 -20.794L50.165 -20.808L50.214 -20.819L50.263 -20.829L50.312 -20.837L50.362 -20.843L50.412 -20.847L50.462 -20.849L50.513 -20.85L50.563 -20.849L50.613 -20.845L50.663 -20.84L50.712 -20.833L50.762 -20.824L50.811 -20.814L50.859 -20.801L50.908 -20.787L50.955 -20.771L51.002 -20.753L51.048 -20.734L51.094 -20.712L51.138 -20.689L51.182 -20.665L51.225 -20.639L51.267 -20.611L51.308 -20.582L51.347 -20.551L51.386 -20.519L51.423 -20.485L51.459 -20.45L51.494 -20.414L51.527 -20.376L51.559 -20.338L51.589 -20.298L51.618 -20.257L51.645 -20.214L51.671 -20.171L51.695 -20.127L51.718 -20.083L51.739 -20.037L51.758 -19.99L51.775 -19.943L51.791 -19.896L51.805 -19.847L51.817 -19.799L51.827 -19.75L51.835 -19.7L51.842 -19.65L51.846 -19.6L51.849 -19.55L51.85 -19.5ZM51.5 -26.5L87.5 -26.5L87.55 -26.499L87.6 -26.497L87.65 -26.492L87.7 -26.487L87.749 -26.479L87.799 -26.47L87.848 -26.459L87.896 -26.447L87.944 -26.433L87.992 -26.417L88.039 -26.4L88.086 -26.381L88.131 -26.361L88.177 -26.339L88.221 -26.315L88.264 -26.291L88.307 -26.264L88.349 -26.237L88.39 -26.208L88.43 -26.177L88.468 -26.145L88.506 -26.112L88.543 -26.078L88.578 -26.043L88.612 -26.006L88.645 -25.968L88.677 -25.93L88.708 -25.89L88.737 -25.849L88.764 -25.807L88.791 -25.764L88.815 -25.721L88.839 -25.677L88.861 -25.631L88.881 -25.586L88.9 -25.539L88.917 -25.492L88.933 -25.444L88.947 -25.396L88.959 -25.348L88.97 -25.299L88.979 -25.249L88.987 -25.2L88.992 -25.15L88.997 -25.1L88.999 -25.05L89 -25L88.999 -24.95L88.997 -24.9L88.992 -24.85L88.987 -24.8L88.979 -24.751L88.97 -24.701L88.959 -24.652L88.947 -24.604L88.933 -24.556L88.917 -24.508L88.9 -24.461L88.881 -24.414L88.861 -24.369L88.839 -24.323L88.815 -24.279L88.791 -24.236L88.764 -24.193L88.737 -24.151L88.708 -24.11L88.677 -24.07L88.645 -24.032L88.612 -23.994L88.578 -23.957L88.543 -23.922L88.506 -23.888L88.468 -23.855L88.43 -23.823L88.39 -23.792L88.349 -23.763L88.307 -23.736L88.264 -23.709L88.221 -23.685L88.177 -23.661L88.131 -23.639L88.086 -23.619L88.039 -23.6L87.992 -23.583L87.944 -23.567L87.896 -23.553L87.848 -23.541L87.799 -23.53L87.749 -23.521L87.7 -23.513L87.65 -23.508L87.6 -23.503L87.55 -23.501L87.5 -23.5L51.5 -23.5L51.45 -23.501L51.4 -23.503L51.35 -23.508L51.3 -23.513L51.251 -23.521L51.201 -23.53L51.152 -23.541L51.104 -23.553L51.056 -23.567L51.008 -23.583L50.961 -23.6L50.914 -23.619L50.869 -23.639L50.823 -23.661L50.779 -23.685L50.736 -23.709L50.693 -23.736L50.651 -23.763L50.61 -23.792L50.57 -23.823L50.532 -23.855L50.494 -23.888L50.457 -23.922L50.422 -23.957L50.388 -23.994L50.355 -24.032L50.323 -24.07L50.292 -24.11L50.263 -24.151L50.236 -24.193L50.209 -24.236L50.185 -24.279L50.161 -24.323L50.139 -24.369L50.119 -24.414L50.1 -24.461L50.083 -24.508L50.067 -24.556L50.053 -24.604L50.041 -24.652L50.03 -24.701L50.021 -24.751L50.013 -24.8L50.008 -24.85L50.003 -24.9L50.001 -24.95L50 -25L50.001 -25.05L50.003 -25.1L50.008 -25.15L50.013 -25.2L50.021 -25.249L50.03 -25.299L50.041 -25.348L50.053 -25.396L50.067 -25.444L50.083 -25.492L50.1 -25.539L50.119 -25.586L50.139 -25.631L50.161 -25.677L50.185 -25.721L50.209 -25.764L50.236 -25.807L50.263 -25.849L50.292 -25.89L50.323 -25.93L50.355 -25.968L50.388 -26.006L50.422 -26.043L50.457 -26.078L50.494 -26.112L50.532 -26.145L50.57 -26.177L50.61 -26.208L50.651 -26.237L50.693 -26.264L50.736 -26.291L50.779 -26.315L50.823 -26.339L50.869 -26.361L50.914 -26.381L50.961 -26.4L51.008 -26.417L51.056 -26.433L51.104 -26.447L51.152 -26.459L51.201 -26.47L51.251 -26.479L51.3 -26.487L51.35 -26.492L51.4 -26.497L51.45 -26.499L51.5 -26.5ZM51.5 -34L87.5 -34L87.55 -33.999L87.6 -33.997L87.65 -33.992L87.7 -33.987L87.749 -33.979L87.799 -33.97L87.848 -33.959L87.896 -33.947L87.944 -33.933L87.992 -33.917L88.039 -33.9L88.086 -33.881L88.131 -33.861L88.177 -33.839L88.221 -33.815L88.264 -33.791L88.307 -33.764L88.349 -33.737L88.39 -33.708L88.43 -33.677L88.468 -33.645L88.506 -33.612L88.543 -33.578L88.578 -33.543L88.612 -33.506L88.645 -33.468L88.677 -33.43L88.708 -33.39L88.737 -33.349L88.764 -33.307L88.791 -33.264L88.815 -33.221L88.839 -33.177L88.861 -33.131L88.881 -33.086L88.9 -33.039L88.917 -32.992L88.933 -32.944L88.947 -32.896L88.959 -32.848L88.97 -32.799L88.979 -32.749L88.987 -32.7L88.992 -32.65L88.997 -32.6L88.999 -32.55L89 -32.5L88.999 -32.45L88.997 -32.4L88.992 -32.35L88.987 -32.3L88.979 -32.251L88.97 -32.201L88.959 -32.152L88.947 -32.104L88.933 -32.056L88.917 -32.008L88.9 -31.961L88.881 -31.914L88.861 -31.869L88.839 -31.823L88.815 -31.779L88.791 -31.736L88.764 -31.693L88.737 -31.651L88.708 -31.61L88.677 -31.57L88.645 -31.532L88.612 -31.494L88.578 -31.457L88.543 -31.422L88.506 -31.388L88.468 -31.355L88.43 -31.323L88.39 -31.292L88.349 -31.263L88.307 -31.236L88.264 -31.209L88.221 -31.185L88.177 -31.161L88.131 -31.139L88.086 -31.119L88.039 -31.1L87.992 -31.083L87.944 -31.067L87.896 -31.053L87.848 -31.041L87.799 -31.03L87.749 -31.021L87.7 -31.013L87.65 -31.008L87.6 -31.003L87.55 -31.001L87.5 -31L51.5 -31L51.45 -31.001L51.4 -31.003L51.35 -31.008L51.3 -31.013L51.251 -31.021L51.201 -31.03L51.152 -31.041L51.104 -31.053L51.056 -31.067L51.008 -31.083L50.961 -31.1L50.914 -31.119L50.869 -31.139L50.823 -31.161L50.779 -31.185L50.736 -31.209L50.693 -31.236L50.651 -31.263L50.61 -31.292L50.57 -31.323L50.532 -31.355L50.494 -31.388L50.457 -31.422L50.422 -31.457L50.388 -31.494L50.355 -31.532L50.323 -31.57L50.292 -31.61L50.263 -31.651L50.236 -31.693L50.209 -31.736L50.185 -31.779L50.161 -31.823L50.139 -31.869L50.119 -31.914L50.1 -31.961L50.083 -32.008L50.067 -32.056L50.053 -32.104L50.041 -32.152L50.03 -32.201L50.021 -32.251L50.013 -32.3L50.008 -32.35L50.003 -32.4L50.001 -32.45L50 -32.5L50.001 -32.55L50.003 -32.6L50.008 -32.65L50.013 -32.7L50.021 -32.749L50.03 -32.799L50.041 -32.848L50.053 -32.896L50.067 -32.944L50.083 -32.992L50.1 -33.039L50.119 -33.086L50.139 -33.131L50.161 -33.177L50.185 -33.221L50.209 -33.264L50.236 -33.307L50.263 -33.349L50.292 -33.39L50.323 -33.43L50.355 -33.468L50.388 -33.506L50.422 -33.543L50.457 -33.578L50.494 -33.612L50.532 -33.645L50.57 -33.677L50.61 -33.708L50.651 -33.737L50.693 -33.764L50.736 -33.791L50.779 -33.815L50.823 -33.839L50.869 -33.861L50.914 -33.881L50.961 -33.9L51.008 -33.917L51.056 -33.933L51.104 -33.947L51.152 -33.959L51.201 -33.97L51.251 -33.979L51.3 -33.987L51.35 -33.992L51.4 -33.997L51.45 -33.999L51.5 -34ZM51.5 -41.5L87.5 -41.5L87.55 -41.499L87.6 -41.497L87.65 -41.492L87.7 -41.487L87.749 -41.479L87.799 -41.47L87.848 -41.459L87.896 -41.447L87.944 -41.433L87.992 -41.417L88.039 -41.4L88.086 -41.381L88.131 -41.361L88.177 -41.339L88.221 -41.315L88.264 -41.291L88.307 -41.264L88.349 -41.237L88.39 -41.208L88.43 -41.177L88.468 -41.145L88.506 -41.112L88.543 -41.078L88.578 -41.043L88.612 -41.006L88.645 -40.968L88.677 -40.93L88.708 -40.89L88.737 -40.849L88.764 -40.807L88.791 -40.764L88.815 -40.721L88.839 -40.677L88.861 -40.631L88.881 -40.586L88.9 -40.539L88.917 -40.492L88.933 -40.444L88.947 -40.396L88.959 -40.348L88.97 -40.299L88.979 -40.249L88.987 -40.2L88.992 -40.15L88.997 -40.1L88.999 -40.05L89 -40L88.999 -39.95L88.997 -39.9L88.992 -39.85L88.987 -39.8L88.979 -39.751L88.97 -39.701L88.959 -39.652L88.947 -39.604L88.933 -39.556L88.917 -39.508L88.9 -39.461L88.881 -39.414L88.861 -39.369L88.839 -39.323L88.815 -39.279L88.791 -39.236L88.764 -39.193L88.737 -39.151L88.708 -39.11L88.677 -39.07L88.645 -39.032L88.612 -38.994L88.578 -38.957L88.543 -38.922L88.506 -38.888L88.468 -38.855L88.43 -38.823L88.39 -38.792L88.349 -38.763L88.307 -38.736L88.264 -38.709L88.221 -38.685L88.177 -38.661L88.131 -38.639L88.086 -38.619L88.039 -38.6L87.992 -38.583L87.944 -38.567L87.896 -38.553L87.848 -38.541L87.799 -38.53L87.749 -38.521L87.7 -38.513L87.65 -38.508L87.6 -38.503L87.55 -38.501L87.5 -38.5L51.5 -38.5L51.45 -38.501L51.4 -38.503L51.35 -38.508L51.3 -38.513L51.251 -38.521L51.201 -38.53L51.152 -38.541L51.104 -38.553L51.056 -38.567L51.008 -38.583L50.961 -38.6L50.914 -38.619L50.869 -38.639L50.823 -38.661L50.779 -38.685L50.736 -38.709L50.693 -38.736L50.651 -38.763L50.61 -38.792L50.57 -38.823L50.532 -38.855L50.494 -38.888L50.457 -38.922L50.422 -38.957L50.388 -38.994L50.355 -39.032L50.323 -39.07L50.292 -39.11L50.263 -39.151L50.236 -39.193L50.209 -39.236L50.185 -39.279L50.161 -39.323L50.139 -39.369L50.119 -39.414L50.1 -39.461L50.083 -39.508L50.067 -39.556L50.053 -39.604L50.041 -39.652L50.03 -39.701L50.021 -39.751L50.013 -39.8L50.008 -39.85L50.003 -39.9L50.001 -39.95L50 -40L50.001 -40.05L50.003 -40.1L50.008 -40.15L50.013 -40.2L50.021 -40.249L50.03 -40.299L50.041 -40.348L50.053 -40.396L50.067 -40.444L50.083 -40.492L50.1 -40.539L50.119 -40.586L50.139 -40.631L50.161 -40.677L50.185 -40.721L50.209 -40.764L50.236 -40.807L50.263 -40.849L50.292 -40.89L50.323 -40.93L50.355 -40.968L50.388 -41.006L50.422 -41.043L50.457 -41.078L50.494 -41.112L50.532 -41.145L50.57 -41.177L50.61 -41.208L50.651 -41.237L50.693 -41.264L50.736 -41.291L50.779 -41.315L50.823 -41.339L50.869 -41.361L50.914 -41.381L50.961 -41.4L51.008 -41.417L51.056 -41.433L51.104 -41.447L51.152 -41.459L51.201 -41.47L51.251 -41.479L51.3 -41.487L51.35 -41.492L51.4 -41.497L51.45 -41.499L51.5 -41.5ZM51.5 -49L87.5 -49L87.55 -48.999L87.6 -48.997L87.65 -48.992L87.7 -48.987L87.749 -48.979L87.799 -48.97L87.848 -48.959L87.896 -48.947L87.944 -48.933L87.992 -48.917L88.039 -48.9L88.086 -48.881L88.131 -48.861L88.177 -48.839L88.221 -48.815L88.264 -48.791L88.307 -48.764L88.349 -48.737L88.39 -48.708L88.43 -48.677L88.468 -48.645L88.506 -48.612L88.543 -48.578L88.578 -48.543L88.612 -48.506L88.645 -48.468L88.677 -48.43L88.708 -48.39L88.737 -48.349L88.764 -48.307L88.791 -48.264L88.815 -48.221L88.839 -48.177L88.861 -48.131L88.881 -48.086L88.9 -48.039L88.917 -47.992L88.933 -47.944L88.947 -47.896L88.959 -47.848L88.97 -47.799L88.979 -47.749L88.987 -47.7L88.992 -47.65L88.997 -47.6L88.999 -47.55L89 -47.5L88.999 -47.45L88.997 -47.4L88.992 -47.35L88.987 -47.3L88.979 -47.251L88.97 -47.201L88.959 -47.152L88.947 -47.104L88.933 -47.056L88.917 -47.008L88.9 -46.961L88.881 -46.914L88.861 -46.869L88.839 -46.823L88.815 -46.779L88.791 -46.736L88.764 -46.693L88.737 -46.651L88.708 -46.61L88.677 -46.57L88.645 -46.532L88.612 -46.494L88.578 -46.457L88.543 -46.422L88.506 -46.388L88.468 -46.355L88.43 -46.323L88.39 -46.292L88.349 -46.263L88.307 -46.236L88.264 -46.209L88.221 -46.185L88.177 -46.161L88.131 -46.139L88.086 -46.119L88.039 -46.1L87.992 -46.083L87.944 -46.067L87.896 -46.053L87.848 -46.041L87.799 -46.03L87.749 -46.021L87.7 -46.013L87.65 -46.008L87.6 -46.003L87.55 -46.001L87.5 -46L51.5 -46L51.45 -46.001L51.4 -46.003L51.35 -46.008L51.3 -46.013L51.251 -46.021L51.201 -46.03L51.152 -46.041L51.104 -46.053L51.056 -46.067L51.008 -46.083L50.961 -46.1L50.914 -46.119L50.869 -46.139L50.823 -46.161L50.779 -46.185L50.736 -46.209L50.693 -46.236L50.651 -46.263L50.61 -46.292L50.57 -46.323L50.532 -46.355L50.494 -46.388L50.457 -46.422L50.422 -46.457L50.388 -46.494L50.355 -46.532L50.323 -46.57L50.292 -46.61L50.263 -46.651L50.236 -46.693L50.209 -46.736L50.185 -46.779L50.161 -46.823L50.139 -46.869L50.119 -46.914L50.1 -46.961L50.083 -47.008L50.067 -47.056L50.053 -47.104L50.041 -47.152L50.03 -47.201L50.021 -47.251L50.013 -47.3L50.008 -47.35L50.003 -47.4L50.001 -47.45L50 -47.5L50.001 -47.55L50.003 -47.6L50.008 -47.65L50.013 -47.7L50.021 -47.749L50.03 -47.799L50.041 -47.848L50.053 -47.896L50.067 -47.944L50.083 -47.992L50.1 -48.039L50.119 -48.086L50.139 -48.131L50.161 -48.177L50.185 -48.221L50.209 -48.264L50.236 -48.307L50.263 -48.349L50.292 -48.39L50.323 -48.43L50.355 -48.468L50.388 -48.506L50.422 -48.543L50.457 -48.578L50.494 -48.612L50.532 -48.645L50.57 -48.677L50.61 -48.708L50.651 -48.737L50.693 -48.764L50.736 -48.791L50.779 -48.815L50.823 -48.839L50.869 -48.861L50.914 -48.881L50.961 -48.9L51.008 -48.917L51.056 -48.933L51.104 -48.947L51.152 -48.959L51.201 -48.97L51.251 -48.979L51.3 -48.987L51.35 -48.992L51.4 -48.997L51.45 -48.999L51.5 -49ZM51.5 -56.5L87.5 -56.5L87.55 -56.499L87.6 -56.497L87.65 -56.492L87.7 -56.487L87.749 -56.479L87.799 -56.47L87.848 -56.459L87.896 -56.447L87.944 -56.433L87.992 -56.417L88.039 -56.4L88.086 -56.381L88.131 -56.361L88.177 -56.339L88.221 -56.315L88.264 -56.291L88.307 -56.264L88.349 -56.237L88.39 -56.208L88.43 -56.177L88.468 -56.145L88.506 -56.112L88.543 -56.078L88.578 -56.043L88.612 -56.006L88.645 -55.968L88.677 -55.93L88.708 -55.89L88.737 -55.849L88.764 -55.807L88.791 -55.764L88.815 -55.721L88.839 -55.677L88.861 -55.631L88.881 -55.586L88.9 -55.539L88.917 -55.492L88.933 -55.444L88.947 -55.396L88.959 -55.348L88.97 -55.299L88.979 -55.249L88.987 -55.2L88.992 -55.15L88.997 -55.1L88.999 -55.05L89 -55L88.999 -54.95L88.997 -54.9L88.992 -54.85L88.987 -54.8L88.979 -54.751L88.97 -54.701L88.959 -54.652L88.947 -54.604L88.933 -54.556L88.917 -54.508L88.9 -54.461L88.881 -54.414L88.861 -54.369L88.839 -54.323L88.815 -54.279L88.791 -54.236L88.764 -54.193L88.737 -54.151L88.708 -54.11L88.677 -54.07L88.645 -54.032L88.612 -53.994L88.578 -53.957L88.543 -53.922L88.506 -53.888L88.468 -53.855L88.43 -53.823L88.39 -53.792L88.349 -53.763L88.307 -53.736L88.264 -53.709L88.221 -53.685L88.177 -53.661L88.131 -53.639L88.086 -53.619L88.039 -53.6L87.992 -53.583L87.944 -53.567L87.896 -53.553L87.848 -53.541L87.799 -53.53L87.749 -53.521L87.7 -53.513L87.65 -53.508L87.6 -53.503L87.55 -53.501L87.5 -53.5L51.5 -53.5L51.45 -53.501L51.4 -53.503L51.35 -53.508L51.3 -53.513L51.251 -53.521L51.201 -53.53L51.152 -53.541L51.104 -53.553L51.056 -53.567L51.008 -53.583L50.961 -53.6L50.914 -53.619L50.869 -53.639L50.823 -53.661L50.779 -53.685L50.736 -53.709L50.693 -53.736L50.651 -53.763L50.61 -53.792L50.57 -53.823L50.532 -53.855L50.494 -53.888L50.457 -53.922L50.422 -53.957L50.388 -53.994L50.355 -54.032L50.323 -54.07L50.292 -54.11L50.263 -54.151L50.236 -54.193L50.209 -54.236L50.185 -54.279L50.161 -54.323L50.139 -54.369L50.119 -54.414L50.1 -54.461L50.083 -54.508L50.067 -54.556L50.053 -54.604L50.041 -54.652L50.03 -54.701L50.021 -54.751L50.013 -54.8L50.008 -54.85L50.003 -54.9L50.001 -54.95L50 -55L50.001 -55.05L50.003 -55.1L50.008 -55.15L50.013 -55.2L50.021 -55.249L50.03 -55.299L50.041 -55.348L50.053 -55.396L50.067 -55.444L50.083 -55.492L50.1 -55.539L50.119 -55.586L50.139 -55.631L50.161 -55.677L50.185 -55.721L50.209 -55.764L50.236 -55.807L50.263 -55.849L50.292 -55.89L50.323 -55.93L50.355 -55.968L50.388 -56.006L50.422 -56.043L50.457 -56.078L50.494 -56.112L50.532 -56.145L50.57 -56.177L50.61 -56.208L50.651 -56.237L50.693 -56.264L50.736 -56.291L50.779 -56.315L50.823 -56.339L50.869 -56.361L50.914 -56.381L50.961 -56.4L51.008 -56.417L51.056 -56.433L51.104 -56.447L51.152 -56.459L51.201 -56.47L51.251 -56.479L51.3 -56.487L51.35 -56.492L51.4 -56.497L51.45 -56.499L51.5 -56.5ZM51.5 -64L87.5 -64L87.55 -63.999L87.6 -63.997L87.65 -63.992L87.7 -63.987L87.749 -63.979L87.799 -63.97L87.848 -63.959L87.896 -63.947L87.944 -63.933L87.992 -63.917L88.039 -63.9L88.086 -63.881L88.131 -63.861L88.177 -63.839L88.221 -63.815L88.264 -63.791L88.307 -63.764L88.349 -63.737L88.39 -63.708L88.43 -63.677L88.468 -63.645L88.506 -63.612L88.543 -63.578L88.578 -63.543L88.612 -63.506L88.645 -63.468L88.677 -63.43L88.708 -63.39L88.737 -63.349L88.764 -63.307L88.791 -63.264L88.815 -63.221L88.839 -63.177L88.861 -63.131L88.881 -63.086L88.9 -63.039L88.917 -62.992L88.933 -62.944L88.947 -62.896L88.959 -62.848L88.97 -62.799L88.979 -62.749L88.987 -62.7L88.992 -62.65L88.997 -62.6L88.999 -62.55L89 -62.5L88.999 -62.45L88.997 -62.4L88.992 -62.35L88.987 -62.3L88.979 -62.251L88.97 -62.201L88.959 -62.152L88.947 -62.104L88.933 -62.056L88.917 -62.008L88.9 -61.961L88.881 -61.914L88.861 -61.869L88.839 -61.823L88.815 -61.779L88.791 -61.736L88.764 -61.693L88.737 -61.651L88.708 -61.61L88.677 -61.57L88.645 -61.532L88.612 -61.494L88.578 -61.457L88.543 -61.422L88.506 -61.388L88.468 -61.355L88.43 -61.323L88.39 -61.292L88.349 -61.263L88.307 -61.236L88.264 -61.209L88.221 -61.185L88.177 -61.161L88.131 -61.139L88.086 -61.119L88.039 -61.1L87.992 -61.083L87.944 -61.067L87.896 -61.053L87.848 -61.041L87.799 -61.03L87.749 -61.021L87.7 -61.013L87.65 -61.008L87.6 -61.003L87.55 -61.001L87.5 -61L51.5 -61L51.45 -61.001L51.4 -61.003L51.35 -61.008L51.3 -61.013L51.251 -61.021L51.201 -61.03L51.152 -61.041L51.104 -61.053L51.056 -61.067L51.008 -61.083L50.961 -61.1L50.914 -61.119L50.869 -61.139L50.823 -61.161L50.779 -61.185L50.736 -61.209L50.693 -61.236L50.651 -61.263L50.61 -61.292L50.57 -61.323L50.532 -61.355L50.494 -61.388L50.457 -61.422L50.422 -61.457L50.388 -61.494L50.355 -61.532L50.323 -61.57L50.292 -61.61L50.263 -61.651L50.236 -61.693L50.209 -61.736L50.185 -61.779L50.161 -61.823L50.139 -61.869L50.119 -61.914L50.1 -61.961L50.083 -62.008L50.067 -62.056L50.053 -62.104L50.041 -62.152L50.03 -62.201L50.021 -62.251L50.013 -62.3L50.008 -62.35L50.003 -62.4L50.001 -62.45L50 -62.5L50.001 -62.55L50.003 -62.6L50.008 -62.65L50.013 -62.7L50.021 -62.749L50.03 -62.799L50.041 -62.848L50.053 -62.896L50.067 -62.944L50.083 -62.992L50.1 -63.039L50.119 -63.086L50.139 -63.131L50.161 -63.177L50.185 -63.221L50.209 -63.264L50.236 -63.307L50.263 -63.349L50.292 -63.39L50.323 -63.43L50.355 -63.468L50.388 -63.506L50.422 -63.543L50.457 -63.578L50.494 -63.612L50.532 -63.645L50.57 -63.677L50.61 -63.708L50.651 -63.737L50.693 -63.764L50.736 -63.791L50.779 -63.815L50.823 -63.839L50.869 -63.861L50.914 -63.881L50.961 -63.9L51.008 -63.917L51.056 -63.933L51.104 -63.947L51.152 -63.959L51.201 -63.97L51.251 -63.979L51.3 -63.987L51.35 -63.992L51.4 -63.997L51.45 -63.999L51.5 -64ZM51.85 -68.5L51.849 -68.45L51.846 -68.4L51.842 -68.35L51.835 -68.3L51.827 -68.25L51.817 -68.201L51.805 -68.153L51.791 -68.104L51.775 -68.057L51.758 -68.01L51.739 -67.963L51.718 -67.917L51.695 -67.873L51.671 -67.829L51.645 -67.786L51.618 -67.743L51.589 -67.702L51.559 -67.662L51.527 -67.624L51.494 -67.586L51.459 -67.55L51.423 -67.515L51.386 -67.481L51.347 -67.449L51.308 -67.418L51.267 -67.389L51.225 -67.361L51.182 -67.335L51.138 -67.311L51.094 -67.288L51.048 -67.266L51.002 -67.247L50.955 -67.229L50.908 -67.213L50.859 -67.199L50.811 -67.186L50.762 -67.176L50.712 -67.167L50.663 -67.16L50.613 -67.155L50.563 -67.151L50.513 -67.15L50.462 -67.151L50.412 -67.153L50.362 -67.157L50.312 -67.163L50.263 -67.171L50.214 -67.181L50.165 -67.192L50.116 -67.206L50.069 -67.221L50.021 -67.238L49.975 -67.256L49.929 -67.277L49.884 -67.299L49.84 -67.323L49.796 -67.348L49.754 -67.375L49.713 -67.403L49.672 -67.433L49.633 -67.465L49.595 -67.498L49.559 -67.532L49.523 -67.568L49.49 -67.605L49.457 -67.643L49.426 -67.682L49.396 -67.723L49.368 -67.764L49.341 -67.807L49.317 -67.851L49.293 -67.895L49.272 -67.94L49.252 -67.986L49.233 -68.033L49.217 -68.08L49.202 -68.128L49.189 -68.177L49.178 -68.226L49.169 -68.275L49.161 -68.325L49.156 -68.375L49.152 -68.425L49.15 -68.475L49.15 -68.525L49.152 -68.575L49.156 -68.625L49.161 -68.675L49.169 -68.725L49.178 -68.774L49.189 -68.823L49.202 -68.872L49.217 -68.92L49.233 -68.967L49.252 -69.014L49.272 -69.06L49.293 -69.105L49.317 -69.149L49.341 -69.193L49.368 -69.236L49.396 -69.277L49.426 -69.318L49.457 -69.357L49.49 -69.395L49.523 -69.432L49.559 -69.468L49.595 -69.502L49.633 -69.535L49.672 -69.567L49.713 -69.597L49.754 -69.625L49.796 -69.652L49.84 -69.677L49.884 -69.701L49.929 -69.723L49.975 -69.744L50.021 -69.762L50.069 -69.779L50.116 -69.794L50.165 -69.808L50.214 -69.819L50.263 -69.829L50.312 -69.837L50.362 -69.843L50.412 -69.847L50.462 -69.849L50.513 -69.85L50.563 -69.849L50.613 -69.845L50.663 -69.84L50.712 -69.833L50.762 -69.824L50.811 -69.814L50.859 -69.801L50.908 -69.787L50.955 -69.771L51.002 -69.753L51.048 -69.734L51.094 -69.712L51.138 -69.689L51.182 -69.665L51.225 -69.639L51.267 -69.611L51.308 -69.582L51.347 -69.551L51.386 -69.519L51.423 -69.485L51.459 -69.45L51.494 -69.414L51.527 -69.376L51.559 -69.338L51.589 -69.298L51.618 -69.257L51.645 -69.214L51.671 -69.171L51.695 -69.127L51.718 -69.083L51.739 -69.037L51.758 -68.99L51.775 -68.943L51.791 -68.896L51.805 -68.847L51.817 -68.799L51.827 -68.75L51.835 -68.7L51.842 -68.65L51.846 -68.6L51.849 -68.55L51.85 -68.5ZM109.85 -19.5L109.849 -19.45L109.846 -19.4L109.842 -19.35L109.835 -19.3L109.827 -19.25L109.817 -19.201L109.805 -19.153L109.791 -19.104L109.775 -19.057L109.758 -19.01L109.739 -18.963L109.718 -18.917L109.695 -18.873L109.671 -18.829L109.645 -18.786L109.618 -18.743L109.589 -18.702L109.559 -18.662L109.527 -18.624L109.494 -18.586L109.459 -18.55L109.423 -18.515L109.386 -18.481L109.347 -18.449L109.308 -18.418L109.267 -18.389L109.225 -18.361L109.182 -18.335L109.138 -18.311L109.094 -18.288L109.048 -18.266L109.002 -18.247L108.955 -18.229L108.908 -18.213L108.859 -18.199L108.811 -18.186L108.762 -18.176L108.712 -18.167L108.663 -18.16L108.613 -18.155L108.563 -18.151L108.513 -18.15L108.462 -18.151L108.412 -18.153L108.362 -18.157L108.312 -18.163L108.263 -18.171L108.214 -18.181L108.165 -18.192L108.116 -18.206L108.069 -18.221L108.021 -18.238L107.975 -18.256L107.929 -18.277L107.884 -18.299L107.84 -18.323L107.796 -18.348L107.754 -18.375L107.713 -18.403L107.672 -18.433L107.633 -18.465L107.595 -18.498L107.559 -18.532L107.523 -18.568L107.49 -18.605L107.457 -18.643L107.426 -18.682L107.396 -18.723L107.368 -18.764L107.341 -18.807L107.317 -18.851L107.293 -18.895L107.272 -18.94L107.252 -18.986L107.233 -19.033L107.217 -19.08L107.202 -19.128L107.189 -19.177L107.178 -19.226L107.169 -19.275L107.161 -19.325L107.156 -19.375L107.152 -19.425L107.15 -19.475L107.15 -19.525L107.152 -19.575L107.156 -19.625L107.161 -19.675L107.169 -19.725L107.178 -19.774L107.189 -19.823L107.202 -19.872L107.217 -19.92L107.233 -19.967L107.252 -20.014L107.272 -20.06L107.293 -20.105L107.317 -20.149L107.341 -20.193L107.368 -20.236L107.396 -20.277L107.426 -20.318L107.457 -20.357L107.49 -20.395L107.523 -20.432L107.559 -20.468L107.595 -20.502L107.633 -20.535L107.672 -20.567L107.713 -20.597L107.754 -20.625L107.796 -20.652L107.84 -20.677L107.884 -20.701L107.929 -20.723L107.975 -20.744L108.021 -20.762L108.069 -20.779L108.116 -20.794L108.165 -20.808L108.214 -20.819L108.263 -20.829L108.312 -20.837L108.362 -20.843L108.412 -20.847L108.462 -20.849L108.513 -20.85L108.563 -20.849L108.613 -20.845L108.663 -20.84L108.712 -20.833L108.762 -20.824L108.811 -20.814L108.859 -20.801L108.908 -20.787L108.955 -20.771L109.002 -20.753L109.048 -20.734L109.094 -20.712L109.138 -20.689L109.182 -20.665L109.225 -20.639L109.267 -20.611L109.308 -20.582L109.347 -20.551L109.386 -20.519L109.423 -20.485L109.459 -20.45L109.494 -20.414L109.527 -20.376L109.559 -20.338L109.589 -20.298L109.618 -20.257L109.645 -20.214L109.671 -20.171L109.695 -20.127L109.718 -20.083L109.739 -20.037L109.758 -19.99L109.775 -19.943L109.791 -19.896L109.805 -19.847L109.817 -19.799L109.827 -19.75L109.835 -19.7L109.842 -19.65L109.846 -19.6L109.849 -19.55L109.85 -19.5ZM115 -7L114.999 -6.95L114.997 -6.9L114.993 -6.85L114.988 -6.8L114.982 -6.75L114.973 -6.701L114.964 -6.651L114.953 -6.603L114.94 -6.554L114.927 -6.506L114.911 -6.458L114.895 -6.411L114.877 -6.364L114.857 -6.318L114.836 -6.272L114.814 -6.227L114.791 -6.183L114.766 -6.139L114.74 -6.096L114.713 -6.054L114.684 -6.013L114.654 -5.973L114.624 -5.933L114.591 -5.895L114.558 -5.857L114.524 -5.82L114.489 -5.785L114.452 -5.75L114.415 -5.717L114.377 -5.684L114.337 -5.653L114.297 -5.623L114.256 -5.594L114.214 -5.567L114.172 -5.54L114.128 -5.515L114.084 -5.492L114.039 -5.469L113.994 -5.448L113.948 -5.428L113.901 -5.41L113.854 -5.393L113.806 -5.377L113.758 -5.363L113.71 -5.35L113.661 -5.339L113.612 -5.329L113.562 -5.32L113.513 -5.313L113.463 -5.308L113.413 -5.304L113.363 -5.301L113.313 -5.3L113.262 -5.3L113.212 -5.302L113.162 -5.306L113.112 -5.31L113.063 -5.317L113.013 -5.324L112.964 -5.334L112.915 -5.344L112.866 -5.356L112.818 -5.37L112.77 -5.385L112.722 -5.401L112.676 -5.419L112.629 -5.438L112.583 -5.458L112.538 -5.48L112.494 -5.503L112.45 -5.528L112.407 -5.553L112.365 -5.58L112.323 -5.609L112.283 -5.638L112.243 -5.669L112.204 -5.7L112.166 -5.733L112.129 -5.767L112.093 -5.802L112.059 -5.838L112.025 -5.876L111.992 -5.914L111.961 -5.953L111.931 -5.993L111.901 -6.033L111.874 -6.075L111.847 -6.118L111.822 -6.161L111.797 -6.205L111.775 -6.25L111.753 -6.295L111.733 -6.341L111.714 -6.387L111.697 -6.434L111.681 -6.482L111.666 -6.53L111.653 -6.578L111.641 -6.627L111.631 -6.676L111.622 -6.725L111.615 -6.775L111.609 -6.825L111.605 -6.875L111.602 -6.925L111.6 -6.975L111.6 -7.025L111.602 -7.075L111.605 -7.125L111.609 -7.175L111.615 -7.225L111.622 -7.275L111.631 -7.324L111.641 -7.373L111.653 -7.422L111.666 -7.47L111.681 -7.518L111.697 -7.566L111.714 -7.613L111.733 -7.659L111.753 -7.705L111.775 -7.75L111.797 -7.795L111.822 -7.839L111.847 -7.882L111.874 -7.925L111.901 -7.967L111.931 -8.007L111.961 -8.047L111.992 -8.086L112.025 -8.124L112.059 -8.162L112.093 -8.198L112.129 -8.233L112.166 -8.267L112.204 -8.3L112.243 -8.331L112.283 -8.362L112.323 -8.391L112.365 -8.42L112.407 -8.447L112.45 -8.472L112.494 -8.497L112.538 -8.52L112.583 -8.542L112.629 -8.562L112.676 -8.581L112.722 -8.599L112.77 -8.615L112.818 -8.63L112.866 -8.644L112.915 -8.656L112.964 -8.666L113.013 -8.676L113.063 -8.683L113.112 -8.69L113.162 -8.694L113.212 -8.698L113.262 -8.7L113.313 -8.7L113.363 -8.699L113.413 -8.696L113.463 -8.692L113.513 -8.687L113.562 -8.68L113.612 -8.671L113.661 -8.661L113.71 -8.65L113.758 -8.637L113.806 -8.623L113.854 -8.607L113.901 -8.59L113.948 -8.572L113.994 -8.552L114.039 -8.531L114.084 -8.508L114.128 -8.485L114.172 -8.46L114.214 -8.433L114.256 -8.406L114.297 -8.377L114.337 -8.347L114.377 -8.316L114.415 -8.283L114.452 -8.25L114.489 -8.215L114.524 -8.18L114.558 -8.143L114.591 -8.105L114.624 -8.067L114.654 -8.027L114.684 -7.987L114.713 -7.946L114.74 -7.904L114.766 -7.861L114.791 -7.817L114.814 -7.773L114.836 -7.728L114.857 -7.682L114.877 -7.636L114.895 -7.589L114.911 -7.542L114.927 -7.494L114.94 -7.446L114.953 -7.397L114.964 -7.349L114.973 -7.299L114.982 -7.25L114.988 -7.2L114.993 -7.15L114.997 -7.1L114.999 -7.05L115 -7ZM109.85 -68.5L109.849 -68.45L109.846 -68.4L109.842 -68.35L109.835 -68.3L109.827 -68.25L109.817 -68.201L109.805 -68.153L109.791 -68.104L109.775 -68.057L109.758 -68.01L109.739 -67.963L109.718 -67.917L109.695 -67.873L109.671 -67.829L109.645 -67.786L109.618 -67.743L109.589 -67.702L109.559 -67.662L109.527 -67.624L109.494 -67.586L109.459 -67.55L109.423 -67.515L109.386 -67.481L109.347 -67.449L109.308 -67.418L109.267 -67.389L109.225 -67.361L109.182 -67.335L109.138 -67.311L109.094 -67.288L109.048 -67.266L109.002 -67.247L108.955 -67.229L108.908 -67.213L108.859 -67.199L108.811 -67.186L108.762 -67.176L108.712 -67.167L108.663 -67.16L108.613 -67.155L108.563 -67.151L108.513 -67.15L108.462 -67.151L108.412 -67.153L108.362 -67.157L108.312 -67.163L108.263 -67.171L108.214 -67.181L108.165 -67.192L108.116 -67.206L108.069 -67.221L108.021 -67.238L107.975 -67.256L107.929 -67.277L107.884 -67.299L107.84 -67.323L107.796 -67.348L107.754 -67.375L107.713 -67.403L107.672 -67.433L107.633 -67.465L107.595 -67.498L107.559 -67.532L107.523 -67.568L107.49 -67.605L107.457 -67.643L107.426 -67.682L107.396 -67.723L107.368 -67.764L107.341 -67.807L107.317 -67.851L107.293 -67.895L107.272 -67.94L107.252 -67.986L107.233 -68.033L107.217 -68.08L107.202 -68.128L107.189 -68.177L107.178 -68.226L107.169 -68.275L107.161 -68.325L107.156 -68.375L107.152 -68.425L107.15 -68.475L107.15 -68.525L107.152 -68.575L107.156 -68.625L107.161 -68.675L107.169 -68.725L107.178 -68.774L107.189 -68.823L107.202 -68.872L107.217 -68.92L107.233 -68.967L107.252 -69.014L107.272 -69.06L107.293 -69.105L107.317 -69.149L107.341 -69.193L107.368 -69.236L107.396 -69.277L107.426 -69.318L107.457 -69.357L107.49 -69.395L107.523 -69.432L107.559 -69.468L107.595 -69.502L107.633 -69.535L107.672 -69.567L107.713 -69.597L107.754 -69.625L107.796 -69.652L107.84 -69.677L107.884 -69.701L107.929 -69.723L107.975 -69.744L108.021 -69.762L108.069 -69.779L108.116 -69.794L108.165 -69.808L108.214 -69.819L108.263 -69.829L108.312 -69.837L108.362 -69.843L108.412 -69.847L108.462 -69.849L108.513 -69.85L108.563 -69.849L108.613 -69.845L108.663 -69.84L108.712 -69.833L108.762 -69.824L108.811 -69.814L108.859 -69.801L108.908 -69.787L108.955 -69.771L109.002 -69.753L109.048 -69.734L109.094 -69.712L109.138 -69.689L109.182 -69.665L109.225 -69.639L109.267 -69.611L109.308 -69.582L109.347 -69.551L109.386 -69.519L109.423 -69.485L109.459 -69.45L109.494 -69.414L109.527 -69.376L109.559 -69.338L109.589 -69.298L109.618 -69.257L109.645 -69.214L109.671 -69.171L109.695 -69.127L109.718 -69.083L109.739 -69.037L109.758 -68.99L109.775 -68.943L109.791 -68.896L109.805 -68.847L109.817 -68.799L109.827 -68.75L109.835 -68.7L109.842 -68.65L109.846 -68.6L109.849 -68.55L109.85 -68.5ZM8.7 -164.5L8.699 -164.45L8.697 -164.4L8.693 -164.35L8.688 -164.3L8.682 -164.25L8.673 -164.201L8.664 -164.151L8.653 -164.103L8.64 -164.054L8.627 -164.006L8.611 -163.958L8.595 -163.911L8.577 -163.864L8.557 -163.818L8.536 -163.772L8.514 -163.727L8.491 -163.683L8.466 -163.639L8.44 -163.596L8.413 -163.554L8.384 -163.513L8.354 -163.473L8.324 -163.433L8.291 -163.395L8.258 -163.357L8.224 -163.32L8.189 -163.285L8.152 -163.25L8.115 -163.217L8.077 -163.184L8.037 -163.153L7.997 -163.123L7.956 -163.094L7.914 -163.067L7.872 -163.04L7.828 -163.015L7.784 -162.992L7.739 -162.969L7.694 -162.948L7.648 -162.928L7.601 -162.91L7.554 -162.893L7.506 -162.877L7.458 -162.863L7.41 -162.85L7.361 -162.839L7.312 -162.829L7.262 -162.82L7.213 -162.813L7.163 -162.808L7.113 -162.804L7.063 -162.801L7.013 -162.8L6.962 -162.8L6.912 -162.802L6.862 -162.806L6.812 -162.81L6.763 -162.817L6.713 -162.824L6.664 -162.834L6.615 -162.844L6.566 -162.856L6.518 -162.87L6.47 -162.885L6.422 -162.901L6.376 -162.919L6.329 -162.938L6.283 -162.958L6.238 -162.98L6.194 -163.003L6.15 -163.028L6.107 -163.053L6.065 -163.08L6.023 -163.109L5.983 -163.138L5.943 -163.169L5.904 -163.2L5.866 -163.233L5.829 -163.267L5.793 -163.302L5.759 -163.338L5.725 -163.376L5.692 -163.414L5.661 -163.453L5.631 -163.493L5.601 -163.533L5.574 -163.575L5.547 -163.618L5.522 -163.661L5.497 -163.705L5.475 -163.75L5.453 -163.795L5.433 -163.841L5.414 -163.887L5.397 -163.934L5.381 -163.982L5.366 -164.03L5.353 -164.078L5.341 -164.127L5.331 -164.176L5.322 -164.225L5.315 -164.275L5.309 -164.325L5.305 -164.375L5.302 -164.425L5.3 -164.475L5.3 -164.525L5.302 -164.575L5.305 -164.625L5.309 -164.675L5.315 -164.725L5.322 -164.775L5.331 -164.824L5.341 -164.873L5.353 -164.922L5.366 -164.97L5.381 -165.018L5.397 -165.066L5.414 -165.113L5.433 -165.159L5.453 -165.205L5.475 -165.25L5.497 -165.295L5.522 -165.339L5.547 -165.382L5.574 -165.425L5.601 -165.467L5.631 -165.507L5.661 -165.547L5.692 -165.586L5.725 -165.624L5.759 -165.662L5.793 -165.698L5.829 -165.733L5.866 -165.767L5.904 -165.8L5.943 -165.831L5.983 -165.862L6.023 -165.891L6.065 -165.92L6.107 -165.947L6.15 -165.972L6.194 -165.997L6.238 -166.02L6.283 -166.042L6.329 -166.062L6.376 -166.081L6.422 -166.099L6.47 -166.115L6.518 -166.13L6.566 -166.144L6.615 -166.156L6.664 -166.166L6.713 -166.176L6.763 -166.183L6.812 -166.19L6.862 -166.194L6.912 -166.198L6.962 -166.2L7.013 -166.2L7.063 -166.199L7.113 -166.196L7.163 -166.192L7.213 -166.187L7.262 -166.18L7.312 -166.171L7.361 -166.161L7.41 -166.15L7.458 -166.137L7.506 -166.123L7.554 -166.107L7.601 -166.09L7.648 -166.072L7.694 -166.052L7.739 -166.031L7.784 -166.008L7.828 -165.985L7.872 -165.96L7.914 -165.933L7.956 -165.906L7.997 -165.877L8.037 -165.847L8.077 -165.816L8.115 -165.783L8.152 -165.75L8.189 -165.715L8.224 -165.68L8.258 -165.643L8.291 -165.605L8.324 -165.567L8.354 -165.527L8.384 -165.487L8.413 -165.446L8.44 -165.404L8.466 -165.361L8.491 -165.317L8.514 -165.273L8.536 -165.228L8.557 -165.182L8.577 -165.136L8.595 -165.089L8.611 -165.042L8.627 -164.994L8.64 -164.946L8.653 -164.897L8.664 -164.849L8.673 -164.799L8.682 -164.75L8.688 -164.7L8.693 -164.65L8.697 -164.6L8.699 -164.55L8.7 -164.5ZM58.1 -155L58.1 -154.95L58.099 -154.9L58.098 -154.85L58.097 -154.8L58.095 -154.75L58.093 -154.7L58.09 -154.65L58.087 -154.6L58.083 -154.55L58.079 -154.5L58.075 -154.45L58.07 -154.401L58.065 -154.351L58.06 -154.301L58.054 -154.251L58.048 -154.202L58.041 -154.152L58.034 -154.103L58.026 -154.053L58.018 -154.004L58.01 -153.954L58.001 -153.905L57.992 -153.856L57.982 -153.807L57.972 -153.758L57.962 -153.709L57.951 -153.66L57.94 -153.611L57.928 -153.563L57.916 -153.514L57.904 -153.466L57.891 -153.417L57.878 -153.369L57.864 -153.321L57.85 -153.273L57.836 -153.225L57.821 -153.177L57.806 -153.129L57.791 -153.082L57.775 -153.034L57.758 -152.987L57.742 -152.94L57.724 -152.893L57.707 -152.846L57.689 -152.799L57.671 -152.753L57.652 -152.706L57.633 -152.66L57.614 -152.614L57.594 -152.568L57.574 -152.522L57.553 -152.476L57.533 -152.431L57.511 -152.386L57.49 -152.34L57.468 -152.295L57.445 -152.251L57.423 -152.206L57.399 -152.162L57.376 -152.118L57.352 -152.074L57.328 -152.03L57.303 -151.986L57.279 -151.943L57.253 -151.9L57.228 -151.857L57.202 -151.814L57.175 -151.771L57.149 -151.729L57.122 -151.687L57.094 -151.645L57.067 -151.603L57.039 -151.562L57.01 -151.521L56.982 -151.48L56.953 -151.439L56.923 -151.398L56.894 -151.358L56.863 -151.318L56.833 -151.278L56.802 -151.239L56.771 -151.2L56.74 -151.16L56.708 -151.122L56.676 -151.083L56.644 -151.045L56.612 -151.007L56.579 -150.969L56.545 -150.932L56.512 -150.895L56.478 -150.858L56.444 -150.821L56.41 -150.785L56.375 -150.749L56.34 -150.713L56.304 -150.678L56.269 -150.643L56.233 -150.608L56.197 -150.573L56.16 -150.539L56.124 -150.505L56.087 -150.471L56.049 -150.438L56.012 -150.405L55.974 -150.372L55.936 -150.34L55.898 -150.308L55.859 -150.276L55.82 -150.244L55.781 -150.213L55.741 -150.182L55.702 -150.152L55.662 -150.121L55.622 -150.092L55.581 -150.062L55.541 -150.033L55.5 -150.004L55.459 -149.975L55.418 -149.947L55.376 -149.919L55.334 -149.892L55.292 -149.865L55.25 -149.838L55.207 -149.811L55.165 -149.785L55.122 -149.759L55.079 -149.734L55.036 -149.709L54.992 -149.684L54.948 -149.66L54.904 -149.636L54.86 -149.612L54.816 -149.589L54.772 -149.566L54.727 -149.543L54.682 -149.521L54.637 -149.499L54.592 -149.478L54.546 -149.457L54.501 -149.436L54.455 -149.416L54.409 -149.396L54.363 -149.376L54.317 -149.357L54.271 -149.338L54.224 -149.32L54.177 -149.302L54.131 -149.284L54.084 -149.267L54.037 -149.25L53.989 -149.234L53.942 -149.217L53.895 -149.202L53.847 -149.186L53.799 -149.171L53.751 -149.157L53.703 -149.143L53.655 -149.129L53.607 -149.115L53.559 -149.102L53.51 -149.09L53.462 -149.078L53.413 -149.066L53.364 -149.055L53.316 -149.044L53.267 -149.033L53.218 -149.023L53.169 -149.013L53.119 -149.004L53.07 -148.995L53.021 -148.986L52.972 -148.978L52.922 -148.97L52.873 -148.963L52.823 -148.956L52.773 -148.949L52.724 -148.943L52.674 -148.937L52.624 -148.932L52.575 -148.927L52.525 -148.923L52.475 -148.919L52.425 -148.915L52.375 -148.912L52.325 -148.909L52.275 -148.906L52.225 -148.904L52.175 -148.903L52.125 -148.901L52.075 -148.9L52.025 -148.9L51.975 -148.9L51.925 -148.9L51.875 -148.901L51.825 -148.903L51.775 -148.904L51.725 -148.906L51.675 -148.909L51.625 -148.912L51.575 -148.915L51.525 -148.919L51.475 -148.923L51.425 -148.927L51.376 -148.932L51.326 -148.937L51.276 -148.943L51.227 -148.949L51.177 -148.956L51.127 -148.963L51.078 -148.97L51.028 -148.978L50.979 -148.986L50.93 -148.995L50.881 -149.004L50.831 -149.013L50.782 -149.023L50.733 -149.033L50.684 -149.044L50.636 -149.055L50.587 -149.066L50.538 -149.078L50.49 -149.09L50.441 -149.102L50.393 -149.115L50.345 -149.129L50.297 -149.143L50.249 -149.157L50.201 -149.171L50.153 -149.186L50.105 -149.202L50.058 -149.217L50.011 -149.234L49.963 -149.25L49.916 -149.267L49.869 -149.284L49.823 -149.302L49.776 -149.32L49.729 -149.338L49.683 -149.357L49.637 -149.376L49.591 -149.396L49.545 -149.416L49.499 -149.436L49.454 -149.457L49.408 -149.478L49.363 -149.499L49.318 -149.521L49.273 -149.543L49.228 -149.566L49.184 -149.589L49.14 -149.612L49.096 -149.636L49.052 -149.66L49.008 -149.684L48.964 -149.709L48.921 -149.734L48.878 -149.759L48.835 -149.785L48.793 -149.811L48.75 -149.838L48.708 -149.865L48.666 -149.892L48.624 -149.919L48.582 -149.947L48.541 -149.975L48.5 -150.004L48.459 -150.033L48.419 -150.062L48.378 -150.092L48.338 -150.121L48.298 -150.152L48.259 -150.182L48.219 -150.213L48.18 -150.244L48.141 -150.276L48.102 -150.308L48.064 -150.34L48.026 -150.372L47.988 -150.405L47.951 -150.438L47.913 -150.471L47.876 -150.505L47.84 -150.539L47.803 -150.573L47.767 -150.608L47.731 -150.643L47.696 -150.678L47.66 -150.713L47.625 -150.749L47.59 -150.785L47.556 -150.821L47.522 -150.858L47.488 -150.895L47.455 -150.932L47.421 -150.969L47.388 -151.007L47.356 -151.045L47.324 -151.083L47.292 -151.122L47.26 -151.16L47.229 -151.2L47.198 -151.239L47.167 -151.278L47.137 -151.318L47.106 -151.358L47.077 -151.398L47.047 -151.439L47.018 -151.48L46.99 -151.521L46.961 -151.562L46.933 -151.603L46.906 -151.645L46.878 -151.687L46.851 -151.729L46.825 -151.771L46.798 -151.814L46.772 -151.857L46.747 -151.9L46.721 -151.943L46.697 -151.986L46.672 -152.03L46.648 -152.074L46.624 -152.118L46.601 -152.162L46.577 -152.206L46.555 -152.251L46.532 -152.295L46.51 -152.34L46.489 -152.386L46.467 -152.431L46.447 -152.476L46.426 -152.522L46.406 -152.568L46.386 -152.614L46.367 -152.66L46.348 -152.706L46.329 -152.753L46.311 -152.799L46.293 -152.846L46.276 -152.893L46.258 -152.94L46.242 -152.987L46.225 -153.034L46.209 -153.082L46.194 -153.129L46.179 -153.177L46.164 -153.225L46.15 -153.273L46.136 -153.321L46.122 -153.369L46.109 -153.417L46.096 -153.466L46.084 -153.514L46.072 -153.563L46.06 -153.611L46.049 -153.66L46.038 -153.709L46.028 -153.758L46.018 -153.807L46.008 -153.856L45.999 -153.905L45.99 -153.954L45.982 -154.004L45.974 -154.053L45.966 -154.103L45.959 -154.152L45.952 -154.202L45.946 -154.251L45.94 -154.301L45.935 -154.351L45.93 -154.401L45.925 -154.45L45.921 -154.5L45.917 -154.55L45.913 -154.6L45.91 -154.65L45.907 -154.7L45.905 -154.75L45.903 -154.8L45.902 -154.85L45.901 -154.9L45.9 -154.95L45.9 -155L45.9 -155.05L45.901 -155.1L45.902 -155.15L45.903 -155.2L45.905 -155.25L45.907 -155.3L45.91 -155.35L45.913 -155.4L45.917 -155.45L45.921 -155.5L45.925 -155.55L45.93 -155.599L45.935 -155.649L45.94 -155.699L45.946 -155.749L45.952 -155.798L45.959 -155.848L45.966 -155.897L45.974 -155.947L45.982 -155.996L45.99 -156.046L45.999 -156.095L46.008 -156.144L46.018 -156.193L46.028 -156.242L46.038 -156.291L46.049 -156.34L46.06 -156.389L46.072 -156.437L46.084 -156.486L46.096 -156.534L46.109 -156.583L46.122 -156.631L46.136 -156.679L46.15 -156.727L46.164 -156.775L46.179 -156.823L46.194 -156.871L46.209 -156.918L46.225 -156.966L46.242 -157.013L46.258 -157.06L46.276 -157.107L46.293 -157.154L46.311 -157.201L46.329 -157.247L46.348 -157.294L46.367 -157.34L46.386 -157.386L46.406 -157.432L46.426 -157.478L46.447 -157.524L46.467 -157.569L46.489 -157.614L46.51 -157.66L46.532 -157.705L46.555 -157.749L46.577 -157.794L46.601 -157.838L46.624 -157.882L46.648 -157.926L46.672 -157.97L46.697 -158.014L46.721 -158.057L46.747 -158.1L46.772 -158.143L46.798 -158.186L46.825 -158.229L46.851 -158.271L46.878 -158.313L46.906 -158.355L46.933 -158.397L46.961 -158.438L46.99 -158.479L47.018 -158.52L47.047 -158.561L47.077 -158.602L47.106 -158.642L47.137 -158.682L47.167 -158.722L47.198 -158.761L47.229 -158.8L47.26 -158.84L47.292 -158.878L47.324 -158.917L47.356 -158.955L47.388 -158.993L47.421 -159.031L47.455 -159.068L47.488 -159.105L47.522 -159.142L47.556 -159.179L47.59 -159.215L47.625 -159.251L47.66 -159.287L47.696 -159.322L47.731 -159.357L47.767 -159.392L47.803 -159.427L47.84 -159.461L47.876 -159.495L47.913 -159.529L47.951 -159.562L47.988 -159.595L48.026 -159.628L48.064 -159.66L48.102 -159.692L48.141 -159.724L48.18 -159.756L48.219 -159.787L48.259 -159.818L48.298 -159.848L48.338 -159.879L48.378 -159.908L48.419 -159.938L48.459 -159.967L48.5 -159.996L48.541 -160.025L48.582 -160.053L48.624 -160.081L48.666 -160.108L48.708 -160.135L48.75 -160.162L48.793 -160.189L48.835 -160.215L48.878 -160.241L48.921 -160.266L48.964 -160.291L49.008 -160.316L49.052 -160.34L49.096 -160.364L49.14 -160.388L49.184 -160.411L49.228 -160.434L49.273 -160.457L49.318 -160.479L49.363 -160.501L49.408 -160.522L49.454 -160.543L49.499 -160.564L49.545 -160.584L49.591 -160.604L49.637 -160.624L49.683 -160.643L49.729 -160.662L49.776 -160.68L49.823 -160.698L49.869 -160.716L49.916 -160.733L49.963 -160.75L50.011 -160.766L50.058 -160.783L50.105 -160.798L50.153 -160.814L50.201 -160.829L50.249 -160.843L50.297 -160.857L50.345 -160.871L50.393 -160.885L50.441 -160.898L50.49 -160.91L50.538 -160.922L50.587 -160.934L50.636 -160.945L50.684 -160.956L50.733 -160.967L50.782 -160.977L50.831 -160.987L50.881 -160.996L50.93 -161.005L50.979 -161.014L51.028 -161.022L51.078 -161.03L51.127 -161.037L51.177 -161.044L51.227 -161.051L51.276 -161.057L51.326 -161.063L51.376 -161.068L51.425 -161.073L51.475 -161.077L51.525 -161.081L51.575 -161.085L51.625 -161.088L51.675 -161.091L51.725 -161.094L51.775 -161.096L51.825 -161.097L51.875 -161.099L51.925 -161.1L51.975 -161.1L52.025 -161.1L52.075 -161.1L52.125 -161.099L52.175 -161.097L52.225 -161.096L52.275 -161.094L52.325 -161.091L52.375 -161.088L52.425 -161.085L52.475 -161.081L52.525 -161.077L52.575 -161.073L52.624 -161.068L52.674 -161.063L52.724 -161.057L52.773 -161.051L52.823 -161.044L52.873 -161.037L52.922 -161.03L52.972 -161.022L53.021 -161.014L53.07 -161.005L53.119 -160.996L53.169 -160.987L53.218 -160.977L53.267 -160.967L53.316 -160.956L53.364 -160.945L53.413 -160.934L53.462 -160.922L53.51 -160.91L53.559 -160.898L53.607 -160.885L53.655 -160.871L53.703 -160.857L53.751 -160.843L53.799 -160.829L53.847 -160.814L53.895 -160.798L53.942 -160.783L53.989 -160.766L54.037 -160.75L54.084 -160.733L54.131 -160.716L54.177 -160.698L54.224 -160.68L54.271 -160.662L54.317 -160.643L54.363 -160.624L54.409 -160.604L54.455 -160.584L54.501 -160.564L54.546 -160.543L54.592 -160.522L54.637 -160.501L54.682 -160.479L54.727 -160.457L54.772 -160.434L54.816 -160.411L54.86 -160.388L54.904 -160.364L54.948 -160.34L54.992 -160.316L55.036 -160.291L55.079 -160.266L55.122 -160.241L55.165 -160.215L55.207 -160.189L55.25 -160.162L55.292 -160.135L55.334 -160.108L55.376 -160.081L55.418 -160.053L55.459 -160.025L55.5 -159.996L55.541 -159.967L55.581 -159.938L55.622 -159.908L55.662 -159.879L55.702 -159.848L55.741 -159.818L55.781 -159.787L55.82 -159.756L55.859 -159.724L55.898 -159.692L55.936 -159.66L55.974 -159.628L56.012 -159.595L56.049 -159.562L56.087 -159.529L56.124 -159.495L56.16 -159.461L56.197 -159.427L56.233 -159.392L56.269 -159.357L56.304 -159.322L56.34 -159.287L56.375 -159.251L56.41 -159.215L56.444 -159.179L56.478 -159.142L56.512 -159.105L56.545 -159.068L56.579 -159.031L56.612 -158.993L56.644 -158.955L56.676 -158.917L56.708 -158.878L56.74 -158.84L56.771 -158.8L56.802 -158.761L56.833 -158.722L56.863 -158.682L56.894 -158.642L56.923 -158.602L56.953 -158.561L56.982 -158.52L57.01 -158.479L57.039 -158.438L57.067 -158.397L57.094 -158.355L57.122 -158.313L57.149 -158.271L57.175 -158.229L57.202 -158.186L57.228 -158.143L57.253 -158.1L57.279 -158.057L57.303 -158.014L57.328 -157.97L57.352 -157.926L57.376 -157.882L57.399 -157.838L57.423 -157.794L57.445 -157.749L57.468 -157.705L57.49 -157.66L57.511 -157.614L57.533 -157.569L57.553 -157.524L57.574 -157.478L57.594 -157.432L57.614 -157.386L57.633 -157.34L57.652 -157.294L57.671 -157.247L57.689 -157.201L57.707 -157.154L57.724 -157.107L57.742 -157.06L57.758 -157.013L57.775 -156.966L57.791 -156.918L57.806 -156.871L57.821 -156.823L57.836 -156.775L57.85 -156.727L57.864 -156.679L57.878 -156.631L57.891 -156.583L57.904 -156.534L57.916 -156.486L57.928 -156.437L57.94 -156.389L57.951 -156.34L57.962 -156.291L57.972 -156.242L57.982 -156.193L57.992 -156.144L58.001 -156.095L58.01 -156.046L58.018 -155.996L58.026 -155.947L58.034 -155.897L58.041 -155.848L58.048 -155.798L58.054 -155.749L58.06 -155.699L58.065 -155.649L58.07 -155.599L58.075 -155.55L58.079 -155.5L58.083 -155.45L58.087 -155.4L58.09 -155.35L58.093 -155.3L58.095 -155.25L58.097 -155.2L58.098 -155.15L58.099 -155.1L58.1 -155.05L58.1 -155ZM174.7 -164.5L174.699 -164.45L174.697 -164.4L174.693 -164.35L174.688 -164.3L174.682 -164.25L174.673 -164.201L174.664 -164.151L174.653 -164.103L174.64 -164.054L174.627 -164.006L174.611 -163.958L174.595 -163.911L174.577 -163.864L174.557 -163.818L174.536 -163.772L174.514 -163.727L174.491 -163.683L174.466 -163.639L174.44 -163.596L174.413 -163.554L174.384 -163.513L174.354 -163.473L174.324 -163.433L174.291 -163.395L174.258 -163.357L174.224 -163.32L174.189 -163.285L174.152 -163.25L174.115 -163.217L174.077 -163.184L174.037 -163.153L173.997 -163.123L173.956 -163.094L173.914 -163.067L173.872 -163.04L173.828 -163.015L173.784 -162.992L173.739 -162.969L173.694 -162.948L173.648 -162.928L173.601 -162.91L173.554 -162.893L173.506 -162.877L173.458 -162.863L173.41 -162.85L173.361 -162.839L173.312 -162.829L173.262 -162.82L173.213 -162.813L173.163 -162.808L173.113 -162.804L173.063 -162.801L173.013 -162.8L172.962 -162.8L172.912 -162.802L172.862 -162.806L172.812 -162.81L172.763 -162.817L172.713 -162.824L172.664 -162.834L172.615 -162.844L172.566 -162.856L172.518 -162.87L172.47 -162.885L172.422 -162.901L172.376 -162.919L172.329 -162.938L172.283 -162.958L172.238 -162.98L172.194 -163.003L172.15 -163.028L172.107 -163.053L172.065 -163.08L172.023 -163.109L171.983 -163.138L171.943 -163.169L171.904 -163.2L171.866 -163.233L171.829 -163.267L171.793 -163.302L171.759 -163.338L171.725 -163.376L171.692 -163.414L171.661 -163.453L171.631 -163.493L171.601 -163.533L171.574 -163.575L171.547 -163.618L171.522 -163.661L171.497 -163.705L171.475 -163.75L171.453 -163.795L171.433 -163.841L171.414 -163.887L171.397 -163.934L171.381 -163.982L171.366 -164.03L171.353 -164.078L171.341 -164.127L171.331 -164.176L171.322 -164.225L171.315 -164.275L171.309 -164.325L171.305 -164.375L171.302 -164.425L171.3 -164.475L171.3 -164.525L171.302 -164.575L171.305 -164.625L171.309 -164.675L171.315 -164.725L171.322 -164.775L171.331 -164.824L171.341 -164.873L171.353 -164.922L171.366 -164.97L171.381 -165.018L171.397 -165.066L171.414 -165.113L171.433 -165.159L171.453 -165.205L171.475 -165.25L171.497 -165.295L171.522 -165.339L171.547 -165.382L171.574 -165.425L171.601 -165.467L171.631 -165.507L171.661 -165.547L171.692 -165.586L171.725 -165.624L171.759 -165.662L171.793 -165.698L171.829 -165.733L171.866 -165.767L171.904 -165.8L171.943 -165.831L171.983 -165.862L172.023 -165.891L172.065 -165.92L172.107 -165.947L172.15 -165.972L172.194 -165.997L172.238 -166.02L172.283 -166.042L172.329 -166.062L172.376 -166.081L172.422 -166.099L172.47 -166.115L172.518 -166.13L172.566 -166.144L172.615 -166.156L172.664 -166.166L172.713 -166.176L172.763 -166.183L172.812 -166.19L172.862 -166.194L172.912 -166.198L172.962 -166.2L173.013 -166.2L173.063 -166.199L173.113 -166.196L173.163 -166.192L173.213 -166.187L173.262 -166.18L173.312 -166.171L173.361 -166.161L173.41 -166.15L173.458 -166.137L173.506 -166.123L173.554 -166.107L173.601 -166.09L173.648 -166.072L173.694 -166.052L173.739 -166.031L173.784 -166.008L173.828 -165.985L173.872 -165.96L173.914 -165.933L173.956 -165.906L173.997 -165.877L174.037 -165.847L174.077 -165.816L174.115 -165.783L174.152 -165.75L174.189 -165.715L174.224 -165.68L174.258 -165.643L174.291 -165.605L174.324 -165.567L174.354 -165.527L174.384 -165.487L174.413 -165.446L174.44 -165.404L174.466 -165.361L174.491 -165.317L174.514 -165.273L174.536 -165.228L174.557 -165.182L174.577 -165.136L174.595 -165.089L174.611 -165.042L174.627 -164.994L174.64 -164.946L174.653 -164.897L174.664 -164.849L174.673 -164.799L174.682 -164.75L174.688 -164.7L174.693 -164.65L174.697 -164.6L174.699 -164.55L174.7 -164.5Z" fill="none" stroke="#FF0000" stroke-width="0.025"/>
</svg>
