  0
SECTION
  2
BLOCKS
  0
ENDSEC
  0
SECTION
  2
ENTITIES
  0
LINE
  8
0
 10
5.72205e-07
 20
0
 11
228.6
 21
0
  0
LINE
  8
0
 10
228.6
 20
0
 11
228.6
 21
82.9
  0
LINE
  8
0
 10
228.6
 20
82.9
 11
5.72205e-07
 21
82.9
  0
LINE
  8
0
 10
5.72205e-07
 20
82.9
 11
5.72205e-07
 21
0
  0
LINE
  8
0
 10
11.3
 20
10
 11
11.3145
 21
10.2219
  0
LINE
  8
0
 10
11.3145
 20
10.2219
 11
11.3579
 21
10.44
  0
LINE
  8
0
 10
11.3579
 20
10.44
 11
11.4294
 21
10.6506
  0
LINE
  8
0
 10
11.4294
 20
10.6506
 11
11.5278
 21
10.85
  0
LINE
  8
0
 10
11.5278
 20
10.85
 11
11.6513
 21
11.0349
  0
LINE
  8
0
 10
11.6513
 20
11.0349
 11
11.7979
 21
11.2021
  0
LINE
  8
0
 10
11.7979
 20
11.2021
 11
11.9651
 21
11.3487
  0
LINE
  8
0
 10
11.9651
 20
11.3487
 11
12.15
 21
11.4722
  0
LINE
  8
0
 10
12.15
 20
11.4722
 11
12.3494
 21
11.5706
  0
LINE
  8
0
 10
12.3494
 20
11.5706
 11
12.56
 21
11.6421
  0
LINE
  8
0
 10
12.56
 20
11.6421
 11
12.7781
 21
11.6855
  0
LINE
  8
0
 10
12.7781
 20
11.6855
 11
13
 21
11.7
  0
LINE
  8
0
 10
13
 20
11.7
 11
13.2219
 21
11.6855
  0
LINE
  8
0
 10
13.2219
 20
11.6855
 11
13.44
 21
11.6421
  0
LINE
  8
0
 10
13.44
 20
11.6421
 11
13.6506
 21
11.5706
  0
LINE
  8
0
 10
13.6506
 20
11.5706
 11
13.85
 21
11.4722
  0
LINE
  8
0
 10
13.85
 20
11.4722
 11
14.0349
 21
11.3487
  0
LINE
  8
0
 10
14.0349
 20
11.3487
 11
14.2021
 21
11.2021
  0
LINE
  8
0
 10
14.2021
 20
11.2021
 11
14.3487
 21
11.0349
  0
LINE
  8
0
 10
14.3487
 20
11.0349
 11
14.4722
 21
10.85
  0
LINE
  8
0
 10
14.4722
 20
10.85
 11
14.5706
 21
10.6506
  0
LINE
  8
0
 10
14.5706
 20
10.6506
 11
14.6421
 21
10.44
  0
LINE
  8
0
 10
14.6421
 20
10.44
 11
14.6855
 21
10.2219
  0
LINE
  8
0
 10
14.6855
 20
10.2219
 11
14.7
 21
10
  0
LINE
  8
0
 10
14.7
 20
10
 11
14.6855
 21
9.7781
  0
LINE
  8
0
 10
14.6855
 20
9.7781
 11
14.6421
 21
9.56001
  0
LINE
  8
0
 10
14.6421
 20
9.56001
 11
14.5706
 21
9.34944
  0
LINE
  8
0
 10
14.5706
 20
9.34944
 11
14.4722
 21
9.15
  0
LINE
  8
0
 10
14.4722
 20
9.15
 11
14.3487
 21
8.96511
  0
LINE
  8
0
 10
14.3487
 20
8.96511
 11
14.2021
 21
8.79792
  0
LINE
  8
0
 10
14.2021
 20
8.79792
 11
14.0349
 21
8.6513
  0
LINE
  8
0
 10
14.0349
 20
8.6513
 11
13.85
 21
8.52776
  0
LINE
  8
0
 10
13.85
 20
8.52776
 11
13.6506
 21
8.4294
  0
LINE
  8
0
 10
13.6506
 20
8.4294
 11
13.44
 21
8.35793
  0
LINE
  8
0
 10
13.44
 20
8.35793
 11
13.2219
 21
8.31454
  0
LINE
  8
0
 10
13.2219
 20
8.31454
 11
13
 21
8.3
  0
LINE
  8
0
 10
13
 20
8.3
 11
12.7781
 21
8.31454
  0
LINE
  8
0
 10
12.7781
 20
8.31454
 11
12.56
 21
8.35793
  0
LINE
  8
0
 10
12.56
 20
8.35793
 11
12.3494
 21
8.4294
  0
LINE
  8
0
 10
12.3494
 20
8.4294
 11
12.15
 21
8.52776
  0
LINE
  8
0
 10
12.15
 20
8.52776
 11
11.9651
 21
8.6513
  0
LINE
  8
0
 10
11.9651
 20
8.6513
 11
11.7979
 21
8.79792
  0
LINE
  8
0
 10
11.7979
 20
8.79792
 11
11.6513
 21
8.96511
  0
LINE
  8
0
 10
11.6513
 20
8.96511
 11
11.5278
 21
9.15
  0
LINE
  8
0
 10
11.5278
 20
9.15
 11
11.4294
 21
9.34944
  0
LINE
  8
0
 10
11.4294
 20
9.34944
 11
11.3579
 21
9.56001
  0
LINE
  8
0
 10
11.3579
 20
9.56001
 11
11.3145
 21
9.7781
  0
LINE
  8
0
 10
11.3145
 20
9.7781
 11
11.3
 21
10
  0
LINE
  8
0
 10
11.3
 20
72.9
 11
11.3145
 21
73.1219
  0
LINE
  8
0
 10
11.3145
 20
73.1219
 11
11.3579
 21
73.34
  0
LINE
  8
0
 10
11.3579
 20
73.34
 11
11.4294
 21
73.5506
  0
LINE
  8
0
 10
11.4294
 20
73.5506
 11
11.5278
 21
73.75
  0
LINE
  8
0
 10
11.5278
 20
73.75
 11
11.6513
 21
73.9349
  0
LINE
  8
0
 10
11.6513
 20
73.9349
 11
11.7979
 21
74.1021
  0
LINE
  8
0
 10
11.7979
 20
74.1021
 11
11.9651
 21
74.2487
  0
LINE
  8
0
 10
11.9651
 20
74.2487
 11
12.15
 21
74.3722
  0
LINE
  8
0
 10
12.15
 20
74.3722
 11
12.3494
 21
74.4706
  0
LINE
  8
0
 10
12.3494
 20
74.4706
 11
12.56
 21
74.5421
  0
LINE
  8
0
 10
12.56
 20
74.5421
 11
12.7781
 21
74.5855
  0
LINE
  8
0
 10
12.7781
 20
74.5855
 11
13
 21
74.6
  0
LINE
  8
0
 10
13
 20
74.6
 11
13.2219
 21
74.5855
  0
LINE
  8
0
 10
13.2219
 20
74.5855
 11
13.44
 21
74.5421
  0
LINE
  8
0
 10
13.44
 20
74.5421
 11
13.6506
 21
74.4706
  0
LINE
  8
0
 10
13.6506
 20
74.4706
 11
13.85
 21
74.3722
  0
LINE
  8
0
 10
13.85
 20
74.3722
 11
14.0349
 21
74.2487
  0
LINE
  8
0
 10
14.0349
 20
74.2487
 11
14.2021
 21
74.1021
  0
LINE
  8
0
 10
14.2021
 20
74.1021
 11
14.3487
 21
73.9349
  0
LINE
  8
0
 10
14.3487
 20
73.9349
 11
14.4722
 21
73.75
  0
LINE
  8
0
 10
14.4722
 20
73.75
 11
14.5706
 21
73.5506
  0
LINE
  8
0
 10
14.5706
 20
73.5506
 11
14.6421
 21
73.34
  0
LINE
  8
0
 10
14.6421
 20
73.34
 11
14.6855
 21
73.1219
  0
LINE
  8
0
 10
14.6855
 20
73.1219
 11
14.7
 21
72.9
  0
LINE
  8
0
 10
14.7
 20
72.9
 11
14.6855
 21
72.6781
  0
LINE
  8
0
 10
14.6855
 20
72.6781
 11
14.6421
 21
72.46
  0
LINE
  8
0
 10
14.6421
 20
72.46
 11
14.5706
 21
72.2494
  0
LINE
  8
0
 10
14.5706
 20
72.2494
 11
14.4722
 21
72.05
  0
LINE
  8
0
 10
14.4722
 20
72.05
 11
14.3487
 21
71.8651
  0
LINE
  8
0
 10
14.3487
 20
71.8651
 11
14.2021
 21
71.6979
  0
LINE
  8
0
 10
14.2021
 20
71.6979
 11
14.0349
 21
71.5513
  0
LINE
  8
0
 10
14.0349
 20
71.5513
 11
13.85
 21
71.4278
  0
LINE
  8
0
 10
13.85
 20
71.4278
 11
13.6506
 21
71.3294
  0
LINE
  8
0
 10
13.6506
 20
71.3294
 11
13.44
 21
71.2579
  0
LINE
  8
0
 10
13.44
 20
71.2579
 11
13.2219
 21
71.2145
  0
LINE
  8
0
 10
13.2219
 20
71.2145
 11
13
 21
71.2
  0
LINE
  8
0
 10
13
 20
71.2
 11
12.7781
 21
71.2145
  0
LINE
  8
0
 10
12.7781
 20
71.2145
 11
12.56
 21
71.2579
  0
LINE
  8
0
 10
12.56
 20
71.2579
 11
12.3494
 21
71.3294
  0
LINE
  8
0
 10
12.3494
 20
71.3294
 11
12.15
 21
71.4278
  0
LINE
  8
0
 10
12.15
 20
71.4278
 11
11.9651
 21
71.5513
  0
LINE
  8
0
 10
11.9651
 20
71.5513
 11
11.7979
 21
71.6979
  0
LINE
  8
0
 10
11.7979
 20
71.6979
 11
11.6513
 21
71.8651
  0
LINE
  8
0
 10
11.6513
 20
71.8651
 11
11.5278
 21
72.05
  0
LINE
  8
0
 10
11.5278
 20
72.05
 11
11.4294
 21
72.2494
  0
LINE
  8
0
 10
11.4294
 20
72.2494
 11
11.3579
 21
72.46
  0
LINE
  8
0
 10
11.3579
 20
72.46
 11
11.3145
 21
72.6781
  0
LINE
  8
0
 10
11.3145
 20
72.6781
 11
11.3
 21
72.9
  0
LINE
  8
0
 10
42.2
 20
34.1
 11
42.2145
 21
34.3219
  0
LINE
  8
0
 10
42.2145
 20
34.3219
 11
42.2579
 21
34.54
  0
LINE
  8
0
 10
42.2579
 20
34.54
 11
42.3294
 21
34.7506
  0
LINE
  8
0
 10
42.3294
 20
34.7506
 11
42.4278
 21
34.95
  0
LINE
  8
0
 10
42.4278
 20
34.95
 11
42.5513
 21
35.1349
  0
LINE
  8
0
 10
42.5513
 20
35.1349
 11
42.6979
 21
35.3021
  0
LINE
  8
0
 10
42.6979
 20
35.3021
 11
42.8651
 21
35.4487
  0
LINE
  8
0
 10
42.8651
 20
35.4487
 11
43.05
 21
35.5722
  0
LINE
  8
0
 10
43.05
 20
35.5722
 11
43.2494
 21
35.6706
  0
LINE
  8
0
 10
43.2494
 20
35.6706
 11
43.46
 21
35.7421
  0
LINE
  8
0
 10
43.46
 20
35.7421
 11
43.6781
 21
35.7855
  0
LINE
  8
0
 10
43.6781
 20
35.7855
 11
43.9
 21
35.8
  0
LINE
  8
0
 10
43.9
 20
35.8
 11
44.1219
 21
35.7855
  0
LINE
  8
0
 10
44.1219
 20
35.7855
 11
44.34
 21
35.7421
  0
LINE
  8
0
 10
44.34
 20
35.7421
 11
44.5506
 21
35.6706
  0
LINE
  8
0
 10
44.5506
 20
35.6706
 11
44.75
 21
35.5722
  0
LINE
  8
0
 10
44.75
 20
35.5722
 11
44.9349
 21
35.4487
  0
LINE
  8
0
 10
44.9349
 20
35.4487
 11
45.1021
 21
35.3021
  0
LINE
  8
0
 10
45.1021
 20
35.3021
 11
45.2487
 21
35.1349
  0
LINE
  8
0
 10
45.2487
 20
35.1349
 11
45.3722
 21
34.95
  0
LINE
  8
0
 10
45.3722
 20
34.95
 11
45.4706
 21
34.7506
  0
LINE
  8
0
 10
45.4706
 20
34.7506
 11
45.5421
 21
34.54
  0
LINE
  8
0
 10
45.5421
 20
34.54
 11
45.5855
 21
34.3219
  0
LINE
  8
0
 10
45.5855
 20
34.3219
 11
45.6
 21
34.1
  0
LINE
  8
0
 10
45.6
 20
34.1
 11
45.5855
 21
33.8781
  0
LINE
  8
0
 10
45.5855
 20
33.8781
 11
45.5421
 21
33.66
  0
LINE
  8
0
 10
45.5421
 20
33.66
 11
45.4706
 21
33.4494
  0
LINE
  8
0
 10
45.4706
 20
33.4494
 11
45.3722
 21
33.25
  0
LINE
  8
0
 10
45.3722
 20
33.25
 11
45.2487
 21
33.0651
  0
LINE
  8
0
 10
45.2487
 20
33.0651
 11
45.1021
 21
32.8979
  0
LINE
  8
0
 10
45.1021
 20
32.8979
 11
44.9349
 21
32.7513
  0
LINE
  8
0
 10
44.9349
 20
32.7513
 11
44.75
 21
32.6278
  0
LINE
  8
0
 10
44.75
 20
32.6278
 11
44.5506
 21
32.5294
  0
LINE
  8
0
 10
44.5506
 20
32.5294
 11
44.34
 21
32.4579
  0
LINE
  8
0
 10
44.34
 20
32.4579
 11
44.1219
 21
32.4145
  0
LINE
  8
0
 10
44.1219
 20
32.4145
 11
43.9
 21
32.4
  0
LINE
  8
0
 10
43.9
 20
32.4
 11
43.6781
 21
32.4145
  0
LINE
  8
0
 10
43.6781
 20
32.4145
 11
43.46
 21
32.4579
  0
LINE
  8
0
 10
43.46
 20
32.4579
 11
43.2494
 21
32.5294
  0
LINE
  8
0
 10
43.2494
 20
32.5294
 11
43.05
 21
32.6278
  0
LINE
  8
0
 10
43.05
 20
32.6278
 11
42.8651
 21
32.7513
  0
LINE
  8
0
 10
42.8651
 20
32.7513
 11
42.6979
 21
32.8979
  0
LINE
  8
0
 10
42.6979
 20
32.8979
 11
42.5513
 21
33.0651
  0
LINE
  8
0
 10
42.5513
 20
33.0651
 11
42.4278
 21
33.25
  0
LINE
  8
0
 10
42.4278
 20
33.25
 11
42.3294
 21
33.4494
  0
LINE
  8
0
 10
42.3294
 20
33.4494
 11
42.2579
 21
33.66
  0
LINE
  8
0
 10
42.2579
 20
33.66
 11
42.2145
 21
33.8781
  0
LINE
  8
0
 10
42.2145
 20
33.8781
 11
42.2
 21
34.1
  0
LINE
  8
0
 10
42.2
 20
69.9
 11
42.2145
 21
70.1219
  0
LINE
  8
0
 10
42.2145
 20
70.1219
 11
42.2579
 21
70.34
  0
LINE
  8
0
 10
42.2579
 20
70.34
 11
42.3294
 21
70.5506
  0
LINE
  8
0
 10
42.3294
 20
70.5506
 11
42.4278
 21
70.75
  0
LINE
  8
0
 10
42.4278
 20
70.75
 11
42.5513
 21
70.9349
  0
LINE
  8
0
 10
42.5513
 20
70.9349
 11
42.6979
 21
71.1021
  0
LINE
  8
0
 10
42.6979
 20
71.1021
 11
42.8651
 21
71.2487
  0
LINE
  8
0
 10
42.8651
 20
71.2487
 11
43.05
 21
71.3722
  0
LINE
  8
0
 10
43.05
 20
71.3722
 11
43.2494
 21
71.4706
  0
LINE
  8
0
 10
43.2494
 20
71.4706
 11
43.46
 21
71.5421
  0
LINE
  8
0
 10
43.46
 20
71.5421
 11
43.6781
 21
71.5855
  0
LINE
  8
0
 10
43.6781
 20
71.5855
 11
43.9
 21
71.6
  0
LINE
  8
0
 10
43.9
 20
71.6
 11
44.1219
 21
71.5855
  0
LINE
  8
0
 10
44.1219
 20
71.5855
 11
44.34
 21
71.5421
  0
LINE
  8
0
 10
44.34
 20
71.5421
 11
44.5506
 21
71.4706
  0
LINE
  8
0
 10
44.5506
 20
71.4706
 11
44.75
 21
71.3722
  0
LINE
  8
0
 10
44.75
 20
71.3722
 11
44.9349
 21
71.2487
  0
LINE
  8
0
 10
44.9349
 20
71.2487
 11
45.1021
 21
71.1021
  0
LINE
  8
0
 10
45.1021
 20
71.1021
 11
45.2487
 21
70.9349
  0
LINE
  8
0
 10
45.2487
 20
70.9349
 11
45.3722
 21
70.75
  0
LINE
  8
0
 10
45.3722
 20
70.75
 11
45.4706
 21
70.5506
  0
LINE
  8
0
 10
45.4706
 20
70.5506
 11
45.5421
 21
70.34
  0
LINE
  8
0
 10
45.5421
 20
70.34
 11
45.5855
 21
70.1219
  0
LINE
  8
0
 10
45.5855
 20
70.1219
 11
45.6
 21
69.9
  0
LINE
  8
0
 10
45.6
 20
69.9
 11
45.5855
 21
69.6781
  0
LINE
  8
0
 10
45.5855
 20
69.6781
 11
45.5421
 21
69.46
  0
LINE
  8
0
 10
45.5421
 20
69.46
 11
45.4706
 21
69.2494
  0
LINE
  8
0
 10
45.4706
 20
69.2494
 11
45.3722
 21
69.05
  0
LINE
  8
0
 10
45.3722
 20
69.05
 11
45.2487
 21
68.8651
  0
LINE
  8
0
 10
45.2487
 20
68.8651
 11
45.1021
 21
68.6979
  0
LINE
  8
0
 10
45.1021
 20
68.6979
 11
44.9349
 21
68.5513
  0
LINE
  8
0
 10
44.9349
 20
68.5513
 11
44.75
 21
68.4278
  0
LINE
  8
0
 10
44.75
 20
68.4278
 11
44.5506
 21
68.3294
  0
LINE
  8
0
 10
44.5506
 20
68.3294
 11
44.34
 21
68.2579
  0
LINE
  8
0
 10
44.34
 20
68.2579
 11
44.1219
 21
68.2145
  0
LINE
  8
0
 10
44.1219
 20
68.2145
 11
43.9
 21
68.2
  0
LINE
  8
0
 10
43.9
 20
68.2
 11
43.6781
 21
68.2145
  0
LINE
  8
0
 10
43.6781
 20
68.2145
 11
43.46
 21
68.2579
  0
LINE
  8
0
 10
43.46
 20
68.2579
 11
43.2494
 21
68.3294
  0
LINE
  8
0
 10
43.2494
 20
68.3294
 11
43.05
 21
68.4278
  0
LINE
  8
0
 10
43.05
 20
68.4278
 11
42.8651
 21
68.5513
  0
LINE
  8
0
 10
42.8651
 20
68.5513
 11
42.6979
 21
68.6979
  0
LINE
  8
0
 10
42.6979
 20
68.6979
 11
42.5513
 21
68.8651
  0
LINE
  8
0
 10
42.5513
 20
68.8651
 11
42.4278
 21
69.05
  0
LINE
  8
0
 10
42.4278
 20
69.05
 11
42.3294
 21
69.2494
  0
LINE
  8
0
 10
42.3294
 20
69.2494
 11
42.2579
 21
69.46
  0
LINE
  8
0
 10
42.2579
 20
69.46
 11
42.2145
 21
69.6781
  0
LINE
  8
0
 10
42.2145
 20
69.6781
 11
42.2
 21
69.9
  0
LINE
  8
0
 10
64.3
 20
10.1
 11
64.3171
 21
10.3611
  0
LINE
  8
0
 10
64.3171
 20
10.3611
 11
64.3681
 21
10.6176
  0
LINE
  8
0
 10
64.3681
 20
10.6176
 11
64.4522
 21
10.8654
  0
LINE
  8
0
 10
64.4522
 20
10.8654
 11
64.5679
 21
11.1
  0
LINE
  8
0
 10
64.5679
 20
11.1
 11
64.7133
 21
11.3175
  0
LINE
  8
0
 10
64.7133
 20
11.3175
 11
64.8858
 21
11.5142
  0
LINE
  8
0
 10
64.8858
 20
11.5142
 11
65.0825
 21
11.6867
  0
LINE
  8
0
 10
65.0825
 20
11.6867
 11
65.3
 21
11.8321
  0
LINE
  8
0
 10
65.3
 20
11.8321
 11
65.5346
 21
11.9478
  0
LINE
  8
0
 10
65.5346
 20
11.9478
 11
65.7824
 21
12.0319
  0
LINE
  8
0
 10
65.7824
 20
12.0319
 11
66.0389
 21
12.0829
  0
LINE
  8
0
 10
66.0389
 20
12.0829
 11
66.3
 21
12.1
  0
LINE
  8
0
 10
66.3
 20
12.1
 11
162.3
 21
12.1
  0
LINE
  8
0
 10
162.3
 20
12.1
 11
162.561
 21
12.0829
  0
LINE
  8
0
 10
162.561
 20
12.0829
 11
162.818
 21
12.0319
  0
LINE
  8
0
 10
162.818
 20
12.0319
 11
163.065
 21
11.9478
  0
LINE
  8
0
 10
163.065
 20
11.9478
 11
163.3
 21
11.8321
  0
LINE
  8
0
 10
163.3
 20
11.8321
 11
163.518
 21
11.6867
  0
LINE
  8
0
 10
163.518
 20
11.6867
 11
163.714
 21
11.5142
  0
LINE
  8
0
 10
163.714
 20
11.5142
 11
163.887
 21
11.3175
  0
LINE
  8
0
 10
163.887
 20
11.3175
 11
164.032
 21
11.1
  0
LINE
  8
0
 10
164.032
 20
11.1
 11
164.148
 21
10.8654
  0
LINE
  8
0
 10
164.148
 20
10.8654
 11
164.232
 21
10.6176
  0
LINE
  8
0
 10
164.232
 20
10.6176
 11
164.283
 21
10.3611
  0
LINE
  8
0
 10
164.283
 20
10.3611
 11
164.3
 21
10.1
  0
LINE
  8
0
 10
164.3
 20
10.1
 11
164.283
 21
9.83895
  0
LINE
  8
0
 10
164.283
 20
9.83895
 11
164.232
 21
9.58236
  0
LINE
  8
0
 10
164.232
 20
9.58236
 11
164.148
 21
9.33463
  0
LINE
  8
0
 10
164.148
 20
9.33463
 11
164.032
 21
9.1
  0
LINE
  8
0
 10
164.032
 20
9.1
 11
163.887
 21
8.88248
  0
LINE
  8
0
 10
163.887
 20
8.88248
 11
163.714
 21
8.68579
  0
LINE
  8
0
 10
163.714
 20
8.68579
 11
163.518
 21
8.51329
  0
LINE
  8
0
 10
163.518
 20
8.51329
 11
163.3
 21
8.36795
  0
LINE
  8
0
 10
163.3
 20
8.36795
 11
163.065
 21
8.25224
  0
LINE
  8
0
 10
163.065
 20
8.25224
 11
162.818
 21
8.16815
  0
LINE
  8
0
 10
162.818
 20
8.16815
 11
162.561
 21
8.11711
  0
LINE
  8
0
 10
162.561
 20
8.11711
 11
162.3
 21
8.1
  0
LINE
  8
0
 10
162.3
 20
8.1
 11
66.3
 21
8.1
  0
LINE
  8
0
 10
66.3
 20
8.1
 11
66.0389
 21
8.11711
  0
LINE
  8
0
 10
66.0389
 20
8.11711
 11
65.7824
 21
8.16815
  0
LINE
  8
0
 10
65.7824
 20
8.16815
 11
65.5346
 21
8.25224
  0
LINE
  8
0
 10
65.5346
 20
8.25224
 11
65.3
 21
8.36795
  0
LINE
  8
0
 10
65.3
 20
8.36795
 11
65.0825
 21
8.51329
  0
LINE
  8
0
 10
65.0825
 20
8.51329
 11
64.8858
 21
8.68579
  0
LINE
  8
0
 10
64.8858
 20
8.68579
 11
64.7133
 21
8.88248
  0
LINE
  8
0
 10
64.7133
 20
8.88248
 11
64.5679
 21
9.1
  0
LINE
  8
0
 10
64.5679
 20
9.1
 11
64.4522
 21
9.33463
  0
LINE
  8
0
 10
64.4522
 20
9.33463
 11
64.3681
 21
9.58236
  0
LINE
  8
0
 10
64.3681
 20
9.58236
 11
64.3171
 21
9.83895
  0
LINE
  8
0
 10
64.3171
 20
9.83895
 11
64.3
 21
10.1
  0
LINE
  8
0
 10
64.3
 20
17.1
 11
64.3171
 21
17.3611
  0
LINE
  8
0
 10
64.3171
 20
17.3611
 11
64.3681
 21
17.6176
  0
LINE
  8
0
 10
64.3681
 20
17.6176
 11
64.4522
 21
17.8654
  0
LINE
  8
0
 10
64.4522
 20
17.8654
 11
64.5679
 21
18.1
  0
LINE
  8
0
 10
64.5679
 20
18.1
 11
64.7133
 21
18.3175
  0
LINE
  8
0
 10
64.7133
 20
18.3175
 11
64.8858
 21
18.5142
  0
LINE
  8
0
 10
64.8858
 20
18.5142
 11
65.0825
 21
18.6867
  0
LINE
  8
0
 10
65.0825
 20
18.6867
 11
65.3
 21
18.8321
  0
LINE
  8
0
 10
65.3
 20
18.8321
 11
65.5346
 21
18.9478
  0
LINE
  8
0
 10
65.5346
 20
18.9478
 11
65.7824
 21
19.0319
  0
LINE
  8
0
 10
65.7824
 20
19.0319
 11
66.0389
 21
19.0829
  0
LINE
  8
0
 10
66.0389
 20
19.0829
 11
66.3
 21
19.1
  0
LINE
  8
0
 10
66.3
 20
19.1
 11
162.3
 21
19.1
  0
LINE
  8
0
 10
162.3
 20
19.1
 11
162.561
 21
19.0829
  0
LINE
  8
0
 10
162.561
 20
19.0829
 11
162.818
 21
19.0319
  0
LINE
  8
0
 10
162.818
 20
19.0319
 11
163.065
 21
18.9478
  0
LINE
  8
0
 10
163.065
 20
18.9478
 11
163.3
 21
18.8321
  0
LINE
  8
0
 10
163.3
 20
18.8321
 11
163.518
 21
18.6867
  0
LINE
  8
0
 10
163.518
 20
18.6867
 11
163.714
 21
18.5142
  0
LINE
  8
0
 10
163.714
 20
18.5142
 11
163.887
 21
18.3175
  0
LINE
  8
0
 10
163.887
 20
18.3175
 11
164.032
 21
18.1
  0
LINE
  8
0
 10
164.032
 20
18.1
 11
164.148
 21
17.8654
  0
LINE
  8
0
 10
164.148
 20
17.8654
 11
164.232
 21
17.6176
  0
LINE
  8
0
 10
164.232
 20
17.6176
 11
164.283
 21
17.3611
  0
LINE
  8
0
 10
164.283
 20
17.3611
 11
164.3
 21
17.1
  0
LINE
  8
0
 10
164.3
 20
17.1
 11
164.283
 21
16.8389
  0
LINE
  8
0
 10
164.283
 20
16.8389
 11
164.232
 21
16.5824
  0
LINE
  8
0
 10
164.232
 20
16.5824
 11
164.148
 21
16.3346
  0
LINE
  8
0
 10
164.148
 20
16.3346
 11
164.032
 21
16.1
  0
LINE
  8
0
 10
164.032
 20
16.1
 11
163.887
 21
15.8825
  0
LINE
  8
0
 10
163.887
 20
15.8825
 11
163.714
 21
15.6858
  0
LINE
  8
0
 10
163.714
 20
15.6858
 11
163.518
 21
15.5133
  0
LINE
  8
0
 10
163.518
 20
15.5133
 11
163.3
 21
15.3679
  0
LINE
  8
0
 10
163.3
 20
15.3679
 11
163.065
 21
15.2522
  0
LINE
  8
0
 10
163.065
 20
15.2522
 11
162.818
 21
15.1681
  0
LINE
  8
0
 10
162.818
 20
15.1681
 11
162.561
 21
15.1171
  0
LINE
  8
0
 10
162.561
 20
15.1171
 11
162.3
 21
15.1
  0
LINE
  8
0
 10
162.3
 20
15.1
 11
66.3
 21
15.1
  0
LINE
  8
0
 10
66.3
 20
15.1
 11
66.0389
 21
15.1171
  0
LINE
  8
0
 10
66.0389
 20
15.1171
 11
65.7824
 21
15.1681
  0
LINE
  8
0
 10
65.7824
 20
15.1681
 11
65.5346
 21
15.2522
  0
LINE
  8
0
 10
65.5346
 20
15.2522
 11
65.3
 21
15.3679
  0
LINE
  8
0
 10
65.3
 20
15.3679
 11
65.0825
 21
15.5133
  0
LINE
  8
0
 10
65.0825
 20
15.5133
 11
64.8858
 21
15.6858
  0
LINE
  8
0
 10
64.8858
 20
15.6858
 11
64.7133
 21
15.8825
  0
LINE
  8
0
 10
64.7133
 20
15.8825
 11
64.5679
 21
16.1
  0
LINE
  8
0
 10
64.5679
 20
16.1
 11
64.4522
 21
16.3346
  0
LINE
  8
0
 10
64.4522
 20
16.3346
 11
64.3681
 21
16.5824
  0
LINE
  8
0
 10
64.3681
 20
16.5824
 11
64.3171
 21
16.8389
  0
LINE
  8
0
 10
64.3171
 20
16.8389
 11
64.3
 21
17.1
  0
LINE
  8
0
 10
183
 20
34.1
 11
183.015
 21
34.3219
  0
LINE
  8
0
 10
183.015
 20
34.3219
 11
183.058
 21
34.54
  0
LINE
  8
0
 10
183.058
 20
34.54
 11
183.129
 21
34.7506
  0
LINE
  8
0
 10
183.129
 20
34.7506
 11
183.228
 21
34.95
  0
LINE
  8
0
 10
183.228
 20
34.95
 11
183.351
 21
35.1349
  0
LINE
  8
0
 10
183.351
 20
35.1349
 11
183.498
 21
35.3021
  0
LINE
  8
0
 10
183.498
 20
35.3021
 11
183.665
 21
35.4487
  0
LINE
  8
0
 10
183.665
 20
35.4487
 11
183.85
 21
35.5722
  0
LINE
  8
0
 10
183.85
 20
35.5722
 11
184.049
 21
35.6706
  0
LINE
  8
0
 10
184.049
 20
35.6706
 11
184.26
 21
35.7421
  0
LINE
  8
0
 10
184.26
 20
35.7421
 11
184.478
 21
35.7855
  0
LINE
  8
0
 10
184.478
 20
35.7855
 11
184.7
 21
35.8
  0
LINE
  8
0
 10
184.7
 20
35.8
 11
184.922
 21
35.7855
  0
LINE
  8
0
 10
184.922
 20
35.7855
 11
185.14
 21
35.7421
  0
LINE
  8
0
 10
185.14
 20
35.7421
 11
185.351
 21
35.6706
  0
LINE
  8
0
 10
185.351
 20
35.6706
 11
185.55
 21
35.5722
  0
LINE
  8
0
 10
185.55
 20
35.5722
 11
185.735
 21
35.4487
  0
LINE
  8
0
 10
185.735
 20
35.4487
 11
185.902
 21
35.3021
  0
LINE
  8
0
 10
185.902
 20
35.3021
 11
186.049
 21
35.1349
  0
LINE
  8
0
 10
186.049
 20
35.1349
 11
186.172
 21
34.95
  0
LINE
  8
0
 10
186.172
 20
34.95
 11
186.271
 21
34.7506
  0
LINE
  8
0
 10
186.271
 20
34.7506
 11
186.342
 21
34.54
  0
LINE
  8
0
 10
186.342
 20
34.54
 11
186.385
 21
34.3219
  0
LINE
  8
0
 10
186.385
 20
34.3219
 11
186.4
 21
34.1
  0
LINE
  8
0
 10
186.4
 20
34.1
 11
186.385
 21
33.8781
  0
LINE
  8
0
 10
186.385
 20
33.8781
 11
186.342
 21
33.66
  0
LINE
  8
0
 10
186.342
 20
33.66
 11
186.271
 21
33.4494
  0
LINE
  8
0
 10
186.271
 20
33.4494
 11
186.172
 21
33.25
  0
LINE
  8
0
 10
186.172
 20
33.25
 11
186.049
 21
33.0651
  0
LINE
  8
0
 10
186.049
 20
33.0651
 11
185.902
 21
32.8979
  0
LINE
  8
0
 10
185.902
 20
32.8979
 11
185.735
 21
32.7513
  0
LINE
  8
0
 10
185.735
 20
32.7513
 11
185.55
 21
32.6278
  0
LINE
  8
0
 10
185.55
 20
32.6278
 11
185.351
 21
32.5294
  0
LINE
  8
0
 10
185.351
 20
32.5294
 11
185.14
 21
32.4579
  0
LINE
  8
0
 10
185.14
 20
32.4579
 11
184.922
 21
32.4145
  0
LINE
  8
0
 10
184.922
 20
32.4145
 11
184.7
 21
32.4
  0
LINE
  8
0
 10
184.7
 20
32.4
 11
184.478
 21
32.4145
  0
LINE
  8
0
 10
184.478
 20
32.4145
 11
184.26
 21
32.4579
  0
LINE
  8
0
 10
184.26
 20
32.4579
 11
184.049
 21
32.5294
  0
LINE
  8
0
 10
184.049
 20
32.5294
 11
183.85
 21
32.6278
  0
LINE
  8
0
 10
183.85
 20
32.6278
 11
183.665
 21
32.7513
  0
LINE
  8
0
 10
183.665
 20
32.7513
 11
183.498
 21
32.8979
  0
LINE
  8
0
 10
183.498
 20
32.8979
 11
183.351
 21
33.0651
  0
LINE
  8
0
 10
183.351
 20
33.0651
 11
183.228
 21
33.25
  0
LINE
  8
0
 10
183.228
 20
33.25
 11
183.129
 21
33.4494
  0
LINE
  8
0
 10
183.129
 20
33.4494
 11
183.058
 21
33.66
  0
LINE
  8
0
 10
183.058
 20
33.66
 11
183.015
 21
33.8781
  0
LINE
  8
0
 10
183.015
 20
33.8781
 11
183
 21
34.1
  0
LINE
  8
0
 10
183
 20
69.9
 11
183.015
 21
70.1219
  0
LINE
  8
0
 10
183.015
 20
70.1219
 11
183.058
 21
70.34
  0
LINE
  8
0
 10
183.058
 20
70.34
 11
183.129
 21
70.5506
  0
LINE
  8
0
 10
183.129
 20
70.5506
 11
183.228
 21
70.75
  0
LINE
  8
0
 10
183.228
 20
70.75
 11
183.351
 21
70.9349
  0
LINE
  8
0
 10
183.351
 20
70.9349
 11
183.498
 21
71.1021
  0
LINE
  8
0
 10
183.498
 20
71.1021
 11
183.665
 21
71.2487
  0
LINE
  8
0
 10
183.665
 20
71.2487
 11
183.85
 21
71.3722
  0
LINE
  8
0
 10
183.85
 20
71.3722
 11
184.049
 21
71.4706
  0
LINE
  8
0
 10
184.049
 20
71.4706
 11
184.26
 21
71.5421
  0
LINE
  8
0
 10
184.26
 20
71.5421
 11
184.478
 21
71.5855
  0
LINE
  8
0
 10
184.478
 20
71.5855
 11
184.7
 21
71.6
  0
LINE
  8
0
 10
184.7
 20
71.6
 11
184.922
 21
71.5855
  0
LINE
  8
0
 10
184.922
 20
71.5855
 11
185.14
 21
71.5421
  0
LINE
  8
0
 10
185.14
 20
71.5421
 11
185.351
 21
71.4706
  0
LINE
  8
0
 10
185.351
 20
71.4706
 11
185.55
 21
71.3722
  0
LINE
  8
0
 10
185.55
 20
71.3722
 11
185.735
 21
71.2487
  0
LINE
  8
0
 10
185.735
 20
71.2487
 11
185.902
 21
71.1021
  0
LINE
  8
0
 10
185.902
 20
71.1021
 11
186.049
 21
70.9349
  0
LINE
  8
0
 10
186.049
 20
70.9349
 11
186.172
 21
70.75
  0
LINE
  8
0
 10
186.172
 20
70.75
 11
186.271
 21
70.5506
  0
LINE
  8
0
 10
186.271
 20
70.5506
 11
186.342
 21
70.34
  0
LINE
  8
0
 10
186.342
 20
70.34
 11
186.385
 21
70.1219
  0
LINE
  8
0
 10
186.385
 20
70.1219
 11
186.4
 21
69.9
  0
LINE
  8
0
 10
186.4
 20
69.9
 11
186.385
 21
69.6781
  0
LINE
  8
0
 10
186.385
 20
69.6781
 11
186.342
 21
69.46
  0
LINE
  8
0
 10
186.342
 20
69.46
 11
186.271
 21
69.2494
  0
LINE
  8
0
 10
186.271
 20
69.2494
 11
186.172
 21
69.05
  0
LINE
  8
0
 10
186.172
 20
69.05
 11
186.049
 21
68.8651
  0
LINE
  8
0
 10
186.049
 20
68.8651
 11
185.902
 21
68.6979
  0
LINE
  8
0
 10
185.902
 20
68.6979
 11
185.735
 21
68.5513
  0
LINE
  8
0
 10
185.735
 20
68.5513
 11
185.55
 21
68.4278
  0
LINE
  8
0
 10
185.55
 20
68.4278
 11
185.351
 21
68.3294
  0
LINE
  8
0
 10
185.351
 20
68.3294
 11
185.14
 21
68.2579
  0
LINE
  8
0
 10
185.14
 20
68.2579
 11
184.922
 21
68.2145
  0
LINE
  8
0
 10
184.922
 20
68.2145
 11
184.7
 21
68.2
  0
LINE
  8
0
 10
184.7
 20
68.2
 11
184.478
 21
68.2145
  0
LINE
  8
0
 10
184.478
 20
68.2145
 11
184.26
 21
68.2579
  0
LINE
  8
0
 10
184.26
 20
68.2579
 11
184.049
 21
68.3294
  0
LINE
  8
0
 10
184.049
 20
68.3294
 11
183.85
 21
68.4278
  0
LINE
  8
0
 10
183.85
 20
68.4278
 11
183.665
 21
68.5513
  0
LINE
  8
0
 10
183.665
 20
68.5513
 11
183.498
 21
68.6979
  0
LINE
  8
0
 10
183.498
 20
68.6979
 11
183.351
 21
68.8651
  0
LINE
  8
0
 10
183.351
 20
68.8651
 11
183.228
 21
69.05
  0
LINE
  8
0
 10
183.228
 20
69.05
 11
183.129
 21
69.2494
  0
LINE
  8
0
 10
183.129
 20
69.2494
 11
183.058
 21
69.46
  0
LINE
  8
0
 10
183.058
 20
69.46
 11
183.015
 21
69.6781
  0
LINE
  8
0
 10
183.015
 20
69.6781
 11
183
 21
69.9
  0
LINE
  8
0
 10
213.9
 20
10
 11
213.915
 21
10.2219
  0
LINE
  8
0
 10
213.915
 20
10.2219
 11
213.958
 21
10.44
  0
LINE
  8
0
 10
213.958
 20
10.44
 11
214.029
 21
10.6506
  0
LINE
  8
0
 10
214.029
 20
10.6506
 11
214.128
 21
10.85
  0
LINE
  8
0
 10
214.128
 20
10.85
 11
214.251
 21
11.0349
  0
LINE
  8
0
 10
214.251
 20
11.0349
 11
214.398
 21
11.2021
  0
LINE
  8
0
 10
214.398
 20
11.2021
 11
214.565
 21
11.3487
  0
LINE
  8
0
 10
214.565
 20
11.3487
 11
214.75
 21
11.4722
  0
LINE
  8
0
 10
214.75
 20
11.4722
 11
214.949
 21
11.5706
  0
LINE
  8
0
 10
214.949
 20
11.5706
 11
215.16
 21
11.6421
  0
LINE
  8
0
 10
215.16
 20
11.6421
 11
215.378
 21
11.6855
  0
LINE
  8
0
 10
215.378
 20
11.6855
 11
215.6
 21
11.7
  0
LINE
  8
0
 10
215.6
 20
11.7
 11
215.822
 21
11.6855
  0
LINE
  8
0
 10
215.822
 20
11.6855
 11
216.04
 21
11.6421
  0
LINE
  8
0
 10
216.04
 20
11.6421
 11
216.251
 21
11.5706
  0
LINE
  8
0
 10
216.251
 20
11.5706
 11
216.45
 21
11.4722
  0
LINE
  8
0
 10
216.45
 20
11.4722
 11
216.635
 21
11.3487
  0
LINE
  8
0
 10
216.635
 20
11.3487
 11
216.802
 21
11.2021
  0
LINE
  8
0
 10
216.802
 20
11.2021
 11
216.949
 21
11.0349
  0
LINE
  8
0
 10
216.949
 20
11.0349
 11
217.072
 21
10.85
  0
LINE
  8
0
 10
217.072
 20
10.85
 11
217.171
 21
10.6506
  0
LINE
  8
0
 10
217.171
 20
10.6506
 11
217.242
 21
10.44
  0
LINE
  8
0
 10
217.242
 20
10.44
 11
217.285
 21
10.2219
  0
LINE
  8
0
 10
217.285
 20
10.2219
 11
217.3
 21
10
  0
LINE
  8
0
 10
217.3
 20
10
 11
217.285
 21
9.7781
  0
LINE
  8
0
 10
217.285
 20
9.7781
 11
217.242
 21
9.56001
  0
LINE
  8
0
 10
217.242
 20
9.56001
 11
217.171
 21
9.34944
  0
LINE
  8
0
 10
217.171
 20
9.34944
 11
217.072
 21
9.15
  0
LINE
  8
0
 10
217.072
 20
9.15
 11
216.949
 21
8.96511
  0
LINE
  8
0
 10
216.949
 20
8.96511
 11
216.802
 21
8.79792
  0
LINE
  8
0
 10
216.802
 20
8.79792
 11
216.635
 21
8.6513
  0
LINE
  8
0
 10
216.635
 20
8.6513
 11
216.45
 21
8.52776
  0
LINE
  8
0
 10
216.45
 20
8.52776
 11
216.251
 21
8.4294
  0
LINE
  8
0
 10
216.251
 20
8.4294
 11
216.04
 21
8.35793
  0
LINE
  8
0
 10
216.04
 20
8.35793
 11
215.822
 21
8.31454
  0
LINE
  8
0
 10
215.822
 20
8.31454
 11
215.6
 21
8.3
  0
LINE
  8
0
 10
215.6
 20
8.3
 11
215.378
 21
8.31454
  0
LINE
  8
0
 10
215.378
 20
8.31454
 11
215.16
 21
8.35793
  0
LINE
  8
0
 10
215.16
 20
8.35793
 11
214.949
 21
8.4294
  0
LINE
  8
0
 10
214.949
 20
8.4294
 11
214.75
 21
8.52776
  0
LINE
  8
0
 10
214.75
 20
8.52776
 11
214.565
 21
8.6513
  0
LINE
  8
0
 10
214.565
 20
8.6513
 11
214.398
 21
8.79792
  0
LINE
  8
0
 10
214.398
 20
8.79792
 11
214.251
 21
8.96511
  0
LINE
  8
0
 10
214.251
 20
8.96511
 11
214.128
 21
9.15
  0
LINE
  8
0
 10
214.128
 20
9.15
 11
214.029
 21
9.34944
  0
LINE
  8
0
 10
214.029
 20
9.34944
 11
213.958
 21
9.56001
  0
LINE
  8
0
 10
213.958
 20
9.56001
 11
213.915
 21
9.7781
  0
LINE
  8
0
 10
213.915
 20
9.7781
 11
213.9
 21
10
  0
LINE
  8
0
 10
213.9
 20
72.9
 11
213.915
 21
73.1219
  0
LINE
  8
0
 10
213.915
 20
73.1219
 11
213.958
 21
73.34
  0
LINE
  8
0
 10
213.958
 20
73.34
 11
214.029
 21
73.5506
  0
LINE
  8
0
 10
214.029
 20
73.5506
 11
214.128
 21
73.75
  0
LINE
  8
0
 10
214.128
 20
73.75
 11
214.251
 21
73.9349
  0
LINE
  8
0
 10
214.251
 20
73.9349
 11
214.398
 21
74.1021
  0
LINE
  8
0
 10
214.398
 20
74.1021
 11
214.565
 21
74.2487
  0
LINE
  8
0
 10
214.565
 20
74.2487
 11
214.75
 21
74.3722
  0
LINE
  8
0
 10
214.75
 20
74.3722
 11
214.949
 21
74.4706
  0
LINE
  8
0
 10
214.949
 20
74.4706
 11
215.16
 21
74.5421
  0
LINE
  8
0
 10
215.16
 20
74.5421
 11
215.378
 21
74.5855
  0
LINE
  8
0
 10
215.378
 20
74.5855
 11
215.6
 21
74.6
  0
LINE
  8
0
 10
215.6
 20
74.6
 11
215.822
 21
74.5855
  0
LINE
  8
0
 10
215.822
 20
74.5855
 11
216.04
 21
74.5421
  0
LINE
  8
0
 10
216.04
 20
74.5421
 11
216.251
 21
74.4706
  0
LINE
  8
0
 10
216.251
 20
74.4706
 11
216.45
 21
74.3722
  0
LINE
  8
0
 10
216.45
 20
74.3722
 11
216.635
 21
74.2487
  0
LINE
  8
0
 10
216.635
 20
74.2487
 11
216.802
 21
74.1021
  0
LINE
  8
0
 10
216.802
 20
74.1021
 11
216.949
 21
73.9349
  0
LINE
  8
0
 10
216.949
 20
73.9349
 11
217.072
 21
73.75
  0
LINE
  8
0
 10
217.072
 20
73.75
 11
217.171
 21
73.5506
  0
LINE
  8
0
 10
217.171
 20
73.5506
 11
217.242
 21
73.34
  0
LINE
  8
0
 10
217.242
 20
73.34
 11
217.285
 21
73.1219
  0
LINE
  8
0
 10
217.285
 20
73.1219
 11
217.3
 21
72.9
  0
LINE
  8
0
 10
217.3
 20
72.9
 11
217.285
 21
72.6781
  0
LINE
  8
0
 10
217.285
 20
72.6781
 11
217.242
 21
72.46
  0
LINE
  8
0
 10
217.242
 20
72.46
 11
217.171
 21
72.2494
  0
LINE
  8
0
 10
217.171
 20
72.2494
 11
217.072
 21
72.05
  0
LINE
  8
0
 10
217.072
 20
72.05
 11
216.949
 21
71.8651
  0
LINE
  8
0
 10
216.949
 20
71.8651
 11
216.802
 21
71.6979
  0
LINE
  8
0
 10
216.802
 20
71.6979
 11
216.635
 21
71.5513
  0
LINE
  8
0
 10
216.635
 20
71.5513
 11
216.45
 21
71.4278
  0
LINE
  8
0
 10
216.45
 20
71.4278
 11
216.251
 21
71.3294
  0
LINE
  8
0
 10
216.251
 20
71.3294
 11
216.04
 21
71.2579
  0
LINE
  8
0
 10
216.04
 20
71.2579
 11
215.822
 21
71.2145
  0
LINE
  8
0
 10
215.822
 20
71.2145
 11
215.6
 21
71.2
  0
LINE
  8
0
 10
215.6
 20
71.2
 11
215.378
 21
71.2145
  0
LINE
  8
0
 10
215.378
 20
71.2145
 11
215.16
 21
71.2579
  0
LINE
  8
0
 10
215.16
 20
71.2579
 11
214.949
 21
71.3294
  0
LINE
  8
0
 10
214.949
 20
71.3294
 11
214.75
 21
71.4278
  0
LINE
  8
0
 10
214.75
 20
71.4278
 11
214.565
 21
71.5513
  0
LINE
  8
0
 10
214.565
 20
71.5513
 11
214.398
 21
71.6979
  0
LINE
  8
0
 10
214.398
 20
71.6979
 11
214.251
 21
71.8651
  0
LINE
  8
0
 10
214.251
 20
71.8651
 11
214.128
 21
72.05
  0
LINE
  8
0
 10
214.128
 20
72.05
 11
214.029
 21
72.2494
  0
LINE
  8
0
 10
214.029
 20
72.2494
 11
213.958
 21
72.46
  0
LINE
  8
0
 10
213.958
 20
72.46
 11
213.915
 21
72.6781
  0
LINE
  8
0
 10
213.915
 20
72.6781
 11
213.9
 21
72.9
  0
ENDSEC
  0
SECTION
  2
OBJECTS
  0
DICTIONARY
  0
ENDSEC
  0
EOF
