  0
SECTION
  2
BLOCKS
  0
ENDSEC
  0
SECTION
  2
ENTITIES
  0
LINE
  8
0
 10
5.72205e-07
 20
0
 11
228.6
 21
0
  0
LINE
  8
0
 10
228.6
 20
0
 11
228.6
 21
177.8
  0
LINE
  8
0
 10
228.6
 20
177.8
 11
5.72205e-07
 21
177.8
  0
LINE
  8
0
 10
5.72205e-07
 20
177.8
 11
5.72205e-07
 21
0
  0
LINE
  8
0
 10
11.3
 20
13
 11
11.3145
 21
13.2219
  0
LINE
  8
0
 10
11.3145
 20
13.2219
 11
11.3579
 21
13.44
  0
LINE
  8
0
 10
11.3579
 20
13.44
 11
11.4294
 21
13.6506
  0
LINE
  8
0
 10
11.4294
 20
13.6506
 11
11.5278
 21
13.85
  0
LINE
  8
0
 10
11.5278
 20
13.85
 11
11.6513
 21
14.0349
  0
LINE
  8
0
 10
11.6513
 20
14.0349
 11
11.7979
 21
14.2021
  0
LINE
  8
0
 10
11.7979
 20
14.2021
 11
11.9651
 21
14.3487
  0
LINE
  8
0
 10
11.9651
 20
14.3487
 11
12.15
 21
14.4722
  0
LINE
  8
0
 10
12.15
 20
14.4722
 11
12.3494
 21
14.5706
  0
LINE
  8
0
 10
12.3494
 20
14.5706
 11
12.56
 21
14.6421
  0
LINE
  8
0
 10
12.56
 20
14.6421
 11
12.7781
 21
14.6855
  0
LINE
  8
0
 10
12.7781
 20
14.6855
 11
13
 21
14.7
  0
LINE
  8
0
 10
13
 20
14.7
 11
13.2219
 21
14.6855
  0
LINE
  8
0
 10
13.2219
 20
14.6855
 11
13.44
 21
14.6421
  0
LINE
  8
0
 10
13.44
 20
14.6421
 11
13.6506
 21
14.5706
  0
LINE
  8
0
 10
13.6506
 20
14.5706
 11
13.85
 21
14.4722
  0
LINE
  8
0
 10
13.85
 20
14.4722
 11
14.0349
 21
14.3487
  0
LINE
  8
0
 10
14.0349
 20
14.3487
 11
14.2021
 21
14.2021
  0
LINE
  8
0
 10
14.2021
 20
14.2021
 11
14.3487
 21
14.0349
  0
LINE
  8
0
 10
14.3487
 20
14.0349
 11
14.4722
 21
13.85
  0
LINE
  8
0
 10
14.4722
 20
13.85
 11
14.5706
 21
13.6506
  0
LINE
  8
0
 10
14.5706
 20
13.6506
 11
14.6421
 21
13.44
  0
LINE
  8
0
 10
14.6421
 20
13.44
 11
14.6855
 21
13.2219
  0
LINE
  8
0
 10
14.6855
 20
13.2219
 11
14.7
 21
13
  0
LINE
  8
0
 10
14.7
 20
13
 11
14.6855
 21
12.7781
  0
LINE
  8
0
 10
14.6855
 20
12.7781
 11
14.6421
 21
12.56
  0
LINE
  8
0
 10
14.6421
 20
12.56
 11
14.5706
 21
12.3494
  0
LINE
  8
0
 10
14.5706
 20
12.3494
 11
14.4722
 21
12.15
  0
LINE
  8
0
 10
14.4722
 20
12.15
 11
14.3487
 21
11.9651
  0
LINE
  8
0
 10
14.3487
 20
11.9651
 11
14.2021
 21
11.7979
  0
LINE
  8
0
 10
14.2021
 20
11.7979
 11
14.0349
 21
11.6513
  0
LINE
  8
0
 10
14.0349
 20
11.6513
 11
13.85
 21
11.5278
  0
LINE
  8
0
 10
13.85
 20
11.5278
 11
13.6506
 21
11.4294
  0
LINE
  8
0
 10
13.6506
 20
11.4294
 11
13.44
 21
11.3579
  0
LINE
  8
0
 10
13.44
 20
11.3579
 11
13.2219
 21
11.3145
  0
LINE
  8
0
 10
13.2219
 20
11.3145
 11
13
 21
11.3
  0
LINE
  8
0
 10
13
 20
11.3
 11
12.7781
 21
11.3145
  0
LINE
  8
0
 10
12.7781
 20
11.3145
 11
12.56
 21
11.3579
  0
LINE
  8
0
 10
12.56
 20
11.3579
 11
12.3494
 21
11.4294
  0
LINE
  8
0
 10
12.3494
 20
11.4294
 11
12.15
 21
11.5278
  0
LINE
  8
0
 10
12.15
 20
11.5278
 11
11.9651
 21
11.6513
  0
LINE
  8
0
 10
11.9651
 20
11.6513
 11
11.7979
 21
11.7979
  0
LINE
  8
0
 10
11.7979
 20
11.7979
 11
11.6513
 21
11.9651
  0
LINE
  8
0
 10
11.6513
 20
11.9651
 11
11.5278
 21
12.15
  0
LINE
  8
0
 10
11.5278
 20
12.15
 11
11.4294
 21
12.3494
  0
LINE
  8
0
 10
11.4294
 20
12.3494
 11
11.3579
 21
12.56
  0
LINE
  8
0
 10
11.3579
 20
12.56
 11
11.3145
 21
12.7781
  0
LINE
  8
0
 10
11.3145
 20
12.7781
 11
11.3
 21
13
  0
LINE
  8
0
 10
11.3
 20
164.8
 11
11.3145
 21
165.022
  0
LINE
  8
0
 10
11.3145
 20
165.022
 11
11.3579
 21
165.24
  0
LINE
  8
0
 10
11.3579
 20
165.24
 11
11.4294
 21
165.451
  0
LINE
  8
0
 10
11.4294
 20
165.451
 11
11.5278
 21
165.65
  0
LINE
  8
0
 10
11.5278
 20
165.65
 11
11.6513
 21
165.835
  0
LINE
  8
0
 10
11.6513
 20
165.835
 11
11.7979
 21
166.002
  0
LINE
  8
0
 10
11.7979
 20
166.002
 11
11.9651
 21
166.149
  0
LINE
  8
0
 10
11.9651
 20
166.149
 11
12.15
 21
166.272
  0
LINE
  8
0
 10
12.15
 20
166.272
 11
12.3494
 21
166.371
  0
LINE
  8
0
 10
12.3494
 20
166.371
 11
12.56
 21
166.442
  0
LINE
  8
0
 10
12.56
 20
166.442
 11
12.7781
 21
166.485
  0
LINE
  8
0
 10
12.7781
 20
166.485
 11
13
 21
166.5
  0
LINE
  8
0
 10
13
 20
166.5
 11
13.2219
 21
166.485
  0
LINE
  8
0
 10
13.2219
 20
166.485
 11
13.44
 21
166.442
  0
LINE
  8
0
 10
13.44
 20
166.442
 11
13.6506
 21
166.371
  0
LINE
  8
0
 10
13.6506
 20
166.371
 11
13.85
 21
166.272
  0
LINE
  8
0
 10
13.85
 20
166.272
 11
14.0349
 21
166.149
  0
LINE
  8
0
 10
14.0349
 20
166.149
 11
14.2021
 21
166.002
  0
LINE
  8
0
 10
14.2021
 20
166.002
 11
14.3487
 21
165.835
  0
LINE
  8
0
 10
14.3487
 20
165.835
 11
14.4722
 21
165.65
  0
LINE
  8
0
 10
14.4722
 20
165.65
 11
14.5706
 21
165.451
  0
LINE
  8
0
 10
14.5706
 20
165.451
 11
14.6421
 21
165.24
  0
LINE
  8
0
 10
14.6421
 20
165.24
 11
14.6855
 21
165.022
  0
LINE
  8
0
 10
14.6855
 20
165.022
 11
14.7
 21
164.8
  0
LINE
  8
0
 10
14.7
 20
164.8
 11
14.6855
 21
164.578
  0
LINE
  8
0
 10
14.6855
 20
164.578
 11
14.6421
 21
164.36
  0
LINE
  8
0
 10
14.6421
 20
164.36
 11
14.5706
 21
164.149
  0
LINE
  8
0
 10
14.5706
 20
164.149
 11
14.4722
 21
163.95
  0
LINE
  8
0
 10
14.4722
 20
163.95
 11
14.3487
 21
163.765
  0
LINE
  8
0
 10
14.3487
 20
163.765
 11
14.2021
 21
163.598
  0
LINE
  8
0
 10
14.2021
 20
163.598
 11
14.0349
 21
163.451
  0
LINE
  8
0
 10
14.0349
 20
163.451
 11
13.85
 21
163.328
  0
LINE
  8
0
 10
13.85
 20
163.328
 11
13.6506
 21
163.229
  0
LINE
  8
0
 10
13.6506
 20
163.229
 11
13.44
 21
163.158
  0
LINE
  8
0
 10
13.44
 20
163.158
 11
13.2219
 21
163.115
  0
LINE
  8
0
 10
13.2219
 20
163.115
 11
13
 21
163.1
  0
LINE
  8
0
 10
13
 20
163.1
 11
12.7781
 21
163.115
  0
LINE
  8
0
 10
12.7781
 20
163.115
 11
12.56
 21
163.158
  0
LINE
  8
0
 10
12.56
 20
163.158
 11
12.3494
 21
163.229
  0
LINE
  8
0
 10
12.3494
 20
163.229
 11
12.15
 21
163.328
  0
LINE
  8
0
 10
12.15
 20
163.328
 11
11.9651
 21
163.451
  0
LINE
  8
0
 10
11.9651
 20
163.451
 11
11.7979
 21
163.598
  0
LINE
  8
0
 10
11.7979
 20
163.598
 11
11.6513
 21
163.765
  0
LINE
  8
0
 10
11.6513
 20
163.765
 11
11.5278
 21
163.95
  0
LINE
  8
0
 10
11.5278
 20
163.95
 11
11.4294
 21
164.149
  0
LINE
  8
0
 10
11.4294
 20
164.149
 11
11.3579
 21
164.36
  0
LINE
  8
0
 10
11.3579
 20
164.36
 11
11.3145
 21
164.578
  0
LINE
  8
0
 10
11.3145
 20
164.578
 11
11.3
 21
164.8
  0
LINE
  8
0
 10
12.3
 20
72
 11
12.3145
 21
72.2219
  0
LINE
  8
0
 10
12.3145
 20
72.2219
 11
12.3579
 21
72.44
  0
LINE
  8
0
 10
12.3579
 20
72.44
 11
12.4294
 21
72.6506
  0
LINE
  8
0
 10
12.4294
 20
72.6506
 11
12.5278
 21
72.85
  0
LINE
  8
0
 10
12.5278
 20
72.85
 11
12.6513
 21
73.0349
  0
LINE
  8
0
 10
12.6513
 20
73.0349
 11
12.7979
 21
73.2021
  0
LINE
  8
0
 10
12.7979
 20
73.2021
 11
12.9651
 21
73.3487
  0
LINE
  8
0
 10
12.9651
 20
73.3487
 11
13.15
 21
73.4722
  0
LINE
  8
0
 10
13.15
 20
73.4722
 11
13.3494
 21
73.5706
  0
LINE
  8
0
 10
13.3494
 20
73.5706
 11
13.56
 21
73.6421
  0
LINE
  8
0
 10
13.56
 20
73.6421
 11
13.7781
 21
73.6855
  0
LINE
  8
0
 10
13.7781
 20
73.6855
 11
14
 21
73.7
  0
LINE
  8
0
 10
14
 20
73.7
 11
14.2219
 21
73.6855
  0
LINE
  8
0
 10
14.2219
 20
73.6855
 11
14.44
 21
73.6421
  0
LINE
  8
0
 10
14.44
 20
73.6421
 11
14.6506
 21
73.5706
  0
LINE
  8
0
 10
14.6506
 20
73.5706
 11
14.85
 21
73.4722
  0
LINE
  8
0
 10
14.85
 20
73.4722
 11
15.0349
 21
73.3487
  0
LINE
  8
0
 10
15.0349
 20
73.3487
 11
15.2021
 21
73.2021
  0
LINE
  8
0
 10
15.2021
 20
73.2021
 11
15.3487
 21
73.0349
  0
LINE
  8
0
 10
15.3487
 20
73.0349
 11
15.4722
 21
72.85
  0
LINE
  8
0
 10
15.4722
 20
72.85
 11
15.5706
 21
72.6506
  0
LINE
  8
0
 10
15.5706
 20
72.6506
 11
15.6421
 21
72.44
  0
LINE
  8
0
 10
15.6421
 20
72.44
 11
15.6855
 21
72.2219
  0
LINE
  8
0
 10
15.6855
 20
72.2219
 11
15.7
 21
72
  0
LINE
  8
0
 10
15.7
 20
72
 11
15.6855
 21
71.7781
  0
LINE
  8
0
 10
15.6855
 20
71.7781
 11
15.6421
 21
71.56
  0
LINE
  8
0
 10
15.6421
 20
71.56
 11
15.5706
 21
71.3494
  0
LINE
  8
0
 10
15.5706
 20
71.3494
 11
15.4722
 21
71.15
  0
LINE
  8
0
 10
15.4722
 20
71.15
 11
15.3487
 21
70.9651
  0
LINE
  8
0
 10
15.3487
 20
70.9651
 11
15.2021
 21
70.7979
  0
LINE
  8
0
 10
15.2021
 20
70.7979
 11
15.0349
 21
70.6513
  0
LINE
  8
0
 10
15.0349
 20
70.6513
 11
14.85
 21
70.5278
  0
LINE
  8
0
 10
14.85
 20
70.5278
 11
14.6506
 21
70.4294
  0
LINE
  8
0
 10
14.6506
 20
70.4294
 11
14.44
 21
70.3579
  0
LINE
  8
0
 10
14.44
 20
70.3579
 11
14.2219
 21
70.3145
  0
LINE
  8
0
 10
14.2219
 20
70.3145
 11
14
 21
70.3
  0
LINE
  8
0
 10
14
 20
70.3
 11
13.7781
 21
70.3145
  0
LINE
  8
0
 10
13.7781
 20
70.3145
 11
13.56
 21
70.3579
  0
LINE
  8
0
 10
13.56
 20
70.3579
 11
13.3494
 21
70.4294
  0
LINE
  8
0
 10
13.3494
 20
70.4294
 11
13.15
 21
70.5278
  0
LINE
  8
0
 10
13.15
 20
70.5278
 11
12.9651
 21
70.6513
  0
LINE
  8
0
 10
12.9651
 20
70.6513
 11
12.7979
 21
70.7979
  0
LINE
  8
0
 10
12.7979
 20
70.7979
 11
12.6513
 21
70.9651
  0
LINE
  8
0
 10
12.6513
 20
70.9651
 11
12.5278
 21
71.15
  0
LINE
  8
0
 10
12.5278
 20
71.15
 11
12.4294
 21
71.3494
  0
LINE
  8
0
 10
12.4294
 20
71.3494
 11
12.3579
 21
71.56
  0
LINE
  8
0
 10
12.3579
 20
71.56
 11
12.3145
 21
71.7781
  0
LINE
  8
0
 10
12.3145
 20
71.7781
 11
12.3
 21
72
  0
LINE
  8
0
 10
25
 20
72
 11
25.0684
 21
73.0442
  0
LINE
  8
0
 10
25.0684
 20
73.0442
 11
25.2726
 21
74.0706
  0
LINE
  8
0
 10
25.2726
 20
74.0706
 11
25.609
 21
75.0615
  0
LINE
  8
0
 10
25.609
 20
75.0615
 11
26.0718
 21
76
  0
LINE
  8
0
 10
26.0718
 20
76
 11
26.6532
 21
76.8701
  0
LINE
  8
0
 10
26.6532
 20
76.8701
 11
27.3431
 21
77.6569
  0
LINE
  8
0
 10
27.3431
 20
77.6569
 11
28.1299
 21
78.3468
  0
LINE
  8
0
 10
28.1299
 20
78.3468
 11
29
 21
78.9282
  0
LINE
  8
0
 10
29
 20
78.9282
 11
29.9385
 21
79.391
  0
LINE
  8
0
 10
29.9385
 20
79.391
 11
30.9294
 21
79.7274
  0
LINE
  8
0
 10
30.9294
 20
79.7274
 11
31.9558
 21
79.9316
  0
LINE
  8
0
 10
31.9558
 20
79.9316
 11
33
 21
80
  0
LINE
  8
0
 10
33
 20
80
 11
47
 21
80
  0
LINE
  8
0
 10
47
 20
80
 11
48.0442
 21
79.9316
  0
LINE
  8
0
 10
48.0442
 20
79.9316
 11
49.0706
 21
79.7274
  0
LINE
  8
0
 10
49.0706
 20
79.7274
 11
50.0615
 21
79.391
  0
LINE
  8
0
 10
50.0615
 20
79.391
 11
51
 21
78.9282
  0
LINE
  8
0
 10
51
 20
78.9282
 11
51.8701
 21
78.3468
  0
LINE
  8
0
 10
51.8701
 20
78.3468
 11
52.6569
 21
77.6569
  0
LINE
  8
0
 10
52.6569
 20
77.6569
 11
53.3468
 21
76.8701
  0
LINE
  8
0
 10
53.3468
 20
76.8701
 11
53.9282
 21
76
  0
LINE
  8
0
 10
53.9282
 20
76
 11
54.391
 21
75.0615
  0
LINE
  8
0
 10
54.391
 20
75.0615
 11
54.7274
 21
74.0706
  0
LINE
  8
0
 10
54.7274
 20
74.0706
 11
54.9316
 21
73.0442
  0
LINE
  8
0
 10
54.9316
 20
73.0442
 11
55
 21
72
  0
LINE
  8
0
 10
55
 20
72
 11
54.9316
 21
70.9558
  0
LINE
  8
0
 10
54.9316
 20
70.9558
 11
54.7274
 21
69.9294
  0
LINE
  8
0
 10
54.7274
 20
69.9294
 11
54.391
 21
68.9385
  0
LINE
  8
0
 10
54.391
 20
68.9385
 11
53.9282
 21
68
  0
LINE
  8
0
 10
53.9282
 20
68
 11
53.3468
 21
67.1299
  0
LINE
  8
0
 10
53.3468
 20
67.1299
 11
52.6569
 21
66.3431
  0
LINE
  8
0
 10
52.6569
 20
66.3431
 11
51.8701
 21
65.6532
  0
LINE
  8
0
 10
51.8701
 20
65.6532
 11
51
 21
65.0718
  0
LINE
  8
0
 10
51
 20
65.0718
 11
50.0615
 21
64.609
  0
LINE
  8
0
 10
50.0615
 20
64.609
 11
49.0706
 21
64.2726
  0
LINE
  8
0
 10
49.0706
 20
64.2726
 11
48.0442
 21
64.0684
  0
LINE
  8
0
 10
48.0442
 20
64.0684
 11
47
 21
64
  0
LINE
  8
0
 10
47
 20
64
 11
33
 21
64
  0
LINE
  8
0
 10
33
 20
64
 11
31.9558
 21
64.0684
  0
LINE
  8
0
 10
31.9558
 20
64.0684
 11
30.9294
 21
64.2726
  0
LINE
  8
0
 10
30.9294
 20
64.2726
 11
29.9385
 21
64.609
  0
LINE
  8
0
 10
29.9385
 20
64.609
 11
29
 21
65.0718
  0
LINE
  8
0
 10
29
 20
65.0718
 11
28.1299
 21
65.6532
  0
LINE
  8
0
 10
28.1299
 20
65.6532
 11
27.3431
 21
66.3431
  0
LINE
  8
0
 10
27.3431
 20
66.3431
 11
26.6532
 21
67.1299
  0
LINE
  8
0
 10
26.6532
 20
67.1299
 11
26.0718
 21
68
  0
LINE
  8
0
 10
26.0718
 20
68
 11
25.609
 21
68.9385
  0
LINE
  8
0
 10
25.609
 20
68.9385
 11
25.2726
 21
69.9294
  0
LINE
  8
0
 10
25.2726
 20
69.9294
 11
25.0684
 21
70.9558
  0
LINE
  8
0
 10
25.0684
 20
70.9558
 11
25
 21
72
  0
LINE
  8
0
 10
64.3
 20
72
 11
64.3145
 21
72.2219
  0
LINE
  8
0
 10
64.3145
 20
72.2219
 11
64.3579
 21
72.44
  0
LINE
  8
0
 10
64.3579
 20
72.44
 11
64.4294
 21
72.6506
  0
LINE
  8
0
 10
64.4294
 20
72.6506
 11
64.5278
 21
72.85
  0
LINE
  8
0
 10
64.5278
 20
72.85
 11
64.6513
 21
73.0349
  0
LINE
  8
0
 10
64.6513
 20
73.0349
 11
64.7979
 21
73.2021
  0
LINE
  8
0
 10
64.7979
 20
73.2021
 11
64.9651
 21
73.3487
  0
LINE
  8
0
 10
64.9651
 20
73.3487
 11
65.15
 21
73.4722
  0
LINE
  8
0
 10
65.15
 20
73.4722
 11
65.3494
 21
73.5706
  0
LINE
  8
0
 10
65.3494
 20
73.5706
 11
65.56
 21
73.6421
  0
LINE
  8
0
 10
65.56
 20
73.6421
 11
65.7781
 21
73.6855
  0
LINE
  8
0
 10
65.7781
 20
73.6855
 11
66
 21
73.7
  0
LINE
  8
0
 10
66
 20
73.7
 11
66.2219
 21
73.6855
  0
LINE
  8
0
 10
66.2219
 20
73.6855
 11
66.44
 21
73.6421
  0
LINE
  8
0
 10
66.44
 20
73.6421
 11
66.6506
 21
73.5706
  0
LINE
  8
0
 10
66.6506
 20
73.5706
 11
66.85
 21
73.4722
  0
LINE
  8
0
 10
66.85
 20
73.4722
 11
67.0349
 21
73.3487
  0
LINE
  8
0
 10
67.0349
 20
73.3487
 11
67.2021
 21
73.2021
  0
LINE
  8
0
 10
67.2021
 20
73.2021
 11
67.3487
 21
73.0349
  0
LINE
  8
0
 10
67.3487
 20
73.0349
 11
67.4722
 21
72.85
  0
LINE
  8
0
 10
67.4722
 20
72.85
 11
67.5706
 21
72.6506
  0
LINE
  8
0
 10
67.5706
 20
72.6506
 11
67.6421
 21
72.44
  0
LINE
  8
0
 10
67.6421
 20
72.44
 11
67.6855
 21
72.2219
  0
LINE
  8
0
 10
67.6855
 20
72.2219
 11
67.7
 21
72
  0
LINE
  8
0
 10
67.7
 20
72
 11
67.6855
 21
71.7781
  0
LINE
  8
0
 10
67.6855
 20
71.7781
 11
67.6421
 21
71.56
  0
LINE
  8
0
 10
67.6421
 20
71.56
 11
67.5706
 21
71.3494
  0
LINE
  8
0
 10
67.5706
 20
71.3494
 11
67.4722
 21
71.15
  0
LINE
  8
0
 10
67.4722
 20
71.15
 11
67.3487
 21
70.9651
  0
LINE
  8
0
 10
67.3487
 20
70.9651
 11
67.2021
 21
70.7979
  0
LINE
  8
0
 10
67.2021
 20
70.7979
 11
67.0349
 21
70.6513
  0
LINE
  8
0
 10
67.0349
 20
70.6513
 11
66.85
 21
70.5278
  0
LINE
  8
0
 10
66.85
 20
70.5278
 11
66.6506
 21
70.4294
  0
LINE
  8
0
 10
66.6506
 20
70.4294
 11
66.44
 21
70.3579
  0
LINE
  8
0
 10
66.44
 20
70.3579
 11
66.2219
 21
70.3145
  0
LINE
  8
0
 10
66.2219
 20
70.3145
 11
66
 21
70.3
  0
LINE
  8
0
 10
66
 20
70.3
 11
65.7781
 21
70.3145
  0
LINE
  8
0
 10
65.7781
 20
70.3145
 11
65.56
 21
70.3579
  0
LINE
  8
0
 10
65.56
 20
70.3579
 11
65.3494
 21
70.4294
  0
LINE
  8
0
 10
65.3494
 20
70.4294
 11
65.15
 21
70.5278
  0
LINE
  8
0
 10
65.15
 20
70.5278
 11
64.9651
 21
70.6513
  0
LINE
  8
0
 10
64.9651
 20
70.6513
 11
64.7979
 21
70.7979
  0
LINE
  8
0
 10
64.7979
 20
70.7979
 11
64.6513
 21
70.9651
  0
LINE
  8
0
 10
64.6513
 20
70.9651
 11
64.5278
 21
71.15
  0
LINE
  8
0
 10
64.5278
 20
71.15
 11
64.4294
 21
71.3494
  0
LINE
  8
0
 10
64.4294
 20
71.3494
 11
64.3579
 21
71.56
  0
LINE
  8
0
 10
64.3579
 20
71.56
 11
64.3145
 21
71.7781
  0
LINE
  8
0
 10
64.3145
 20
71.7781
 11
64.3
 21
72
  0
LINE
  8
0
 10
79.3
 20
136
 11
79.3171
 21
136.261
  0
LINE
  8
0
 10
79.3171
 20
136.261
 11
79.3681
 21
136.518
  0
LINE
  8
0
 10
79.3681
 20
136.518
 11
79.4522
 21
136.765
  0
LINE
  8
0
 10
79.4522
 20
136.765
 11
79.5679
 21
137
  0
LINE
  8
0
 10
79.5679
 20
137
 11
79.7133
 21
137.218
  0
LINE
  8
0
 10
79.7133
 20
137.218
 11
79.8858
 21
137.414
  0
LINE
  8
0
 10
79.8858
 20
137.414
 11
80.0825
 21
137.587
  0
LINE
  8
0
 10
80.0825
 20
137.587
 11
80.3
 21
137.732
  0
LINE
  8
0
 10
80.3
 20
137.732
 11
80.5346
 21
137.848
  0
LINE
  8
0
 10
80.5346
 20
137.848
 11
80.7824
 21
137.932
  0
LINE
  8
0
 10
80.7824
 20
137.932
 11
81.0389
 21
137.983
  0
LINE
  8
0
 10
81.0389
 20
137.983
 11
81.3
 21
138
  0
LINE
  8
0
 10
81.3
 20
138
 11
147.3
 21
138
  0
LINE
  8
0
 10
147.3
 20
138
 11
147.561
 21
137.983
  0
LINE
  8
0
 10
147.561
 20
137.983
 11
147.818
 21
137.932
  0
LINE
  8
0
 10
147.818
 20
137.932
 11
148.065
 21
137.848
  0
LINE
  8
0
 10
148.065
 20
137.848
 11
148.3
 21
137.732
  0
LINE
  8
0
 10
148.3
 20
137.732
 11
148.518
 21
137.587
  0
LINE
  8
0
 10
148.518
 20
137.587
 11
148.714
 21
137.414
  0
LINE
  8
0
 10
148.714
 20
137.414
 11
148.887
 21
137.218
  0
LINE
  8
0
 10
148.887
 20
137.218
 11
149.032
 21
137
  0
LINE
  8
0
 10
149.032
 20
137
 11
149.148
 21
136.765
  0
LINE
  8
0
 10
149.148
 20
136.765
 11
149.232
 21
136.518
  0
LINE
  8
0
 10
149.232
 20
136.518
 11
149.283
 21
136.261
  0
LINE
  8
0
 10
149.283
 20
136.261
 11
149.3
 21
136
  0
LINE
  8
0
 10
149.3
 20
136
 11
149.283
 21
135.739
  0
LINE
  8
0
 10
149.283
 20
135.739
 11
149.232
 21
135.482
  0
LINE
  8
0
 10
149.232
 20
135.482
 11
149.148
 21
135.235
  0
LINE
  8
0
 10
149.148
 20
135.235
 11
149.032
 21
135
  0
LINE
  8
0
 10
149.032
 20
135
 11
148.887
 21
134.782
  0
LINE
  8
0
 10
148.887
 20
134.782
 11
148.714
 21
134.586
  0
LINE
  8
0
 10
148.714
 20
134.586
 11
148.518
 21
134.413
  0
LINE
  8
0
 10
148.518
 20
134.413
 11
148.3
 21
134.268
  0
LINE
  8
0
 10
148.3
 20
134.268
 11
148.065
 21
134.152
  0
LINE
  8
0
 10
148.065
 20
134.152
 11
147.818
 21
134.068
  0
LINE
  8
0
 10
147.818
 20
134.068
 11
147.561
 21
134.017
  0
LINE
  8
0
 10
147.561
 20
134.017
 11
147.3
 21
134
  0
LINE
  8
0
 10
147.3
 20
134
 11
81.3
 21
134
  0
LINE
  8
0
 10
81.3
 20
134
 11
81.0389
 21
134.017
  0
LINE
  8
0
 10
81.0389
 20
134.017
 11
80.7824
 21
134.068
  0
LINE
  8
0
 10
80.7824
 20
134.068
 11
80.5346
 21
134.152
  0
LINE
  8
0
 10
80.5346
 20
134.152
 11
80.3
 21
134.268
  0
LINE
  8
0
 10
80.3
 20
134.268
 11
80.0825
 21
134.413
  0
LINE
  8
0
 10
80.0825
 20
134.413
 11
79.8858
 21
134.586
  0
LINE
  8
0
 10
79.8858
 20
134.586
 11
79.7133
 21
134.782
  0
LINE
  8
0
 10
79.7133
 20
134.782
 11
79.5679
 21
135
  0
LINE
  8
0
 10
79.5679
 20
135
 11
79.4522
 21
135.235
  0
LINE
  8
0
 10
79.4522
 20
135.235
 11
79.3681
 21
135.482
  0
LINE
  8
0
 10
79.3681
 20
135.482
 11
79.3171
 21
135.739
  0
LINE
  8
0
 10
79.3171
 20
135.739
 11
79.3
 21
136
  0
LINE
  8
0
 10
79.3
 20
143
 11
79.3171
 21
143.261
  0
LINE
  8
0
 10
79.3171
 20
143.261
 11
79.3681
 21
143.518
  0
LINE
  8
0
 10
79.3681
 20
143.518
 11
79.4522
 21
143.765
  0
LINE
  8
0
 10
79.4522
 20
143.765
 11
79.5679
 21
144
  0
LINE
  8
0
 10
79.5679
 20
144
 11
79.7133
 21
144.218
  0
LINE
  8
0
 10
79.7133
 20
144.218
 11
79.8858
 21
144.414
  0
LINE
  8
0
 10
79.8858
 20
144.414
 11
80.0825
 21
144.587
  0
LINE
  8
0
 10
80.0825
 20
144.587
 11
80.3
 21
144.732
  0
LINE
  8
0
 10
80.3
 20
144.732
 11
80.5346
 21
144.848
  0
LINE
  8
0
 10
80.5346
 20
144.848
 11
80.7824
 21
144.932
  0
LINE
  8
0
 10
80.7824
 20
144.932
 11
81.0389
 21
144.983
  0
LINE
  8
0
 10
81.0389
 20
144.983
 11
81.3
 21
145
  0
LINE
  8
0
 10
81.3
 20
145
 11
147.3
 21
145
  0
LINE
  8
0
 10
147.3
 20
145
 11
147.561
 21
144.983
  0
LINE
  8
0
 10
147.561
 20
144.983
 11
147.818
 21
144.932
  0
LINE
  8
0
 10
147.818
 20
144.932
 11
148.065
 21
144.848
  0
LINE
  8
0
 10
148.065
 20
144.848
 11
148.3
 21
144.732
  0
LINE
  8
0
 10
148.3
 20
144.732
 11
148.518
 21
144.587
  0
LINE
  8
0
 10
148.518
 20
144.587
 11
148.714
 21
144.414
  0
LINE
  8
0
 10
148.714
 20
144.414
 11
148.887
 21
144.218
  0
LINE
  8
0
 10
148.887
 20
144.218
 11
149.032
 21
144
  0
LINE
  8
0
 10
149.032
 20
144
 11
149.148
 21
143.765
  0
LINE
  8
0
 10
149.148
 20
143.765
 11
149.232
 21
143.518
  0
LINE
  8
0
 10
149.232
 20
143.518
 11
149.283
 21
143.261
  0
LINE
  8
0
 10
149.283
 20
143.261
 11
149.3
 21
143
  0
LINE
  8
0
 10
149.3
 20
143
 11
149.283
 21
142.739
  0
LINE
  8
0
 10
149.283
 20
142.739
 11
149.232
 21
142.482
  0
LINE
  8
0
 10
149.232
 20
142.482
 11
149.148
 21
142.235
  0
LINE
  8
0
 10
149.148
 20
142.235
 11
149.032
 21
142
  0
LINE
  8
0
 10
149.032
 20
142
 11
148.887
 21
141.782
  0
LINE
  8
0
 10
148.887
 20
141.782
 11
148.714
 21
141.586
  0
LINE
  8
0
 10
148.714
 20
141.586
 11
148.518
 21
141.413
  0
LINE
  8
0
 10
148.518
 20
141.413
 11
148.3
 21
141.268
  0
LINE
  8
0
 10
148.3
 20
141.268
 11
148.065
 21
141.152
  0
LINE
  8
0
 10
148.065
 20
141.152
 11
147.818
 21
141.068
  0
LINE
  8
0
 10
147.818
 20
141.068
 11
147.561
 21
141.017
  0
LINE
  8
0
 10
147.561
 20
141.017
 11
147.3
 21
141
  0
LINE
  8
0
 10
147.3
 20
141
 11
81.3
 21
141
  0
LINE
  8
0
 10
81.3
 20
141
 11
81.0389
 21
141.017
  0
LINE
  8
0
 10
81.0389
 20
141.017
 11
80.7824
 21
141.068
  0
LINE
  8
0
 10
80.7824
 20
141.068
 11
80.5346
 21
141.152
  0
LINE
  8
0
 10
80.5346
 20
141.152
 11
80.3
 21
141.268
  0
LINE
  8
0
 10
80.3
 20
141.268
 11
80.0825
 21
141.413
  0
LINE
  8
0
 10
80.0825
 20
141.413
 11
79.8858
 21
141.586
  0
LINE
  8
0
 10
79.8858
 20
141.586
 11
79.7133
 21
141.782
  0
LINE
  8
0
 10
79.7133
 20
141.782
 11
79.5679
 21
142
  0
LINE
  8
0
 10
79.5679
 20
142
 11
79.4522
 21
142.235
  0
LINE
  8
0
 10
79.4522
 20
142.235
 11
79.3681
 21
142.482
  0
LINE
  8
0
 10
79.3681
 20
142.482
 11
79.3171
 21
142.739
  0
LINE
  8
0
 10
79.3171
 20
142.739
 11
79.3
 21
143
  0
LINE
  8
0
 10
79.3
 20
150
 11
79.3171
 21
150.261
  0
LINE
  8
0
 10
79.3171
 20
150.261
 11
79.3681
 21
150.518
  0
LINE
  8
0
 10
79.3681
 20
150.518
 11
79.4522
 21
150.765
  0
LINE
  8
0
 10
79.4522
 20
150.765
 11
79.5679
 21
151
  0
LINE
  8
0
 10
79.5679
 20
151
 11
79.7133
 21
151.218
  0
LINE
  8
0
 10
79.7133
 20
151.218
 11
79.8858
 21
151.414
  0
LINE
  8
0
 10
79.8858
 20
151.414
 11
80.0825
 21
151.587
  0
LINE
  8
0
 10
80.0825
 20
151.587
 11
80.3
 21
151.732
  0
LINE
  8
0
 10
80.3
 20
151.732
 11
80.5346
 21
151.848
  0
LINE
  8
0
 10
80.5346
 20
151.848
 11
80.7824
 21
151.932
  0
LINE
  8
0
 10
80.7824
 20
151.932
 11
81.0389
 21
151.983
  0
LINE
  8
0
 10
81.0389
 20
151.983
 11
81.3
 21
152
  0
LINE
  8
0
 10
81.3
 20
152
 11
147.3
 21
152
  0
LINE
  8
0
 10
147.3
 20
152
 11
147.561
 21
151.983
  0
LINE
  8
0
 10
147.561
 20
151.983
 11
147.818
 21
151.932
  0
LINE
  8
0
 10
147.818
 20
151.932
 11
148.065
 21
151.848
  0
LINE
  8
0
 10
148.065
 20
151.848
 11
148.3
 21
151.732
  0
LINE
  8
0
 10
148.3
 20
151.732
 11
148.518
 21
151.587
  0
LINE
  8
0
 10
148.518
 20
151.587
 11
148.714
 21
151.414
  0
LINE
  8
0
 10
148.714
 20
151.414
 11
148.887
 21
151.218
  0
LINE
  8
0
 10
148.887
 20
151.218
 11
149.032
 21
151
  0
LINE
  8
0
 10
149.032
 20
151
 11
149.148
 21
150.765
  0
LINE
  8
0
 10
149.148
 20
150.765
 11
149.232
 21
150.518
  0
LINE
  8
0
 10
149.232
 20
150.518
 11
149.283
 21
150.261
  0
LINE
  8
0
 10
149.283
 20
150.261
 11
149.3
 21
150
  0
LINE
  8
0
 10
149.3
 20
150
 11
149.283
 21
149.739
  0
LINE
  8
0
 10
149.283
 20
149.739
 11
149.232
 21
149.482
  0
LINE
  8
0
 10
149.232
 20
149.482
 11
149.148
 21
149.235
  0
LINE
  8
0
 10
149.148
 20
149.235
 11
149.032
 21
149
  0
LINE
  8
0
 10
149.032
 20
149
 11
148.887
 21
148.782
  0
LINE
  8
0
 10
148.887
 20
148.782
 11
148.714
 21
148.586
  0
LINE
  8
0
 10
148.714
 20
148.586
 11
148.518
 21
148.413
  0
LINE
  8
0
 10
148.518
 20
148.413
 11
148.3
 21
148.268
  0
LINE
  8
0
 10
148.3
 20
148.268
 11
148.065
 21
148.152
  0
LINE
  8
0
 10
148.065
 20
148.152
 11
147.818
 21
148.068
  0
LINE
  8
0
 10
147.818
 20
148.068
 11
147.561
 21
148.017
  0
LINE
  8
0
 10
147.561
 20
148.017
 11
147.3
 21
148
  0
LINE
  8
0
 10
147.3
 20
148
 11
81.3
 21
148
  0
LINE
  8
0
 10
81.3
 20
148
 11
81.0389
 21
148.017
  0
LINE
  8
0
 10
81.0389
 20
148.017
 11
80.7824
 21
148.068
  0
LINE
  8
0
 10
80.7824
 20
148.068
 11
80.5346
 21
148.152
  0
LINE
  8
0
 10
80.5346
 20
148.152
 11
80.3
 21
148.268
  0
LINE
  8
0
 10
80.3
 20
148.268
 11
80.0825
 21
148.413
  0
LINE
  8
0
 10
80.0825
 20
148.413
 11
79.8858
 21
148.586
  0
LINE
  8
0
 10
79.8858
 20
148.586
 11
79.7133
 21
148.782
  0
LINE
  8
0
 10
79.7133
 20
148.782
 11
79.5679
 21
149
  0
LINE
  8
0
 10
79.5679
 20
149
 11
79.4522
 21
149.235
  0
LINE
  8
0
 10
79.4522
 20
149.235
 11
79.3681
 21
149.482
  0
LINE
  8
0
 10
79.3681
 20
149.482
 11
79.3171
 21
149.739
  0
LINE
  8
0
 10
79.3171
 20
149.739
 11
79.3
 21
150
  0
LINE
  8
0
 10
79.3
 20
157
 11
79.3171
 21
157.261
  0
LINE
  8
0
 10
79.3171
 20
157.261
 11
79.3681
 21
157.518
  0
LINE
  8
0
 10
79.3681
 20
157.518
 11
79.4522
 21
157.765
  0
LINE
  8
0
 10
79.4522
 20
157.765
 11
79.5679
 21
158
  0
LINE
  8
0
 10
79.5679
 20
158
 11
79.7133
 21
158.218
  0
LINE
  8
0
 10
79.7133
 20
158.218
 11
79.8858
 21
158.414
  0
LINE
  8
0
 10
79.8858
 20
158.414
 11
80.0825
 21
158.587
  0
LINE
  8
0
 10
80.0825
 20
158.587
 11
80.3
 21
158.732
  0
LINE
  8
0
 10
80.3
 20
158.732
 11
80.5346
 21
158.848
  0
LINE
  8
0
 10
80.5346
 20
158.848
 11
80.7824
 21
158.932
  0
LINE
  8
0
 10
80.7824
 20
158.932
 11
81.0389
 21
158.983
  0
LINE
  8
0
 10
81.0389
 20
158.983
 11
81.3
 21
159
  0
LINE
  8
0
 10
81.3
 20
159
 11
147.3
 21
159
  0
LINE
  8
0
 10
147.3
 20
159
 11
147.561
 21
158.983
  0
LINE
  8
0
 10
147.561
 20
158.983
 11
147.818
 21
158.932
  0
LINE
  8
0
 10
147.818
 20
158.932
 11
148.065
 21
158.848
  0
LINE
  8
0
 10
148.065
 20
158.848
 11
148.3
 21
158.732
  0
LINE
  8
0
 10
148.3
 20
158.732
 11
148.518
 21
158.587
  0
LINE
  8
0
 10
148.518
 20
158.587
 11
148.714
 21
158.414
  0
LINE
  8
0
 10
148.714
 20
158.414
 11
148.887
 21
158.218
  0
LINE
  8
0
 10
148.887
 20
158.218
 11
149.032
 21
158
  0
LINE
  8
0
 10
149.032
 20
158
 11
149.148
 21
157.765
  0
LINE
  8
0
 10
149.148
 20
157.765
 11
149.232
 21
157.518
  0
LINE
  8
0
 10
149.232
 20
157.518
 11
149.283
 21
157.261
  0
LINE
  8
0
 10
149.283
 20
157.261
 11
149.3
 21
157
  0
LINE
  8
0
 10
149.3
 20
157
 11
149.283
 21
156.739
  0
LINE
  8
0
 10
149.283
 20
156.739
 11
149.232
 21
156.482
  0
LINE
  8
0
 10
149.232
 20
156.482
 11
149.148
 21
156.235
  0
LINE
  8
0
 10
149.148
 20
156.235
 11
149.032
 21
156
  0
LINE
  8
0
 10
149.032
 20
156
 11
148.887
 21
155.782
  0
LINE
  8
0
 10
148.887
 20
155.782
 11
148.714
 21
155.586
  0
LINE
  8
0
 10
148.714
 20
155.586
 11
148.518
 21
155.413
  0
LINE
  8
0
 10
148.518
 20
155.413
 11
148.3
 21
155.268
  0
LINE
  8
0
 10
148.3
 20
155.268
 11
148.065
 21
155.152
  0
LINE
  8
0
 10
148.065
 20
155.152
 11
147.818
 21
155.068
  0
LINE
  8
0
 10
147.818
 20
155.068
 11
147.561
 21
155.017
  0
LINE
  8
0
 10
147.561
 20
155.017
 11
147.3
 21
155
  0
LINE
  8
0
 10
147.3
 20
155
 11
81.3
 21
155
  0
LINE
  8
0
 10
81.3
 20
155
 11
81.0389
 21
155.017
  0
LINE
  8
0
 10
81.0389
 20
155.017
 11
80.7824
 21
155.068
  0
LINE
  8
0
 10
80.7824
 20
155.068
 11
80.5346
 21
155.152
  0
LINE
  8
0
 10
80.5346
 20
155.152
 11
80.3
 21
155.268
  0
LINE
  8
0
 10
80.3
 20
155.268
 11
80.0825
 21
155.413
  0
LINE
  8
0
 10
80.0825
 20
155.413
 11
79.8858
 21
155.586
  0
LINE
  8
0
 10
79.8858
 20
155.586
 11
79.7133
 21
155.782
  0
LINE
  8
0
 10
79.7133
 20
155.782
 11
79.5679
 21
156
  0
LINE
  8
0
 10
79.5679
 20
156
 11
79.4522
 21
156.235
  0
LINE
  8
0
 10
79.4522
 20
156.235
 11
79.3681
 21
156.482
  0
LINE
  8
0
 10
79.3681
 20
156.482
 11
79.3171
 21
156.739
  0
LINE
  8
0
 10
79.3171
 20
156.739
 11
79.3
 21
157
  0
LINE
  8
0
 10
79.3
 20
164
 11
79.3171
 21
164.261
  0
LINE
  8
0
 10
79.3171
 20
164.261
 11
79.3681
 21
164.518
  0
LINE
  8
0
 10
79.3681
 20
164.518
 11
79.4522
 21
164.765
  0
LINE
  8
0
 10
79.4522
 20
164.765
 11
79.5679
 21
165
  0
LINE
  8
0
 10
79.5679
 20
165
 11
79.7133
 21
165.218
  0
LINE
  8
0
 10
79.7133
 20
165.218
 11
79.8858
 21
165.414
  0
LINE
  8
0
 10
79.8858
 20
165.414
 11
80.0825
 21
165.587
  0
LINE
  8
0
 10
80.0825
 20
165.587
 11
80.3
 21
165.732
  0
LINE
  8
0
 10
80.3
 20
165.732
 11
80.5346
 21
165.848
  0
LINE
  8
0
 10
80.5346
 20
165.848
 11
80.7824
 21
165.932
  0
LINE
  8
0
 10
80.7824
 20
165.932
 11
81.0389
 21
165.983
  0
LINE
  8
0
 10
81.0389
 20
165.983
 11
81.3
 21
166
  0
LINE
  8
0
 10
81.3
 20
166
 11
147.3
 21
166
  0
LINE
  8
0
 10
147.3
 20
166
 11
147.561
 21
165.983
  0
LINE
  8
0
 10
147.561
 20
165.983
 11
147.818
 21
165.932
  0
LINE
  8
0
 10
147.818
 20
165.932
 11
148.065
 21
165.848
  0
LINE
  8
0
 10
148.065
 20
165.848
 11
148.3
 21
165.732
  0
LINE
  8
0
 10
148.3
 20
165.732
 11
148.518
 21
165.587
  0
LINE
  8
0
 10
148.518
 20
165.587
 11
148.714
 21
165.414
  0
LINE
  8
0
 10
148.714
 20
165.414
 11
148.887
 21
165.218
  0
LINE
  8
0
 10
148.887
 20
165.218
 11
149.032
 21
165
  0
LINE
  8
0
 10
149.032
 20
165
 11
149.148
 21
164.765
  0
LINE
  8
0
 10
149.148
 20
164.765
 11
149.232
 21
164.518
  0
LINE
  8
0
 10
149.232
 20
164.518
 11
149.283
 21
164.261
  0
LINE
  8
0
 10
149.283
 20
164.261
 11
149.3
 21
164
  0
LINE
  8
0
 10
149.3
 20
164
 11
149.283
 21
163.739
  0
LINE
  8
0
 10
149.283
 20
163.739
 11
149.232
 21
163.482
  0
LINE
  8
0
 10
149.232
 20
163.482
 11
149.148
 21
163.235
  0
LINE
  8
0
 10
149.148
 20
163.235
 11
149.032
 21
163
  0
LINE
  8
0
 10
149.032
 20
163
 11
148.887
 21
162.782
  0
LINE
  8
0
 10
148.887
 20
162.782
 11
148.714
 21
162.586
  0
LINE
  8
0
 10
148.714
 20
162.586
 11
148.518
 21
162.413
  0
LINE
  8
0
 10
148.518
 20
162.413
 11
148.3
 21
162.268
  0
LINE
  8
0
 10
148.3
 20
162.268
 11
148.065
 21
162.152
  0
LINE
  8
0
 10
148.065
 20
162.152
 11
147.818
 21
162.068
  0
LINE
  8
0
 10
147.818
 20
162.068
 11
147.561
 21
162.017
  0
LINE
  8
0
 10
147.561
 20
162.017
 11
147.3
 21
162
  0
LINE
  8
0
 10
147.3
 20
162
 11
81.3
 21
162
  0
LINE
  8
0
 10
81.3
 20
162
 11
81.0389
 21
162.017
  0
LINE
  8
0
 10
81.0389
 20
162.017
 11
80.7824
 21
162.068
  0
LINE
  8
0
 10
80.7824
 20
162.068
 11
80.5346
 21
162.152
  0
LINE
  8
0
 10
80.5346
 20
162.152
 11
80.3
 21
162.268
  0
LINE
  8
0
 10
80.3
 20
162.268
 11
80.0825
 21
162.413
  0
LINE
  8
0
 10
80.0825
 20
162.413
 11
79.8858
 21
162.586
  0
LINE
  8
0
 10
79.8858
 20
162.586
 11
79.7133
 21
162.782
  0
LINE
  8
0
 10
79.7133
 20
162.782
 11
79.5679
 21
163
  0
LINE
  8
0
 10
79.5679
 20
163
 11
79.4522
 21
163.235
  0
LINE
  8
0
 10
79.4522
 20
163.235
 11
79.3681
 21
163.482
  0
LINE
  8
0
 10
79.3681
 20
163.482
 11
79.3171
 21
163.739
  0
LINE
  8
0
 10
79.3171
 20
163.739
 11
79.3
 21
164
  0
LINE
  8
0
 10
93.95
 20
67.5
 11
93.9616
 21
67.6762
  0
LINE
  8
0
 10
93.9616
 20
67.6762
 11
93.996
 21
67.8494
  0
LINE
  8
0
 10
93.996
 20
67.8494
 11
94.0528
 21
68.0166
  0
LINE
  8
0
 10
94.0528
 20
68.0166
 11
94.1309
 21
68.175
  0
LINE
  8
0
 10
94.1309
 20
68.175
 11
94.229
 21
68.3218
  0
LINE
  8
0
 10
94.229
 20
68.3218
 11
94.3454
 21
68.4546
  0
LINE
  8
0
 10
94.3454
 20
68.4546
 11
94.4782
 21
68.571
  0
LINE
  8
0
 10
94.4782
 20
68.571
 11
94.625
 21
68.6691
  0
LINE
  8
0
 10
94.625
 20
68.6691
 11
94.7834
 21
68.7472
  0
LINE
  8
0
 10
94.7834
 20
68.7472
 11
94.9506
 21
68.804
  0
LINE
  8
0
 10
94.9506
 20
68.804
 11
95.1238
 21
68.8385
  0
LINE
  8
0
 10
95.1238
 20
68.8385
 11
95.3
 21
68.85
  0
LINE
  8
0
 10
95.3
 20
68.85
 11
95.4762
 21
68.8385
  0
LINE
  8
0
 10
95.4762
 20
68.8385
 11
95.6494
 21
68.804
  0
LINE
  8
0
 10
95.6494
 20
68.804
 11
95.8166
 21
68.7472
  0
LINE
  8
0
 10
95.8166
 20
68.7472
 11
95.975
 21
68.6691
  0
LINE
  8
0
 10
95.975
 20
68.6691
 11
96.1218
 21
68.571
  0
LINE
  8
0
 10
96.1218
 20
68.571
 11
96.2546
 21
68.4546
  0
LINE
  8
0
 10
96.2546
 20
68.4546
 11
96.371
 21
68.3218
  0
LINE
  8
0
 10
96.371
 20
68.3218
 11
96.4691
 21
68.175
  0
LINE
  8
0
 10
96.4691
 20
68.175
 11
96.5472
 21
68.0166
  0
LINE
  8
0
 10
96.5472
 20
68.0166
 11
96.604
 21
67.8494
  0
LINE
  8
0
 10
96.604
 20
67.8494
 11
96.6385
 21
67.6762
  0
LINE
  8
0
 10
96.6385
 20
67.6762
 11
96.65
 21
67.5
  0
LINE
  8
0
 10
96.65
 20
67.5
 11
96.6385
 21
67.3238
  0
LINE
  8
0
 10
96.6385
 20
67.3238
 11
96.604
 21
67.1506
  0
LINE
  8
0
 10
96.604
 20
67.1506
 11
96.5472
 21
66.9834
  0
LINE
  8
0
 10
96.5472
 20
66.9834
 11
96.4691
 21
66.825
  0
LINE
  8
0
 10
96.4691
 20
66.825
 11
96.371
 21
66.6782
  0
LINE
  8
0
 10
96.371
 20
66.6782
 11
96.2546
 21
66.5454
  0
LINE
  8
0
 10
96.2546
 20
66.5454
 11
96.1218
 21
66.429
  0
LINE
  8
0
 10
96.1218
 20
66.429
 11
95.975
 21
66.3309
  0
LINE
  8
0
 10
95.975
 20
66.3309
 11
95.8166
 21
66.2528
  0
LINE
  8
0
 10
95.8166
 20
66.2528
 11
95.6494
 21
66.196
  0
LINE
  8
0
 10
95.6494
 20
66.196
 11
95.4762
 21
66.1615
  0
LINE
  8
0
 10
95.4762
 20
66.1615
 11
95.3
 21
66.15
  0
LINE
  8
0
 10
95.3
 20
66.15
 11
95.1238
 21
66.1615
  0
LINE
  8
0
 10
95.1238
 20
66.1615
 11
94.9506
 21
66.196
  0
LINE
  8
0
 10
94.9506
 20
66.196
 11
94.7834
 21
66.2528
  0
LINE
  8
0
 10
94.7834
 20
66.2528
 11
94.625
 21
66.3309
  0
LINE
  8
0
 10
94.625
 20
66.3309
 11
94.4782
 21
66.429
  0
LINE
  8
0
 10
94.4782
 20
66.429
 11
94.3454
 21
66.5454
  0
LINE
  8
0
 10
94.3454
 20
66.5454
 11
94.229
 21
66.6782
  0
LINE
  8
0
 10
94.229
 20
66.6782
 11
94.1309
 21
66.825
  0
LINE
  8
0
 10
94.1309
 20
66.825
 11
94.0528
 21
66.9834
  0
LINE
  8
0
 10
94.0528
 20
66.9834
 11
93.996
 21
67.1506
  0
LINE
  8
0
 10
93.996
 20
67.1506
 11
93.9616
 21
67.3238
  0
LINE
  8
0
 10
93.9616
 20
67.3238
 11
93.95
 21
67.5
  0
LINE
  8
0
 10
93.95
 20
116.5
 11
93.9616
 21
116.676
  0
LINE
  8
0
 10
93.9616
 20
116.676
 11
93.996
 21
116.849
  0
LINE
  8
0
 10
93.996
 20
116.849
 11
94.0528
 21
117.017
  0
LINE
  8
0
 10
94.0528
 20
117.017
 11
94.1309
 21
117.175
  0
LINE
  8
0
 10
94.1309
 20
117.175
 11
94.229
 21
117.322
  0
LINE
  8
0
 10
94.229
 20
117.322
 11
94.3454
 21
117.455
  0
LINE
  8
0
 10
94.3454
 20
117.455
 11
94.4782
 21
117.571
  0
LINE
  8
0
 10
94.4782
 20
117.571
 11
94.625
 21
117.669
  0
LINE
  8
0
 10
94.625
 20
117.669
 11
94.7834
 21
117.747
  0
LINE
  8
0
 10
94.7834
 20
117.747
 11
94.9506
 21
117.804
  0
LINE
  8
0
 10
94.9506
 20
117.804
 11
95.1238
 21
117.838
  0
LINE
  8
0
 10
95.1238
 20
117.838
 11
95.3
 21
117.85
  0
LINE
  8
0
 10
95.3
 20
117.85
 11
95.4762
 21
117.838
  0
LINE
  8
0
 10
95.4762
 20
117.838
 11
95.6494
 21
117.804
  0
LINE
  8
0
 10
95.6494
 20
117.804
 11
95.8166
 21
117.747
  0
LINE
  8
0
 10
95.8166
 20
117.747
 11
95.975
 21
117.669
  0
LINE
  8
0
 10
95.975
 20
117.669
 11
96.1218
 21
117.571
  0
LINE
  8
0
 10
96.1218
 20
117.571
 11
96.2546
 21
117.455
  0
LINE
  8
0
 10
96.2546
 20
117.455
 11
96.371
 21
117.322
  0
LINE
  8
0
 10
96.371
 20
117.322
 11
96.4691
 21
117.175
  0
LINE
  8
0
 10
96.4691
 20
117.175
 11
96.5472
 21
117.017
  0
LINE
  8
0
 10
96.5472
 20
117.017
 11
96.604
 21
116.849
  0
LINE
  8
0
 10
96.604
 20
116.849
 11
96.6385
 21
116.676
  0
LINE
  8
0
 10
96.6385
 20
116.676
 11
96.65
 21
116.5
  0
LINE
  8
0
 10
96.65
 20
116.5
 11
96.6385
 21
116.324
  0
LINE
  8
0
 10
96.6385
 20
116.324
 11
96.604
 21
116.151
  0
LINE
  8
0
 10
96.604
 20
116.151
 11
96.5472
 21
115.983
  0
LINE
  8
0
 10
96.5472
 20
115.983
 11
96.4691
 21
115.825
  0
LINE
  8
0
 10
96.4691
 20
115.825
 11
96.371
 21
115.678
  0
LINE
  8
0
 10
96.371
 20
115.678
 11
96.2546
 21
115.545
  0
LINE
  8
0
 10
96.2546
 20
115.545
 11
96.1218
 21
115.429
  0
LINE
  8
0
 10
96.1218
 20
115.429
 11
95.975
 21
115.331
  0
LINE
  8
0
 10
95.975
 20
115.331
 11
95.8166
 21
115.253
  0
LINE
  8
0
 10
95.8166
 20
115.253
 11
95.6494
 21
115.196
  0
LINE
  8
0
 10
95.6494
 20
115.196
 11
95.4762
 21
115.162
  0
LINE
  8
0
 10
95.4762
 20
115.162
 11
95.3
 21
115.15
  0
LINE
  8
0
 10
95.3
 20
115.15
 11
95.1238
 21
115.162
  0
LINE
  8
0
 10
95.1238
 20
115.162
 11
94.9506
 21
115.196
  0
LINE
  8
0
 10
94.9506
 20
115.196
 11
94.7834
 21
115.253
  0
LINE
  8
0
 10
94.7834
 20
115.253
 11
94.625
 21
115.331
  0
LINE
  8
0
 10
94.625
 20
115.331
 11
94.4782
 21
115.429
  0
LINE
  8
0
 10
94.4782
 20
115.429
 11
94.3454
 21
115.545
  0
LINE
  8
0
 10
94.3454
 20
115.545
 11
94.229
 21
115.678
  0
LINE
  8
0
 10
94.229
 20
115.678
 11
94.1309
 21
115.825
  0
LINE
  8
0
 10
94.1309
 20
115.825
 11
94.0528
 21
115.983
  0
LINE
  8
0
 10
94.0528
 20
115.983
 11
93.996
 21
116.151
  0
LINE
  8
0
 10
93.996
 20
116.151
 11
93.9616
 21
116.324
  0
LINE
  8
0
 10
93.9616
 20
116.324
 11
93.95
 21
116.5
  0
LINE
  8
0
 10
151.95
 20
67.5
 11
151.962
 21
67.6762
  0
LINE
  8
0
 10
151.962
 20
67.6762
 11
151.996
 21
67.8494
  0
LINE
  8
0
 10
151.996
 20
67.8494
 11
152.053
 21
68.0166
  0
LINE
  8
0
 10
152.053
 20
68.0166
 11
152.131
 21
68.175
  0
LINE
  8
0
 10
152.131
 20
68.175
 11
152.229
 21
68.3218
  0
LINE
  8
0
 10
152.229
 20
68.3218
 11
152.345
 21
68.4546
  0
LINE
  8
0
 10
152.345
 20
68.4546
 11
152.478
 21
68.571
  0
LINE
  8
0
 10
152.478
 20
68.571
 11
152.625
 21
68.6691
  0
LINE
  8
0
 10
152.625
 20
68.6691
 11
152.783
 21
68.7472
  0
LINE
  8
0
 10
152.783
 20
68.7472
 11
152.951
 21
68.804
  0
LINE
  8
0
 10
152.951
 20
68.804
 11
153.124
 21
68.8385
  0
LINE
  8
0
 10
153.124
 20
68.8385
 11
153.3
 21
68.85
  0
LINE
  8
0
 10
153.3
 20
68.85
 11
153.476
 21
68.8385
  0
LINE
  8
0
 10
153.476
 20
68.8385
 11
153.649
 21
68.804
  0
LINE
  8
0
 10
153.649
 20
68.804
 11
153.817
 21
68.7472
  0
LINE
  8
0
 10
153.817
 20
68.7472
 11
153.975
 21
68.6691
  0
LINE
  8
0
 10
153.975
 20
68.6691
 11
154.122
 21
68.571
  0
LINE
  8
0
 10
154.122
 20
68.571
 11
154.255
 21
68.4546
  0
LINE
  8
0
 10
154.255
 20
68.4546
 11
154.371
 21
68.3218
  0
LINE
  8
0
 10
154.371
 20
68.3218
 11
154.469
 21
68.175
  0
LINE
  8
0
 10
154.469
 20
68.175
 11
154.547
 21
68.0166
  0
LINE
  8
0
 10
154.547
 20
68.0166
 11
154.604
 21
67.8494
  0
LINE
  8
0
 10
154.604
 20
67.8494
 11
154.638
 21
67.6762
  0
LINE
  8
0
 10
154.638
 20
67.6762
 11
154.65
 21
67.5
  0
LINE
  8
0
 10
154.65
 20
67.5
 11
154.638
 21
67.3238
  0
LINE
  8
0
 10
154.638
 20
67.3238
 11
154.604
 21
67.1506
  0
LINE
  8
0
 10
154.604
 20
67.1506
 11
154.547
 21
66.9834
  0
LINE
  8
0
 10
154.547
 20
66.9834
 11
154.469
 21
66.825
  0
LINE
  8
0
 10
154.469
 20
66.825
 11
154.371
 21
66.6782
  0
LINE
  8
0
 10
154.371
 20
66.6782
 11
154.255
 21
66.5454
  0
LINE
  8
0
 10
154.255
 20
66.5454
 11
154.122
 21
66.429
  0
LINE
  8
0
 10
154.122
 20
66.429
 11
153.975
 21
66.3309
  0
LINE
  8
0
 10
153.975
 20
66.3309
 11
153.817
 21
66.2528
  0
LINE
  8
0
 10
153.817
 20
66.2528
 11
153.649
 21
66.196
  0
LINE
  8
0
 10
153.649
 20
66.196
 11
153.476
 21
66.1615
  0
LINE
  8
0
 10
153.476
 20
66.1615
 11
153.3
 21
66.15
  0
LINE
  8
0
 10
153.3
 20
66.15
 11
153.124
 21
66.1615
  0
LINE
  8
0
 10
153.124
 20
66.1615
 11
152.951
 21
66.196
  0
LINE
  8
0
 10
152.951
 20
66.196
 11
152.783
 21
66.2528
  0
LINE
  8
0
 10
152.783
 20
66.2528
 11
152.625
 21
66.3309
  0
LINE
  8
0
 10
152.625
 20
66.3309
 11
152.478
 21
66.429
  0
LINE
  8
0
 10
152.478
 20
66.429
 11
152.345
 21
66.5454
  0
LINE
  8
0
 10
152.345
 20
66.5454
 11
152.229
 21
66.6782
  0
LINE
  8
0
 10
152.229
 20
66.6782
 11
152.131
 21
66.825
  0
LINE
  8
0
 10
152.131
 20
66.825
 11
152.053
 21
66.9834
  0
LINE
  8
0
 10
152.053
 20
66.9834
 11
151.996
 21
67.1506
  0
LINE
  8
0
 10
151.996
 20
67.1506
 11
151.962
 21
67.3238
  0
LINE
  8
0
 10
151.962
 20
67.3238
 11
151.95
 21
67.5
  0
LINE
  8
0
 10
151.95
 20
116.5
 11
151.962
 21
116.676
  0
LINE
  8
0
 10
151.962
 20
116.676
 11
151.996
 21
116.849
  0
LINE
  8
0
 10
151.996
 20
116.849
 11
152.053
 21
117.017
  0
LINE
  8
0
 10
152.053
 20
117.017
 11
152.131
 21
117.175
  0
LINE
  8
0
 10
152.131
 20
117.175
 11
152.229
 21
117.322
  0
LINE
  8
0
 10
152.229
 20
117.322
 11
152.345
 21
117.455
  0
LINE
  8
0
 10
152.345
 20
117.455
 11
152.478
 21
117.571
  0
LINE
  8
0
 10
152.478
 20
117.571
 11
152.625
 21
117.669
  0
LINE
  8
0
 10
152.625
 20
117.669
 11
152.783
 21
117.747
  0
LINE
  8
0
 10
152.783
 20
117.747
 11
152.951
 21
117.804
  0
LINE
  8
0
 10
152.951
 20
117.804
 11
153.124
 21
117.838
  0
LINE
  8
0
 10
153.124
 20
117.838
 11
153.3
 21
117.85
  0
LINE
  8
0
 10
153.3
 20
117.85
 11
153.476
 21
117.838
  0
LINE
  8
0
 10
153.476
 20
117.838
 11
153.649
 21
117.804
  0
LINE
  8
0
 10
153.649
 20
117.804
 11
153.817
 21
117.747
  0
LINE
  8
0
 10
153.817
 20
117.747
 11
153.975
 21
117.669
  0
LINE
  8
0
 10
153.975
 20
117.669
 11
154.122
 21
117.571
  0
LINE
  8
0
 10
154.122
 20
117.571
 11
154.255
 21
117.455
  0
LINE
  8
0
 10
154.255
 20
117.455
 11
154.371
 21
117.322
  0
LINE
  8
0
 10
154.371
 20
117.322
 11
154.469
 21
117.175
  0
LINE
  8
0
 10
154.469
 20
117.175
 11
154.547
 21
117.017
  0
LINE
  8
0
 10
154.547
 20
117.017
 11
154.604
 21
116.849
  0
LINE
  8
0
 10
154.604
 20
116.849
 11
154.638
 21
116.676
  0
LINE
  8
0
 10
154.638
 20
116.676
 11
154.65
 21
116.5
  0
LINE
  8
0
 10
154.65
 20
116.5
 11
154.638
 21
116.324
  0
LINE
  8
0
 10
154.638
 20
116.324
 11
154.604
 21
116.151
  0
LINE
  8
0
 10
154.604
 20
116.151
 11
154.547
 21
115.983
  0
LINE
  8
0
 10
154.547
 20
115.983
 11
154.469
 21
115.825
  0
LINE
  8
0
 10
154.469
 20
115.825
 11
154.371
 21
115.678
  0
LINE
  8
0
 10
154.371
 20
115.678
 11
154.255
 21
115.545
  0
LINE
  8
0
 10
154.255
 20
115.545
 11
154.122
 21
115.429
  0
LINE
  8
0
 10
154.122
 20
115.429
 11
153.975
 21
115.331
  0
LINE
  8
0
 10
153.975
 20
115.331
 11
153.817
 21
115.253
  0
LINE
  8
0
 10
153.817
 20
115.253
 11
153.649
 21
115.196
  0
LINE
  8
0
 10
153.649
 20
115.196
 11
153.476
 21
115.162
  0
LINE
  8
0
 10
153.476
 20
115.162
 11
153.3
 21
115.15
  0
LINE
  8
0
 10
153.3
 20
115.15
 11
153.124
 21
115.162
  0
LINE
  8
0
 10
153.124
 20
115.162
 11
152.951
 21
115.196
  0
LINE
  8
0
 10
152.951
 20
115.196
 11
152.783
 21
115.253
  0
LINE
  8
0
 10
152.783
 20
115.253
 11
152.625
 21
115.331
  0
LINE
  8
0
 10
152.625
 20
115.331
 11
152.478
 21
115.429
  0
LINE
  8
0
 10
152.478
 20
115.429
 11
152.345
 21
115.545
  0
LINE
  8
0
 10
152.345
 20
115.545
 11
152.229
 21
115.678
  0
LINE
  8
0
 10
152.229
 20
115.678
 11
152.131
 21
115.825
  0
LINE
  8
0
 10
152.131
 20
115.825
 11
152.053
 21
115.983
  0
LINE
  8
0
 10
152.053
 20
115.983
 11
151.996
 21
116.151
  0
LINE
  8
0
 10
151.996
 20
116.151
 11
151.962
 21
116.324
  0
LINE
  8
0
 10
151.962
 20
116.324
 11
151.95
 21
116.5
  0
LINE
  8
0
 10
213.9
 20
13
 11
213.915
 21
13.2219
  0
LINE
  8
0
 10
213.915
 20
13.2219
 11
213.958
 21
13.44
  0
LINE
  8
0
 10
213.958
 20
13.44
 11
214.029
 21
13.6506
  0
LINE
  8
0
 10
214.029
 20
13.6506
 11
214.128
 21
13.85
  0
LINE
  8
0
 10
214.128
 20
13.85
 11
214.251
 21
14.0349
  0
LINE
  8
0
 10
214.251
 20
14.0349
 11
214.398
 21
14.2021
  0
LINE
  8
0
 10
214.398
 20
14.2021
 11
214.565
 21
14.3487
  0
LINE
  8
0
 10
214.565
 20
14.3487
 11
214.75
 21
14.4722
  0
LINE
  8
0
 10
214.75
 20
14.4722
 11
214.949
 21
14.5706
  0
LINE
  8
0
 10
214.949
 20
14.5706
 11
215.16
 21
14.6421
  0
LINE
  8
0
 10
215.16
 20
14.6421
 11
215.378
 21
14.6855
  0
LINE
  8
0
 10
215.378
 20
14.6855
 11
215.6
 21
14.7
  0
LINE
  8
0
 10
215.6
 20
14.7
 11
215.822
 21
14.6855
  0
LINE
  8
0
 10
215.822
 20
14.6855
 11
216.04
 21
14.6421
  0
LINE
  8
0
 10
216.04
 20
14.6421
 11
216.251
 21
14.5706
  0
LINE
  8
0
 10
216.251
 20
14.5706
 11
216.45
 21
14.4722
  0
LINE
  8
0
 10
216.45
 20
14.4722
 11
216.635
 21
14.3487
  0
LINE
  8
0
 10
216.635
 20
14.3487
 11
216.802
 21
14.2021
  0
LINE
  8
0
 10
216.802
 20
14.2021
 11
216.949
 21
14.0349
  0
LINE
  8
0
 10
216.949
 20
14.0349
 11
217.072
 21
13.85
  0
LINE
  8
0
 10
217.072
 20
13.85
 11
217.171
 21
13.6506
  0
LINE
  8
0
 10
217.171
 20
13.6506
 11
217.242
 21
13.44
  0
LINE
  8
0
 10
217.242
 20
13.44
 11
217.285
 21
13.2219
  0
LINE
  8
0
 10
217.285
 20
13.2219
 11
217.3
 21
13
  0
LINE
  8
0
 10
217.3
 20
13
 11
217.285
 21
12.7781
  0
LINE
  8
0
 10
217.285
 20
12.7781
 11
217.242
 21
12.56
  0
LINE
  8
0
 10
217.242
 20
12.56
 11
217.171
 21
12.3494
  0
LINE
  8
0
 10
217.171
 20
12.3494
 11
217.072
 21
12.15
  0
LINE
  8
0
 10
217.072
 20
12.15
 11
216.949
 21
11.9651
  0
LINE
  8
0
 10
216.949
 20
11.9651
 11
216.802
 21
11.7979
  0
LINE
  8
0
 10
216.802
 20
11.7979
 11
216.635
 21
11.6513
  0
LINE
  8
0
 10
216.635
 20
11.6513
 11
216.45
 21
11.5278
  0
LINE
  8
0
 10
216.45
 20
11.5278
 11
216.251
 21
11.4294
  0
LINE
  8
0
 10
216.251
 20
11.4294
 11
216.04
 21
11.3579
  0
LINE
  8
0
 10
216.04
 20
11.3579
 11
215.822
 21
11.3145
  0
LINE
  8
0
 10
215.822
 20
11.3145
 11
215.6
 21
11.3
  0
LINE
  8
0
 10
215.6
 20
11.3
 11
215.378
 21
11.3145
  0
LINE
  8
0
 10
215.378
 20
11.3145
 11
215.16
 21
11.3579
  0
LINE
  8
0
 10
215.16
 20
11.3579
 11
214.949
 21
11.4294
  0
LINE
  8
0
 10
214.949
 20
11.4294
 11
214.75
 21
11.5278
  0
LINE
  8
0
 10
214.75
 20
11.5278
 11
214.565
 21
11.6513
  0
LINE
  8
0
 10
214.565
 20
11.6513
 11
214.398
 21
11.7979
  0
LINE
  8
0
 10
214.398
 20
11.7979
 11
214.251
 21
11.9651
  0
LINE
  8
0
 10
214.251
 20
11.9651
 11
214.128
 21
12.15
  0
LINE
  8
0
 10
214.128
 20
12.15
 11
214.029
 21
12.3494
  0
LINE
  8
0
 10
214.029
 20
12.3494
 11
213.958
 21
12.56
  0
LINE
  8
0
 10
213.958
 20
12.56
 11
213.915
 21
12.7781
  0
LINE
  8
0
 10
213.915
 20
12.7781
 11
213.9
 21
13
  0
LINE
  8
0
 10
213.9
 20
164.8
 11
213.915
 21
165.022
  0
LINE
  8
0
 10
213.915
 20
165.022
 11
213.958
 21
165.24
  0
LINE
  8
0
 10
213.958
 20
165.24
 11
214.029
 21
165.451
  0
LINE
  8
0
 10
214.029
 20
165.451
 11
214.128
 21
165.65
  0
LINE
  8
0
 10
214.128
 20
165.65
 11
214.251
 21
165.835
  0
LINE
  8
0
 10
214.251
 20
165.835
 11
214.398
 21
166.002
  0
LINE
  8
0
 10
214.398
 20
166.002
 11
214.565
 21
166.149
  0
LINE
  8
0
 10
214.565
 20
166.149
 11
214.75
 21
166.272
  0
LINE
  8
0
 10
214.75
 20
166.272
 11
214.949
 21
166.371
  0
LINE
  8
0
 10
214.949
 20
166.371
 11
215.16
 21
166.442
  0
LINE
  8
0
 10
215.16
 20
166.442
 11
215.378
 21
166.485
  0
LINE
  8
0
 10
215.378
 20
166.485
 11
215.6
 21
166.5
  0
LINE
  8
0
 10
215.6
 20
166.5
 11
215.822
 21
166.485
  0
LINE
  8
0
 10
215.822
 20
166.485
 11
216.04
 21
166.442
  0
LINE
  8
0
 10
216.04
 20
166.442
 11
216.251
 21
166.371
  0
LINE
  8
0
 10
216.251
 20
166.371
 11
216.45
 21
166.272
  0
LINE
  8
0
 10
216.45
 20
166.272
 11
216.635
 21
166.149
  0
LINE
  8
0
 10
216.635
 20
166.149
 11
216.802
 21
166.002
  0
LINE
  8
0
 10
216.802
 20
166.002
 11
216.949
 21
165.835
  0
LINE
  8
0
 10
216.949
 20
165.835
 11
217.072
 21
165.65
  0
LINE
  8
0
 10
217.072
 20
165.65
 11
217.171
 21
165.451
  0
LINE
  8
0
 10
217.171
 20
165.451
 11
217.242
 21
165.24
  0
LINE
  8
0
 10
217.242
 20
165.24
 11
217.285
 21
165.022
  0
LINE
  8
0
 10
217.285
 20
165.022
 11
217.3
 21
164.8
  0
LINE
  8
0
 10
217.3
 20
164.8
 11
217.285
 21
164.578
  0
LINE
  8
0
 10
217.285
 20
164.578
 11
217.242
 21
164.36
  0
LINE
  8
0
 10
217.242
 20
164.36
 11
217.171
 21
164.149
  0
LINE
  8
0
 10
217.171
 20
164.149
 11
217.072
 21
163.95
  0
LINE
  8
0
 10
217.072
 20
163.95
 11
216.949
 21
163.765
  0
LINE
  8
0
 10
216.949
 20
163.765
 11
216.802
 21
163.598
  0
LINE
  8
0
 10
216.802
 20
163.598
 11
216.635
 21
163.451
  0
LINE
  8
0
 10
216.635
 20
163.451
 11
216.45
 21
163.328
  0
LINE
  8
0
 10
216.45
 20
163.328
 11
216.251
 21
163.229
  0
LINE
  8
0
 10
216.251
 20
163.229
 11
216.04
 21
163.158
  0
LINE
  8
0
 10
216.04
 20
163.158
 11
215.822
 21
163.115
  0
LINE
  8
0
 10
215.822
 20
163.115
 11
215.6
 21
163.1
  0
LINE
  8
0
 10
215.6
 20
163.1
 11
215.378
 21
163.115
  0
LINE
  8
0
 10
215.378
 20
163.115
 11
215.16
 21
163.158
  0
LINE
  8
0
 10
215.16
 20
163.158
 11
214.949
 21
163.229
  0
LINE
  8
0
 10
214.949
 20
163.229
 11
214.75
 21
163.328
  0
LINE
  8
0
 10
214.75
 20
163.328
 11
214.565
 21
163.451
  0
LINE
  8
0
 10
214.565
 20
163.451
 11
214.398
 21
163.598
  0
LINE
  8
0
 10
214.398
 20
163.598
 11
214.251
 21
163.765
  0
LINE
  8
0
 10
214.251
 20
163.765
 11
214.128
 21
163.95
  0
LINE
  8
0
 10
214.128
 20
163.95
 11
214.029
 21
164.149
  0
LINE
  8
0
 10
214.029
 20
164.149
 11
213.958
 21
164.36
  0
LINE
  8
0
 10
213.958
 20
164.36
 11
213.915
 21
164.578
  0
LINE
  8
0
 10
213.915
 20
164.578
 11
213.9
 21
164.8
  0
ENDSEC
  0
SECTION
  2
OBJECTS
  0
DICTIONARY
  0
ENDSEC
  0
EOF
