  0
SECTION
  2
BLOCKS
  0
ENDSEC
  0
SECTION
  2
ENTITIES
  0
LINE
  8
0
 10
0
 20
0
 11
82.9
 21
0
  0
LINE
  8
0
 10
82.9
 20
0
 11
82.9
 21
171.8
  0
LINE
  8
0
 10
82.9
 20
171.8
 11
0
 21
171.8
  0
LINE
  8
0
 10
0
 20
171.8
 11
0
 21
0
  0
LINE
  8
0
 10
8.3
 20
10
 11
8.31454
 21
10.2219
  0
LINE
  8
0
 10
8.31454
 20
10.2219
 11
8.35793
 21
10.44
  0
LINE
  8
0
 10
8.35793
 20
10.44
 11
8.4294
 21
10.6506
  0
LINE
  8
0
 10
8.4294
 20
10.6506
 11
8.52776
 21
10.85
  0
LINE
  8
0
 10
8.52776
 20
10.85
 11
8.6513
 21
11.0349
  0
LINE
  8
0
 10
8.6513
 20
11.0349
 11
8.79792
 21
11.2021
  0
LINE
  8
0
 10
8.79792
 20
11.2021
 11
8.96511
 21
11.3487
  0
LINE
  8
0
 10
8.96511
 20
11.3487
 11
9.15
 21
11.4722
  0
LINE
  8
0
 10
9.15
 20
11.4722
 11
9.34944
 21
11.5706
  0
LINE
  8
0
 10
9.34944
 20
11.5706
 11
9.56001
 21
11.6421
  0
LINE
  8
0
 10
9.56001
 20
11.6421
 11
9.7781
 21
11.6855
  0
LINE
  8
0
 10
9.7781
 20
11.6855
 11
10
 21
11.7
  0
LINE
  8
0
 10
10
 20
11.7
 11
10.2219
 21
11.6855
  0
LINE
  8
0
 10
10.2219
 20
11.6855
 11
10.44
 21
11.6421
  0
LINE
  8
0
 10
10.44
 20
11.6421
 11
10.6506
 21
11.5706
  0
LINE
  8
0
 10
10.6506
 20
11.5706
 11
10.85
 21
11.4722
  0
LINE
  8
0
 10
10.85
 20
11.4722
 11
11.0349
 21
11.3487
  0
LINE
  8
0
 10
11.0349
 20
11.3487
 11
11.2021
 21
11.2021
  0
LINE
  8
0
 10
11.2021
 20
11.2021
 11
11.3487
 21
11.0349
  0
LINE
  8
0
 10
11.3487
 20
11.0349
 11
11.4722
 21
10.85
  0
LINE
  8
0
 10
11.4722
 20
10.85
 11
11.5706
 21
10.6506
  0
LINE
  8
0
 10
11.5706
 20
10.6506
 11
11.6421
 21
10.44
  0
LINE
  8
0
 10
11.6421
 20
10.44
 11
11.6855
 21
10.2219
  0
LINE
  8
0
 10
11.6855
 20
10.2219
 11
11.7
 21
10
  0
LINE
  8
0
 10
11.7
 20
10
 11
11.6855
 21
9.7781
  0
LINE
  8
0
 10
11.6855
 20
9.7781
 11
11.6421
 21
9.56001
  0
LINE
  8
0
 10
11.6421
 20
9.56001
 11
11.5706
 21
9.34944
  0
LINE
  8
0
 10
11.5706
 20
9.34944
 11
11.4722
 21
9.15
  0
LINE
  8
0
 10
11.4722
 20
9.15
 11
11.3487
 21
8.96511
  0
LINE
  8
0
 10
11.3487
 20
8.96511
 11
11.2021
 21
8.79792
  0
LINE
  8
0
 10
11.2021
 20
8.79792
 11
11.0349
 21
8.6513
  0
LINE
  8
0
 10
11.0349
 20
8.6513
 11
10.85
 21
8.52776
  0
LINE
  8
0
 10
10.85
 20
8.52776
 11
10.6506
 21
8.4294
  0
LINE
  8
0
 10
10.6506
 20
8.4294
 11
10.44
 21
8.35793
  0
LINE
  8
0
 10
10.44
 20
8.35793
 11
10.2219
 21
8.31454
  0
LINE
  8
0
 10
10.2219
 20
8.31454
 11
10
 21
8.3
  0
LINE
  8
0
 10
10
 20
8.3
 11
9.7781
 21
8.31454
  0
LINE
  8
0
 10
9.7781
 20
8.31454
 11
9.56001
 21
8.35793
  0
LINE
  8
0
 10
9.56001
 20
8.35793
 11
9.34944
 21
8.4294
  0
LINE
  8
0
 10
9.34944
 20
8.4294
 11
9.15
 21
8.52776
  0
LINE
  8
0
 10
9.15
 20
8.52776
 11
8.96511
 21
8.6513
  0
LINE
  8
0
 10
8.96511
 20
8.6513
 11
8.79792
 21
8.79792
  0
LINE
  8
0
 10
8.79792
 20
8.79792
 11
8.6513
 21
8.96511
  0
LINE
  8
0
 10
8.6513
 20
8.96511
 11
8.52776
 21
9.15
  0
LINE
  8
0
 10
8.52776
 20
9.15
 11
8.4294
 21
9.34944
  0
LINE
  8
0
 10
8.4294
 20
9.34944
 11
8.35793
 21
9.56001
  0
LINE
  8
0
 10
8.35793
 20
9.56001
 11
8.31454
 21
9.7781
  0
LINE
  8
0
 10
8.31454
 20
9.7781
 11
8.3
 21
10
  0
LINE
  8
0
 10
8.3
 20
161.8
 11
8.31454
 21
162.022
  0
LINE
  8
0
 10
8.31454
 20
162.022
 11
8.35793
 21
162.24
  0
LINE
  8
0
 10
8.35793
 20
162.24
 11
8.4294
 21
162.451
  0
LINE
  8
0
 10
8.4294
 20
162.451
 11
8.52776
 21
162.65
  0
LINE
  8
0
 10
8.52776
 20
162.65
 11
8.6513
 21
162.835
  0
LINE
  8
0
 10
8.6513
 20
162.835
 11
8.79792
 21
163.002
  0
LINE
  8
0
 10
8.79792
 20
163.002
 11
8.96511
 21
163.149
  0
LINE
  8
0
 10
8.96511
 20
163.149
 11
9.15
 21
163.272
  0
LINE
  8
0
 10
9.15
 20
163.272
 11
9.34944
 21
163.371
  0
LINE
  8
0
 10
9.34944
 20
163.371
 11
9.56001
 21
163.442
  0
LINE
  8
0
 10
9.56001
 20
163.442
 11
9.7781
 21
163.485
  0
LINE
  8
0
 10
9.7781
 20
163.485
 11
10
 21
163.5
  0
LINE
  8
0
 10
10
 20
163.5
 11
10.2219
 21
163.485
  0
LINE
  8
0
 10
10.2219
 20
163.485
 11
10.44
 21
163.442
  0
LINE
  8
0
 10
10.44
 20
163.442
 11
10.6506
 21
163.371
  0
LINE
  8
0
 10
10.6506
 20
163.371
 11
10.85
 21
163.272
  0
LINE
  8
0
 10
10.85
 20
163.272
 11
11.0349
 21
163.149
  0
LINE
  8
0
 10
11.0349
 20
163.149
 11
11.2021
 21
163.002
  0
LINE
  8
0
 10
11.2021
 20
163.002
 11
11.3487
 21
162.835
  0
LINE
  8
0
 10
11.3487
 20
162.835
 11
11.4722
 21
162.65
  0
LINE
  8
0
 10
11.4722
 20
162.65
 11
11.5706
 21
162.451
  0
LINE
  8
0
 10
11.5706
 20
162.451
 11
11.6421
 21
162.24
  0
LINE
  8
0
 10
11.6421
 20
162.24
 11
11.6855
 21
162.022
  0
LINE
  8
0
 10
11.6855
 20
162.022
 11
11.7
 21
161.8
  0
LINE
  8
0
 10
11.7
 20
161.8
 11
11.6855
 21
161.578
  0
LINE
  8
0
 10
11.6855
 20
161.578
 11
11.6421
 21
161.36
  0
LINE
  8
0
 10
11.6421
 20
161.36
 11
11.5706
 21
161.149
  0
LINE
  8
0
 10
11.5706
 20
161.149
 11
11.4722
 21
160.95
  0
LINE
  8
0
 10
11.4722
 20
160.95
 11
11.3487
 21
160.765
  0
LINE
  8
0
 10
11.3487
 20
160.765
 11
11.2021
 21
160.598
  0
LINE
  8
0
 10
11.2021
 20
160.598
 11
11.0349
 21
160.451
  0
LINE
  8
0
 10
11.0349
 20
160.451
 11
10.85
 21
160.328
  0
LINE
  8
0
 10
10.85
 20
160.328
 11
10.6506
 21
160.229
  0
LINE
  8
0
 10
10.6506
 20
160.229
 11
10.44
 21
160.158
  0
LINE
  8
0
 10
10.44
 20
160.158
 11
10.2219
 21
160.115
  0
LINE
  8
0
 10
10.2219
 20
160.115
 11
10
 21
160.1
  0
LINE
  8
0
 10
10
 20
160.1
 11
9.7781
 21
160.115
  0
LINE
  8
0
 10
9.7781
 20
160.115
 11
9.56001
 21
160.158
  0
LINE
  8
0
 10
9.56001
 20
160.158
 11
9.34944
 21
160.229
  0
LINE
  8
0
 10
9.34944
 20
160.229
 11
9.15
 21
160.328
  0
LINE
  8
0
 10
9.15
 20
160.328
 11
8.96511
 21
160.451
  0
LINE
  8
0
 10
8.96511
 20
160.451
 11
8.79792
 21
160.598
  0
LINE
  8
0
 10
8.79792
 20
160.598
 11
8.6513
 21
160.765
  0
LINE
  8
0
 10
8.6513
 20
160.765
 11
8.52776
 21
160.95
  0
LINE
  8
0
 10
8.52776
 20
160.95
 11
8.4294
 21
161.149
  0
LINE
  8
0
 10
8.4294
 20
161.149
 11
8.35793
 21
161.36
  0
LINE
  8
0
 10
8.35793
 20
161.36
 11
8.31454
 21
161.578
  0
LINE
  8
0
 10
8.31454
 20
161.578
 11
8.3
 21
161.8
  0
LINE
  8
0
 10
71.2
 20
10
 11
71.2145
 21
10.2219
  0
LINE
  8
0
 10
71.2145
 20
10.2219
 11
71.2579
 21
10.44
  0
LINE
  8
0
 10
71.2579
 20
10.44
 11
71.3294
 21
10.6506
  0
LINE
  8
0
 10
71.3294
 20
10.6506
 11
71.4278
 21
10.85
  0
LINE
  8
0
 10
71.4278
 20
10.85
 11
71.5513
 21
11.0349
  0
LINE
  8
0
 10
71.5513
 20
11.0349
 11
71.6979
 21
11.2021
  0
LINE
  8
0
 10
71.6979
 20
11.2021
 11
71.8651
 21
11.3487
  0
LINE
  8
0
 10
71.8651
 20
11.3487
 11
72.05
 21
11.4722
  0
LINE
  8
0
 10
72.05
 20
11.4722
 11
72.2494
 21
11.5706
  0
LINE
  8
0
 10
72.2494
 20
11.5706
 11
72.46
 21
11.6421
  0
LINE
  8
0
 10
72.46
 20
11.6421
 11
72.6781
 21
11.6855
  0
LINE
  8
0
 10
72.6781
 20
11.6855
 11
72.9
 21
11.7
  0
LINE
  8
0
 10
72.9
 20
11.7
 11
73.1219
 21
11.6855
  0
LINE
  8
0
 10
73.1219
 20
11.6855
 11
73.34
 21
11.6421
  0
LINE
  8
0
 10
73.34
 20
11.6421
 11
73.5506
 21
11.5706
  0
LINE
  8
0
 10
73.5506
 20
11.5706
 11
73.75
 21
11.4722
  0
LINE
  8
0
 10
73.75
 20
11.4722
 11
73.9349
 21
11.3487
  0
LINE
  8
0
 10
73.9349
 20
11.3487
 11
74.1021
 21
11.2021
  0
LINE
  8
0
 10
74.1021
 20
11.2021
 11
74.2487
 21
11.0349
  0
LINE
  8
0
 10
74.2487
 20
11.0349
 11
74.3722
 21
10.85
  0
LINE
  8
0
 10
74.3722
 20
10.85
 11
74.4706
 21
10.6506
  0
LINE
  8
0
 10
74.4706
 20
10.6506
 11
74.5421
 21
10.44
  0
LINE
  8
0
 10
74.5421
 20
10.44
 11
74.5855
 21
10.2219
  0
LINE
  8
0
 10
74.5855
 20
10.2219
 11
74.6
 21
10
  0
LINE
  8
0
 10
74.6
 20
10
 11
74.5855
 21
9.7781
  0
LINE
  8
0
 10
74.5855
 20
9.7781
 11
74.5421
 21
9.56001
  0
LINE
  8
0
 10
74.5421
 20
9.56001
 11
74.4706
 21
9.34944
  0
LINE
  8
0
 10
74.4706
 20
9.34944
 11
74.3722
 21
9.15
  0
LINE
  8
0
 10
74.3722
 20
9.15
 11
74.2487
 21
8.96511
  0
LINE
  8
0
 10
74.2487
 20
8.96511
 11
74.1021
 21
8.79792
  0
LINE
  8
0
 10
74.1021
 20
8.79792
 11
73.9349
 21
8.6513
  0
LINE
  8
0
 10
73.9349
 20
8.6513
 11
73.75
 21
8.52776
  0
LINE
  8
0
 10
73.75
 20
8.52776
 11
73.5506
 21
8.4294
  0
LINE
  8
0
 10
73.5506
 20
8.4294
 11
73.34
 21
8.35793
  0
LINE
  8
0
 10
73.34
 20
8.35793
 11
73.1219
 21
8.31454
  0
LINE
  8
0
 10
73.1219
 20
8.31454
 11
72.9
 21
8.3
  0
LINE
  8
0
 10
72.9
 20
8.3
 11
72.6781
 21
8.31454
  0
LINE
  8
0
 10
72.6781
 20
8.31454
 11
72.46
 21
8.35793
  0
LINE
  8
0
 10
72.46
 20
8.35793
 11
72.2494
 21
8.4294
  0
LINE
  8
0
 10
72.2494
 20
8.4294
 11
72.05
 21
8.52776
  0
LINE
  8
0
 10
72.05
 20
8.52776
 11
71.8651
 21
8.6513
  0
LINE
  8
0
 10
71.8651
 20
8.6513
 11
71.6979
 21
8.79792
  0
LINE
  8
0
 10
71.6979
 20
8.79792
 11
71.5513
 21
8.96511
  0
LINE
  8
0
 10
71.5513
 20
8.96511
 11
71.4278
 21
9.15
  0
LINE
  8
0
 10
71.4278
 20
9.15
 11
71.3294
 21
9.34944
  0
LINE
  8
0
 10
71.3294
 20
9.34944
 11
71.2579
 21
9.56001
  0
LINE
  8
0
 10
71.2579
 20
9.56001
 11
71.2145
 21
9.7781
  0
LINE
  8
0
 10
71.2145
 20
9.7781
 11
71.2
 21
10
  0
LINE
  8
0
 10
71.2
 20
161.8
 11
71.2145
 21
162.022
  0
LINE
  8
0
 10
71.2145
 20
162.022
 11
71.2579
 21
162.24
  0
LINE
  8
0
 10
71.2579
 20
162.24
 11
71.3294
 21
162.451
  0
LINE
  8
0
 10
71.3294
 20
162.451
 11
71.4278
 21
162.65
  0
LINE
  8
0
 10
71.4278
 20
162.65
 11
71.5513
 21
162.835
  0
LINE
  8
0
 10
71.5513
 20
162.835
 11
71.6979
 21
163.002
  0
LINE
  8
0
 10
71.6979
 20
163.002
 11
71.8651
 21
163.149
  0
LINE
  8
0
 10
71.8651
 20
163.149
 11
72.05
 21
163.272
  0
LINE
  8
0
 10
72.05
 20
163.272
 11
72.2494
 21
163.371
  0
LINE
  8
0
 10
72.2494
 20
163.371
 11
72.46
 21
163.442
  0
LINE
  8
0
 10
72.46
 20
163.442
 11
72.6781
 21
163.485
  0
LINE
  8
0
 10
72.6781
 20
163.485
 11
72.9
 21
163.5
  0
LINE
  8
0
 10
72.9
 20
163.5
 11
73.1219
 21
163.485
  0
LINE
  8
0
 10
73.1219
 20
163.485
 11
73.34
 21
163.442
  0
LINE
  8
0
 10
73.34
 20
163.442
 11
73.5506
 21
163.371
  0
LINE
  8
0
 10
73.5506
 20
163.371
 11
73.75
 21
163.272
  0
LINE
  8
0
 10
73.75
 20
163.272
 11
73.9349
 21
163.149
  0
LINE
  8
0
 10
73.9349
 20
163.149
 11
74.1021
 21
163.002
  0
LINE
  8
0
 10
74.1021
 20
163.002
 11
74.2487
 21
162.835
  0
LINE
  8
0
 10
74.2487
 20
162.835
 11
74.3722
 21
162.65
  0
LINE
  8
0
 10
74.3722
 20
162.65
 11
74.4706
 21
162.451
  0
LINE
  8
0
 10
74.4706
 20
162.451
 11
74.5421
 21
162.24
  0
LINE
  8
0
 10
74.5421
 20
162.24
 11
74.5855
 21
162.022
  0
LINE
  8
0
 10
74.5855
 20
162.022
 11
74.6
 21
161.8
  0
LINE
  8
0
 10
74.6
 20
161.8
 11
74.5855
 21
161.578
  0
LINE
  8
0
 10
74.5855
 20
161.578
 11
74.5421
 21
161.36
  0
LINE
  8
0
 10
74.5421
 20
161.36
 11
74.4706
 21
161.149
  0
LINE
  8
0
 10
74.4706
 20
161.149
 11
74.3722
 21
160.95
  0
LINE
  8
0
 10
74.3722
 20
160.95
 11
74.2487
 21
160.765
  0
LINE
  8
0
 10
74.2487
 20
160.765
 11
74.1021
 21
160.598
  0
LINE
  8
0
 10
74.1021
 20
160.598
 11
73.9349
 21
160.451
  0
LINE
  8
0
 10
73.9349
 20
160.451
 11
73.75
 21
160.328
  0
LINE
  8
0
 10
73.75
 20
160.328
 11
73.5506
 21
160.229
  0
LINE
  8
0
 10
73.5506
 20
160.229
 11
73.34
 21
160.158
  0
LINE
  8
0
 10
73.34
 20
160.158
 11
73.1219
 21
160.115
  0
LINE
  8
0
 10
73.1219
 20
160.115
 11
72.9
 21
160.1
  0
LINE
  8
0
 10
72.9
 20
160.1
 11
72.6781
 21
160.115
  0
LINE
  8
0
 10
72.6781
 20
160.115
 11
72.46
 21
160.158
  0
LINE
  8
0
 10
72.46
 20
160.158
 11
72.2494
 21
160.229
  0
LINE
  8
0
 10
72.2494
 20
160.229
 11
72.05
 21
160.328
  0
LINE
  8
0
 10
72.05
 20
160.328
 11
71.8651
 21
160.451
  0
LINE
  8
0
 10
71.8651
 20
160.451
 11
71.6979
 21
160.598
  0
LINE
  8
0
 10
71.6979
 20
160.598
 11
71.5513
 21
160.765
  0
LINE
  8
0
 10
71.5513
 20
160.765
 11
71.4278
 21
160.95
  0
LINE
  8
0
 10
71.4278
 20
160.95
 11
71.3294
 21
161.149
  0
LINE
  8
0
 10
71.3294
 20
161.149
 11
71.2579
 21
161.36
  0
LINE
  8
0
 10
71.2579
 20
161.36
 11
71.2145
 21
161.578
  0
LINE
  8
0
 10
71.2145
 20
161.578
 11
71.2
 21
161.8
  0
ENDSEC
  0
SECTION
  2
OBJECTS
  0
DICTIONARY
  0
ENDSEC
  0
EOF
