  0
SECTION
  2
BLOCKS
  0
ENDSEC
  0
SECTION
  2
ENTITIES
  0
LINE
  8
0
 10
0
 20
0
 11
228.6
 21
0
  0
LINE
  8
0
 10
228.6
 20
0
 11
228.6
 21
82.9
  0
LINE
  8
0
 10
228.6
 20
82.9
 11
0
 21
82.9
  0
LINE
  8
0
 10
0
 20
82.9
 11
0
 21
0
  0
LINE
  8
0
 10
11.3
 20
10
 11
11.3145
 21
10.2219
  0
LINE
  8
0
 10
11.3145
 20
10.2219
 11
11.3579
 21
10.44
  0
LINE
  8
0
 10
11.3579
 20
10.44
 11
11.4294
 21
10.6506
  0
LINE
  8
0
 10
11.4294
 20
10.6506
 11
11.5278
 21
10.85
  0
LINE
  8
0
 10
11.5278
 20
10.85
 11
11.6513
 21
11.0349
  0
LINE
  8
0
 10
11.6513
 20
11.0349
 11
11.7979
 21
11.2021
  0
LINE
  8
0
 10
11.7979
 20
11.2021
 11
11.9651
 21
11.3487
  0
LINE
  8
0
 10
11.9651
 20
11.3487
 11
12.15
 21
11.4722
  0
LINE
  8
0
 10
12.15
 20
11.4722
 11
12.3494
 21
11.5706
  0
LINE
  8
0
 10
12.3494
 20
11.5706
 11
12.56
 21
11.6421
  0
LINE
  8
0
 10
12.56
 20
11.6421
 11
12.7781
 21
11.6855
  0
LINE
  8
0
 10
12.7781
 20
11.6855
 11
13
 21
11.7
  0
LINE
  8
0
 10
13
 20
11.7
 11
13.2219
 21
11.6855
  0
LINE
  8
0
 10
13.2219
 20
11.6855
 11
13.44
 21
11.6421
  0
LINE
  8
0
 10
13.44
 20
11.6421
 11
13.6506
 21
11.5706
  0
LINE
  8
0
 10
13.6506
 20
11.5706
 11
13.85
 21
11.4722
  0
LINE
  8
0
 10
13.85
 20
11.4722
 11
14.0349
 21
11.3487
  0
LINE
  8
0
 10
14.0349
 20
11.3487
 11
14.2021
 21
11.2021
  0
LINE
  8
0
 10
14.2021
 20
11.2021
 11
14.3487
 21
11.0349
  0
LINE
  8
0
 10
14.3487
 20
11.0349
 11
14.4722
 21
10.85
  0
LINE
  8
0
 10
14.4722
 20
10.85
 11
14.5706
 21
10.6506
  0
LINE
  8
0
 10
14.5706
 20
10.6506
 11
14.6421
 21
10.44
  0
LINE
  8
0
 10
14.6421
 20
10.44
 11
14.6855
 21
10.2219
  0
LINE
  8
0
 10
14.6855
 20
10.2219
 11
14.7
 21
10
  0
LINE
  8
0
 10
14.7
 20
10
 11
14.6855
 21
9.7781
  0
LINE
  8
0
 10
14.6855
 20
9.7781
 11
14.6421
 21
9.56001
  0
LINE
  8
0
 10
14.6421
 20
9.56001
 11
14.5706
 21
9.34944
  0
LINE
  8
0
 10
14.5706
 20
9.34944
 11
14.4722
 21
9.15
  0
LINE
  8
0
 10
14.4722
 20
9.15
 11
14.3487
 21
8.96511
  0
LINE
  8
0
 10
14.3487
 20
8.96511
 11
14.2021
 21
8.79792
  0
LINE
  8
0
 10
14.2021
 20
8.79792
 11
14.0349
 21
8.6513
  0
LINE
  8
0
 10
14.0349
 20
8.6513
 11
13.85
 21
8.52776
  0
LINE
  8
0
 10
13.85
 20
8.52776
 11
13.6506
 21
8.4294
  0
LINE
  8
0
 10
13.6506
 20
8.4294
 11
13.44
 21
8.35793
  0
LINE
  8
0
 10
13.44
 20
8.35793
 11
13.2219
 21
8.31454
  0
LINE
  8
0
 10
13.2219
 20
8.31454
 11
13
 21
8.3
  0
LINE
  8
0
 10
13
 20
8.3
 11
12.7781
 21
8.31454
  0
LINE
  8
0
 10
12.7781
 20
8.31454
 11
12.56
 21
8.35793
  0
LINE
  8
0
 10
12.56
 20
8.35793
 11
12.3494
 21
8.4294
  0
LINE
  8
0
 10
12.3494
 20
8.4294
 11
12.15
 21
8.52776
  0
LINE
  8
0
 10
12.15
 20
8.52776
 11
11.9651
 21
8.6513
  0
LINE
  8
0
 10
11.9651
 20
8.6513
 11
11.7979
 21
8.79792
  0
LINE
  8
0
 10
11.7979
 20
8.79792
 11
11.6513
 21
8.96511
  0
LINE
  8
0
 10
11.6513
 20
8.96511
 11
11.5278
 21
9.15
  0
LINE
  8
0
 10
11.5278
 20
9.15
 11
11.4294
 21
9.34944
  0
LINE
  8
0
 10
11.4294
 20
9.34944
 11
11.3579
 21
9.56001
  0
LINE
  8
0
 10
11.3579
 20
9.56001
 11
11.3145
 21
9.7781
  0
LINE
  8
0
 10
11.3145
 20
9.7781
 11
11.3
 21
10
  0
LINE
  8
0
 10
11.3
 20
72.9
 11
11.3145
 21
73.1219
  0
LINE
  8
0
 10
11.3145
 20
73.1219
 11
11.3579
 21
73.34
  0
LINE
  8
0
 10
11.3579
 20
73.34
 11
11.4294
 21
73.5506
  0
LINE
  8
0
 10
11.4294
 20
73.5506
 11
11.5278
 21
73.75
  0
LINE
  8
0
 10
11.5278
 20
73.75
 11
11.6513
 21
73.9349
  0
LINE
  8
0
 10
11.6513
 20
73.9349
 11
11.7979
 21
74.1021
  0
LINE
  8
0
 10
11.7979
 20
74.1021
 11
11.9651
 21
74.2487
  0
LINE
  8
0
 10
11.9651
 20
74.2487
 11
12.15
 21
74.3722
  0
LINE
  8
0
 10
12.15
 20
74.3722
 11
12.3494
 21
74.4706
  0
LINE
  8
0
 10
12.3494
 20
74.4706
 11
12.56
 21
74.5421
  0
LINE
  8
0
 10
12.56
 20
74.5421
 11
12.7781
 21
74.5855
  0
LINE
  8
0
 10
12.7781
 20
74.5855
 11
13
 21
74.6
  0
LINE
  8
0
 10
13
 20
74.6
 11
13.2219
 21
74.5855
  0
LINE
  8
0
 10
13.2219
 20
74.5855
 11
13.44
 21
74.5421
  0
LINE
  8
0
 10
13.44
 20
74.5421
 11
13.6506
 21
74.4706
  0
LINE
  8
0
 10
13.6506
 20
74.4706
 11
13.85
 21
74.3722
  0
LINE
  8
0
 10
13.85
 20
74.3722
 11
14.0349
 21
74.2487
  0
LINE
  8
0
 10
14.0349
 20
74.2487
 11
14.2021
 21
74.1021
  0
LINE
  8
0
 10
14.2021
 20
74.1021
 11
14.3487
 21
73.9349
  0
LINE
  8
0
 10
14.3487
 20
73.9349
 11
14.4722
 21
73.75
  0
LINE
  8
0
 10
14.4722
 20
73.75
 11
14.5706
 21
73.5506
  0
LINE
  8
0
 10
14.5706
 20
73.5506
 11
14.6421
 21
73.34
  0
LINE
  8
0
 10
14.6421
 20
73.34
 11
14.6855
 21
73.1219
  0
LINE
  8
0
 10
14.6855
 20
73.1219
 11
14.7
 21
72.9
  0
LINE
  8
0
 10
14.7
 20
72.9
 11
14.6855
 21
72.6781
  0
LINE
  8
0
 10
14.6855
 20
72.6781
 11
14.6421
 21
72.46
  0
LINE
  8
0
 10
14.6421
 20
72.46
 11
14.5706
 21
72.2494
  0
LINE
  8
0
 10
14.5706
 20
72.2494
 11
14.4722
 21
72.05
  0
LINE
  8
0
 10
14.4722
 20
72.05
 11
14.3487
 21
71.8651
  0
LINE
  8
0
 10
14.3487
 20
71.8651
 11
14.2021
 21
71.6979
  0
LINE
  8
0
 10
14.2021
 20
71.6979
 11
14.0349
 21
71.5513
  0
LINE
  8
0
 10
14.0349
 20
71.5513
 11
13.85
 21
71.4278
  0
LINE
  8
0
 10
13.85
 20
71.4278
 11
13.6506
 21
71.3294
  0
LINE
  8
0
 10
13.6506
 20
71.3294
 11
13.44
 21
71.2579
  0
LINE
  8
0
 10
13.44
 20
71.2579
 11
13.2219
 21
71.2145
  0
LINE
  8
0
 10
13.2219
 20
71.2145
 11
13
 21
71.2
  0
LINE
  8
0
 10
13
 20
71.2
 11
12.7781
 21
71.2145
  0
LINE
  8
0
 10
12.7781
 20
71.2145
 11
12.56
 21
71.2579
  0
LINE
  8
0
 10
12.56
 20
71.2579
 11
12.3494
 21
71.3294
  0
LINE
  8
0
 10
12.3494
 20
71.3294
 11
12.15
 21
71.4278
  0
LINE
  8
0
 10
12.15
 20
71.4278
 11
11.9651
 21
71.5513
  0
LINE
  8
0
 10
11.9651
 20
71.5513
 11
11.7979
 21
71.6979
  0
LINE
  8
0
 10
11.7979
 20
71.6979
 11
11.6513
 21
71.8651
  0
LINE
  8
0
 10
11.6513
 20
71.8651
 11
11.5278
 21
72.05
  0
LINE
  8
0
 10
11.5278
 20
72.05
 11
11.4294
 21
72.2494
  0
LINE
  8
0
 10
11.4294
 20
72.2494
 11
11.3579
 21
72.46
  0
LINE
  8
0
 10
11.3579
 20
72.46
 11
11.3145
 21
72.6781
  0
LINE
  8
0
 10
11.3145
 20
72.6781
 11
11.3
 21
72.9
  0
LINE
  8
0
 10
213.9
 20
10
 11
213.915
 21
10.2219
  0
LINE
  8
0
 10
213.915
 20
10.2219
 11
213.958
 21
10.44
  0
LINE
  8
0
 10
213.958
 20
10.44
 11
214.029
 21
10.6506
  0
LINE
  8
0
 10
214.029
 20
10.6506
 11
214.128
 21
10.85
  0
LINE
  8
0
 10
214.128
 20
10.85
 11
214.251
 21
11.0349
  0
LINE
  8
0
 10
214.251
 20
11.0349
 11
214.398
 21
11.2021
  0
LINE
  8
0
 10
214.398
 20
11.2021
 11
214.565
 21
11.3487
  0
LINE
  8
0
 10
214.565
 20
11.3487
 11
214.75
 21
11.4722
  0
LINE
  8
0
 10
214.75
 20
11.4722
 11
214.949
 21
11.5706
  0
LINE
  8
0
 10
214.949
 20
11.5706
 11
215.16
 21
11.6421
  0
LINE
  8
0
 10
215.16
 20
11.6421
 11
215.378
 21
11.6855
  0
LINE
  8
0
 10
215.378
 20
11.6855
 11
215.6
 21
11.7
  0
LINE
  8
0
 10
215.6
 20
11.7
 11
215.822
 21
11.6855
  0
LINE
  8
0
 10
215.822
 20
11.6855
 11
216.04
 21
11.6421
  0
LINE
  8
0
 10
216.04
 20
11.6421
 11
216.251
 21
11.5706
  0
LINE
  8
0
 10
216.251
 20
11.5706
 11
216.45
 21
11.4722
  0
LINE
  8
0
 10
216.45
 20
11.4722
 11
216.635
 21
11.3487
  0
LINE
  8
0
 10
216.635
 20
11.3487
 11
216.802
 21
11.2021
  0
LINE
  8
0
 10
216.802
 20
11.2021
 11
216.949
 21
11.0349
  0
LINE
  8
0
 10
216.949
 20
11.0349
 11
217.072
 21
10.85
  0
LINE
  8
0
 10
217.072
 20
10.85
 11
217.171
 21
10.6506
  0
LINE
  8
0
 10
217.171
 20
10.6506
 11
217.242
 21
10.44
  0
LINE
  8
0
 10
217.242
 20
10.44
 11
217.285
 21
10.2219
  0
LINE
  8
0
 10
217.285
 20
10.2219
 11
217.3
 21
10
  0
LINE
  8
0
 10
217.3
 20
10
 11
217.285
 21
9.7781
  0
LINE
  8
0
 10
217.285
 20
9.7781
 11
217.242
 21
9.56001
  0
LINE
  8
0
 10
217.242
 20
9.56001
 11
217.171
 21
9.34944
  0
LINE
  8
0
 10
217.171
 20
9.34944
 11
217.072
 21
9.15
  0
LINE
  8
0
 10
217.072
 20
9.15
 11
216.949
 21
8.96511
  0
LINE
  8
0
 10
216.949
 20
8.96511
 11
216.802
 21
8.79792
  0
LINE
  8
0
 10
216.802
 20
8.79792
 11
216.635
 21
8.6513
  0
LINE
  8
0
 10
216.635
 20
8.6513
 11
216.45
 21
8.52776
  0
LINE
  8
0
 10
216.45
 20
8.52776
 11
216.251
 21
8.4294
  0
LINE
  8
0
 10
216.251
 20
8.4294
 11
216.04
 21
8.35793
  0
LINE
  8
0
 10
216.04
 20
8.35793
 11
215.822
 21
8.31454
  0
LINE
  8
0
 10
215.822
 20
8.31454
 11
215.6
 21
8.3
  0
LINE
  8
0
 10
215.6
 20
8.3
 11
215.378
 21
8.31454
  0
LINE
  8
0
 10
215.378
 20
8.31454
 11
215.16
 21
8.35793
  0
LINE
  8
0
 10
215.16
 20
8.35793
 11
214.949
 21
8.4294
  0
LINE
  8
0
 10
214.949
 20
8.4294
 11
214.75
 21
8.52776
  0
LINE
  8
0
 10
214.75
 20
8.52776
 11
214.565
 21
8.6513
  0
LINE
  8
0
 10
214.565
 20
8.6513
 11
214.398
 21
8.79792
  0
LINE
  8
0
 10
214.398
 20
8.79792
 11
214.251
 21
8.96511
  0
LINE
  8
0
 10
214.251
 20
8.96511
 11
214.128
 21
9.15
  0
LINE
  8
0
 10
214.128
 20
9.15
 11
214.029
 21
9.34944
  0
LINE
  8
0
 10
214.029
 20
9.34944
 11
213.958
 21
9.56001
  0
LINE
  8
0
 10
213.958
 20
9.56001
 11
213.915
 21
9.7781
  0
LINE
  8
0
 10
213.915
 20
9.7781
 11
213.9
 21
10
  0
LINE
  8
0
 10
213.9
 20
72.9
 11
213.915
 21
73.1219
  0
LINE
  8
0
 10
213.915
 20
73.1219
 11
213.958
 21
73.34
  0
LINE
  8
0
 10
213.958
 20
73.34
 11
214.029
 21
73.5506
  0
LINE
  8
0
 10
214.029
 20
73.5506
 11
214.128
 21
73.75
  0
LINE
  8
0
 10
214.128
 20
73.75
 11
214.251
 21
73.9349
  0
LINE
  8
0
 10
214.251
 20
73.9349
 11
214.398
 21
74.1021
  0
LINE
  8
0
 10
214.398
 20
74.1021
 11
214.565
 21
74.2487
  0
LINE
  8
0
 10
214.565
 20
74.2487
 11
214.75
 21
74.3722
  0
LINE
  8
0
 10
214.75
 20
74.3722
 11
214.949
 21
74.4706
  0
LINE
  8
0
 10
214.949
 20
74.4706
 11
215.16
 21
74.5421
  0
LINE
  8
0
 10
215.16
 20
74.5421
 11
215.378
 21
74.5855
  0
LINE
  8
0
 10
215.378
 20
74.5855
 11
215.6
 21
74.6
  0
LINE
  8
0
 10
215.6
 20
74.6
 11
215.822
 21
74.5855
  0
LINE
  8
0
 10
215.822
 20
74.5855
 11
216.04
 21
74.5421
  0
LINE
  8
0
 10
216.04
 20
74.5421
 11
216.251
 21
74.4706
  0
LINE
  8
0
 10
216.251
 20
74.4706
 11
216.45
 21
74.3722
  0
LINE
  8
0
 10
216.45
 20
74.3722
 11
216.635
 21
74.2487
  0
LINE
  8
0
 10
216.635
 20
74.2487
 11
216.802
 21
74.1021
  0
LINE
  8
0
 10
216.802
 20
74.1021
 11
216.949
 21
73.9349
  0
LINE
  8
0
 10
216.949
 20
73.9349
 11
217.072
 21
73.75
  0
LINE
  8
0
 10
217.072
 20
73.75
 11
217.171
 21
73.5506
  0
LINE
  8
0
 10
217.171
 20
73.5506
 11
217.242
 21
73.34
  0
LINE
  8
0
 10
217.242
 20
73.34
 11
217.285
 21
73.1219
  0
LINE
  8
0
 10
217.285
 20
73.1219
 11
217.3
 21
72.9
  0
LINE
  8
0
 10
217.3
 20
72.9
 11
217.285
 21
72.6781
  0
LINE
  8
0
 10
217.285
 20
72.6781
 11
217.242
 21
72.46
  0
LINE
  8
0
 10
217.242
 20
72.46
 11
217.171
 21
72.2494
  0
LINE
  8
0
 10
217.171
 20
72.2494
 11
217.072
 21
72.05
  0
LINE
  8
0
 10
217.072
 20
72.05
 11
216.949
 21
71.8651
  0
LINE
  8
0
 10
216.949
 20
71.8651
 11
216.802
 21
71.6979
  0
LINE
  8
0
 10
216.802
 20
71.6979
 11
216.635
 21
71.5513
  0
LINE
  8
0
 10
216.635
 20
71.5513
 11
216.45
 21
71.4278
  0
LINE
  8
0
 10
216.45
 20
71.4278
 11
216.251
 21
71.3294
  0
LINE
  8
0
 10
216.251
 20
71.3294
 11
216.04
 21
71.2579
  0
LINE
  8
0
 10
216.04
 20
71.2579
 11
215.822
 21
71.2145
  0
LINE
  8
0
 10
215.822
 20
71.2145
 11
215.6
 21
71.2
  0
LINE
  8
0
 10
215.6
 20
71.2
 11
215.378
 21
71.2145
  0
LINE
  8
0
 10
215.378
 20
71.2145
 11
215.16
 21
71.2579
  0
LINE
  8
0
 10
215.16
 20
71.2579
 11
214.949
 21
71.3294
  0
LINE
  8
0
 10
214.949
 20
71.3294
 11
214.75
 21
71.4278
  0
LINE
  8
0
 10
214.75
 20
71.4278
 11
214.565
 21
71.5513
  0
LINE
  8
0
 10
214.565
 20
71.5513
 11
214.398
 21
71.6979
  0
LINE
  8
0
 10
214.398
 20
71.6979
 11
214.251
 21
71.8651
  0
LINE
  8
0
 10
214.251
 20
71.8651
 11
214.128
 21
72.05
  0
LINE
  8
0
 10
214.128
 20
72.05
 11
214.029
 21
72.2494
  0
LINE
  8
0
 10
214.029
 20
72.2494
 11
213.958
 21
72.46
  0
LINE
  8
0
 10
213.958
 20
72.46
 11
213.915
 21
72.6781
  0
LINE
  8
0
 10
213.915
 20
72.6781
 11
213.9
 21
72.9
  0
ENDSEC
  0
SECTION
  2
OBJECTS
  0
DICTIONARY
  0
ENDSEC
  0
EOF
