  0
SECTION
  2
BLOCKS
  0
ENDSEC
  0
SECTION
  2
ENTITIES
  0
LINE
  8
0
 10
228.6
 20
88.9
 11
0
 21
88.9
  0
LINE
  8
0
 10
0
 20
88.9
 11
0
 21
0
  0
LINE
  8
0
 10
0
 20
0
 11
228.6
 21
0
  0
LINE
  8
0
 10
228.6
 20
0
 11
228.6
 21
88.9
  0
LINE
  8
0
 10
83.9737
 20
68.4214
 11
83.653
 21
68.4852
  0
LINE
  8
0
 10
83.653
 20
68.4852
 11
83.3433
 21
68.5903
  0
LINE
  8
0
 10
83.3433
 20
68.5903
 11
83.05
 21
68.7349
  0
LINE
  8
0
 10
83.05
 20
68.7349
 11
82.7781
 21
68.9166
  0
LINE
  8
0
 10
82.7781
 20
68.9166
 11
82.5322
 21
69.1322
  0
LINE
  8
0
 10
82.5322
 20
69.1322
 11
82.3166
 21
69.3781
  0
LINE
  8
0
 10
82.3166
 20
69.3781
 11
82.1349
 21
69.65
  0
LINE
  8
0
 10
82.1349
 20
69.65
 11
81.9903
 21
69.9433
  0
LINE
  8
0
 10
81.9903
 20
69.9433
 11
81.8852
 21
70.2529
  0
LINE
  8
0
 10
81.8852
 20
70.2529
 11
81.8214
 21
70.5737
  0
LINE
  8
0
 10
81.8214
 20
70.5737
 11
81.8
 21
70.9
  0
LINE
  8
0
 10
81.8
 20
70.9
 11
81.8214
 21
71.2263
  0
LINE
  8
0
 10
81.8214
 20
71.2263
 11
81.8852
 21
71.547
  0
LINE
  8
0
 10
81.8852
 20
71.547
 11
81.9903
 21
71.8567
  0
LINE
  8
0
 10
81.9903
 20
71.8567
 11
82.1349
 21
72.15
  0
LINE
  8
0
 10
82.1349
 20
72.15
 11
82.3166
 21
72.4219
  0
LINE
  8
0
 10
82.3166
 20
72.4219
 11
82.5322
 21
72.6678
  0
LINE
  8
0
 10
82.5322
 20
72.6678
 11
82.7781
 21
72.8834
  0
LINE
  8
0
 10
82.7781
 20
72.8834
 11
83.05
 21
73.0651
  0
LINE
  8
0
 10
83.05
 20
73.0651
 11
83.3433
 21
73.2097
  0
LINE
  8
0
 10
83.3433
 20
73.2097
 11
83.653
 21
73.3148
  0
LINE
  8
0
 10
83.653
 20
73.3148
 11
83.9737
 21
73.3786
  0
LINE
  8
0
 10
83.9737
 20
73.3786
 11
84.3
 21
73.4
  0
LINE
  8
0
 10
84.3
 20
73.4
 11
84.6263
 21
73.3786
  0
LINE
  8
0
 10
84.6263
 20
73.3786
 11
84.947
 21
73.3148
  0
LINE
  8
0
 10
84.947
 20
73.3148
 11
85.2567
 21
73.2097
  0
LINE
  8
0
 10
85.2567
 20
73.2097
 11
85.55
 21
73.0651
  0
LINE
  8
0
 10
85.55
 20
73.0651
 11
85.8219
 21
72.8834
  0
LINE
  8
0
 10
85.8219
 20
72.8834
 11
86.0678
 21
72.6678
  0
LINE
  8
0
 10
86.0678
 20
72.6678
 11
86.2834
 21
72.4219
  0
LINE
  8
0
 10
86.2834
 20
72.4219
 11
86.4651
 21
72.15
  0
LINE
  8
0
 10
86.4651
 20
72.15
 11
86.6097
 21
71.8567
  0
LINE
  8
0
 10
86.6097
 20
71.8567
 11
86.7148
 21
71.547
  0
LINE
  8
0
 10
86.7148
 20
71.547
 11
86.7786
 21
71.2263
  0
LINE
  8
0
 10
86.7786
 20
71.2263
 11
86.8
 21
70.9
  0
LINE
  8
0
 10
86.8
 20
70.9
 11
86.7786
 21
70.5737
  0
LINE
  8
0
 10
86.7786
 20
70.5737
 11
86.7148
 21
70.2529
  0
LINE
  8
0
 10
86.7148
 20
70.2529
 11
86.6097
 21
69.9433
  0
LINE
  8
0
 10
86.6097
 20
69.9433
 11
86.4651
 21
69.65
  0
LINE
  8
0
 10
86.4651
 20
69.65
 11
86.2834
 21
69.3781
  0
LINE
  8
0
 10
86.2834
 20
69.3781
 11
86.0678
 21
69.1322
  0
LINE
  8
0
 10
86.0678
 20
69.1322
 11
85.8219
 21
68.9166
  0
LINE
  8
0
 10
85.8219
 20
68.9166
 11
85.55
 21
68.7349
  0
LINE
  8
0
 10
85.55
 20
68.7349
 11
85.2567
 21
68.5903
  0
LINE
  8
0
 10
85.2567
 20
68.5903
 11
84.947
 21
68.4852
  0
LINE
  8
0
 10
84.947
 20
68.4852
 11
84.6263
 21
68.4214
  0
LINE
  8
0
 10
84.6263
 20
68.4214
 11
84.3
 21
68.4
  0
LINE
  8
0
 10
84.3
 20
68.4
 11
83.9737
 21
68.4214
  0
LINE
  8
0
 10
107.974
 20
68.4214
 11
107.653
 21
68.4852
  0
LINE
  8
0
 10
107.653
 20
68.4852
 11
107.343
 21
68.5903
  0
LINE
  8
0
 10
107.343
 20
68.5903
 11
107.05
 21
68.7349
  0
LINE
  8
0
 10
107.05
 20
68.7349
 11
106.778
 21
68.9166
  0
LINE
  8
0
 10
106.778
 20
68.9166
 11
106.532
 21
69.1322
  0
LINE
  8
0
 10
106.532
 20
69.1322
 11
106.317
 21
69.3781
  0
LINE
  8
0
 10
106.317
 20
69.3781
 11
106.135
 21
69.65
  0
LINE
  8
0
 10
106.135
 20
69.65
 11
105.99
 21
69.9433
  0
LINE
  8
0
 10
105.99
 20
69.9433
 11
105.885
 21
70.2529
  0
LINE
  8
0
 10
105.885
 20
70.2529
 11
105.821
 21
70.5737
  0
LINE
  8
0
 10
105.821
 20
70.5737
 11
105.8
 21
70.9
  0
LINE
  8
0
 10
105.8
 20
70.9
 11
105.821
 21
71.2263
  0
LINE
  8
0
 10
105.821
 20
71.2263
 11
105.885
 21
71.547
  0
LINE
  8
0
 10
105.885
 20
71.547
 11
105.99
 21
71.8567
  0
LINE
  8
0
 10
105.99
 20
71.8567
 11
106.135
 21
72.15
  0
LINE
  8
0
 10
106.135
 20
72.15
 11
106.317
 21
72.4219
  0
LINE
  8
0
 10
106.317
 20
72.4219
 11
106.532
 21
72.6678
  0
LINE
  8
0
 10
106.532
 20
72.6678
 11
106.778
 21
72.8834
  0
LINE
  8
0
 10
106.778
 20
72.8834
 11
107.05
 21
73.0651
  0
LINE
  8
0
 10
107.05
 20
73.0651
 11
107.343
 21
73.2097
  0
LINE
  8
0
 10
107.343
 20
73.2097
 11
107.653
 21
73.3148
  0
LINE
  8
0
 10
107.653
 20
73.3148
 11
107.974
 21
73.3786
  0
LINE
  8
0
 10
107.974
 20
73.3786
 11
108.3
 21
73.4
  0
LINE
  8
0
 10
108.3
 20
73.4
 11
108.626
 21
73.3786
  0
LINE
  8
0
 10
108.626
 20
73.3786
 11
108.947
 21
73.3148
  0
LINE
  8
0
 10
108.947
 20
73.3148
 11
109.257
 21
73.2097
  0
LINE
  8
0
 10
109.257
 20
73.2097
 11
109.55
 21
73.0651
  0
LINE
  8
0
 10
109.55
 20
73.0651
 11
109.822
 21
72.8834
  0
LINE
  8
0
 10
109.822
 20
72.8834
 11
110.068
 21
72.6678
  0
LINE
  8
0
 10
110.068
 20
72.6678
 11
110.283
 21
72.4219
  0
LINE
  8
0
 10
110.283
 20
72.4219
 11
110.465
 21
72.15
  0
LINE
  8
0
 10
110.465
 20
72.15
 11
110.61
 21
71.8567
  0
LINE
  8
0
 10
110.61
 20
71.8567
 11
110.715
 21
71.547
  0
LINE
  8
0
 10
110.715
 20
71.547
 11
110.779
 21
71.2263
  0
LINE
  8
0
 10
110.779
 20
71.2263
 11
110.8
 21
70.9
  0
LINE
  8
0
 10
110.8
 20
70.9
 11
110.779
 21
70.5737
  0
LINE
  8
0
 10
110.779
 20
70.5737
 11
110.715
 21
70.2529
  0
LINE
  8
0
 10
110.715
 20
70.2529
 11
110.61
 21
69.9433
  0
LINE
  8
0
 10
110.61
 20
69.9433
 11
110.465
 21
69.65
  0
LINE
  8
0
 10
110.465
 20
69.65
 11
110.283
 21
69.3781
  0
LINE
  8
0
 10
110.283
 20
69.3781
 11
110.068
 21
69.1322
  0
LINE
  8
0
 10
110.068
 20
69.1322
 11
109.822
 21
68.9166
  0
LINE
  8
0
 10
109.822
 20
68.9166
 11
109.55
 21
68.7349
  0
LINE
  8
0
 10
109.55
 20
68.7349
 11
109.257
 21
68.5903
  0
LINE
  8
0
 10
109.257
 20
68.5903
 11
108.947
 21
68.4852
  0
LINE
  8
0
 10
108.947
 20
68.4852
 11
108.626
 21
68.4214
  0
LINE
  8
0
 10
108.626
 20
68.4214
 11
108.3
 21
68.4
  0
LINE
  8
0
 10
108.3
 20
68.4
 11
107.974
 21
68.4214
  0
LINE
  8
0
 10
119.974
 20
68.4214
 11
119.653
 21
68.4852
  0
LINE
  8
0
 10
119.653
 20
68.4852
 11
119.343
 21
68.5903
  0
LINE
  8
0
 10
119.343
 20
68.5903
 11
119.05
 21
68.7349
  0
LINE
  8
0
 10
119.05
 20
68.7349
 11
118.778
 21
68.9166
  0
LINE
  8
0
 10
118.778
 20
68.9166
 11
118.532
 21
69.1322
  0
LINE
  8
0
 10
118.532
 20
69.1322
 11
118.317
 21
69.3781
  0
LINE
  8
0
 10
118.317
 20
69.3781
 11
118.135
 21
69.65
  0
LINE
  8
0
 10
118.135
 20
69.65
 11
117.99
 21
69.9433
  0
LINE
  8
0
 10
117.99
 20
69.9433
 11
117.885
 21
70.2529
  0
LINE
  8
0
 10
117.885
 20
70.2529
 11
117.821
 21
70.5737
  0
LINE
  8
0
 10
117.821
 20
70.5737
 11
117.8
 21
70.9
  0
LINE
  8
0
 10
117.8
 20
70.9
 11
117.821
 21
71.2263
  0
LINE
  8
0
 10
117.821
 20
71.2263
 11
117.885
 21
71.547
  0
LINE
  8
0
 10
117.885
 20
71.547
 11
117.99
 21
71.8567
  0
LINE
  8
0
 10
117.99
 20
71.8567
 11
118.135
 21
72.15
  0
LINE
  8
0
 10
118.135
 20
72.15
 11
118.317
 21
72.4219
  0
LINE
  8
0
 10
118.317
 20
72.4219
 11
118.532
 21
72.6678
  0
LINE
  8
0
 10
118.532
 20
72.6678
 11
118.778
 21
72.8834
  0
LINE
  8
0
 10
118.778
 20
72.8834
 11
119.05
 21
73.0651
  0
LINE
  8
0
 10
119.05
 20
73.0651
 11
119.343
 21
73.2097
  0
LINE
  8
0
 10
119.343
 20
73.2097
 11
119.653
 21
73.3148
  0
LINE
  8
0
 10
119.653
 20
73.3148
 11
119.974
 21
73.3786
  0
LINE
  8
0
 10
119.974
 20
73.3786
 11
120.3
 21
73.4
  0
LINE
  8
0
 10
120.3
 20
73.4
 11
120.626
 21
73.3786
  0
LINE
  8
0
 10
120.626
 20
73.3786
 11
120.947
 21
73.3148
  0
LINE
  8
0
 10
120.947
 20
73.3148
 11
121.257
 21
73.2097
  0
LINE
  8
0
 10
121.257
 20
73.2097
 11
121.55
 21
73.0651
  0
LINE
  8
0
 10
121.55
 20
73.0651
 11
121.822
 21
72.8834
  0
LINE
  8
0
 10
121.822
 20
72.8834
 11
122.068
 21
72.6678
  0
LINE
  8
0
 10
122.068
 20
72.6678
 11
122.283
 21
72.4219
  0
LINE
  8
0
 10
122.283
 20
72.4219
 11
122.465
 21
72.15
  0
LINE
  8
0
 10
122.465
 20
72.15
 11
122.61
 21
71.8567
  0
LINE
  8
0
 10
122.61
 20
71.8567
 11
122.715
 21
71.547
  0
LINE
  8
0
 10
122.715
 20
71.547
 11
122.779
 21
71.2263
  0
LINE
  8
0
 10
122.779
 20
71.2263
 11
122.8
 21
70.9
  0
LINE
  8
0
 10
122.8
 20
70.9
 11
122.779
 21
70.5737
  0
LINE
  8
0
 10
122.779
 20
70.5737
 11
122.715
 21
70.2529
  0
LINE
  8
0
 10
122.715
 20
70.2529
 11
122.61
 21
69.9433
  0
LINE
  8
0
 10
122.61
 20
69.9433
 11
122.465
 21
69.65
  0
LINE
  8
0
 10
122.465
 20
69.65
 11
122.283
 21
69.3781
  0
LINE
  8
0
 10
122.283
 20
69.3781
 11
122.068
 21
69.1322
  0
LINE
  8
0
 10
122.068
 20
69.1322
 11
121.822
 21
68.9166
  0
LINE
  8
0
 10
121.822
 20
68.9166
 11
121.55
 21
68.7349
  0
LINE
  8
0
 10
121.55
 20
68.7349
 11
121.257
 21
68.5903
  0
LINE
  8
0
 10
121.257
 20
68.5903
 11
120.947
 21
68.4852
  0
LINE
  8
0
 10
120.947
 20
68.4852
 11
120.626
 21
68.4214
  0
LINE
  8
0
 10
120.626
 20
68.4214
 11
120.3
 21
68.4
  0
LINE
  8
0
 10
120.3
 20
68.4
 11
119.974
 21
68.4214
  0
LINE
  8
0
 10
132.947
 20
73.3148
 11
133.257
 21
73.2097
  0
LINE
  8
0
 10
133.257
 20
73.2097
 11
133.55
 21
73.0651
  0
LINE
  8
0
 10
133.55
 20
73.0651
 11
133.822
 21
72.8834
  0
LINE
  8
0
 10
133.822
 20
72.8834
 11
134.068
 21
72.6678
  0
LINE
  8
0
 10
134.068
 20
72.6678
 11
134.283
 21
72.4219
  0
LINE
  8
0
 10
134.283
 20
72.4219
 11
134.465
 21
72.15
  0
LINE
  8
0
 10
134.465
 20
72.15
 11
134.61
 21
71.8567
  0
LINE
  8
0
 10
134.61
 20
71.8567
 11
134.715
 21
71.547
  0
LINE
  8
0
 10
134.715
 20
71.547
 11
134.779
 21
71.2263
  0
LINE
  8
0
 10
134.779
 20
71.2263
 11
134.8
 21
70.9
  0
LINE
  8
0
 10
134.8
 20
70.9
 11
134.779
 21
70.5737
  0
LINE
  8
0
 10
134.779
 20
70.5737
 11
134.715
 21
70.2529
  0
LINE
  8
0
 10
134.715
 20
70.2529
 11
134.61
 21
69.9433
  0
LINE
  8
0
 10
134.61
 20
69.9433
 11
134.465
 21
69.65
  0
LINE
  8
0
 10
134.465
 20
69.65
 11
134.283
 21
69.3781
  0
LINE
  8
0
 10
134.283
 20
69.3781
 11
134.068
 21
69.1322
  0
LINE
  8
0
 10
134.068
 20
69.1322
 11
133.822
 21
68.9166
  0
LINE
  8
0
 10
133.822
 20
68.9166
 11
133.55
 21
68.7349
  0
LINE
  8
0
 10
133.55
 20
68.7349
 11
133.257
 21
68.5903
  0
LINE
  8
0
 10
133.257
 20
68.5903
 11
132.947
 21
68.4852
  0
LINE
  8
0
 10
132.947
 20
68.4852
 11
132.626
 21
68.4214
  0
LINE
  8
0
 10
132.626
 20
68.4214
 11
132.3
 21
68.4
  0
LINE
  8
0
 10
132.3
 20
68.4
 11
131.974
 21
68.4214
  0
LINE
  8
0
 10
131.974
 20
68.4214
 11
131.653
 21
68.4852
  0
LINE
  8
0
 10
131.653
 20
68.4852
 11
131.343
 21
68.5903
  0
LINE
  8
0
 10
131.343
 20
68.5903
 11
131.05
 21
68.7349
  0
LINE
  8
0
 10
131.05
 20
68.7349
 11
130.778
 21
68.9166
  0
LINE
  8
0
 10
130.778
 20
68.9166
 11
130.532
 21
69.1322
  0
LINE
  8
0
 10
130.532
 20
69.1322
 11
130.317
 21
69.3781
  0
LINE
  8
0
 10
130.317
 20
69.3781
 11
130.135
 21
69.65
  0
LINE
  8
0
 10
130.135
 20
69.65
 11
129.99
 21
69.9433
  0
LINE
  8
0
 10
129.99
 20
69.9433
 11
129.885
 21
70.2529
  0
LINE
  8
0
 10
129.885
 20
70.2529
 11
129.821
 21
70.5737
  0
LINE
  8
0
 10
129.821
 20
70.5737
 11
129.8
 21
70.9
  0
LINE
  8
0
 10
129.8
 20
70.9
 11
129.821
 21
71.2263
  0
LINE
  8
0
 10
129.821
 20
71.2263
 11
129.885
 21
71.547
  0
LINE
  8
0
 10
129.885
 20
71.547
 11
129.99
 21
71.8567
  0
LINE
  8
0
 10
129.99
 20
71.8567
 11
130.135
 21
72.15
  0
LINE
  8
0
 10
130.135
 20
72.15
 11
130.317
 21
72.4219
  0
LINE
  8
0
 10
130.317
 20
72.4219
 11
130.532
 21
72.6678
  0
LINE
  8
0
 10
130.532
 20
72.6678
 11
130.778
 21
72.8834
  0
LINE
  8
0
 10
130.778
 20
72.8834
 11
131.05
 21
73.0651
  0
LINE
  8
0
 10
131.05
 20
73.0651
 11
131.343
 21
73.2097
  0
LINE
  8
0
 10
131.343
 20
73.2097
 11
131.653
 21
73.3148
  0
LINE
  8
0
 10
131.653
 20
73.3148
 11
131.974
 21
73.3786
  0
LINE
  8
0
 10
131.974
 20
73.3786
 11
132.3
 21
73.4
  0
LINE
  8
0
 10
132.3
 20
73.4
 11
132.626
 21
73.3786
  0
LINE
  8
0
 10
132.626
 20
73.3786
 11
132.947
 21
73.3148
  0
LINE
  8
0
 10
95.9737
 20
68.4214
 11
95.653
 21
68.4852
  0
LINE
  8
0
 10
95.653
 20
68.4852
 11
95.3433
 21
68.5903
  0
LINE
  8
0
 10
95.3433
 20
68.5903
 11
95.05
 21
68.7349
  0
LINE
  8
0
 10
95.05
 20
68.7349
 11
94.7781
 21
68.9166
  0
LINE
  8
0
 10
94.7781
 20
68.9166
 11
94.5322
 21
69.1322
  0
LINE
  8
0
 10
94.5322
 20
69.1322
 11
94.3166
 21
69.3781
  0
LINE
  8
0
 10
94.3166
 20
69.3781
 11
94.1349
 21
69.65
  0
LINE
  8
0
 10
94.1349
 20
69.65
 11
93.9903
 21
69.9433
  0
LINE
  8
0
 10
93.9903
 20
69.9433
 11
93.8852
 21
70.2529
  0
LINE
  8
0
 10
93.8852
 20
70.2529
 11
93.8214
 21
70.5737
  0
LINE
  8
0
 10
93.8214
 20
70.5737
 11
93.8
 21
70.9
  0
LINE
  8
0
 10
93.8
 20
70.9
 11
93.8214
 21
71.2263
  0
LINE
  8
0
 10
93.8214
 20
71.2263
 11
93.8852
 21
71.547
  0
LINE
  8
0
 10
93.8852
 20
71.547
 11
93.9903
 21
71.8567
  0
LINE
  8
0
 10
93.9903
 20
71.8567
 11
94.1349
 21
72.15
  0
LINE
  8
0
 10
94.1349
 20
72.15
 11
94.3166
 21
72.4219
  0
LINE
  8
0
 10
94.3166
 20
72.4219
 11
94.5322
 21
72.6678
  0
LINE
  8
0
 10
94.5322
 20
72.6678
 11
94.7781
 21
72.8834
  0
LINE
  8
0
 10
94.7781
 20
72.8834
 11
95.05
 21
73.0651
  0
LINE
  8
0
 10
95.05
 20
73.0651
 11
95.3433
 21
73.2097
  0
LINE
  8
0
 10
95.3433
 20
73.2097
 11
95.653
 21
73.3148
  0
LINE
  8
0
 10
95.653
 20
73.3148
 11
95.9737
 21
73.3786
  0
LINE
  8
0
 10
95.9737
 20
73.3786
 11
96.3
 21
73.4
  0
LINE
  8
0
 10
96.3
 20
73.4
 11
96.6263
 21
73.3786
  0
LINE
  8
0
 10
96.6263
 20
73.3786
 11
96.947
 21
73.3148
  0
LINE
  8
0
 10
96.947
 20
73.3148
 11
97.2567
 21
73.2097
  0
LINE
  8
0
 10
97.2567
 20
73.2097
 11
97.55
 21
73.0651
  0
LINE
  8
0
 10
97.55
 20
73.0651
 11
97.8219
 21
72.8834
  0
LINE
  8
0
 10
97.8219
 20
72.8834
 11
98.0678
 21
72.6678
  0
LINE
  8
0
 10
98.0678
 20
72.6678
 11
98.2834
 21
72.4219
  0
LINE
  8
0
 10
98.2834
 20
72.4219
 11
98.4651
 21
72.15
  0
LINE
  8
0
 10
98.4651
 20
72.15
 11
98.6097
 21
71.8567
  0
LINE
  8
0
 10
98.6097
 20
71.8567
 11
98.7148
 21
71.547
  0
LINE
  8
0
 10
98.7148
 20
71.547
 11
98.7786
 21
71.2263
  0
LINE
  8
0
 10
98.7786
 20
71.2263
 11
98.8
 21
70.9
  0
LINE
  8
0
 10
98.8
 20
70.9
 11
98.7786
 21
70.5737
  0
LINE
  8
0
 10
98.7786
 20
70.5737
 11
98.7148
 21
70.2529
  0
LINE
  8
0
 10
98.7148
 20
70.2529
 11
98.6097
 21
69.9433
  0
LINE
  8
0
 10
98.6097
 20
69.9433
 11
98.4651
 21
69.65
  0
LINE
  8
0
 10
98.4651
 20
69.65
 11
98.2834
 21
69.3781
  0
LINE
  8
0
 10
98.2834
 20
69.3781
 11
98.0678
 21
69.1322
  0
LINE
  8
0
 10
98.0678
 20
69.1322
 11
97.8219
 21
68.9166
  0
LINE
  8
0
 10
97.8219
 20
68.9166
 11
97.55
 21
68.7349
  0
LINE
  8
0
 10
97.55
 20
68.7349
 11
97.2567
 21
68.5903
  0
LINE
  8
0
 10
97.2567
 20
68.5903
 11
96.947
 21
68.4852
  0
LINE
  8
0
 10
96.947
 20
68.4852
 11
96.6263
 21
68.4214
  0
LINE
  8
0
 10
96.6263
 20
68.4214
 11
96.3
 21
68.4
  0
LINE
  8
0
 10
96.3
 20
68.4
 11
95.9737
 21
68.4214
  0
LINE
  8
0
 10
143.974
 20
68.4214
 11
143.653
 21
68.4852
  0
LINE
  8
0
 10
143.653
 20
68.4852
 11
143.343
 21
68.5903
  0
LINE
  8
0
 10
143.343
 20
68.5903
 11
143.05
 21
68.7349
  0
LINE
  8
0
 10
143.05
 20
68.7349
 11
142.778
 21
68.9166
  0
LINE
  8
0
 10
142.778
 20
68.9166
 11
142.532
 21
69.1322
  0
LINE
  8
0
 10
142.532
 20
69.1322
 11
142.317
 21
69.3781
  0
LINE
  8
0
 10
142.317
 20
69.3781
 11
142.135
 21
69.65
  0
LINE
  8
0
 10
142.135
 20
69.65
 11
141.99
 21
69.9433
  0
LINE
  8
0
 10
141.99
 20
69.9433
 11
141.885
 21
70.2529
  0
LINE
  8
0
 10
141.885
 20
70.2529
 11
141.821
 21
70.5737
  0
LINE
  8
0
 10
141.821
 20
70.5737
 11
141.8
 21
70.9
  0
LINE
  8
0
 10
141.8
 20
70.9
 11
141.821
 21
71.2263
  0
LINE
  8
0
 10
141.821
 20
71.2263
 11
141.885
 21
71.547
  0
LINE
  8
0
 10
141.885
 20
71.547
 11
141.99
 21
71.8567
  0
LINE
  8
0
 10
141.99
 20
71.8567
 11
142.135
 21
72.15
  0
LINE
  8
0
 10
142.135
 20
72.15
 11
142.317
 21
72.4219
  0
LINE
  8
0
 10
142.317
 20
72.4219
 11
142.532
 21
72.6678
  0
LINE
  8
0
 10
142.532
 20
72.6678
 11
142.778
 21
72.8834
  0
LINE
  8
0
 10
142.778
 20
72.8834
 11
143.05
 21
73.0651
  0
LINE
  8
0
 10
143.05
 20
73.0651
 11
143.343
 21
73.2097
  0
LINE
  8
0
 10
143.343
 20
73.2097
 11
143.653
 21
73.3148
  0
LINE
  8
0
 10
143.653
 20
73.3148
 11
143.974
 21
73.3786
  0
LINE
  8
0
 10
143.974
 20
73.3786
 11
144.3
 21
73.4
  0
LINE
  8
0
 10
144.3
 20
73.4
 11
144.626
 21
73.3786
  0
LINE
  8
0
 10
144.626
 20
73.3786
 11
144.947
 21
73.3148
  0
LINE
  8
0
 10
144.947
 20
73.3148
 11
145.257
 21
73.2097
  0
LINE
  8
0
 10
145.257
 20
73.2097
 11
145.55
 21
73.0651
  0
LINE
  8
0
 10
145.55
 20
73.0651
 11
145.822
 21
72.8834
  0
LINE
  8
0
 10
145.822
 20
72.8834
 11
146.068
 21
72.6678
  0
LINE
  8
0
 10
146.068
 20
72.6678
 11
146.283
 21
72.4219
  0
LINE
  8
0
 10
146.283
 20
72.4219
 11
146.465
 21
72.15
  0
LINE
  8
0
 10
146.465
 20
72.15
 11
146.61
 21
71.8567
  0
LINE
  8
0
 10
146.61
 20
71.8567
 11
146.715
 21
71.547
  0
LINE
  8
0
 10
146.715
 20
71.547
 11
146.779
 21
71.2263
  0
LINE
  8
0
 10
146.779
 20
71.2263
 11
146.8
 21
70.9
  0
LINE
  8
0
 10
146.8
 20
70.9
 11
146.779
 21
70.5737
  0
LINE
  8
0
 10
146.779
 20
70.5737
 11
146.715
 21
70.2529
  0
LINE
  8
0
 10
146.715
 20
70.2529
 11
146.61
 21
69.9433
  0
LINE
  8
0
 10
146.61
 20
69.9433
 11
146.465
 21
69.65
  0
LINE
  8
0
 10
146.465
 20
69.65
 11
146.283
 21
69.3781
  0
LINE
  8
0
 10
146.283
 20
69.3781
 11
146.068
 21
69.1322
  0
LINE
  8
0
 10
146.068
 20
69.1322
 11
145.822
 21
68.9166
  0
LINE
  8
0
 10
145.822
 20
68.9166
 11
145.55
 21
68.7349
  0
LINE
  8
0
 10
145.55
 20
68.7349
 11
145.257
 21
68.5903
  0
LINE
  8
0
 10
145.257
 20
68.5903
 11
144.947
 21
68.4852
  0
LINE
  8
0
 10
144.947
 20
68.4852
 11
144.626
 21
68.4214
  0
LINE
  8
0
 10
144.626
 20
68.4214
 11
144.3
 21
68.4
  0
LINE
  8
0
 10
144.3
 20
68.4
 11
143.974
 21
68.4214
  0
LINE
  8
0
 10
85.1238
 20
65.1615
 11
84.9506
 21
65.196
  0
LINE
  8
0
 10
84.9506
 20
65.196
 11
84.7834
 21
65.2528
  0
LINE
  8
0
 10
84.7834
 20
65.2528
 11
84.625
 21
65.3309
  0
LINE
  8
0
 10
84.625
 20
65.3309
 11
84.4782
 21
65.429
  0
LINE
  8
0
 10
84.4782
 20
65.429
 11
84.3454
 21
65.5454
  0
LINE
  8
0
 10
84.3454
 20
65.5454
 11
84.229
 21
65.6782
  0
LINE
  8
0
 10
84.229
 20
65.6782
 11
84.1309
 21
65.825
  0
LINE
  8
0
 10
84.1309
 20
65.825
 11
84.0528
 21
65.9834
  0
LINE
  8
0
 10
84.0528
 20
65.9834
 11
83.996
 21
66.1506
  0
LINE
  8
0
 10
83.996
 20
66.1506
 11
83.9615
 21
66.3238
  0
LINE
  8
0
 10
83.9615
 20
66.3238
 11
83.95
 21
66.5
  0
LINE
  8
0
 10
83.95
 20
66.5
 11
83.9615
 21
66.6762
  0
LINE
  8
0
 10
83.9615
 20
66.6762
 11
83.996
 21
66.8494
  0
LINE
  8
0
 10
83.996
 20
66.8494
 11
84.0528
 21
67.0166
  0
LINE
  8
0
 10
84.0528
 20
67.0166
 11
84.1309
 21
67.175
  0
LINE
  8
0
 10
84.1309
 20
67.175
 11
84.229
 21
67.3218
  0
LINE
  8
0
 10
84.229
 20
67.3218
 11
84.3454
 21
67.4546
  0
LINE
  8
0
 10
84.3454
 20
67.4546
 11
84.4782
 21
67.571
  0
LINE
  8
0
 10
84.4782
 20
67.571
 11
84.625
 21
67.6691
  0
LINE
  8
0
 10
84.625
 20
67.6691
 11
84.7834
 21
67.7472
  0
LINE
  8
0
 10
84.7834
 20
67.7472
 11
84.9506
 21
67.804
  0
LINE
  8
0
 10
84.9506
 20
67.804
 11
85.1238
 21
67.8384
  0
LINE
  8
0
 10
85.1238
 20
67.8384
 11
85.3
 21
67.85
  0
LINE
  8
0
 10
85.3
 20
67.85
 11
85.4762
 21
67.8384
  0
LINE
  8
0
 10
85.4762
 20
67.8384
 11
85.6494
 21
67.804
  0
LINE
  8
0
 10
85.6494
 20
67.804
 11
85.8166
 21
67.7472
  0
LINE
  8
0
 10
85.8166
 20
67.7472
 11
85.975
 21
67.6691
  0
LINE
  8
0
 10
85.975
 20
67.6691
 11
86.1218
 21
67.571
  0
LINE
  8
0
 10
86.1218
 20
67.571
 11
86.2546
 21
67.4546
  0
LINE
  8
0
 10
86.2546
 20
67.4546
 11
86.371
 21
67.3218
  0
LINE
  8
0
 10
86.371
 20
67.3218
 11
86.4691
 21
67.175
  0
LINE
  8
0
 10
86.4691
 20
67.175
 11
86.5472
 21
67.0166
  0
LINE
  8
0
 10
86.5472
 20
67.0166
 11
86.604
 21
66.8494
  0
LINE
  8
0
 10
86.604
 20
66.8494
 11
86.6384
 21
66.6762
  0
LINE
  8
0
 10
86.6384
 20
66.6762
 11
86.65
 21
66.5
  0
LINE
  8
0
 10
86.65
 20
66.5
 11
86.6384
 21
66.3238
  0
LINE
  8
0
 10
86.6384
 20
66.3238
 11
86.604
 21
66.1506
  0
LINE
  8
0
 10
86.604
 20
66.1506
 11
86.5472
 21
65.9834
  0
LINE
  8
0
 10
86.5472
 20
65.9834
 11
86.4691
 21
65.825
  0
LINE
  8
0
 10
86.4691
 20
65.825
 11
86.371
 21
65.6782
  0
LINE
  8
0
 10
86.371
 20
65.6782
 11
86.2546
 21
65.5454
  0
LINE
  8
0
 10
86.2546
 20
65.5454
 11
86.1218
 21
65.429
  0
LINE
  8
0
 10
86.1218
 20
65.429
 11
85.975
 21
65.3309
  0
LINE
  8
0
 10
85.975
 20
65.3309
 11
85.8166
 21
65.2528
  0
LINE
  8
0
 10
85.8166
 20
65.2528
 11
85.6494
 21
65.196
  0
LINE
  8
0
 10
85.6494
 20
65.196
 11
85.4762
 21
65.1615
  0
LINE
  8
0
 10
85.4762
 20
65.1615
 11
85.3
 21
65.15
  0
LINE
  8
0
 10
85.3
 20
65.15
 11
85.1238
 21
65.1615
  0
LINE
  8
0
 10
143.124
 20
65.1615
 11
142.951
 21
65.196
  0
LINE
  8
0
 10
142.951
 20
65.196
 11
142.783
 21
65.2528
  0
LINE
  8
0
 10
142.783
 20
65.2528
 11
142.625
 21
65.3309
  0
LINE
  8
0
 10
142.625
 20
65.3309
 11
142.478
 21
65.429
  0
LINE
  8
0
 10
142.478
 20
65.429
 11
142.345
 21
65.5454
  0
LINE
  8
0
 10
142.345
 20
65.5454
 11
142.229
 21
65.6782
  0
LINE
  8
0
 10
142.229
 20
65.6782
 11
142.131
 21
65.825
  0
LINE
  8
0
 10
142.131
 20
65.825
 11
142.053
 21
65.9834
  0
LINE
  8
0
 10
142.053
 20
65.9834
 11
141.996
 21
66.1506
  0
LINE
  8
0
 10
141.996
 20
66.1506
 11
141.962
 21
66.3238
  0
LINE
  8
0
 10
141.962
 20
66.3238
 11
141.95
 21
66.5
  0
LINE
  8
0
 10
141.95
 20
66.5
 11
141.962
 21
66.6762
  0
LINE
  8
0
 10
141.962
 20
66.6762
 11
141.996
 21
66.8494
  0
LINE
  8
0
 10
141.996
 20
66.8494
 11
142.053
 21
67.0166
  0
LINE
  8
0
 10
142.053
 20
67.0166
 11
142.131
 21
67.175
  0
LINE
  8
0
 10
142.131
 20
67.175
 11
142.229
 21
67.3218
  0
LINE
  8
0
 10
142.229
 20
67.3218
 11
142.345
 21
67.4546
  0
LINE
  8
0
 10
142.345
 20
67.4546
 11
142.478
 21
67.571
  0
LINE
  8
0
 10
142.478
 20
67.571
 11
142.625
 21
67.6691
  0
LINE
  8
0
 10
142.625
 20
67.6691
 11
142.783
 21
67.7472
  0
LINE
  8
0
 10
142.783
 20
67.7472
 11
142.951
 21
67.804
  0
LINE
  8
0
 10
142.951
 20
67.804
 11
143.124
 21
67.8384
  0
LINE
  8
0
 10
143.124
 20
67.8384
 11
143.3
 21
67.85
  0
LINE
  8
0
 10
143.3
 20
67.85
 11
143.476
 21
67.8384
  0
LINE
  8
0
 10
143.476
 20
67.8384
 11
143.649
 21
67.804
  0
LINE
  8
0
 10
143.649
 20
67.804
 11
143.817
 21
67.7472
  0
LINE
  8
0
 10
143.817
 20
67.7472
 11
143.975
 21
67.6691
  0
LINE
  8
0
 10
143.975
 20
67.6691
 11
144.122
 21
67.571
  0
LINE
  8
0
 10
144.122
 20
67.571
 11
144.255
 21
67.4546
  0
LINE
  8
0
 10
144.255
 20
67.4546
 11
144.371
 21
67.3218
  0
LINE
  8
0
 10
144.371
 20
67.3218
 11
144.469
 21
67.175
  0
LINE
  8
0
 10
144.469
 20
67.175
 11
144.547
 21
67.0166
  0
LINE
  8
0
 10
144.547
 20
67.0166
 11
144.604
 21
66.8494
  0
LINE
  8
0
 10
144.604
 20
66.8494
 11
144.638
 21
66.6762
  0
LINE
  8
0
 10
144.638
 20
66.6762
 11
144.65
 21
66.5
  0
LINE
  8
0
 10
144.65
 20
66.5
 11
144.638
 21
66.3238
  0
LINE
  8
0
 10
144.638
 20
66.3238
 11
144.604
 21
66.1506
  0
LINE
  8
0
 10
144.604
 20
66.1506
 11
144.547
 21
65.9834
  0
LINE
  8
0
 10
144.547
 20
65.9834
 11
144.469
 21
65.825
  0
LINE
  8
0
 10
144.469
 20
65.825
 11
144.371
 21
65.6782
  0
LINE
  8
0
 10
144.371
 20
65.6782
 11
144.255
 21
65.5454
  0
LINE
  8
0
 10
144.255
 20
65.5454
 11
144.122
 21
65.429
  0
LINE
  8
0
 10
144.122
 20
65.429
 11
143.975
 21
65.3309
  0
LINE
  8
0
 10
143.975
 20
65.3309
 11
143.817
 21
65.2528
  0
LINE
  8
0
 10
143.817
 20
65.2528
 11
143.649
 21
65.196
  0
LINE
  8
0
 10
143.649
 20
65.196
 11
143.476
 21
65.1615
  0
LINE
  8
0
 10
143.476
 20
65.1615
 11
143.3
 21
65.15
  0
LINE
  8
0
 10
143.3
 20
65.15
 11
143.124
 21
65.1615
  0
LINE
  8
0
 10
143.124
 20
16.1615
 11
142.951
 21
16.196
  0
LINE
  8
0
 10
142.951
 20
16.196
 11
142.783
 21
16.2528
  0
LINE
  8
0
 10
142.783
 20
16.2528
 11
142.625
 21
16.3309
  0
LINE
  8
0
 10
142.625
 20
16.3309
 11
142.478
 21
16.429
  0
LINE
  8
0
 10
142.478
 20
16.429
 11
142.345
 21
16.5454
  0
LINE
  8
0
 10
142.345
 20
16.5454
 11
142.229
 21
16.6782
  0
LINE
  8
0
 10
142.229
 20
16.6782
 11
142.131
 21
16.825
  0
LINE
  8
0
 10
142.131
 20
16.825
 11
142.053
 21
16.9834
  0
LINE
  8
0
 10
142.053
 20
16.9834
 11
141.996
 21
17.1506
  0
LINE
  8
0
 10
141.996
 20
17.1506
 11
141.962
 21
17.3238
  0
LINE
  8
0
 10
141.962
 20
17.3238
 11
141.95
 21
17.5
  0
LINE
  8
0
 10
141.95
 20
17.5
 11
141.962
 21
17.6762
  0
LINE
  8
0
 10
141.962
 20
17.6762
 11
141.996
 21
17.8494
  0
LINE
  8
0
 10
141.996
 20
17.8494
 11
142.053
 21
18.0166
  0
LINE
  8
0
 10
142.053
 20
18.0166
 11
142.131
 21
18.175
  0
LINE
  8
0
 10
142.131
 20
18.175
 11
142.229
 21
18.3218
  0
LINE
  8
0
 10
142.229
 20
18.3218
 11
142.345
 21
18.4546
  0
LINE
  8
0
 10
142.345
 20
18.4546
 11
142.478
 21
18.571
  0
LINE
  8
0
 10
142.478
 20
18.571
 11
142.625
 21
18.6691
  0
LINE
  8
0
 10
142.625
 20
18.6691
 11
142.783
 21
18.7472
  0
LINE
  8
0
 10
142.783
 20
18.7472
 11
142.951
 21
18.804
  0
LINE
  8
0
 10
142.951
 20
18.804
 11
143.124
 21
18.8384
  0
LINE
  8
0
 10
143.124
 20
18.8384
 11
143.3
 21
18.85
  0
LINE
  8
0
 10
143.3
 20
18.85
 11
143.476
 21
18.8384
  0
LINE
  8
0
 10
143.476
 20
18.8384
 11
143.649
 21
18.804
  0
LINE
  8
0
 10
143.649
 20
18.804
 11
143.817
 21
18.7472
  0
LINE
  8
0
 10
143.817
 20
18.7472
 11
143.975
 21
18.6691
  0
LINE
  8
0
 10
143.975
 20
18.6691
 11
144.122
 21
18.571
  0
LINE
  8
0
 10
144.122
 20
18.571
 11
144.255
 21
18.4546
  0
LINE
  8
0
 10
144.255
 20
18.4546
 11
144.371
 21
18.3218
  0
LINE
  8
0
 10
144.371
 20
18.3218
 11
144.469
 21
18.175
  0
LINE
  8
0
 10
144.469
 20
18.175
 11
144.547
 21
18.0166
  0
LINE
  8
0
 10
144.547
 20
18.0166
 11
144.604
 21
17.8494
  0
LINE
  8
0
 10
144.604
 20
17.8494
 11
144.638
 21
17.6762
  0
LINE
  8
0
 10
144.638
 20
17.6762
 11
144.65
 21
17.5
  0
LINE
  8
0
 10
144.65
 20
17.5
 11
144.638
 21
17.3238
  0
LINE
  8
0
 10
144.638
 20
17.3238
 11
144.604
 21
17.1506
  0
LINE
  8
0
 10
144.604
 20
17.1506
 11
144.547
 21
16.9834
  0
LINE
  8
0
 10
144.547
 20
16.9834
 11
144.469
 21
16.825
  0
LINE
  8
0
 10
144.469
 20
16.825
 11
144.371
 21
16.6782
  0
LINE
  8
0
 10
144.371
 20
16.6782
 11
144.255
 21
16.5454
  0
LINE
  8
0
 10
144.255
 20
16.5454
 11
144.122
 21
16.429
  0
LINE
  8
0
 10
144.122
 20
16.429
 11
143.975
 21
16.3309
  0
LINE
  8
0
 10
143.975
 20
16.3309
 11
143.817
 21
16.2528
  0
LINE
  8
0
 10
143.817
 20
16.2528
 11
143.649
 21
16.196
  0
LINE
  8
0
 10
143.649
 20
16.196
 11
143.476
 21
16.1615
  0
LINE
  8
0
 10
143.476
 20
16.1615
 11
143.3
 21
16.15
  0
LINE
  8
0
 10
143.3
 20
16.15
 11
143.124
 21
16.1615
  0
LINE
  8
0
 10
85.1238
 20
16.1615
 11
84.9506
 21
16.196
  0
LINE
  8
0
 10
84.9506
 20
16.196
 11
84.7834
 21
16.2528
  0
LINE
  8
0
 10
84.7834
 20
16.2528
 11
84.625
 21
16.3309
  0
LINE
  8
0
 10
84.625
 20
16.3309
 11
84.4782
 21
16.429
  0
LINE
  8
0
 10
84.4782
 20
16.429
 11
84.3454
 21
16.5454
  0
LINE
  8
0
 10
84.3454
 20
16.5454
 11
84.229
 21
16.6782
  0
LINE
  8
0
 10
84.229
 20
16.6782
 11
84.1309
 21
16.825
  0
LINE
  8
0
 10
84.1309
 20
16.825
 11
84.0528
 21
16.9834
  0
LINE
  8
0
 10
84.0528
 20
16.9834
 11
83.996
 21
17.1506
  0
LINE
  8
0
 10
83.996
 20
17.1506
 11
83.9615
 21
17.3238
  0
LINE
  8
0
 10
83.9615
 20
17.3238
 11
83.95
 21
17.5
  0
LINE
  8
0
 10
83.95
 20
17.5
 11
83.9615
 21
17.6762
  0
LINE
  8
0
 10
83.9615
 20
17.6762
 11
83.996
 21
17.8494
  0
LINE
  8
0
 10
83.996
 20
17.8494
 11
84.0528
 21
18.0166
  0
LINE
  8
0
 10
84.0528
 20
18.0166
 11
84.1309
 21
18.175
  0
LINE
  8
0
 10
84.1309
 20
18.175
 11
84.229
 21
18.3218
  0
LINE
  8
0
 10
84.229
 20
18.3218
 11
84.3454
 21
18.4546
  0
LINE
  8
0
 10
84.3454
 20
18.4546
 11
84.4782
 21
18.571
  0
LINE
  8
0
 10
84.4782
 20
18.571
 11
84.625
 21
18.6691
  0
LINE
  8
0
 10
84.625
 20
18.6691
 11
84.7834
 21
18.7472
  0
LINE
  8
0
 10
84.7834
 20
18.7472
 11
84.9506
 21
18.804
  0
LINE
  8
0
 10
84.9506
 20
18.804
 11
85.1238
 21
18.8384
  0
LINE
  8
0
 10
85.1238
 20
18.8384
 11
85.3
 21
18.85
  0
LINE
  8
0
 10
85.3
 20
18.85
 11
85.4762
 21
18.8384
  0
LINE
  8
0
 10
85.4762
 20
18.8384
 11
85.6494
 21
18.804
  0
LINE
  8
0
 10
85.6494
 20
18.804
 11
85.8166
 21
18.7472
  0
LINE
  8
0
 10
85.8166
 20
18.7472
 11
85.975
 21
18.6691
  0
LINE
  8
0
 10
85.975
 20
18.6691
 11
86.1218
 21
18.571
  0
LINE
  8
0
 10
86.1218
 20
18.571
 11
86.2546
 21
18.4546
  0
LINE
  8
0
 10
86.2546
 20
18.4546
 11
86.371
 21
18.3218
  0
LINE
  8
0
 10
86.371
 20
18.3218
 11
86.4691
 21
18.175
  0
LINE
  8
0
 10
86.4691
 20
18.175
 11
86.5472
 21
18.0166
  0
LINE
  8
0
 10
86.5472
 20
18.0166
 11
86.604
 21
17.8494
  0
LINE
  8
0
 10
86.604
 20
17.8494
 11
86.6384
 21
17.6762
  0
LINE
  8
0
 10
86.6384
 20
17.6762
 11
86.65
 21
17.5
  0
LINE
  8
0
 10
86.65
 20
17.5
 11
86.6384
 21
17.3238
  0
LINE
  8
0
 10
86.6384
 20
17.3238
 11
86.604
 21
17.1506
  0
LINE
  8
0
 10
86.604
 20
17.1506
 11
86.5472
 21
16.9834
  0
LINE
  8
0
 10
86.5472
 20
16.9834
 11
86.4691
 21
16.825
  0
LINE
  8
0
 10
86.4691
 20
16.825
 11
86.371
 21
16.6782
  0
LINE
  8
0
 10
86.371
 20
16.6782
 11
86.2546
 21
16.5454
  0
LINE
  8
0
 10
86.2546
 20
16.5454
 11
86.1218
 21
16.429
  0
LINE
  8
0
 10
86.1218
 20
16.429
 11
85.975
 21
16.3309
  0
LINE
  8
0
 10
85.975
 20
16.3309
 11
85.8166
 21
16.2528
  0
LINE
  8
0
 10
85.8166
 20
16.2528
 11
85.6494
 21
16.196
  0
LINE
  8
0
 10
85.6494
 20
16.196
 11
85.4762
 21
16.1615
  0
LINE
  8
0
 10
85.4762
 20
16.1615
 11
85.3
 21
16.15
  0
LINE
  8
0
 10
85.3
 20
16.15
 11
85.1238
 21
16.1615
  0
ENDSEC
  0
SECTION
  2
OBJECTS
  0
DICTIONARY
  0
ENDSEC
  0
EOF
