  0
SECTION
  2
BLOCKS
  0
ENDSEC
  0
SECTION
  2
ENTITIES
  0
LINE
  8
0
 10
0
 20
0
 11
228.6
 21
0
  0
LINE
  8
0
 10
228.6
 20
0
 11
228.6
 21
177.8
  0
LINE
  8
0
 10
228.6
 20
177.8
 11
0
 21
177.8
  0
LINE
  8
0
 10
0
 20
177.8
 11
0
 21
0
  0
LINE
  8
0
 10
11.3
 20
13
 11
11.3145
 21
13.2219
  0
LINE
  8
0
 10
11.3145
 20
13.2219
 11
11.3579
 21
13.44
  0
LINE
  8
0
 10
11.3579
 20
13.44
 11
11.4294
 21
13.6506
  0
LINE
  8
0
 10
11.4294
 20
13.6506
 11
11.5278
 21
13.85
  0
LINE
  8
0
 10
11.5278
 20
13.85
 11
11.6513
 21
14.0349
  0
LINE
  8
0
 10
11.6513
 20
14.0349
 11
11.7979
 21
14.2021
  0
LINE
  8
0
 10
11.7979
 20
14.2021
 11
11.9651
 21
14.3487
  0
LINE
  8
0
 10
11.9651
 20
14.3487
 11
12.15
 21
14.4722
  0
LINE
  8
0
 10
12.15
 20
14.4722
 11
12.3494
 21
14.5706
  0
LINE
  8
0
 10
12.3494
 20
14.5706
 11
12.56
 21
14.6421
  0
LINE
  8
0
 10
12.56
 20
14.6421
 11
12.7781
 21
14.6855
  0
LINE
  8
0
 10
12.7781
 20
14.6855
 11
13
 21
14.7
  0
LINE
  8
0
 10
13
 20
14.7
 11
13.2219
 21
14.6855
  0
LINE
  8
0
 10
13.2219
 20
14.6855
 11
13.44
 21
14.6421
  0
LINE
  8
0
 10
13.44
 20
14.6421
 11
13.6506
 21
14.5706
  0
LINE
  8
0
 10
13.6506
 20
14.5706
 11
13.85
 21
14.4722
  0
LINE
  8
0
 10
13.85
 20
14.4722
 11
14.0349
 21
14.3487
  0
LINE
  8
0
 10
14.0349
 20
14.3487
 11
14.2021
 21
14.2021
  0
LINE
  8
0
 10
14.2021
 20
14.2021
 11
14.3487
 21
14.0349
  0
LINE
  8
0
 10
14.3487
 20
14.0349
 11
14.4722
 21
13.85
  0
LINE
  8
0
 10
14.4722
 20
13.85
 11
14.5706
 21
13.6506
  0
LINE
  8
0
 10
14.5706
 20
13.6506
 11
14.6421
 21
13.44
  0
LINE
  8
0
 10
14.6421
 20
13.44
 11
14.6855
 21
13.2219
  0
LINE
  8
0
 10
14.6855
 20
13.2219
 11
14.7
 21
13
  0
LINE
  8
0
 10
14.7
 20
13
 11
14.6855
 21
12.7781
  0
LINE
  8
0
 10
14.6855
 20
12.7781
 11
14.6421
 21
12.56
  0
LINE
  8
0
 10
14.6421
 20
12.56
 11
14.5706
 21
12.3494
  0
LINE
  8
0
 10
14.5706
 20
12.3494
 11
14.4722
 21
12.15
  0
LINE
  8
0
 10
14.4722
 20
12.15
 11
14.3487
 21
11.9651
  0
LINE
  8
0
 10
14.3487
 20
11.9651
 11
14.2021
 21
11.7979
  0
LINE
  8
0
 10
14.2021
 20
11.7979
 11
14.0349
 21
11.6513
  0
LINE
  8
0
 10
14.0349
 20
11.6513
 11
13.85
 21
11.5278
  0
LINE
  8
0
 10
13.85
 20
11.5278
 11
13.6506
 21
11.4294
  0
LINE
  8
0
 10
13.6506
 20
11.4294
 11
13.44
 21
11.3579
  0
LINE
  8
0
 10
13.44
 20
11.3579
 11
13.2219
 21
11.3145
  0
LINE
  8
0
 10
13.2219
 20
11.3145
 11
13
 21
11.3
  0
LINE
  8
0
 10
13
 20
11.3
 11
12.7781
 21
11.3145
  0
LINE
  8
0
 10
12.7781
 20
11.3145
 11
12.56
 21
11.3579
  0
LINE
  8
0
 10
12.56
 20
11.3579
 11
12.3494
 21
11.4294
  0
LINE
  8
0
 10
12.3494
 20
11.4294
 11
12.15
 21
11.5278
  0
LINE
  8
0
 10
12.15
 20
11.5278
 11
11.9651
 21
11.6513
  0
LINE
  8
0
 10
11.9651
 20
11.6513
 11
11.7979
 21
11.7979
  0
LINE
  8
0
 10
11.7979
 20
11.7979
 11
11.6513
 21
11.9651
  0
LINE
  8
0
 10
11.6513
 20
11.9651
 11
11.5278
 21
12.15
  0
LINE
  8
0
 10
11.5278
 20
12.15
 11
11.4294
 21
12.3494
  0
LINE
  8
0
 10
11.4294
 20
12.3494
 11
11.3579
 21
12.56
  0
LINE
  8
0
 10
11.3579
 20
12.56
 11
11.3145
 21
12.7781
  0
LINE
  8
0
 10
11.3145
 20
12.7781
 11
11.3
 21
13
  0
LINE
  8
0
 10
11.3
 20
164.8
 11
11.3145
 21
165.022
  0
LINE
  8
0
 10
11.3145
 20
165.022
 11
11.3579
 21
165.24
  0
LINE
  8
0
 10
11.3579
 20
165.24
 11
11.4294
 21
165.451
  0
LINE
  8
0
 10
11.4294
 20
165.451
 11
11.5278
 21
165.65
  0
LINE
  8
0
 10
11.5278
 20
165.65
 11
11.6513
 21
165.835
  0
LINE
  8
0
 10
11.6513
 20
165.835
 11
11.7979
 21
166.002
  0
LINE
  8
0
 10
11.7979
 20
166.002
 11
11.9651
 21
166.149
  0
LINE
  8
0
 10
11.9651
 20
166.149
 11
12.15
 21
166.272
  0
LINE
  8
0
 10
12.15
 20
166.272
 11
12.3494
 21
166.371
  0
LINE
  8
0
 10
12.3494
 20
166.371
 11
12.56
 21
166.442
  0
LINE
  8
0
 10
12.56
 20
166.442
 11
12.7781
 21
166.485
  0
LINE
  8
0
 10
12.7781
 20
166.485
 11
13
 21
166.5
  0
LINE
  8
0
 10
13
 20
166.5
 11
13.2219
 21
166.485
  0
LINE
  8
0
 10
13.2219
 20
166.485
 11
13.44
 21
166.442
  0
LINE
  8
0
 10
13.44
 20
166.442
 11
13.6506
 21
166.371
  0
LINE
  8
0
 10
13.6506
 20
166.371
 11
13.85
 21
166.272
  0
LINE
  8
0
 10
13.85
 20
166.272
 11
14.0349
 21
166.149
  0
LINE
  8
0
 10
14.0349
 20
166.149
 11
14.2021
 21
166.002
  0
LINE
  8
0
 10
14.2021
 20
166.002
 11
14.3487
 21
165.835
  0
LINE
  8
0
 10
14.3487
 20
165.835
 11
14.4722
 21
165.65
  0
LINE
  8
0
 10
14.4722
 20
165.65
 11
14.5706
 21
165.451
  0
LINE
  8
0
 10
14.5706
 20
165.451
 11
14.6421
 21
165.24
  0
LINE
  8
0
 10
14.6421
 20
165.24
 11
14.6855
 21
165.022
  0
LINE
  8
0
 10
14.6855
 20
165.022
 11
14.7
 21
164.8
  0
LINE
  8
0
 10
14.7
 20
164.8
 11
14.6855
 21
164.578
  0
LINE
  8
0
 10
14.6855
 20
164.578
 11
14.6421
 21
164.36
  0
LINE
  8
0
 10
14.6421
 20
164.36
 11
14.5706
 21
164.149
  0
LINE
  8
0
 10
14.5706
 20
164.149
 11
14.4722
 21
163.95
  0
LINE
  8
0
 10
14.4722
 20
163.95
 11
14.3487
 21
163.765
  0
LINE
  8
0
 10
14.3487
 20
163.765
 11
14.2021
 21
163.598
  0
LINE
  8
0
 10
14.2021
 20
163.598
 11
14.0349
 21
163.451
  0
LINE
  8
0
 10
14.0349
 20
163.451
 11
13.85
 21
163.328
  0
LINE
  8
0
 10
13.85
 20
163.328
 11
13.6506
 21
163.229
  0
LINE
  8
0
 10
13.6506
 20
163.229
 11
13.44
 21
163.158
  0
LINE
  8
0
 10
13.44
 20
163.158
 11
13.2219
 21
163.115
  0
LINE
  8
0
 10
13.2219
 20
163.115
 11
13
 21
163.1
  0
LINE
  8
0
 10
13
 20
163.1
 11
12.7781
 21
163.115
  0
LINE
  8
0
 10
12.7781
 20
163.115
 11
12.56
 21
163.158
  0
LINE
  8
0
 10
12.56
 20
163.158
 11
12.3494
 21
163.229
  0
LINE
  8
0
 10
12.3494
 20
163.229
 11
12.15
 21
163.328
  0
LINE
  8
0
 10
12.15
 20
163.328
 11
11.9651
 21
163.451
  0
LINE
  8
0
 10
11.9651
 20
163.451
 11
11.7979
 21
163.598
  0
LINE
  8
0
 10
11.7979
 20
163.598
 11
11.6513
 21
163.765
  0
LINE
  8
0
 10
11.6513
 20
163.765
 11
11.5278
 21
163.95
  0
LINE
  8
0
 10
11.5278
 20
163.95
 11
11.4294
 21
164.149
  0
LINE
  8
0
 10
11.4294
 20
164.149
 11
11.3579
 21
164.36
  0
LINE
  8
0
 10
11.3579
 20
164.36
 11
11.3145
 21
164.578
  0
LINE
  8
0
 10
11.3145
 20
164.578
 11
11.3
 21
164.8
  0
LINE
  8
0
 10
38.1
 20
32.4
 11
38.1145
 21
32.6219
  0
LINE
  8
0
 10
38.1145
 20
32.6219
 11
38.1579
 21
32.84
  0
LINE
  8
0
 10
38.1579
 20
32.84
 11
38.2294
 21
33.0506
  0
LINE
  8
0
 10
38.2294
 20
33.0506
 11
38.3278
 21
33.25
  0
LINE
  8
0
 10
38.3278
 20
33.25
 11
38.4513
 21
33.4349
  0
LINE
  8
0
 10
38.4513
 20
33.4349
 11
38.5979
 21
33.6021
  0
LINE
  8
0
 10
38.5979
 20
33.6021
 11
38.7651
 21
33.7487
  0
LINE
  8
0
 10
38.7651
 20
33.7487
 11
38.95
 21
33.8722
  0
LINE
  8
0
 10
38.95
 20
33.8722
 11
39.1494
 21
33.9706
  0
LINE
  8
0
 10
39.1494
 20
33.9706
 11
39.36
 21
34.0421
  0
LINE
  8
0
 10
39.36
 20
34.0421
 11
39.5781
 21
34.0855
  0
LINE
  8
0
 10
39.5781
 20
34.0855
 11
39.8
 21
34.1
  0
LINE
  8
0
 10
39.8
 20
34.1
 11
40.0219
 21
34.0855
  0
LINE
  8
0
 10
40.0219
 20
34.0855
 11
40.24
 21
34.0421
  0
LINE
  8
0
 10
40.24
 20
34.0421
 11
40.4506
 21
33.9706
  0
LINE
  8
0
 10
40.4506
 20
33.9706
 11
40.65
 21
33.8722
  0
LINE
  8
0
 10
40.65
 20
33.8722
 11
40.8349
 21
33.7487
  0
LINE
  8
0
 10
40.8349
 20
33.7487
 11
41.0021
 21
33.6021
  0
LINE
  8
0
 10
41.0021
 20
33.6021
 11
41.1487
 21
33.4349
  0
LINE
  8
0
 10
41.1487
 20
33.4349
 11
41.2722
 21
33.25
  0
LINE
  8
0
 10
41.2722
 20
33.25
 11
41.3706
 21
33.0506
  0
LINE
  8
0
 10
41.3706
 20
33.0506
 11
41.4421
 21
32.84
  0
LINE
  8
0
 10
41.4421
 20
32.84
 11
41.4855
 21
32.6219
  0
LINE
  8
0
 10
41.4855
 20
32.6219
 11
41.5
 21
32.4
  0
LINE
  8
0
 10
41.5
 20
32.4
 11
41.4855
 21
32.1781
  0
LINE
  8
0
 10
41.4855
 20
32.1781
 11
41.4421
 21
31.96
  0
LINE
  8
0
 10
41.4421
 20
31.96
 11
41.3706
 21
31.7494
  0
LINE
  8
0
 10
41.3706
 20
31.7494
 11
41.2722
 21
31.55
  0
LINE
  8
0
 10
41.2722
 20
31.55
 11
41.1487
 21
31.3651
  0
LINE
  8
0
 10
41.1487
 20
31.3651
 11
41.0021
 21
31.1979
  0
LINE
  8
0
 10
41.0021
 20
31.1979
 11
40.8349
 21
31.0513
  0
LINE
  8
0
 10
40.8349
 20
31.0513
 11
40.65
 21
30.9278
  0
LINE
  8
0
 10
40.65
 20
30.9278
 11
40.4506
 21
30.8294
  0
LINE
  8
0
 10
40.4506
 20
30.8294
 11
40.24
 21
30.7579
  0
LINE
  8
0
 10
40.24
 20
30.7579
 11
40.0219
 21
30.7145
  0
LINE
  8
0
 10
40.0219
 20
30.7145
 11
39.8
 21
30.7
  0
LINE
  8
0
 10
39.8
 20
30.7
 11
39.5781
 21
30.7145
  0
LINE
  8
0
 10
39.5781
 20
30.7145
 11
39.36
 21
30.7579
  0
LINE
  8
0
 10
39.36
 20
30.7579
 11
39.1494
 21
30.8294
  0
LINE
  8
0
 10
39.1494
 20
30.8294
 11
38.95
 21
30.9278
  0
LINE
  8
0
 10
38.95
 20
30.9278
 11
38.7651
 21
31.0513
  0
LINE
  8
0
 10
38.7651
 20
31.0513
 11
38.5979
 21
31.1979
  0
LINE
  8
0
 10
38.5979
 20
31.1979
 11
38.4513
 21
31.3651
  0
LINE
  8
0
 10
38.4513
 20
31.3651
 11
38.3278
 21
31.55
  0
LINE
  8
0
 10
38.3278
 20
31.55
 11
38.2294
 21
31.7494
  0
LINE
  8
0
 10
38.2294
 20
31.7494
 11
38.1579
 21
31.96
  0
LINE
  8
0
 10
38.1579
 20
31.96
 11
38.1145
 21
32.1781
  0
LINE
  8
0
 10
38.1145
 20
32.1781
 11
38.1
 21
32.4
  0
LINE
  8
0
 10
38.1
 20
47.8
 11
38.1
 21
131.7
  0
LINE
  8
0
 10
38.1
 20
131.7
 11
190.3
 21
131.7
  0
LINE
  8
0
 10
190.3
 20
131.7
 11
190.3
 21
47.8
  0
LINE
  8
0
 10
190.3
 20
47.8
 11
38.1
 21
47.8
  0
LINE
  8
0
 10
38.1
 20
145.4
 11
38.1145
 21
145.622
  0
LINE
  8
0
 10
38.1145
 20
145.622
 11
38.1579
 21
145.84
  0
LINE
  8
0
 10
38.1579
 20
145.84
 11
38.2294
 21
146.051
  0
LINE
  8
0
 10
38.2294
 20
146.051
 11
38.3278
 21
146.25
  0
LINE
  8
0
 10
38.3278
 20
146.25
 11
38.4513
 21
146.435
  0
LINE
  8
0
 10
38.4513
 20
146.435
 11
38.5979
 21
146.602
  0
LINE
  8
0
 10
38.5979
 20
146.602
 11
38.7651
 21
146.749
  0
LINE
  8
0
 10
38.7651
 20
146.749
 11
38.95
 21
146.872
  0
LINE
  8
0
 10
38.95
 20
146.872
 11
39.1494
 21
146.971
  0
LINE
  8
0
 10
39.1494
 20
146.971
 11
39.36
 21
147.042
  0
LINE
  8
0
 10
39.36
 20
147.042
 11
39.5781
 21
147.085
  0
LINE
  8
0
 10
39.5781
 20
147.085
 11
39.8
 21
147.1
  0
LINE
  8
0
 10
39.8
 20
147.1
 11
40.0219
 21
147.085
  0
LINE
  8
0
 10
40.0219
 20
147.085
 11
40.24
 21
147.042
  0
LINE
  8
0
 10
40.24
 20
147.042
 11
40.4506
 21
146.971
  0
LINE
  8
0
 10
40.4506
 20
146.971
 11
40.65
 21
146.872
  0
LINE
  8
0
 10
40.65
 20
146.872
 11
40.8349
 21
146.749
  0
LINE
  8
0
 10
40.8349
 20
146.749
 11
41.0021
 21
146.602
  0
LINE
  8
0
 10
41.0021
 20
146.602
 11
41.1487
 21
146.435
  0
LINE
  8
0
 10
41.1487
 20
146.435
 11
41.2722
 21
146.25
  0
LINE
  8
0
 10
41.2722
 20
146.25
 11
41.3706
 21
146.051
  0
LINE
  8
0
 10
41.3706
 20
146.051
 11
41.4421
 21
145.84
  0
LINE
  8
0
 10
41.4421
 20
145.84
 11
41.4855
 21
145.622
  0
LINE
  8
0
 10
41.4855
 20
145.622
 11
41.5
 21
145.4
  0
LINE
  8
0
 10
41.5
 20
145.4
 11
41.4855
 21
145.178
  0
LINE
  8
0
 10
41.4855
 20
145.178
 11
41.4421
 21
144.96
  0
LINE
  8
0
 10
41.4421
 20
144.96
 11
41.3706
 21
144.749
  0
LINE
  8
0
 10
41.3706
 20
144.749
 11
41.2722
 21
144.55
  0
LINE
  8
0
 10
41.2722
 20
144.55
 11
41.1487
 21
144.365
  0
LINE
  8
0
 10
41.1487
 20
144.365
 11
41.0021
 21
144.198
  0
LINE
  8
0
 10
41.0021
 20
144.198
 11
40.8349
 21
144.051
  0
LINE
  8
0
 10
40.8349
 20
144.051
 11
40.65
 21
143.928
  0
LINE
  8
0
 10
40.65
 20
143.928
 11
40.4506
 21
143.829
  0
LINE
  8
0
 10
40.4506
 20
143.829
 11
40.24
 21
143.758
  0
LINE
  8
0
 10
40.24
 20
143.758
 11
40.0219
 21
143.715
  0
LINE
  8
0
 10
40.0219
 20
143.715
 11
39.8
 21
143.7
  0
LINE
  8
0
 10
39.8
 20
143.7
 11
39.5781
 21
143.715
  0
LINE
  8
0
 10
39.5781
 20
143.715
 11
39.36
 21
143.758
  0
LINE
  8
0
 10
39.36
 20
143.758
 11
39.1494
 21
143.829
  0
LINE
  8
0
 10
39.1494
 20
143.829
 11
38.95
 21
143.928
  0
LINE
  8
0
 10
38.95
 20
143.928
 11
38.7651
 21
144.051
  0
LINE
  8
0
 10
38.7651
 20
144.051
 11
38.5979
 21
144.198
  0
LINE
  8
0
 10
38.5979
 20
144.198
 11
38.4513
 21
144.365
  0
LINE
  8
0
 10
38.4513
 20
144.365
 11
38.3278
 21
144.55
  0
LINE
  8
0
 10
38.3278
 20
144.55
 11
38.2294
 21
144.749
  0
LINE
  8
0
 10
38.2294
 20
144.749
 11
38.1579
 21
144.96
  0
LINE
  8
0
 10
38.1579
 20
144.96
 11
38.1145
 21
145.178
  0
LINE
  8
0
 10
38.1145
 20
145.178
 11
38.1
 21
145.4
  0
LINE
  8
0
 10
173.1
 20
15
 11
173.114
 21
15.2088
  0
LINE
  8
0
 10
173.114
 20
15.2088
 11
173.155
 21
15.4141
  0
LINE
  8
0
 10
173.155
 20
15.4141
 11
173.222
 21
15.6123
  0
LINE
  8
0
 10
173.222
 20
15.6123
 11
173.314
 21
15.8
  0
LINE
  8
0
 10
173.314
 20
15.8
 11
173.431
 21
15.974
  0
LINE
  8
0
 10
173.431
 20
15.974
 11
173.569
 21
16.1314
  0
LINE
  8
0
 10
173.569
 20
16.1314
 11
173.726
 21
16.2694
  0
LINE
  8
0
 10
173.726
 20
16.2694
 11
173.9
 21
16.3856
  0
LINE
  8
0
 10
173.9
 20
16.3856
 11
174.088
 21
16.4782
  0
LINE
  8
0
 10
174.088
 20
16.4782
 11
174.286
 21
16.5455
  0
LINE
  8
0
 10
174.286
 20
16.5455
 11
174.491
 21
16.5863
  0
LINE
  8
0
 10
174.491
 20
16.5863
 11
174.7
 21
16.6
  0
LINE
  8
0
 10
174.7
 20
16.6
 11
174.909
 21
16.5863
  0
LINE
  8
0
 10
174.909
 20
16.5863
 11
175.114
 21
16.5455
  0
LINE
  8
0
 10
175.114
 20
16.5455
 11
175.312
 21
16.4782
  0
LINE
  8
0
 10
175.312
 20
16.4782
 11
175.5
 21
16.3856
  0
LINE
  8
0
 10
175.5
 20
16.3856
 11
175.674
 21
16.2694
  0
LINE
  8
0
 10
175.674
 20
16.2694
 11
175.831
 21
16.1314
  0
LINE
  8
0
 10
175.831
 20
16.1314
 11
175.969
 21
15.974
  0
LINE
  8
0
 10
175.969
 20
15.974
 11
176.086
 21
15.8
  0
LINE
  8
0
 10
176.086
 20
15.8
 11
176.178
 21
15.6123
  0
LINE
  8
0
 10
176.178
 20
15.6123
 11
176.245
 21
15.4141
  0
LINE
  8
0
 10
176.245
 20
15.4141
 11
176.286
 21
15.2088
  0
LINE
  8
0
 10
176.286
 20
15.2088
 11
176.3
 21
15
  0
LINE
  8
0
 10
176.3
 20
15
 11
176.286
 21
14.7912
  0
LINE
  8
0
 10
176.286
 20
14.7912
 11
176.245
 21
14.5859
  0
LINE
  8
0
 10
176.245
 20
14.5859
 11
176.178
 21
14.3877
  0
LINE
  8
0
 10
176.178
 20
14.3877
 11
176.086
 21
14.2
  0
LINE
  8
0
 10
176.086
 20
14.2
 11
175.969
 21
14.026
  0
LINE
  8
0
 10
175.969
 20
14.026
 11
175.831
 21
13.8686
  0
LINE
  8
0
 10
175.831
 20
13.8686
 11
175.674
 21
13.7306
  0
LINE
  8
0
 10
175.674
 20
13.7306
 11
175.5
 21
13.6144
  0
LINE
  8
0
 10
175.5
 20
13.6144
 11
175.312
 21
13.5218
  0
LINE
  8
0
 10
175.312
 20
13.5218
 11
175.114
 21
13.4545
  0
LINE
  8
0
 10
175.114
 20
13.4545
 11
174.909
 21
13.4137
  0
LINE
  8
0
 10
174.909
 20
13.4137
 11
174.7
 21
13.4
  0
LINE
  8
0
 10
174.7
 20
13.4
 11
174.491
 21
13.4137
  0
LINE
  8
0
 10
174.491
 20
13.4137
 11
174.286
 21
13.4545
  0
LINE
  8
0
 10
174.286
 20
13.4545
 11
174.088
 21
13.5218
  0
LINE
  8
0
 10
174.088
 20
13.5218
 11
173.9
 21
13.6144
  0
LINE
  8
0
 10
173.9
 20
13.6144
 11
173.726
 21
13.7306
  0
LINE
  8
0
 10
173.726
 20
13.7306
 11
173.569
 21
13.8686
  0
LINE
  8
0
 10
173.569
 20
13.8686
 11
173.431
 21
14.026
  0
LINE
  8
0
 10
173.431
 20
14.026
 11
173.314
 21
14.2
  0
LINE
  8
0
 10
173.314
 20
14.2
 11
173.222
 21
14.3877
  0
LINE
  8
0
 10
173.222
 20
14.3877
 11
173.155
 21
14.5859
  0
LINE
  8
0
 10
173.155
 20
14.5859
 11
173.114
 21
14.7912
  0
LINE
  8
0
 10
173.114
 20
14.7912
 11
173.1
 21
15
  0
LINE
  8
0
 10
187.1
 20
15
 11
187.114
 21
15.2088
  0
LINE
  8
0
 10
187.114
 20
15.2088
 11
187.155
 21
15.4141
  0
LINE
  8
0
 10
187.155
 20
15.4141
 11
187.222
 21
15.6123
  0
LINE
  8
0
 10
187.222
 20
15.6123
 11
187.314
 21
15.8
  0
LINE
  8
0
 10
187.314
 20
15.8
 11
187.431
 21
15.974
  0
LINE
  8
0
 10
187.431
 20
15.974
 11
187.569
 21
16.1314
  0
LINE
  8
0
 10
187.569
 20
16.1314
 11
187.726
 21
16.2694
  0
LINE
  8
0
 10
187.726
 20
16.2694
 11
187.9
 21
16.3856
  0
LINE
  8
0
 10
187.9
 20
16.3856
 11
188.088
 21
16.4782
  0
LINE
  8
0
 10
188.088
 20
16.4782
 11
188.286
 21
16.5455
  0
LINE
  8
0
 10
188.286
 20
16.5455
 11
188.491
 21
16.5863
  0
LINE
  8
0
 10
188.491
 20
16.5863
 11
188.7
 21
16.6
  0
LINE
  8
0
 10
188.7
 20
16.6
 11
188.909
 21
16.5863
  0
LINE
  8
0
 10
188.909
 20
16.5863
 11
189.114
 21
16.5455
  0
LINE
  8
0
 10
189.114
 20
16.5455
 11
189.312
 21
16.4782
  0
LINE
  8
0
 10
189.312
 20
16.4782
 11
189.5
 21
16.3856
  0
LINE
  8
0
 10
189.5
 20
16.3856
 11
189.674
 21
16.2694
  0
LINE
  8
0
 10
189.674
 20
16.2694
 11
189.831
 21
16.1314
  0
LINE
  8
0
 10
189.831
 20
16.1314
 11
189.969
 21
15.974
  0
LINE
  8
0
 10
189.969
 20
15.974
 11
190.086
 21
15.8
  0
LINE
  8
0
 10
190.086
 20
15.8
 11
190.178
 21
15.6123
  0
LINE
  8
0
 10
190.178
 20
15.6123
 11
190.245
 21
15.4141
  0
LINE
  8
0
 10
190.245
 20
15.4141
 11
190.286
 21
15.2088
  0
LINE
  8
0
 10
190.286
 20
15.2088
 11
190.3
 21
15
  0
LINE
  8
0
 10
190.3
 20
15
 11
190.286
 21
14.7912
  0
LINE
  8
0
 10
190.286
 20
14.7912
 11
190.245
 21
14.5859
  0
LINE
  8
0
 10
190.245
 20
14.5859
 11
190.178
 21
14.3877
  0
LINE
  8
0
 10
190.178
 20
14.3877
 11
190.086
 21
14.2
  0
LINE
  8
0
 10
190.086
 20
14.2
 11
189.969
 21
14.026
  0
LINE
  8
0
 10
189.969
 20
14.026
 11
189.831
 21
13.8686
  0
LINE
  8
0
 10
189.831
 20
13.8686
 11
189.674
 21
13.7306
  0
LINE
  8
0
 10
189.674
 20
13.7306
 11
189.5
 21
13.6144
  0
LINE
  8
0
 10
189.5
 20
13.6144
 11
189.312
 21
13.5218
  0
LINE
  8
0
 10
189.312
 20
13.5218
 11
189.114
 21
13.4545
  0
LINE
  8
0
 10
189.114
 20
13.4545
 11
188.909
 21
13.4137
  0
LINE
  8
0
 10
188.909
 20
13.4137
 11
188.7
 21
13.4
  0
LINE
  8
0
 10
188.7
 20
13.4
 11
188.491
 21
13.4137
  0
LINE
  8
0
 10
188.491
 20
13.4137
 11
188.286
 21
13.4545
  0
LINE
  8
0
 10
188.286
 20
13.4545
 11
188.088
 21
13.5218
  0
LINE
  8
0
 10
188.088
 20
13.5218
 11
187.9
 21
13.6144
  0
LINE
  8
0
 10
187.9
 20
13.6144
 11
187.726
 21
13.7306
  0
LINE
  8
0
 10
187.726
 20
13.7306
 11
187.569
 21
13.8686
  0
LINE
  8
0
 10
187.569
 20
13.8686
 11
187.431
 21
14.026
  0
LINE
  8
0
 10
187.431
 20
14.026
 11
187.314
 21
14.2
  0
LINE
  8
0
 10
187.314
 20
14.2
 11
187.222
 21
14.3877
  0
LINE
  8
0
 10
187.222
 20
14.3877
 11
187.155
 21
14.5859
  0
LINE
  8
0
 10
187.155
 20
14.5859
 11
187.114
 21
14.7912
  0
LINE
  8
0
 10
187.114
 20
14.7912
 11
187.1
 21
15
  0
LINE
  8
0
 10
187.1
 20
32.4
 11
187.115
 21
32.6219
  0
LINE
  8
0
 10
187.115
 20
32.6219
 11
187.158
 21
32.84
  0
LINE
  8
0
 10
187.158
 20
32.84
 11
187.229
 21
33.0506
  0
LINE
  8
0
 10
187.229
 20
33.0506
 11
187.328
 21
33.25
  0
LINE
  8
0
 10
187.328
 20
33.25
 11
187.451
 21
33.4349
  0
LINE
  8
0
 10
187.451
 20
33.4349
 11
187.598
 21
33.6021
  0
LINE
  8
0
 10
187.598
 20
33.6021
 11
187.765
 21
33.7487
  0
LINE
  8
0
 10
187.765
 20
33.7487
 11
187.95
 21
33.8722
  0
LINE
  8
0
 10
187.95
 20
33.8722
 11
188.149
 21
33.9706
  0
LINE
  8
0
 10
188.149
 20
33.9706
 11
188.36
 21
34.0421
  0
LINE
  8
0
 10
188.36
 20
34.0421
 11
188.578
 21
34.0855
  0
LINE
  8
0
 10
188.578
 20
34.0855
 11
188.8
 21
34.1
  0
LINE
  8
0
 10
188.8
 20
34.1
 11
189.022
 21
34.0855
  0
LINE
  8
0
 10
189.022
 20
34.0855
 11
189.24
 21
34.0421
  0
LINE
  8
0
 10
189.24
 20
34.0421
 11
189.451
 21
33.9706
  0
LINE
  8
0
 10
189.451
 20
33.9706
 11
189.65
 21
33.8722
  0
LINE
  8
0
 10
189.65
 20
33.8722
 11
189.835
 21
33.7487
  0
LINE
  8
0
 10
189.835
 20
33.7487
 11
190.002
 21
33.6021
  0
LINE
  8
0
 10
190.002
 20
33.6021
 11
190.149
 21
33.4349
  0
LINE
  8
0
 10
190.149
 20
33.4349
 11
190.272
 21
33.25
  0
LINE
  8
0
 10
190.272
 20
33.25
 11
190.371
 21
33.0506
  0
LINE
  8
0
 10
190.371
 20
33.0506
 11
190.442
 21
32.84
  0
LINE
  8
0
 10
190.442
 20
32.84
 11
190.485
 21
32.6219
  0
LINE
  8
0
 10
190.485
 20
32.6219
 11
190.5
 21
32.4
  0
LINE
  8
0
 10
190.5
 20
32.4
 11
190.485
 21
32.1781
  0
LINE
  8
0
 10
190.485
 20
32.1781
 11
190.442
 21
31.96
  0
LINE
  8
0
 10
190.442
 20
31.96
 11
190.371
 21
31.7494
  0
LINE
  8
0
 10
190.371
 20
31.7494
 11
190.272
 21
31.55
  0
LINE
  8
0
 10
190.272
 20
31.55
 11
190.149
 21
31.3651
  0
LINE
  8
0
 10
190.149
 20
31.3651
 11
190.002
 21
31.1979
  0
LINE
  8
0
 10
190.002
 20
31.1979
 11
189.835
 21
31.0513
  0
LINE
  8
0
 10
189.835
 20
31.0513
 11
189.65
 21
30.9278
  0
LINE
  8
0
 10
189.65
 20
30.9278
 11
189.451
 21
30.8294
  0
LINE
  8
0
 10
189.451
 20
30.8294
 11
189.24
 21
30.7579
  0
LINE
  8
0
 10
189.24
 20
30.7579
 11
189.022
 21
30.7145
  0
LINE
  8
0
 10
189.022
 20
30.7145
 11
188.8
 21
30.7
  0
LINE
  8
0
 10
188.8
 20
30.7
 11
188.578
 21
30.7145
  0
LINE
  8
0
 10
188.578
 20
30.7145
 11
188.36
 21
30.7579
  0
LINE
  8
0
 10
188.36
 20
30.7579
 11
188.149
 21
30.8294
  0
LINE
  8
0
 10
188.149
 20
30.8294
 11
187.95
 21
30.9278
  0
LINE
  8
0
 10
187.95
 20
30.9278
 11
187.765
 21
31.0513
  0
LINE
  8
0
 10
187.765
 20
31.0513
 11
187.598
 21
31.1979
  0
LINE
  8
0
 10
187.598
 20
31.1979
 11
187.451
 21
31.3651
  0
LINE
  8
0
 10
187.451
 20
31.3651
 11
187.328
 21
31.55
  0
LINE
  8
0
 10
187.328
 20
31.55
 11
187.229
 21
31.7494
  0
LINE
  8
0
 10
187.229
 20
31.7494
 11
187.158
 21
31.96
  0
LINE
  8
0
 10
187.158
 20
31.96
 11
187.115
 21
32.1781
  0
LINE
  8
0
 10
187.115
 20
32.1781
 11
187.1
 21
32.4
  0
LINE
  8
0
 10
187.1
 20
145.4
 11
187.115
 21
145.622
  0
LINE
  8
0
 10
187.115
 20
145.622
 11
187.158
 21
145.84
  0
LINE
  8
0
 10
187.158
 20
145.84
 11
187.229
 21
146.051
  0
LINE
  8
0
 10
187.229
 20
146.051
 11
187.328
 21
146.25
  0
LINE
  8
0
 10
187.328
 20
146.25
 11
187.451
 21
146.435
  0
LINE
  8
0
 10
187.451
 20
146.435
 11
187.598
 21
146.602
  0
LINE
  8
0
 10
187.598
 20
146.602
 11
187.765
 21
146.749
  0
LINE
  8
0
 10
187.765
 20
146.749
 11
187.95
 21
146.872
  0
LINE
  8
0
 10
187.95
 20
146.872
 11
188.149
 21
146.971
  0
LINE
  8
0
 10
188.149
 20
146.971
 11
188.36
 21
147.042
  0
LINE
  8
0
 10
188.36
 20
147.042
 11
188.578
 21
147.085
  0
LINE
  8
0
 10
188.578
 20
147.085
 11
188.8
 21
147.1
  0
LINE
  8
0
 10
188.8
 20
147.1
 11
189.022
 21
147.085
  0
LINE
  8
0
 10
189.022
 20
147.085
 11
189.24
 21
147.042
  0
LINE
  8
0
 10
189.24
 20
147.042
 11
189.451
 21
146.971
  0
LINE
  8
0
 10
189.451
 20
146.971
 11
189.65
 21
146.872
  0
LINE
  8
0
 10
189.65
 20
146.872
 11
189.835
 21
146.749
  0
LINE
  8
0
 10
189.835
 20
146.749
 11
190.002
 21
146.602
  0
LINE
  8
0
 10
190.002
 20
146.602
 11
190.149
 21
146.435
  0
LINE
  8
0
 10
190.149
 20
146.435
 11
190.272
 21
146.25
  0
LINE
  8
0
 10
190.272
 20
146.25
 11
190.371
 21
146.051
  0
LINE
  8
0
 10
190.371
 20
146.051
 11
190.442
 21
145.84
  0
LINE
  8
0
 10
190.442
 20
145.84
 11
190.485
 21
145.622
  0
LINE
  8
0
 10
190.485
 20
145.622
 11
190.5
 21
145.4
  0
LINE
  8
0
 10
190.5
 20
145.4
 11
190.485
 21
145.178
  0
LINE
  8
0
 10
190.485
 20
145.178
 11
190.442
 21
144.96
  0
LINE
  8
0
 10
190.442
 20
144.96
 11
190.371
 21
144.749
  0
LINE
  8
0
 10
190.371
 20
144.749
 11
190.272
 21
144.55
  0
LINE
  8
0
 10
190.272
 20
144.55
 11
190.149
 21
144.365
  0
LINE
  8
0
 10
190.149
 20
144.365
 11
190.002
 21
144.198
  0
LINE
  8
0
 10
190.002
 20
144.198
 11
189.835
 21
144.051
  0
LINE
  8
0
 10
189.835
 20
144.051
 11
189.65
 21
143.928
  0
LINE
  8
0
 10
189.65
 20
143.928
 11
189.451
 21
143.829
  0
LINE
  8
0
 10
189.451
 20
143.829
 11
189.24
 21
143.758
  0
LINE
  8
0
 10
189.24
 20
143.758
 11
189.022
 21
143.715
  0
LINE
  8
0
 10
189.022
 20
143.715
 11
188.8
 21
143.7
  0
LINE
  8
0
 10
188.8
 20
143.7
 11
188.578
 21
143.715
  0
LINE
  8
0
 10
188.578
 20
143.715
 11
188.36
 21
143.758
  0
LINE
  8
0
 10
188.36
 20
143.758
 11
188.149
 21
143.829
  0
LINE
  8
0
 10
188.149
 20
143.829
 11
187.95
 21
143.928
  0
LINE
  8
0
 10
187.95
 20
143.928
 11
187.765
 21
144.051
  0
LINE
  8
0
 10
187.765
 20
144.051
 11
187.598
 21
144.198
  0
LINE
  8
0
 10
187.598
 20
144.198
 11
187.451
 21
144.365
  0
LINE
  8
0
 10
187.451
 20
144.365
 11
187.328
 21
144.55
  0
LINE
  8
0
 10
187.328
 20
144.55
 11
187.229
 21
144.749
  0
LINE
  8
0
 10
187.229
 20
144.749
 11
187.158
 21
144.96
  0
LINE
  8
0
 10
187.158
 20
144.96
 11
187.115
 21
145.178
  0
LINE
  8
0
 10
187.115
 20
145.178
 11
187.1
 21
145.4
  0
LINE
  8
0
 10
213.9
 20
13
 11
213.915
 21
13.2219
  0
LINE
  8
0
 10
213.915
 20
13.2219
 11
213.958
 21
13.44
  0
LINE
  8
0
 10
213.958
 20
13.44
 11
214.029
 21
13.6506
  0
LINE
  8
0
 10
214.029
 20
13.6506
 11
214.128
 21
13.85
  0
LINE
  8
0
 10
214.128
 20
13.85
 11
214.251
 21
14.0349
  0
LINE
  8
0
 10
214.251
 20
14.0349
 11
214.398
 21
14.2021
  0
LINE
  8
0
 10
214.398
 20
14.2021
 11
214.565
 21
14.3487
  0
LINE
  8
0
 10
214.565
 20
14.3487
 11
214.75
 21
14.4722
  0
LINE
  8
0
 10
214.75
 20
14.4722
 11
214.949
 21
14.5706
  0
LINE
  8
0
 10
214.949
 20
14.5706
 11
215.16
 21
14.6421
  0
LINE
  8
0
 10
215.16
 20
14.6421
 11
215.378
 21
14.6855
  0
LINE
  8
0
 10
215.378
 20
14.6855
 11
215.6
 21
14.7
  0
LINE
  8
0
 10
215.6
 20
14.7
 11
215.822
 21
14.6855
  0
LINE
  8
0
 10
215.822
 20
14.6855
 11
216.04
 21
14.6421
  0
LINE
  8
0
 10
216.04
 20
14.6421
 11
216.251
 21
14.5706
  0
LINE
  8
0
 10
216.251
 20
14.5706
 11
216.45
 21
14.4722
  0
LINE
  8
0
 10
216.45
 20
14.4722
 11
216.635
 21
14.3487
  0
LINE
  8
0
 10
216.635
 20
14.3487
 11
216.802
 21
14.2021
  0
LINE
  8
0
 10
216.802
 20
14.2021
 11
216.949
 21
14.0349
  0
LINE
  8
0
 10
216.949
 20
14.0349
 11
217.072
 21
13.85
  0
LINE
  8
0
 10
217.072
 20
13.85
 11
217.171
 21
13.6506
  0
LINE
  8
0
 10
217.171
 20
13.6506
 11
217.242
 21
13.44
  0
LINE
  8
0
 10
217.242
 20
13.44
 11
217.285
 21
13.2219
  0
LINE
  8
0
 10
217.285
 20
13.2219
 11
217.3
 21
13
  0
LINE
  8
0
 10
217.3
 20
13
 11
217.285
 21
12.7781
  0
LINE
  8
0
 10
217.285
 20
12.7781
 11
217.242
 21
12.56
  0
LINE
  8
0
 10
217.242
 20
12.56
 11
217.171
 21
12.3494
  0
LINE
  8
0
 10
217.171
 20
12.3494
 11
217.072
 21
12.15
  0
LINE
  8
0
 10
217.072
 20
12.15
 11
216.949
 21
11.9651
  0
LINE
  8
0
 10
216.949
 20
11.9651
 11
216.802
 21
11.7979
  0
LINE
  8
0
 10
216.802
 20
11.7979
 11
216.635
 21
11.6513
  0
LINE
  8
0
 10
216.635
 20
11.6513
 11
216.45
 21
11.5278
  0
LINE
  8
0
 10
216.45
 20
11.5278
 11
216.251
 21
11.4294
  0
LINE
  8
0
 10
216.251
 20
11.4294
 11
216.04
 21
11.3579
  0
LINE
  8
0
 10
216.04
 20
11.3579
 11
215.822
 21
11.3145
  0
LINE
  8
0
 10
215.822
 20
11.3145
 11
215.6
 21
11.3
  0
LINE
  8
0
 10
215.6
 20
11.3
 11
215.378
 21
11.3145
  0
LINE
  8
0
 10
215.378
 20
11.3145
 11
215.16
 21
11.3579
  0
LINE
  8
0
 10
215.16
 20
11.3579
 11
214.949
 21
11.4294
  0
LINE
  8
0
 10
214.949
 20
11.4294
 11
214.75
 21
11.5278
  0
LINE
  8
0
 10
214.75
 20
11.5278
 11
214.565
 21
11.6513
  0
LINE
  8
0
 10
214.565
 20
11.6513
 11
214.398
 21
11.7979
  0
LINE
  8
0
 10
214.398
 20
11.7979
 11
214.251
 21
11.9651
  0
LINE
  8
0
 10
214.251
 20
11.9651
 11
214.128
 21
12.15
  0
LINE
  8
0
 10
214.128
 20
12.15
 11
214.029
 21
12.3494
  0
LINE
  8
0
 10
214.029
 20
12.3494
 11
213.958
 21
12.56
  0
LINE
  8
0
 10
213.958
 20
12.56
 11
213.915
 21
12.7781
  0
LINE
  8
0
 10
213.915
 20
12.7781
 11
213.9
 21
13
  0
LINE
  8
0
 10
213.9
 20
164.8
 11
213.915
 21
165.022
  0
LINE
  8
0
 10
213.915
 20
165.022
 11
213.958
 21
165.24
  0
LINE
  8
0
 10
213.958
 20
165.24
 11
214.029
 21
165.451
  0
LINE
  8
0
 10
214.029
 20
165.451
 11
214.128
 21
165.65
  0
LINE
  8
0
 10
214.128
 20
165.65
 11
214.251
 21
165.835
  0
LINE
  8
0
 10
214.251
 20
165.835
 11
214.398
 21
166.002
  0
LINE
  8
0
 10
214.398
 20
166.002
 11
214.565
 21
166.149
  0
LINE
  8
0
 10
214.565
 20
166.149
 11
214.75
 21
166.272
  0
LINE
  8
0
 10
214.75
 20
166.272
 11
214.949
 21
166.371
  0
LINE
  8
0
 10
214.949
 20
166.371
 11
215.16
 21
166.442
  0
LINE
  8
0
 10
215.16
 20
166.442
 11
215.378
 21
166.485
  0
LINE
  8
0
 10
215.378
 20
166.485
 11
215.6
 21
166.5
  0
LINE
  8
0
 10
215.6
 20
166.5
 11
215.822
 21
166.485
  0
LINE
  8
0
 10
215.822
 20
166.485
 11
216.04
 21
166.442
  0
LINE
  8
0
 10
216.04
 20
166.442
 11
216.251
 21
166.371
  0
LINE
  8
0
 10
216.251
 20
166.371
 11
216.45
 21
166.272
  0
LINE
  8
0
 10
216.45
 20
166.272
 11
216.635
 21
166.149
  0
LINE
  8
0
 10
216.635
 20
166.149
 11
216.802
 21
166.002
  0
LINE
  8
0
 10
216.802
 20
166.002
 11
216.949
 21
165.835
  0
LINE
  8
0
 10
216.949
 20
165.835
 11
217.072
 21
165.65
  0
LINE
  8
0
 10
217.072
 20
165.65
 11
217.171
 21
165.451
  0
LINE
  8
0
 10
217.171
 20
165.451
 11
217.242
 21
165.24
  0
LINE
  8
0
 10
217.242
 20
165.24
 11
217.285
 21
165.022
  0
LINE
  8
0
 10
217.285
 20
165.022
 11
217.3
 21
164.8
  0
LINE
  8
0
 10
217.3
 20
164.8
 11
217.285
 21
164.578
  0
LINE
  8
0
 10
217.285
 20
164.578
 11
217.242
 21
164.36
  0
LINE
  8
0
 10
217.242
 20
164.36
 11
217.171
 21
164.149
  0
LINE
  8
0
 10
217.171
 20
164.149
 11
217.072
 21
163.95
  0
LINE
  8
0
 10
217.072
 20
163.95
 11
216.949
 21
163.765
  0
LINE
  8
0
 10
216.949
 20
163.765
 11
216.802
 21
163.598
  0
LINE
  8
0
 10
216.802
 20
163.598
 11
216.635
 21
163.451
  0
LINE
  8
0
 10
216.635
 20
163.451
 11
216.45
 21
163.328
  0
LINE
  8
0
 10
216.45
 20
163.328
 11
216.251
 21
163.229
  0
LINE
  8
0
 10
216.251
 20
163.229
 11
216.04
 21
163.158
  0
LINE
  8
0
 10
216.04
 20
163.158
 11
215.822
 21
163.115
  0
LINE
  8
0
 10
215.822
 20
163.115
 11
215.6
 21
163.1
  0
LINE
  8
0
 10
215.6
 20
163.1
 11
215.378
 21
163.115
  0
LINE
  8
0
 10
215.378
 20
163.115
 11
215.16
 21
163.158
  0
LINE
  8
0
 10
215.16
 20
163.158
 11
214.949
 21
163.229
  0
LINE
  8
0
 10
214.949
 20
163.229
 11
214.75
 21
163.328
  0
LINE
  8
0
 10
214.75
 20
163.328
 11
214.565
 21
163.451
  0
LINE
  8
0
 10
214.565
 20
163.451
 11
214.398
 21
163.598
  0
LINE
  8
0
 10
214.398
 20
163.598
 11
214.251
 21
163.765
  0
LINE
  8
0
 10
214.251
 20
163.765
 11
214.128
 21
163.95
  0
LINE
  8
0
 10
214.128
 20
163.95
 11
214.029
 21
164.149
  0
LINE
  8
0
 10
214.029
 20
164.149
 11
213.958
 21
164.36
  0
LINE
  8
0
 10
213.958
 20
164.36
 11
213.915
 21
164.578
  0
LINE
  8
0
 10
213.915
 20
164.578
 11
213.9
 21
164.8
  0
ENDSEC
  0
SECTION
  2
OBJECTS
  0
DICTIONARY
  0
ENDSEC
  0
EOF
