  0
SECTION
  2
BLOCKS
  0
ENDSEC
  0
SECTION
  2
ENTITIES
  0
LINE
  8
0
 10
223.383
 20
0.0513306
 11
224.153
 21
0.204437
  0
LINE
  8
0
 10
224.153
 20
0.204437
 11
224.896
 21
0.456711
  0
LINE
  8
0
 10
224.896
 20
0.456711
 11
225.6
 21
0.803833
  0
LINE
  8
0
 10
225.6
 20
0.803833
 11
226.253
 21
1.23987
  0
LINE
  8
0
 10
226.253
 20
1.23987
 11
226.843
 21
1.75735
  0
LINE
  8
0
 10
226.843
 20
1.75735
 11
227.36
 21
2.34743
  0
LINE
  8
0
 10
227.36
 20
2.34743
 11
227.796
 21
3
  0
LINE
  8
0
 10
227.796
 20
3
 11
228.143
 21
3.70389
  0
LINE
  8
0
 10
228.143
 20
3.70389
 11
228.396
 21
4.44708
  0
LINE
  8
0
 10
228.396
 20
4.44708
 11
228.549
 21
5.21684
  0
LINE
  8
0
 10
228.549
 20
5.21684
 11
228.6
 21
6
  0
LINE
  8
0
 10
228.6
 20
6
 11
228.6
 21
171.8
  0
LINE
  8
0
 10
228.6
 20
171.8
 11
228.549
 21
172.583
  0
LINE
  8
0
 10
228.549
 20
172.583
 11
228.396
 21
173.353
  0
LINE
  8
0
 10
228.396
 20
173.353
 11
228.143
 21
174.096
  0
LINE
  8
0
 10
228.143
 20
174.096
 11
227.796
 21
174.8
  0
LINE
  8
0
 10
227.796
 20
174.8
 11
227.36
 21
175.453
  0
LINE
  8
0
 10
227.36
 20
175.453
 11
226.843
 21
176.043
  0
LINE
  8
0
 10
226.843
 20
176.043
 11
226.253
 21
176.56
  0
LINE
  8
0
 10
226.253
 20
176.56
 11
225.6
 21
176.996
  0
LINE
  8
0
 10
225.6
 20
176.996
 11
224.896
 21
177.343
  0
LINE
  8
0
 10
224.896
 20
177.343
 11
224.153
 21
177.596
  0
LINE
  8
0
 10
224.153
 20
177.596
 11
223.383
 21
177.749
  0
LINE
  8
0
 10
223.383
 20
177.749
 11
222.6
 21
177.8
  0
LINE
  8
0
 10
222.6
 20
177.8
 11
6
 21
177.8
  0
LINE
  8
0
 10
6
 20
177.8
 11
5.21684
 21
177.749
  0
LINE
  8
0
 10
5.21684
 20
177.749
 11
4.44708
 21
177.596
  0
LINE
  8
0
 10
4.44708
 20
177.596
 11
3.70389
 21
177.343
  0
LINE
  8
0
 10
3.70389
 20
177.343
 11
3
 21
176.996
  0
LINE
  8
0
 10
3
 20
176.996
 11
2.34743
 21
176.56
  0
LINE
  8
0
 10
2.34743
 20
176.56
 11
1.75735
 21
176.043
  0
LINE
  8
0
 10
1.75735
 20
176.043
 11
1.23987
 21
175.453
  0
LINE
  8
0
 10
1.23987
 20
175.453
 11
0.803833
 21
174.8
  0
LINE
  8
0
 10
0.803833
 20
174.8
 11
0.456711
 21
174.096
  0
LINE
  8
0
 10
0.456711
 20
174.096
 11
0.204437
 21
173.353
  0
LINE
  8
0
 10
0.204437
 20
173.353
 11
0.0513306
 21
172.583
  0
LINE
  8
0
 10
0.0513306
 20
172.583
 11
0
 21
171.8
  0
LINE
  8
0
 10
0
 20
171.8
 11
0
 21
6
  0
LINE
  8
0
 10
0
 20
6
 11
0.0513306
 21
5.21684
  0
LINE
  8
0
 10
0.0513306
 20
5.21684
 11
0.204437
 21
4.44708
  0
LINE
  8
0
 10
0.204437
 20
4.44708
 11
0.456711
 21
3.70389
  0
LINE
  8
0
 10
0.456711
 20
3.70389
 11
0.803833
 21
3
  0
LINE
  8
0
 10
0.803833
 20
3
 11
1.23987
 21
2.34743
  0
LINE
  8
0
 10
1.23987
 20
2.34743
 11
1.75735
 21
1.75735
  0
LINE
  8
0
 10
1.75735
 20
1.75735
 11
2.34743
 21
1.23987
  0
LINE
  8
0
 10
2.34743
 20
1.23987
 11
3
 21
0.803833
  0
LINE
  8
0
 10
3
 20
0.803833
 11
3.70389
 21
0.456711
  0
LINE
  8
0
 10
3.70389
 20
0.456711
 11
4.44708
 21
0.204437
  0
LINE
  8
0
 10
4.44708
 20
0.204437
 11
5.21684
 21
0.0513306
  0
LINE
  8
0
 10
5.21684
 20
0.0513306
 11
6
 21
0
  0
LINE
  8
0
 10
6
 20
0
 11
222.6
 21
0
  0
LINE
  8
0
 10
222.6
 20
0
 11
223.383
 21
0.0513306
  0
LINE
  8
0
 10
38.1
 20
47.8
 11
38.1
 21
131.7
  0
LINE
  8
0
 10
38.1
 20
131.7
 11
190.3
 21
131.7
  0
LINE
  8
0
 10
190.3
 20
131.7
 11
190.3
 21
47.8
  0
LINE
  8
0
 10
190.3
 20
47.8
 11
38.1
 21
47.8
  0
LINE
  8
0
 10
121.091
 20
13.4137
 11
120.886
 21
13.4545
  0
LINE
  8
0
 10
120.886
 20
13.4545
 11
120.688
 21
13.5218
  0
LINE
  8
0
 10
120.688
 20
13.5218
 11
120.5
 21
13.6143
  0
LINE
  8
0
 10
120.5
 20
13.6143
 11
120.326
 21
13.7306
  0
LINE
  8
0
 10
120.326
 20
13.7306
 11
120.169
 21
13.8686
  0
LINE
  8
0
 10
120.169
 20
13.8686
 11
120.031
 21
14.026
  0
LINE
  8
0
 10
120.031
 20
14.026
 11
119.914
 21
14.2
  0
LINE
  8
0
 10
119.914
 20
14.2
 11
119.822
 21
14.3877
  0
LINE
  8
0
 10
119.822
 20
14.3877
 11
119.755
 21
14.5859
  0
LINE
  8
0
 10
119.755
 20
14.5859
 11
119.714
 21
14.7912
  0
LINE
  8
0
 10
119.714
 20
14.7912
 11
119.7
 21
15
  0
LINE
  8
0
 10
119.7
 20
15
 11
119.714
 21
15.2088
  0
LINE
  8
0
 10
119.714
 20
15.2088
 11
119.755
 21
15.4141
  0
LINE
  8
0
 10
119.755
 20
15.4141
 11
119.822
 21
15.6123
  0
LINE
  8
0
 10
119.822
 20
15.6123
 11
119.914
 21
15.8
  0
LINE
  8
0
 10
119.914
 20
15.8
 11
120.031
 21
15.974
  0
LINE
  8
0
 10
120.031
 20
15.974
 11
120.169
 21
16.1314
  0
LINE
  8
0
 10
120.169
 20
16.1314
 11
120.326
 21
16.2694
  0
LINE
  8
0
 10
120.326
 20
16.2694
 11
120.5
 21
16.3856
  0
LINE
  8
0
 10
120.5
 20
16.3856
 11
120.688
 21
16.4782
  0
LINE
  8
0
 10
120.688
 20
16.4782
 11
120.886
 21
16.5455
  0
LINE
  8
0
 10
120.886
 20
16.5455
 11
121.091
 21
16.5863
  0
LINE
  8
0
 10
121.091
 20
16.5863
 11
121.3
 21
16.6
  0
LINE
  8
0
 10
121.3
 20
16.6
 11
121.509
 21
16.5863
  0
LINE
  8
0
 10
121.509
 20
16.5863
 11
121.714
 21
16.5455
  0
LINE
  8
0
 10
121.714
 20
16.5455
 11
121.912
 21
16.4782
  0
LINE
  8
0
 10
121.912
 20
16.4782
 11
122.1
 21
16.3856
  0
LINE
  8
0
 10
122.1
 20
16.3856
 11
122.274
 21
16.2694
  0
LINE
  8
0
 10
122.274
 20
16.2694
 11
122.431
 21
16.1314
  0
LINE
  8
0
 10
122.431
 20
16.1314
 11
122.569
 21
15.974
  0
LINE
  8
0
 10
122.569
 20
15.974
 11
122.686
 21
15.8
  0
LINE
  8
0
 10
122.686
 20
15.8
 11
122.778
 21
15.6123
  0
LINE
  8
0
 10
122.778
 20
15.6123
 11
122.845
 21
15.4141
  0
LINE
  8
0
 10
122.845
 20
15.4141
 11
122.886
 21
15.2088
  0
LINE
  8
0
 10
122.886
 20
15.2088
 11
122.9
 21
15
  0
LINE
  8
0
 10
122.9
 20
15
 11
122.886
 21
14.7912
  0
LINE
  8
0
 10
122.886
 20
14.7912
 11
122.845
 21
14.5859
  0
LINE
  8
0
 10
122.845
 20
14.5859
 11
122.778
 21
14.3877
  0
LINE
  8
0
 10
122.778
 20
14.3877
 11
122.686
 21
14.2
  0
LINE
  8
0
 10
122.686
 20
14.2
 11
122.569
 21
14.026
  0
LINE
  8
0
 10
122.569
 20
14.026
 11
122.431
 21
13.8686
  0
LINE
  8
0
 10
122.431
 20
13.8686
 11
122.274
 21
13.7306
  0
LINE
  8
0
 10
122.274
 20
13.7306
 11
122.1
 21
13.6143
  0
LINE
  8
0
 10
122.1
 20
13.6143
 11
121.912
 21
13.5218
  0
LINE
  8
0
 10
121.912
 20
13.5218
 11
121.714
 21
13.4545
  0
LINE
  8
0
 10
121.714
 20
13.4545
 11
121.509
 21
13.4137
  0
LINE
  8
0
 10
121.509
 20
13.4137
 11
121.3
 21
13.4
  0
LINE
  8
0
 10
121.3
 20
13.4
 11
121.091
 21
13.4137
  0
LINE
  8
0
 10
107.091
 20
13.4137
 11
106.886
 21
13.4545
  0
LINE
  8
0
 10
106.886
 20
13.4545
 11
106.688
 21
13.5218
  0
LINE
  8
0
 10
106.688
 20
13.5218
 11
106.5
 21
13.6143
  0
LINE
  8
0
 10
106.5
 20
13.6143
 11
106.326
 21
13.7306
  0
LINE
  8
0
 10
106.326
 20
13.7306
 11
106.169
 21
13.8686
  0
LINE
  8
0
 10
106.169
 20
13.8686
 11
106.031
 21
14.026
  0
LINE
  8
0
 10
106.031
 20
14.026
 11
105.914
 21
14.2
  0
LINE
  8
0
 10
105.914
 20
14.2
 11
105.822
 21
14.3877
  0
LINE
  8
0
 10
105.822
 20
14.3877
 11
105.755
 21
14.5859
  0
LINE
  8
0
 10
105.755
 20
14.5859
 11
105.714
 21
14.7912
  0
LINE
  8
0
 10
105.714
 20
14.7912
 11
105.7
 21
15
  0
LINE
  8
0
 10
105.7
 20
15
 11
105.714
 21
15.2088
  0
LINE
  8
0
 10
105.714
 20
15.2088
 11
105.755
 21
15.4141
  0
LINE
  8
0
 10
105.755
 20
15.4141
 11
105.822
 21
15.6123
  0
LINE
  8
0
 10
105.822
 20
15.6123
 11
105.914
 21
15.8
  0
LINE
  8
0
 10
105.914
 20
15.8
 11
106.031
 21
15.974
  0
LINE
  8
0
 10
106.031
 20
15.974
 11
106.169
 21
16.1314
  0
LINE
  8
0
 10
106.169
 20
16.1314
 11
106.326
 21
16.2694
  0
LINE
  8
0
 10
106.326
 20
16.2694
 11
106.5
 21
16.3856
  0
LINE
  8
0
 10
106.5
 20
16.3856
 11
106.688
 21
16.4782
  0
LINE
  8
0
 10
106.688
 20
16.4782
 11
106.886
 21
16.5455
  0
LINE
  8
0
 10
106.886
 20
16.5455
 11
107.091
 21
16.5863
  0
LINE
  8
0
 10
107.091
 20
16.5863
 11
107.3
 21
16.6
  0
LINE
  8
0
 10
107.3
 20
16.6
 11
107.509
 21
16.5863
  0
LINE
  8
0
 10
107.509
 20
16.5863
 11
107.714
 21
16.5455
  0
LINE
  8
0
 10
107.714
 20
16.5455
 11
107.912
 21
16.4782
  0
LINE
  8
0
 10
107.912
 20
16.4782
 11
108.1
 21
16.3856
  0
LINE
  8
0
 10
108.1
 20
16.3856
 11
108.274
 21
16.2694
  0
LINE
  8
0
 10
108.274
 20
16.2694
 11
108.431
 21
16.1314
  0
LINE
  8
0
 10
108.431
 20
16.1314
 11
108.569
 21
15.974
  0
LINE
  8
0
 10
108.569
 20
15.974
 11
108.686
 21
15.8
  0
LINE
  8
0
 10
108.686
 20
15.8
 11
108.778
 21
15.6123
  0
LINE
  8
0
 10
108.778
 20
15.6123
 11
108.845
 21
15.4141
  0
LINE
  8
0
 10
108.845
 20
15.4141
 11
108.886
 21
15.2088
  0
LINE
  8
0
 10
108.886
 20
15.2088
 11
108.9
 21
15
  0
LINE
  8
0
 10
108.9
 20
15
 11
108.886
 21
14.7912
  0
LINE
  8
0
 10
108.886
 20
14.7912
 11
108.845
 21
14.5859
  0
LINE
  8
0
 10
108.845
 20
14.5859
 11
108.778
 21
14.3877
  0
LINE
  8
0
 10
108.778
 20
14.3877
 11
108.686
 21
14.2
  0
LINE
  8
0
 10
108.686
 20
14.2
 11
108.569
 21
14.026
  0
LINE
  8
0
 10
108.569
 20
14.026
 11
108.431
 21
13.8686
  0
LINE
  8
0
 10
108.431
 20
13.8686
 11
108.274
 21
13.7306
  0
LINE
  8
0
 10
108.274
 20
13.7306
 11
108.1
 21
13.6143
  0
LINE
  8
0
 10
108.1
 20
13.6143
 11
107.912
 21
13.5218
  0
LINE
  8
0
 10
107.912
 20
13.5218
 11
107.714
 21
13.4545
  0
LINE
  8
0
 10
107.714
 20
13.4545
 11
107.509
 21
13.4137
  0
LINE
  8
0
 10
107.509
 20
13.4137
 11
107.3
 21
13.4
  0
LINE
  8
0
 10
107.3
 20
13.4
 11
107.091
 21
13.4137
  0
ENDSEC
  0
SECTION
  2
OBJECTS
  0
DICTIONARY
  0
ENDSEC
  0
EOF
