  0
SECTION
  2
BLOCKS
  0
ENDSEC
  0
SECTION
  2
ENTITIES
  0
LINE
  8
0
 10
228.6
 20
177.8
 11
0
 21
177.8
  0
LINE
  8
0
 10
0
 20
177.8
 11
0
 21
0
  0
LINE
  8
0
 10
0
 20
0
 11
228.6
 21
0
  0
LINE
  8
0
 10
228.6
 20
0
 11
228.6
 21
177.8
  0
LINE
  8
0
 10
123.674
 20
125.321
 11
123.353
 21
125.385
  0
LINE
  8
0
 10
123.353
 20
125.385
 11
123.043
 21
125.49
  0
LINE
  8
0
 10
123.043
 20
125.49
 11
122.75
 21
125.635
  0
LINE
  8
0
 10
122.75
 20
125.635
 11
122.478
 21
125.817
  0
LINE
  8
0
 10
122.478
 20
125.817
 11
122.232
 21
126.032
  0
LINE
  8
0
 10
122.232
 20
126.032
 11
122.017
 21
126.278
  0
LINE
  8
0
 10
122.017
 20
126.278
 11
121.835
 21
126.55
  0
LINE
  8
0
 10
121.835
 20
126.55
 11
121.69
 21
126.843
  0
LINE
  8
0
 10
121.69
 20
126.843
 11
121.585
 21
127.153
  0
LINE
  8
0
 10
121.585
 20
127.153
 11
121.521
 21
127.474
  0
LINE
  8
0
 10
121.521
 20
127.474
 11
121.5
 21
127.8
  0
LINE
  8
0
 10
121.5
 20
127.8
 11
121.521
 21
128.126
  0
LINE
  8
0
 10
121.521
 20
128.126
 11
121.585
 21
128.447
  0
LINE
  8
0
 10
121.585
 20
128.447
 11
121.69
 21
128.757
  0
LINE
  8
0
 10
121.69
 20
128.757
 11
121.835
 21
129.05
  0
LINE
  8
0
 10
121.835
 20
129.05
 11
122.017
 21
129.322
  0
LINE
  8
0
 10
122.017
 20
129.322
 11
122.232
 21
129.568
  0
LINE
  8
0
 10
122.232
 20
129.568
 11
122.478
 21
129.783
  0
LINE
  8
0
 10
122.478
 20
129.783
 11
122.75
 21
129.965
  0
LINE
  8
0
 10
122.75
 20
129.965
 11
123.043
 21
130.11
  0
LINE
  8
0
 10
123.043
 20
130.11
 11
123.353
 21
130.215
  0
LINE
  8
0
 10
123.353
 20
130.215
 11
123.674
 21
130.279
  0
LINE
  8
0
 10
123.674
 20
130.279
 11
124
 21
130.3
  0
LINE
  8
0
 10
124
 20
130.3
 11
124.326
 21
130.279
  0
LINE
  8
0
 10
124.326
 20
130.279
 11
124.647
 21
130.215
  0
LINE
  8
0
 10
124.647
 20
130.215
 11
124.957
 21
130.11
  0
LINE
  8
0
 10
124.957
 20
130.11
 11
125.25
 21
129.965
  0
LINE
  8
0
 10
125.25
 20
129.965
 11
125.522
 21
129.783
  0
LINE
  8
0
 10
125.522
 20
129.783
 11
125.768
 21
129.568
  0
LINE
  8
0
 10
125.768
 20
129.568
 11
125.983
 21
129.322
  0
LINE
  8
0
 10
125.983
 20
129.322
 11
126.165
 21
129.05
  0
LINE
  8
0
 10
126.165
 20
129.05
 11
126.31
 21
128.757
  0
LINE
  8
0
 10
126.31
 20
128.757
 11
126.415
 21
128.447
  0
LINE
  8
0
 10
126.415
 20
128.447
 11
126.479
 21
128.126
  0
LINE
  8
0
 10
126.479
 20
128.126
 11
126.5
 21
127.8
  0
LINE
  8
0
 10
126.5
 20
127.8
 11
126.479
 21
127.474
  0
LINE
  8
0
 10
126.479
 20
127.474
 11
126.415
 21
127.153
  0
LINE
  8
0
 10
126.415
 20
127.153
 11
126.31
 21
126.843
  0
LINE
  8
0
 10
126.31
 20
126.843
 11
126.165
 21
126.55
  0
LINE
  8
0
 10
126.165
 20
126.55
 11
125.983
 21
126.278
  0
LINE
  8
0
 10
125.983
 20
126.278
 11
125.768
 21
126.032
  0
LINE
  8
0
 10
125.768
 20
126.032
 11
125.522
 21
125.817
  0
LINE
  8
0
 10
125.522
 20
125.817
 11
125.25
 21
125.635
  0
LINE
  8
0
 10
125.25
 20
125.635
 11
124.957
 21
125.49
  0
LINE
  8
0
 10
124.957
 20
125.49
 11
124.647
 21
125.385
  0
LINE
  8
0
 10
124.647
 20
125.385
 11
124.326
 21
125.321
  0
LINE
  8
0
 10
124.326
 20
125.321
 11
124
 21
125.3
  0
LINE
  8
0
 10
124
 20
125.3
 11
123.674
 21
125.321
  0
LINE
  8
0
 10
87.6737
 20
125.321
 11
87.353
 21
125.385
  0
LINE
  8
0
 10
87.353
 20
125.385
 11
87.0433
 21
125.49
  0
LINE
  8
0
 10
87.0433
 20
125.49
 11
86.75
 21
125.635
  0
LINE
  8
0
 10
86.75
 20
125.635
 11
86.4781
 21
125.817
  0
LINE
  8
0
 10
86.4781
 20
125.817
 11
86.2322
 21
126.032
  0
LINE
  8
0
 10
86.2322
 20
126.032
 11
86.0166
 21
126.278
  0
LINE
  8
0
 10
86.0166
 20
126.278
 11
85.8349
 21
126.55
  0
LINE
  8
0
 10
85.8349
 20
126.55
 11
85.6903
 21
126.843
  0
LINE
  8
0
 10
85.6903
 20
126.843
 11
85.5852
 21
127.153
  0
LINE
  8
0
 10
85.5852
 20
127.153
 11
85.5214
 21
127.474
  0
LINE
  8
0
 10
85.5214
 20
127.474
 11
85.5
 21
127.8
  0
LINE
  8
0
 10
85.5
 20
127.8
 11
85.5214
 21
128.126
  0
LINE
  8
0
 10
85.5214
 20
128.126
 11
85.5852
 21
128.447
  0
LINE
  8
0
 10
85.5852
 20
128.447
 11
85.6903
 21
128.757
  0
LINE
  8
0
 10
85.6903
 20
128.757
 11
85.8349
 21
129.05
  0
LINE
  8
0
 10
85.8349
 20
129.05
 11
86.0166
 21
129.322
  0
LINE
  8
0
 10
86.0166
 20
129.322
 11
86.2322
 21
129.568
  0
LINE
  8
0
 10
86.2322
 20
129.568
 11
86.4781
 21
129.783
  0
LINE
  8
0
 10
86.4781
 20
129.783
 11
86.75
 21
129.965
  0
LINE
  8
0
 10
86.75
 20
129.965
 11
87.0433
 21
130.11
  0
LINE
  8
0
 10
87.0433
 20
130.11
 11
87.353
 21
130.215
  0
LINE
  8
0
 10
87.353
 20
130.215
 11
87.6737
 21
130.279
  0
LINE
  8
0
 10
87.6737
 20
130.279
 11
88
 21
130.3
  0
LINE
  8
0
 10
88
 20
130.3
 11
88.3263
 21
130.279
  0
LINE
  8
0
 10
88.3263
 20
130.279
 11
88.647
 21
130.215
  0
LINE
  8
0
 10
88.647
 20
130.215
 11
88.9567
 21
130.11
  0
LINE
  8
0
 10
88.9567
 20
130.11
 11
89.25
 21
129.965
  0
LINE
  8
0
 10
89.25
 20
129.965
 11
89.5219
 21
129.783
  0
LINE
  8
0
 10
89.5219
 20
129.783
 11
89.7678
 21
129.568
  0
LINE
  8
0
 10
89.7678
 20
129.568
 11
89.9834
 21
129.322
  0
LINE
  8
0
 10
89.9834
 20
129.322
 11
90.1651
 21
129.05
  0
LINE
  8
0
 10
90.1651
 20
129.05
 11
90.3097
 21
128.757
  0
LINE
  8
0
 10
90.3097
 20
128.757
 11
90.4148
 21
128.447
  0
LINE
  8
0
 10
90.4148
 20
128.447
 11
90.4786
 21
128.126
  0
LINE
  8
0
 10
90.4786
 20
128.126
 11
90.5
 21
127.8
  0
LINE
  8
0
 10
90.5
 20
127.8
 11
90.4786
 21
127.474
  0
LINE
  8
0
 10
90.4786
 20
127.474
 11
90.4148
 21
127.153
  0
LINE
  8
0
 10
90.4148
 20
127.153
 11
90.3097
 21
126.843
  0
LINE
  8
0
 10
90.3097
 20
126.843
 11
90.1651
 21
126.55
  0
LINE
  8
0
 10
90.1651
 20
126.55
 11
89.9834
 21
126.278
  0
LINE
  8
0
 10
89.9834
 20
126.278
 11
89.7678
 21
126.032
  0
LINE
  8
0
 10
89.7678
 20
126.032
 11
89.5219
 21
125.817
  0
LINE
  8
0
 10
89.5219
 20
125.817
 11
89.25
 21
125.635
  0
LINE
  8
0
 10
89.25
 20
125.635
 11
88.9567
 21
125.49
  0
LINE
  8
0
 10
88.9567
 20
125.49
 11
88.647
 21
125.385
  0
LINE
  8
0
 10
88.647
 20
125.385
 11
88.3263
 21
125.321
  0
LINE
  8
0
 10
88.3263
 20
125.321
 11
88
 21
125.3
  0
LINE
  8
0
 10
88
 20
125.3
 11
87.6737
 21
125.321
  0
LINE
  8
0
 10
75.6737
 20
125.321
 11
75.353
 21
125.385
  0
LINE
  8
0
 10
75.353
 20
125.385
 11
75.0433
 21
125.49
  0
LINE
  8
0
 10
75.0433
 20
125.49
 11
74.75
 21
125.635
  0
LINE
  8
0
 10
74.75
 20
125.635
 11
74.4781
 21
125.817
  0
LINE
  8
0
 10
74.4781
 20
125.817
 11
74.2322
 21
126.032
  0
LINE
  8
0
 10
74.2322
 20
126.032
 11
74.0166
 21
126.278
  0
LINE
  8
0
 10
74.0166
 20
126.278
 11
73.8349
 21
126.55
  0
LINE
  8
0
 10
73.8349
 20
126.55
 11
73.6903
 21
126.843
  0
LINE
  8
0
 10
73.6903
 20
126.843
 11
73.5852
 21
127.153
  0
LINE
  8
0
 10
73.5852
 20
127.153
 11
73.5214
 21
127.474
  0
LINE
  8
0
 10
73.5214
 20
127.474
 11
73.5
 21
127.8
  0
LINE
  8
0
 10
73.5
 20
127.8
 11
73.5214
 21
128.126
  0
LINE
  8
0
 10
73.5214
 20
128.126
 11
73.5852
 21
128.447
  0
LINE
  8
0
 10
73.5852
 20
128.447
 11
73.6903
 21
128.757
  0
LINE
  8
0
 10
73.6903
 20
128.757
 11
73.8349
 21
129.05
  0
LINE
  8
0
 10
73.8349
 20
129.05
 11
74.0166
 21
129.322
  0
LINE
  8
0
 10
74.0166
 20
129.322
 11
74.2322
 21
129.568
  0
LINE
  8
0
 10
74.2322
 20
129.568
 11
74.4781
 21
129.783
  0
LINE
  8
0
 10
74.4781
 20
129.783
 11
74.75
 21
129.965
  0
LINE
  8
0
 10
74.75
 20
129.965
 11
75.0433
 21
130.11
  0
LINE
  8
0
 10
75.0433
 20
130.11
 11
75.353
 21
130.215
  0
LINE
  8
0
 10
75.353
 20
130.215
 11
75.6737
 21
130.279
  0
LINE
  8
0
 10
75.6737
 20
130.279
 11
76
 21
130.3
  0
LINE
  8
0
 10
76
 20
130.3
 11
76.3263
 21
130.279
  0
LINE
  8
0
 10
76.3263
 20
130.279
 11
76.647
 21
130.215
  0
LINE
  8
0
 10
76.647
 20
130.215
 11
76.9567
 21
130.11
  0
LINE
  8
0
 10
76.9567
 20
130.11
 11
77.25
 21
129.965
  0
LINE
  8
0
 10
77.25
 20
129.965
 11
77.5219
 21
129.783
  0
LINE
  8
0
 10
77.5219
 20
129.783
 11
77.7678
 21
129.568
  0
LINE
  8
0
 10
77.7678
 20
129.568
 11
77.9834
 21
129.322
  0
LINE
  8
0
 10
77.9834
 20
129.322
 11
78.1651
 21
129.05
  0
LINE
  8
0
 10
78.1651
 20
129.05
 11
78.3097
 21
128.757
  0
LINE
  8
0
 10
78.3097
 20
128.757
 11
78.4148
 21
128.447
  0
LINE
  8
0
 10
78.4148
 20
128.447
 11
78.4786
 21
128.126
  0
LINE
  8
0
 10
78.4786
 20
128.126
 11
78.5
 21
127.8
  0
LINE
  8
0
 10
78.5
 20
127.8
 11
78.4786
 21
127.474
  0
LINE
  8
0
 10
78.4786
 20
127.474
 11
78.4148
 21
127.153
  0
LINE
  8
0
 10
78.4148
 20
127.153
 11
78.3097
 21
126.843
  0
LINE
  8
0
 10
78.3097
 20
126.843
 11
78.1651
 21
126.55
  0
LINE
  8
0
 10
78.1651
 20
126.55
 11
77.9834
 21
126.278
  0
LINE
  8
0
 10
77.9834
 20
126.278
 11
77.7678
 21
126.032
  0
LINE
  8
0
 10
77.7678
 20
126.032
 11
77.5219
 21
125.817
  0
LINE
  8
0
 10
77.5219
 20
125.817
 11
77.25
 21
125.635
  0
LINE
  8
0
 10
77.25
 20
125.635
 11
76.9567
 21
125.49
  0
LINE
  8
0
 10
76.9567
 20
125.49
 11
76.647
 21
125.385
  0
LINE
  8
0
 10
76.647
 20
125.385
 11
76.3263
 21
125.321
  0
LINE
  8
0
 10
76.3263
 20
125.321
 11
76
 21
125.3
  0
LINE
  8
0
 10
76
 20
125.3
 11
75.6737
 21
125.321
  0
LINE
  8
0
 10
51.6737
 20
125.321
 11
51.353
 21
125.385
  0
LINE
  8
0
 10
51.353
 20
125.385
 11
51.0433
 21
125.49
  0
LINE
  8
0
 10
51.0433
 20
125.49
 11
50.75
 21
125.635
  0
LINE
  8
0
 10
50.75
 20
125.635
 11
50.4781
 21
125.817
  0
LINE
  8
0
 10
50.4781
 20
125.817
 11
50.2322
 21
126.032
  0
LINE
  8
0
 10
50.2322
 20
126.032
 11
50.0166
 21
126.278
  0
LINE
  8
0
 10
50.0166
 20
126.278
 11
49.8349
 21
126.55
  0
LINE
  8
0
 10
49.8349
 20
126.55
 11
49.6903
 21
126.843
  0
LINE
  8
0
 10
49.6903
 20
126.843
 11
49.5852
 21
127.153
  0
LINE
  8
0
 10
49.5852
 20
127.153
 11
49.5214
 21
127.474
  0
LINE
  8
0
 10
49.5214
 20
127.474
 11
49.5
 21
127.8
  0
LINE
  8
0
 10
49.5
 20
127.8
 11
49.5214
 21
128.126
  0
LINE
  8
0
 10
49.5214
 20
128.126
 11
49.5852
 21
128.447
  0
LINE
  8
0
 10
49.5852
 20
128.447
 11
49.6903
 21
128.757
  0
LINE
  8
0
 10
49.6903
 20
128.757
 11
49.8349
 21
129.05
  0
LINE
  8
0
 10
49.8349
 20
129.05
 11
50.0166
 21
129.322
  0
LINE
  8
0
 10
50.0166
 20
129.322
 11
50.2322
 21
129.568
  0
LINE
  8
0
 10
50.2322
 20
129.568
 11
50.4781
 21
129.783
  0
LINE
  8
0
 10
50.4781
 20
129.783
 11
50.75
 21
129.965
  0
LINE
  8
0
 10
50.75
 20
129.965
 11
51.0433
 21
130.11
  0
LINE
  8
0
 10
51.0433
 20
130.11
 11
51.353
 21
130.215
  0
LINE
  8
0
 10
51.353
 20
130.215
 11
51.6737
 21
130.279
  0
LINE
  8
0
 10
51.6737
 20
130.279
 11
52
 21
130.3
  0
LINE
  8
0
 10
52
 20
130.3
 11
52.3263
 21
130.279
  0
LINE
  8
0
 10
52.3263
 20
130.279
 11
52.647
 21
130.215
  0
LINE
  8
0
 10
52.647
 20
130.215
 11
52.9567
 21
130.11
  0
LINE
  8
0
 10
52.9567
 20
130.11
 11
53.25
 21
129.965
  0
LINE
  8
0
 10
53.25
 20
129.965
 11
53.5219
 21
129.783
  0
LINE
  8
0
 10
53.5219
 20
129.783
 11
53.7678
 21
129.568
  0
LINE
  8
0
 10
53.7678
 20
129.568
 11
53.9834
 21
129.322
  0
LINE
  8
0
 10
53.9834
 20
129.322
 11
54.1651
 21
129.05
  0
LINE
  8
0
 10
54.1651
 20
129.05
 11
54.3097
 21
128.757
  0
LINE
  8
0
 10
54.3097
 20
128.757
 11
54.4148
 21
128.447
  0
LINE
  8
0
 10
54.4148
 20
128.447
 11
54.4786
 21
128.126
  0
LINE
  8
0
 10
54.4786
 20
128.126
 11
54.5
 21
127.8
  0
LINE
  8
0
 10
54.5
 20
127.8
 11
54.4786
 21
127.474
  0
LINE
  8
0
 10
54.4786
 20
127.474
 11
54.4148
 21
127.153
  0
LINE
  8
0
 10
54.4148
 20
127.153
 11
54.3097
 21
126.843
  0
LINE
  8
0
 10
54.3097
 20
126.843
 11
54.1651
 21
126.55
  0
LINE
  8
0
 10
54.1651
 20
126.55
 11
53.9834
 21
126.278
  0
LINE
  8
0
 10
53.9834
 20
126.278
 11
53.7678
 21
126.032
  0
LINE
  8
0
 10
53.7678
 20
126.032
 11
53.5219
 21
125.817
  0
LINE
  8
0
 10
53.5219
 20
125.817
 11
53.25
 21
125.635
  0
LINE
  8
0
 10
53.25
 20
125.635
 11
52.9567
 21
125.49
  0
LINE
  8
0
 10
52.9567
 20
125.49
 11
52.647
 21
125.385
  0
LINE
  8
0
 10
52.647
 20
125.385
 11
52.3263
 21
125.321
  0
LINE
  8
0
 10
52.3263
 20
125.321
 11
52
 21
125.3
  0
LINE
  8
0
 10
52
 20
125.3
 11
51.6737
 21
125.321
  0
LINE
  8
0
 10
63.6737
 20
125.321
 11
63.353
 21
125.385
  0
LINE
  8
0
 10
63.353
 20
125.385
 11
63.0433
 21
125.49
  0
LINE
  8
0
 10
63.0433
 20
125.49
 11
62.75
 21
125.635
  0
LINE
  8
0
 10
62.75
 20
125.635
 11
62.4781
 21
125.817
  0
LINE
  8
0
 10
62.4781
 20
125.817
 11
62.2322
 21
126.032
  0
LINE
  8
0
 10
62.2322
 20
126.032
 11
62.0166
 21
126.278
  0
LINE
  8
0
 10
62.0166
 20
126.278
 11
61.8349
 21
126.55
  0
LINE
  8
0
 10
61.8349
 20
126.55
 11
61.6903
 21
126.843
  0
LINE
  8
0
 10
61.6903
 20
126.843
 11
61.5852
 21
127.153
  0
LINE
  8
0
 10
61.5852
 20
127.153
 11
61.5214
 21
127.474
  0
LINE
  8
0
 10
61.5214
 20
127.474
 11
61.5
 21
127.8
  0
LINE
  8
0
 10
61.5
 20
127.8
 11
61.5214
 21
128.126
  0
LINE
  8
0
 10
61.5214
 20
128.126
 11
61.5852
 21
128.447
  0
LINE
  8
0
 10
61.5852
 20
128.447
 11
61.6903
 21
128.757
  0
LINE
  8
0
 10
61.6903
 20
128.757
 11
61.8349
 21
129.05
  0
LINE
  8
0
 10
61.8349
 20
129.05
 11
62.0166
 21
129.322
  0
LINE
  8
0
 10
62.0166
 20
129.322
 11
62.2322
 21
129.568
  0
LINE
  8
0
 10
62.2322
 20
129.568
 11
62.4781
 21
129.783
  0
LINE
  8
0
 10
62.4781
 20
129.783
 11
62.75
 21
129.965
  0
LINE
  8
0
 10
62.75
 20
129.965
 11
63.0433
 21
130.11
  0
LINE
  8
0
 10
63.0433
 20
130.11
 11
63.353
 21
130.215
  0
LINE
  8
0
 10
63.353
 20
130.215
 11
63.6737
 21
130.279
  0
LINE
  8
0
 10
63.6737
 20
130.279
 11
64
 21
130.3
  0
LINE
  8
0
 10
64
 20
130.3
 11
64.3263
 21
130.279
  0
LINE
  8
0
 10
64.3263
 20
130.279
 11
64.647
 21
130.215
  0
LINE
  8
0
 10
64.647
 20
130.215
 11
64.9567
 21
130.11
  0
LINE
  8
0
 10
64.9567
 20
130.11
 11
65.25
 21
129.965
  0
LINE
  8
0
 10
65.25
 20
129.965
 11
65.5219
 21
129.783
  0
LINE
  8
0
 10
65.5219
 20
129.783
 11
65.7678
 21
129.568
  0
LINE
  8
0
 10
65.7678
 20
129.568
 11
65.9834
 21
129.322
  0
LINE
  8
0
 10
65.9834
 20
129.322
 11
66.1651
 21
129.05
  0
LINE
  8
0
 10
66.1651
 20
129.05
 11
66.3097
 21
128.757
  0
LINE
  8
0
 10
66.3097
 20
128.757
 11
66.4148
 21
128.447
  0
LINE
  8
0
 10
66.4148
 20
128.447
 11
66.4786
 21
128.126
  0
LINE
  8
0
 10
66.4786
 20
128.126
 11
66.5
 21
127.8
  0
LINE
  8
0
 10
66.5
 20
127.8
 11
66.4786
 21
127.474
  0
LINE
  8
0
 10
66.4786
 20
127.474
 11
66.4148
 21
127.153
  0
LINE
  8
0
 10
66.4148
 20
127.153
 11
66.3097
 21
126.843
  0
LINE
  8
0
 10
66.3097
 20
126.843
 11
66.1651
 21
126.55
  0
LINE
  8
0
 10
66.1651
 20
126.55
 11
65.9834
 21
126.278
  0
LINE
  8
0
 10
65.9834
 20
126.278
 11
65.7678
 21
126.032
  0
LINE
  8
0
 10
65.7678
 20
126.032
 11
65.5219
 21
125.817
  0
LINE
  8
0
 10
65.5219
 20
125.817
 11
65.25
 21
125.635
  0
LINE
  8
0
 10
65.25
 20
125.635
 11
64.9567
 21
125.49
  0
LINE
  8
0
 10
64.9567
 20
125.49
 11
64.647
 21
125.385
  0
LINE
  8
0
 10
64.647
 20
125.385
 11
64.3263
 21
125.321
  0
LINE
  8
0
 10
64.3263
 20
125.321
 11
64
 21
125.3
  0
LINE
  8
0
 10
64
 20
125.3
 11
63.6737
 21
125.321
  0
LINE
  8
0
 10
100.647
 20
130.215
 11
100.957
 21
130.11
  0
LINE
  8
0
 10
100.957
 20
130.11
 11
101.25
 21
129.965
  0
LINE
  8
0
 10
101.25
 20
129.965
 11
101.522
 21
129.783
  0
LINE
  8
0
 10
101.522
 20
129.783
 11
101.768
 21
129.568
  0
LINE
  8
0
 10
101.768
 20
129.568
 11
101.983
 21
129.322
  0
LINE
  8
0
 10
101.983
 20
129.322
 11
102.165
 21
129.05
  0
LINE
  8
0
 10
102.165
 20
129.05
 11
102.31
 21
128.757
  0
LINE
  8
0
 10
102.31
 20
128.757
 11
102.415
 21
128.447
  0
LINE
  8
0
 10
102.415
 20
128.447
 11
102.479
 21
128.126
  0
LINE
  8
0
 10
102.479
 20
128.126
 11
102.5
 21
127.8
  0
LINE
  8
0
 10
102.5
 20
127.8
 11
102.479
 21
127.474
  0
LINE
  8
0
 10
102.479
 20
127.474
 11
102.415
 21
127.153
  0
LINE
  8
0
 10
102.415
 20
127.153
 11
102.31
 21
126.843
  0
LINE
  8
0
 10
102.31
 20
126.843
 11
102.165
 21
126.55
  0
LINE
  8
0
 10
102.165
 20
126.55
 11
101.983
 21
126.278
  0
LINE
  8
0
 10
101.983
 20
126.278
 11
101.768
 21
126.032
  0
LINE
  8
0
 10
101.768
 20
126.032
 11
101.522
 21
125.817
  0
LINE
  8
0
 10
101.522
 20
125.817
 11
101.25
 21
125.635
  0
LINE
  8
0
 10
101.25
 20
125.635
 11
100.957
 21
125.49
  0
LINE
  8
0
 10
100.957
 20
125.49
 11
100.647
 21
125.385
  0
LINE
  8
0
 10
100.647
 20
125.385
 11
100.326
 21
125.321
  0
LINE
  8
0
 10
100.326
 20
125.321
 11
100
 21
125.3
  0
LINE
  8
0
 10
100
 20
125.3
 11
99.6737
 21
125.321
  0
LINE
  8
0
 10
99.6737
 20
125.321
 11
99.353
 21
125.385
  0
LINE
  8
0
 10
99.353
 20
125.385
 11
99.0433
 21
125.49
  0
LINE
  8
0
 10
99.0433
 20
125.49
 11
98.75
 21
125.635
  0
LINE
  8
0
 10
98.75
 20
125.635
 11
98.4781
 21
125.817
  0
LINE
  8
0
 10
98.4781
 20
125.817
 11
98.2322
 21
126.032
  0
LINE
  8
0
 10
98.2322
 20
126.032
 11
98.0166
 21
126.278
  0
LINE
  8
0
 10
98.0166
 20
126.278
 11
97.8349
 21
126.55
  0
LINE
  8
0
 10
97.8349
 20
126.55
 11
97.6903
 21
126.843
  0
LINE
  8
0
 10
97.6903
 20
126.843
 11
97.5852
 21
127.153
  0
LINE
  8
0
 10
97.5852
 20
127.153
 11
97.5214
 21
127.474
  0
LINE
  8
0
 10
97.5214
 20
127.474
 11
97.5
 21
127.8
  0
LINE
  8
0
 10
97.5
 20
127.8
 11
97.5214
 21
128.126
  0
LINE
  8
0
 10
97.5214
 20
128.126
 11
97.5852
 21
128.447
  0
LINE
  8
0
 10
97.5852
 20
128.447
 11
97.6903
 21
128.757
  0
LINE
  8
0
 10
97.6903
 20
128.757
 11
97.8349
 21
129.05
  0
LINE
  8
0
 10
97.8349
 20
129.05
 11
98.0166
 21
129.322
  0
LINE
  8
0
 10
98.0166
 20
129.322
 11
98.2322
 21
129.568
  0
LINE
  8
0
 10
98.2322
 20
129.568
 11
98.4781
 21
129.783
  0
LINE
  8
0
 10
98.4781
 20
129.783
 11
98.75
 21
129.965
  0
LINE
  8
0
 10
98.75
 20
129.965
 11
99.0433
 21
130.11
  0
LINE
  8
0
 10
99.0433
 20
130.11
 11
99.353
 21
130.215
  0
LINE
  8
0
 10
99.353
 20
130.215
 11
99.6737
 21
130.279
  0
LINE
  8
0
 10
99.6737
 20
130.279
 11
100
 21
130.3
  0
LINE
  8
0
 10
100
 20
130.3
 11
100.326
 21
130.279
  0
LINE
  8
0
 10
100.326
 20
130.279
 11
100.647
 21
130.215
  0
LINE
  8
0
 10
39.6737
 20
125.321
 11
39.353
 21
125.385
  0
LINE
  8
0
 10
39.353
 20
125.385
 11
39.0433
 21
125.49
  0
LINE
  8
0
 10
39.0433
 20
125.49
 11
38.75
 21
125.635
  0
LINE
  8
0
 10
38.75
 20
125.635
 11
38.4781
 21
125.817
  0
LINE
  8
0
 10
38.4781
 20
125.817
 11
38.2322
 21
126.032
  0
LINE
  8
0
 10
38.2322
 20
126.032
 11
38.0166
 21
126.278
  0
LINE
  8
0
 10
38.0166
 20
126.278
 11
37.8349
 21
126.55
  0
LINE
  8
0
 10
37.8349
 20
126.55
 11
37.6903
 21
126.843
  0
LINE
  8
0
 10
37.6903
 20
126.843
 11
37.5852
 21
127.153
  0
LINE
  8
0
 10
37.5852
 20
127.153
 11
37.5214
 21
127.474
  0
LINE
  8
0
 10
37.5214
 20
127.474
 11
37.5
 21
127.8
  0
LINE
  8
0
 10
37.5
 20
127.8
 11
37.5214
 21
128.126
  0
LINE
  8
0
 10
37.5214
 20
128.126
 11
37.5852
 21
128.447
  0
LINE
  8
0
 10
37.5852
 20
128.447
 11
37.6903
 21
128.757
  0
LINE
  8
0
 10
37.6903
 20
128.757
 11
37.8349
 21
129.05
  0
LINE
  8
0
 10
37.8349
 20
129.05
 11
38.0166
 21
129.322
  0
LINE
  8
0
 10
38.0166
 20
129.322
 11
38.2322
 21
129.568
  0
LINE
  8
0
 10
38.2322
 20
129.568
 11
38.4781
 21
129.783
  0
LINE
  8
0
 10
38.4781
 20
129.783
 11
38.75
 21
129.965
  0
LINE
  8
0
 10
38.75
 20
129.965
 11
39.0433
 21
130.11
  0
LINE
  8
0
 10
39.0433
 20
130.11
 11
39.353
 21
130.215
  0
LINE
  8
0
 10
39.353
 20
130.215
 11
39.6737
 21
130.279
  0
LINE
  8
0
 10
39.6737
 20
130.279
 11
40
 21
130.3
  0
LINE
  8
0
 10
40
 20
130.3
 11
40.3263
 21
130.279
  0
LINE
  8
0
 10
40.3263
 20
130.279
 11
40.647
 21
130.215
  0
LINE
  8
0
 10
40.647
 20
130.215
 11
40.9567
 21
130.11
  0
LINE
  8
0
 10
40.9567
 20
130.11
 11
41.25
 21
129.965
  0
LINE
  8
0
 10
41.25
 20
129.965
 11
41.5219
 21
129.783
  0
LINE
  8
0
 10
41.5219
 20
129.783
 11
41.7678
 21
129.568
  0
LINE
  8
0
 10
41.7678
 20
129.568
 11
41.9834
 21
129.322
  0
LINE
  8
0
 10
41.9834
 20
129.322
 11
42.1651
 21
129.05
  0
LINE
  8
0
 10
42.1651
 20
129.05
 11
42.3097
 21
128.757
  0
LINE
  8
0
 10
42.3097
 20
128.757
 11
42.4148
 21
128.447
  0
LINE
  8
0
 10
42.4148
 20
128.447
 11
42.4786
 21
128.126
  0
LINE
  8
0
 10
42.4786
 20
128.126
 11
42.5
 21
127.8
  0
LINE
  8
0
 10
42.5
 20
127.8
 11
42.4786
 21
127.474
  0
LINE
  8
0
 10
42.4786
 20
127.474
 11
42.4148
 21
127.153
  0
LINE
  8
0
 10
42.4148
 20
127.153
 11
42.3097
 21
126.843
  0
LINE
  8
0
 10
42.3097
 20
126.843
 11
42.1651
 21
126.55
  0
LINE
  8
0
 10
42.1651
 20
126.55
 11
41.9834
 21
126.278
  0
LINE
  8
0
 10
41.9834
 20
126.278
 11
41.7678
 21
126.032
  0
LINE
  8
0
 10
41.7678
 20
126.032
 11
41.5219
 21
125.817
  0
LINE
  8
0
 10
41.5219
 20
125.817
 11
41.25
 21
125.635
  0
LINE
  8
0
 10
41.25
 20
125.635
 11
40.9567
 21
125.49
  0
LINE
  8
0
 10
40.9567
 20
125.49
 11
40.647
 21
125.385
  0
LINE
  8
0
 10
40.647
 20
125.385
 11
40.3263
 21
125.321
  0
LINE
  8
0
 10
40.3263
 20
125.321
 11
40
 21
125.3
  0
LINE
  8
0
 10
40
 20
125.3
 11
39.6737
 21
125.321
  0
LINE
  8
0
 10
111.674
 20
125.321
 11
111.353
 21
125.385
  0
LINE
  8
0
 10
111.353
 20
125.385
 11
111.043
 21
125.49
  0
LINE
  8
0
 10
111.043
 20
125.49
 11
110.75
 21
125.635
  0
LINE
  8
0
 10
110.75
 20
125.635
 11
110.478
 21
125.817
  0
LINE
  8
0
 10
110.478
 20
125.817
 11
110.232
 21
126.032
  0
LINE
  8
0
 10
110.232
 20
126.032
 11
110.017
 21
126.278
  0
LINE
  8
0
 10
110.017
 20
126.278
 11
109.835
 21
126.55
  0
LINE
  8
0
 10
109.835
 20
126.55
 11
109.69
 21
126.843
  0
LINE
  8
0
 10
109.69
 20
126.843
 11
109.585
 21
127.153
  0
LINE
  8
0
 10
109.585
 20
127.153
 11
109.521
 21
127.474
  0
LINE
  8
0
 10
109.521
 20
127.474
 11
109.5
 21
127.8
  0
LINE
  8
0
 10
109.5
 20
127.8
 11
109.521
 21
128.126
  0
LINE
  8
0
 10
109.521
 20
128.126
 11
109.585
 21
128.447
  0
LINE
  8
0
 10
109.585
 20
128.447
 11
109.69
 21
128.757
  0
LINE
  8
0
 10
109.69
 20
128.757
 11
109.835
 21
129.05
  0
LINE
  8
0
 10
109.835
 20
129.05
 11
110.017
 21
129.322
  0
LINE
  8
0
 10
110.017
 20
129.322
 11
110.232
 21
129.568
  0
LINE
  8
0
 10
110.232
 20
129.568
 11
110.478
 21
129.783
  0
LINE
  8
0
 10
110.478
 20
129.783
 11
110.75
 21
129.965
  0
LINE
  8
0
 10
110.75
 20
129.965
 11
111.043
 21
130.11
  0
LINE
  8
0
 10
111.043
 20
130.11
 11
111.353
 21
130.215
  0
LINE
  8
0
 10
111.353
 20
130.215
 11
111.674
 21
130.279
  0
LINE
  8
0
 10
111.674
 20
130.279
 11
112
 21
130.3
  0
LINE
  8
0
 10
112
 20
130.3
 11
112.326
 21
130.279
  0
LINE
  8
0
 10
112.326
 20
130.279
 11
112.647
 21
130.215
  0
LINE
  8
0
 10
112.647
 20
130.215
 11
112.957
 21
130.11
  0
LINE
  8
0
 10
112.957
 20
130.11
 11
113.25
 21
129.965
  0
LINE
  8
0
 10
113.25
 20
129.965
 11
113.522
 21
129.783
  0
LINE
  8
0
 10
113.522
 20
129.783
 11
113.768
 21
129.568
  0
LINE
  8
0
 10
113.768
 20
129.568
 11
113.983
 21
129.322
  0
LINE
  8
0
 10
113.983
 20
129.322
 11
114.165
 21
129.05
  0
LINE
  8
0
 10
114.165
 20
129.05
 11
114.31
 21
128.757
  0
LINE
  8
0
 10
114.31
 20
128.757
 11
114.415
 21
128.447
  0
LINE
  8
0
 10
114.415
 20
128.447
 11
114.479
 21
128.126
  0
LINE
  8
0
 10
114.479
 20
128.126
 11
114.5
 21
127.8
  0
LINE
  8
0
 10
114.5
 20
127.8
 11
114.479
 21
127.474
  0
LINE
  8
0
 10
114.479
 20
127.474
 11
114.415
 21
127.153
  0
LINE
  8
0
 10
114.415
 20
127.153
 11
114.31
 21
126.843
  0
LINE
  8
0
 10
114.31
 20
126.843
 11
114.165
 21
126.55
  0
LINE
  8
0
 10
114.165
 20
126.55
 11
113.983
 21
126.278
  0
LINE
  8
0
 10
113.983
 20
126.278
 11
113.768
 21
126.032
  0
LINE
  8
0
 10
113.768
 20
126.032
 11
113.522
 21
125.817
  0
LINE
  8
0
 10
113.522
 20
125.817
 11
113.25
 21
125.635
  0
LINE
  8
0
 10
113.25
 20
125.635
 11
112.957
 21
125.49
  0
LINE
  8
0
 10
112.957
 20
125.49
 11
112.647
 21
125.385
  0
LINE
  8
0
 10
112.647
 20
125.385
 11
112.326
 21
125.321
  0
LINE
  8
0
 10
112.326
 20
125.321
 11
112
 21
125.3
  0
LINE
  8
0
 10
112
 20
125.3
 11
111.674
 21
125.321
  0
LINE
  8
0
 10
73.6903
 20
114.843
 11
73.5852
 21
115.153
  0
LINE
  8
0
 10
73.5852
 20
115.153
 11
73.5214
 21
115.474
  0
LINE
  8
0
 10
73.5214
 20
115.474
 11
73.5
 21
115.8
  0
LINE
  8
0
 10
73.5
 20
115.8
 11
73.5214
 21
116.126
  0
LINE
  8
0
 10
73.5214
 20
116.126
 11
73.5852
 21
116.447
  0
LINE
  8
0
 10
73.5852
 20
116.447
 11
73.6903
 21
116.757
  0
LINE
  8
0
 10
73.6903
 20
116.757
 11
73.8349
 21
117.05
  0
LINE
  8
0
 10
73.8349
 20
117.05
 11
74.0166
 21
117.322
  0
LINE
  8
0
 10
74.0166
 20
117.322
 11
74.2322
 21
117.568
  0
LINE
  8
0
 10
74.2322
 20
117.568
 11
74.4781
 21
117.783
  0
LINE
  8
0
 10
74.4781
 20
117.783
 11
74.75
 21
117.965
  0
LINE
  8
0
 10
74.75
 20
117.965
 11
75.0433
 21
118.11
  0
LINE
  8
0
 10
75.0433
 20
118.11
 11
75.353
 21
118.215
  0
LINE
  8
0
 10
75.353
 20
118.215
 11
75.6737
 21
118.279
  0
LINE
  8
0
 10
75.6737
 20
118.279
 11
76
 21
118.3
  0
LINE
  8
0
 10
76
 20
118.3
 11
76.3263
 21
118.279
  0
LINE
  8
0
 10
76.3263
 20
118.279
 11
76.647
 21
118.215
  0
LINE
  8
0
 10
76.647
 20
118.215
 11
76.9567
 21
118.11
  0
LINE
  8
0
 10
76.9567
 20
118.11
 11
77.25
 21
117.965
  0
LINE
  8
0
 10
77.25
 20
117.965
 11
77.5219
 21
117.783
  0
LINE
  8
0
 10
77.5219
 20
117.783
 11
77.7678
 21
117.568
  0
LINE
  8
0
 10
77.7678
 20
117.568
 11
77.9834
 21
117.322
  0
LINE
  8
0
 10
77.9834
 20
117.322
 11
78.1651
 21
117.05
  0
LINE
  8
0
 10
78.1651
 20
117.05
 11
78.3097
 21
116.757
  0
LINE
  8
0
 10
78.3097
 20
116.757
 11
78.4148
 21
116.447
  0
LINE
  8
0
 10
78.4148
 20
116.447
 11
78.4786
 21
116.126
  0
LINE
  8
0
 10
78.4786
 20
116.126
 11
78.5
 21
115.8
  0
LINE
  8
0
 10
78.5
 20
115.8
 11
78.4786
 21
115.474
  0
LINE
  8
0
 10
78.4786
 20
115.474
 11
78.4148
 21
115.153
  0
LINE
  8
0
 10
78.4148
 20
115.153
 11
78.3097
 21
114.843
  0
LINE
  8
0
 10
78.3097
 20
114.843
 11
78.1651
 21
114.55
  0
LINE
  8
0
 10
78.1651
 20
114.55
 11
77.9834
 21
114.278
  0
LINE
  8
0
 10
77.9834
 20
114.278
 11
77.7678
 21
114.032
  0
LINE
  8
0
 10
77.7678
 20
114.032
 11
77.5219
 21
113.817
  0
LINE
  8
0
 10
77.5219
 20
113.817
 11
77.25
 21
113.635
  0
LINE
  8
0
 10
77.25
 20
113.635
 11
76.9567
 21
113.49
  0
LINE
  8
0
 10
76.9567
 20
113.49
 11
76.647
 21
113.385
  0
LINE
  8
0
 10
76.647
 20
113.385
 11
76.3263
 21
113.321
  0
LINE
  8
0
 10
76.3263
 20
113.321
 11
76
 21
113.3
  0
LINE
  8
0
 10
76
 20
113.3
 11
75.6737
 21
113.321
  0
LINE
  8
0
 10
75.6737
 20
113.321
 11
75.353
 21
113.385
  0
LINE
  8
0
 10
75.353
 20
113.385
 11
75.0433
 21
113.49
  0
LINE
  8
0
 10
75.0433
 20
113.49
 11
74.75
 21
113.635
  0
LINE
  8
0
 10
74.75
 20
113.635
 11
74.4781
 21
113.817
  0
LINE
  8
0
 10
74.4781
 20
113.817
 11
74.2322
 21
114.032
  0
LINE
  8
0
 10
74.2322
 20
114.032
 11
74.0166
 21
114.278
  0
LINE
  8
0
 10
74.0166
 20
114.278
 11
73.8349
 21
114.55
  0
LINE
  8
0
 10
73.8349
 20
114.55
 11
73.6903
 21
114.843
  0
LINE
  8
0
 10
123.674
 20
113.321
 11
123.353
 21
113.385
  0
LINE
  8
0
 10
123.353
 20
113.385
 11
123.043
 21
113.49
  0
LINE
  8
0
 10
123.043
 20
113.49
 11
122.75
 21
113.635
  0
LINE
  8
0
 10
122.75
 20
113.635
 11
122.478
 21
113.817
  0
LINE
  8
0
 10
122.478
 20
113.817
 11
122.232
 21
114.032
  0
LINE
  8
0
 10
122.232
 20
114.032
 11
122.017
 21
114.278
  0
LINE
  8
0
 10
122.017
 20
114.278
 11
121.835
 21
114.55
  0
LINE
  8
0
 10
121.835
 20
114.55
 11
121.69
 21
114.843
  0
LINE
  8
0
 10
121.69
 20
114.843
 11
121.585
 21
115.153
  0
LINE
  8
0
 10
121.585
 20
115.153
 11
121.521
 21
115.474
  0
LINE
  8
0
 10
121.521
 20
115.474
 11
121.5
 21
115.8
  0
LINE
  8
0
 10
121.5
 20
115.8
 11
121.521
 21
116.126
  0
LINE
  8
0
 10
121.521
 20
116.126
 11
121.585
 21
116.447
  0
LINE
  8
0
 10
121.585
 20
116.447
 11
121.69
 21
116.757
  0
LINE
  8
0
 10
121.69
 20
116.757
 11
121.835
 21
117.05
  0
LINE
  8
0
 10
121.835
 20
117.05
 11
122.017
 21
117.322
  0
LINE
  8
0
 10
122.017
 20
117.322
 11
122.232
 21
117.568
  0
LINE
  8
0
 10
122.232
 20
117.568
 11
122.478
 21
117.783
  0
LINE
  8
0
 10
122.478
 20
117.783
 11
122.75
 21
117.965
  0
LINE
  8
0
 10
122.75
 20
117.965
 11
123.043
 21
118.11
  0
LINE
  8
0
 10
123.043
 20
118.11
 11
123.353
 21
118.215
  0
LINE
  8
0
 10
123.353
 20
118.215
 11
123.674
 21
118.279
  0
LINE
  8
0
 10
123.674
 20
118.279
 11
124
 21
118.3
  0
LINE
  8
0
 10
124
 20
118.3
 11
124.326
 21
118.279
  0
LINE
  8
0
 10
124.326
 20
118.279
 11
124.647
 21
118.215
  0
LINE
  8
0
 10
124.647
 20
118.215
 11
124.957
 21
118.11
  0
LINE
  8
0
 10
124.957
 20
118.11
 11
125.25
 21
117.965
  0
LINE
  8
0
 10
125.25
 20
117.965
 11
125.522
 21
117.783
  0
LINE
  8
0
 10
125.522
 20
117.783
 11
125.768
 21
117.568
  0
LINE
  8
0
 10
125.768
 20
117.568
 11
125.983
 21
117.322
  0
LINE
  8
0
 10
125.983
 20
117.322
 11
126.165
 21
117.05
  0
LINE
  8
0
 10
126.165
 20
117.05
 11
126.31
 21
116.757
  0
LINE
  8
0
 10
126.31
 20
116.757
 11
126.415
 21
116.447
  0
LINE
  8
0
 10
126.415
 20
116.447
 11
126.479
 21
116.126
  0
LINE
  8
0
 10
126.479
 20
116.126
 11
126.5
 21
115.8
  0
LINE
  8
0
 10
126.5
 20
115.8
 11
126.479
 21
115.474
  0
LINE
  8
0
 10
126.479
 20
115.474
 11
126.415
 21
115.153
  0
LINE
  8
0
 10
126.415
 20
115.153
 11
126.31
 21
114.843
  0
LINE
  8
0
 10
126.31
 20
114.843
 11
126.165
 21
114.55
  0
LINE
  8
0
 10
126.165
 20
114.55
 11
125.983
 21
114.278
  0
LINE
  8
0
 10
125.983
 20
114.278
 11
125.768
 21
114.032
  0
LINE
  8
0
 10
125.768
 20
114.032
 11
125.522
 21
113.817
  0
LINE
  8
0
 10
125.522
 20
113.817
 11
125.25
 21
113.635
  0
LINE
  8
0
 10
125.25
 20
113.635
 11
124.957
 21
113.49
  0
LINE
  8
0
 10
124.957
 20
113.49
 11
124.647
 21
113.385
  0
LINE
  8
0
 10
124.647
 20
113.385
 11
124.326
 21
113.321
  0
LINE
  8
0
 10
124.326
 20
113.321
 11
124
 21
113.3
  0
LINE
  8
0
 10
124
 20
113.3
 11
123.674
 21
113.321
  0
LINE
  8
0
 10
39.6737
 20
113.321
 11
39.353
 21
113.385
  0
LINE
  8
0
 10
39.353
 20
113.385
 11
39.0433
 21
113.49
  0
LINE
  8
0
 10
39.0433
 20
113.49
 11
38.75
 21
113.635
  0
LINE
  8
0
 10
38.75
 20
113.635
 11
38.4781
 21
113.817
  0
LINE
  8
0
 10
38.4781
 20
113.817
 11
38.2322
 21
114.032
  0
LINE
  8
0
 10
38.2322
 20
114.032
 11
38.0166
 21
114.278
  0
LINE
  8
0
 10
38.0166
 20
114.278
 11
37.8349
 21
114.55
  0
LINE
  8
0
 10
37.8349
 20
114.55
 11
37.6903
 21
114.843
  0
LINE
  8
0
 10
37.6903
 20
114.843
 11
37.5852
 21
115.153
  0
LINE
  8
0
 10
37.5852
 20
115.153
 11
37.5214
 21
115.474
  0
LINE
  8
0
 10
37.5214
 20
115.474
 11
37.5
 21
115.8
  0
LINE
  8
0
 10
37.5
 20
115.8
 11
37.5214
 21
116.126
  0
LINE
  8
0
 10
37.5214
 20
116.126
 11
37.5852
 21
116.447
  0
LINE
  8
0
 10
37.5852
 20
116.447
 11
37.6903
 21
116.757
  0
LINE
  8
0
 10
37.6903
 20
116.757
 11
37.8349
 21
117.05
  0
LINE
  8
0
 10
37.8349
 20
117.05
 11
38.0166
 21
117.322
  0
LINE
  8
0
 10
38.0166
 20
117.322
 11
38.2322
 21
117.568
  0
LINE
  8
0
 10
38.2322
 20
117.568
 11
38.4781
 21
117.783
  0
LINE
  8
0
 10
38.4781
 20
117.783
 11
38.75
 21
117.965
  0
LINE
  8
0
 10
38.75
 20
117.965
 11
39.0433
 21
118.11
  0
LINE
  8
0
 10
39.0433
 20
118.11
 11
39.353
 21
118.215
  0
LINE
  8
0
 10
39.353
 20
118.215
 11
39.6737
 21
118.279
  0
LINE
  8
0
 10
39.6737
 20
118.279
 11
40
 21
118.3
  0
LINE
  8
0
 10
40
 20
118.3
 11
40.3263
 21
118.279
  0
LINE
  8
0
 10
40.3263
 20
118.279
 11
40.647
 21
118.215
  0
LINE
  8
0
 10
40.647
 20
118.215
 11
40.9567
 21
118.11
  0
LINE
  8
0
 10
40.9567
 20
118.11
 11
41.25
 21
117.965
  0
LINE
  8
0
 10
41.25
 20
117.965
 11
41.5219
 21
117.783
  0
LINE
  8
0
 10
41.5219
 20
117.783
 11
41.7678
 21
117.568
  0
LINE
  8
0
 10
41.7678
 20
117.568
 11
41.9834
 21
117.322
  0
LINE
  8
0
 10
41.9834
 20
117.322
 11
42.1651
 21
117.05
  0
LINE
  8
0
 10
42.1651
 20
117.05
 11
42.3097
 21
116.757
  0
LINE
  8
0
 10
42.3097
 20
116.757
 11
42.4148
 21
116.447
  0
LINE
  8
0
 10
42.4148
 20
116.447
 11
42.4786
 21
116.126
  0
LINE
  8
0
 10
42.4786
 20
116.126
 11
42.5
 21
115.8
  0
LINE
  8
0
 10
42.5
 20
115.8
 11
42.4786
 21
115.474
  0
LINE
  8
0
 10
42.4786
 20
115.474
 11
42.4148
 21
115.153
  0
LINE
  8
0
 10
42.4148
 20
115.153
 11
42.3097
 21
114.843
  0
LINE
  8
0
 10
42.3097
 20
114.843
 11
42.1651
 21
114.55
  0
LINE
  8
0
 10
42.1651
 20
114.55
 11
41.9834
 21
114.278
  0
LINE
  8
0
 10
41.9834
 20
114.278
 11
41.7678
 21
114.032
  0
LINE
  8
0
 10
41.7678
 20
114.032
 11
41.5219
 21
113.817
  0
LINE
  8
0
 10
41.5219
 20
113.817
 11
41.25
 21
113.635
  0
LINE
  8
0
 10
41.25
 20
113.635
 11
40.9567
 21
113.49
  0
LINE
  8
0
 10
40.9567
 20
113.49
 11
40.647
 21
113.385
  0
LINE
  8
0
 10
40.647
 20
113.385
 11
40.3263
 21
113.321
  0
LINE
  8
0
 10
40.3263
 20
113.321
 11
40
 21
113.3
  0
LINE
  8
0
 10
40
 20
113.3
 11
39.6737
 21
113.321
  0
LINE
  8
0
 10
51.6737
 20
113.321
 11
51.353
 21
113.385
  0
LINE
  8
0
 10
51.353
 20
113.385
 11
51.0433
 21
113.49
  0
LINE
  8
0
 10
51.0433
 20
113.49
 11
50.75
 21
113.635
  0
LINE
  8
0
 10
50.75
 20
113.635
 11
50.4781
 21
113.817
  0
LINE
  8
0
 10
50.4781
 20
113.817
 11
50.2322
 21
114.032
  0
LINE
  8
0
 10
50.2322
 20
114.032
 11
50.0166
 21
114.278
  0
LINE
  8
0
 10
50.0166
 20
114.278
 11
49.8349
 21
114.55
  0
LINE
  8
0
 10
49.8349
 20
114.55
 11
49.6903
 21
114.843
  0
LINE
  8
0
 10
49.6903
 20
114.843
 11
49.5852
 21
115.153
  0
LINE
  8
0
 10
49.5852
 20
115.153
 11
49.5214
 21
115.474
  0
LINE
  8
0
 10
49.5214
 20
115.474
 11
49.5
 21
115.8
  0
LINE
  8
0
 10
49.5
 20
115.8
 11
49.5214
 21
116.126
  0
LINE
  8
0
 10
49.5214
 20
116.126
 11
49.5852
 21
116.447
  0
LINE
  8
0
 10
49.5852
 20
116.447
 11
49.6903
 21
116.757
  0
LINE
  8
0
 10
49.6903
 20
116.757
 11
49.8349
 21
117.05
  0
LINE
  8
0
 10
49.8349
 20
117.05
 11
50.0166
 21
117.322
  0
LINE
  8
0
 10
50.0166
 20
117.322
 11
50.2322
 21
117.568
  0
LINE
  8
0
 10
50.2322
 20
117.568
 11
50.4781
 21
117.783
  0
LINE
  8
0
 10
50.4781
 20
117.783
 11
50.75
 21
117.965
  0
LINE
  8
0
 10
50.75
 20
117.965
 11
51.0433
 21
118.11
  0
LINE
  8
0
 10
51.0433
 20
118.11
 11
51.353
 21
118.215
  0
LINE
  8
0
 10
51.353
 20
118.215
 11
51.6737
 21
118.279
  0
LINE
  8
0
 10
51.6737
 20
118.279
 11
52
 21
118.3
  0
LINE
  8
0
 10
52
 20
118.3
 11
52.3263
 21
118.279
  0
LINE
  8
0
 10
52.3263
 20
118.279
 11
52.647
 21
118.215
  0
LINE
  8
0
 10
52.647
 20
118.215
 11
52.9567
 21
118.11
  0
LINE
  8
0
 10
52.9567
 20
118.11
 11
53.25
 21
117.965
  0
LINE
  8
0
 10
53.25
 20
117.965
 11
53.5219
 21
117.783
  0
LINE
  8
0
 10
53.5219
 20
117.783
 11
53.7678
 21
117.568
  0
LINE
  8
0
 10
53.7678
 20
117.568
 11
53.9834
 21
117.322
  0
LINE
  8
0
 10
53.9834
 20
117.322
 11
54.1651
 21
117.05
  0
LINE
  8
0
 10
54.1651
 20
117.05
 11
54.3097
 21
116.757
  0
LINE
  8
0
 10
54.3097
 20
116.757
 11
54.4148
 21
116.447
  0
LINE
  8
0
 10
54.4148
 20
116.447
 11
54.4786
 21
116.126
  0
LINE
  8
0
 10
54.4786
 20
116.126
 11
54.5
 21
115.8
  0
LINE
  8
0
 10
54.5
 20
115.8
 11
54.4786
 21
115.474
  0
LINE
  8
0
 10
54.4786
 20
115.474
 11
54.4148
 21
115.153
  0
LINE
  8
0
 10
54.4148
 20
115.153
 11
54.3097
 21
114.843
  0
LINE
  8
0
 10
54.3097
 20
114.843
 11
54.1651
 21
114.55
  0
LINE
  8
0
 10
54.1651
 20
114.55
 11
53.9834
 21
114.278
  0
LINE
  8
0
 10
53.9834
 20
114.278
 11
53.7678
 21
114.032
  0
LINE
  8
0
 10
53.7678
 20
114.032
 11
53.5219
 21
113.817
  0
LINE
  8
0
 10
53.5219
 20
113.817
 11
53.25
 21
113.635
  0
LINE
  8
0
 10
53.25
 20
113.635
 11
52.9567
 21
113.49
  0
LINE
  8
0
 10
52.9567
 20
113.49
 11
52.647
 21
113.385
  0
LINE
  8
0
 10
52.647
 20
113.385
 11
52.3263
 21
113.321
  0
LINE
  8
0
 10
52.3263
 20
113.321
 11
52
 21
113.3
  0
LINE
  8
0
 10
52
 20
113.3
 11
51.6737
 21
113.321
  0
LINE
  8
0
 10
87.6737
 20
113.321
 11
87.353
 21
113.385
  0
LINE
  8
0
 10
87.353
 20
113.385
 11
87.0433
 21
113.49
  0
LINE
  8
0
 10
87.0433
 20
113.49
 11
86.75
 21
113.635
  0
LINE
  8
0
 10
86.75
 20
113.635
 11
86.4781
 21
113.817
  0
LINE
  8
0
 10
86.4781
 20
113.817
 11
86.2322
 21
114.032
  0
LINE
  8
0
 10
86.2322
 20
114.032
 11
86.0166
 21
114.278
  0
LINE
  8
0
 10
86.0166
 20
114.278
 11
85.8349
 21
114.55
  0
LINE
  8
0
 10
85.8349
 20
114.55
 11
85.6903
 21
114.843
  0
LINE
  8
0
 10
85.6903
 20
114.843
 11
85.5852
 21
115.153
  0
LINE
  8
0
 10
85.5852
 20
115.153
 11
85.5214
 21
115.474
  0
LINE
  8
0
 10
85.5214
 20
115.474
 11
85.5
 21
115.8
  0
LINE
  8
0
 10
85.5
 20
115.8
 11
85.5214
 21
116.126
  0
LINE
  8
0
 10
85.5214
 20
116.126
 11
85.5852
 21
116.447
  0
LINE
  8
0
 10
85.5852
 20
116.447
 11
85.6903
 21
116.757
  0
LINE
  8
0
 10
85.6903
 20
116.757
 11
85.8349
 21
117.05
  0
LINE
  8
0
 10
85.8349
 20
117.05
 11
86.0166
 21
117.322
  0
LINE
  8
0
 10
86.0166
 20
117.322
 11
86.2322
 21
117.568
  0
LINE
  8
0
 10
86.2322
 20
117.568
 11
86.4781
 21
117.783
  0
LINE
  8
0
 10
86.4781
 20
117.783
 11
86.75
 21
117.965
  0
LINE
  8
0
 10
86.75
 20
117.965
 11
87.0433
 21
118.11
  0
LINE
  8
0
 10
87.0433
 20
118.11
 11
87.353
 21
118.215
  0
LINE
  8
0
 10
87.353
 20
118.215
 11
87.6737
 21
118.279
  0
LINE
  8
0
 10
87.6737
 20
118.279
 11
88
 21
118.3
  0
LINE
  8
0
 10
88
 20
118.3
 11
88.3263
 21
118.279
  0
LINE
  8
0
 10
88.3263
 20
118.279
 11
88.647
 21
118.215
  0
LINE
  8
0
 10
88.647
 20
118.215
 11
88.9567
 21
118.11
  0
LINE
  8
0
 10
88.9567
 20
118.11
 11
89.25
 21
117.965
  0
LINE
  8
0
 10
89.25
 20
117.965
 11
89.5219
 21
117.783
  0
LINE
  8
0
 10
89.5219
 20
117.783
 11
89.7678
 21
117.568
  0
LINE
  8
0
 10
89.7678
 20
117.568
 11
89.9834
 21
117.322
  0
LINE
  8
0
 10
89.9834
 20
117.322
 11
90.1651
 21
117.05
  0
LINE
  8
0
 10
90.1651
 20
117.05
 11
90.3097
 21
116.757
  0
LINE
  8
0
 10
90.3097
 20
116.757
 11
90.4148
 21
116.447
  0
LINE
  8
0
 10
90.4148
 20
116.447
 11
90.4786
 21
116.126
  0
LINE
  8
0
 10
90.4786
 20
116.126
 11
90.5
 21
115.8
  0
LINE
  8
0
 10
90.5
 20
115.8
 11
90.4786
 21
115.474
  0
LINE
  8
0
 10
90.4786
 20
115.474
 11
90.4148
 21
115.153
  0
LINE
  8
0
 10
90.4148
 20
115.153
 11
90.3097
 21
114.843
  0
LINE
  8
0
 10
90.3097
 20
114.843
 11
90.1651
 21
114.55
  0
LINE
  8
0
 10
90.1651
 20
114.55
 11
89.9834
 21
114.278
  0
LINE
  8
0
 10
89.9834
 20
114.278
 11
89.7678
 21
114.032
  0
LINE
  8
0
 10
89.7678
 20
114.032
 11
89.5219
 21
113.817
  0
LINE
  8
0
 10
89.5219
 20
113.817
 11
89.25
 21
113.635
  0
LINE
  8
0
 10
89.25
 20
113.635
 11
88.9567
 21
113.49
  0
LINE
  8
0
 10
88.9567
 20
113.49
 11
88.647
 21
113.385
  0
LINE
  8
0
 10
88.647
 20
113.385
 11
88.3263
 21
113.321
  0
LINE
  8
0
 10
88.3263
 20
113.321
 11
88
 21
113.3
  0
LINE
  8
0
 10
88
 20
113.3
 11
87.6737
 21
113.321
  0
LINE
  8
0
 10
99.6737
 20
113.321
 11
99.353
 21
113.385
  0
LINE
  8
0
 10
99.353
 20
113.385
 11
99.0433
 21
113.49
  0
LINE
  8
0
 10
99.0433
 20
113.49
 11
98.75
 21
113.635
  0
LINE
  8
0
 10
98.75
 20
113.635
 11
98.4781
 21
113.817
  0
LINE
  8
0
 10
98.4781
 20
113.817
 11
98.2322
 21
114.032
  0
LINE
  8
0
 10
98.2322
 20
114.032
 11
98.0166
 21
114.278
  0
LINE
  8
0
 10
98.0166
 20
114.278
 11
97.8349
 21
114.55
  0
LINE
  8
0
 10
97.8349
 20
114.55
 11
97.6903
 21
114.843
  0
LINE
  8
0
 10
97.6903
 20
114.843
 11
97.5852
 21
115.153
  0
LINE
  8
0
 10
97.5852
 20
115.153
 11
97.5214
 21
115.474
  0
LINE
  8
0
 10
97.5214
 20
115.474
 11
97.5
 21
115.8
  0
LINE
  8
0
 10
97.5
 20
115.8
 11
97.5214
 21
116.126
  0
LINE
  8
0
 10
97.5214
 20
116.126
 11
97.5852
 21
116.447
  0
LINE
  8
0
 10
97.5852
 20
116.447
 11
97.6903
 21
116.757
  0
LINE
  8
0
 10
97.6903
 20
116.757
 11
97.8349
 21
117.05
  0
LINE
  8
0
 10
97.8349
 20
117.05
 11
98.0166
 21
117.322
  0
LINE
  8
0
 10
98.0166
 20
117.322
 11
98.2322
 21
117.568
  0
LINE
  8
0
 10
98.2322
 20
117.568
 11
98.4781
 21
117.783
  0
LINE
  8
0
 10
98.4781
 20
117.783
 11
98.75
 21
117.965
  0
LINE
  8
0
 10
98.75
 20
117.965
 11
99.0433
 21
118.11
  0
LINE
  8
0
 10
99.0433
 20
118.11
 11
99.353
 21
118.215
  0
LINE
  8
0
 10
99.353
 20
118.215
 11
99.6737
 21
118.279
  0
LINE
  8
0
 10
99.6737
 20
118.279
 11
100
 21
118.3
  0
LINE
  8
0
 10
100
 20
118.3
 11
100.326
 21
118.279
  0
LINE
  8
0
 10
100.326
 20
118.279
 11
100.647
 21
118.215
  0
LINE
  8
0
 10
100.647
 20
118.215
 11
100.957
 21
118.11
  0
LINE
  8
0
 10
100.957
 20
118.11
 11
101.25
 21
117.965
  0
LINE
  8
0
 10
101.25
 20
117.965
 11
101.522
 21
117.783
  0
LINE
  8
0
 10
101.522
 20
117.783
 11
101.768
 21
117.568
  0
LINE
  8
0
 10
101.768
 20
117.568
 11
101.983
 21
117.322
  0
LINE
  8
0
 10
101.983
 20
117.322
 11
102.165
 21
117.05
  0
LINE
  8
0
 10
102.165
 20
117.05
 11
102.31
 21
116.757
  0
LINE
  8
0
 10
102.31
 20
116.757
 11
102.415
 21
116.447
  0
LINE
  8
0
 10
102.415
 20
116.447
 11
102.479
 21
116.126
  0
LINE
  8
0
 10
102.479
 20
116.126
 11
102.5
 21
115.8
  0
LINE
  8
0
 10
102.5
 20
115.8
 11
102.479
 21
115.474
  0
LINE
  8
0
 10
102.479
 20
115.474
 11
102.415
 21
115.153
  0
LINE
  8
0
 10
102.415
 20
115.153
 11
102.31
 21
114.843
  0
LINE
  8
0
 10
102.31
 20
114.843
 11
102.165
 21
114.55
  0
LINE
  8
0
 10
102.165
 20
114.55
 11
101.983
 21
114.278
  0
LINE
  8
0
 10
101.983
 20
114.278
 11
101.768
 21
114.032
  0
LINE
  8
0
 10
101.768
 20
114.032
 11
101.522
 21
113.817
  0
LINE
  8
0
 10
101.522
 20
113.817
 11
101.25
 21
113.635
  0
LINE
  8
0
 10
101.25
 20
113.635
 11
100.957
 21
113.49
  0
LINE
  8
0
 10
100.957
 20
113.49
 11
100.647
 21
113.385
  0
LINE
  8
0
 10
100.647
 20
113.385
 11
100.326
 21
113.321
  0
LINE
  8
0
 10
100.326
 20
113.321
 11
100
 21
113.3
  0
LINE
  8
0
 10
100
 20
113.3
 11
99.6737
 21
113.321
  0
LINE
  8
0
 10
111.674
 20
113.321
 11
111.353
 21
113.385
  0
LINE
  8
0
 10
111.353
 20
113.385
 11
111.043
 21
113.49
  0
LINE
  8
0
 10
111.043
 20
113.49
 11
110.75
 21
113.635
  0
LINE
  8
0
 10
110.75
 20
113.635
 11
110.478
 21
113.817
  0
LINE
  8
0
 10
110.478
 20
113.817
 11
110.232
 21
114.032
  0
LINE
  8
0
 10
110.232
 20
114.032
 11
110.017
 21
114.278
  0
LINE
  8
0
 10
110.017
 20
114.278
 11
109.835
 21
114.55
  0
LINE
  8
0
 10
109.835
 20
114.55
 11
109.69
 21
114.843
  0
LINE
  8
0
 10
109.69
 20
114.843
 11
109.585
 21
115.153
  0
LINE
  8
0
 10
109.585
 20
115.153
 11
109.521
 21
115.474
  0
LINE
  8
0
 10
109.521
 20
115.474
 11
109.5
 21
115.8
  0
LINE
  8
0
 10
109.5
 20
115.8
 11
109.521
 21
116.126
  0
LINE
  8
0
 10
109.521
 20
116.126
 11
109.585
 21
116.447
  0
LINE
  8
0
 10
109.585
 20
116.447
 11
109.69
 21
116.757
  0
LINE
  8
0
 10
109.69
 20
116.757
 11
109.835
 21
117.05
  0
LINE
  8
0
 10
109.835
 20
117.05
 11
110.017
 21
117.322
  0
LINE
  8
0
 10
110.017
 20
117.322
 11
110.232
 21
117.568
  0
LINE
  8
0
 10
110.232
 20
117.568
 11
110.478
 21
117.783
  0
LINE
  8
0
 10
110.478
 20
117.783
 11
110.75
 21
117.965
  0
LINE
  8
0
 10
110.75
 20
117.965
 11
111.043
 21
118.11
  0
LINE
  8
0
 10
111.043
 20
118.11
 11
111.353
 21
118.215
  0
LINE
  8
0
 10
111.353
 20
118.215
 11
111.674
 21
118.279
  0
LINE
  8
0
 10
111.674
 20
118.279
 11
112
 21
118.3
  0
LINE
  8
0
 10
112
 20
118.3
 11
112.326
 21
118.279
  0
LINE
  8
0
 10
112.326
 20
118.279
 11
112.647
 21
118.215
  0
LINE
  8
0
 10
112.647
 20
118.215
 11
112.957
 21
118.11
  0
LINE
  8
0
 10
112.957
 20
118.11
 11
113.25
 21
117.965
  0
LINE
  8
0
 10
113.25
 20
117.965
 11
113.522
 21
117.783
  0
LINE
  8
0
 10
113.522
 20
117.783
 11
113.768
 21
117.568
  0
LINE
  8
0
 10
113.768
 20
117.568
 11
113.983
 21
117.322
  0
LINE
  8
0
 10
113.983
 20
117.322
 11
114.165
 21
117.05
  0
LINE
  8
0
 10
114.165
 20
117.05
 11
114.31
 21
116.757
  0
LINE
  8
0
 10
114.31
 20
116.757
 11
114.415
 21
116.447
  0
LINE
  8
0
 10
114.415
 20
116.447
 11
114.479
 21
116.126
  0
LINE
  8
0
 10
114.479
 20
116.126
 11
114.5
 21
115.8
  0
LINE
  8
0
 10
114.5
 20
115.8
 11
114.479
 21
115.474
  0
LINE
  8
0
 10
114.479
 20
115.474
 11
114.415
 21
115.153
  0
LINE
  8
0
 10
114.415
 20
115.153
 11
114.31
 21
114.843
  0
LINE
  8
0
 10
114.31
 20
114.843
 11
114.165
 21
114.55
  0
LINE
  8
0
 10
114.165
 20
114.55
 11
113.983
 21
114.278
  0
LINE
  8
0
 10
113.983
 20
114.278
 11
113.768
 21
114.032
  0
LINE
  8
0
 10
113.768
 20
114.032
 11
113.522
 21
113.817
  0
LINE
  8
0
 10
113.522
 20
113.817
 11
113.25
 21
113.635
  0
LINE
  8
0
 10
113.25
 20
113.635
 11
112.957
 21
113.49
  0
LINE
  8
0
 10
112.957
 20
113.49
 11
112.647
 21
113.385
  0
LINE
  8
0
 10
112.647
 20
113.385
 11
112.326
 21
113.321
  0
LINE
  8
0
 10
112.326
 20
113.321
 11
112
 21
113.3
  0
LINE
  8
0
 10
112
 20
113.3
 11
111.674
 21
113.321
  0
LINE
  8
0
 10
121.835
 20
102.55
 11
121.69
 21
102.843
  0
LINE
  8
0
 10
121.69
 20
102.843
 11
121.585
 21
103.153
  0
LINE
  8
0
 10
121.585
 20
103.153
 11
121.521
 21
103.474
  0
LINE
  8
0
 10
121.521
 20
103.474
 11
121.5
 21
103.8
  0
LINE
  8
0
 10
121.5
 20
103.8
 11
121.521
 21
104.126
  0
LINE
  8
0
 10
121.521
 20
104.126
 11
121.585
 21
104.447
  0
LINE
  8
0
 10
121.585
 20
104.447
 11
121.69
 21
104.757
  0
LINE
  8
0
 10
121.69
 20
104.757
 11
121.835
 21
105.05
  0
LINE
  8
0
 10
121.835
 20
105.05
 11
122.017
 21
105.322
  0
LINE
  8
0
 10
122.017
 20
105.322
 11
122.232
 21
105.568
  0
LINE
  8
0
 10
122.232
 20
105.568
 11
122.478
 21
105.783
  0
LINE
  8
0
 10
122.478
 20
105.783
 11
122.75
 21
105.965
  0
LINE
  8
0
 10
122.75
 20
105.965
 11
123.043
 21
106.11
  0
LINE
  8
0
 10
123.043
 20
106.11
 11
123.353
 21
106.215
  0
LINE
  8
0
 10
123.353
 20
106.215
 11
123.674
 21
106.279
  0
LINE
  8
0
 10
123.674
 20
106.279
 11
124
 21
106.3
  0
LINE
  8
0
 10
124
 20
106.3
 11
124.326
 21
106.279
  0
LINE
  8
0
 10
124.326
 20
106.279
 11
124.647
 21
106.215
  0
LINE
  8
0
 10
124.647
 20
106.215
 11
124.957
 21
106.11
  0
LINE
  8
0
 10
124.957
 20
106.11
 11
125.25
 21
105.965
  0
LINE
  8
0
 10
125.25
 20
105.965
 11
125.522
 21
105.783
  0
LINE
  8
0
 10
125.522
 20
105.783
 11
125.768
 21
105.568
  0
LINE
  8
0
 10
125.768
 20
105.568
 11
125.983
 21
105.322
  0
LINE
  8
0
 10
125.983
 20
105.322
 11
126.165
 21
105.05
  0
LINE
  8
0
 10
126.165
 20
105.05
 11
126.31
 21
104.757
  0
LINE
  8
0
 10
126.31
 20
104.757
 11
126.415
 21
104.447
  0
LINE
  8
0
 10
126.415
 20
104.447
 11
126.479
 21
104.126
  0
LINE
  8
0
 10
126.479
 20
104.126
 11
126.5
 21
103.8
  0
LINE
  8
0
 10
126.5
 20
103.8
 11
126.479
 21
103.474
  0
LINE
  8
0
 10
126.479
 20
103.474
 11
126.415
 21
103.153
  0
LINE
  8
0
 10
126.415
 20
103.153
 11
126.31
 21
102.843
  0
LINE
  8
0
 10
126.31
 20
102.843
 11
126.165
 21
102.55
  0
LINE
  8
0
 10
126.165
 20
102.55
 11
125.983
 21
102.278
  0
LINE
  8
0
 10
125.983
 20
102.278
 11
125.768
 21
102.032
  0
LINE
  8
0
 10
125.768
 20
102.032
 11
125.522
 21
101.817
  0
LINE
  8
0
 10
125.522
 20
101.817
 11
125.25
 21
101.635
  0
LINE
  8
0
 10
125.25
 20
101.635
 11
124.957
 21
101.49
  0
LINE
  8
0
 10
124.957
 20
101.49
 11
124.647
 21
101.385
  0
LINE
  8
0
 10
124.647
 20
101.385
 11
124.326
 21
101.321
  0
LINE
  8
0
 10
124.326
 20
101.321
 11
124
 21
101.3
  0
LINE
  8
0
 10
124
 20
101.3
 11
123.674
 21
101.321
  0
LINE
  8
0
 10
123.674
 20
101.321
 11
123.353
 21
101.385
  0
LINE
  8
0
 10
123.353
 20
101.385
 11
123.043
 21
101.49
  0
LINE
  8
0
 10
123.043
 20
101.49
 11
122.75
 21
101.635
  0
LINE
  8
0
 10
122.75
 20
101.635
 11
122.478
 21
101.817
  0
LINE
  8
0
 10
122.478
 20
101.817
 11
122.232
 21
102.032
  0
LINE
  8
0
 10
122.232
 20
102.032
 11
122.017
 21
102.278
  0
LINE
  8
0
 10
122.017
 20
102.278
 11
121.835
 21
102.55
  0
LINE
  8
0
 10
39.6737
 20
101.321
 11
39.353
 21
101.385
  0
LINE
  8
0
 10
39.353
 20
101.385
 11
39.0433
 21
101.49
  0
LINE
  8
0
 10
39.0433
 20
101.49
 11
38.75
 21
101.635
  0
LINE
  8
0
 10
38.75
 20
101.635
 11
38.4781
 21
101.817
  0
LINE
  8
0
 10
38.4781
 20
101.817
 11
38.2322
 21
102.032
  0
LINE
  8
0
 10
38.2322
 20
102.032
 11
38.0166
 21
102.278
  0
LINE
  8
0
 10
38.0166
 20
102.278
 11
37.8349
 21
102.55
  0
LINE
  8
0
 10
37.8349
 20
102.55
 11
37.6903
 21
102.843
  0
LINE
  8
0
 10
37.6903
 20
102.843
 11
37.5852
 21
103.153
  0
LINE
  8
0
 10
37.5852
 20
103.153
 11
37.5214
 21
103.474
  0
LINE
  8
0
 10
37.5214
 20
103.474
 11
37.5
 21
103.8
  0
LINE
  8
0
 10
37.5
 20
103.8
 11
37.5214
 21
104.126
  0
LINE
  8
0
 10
37.5214
 20
104.126
 11
37.5852
 21
104.447
  0
LINE
  8
0
 10
37.5852
 20
104.447
 11
37.6903
 21
104.757
  0
LINE
  8
0
 10
37.6903
 20
104.757
 11
37.8349
 21
105.05
  0
LINE
  8
0
 10
37.8349
 20
105.05
 11
38.0166
 21
105.322
  0
LINE
  8
0
 10
38.0166
 20
105.322
 11
38.2322
 21
105.568
  0
LINE
  8
0
 10
38.2322
 20
105.568
 11
38.4781
 21
105.783
  0
LINE
  8
0
 10
38.4781
 20
105.783
 11
38.75
 21
105.965
  0
LINE
  8
0
 10
38.75
 20
105.965
 11
39.0433
 21
106.11
  0
LINE
  8
0
 10
39.0433
 20
106.11
 11
39.353
 21
106.215
  0
LINE
  8
0
 10
39.353
 20
106.215
 11
39.6737
 21
106.279
  0
LINE
  8
0
 10
39.6737
 20
106.279
 11
40
 21
106.3
  0
LINE
  8
0
 10
40
 20
106.3
 11
40.3263
 21
106.279
  0
LINE
  8
0
 10
40.3263
 20
106.279
 11
40.647
 21
106.215
  0
LINE
  8
0
 10
40.647
 20
106.215
 11
40.9567
 21
106.11
  0
LINE
  8
0
 10
40.9567
 20
106.11
 11
41.25
 21
105.965
  0
LINE
  8
0
 10
41.25
 20
105.965
 11
41.5219
 21
105.783
  0
LINE
  8
0
 10
41.5219
 20
105.783
 11
41.7678
 21
105.568
  0
LINE
  8
0
 10
41.7678
 20
105.568
 11
41.9834
 21
105.322
  0
LINE
  8
0
 10
41.9834
 20
105.322
 11
42.1651
 21
105.05
  0
LINE
  8
0
 10
42.1651
 20
105.05
 11
42.3097
 21
104.757
  0
LINE
  8
0
 10
42.3097
 20
104.757
 11
42.4148
 21
104.447
  0
LINE
  8
0
 10
42.4148
 20
104.447
 11
42.4786
 21
104.126
  0
LINE
  8
0
 10
42.4786
 20
104.126
 11
42.5
 21
103.8
  0
LINE
  8
0
 10
42.5
 20
103.8
 11
42.4786
 21
103.474
  0
LINE
  8
0
 10
42.4786
 20
103.474
 11
42.4148
 21
103.153
  0
LINE
  8
0
 10
42.4148
 20
103.153
 11
42.3097
 21
102.843
  0
LINE
  8
0
 10
42.3097
 20
102.843
 11
42.1651
 21
102.55
  0
LINE
  8
0
 10
42.1651
 20
102.55
 11
41.9834
 21
102.278
  0
LINE
  8
0
 10
41.9834
 20
102.278
 11
41.7678
 21
102.032
  0
LINE
  8
0
 10
41.7678
 20
102.032
 11
41.5219
 21
101.817
  0
LINE
  8
0
 10
41.5219
 20
101.817
 11
41.25
 21
101.635
  0
LINE
  8
0
 10
41.25
 20
101.635
 11
40.9567
 21
101.49
  0
LINE
  8
0
 10
40.9567
 20
101.49
 11
40.647
 21
101.385
  0
LINE
  8
0
 10
40.647
 20
101.385
 11
40.3263
 21
101.321
  0
LINE
  8
0
 10
40.3263
 20
101.321
 11
40
 21
101.3
  0
LINE
  8
0
 10
40
 20
101.3
 11
39.6737
 21
101.321
  0
LINE
  8
0
 10
61.6903
 20
102.843
 11
61.5852
 21
103.153
  0
LINE
  8
0
 10
61.5852
 20
103.153
 11
61.5214
 21
103.474
  0
LINE
  8
0
 10
61.5214
 20
103.474
 11
61.5
 21
103.8
  0
LINE
  8
0
 10
61.5
 20
103.8
 11
61.5214
 21
104.126
  0
LINE
  8
0
 10
61.5214
 20
104.126
 11
61.5852
 21
104.447
  0
LINE
  8
0
 10
61.5852
 20
104.447
 11
61.6903
 21
104.757
  0
LINE
  8
0
 10
61.6903
 20
104.757
 11
61.8349
 21
105.05
  0
LINE
  8
0
 10
61.8349
 20
105.05
 11
62.0166
 21
105.322
  0
LINE
  8
0
 10
62.0166
 20
105.322
 11
62.2322
 21
105.568
  0
LINE
  8
0
 10
62.2322
 20
105.568
 11
62.4781
 21
105.783
  0
LINE
  8
0
 10
62.4781
 20
105.783
 11
62.75
 21
105.965
  0
LINE
  8
0
 10
62.75
 20
105.965
 11
63.0433
 21
106.11
  0
LINE
  8
0
 10
63.0433
 20
106.11
 11
63.353
 21
106.215
  0
LINE
  8
0
 10
63.353
 20
106.215
 11
63.6737
 21
106.279
  0
LINE
  8
0
 10
63.6737
 20
106.279
 11
64
 21
106.3
  0
LINE
  8
0
 10
64
 20
106.3
 11
64.3263
 21
106.279
  0
LINE
  8
0
 10
64.3263
 20
106.279
 11
64.647
 21
106.215
  0
LINE
  8
0
 10
64.647
 20
106.215
 11
64.9567
 21
106.11
  0
LINE
  8
0
 10
64.9567
 20
106.11
 11
65.25
 21
105.965
  0
LINE
  8
0
 10
65.25
 20
105.965
 11
65.5219
 21
105.783
  0
LINE
  8
0
 10
65.5219
 20
105.783
 11
65.7678
 21
105.568
  0
LINE
  8
0
 10
65.7678
 20
105.568
 11
65.9834
 21
105.322
  0
LINE
  8
0
 10
65.9834
 20
105.322
 11
66.1651
 21
105.05
  0
LINE
  8
0
 10
66.1651
 20
105.05
 11
66.3097
 21
104.757
  0
LINE
  8
0
 10
66.3097
 20
104.757
 11
66.4148
 21
104.447
  0
LINE
  8
0
 10
66.4148
 20
104.447
 11
66.4786
 21
104.126
  0
LINE
  8
0
 10
66.4786
 20
104.126
 11
66.5
 21
103.8
  0
LINE
  8
0
 10
66.5
 20
103.8
 11
66.4786
 21
103.474
  0
LINE
  8
0
 10
66.4786
 20
103.474
 11
66.4148
 21
103.153
  0
LINE
  8
0
 10
66.4148
 20
103.153
 11
66.3097
 21
102.843
  0
LINE
  8
0
 10
66.3097
 20
102.843
 11
66.1651
 21
102.55
  0
LINE
  8
0
 10
66.1651
 20
102.55
 11
65.9834
 21
102.278
  0
LINE
  8
0
 10
65.9834
 20
102.278
 11
65.7678
 21
102.032
  0
LINE
  8
0
 10
65.7678
 20
102.032
 11
65.5219
 21
101.817
  0
LINE
  8
0
 10
65.5219
 20
101.817
 11
65.25
 21
101.635
  0
LINE
  8
0
 10
65.25
 20
101.635
 11
64.9567
 21
101.49
  0
LINE
  8
0
 10
64.9567
 20
101.49
 11
64.647
 21
101.385
  0
LINE
  8
0
 10
64.647
 20
101.385
 11
64.3263
 21
101.321
  0
LINE
  8
0
 10
64.3263
 20
101.321
 11
64
 21
101.3
  0
LINE
  8
0
 10
64
 20
101.3
 11
63.6737
 21
101.321
  0
LINE
  8
0
 10
63.6737
 20
101.321
 11
63.353
 21
101.385
  0
LINE
  8
0
 10
63.353
 20
101.385
 11
63.0433
 21
101.49
  0
LINE
  8
0
 10
63.0433
 20
101.49
 11
62.75
 21
101.635
  0
LINE
  8
0
 10
62.75
 20
101.635
 11
62.4781
 21
101.817
  0
LINE
  8
0
 10
62.4781
 20
101.817
 11
62.2322
 21
102.032
  0
LINE
  8
0
 10
62.2322
 20
102.032
 11
62.0166
 21
102.278
  0
LINE
  8
0
 10
62.0166
 20
102.278
 11
61.8349
 21
102.55
  0
LINE
  8
0
 10
61.8349
 20
102.55
 11
61.6903
 21
102.843
  0
LINE
  8
0
 10
86.75
 20
105.965
 11
87.0433
 21
106.11
  0
LINE
  8
0
 10
87.0433
 20
106.11
 11
87.353
 21
106.215
  0
LINE
  8
0
 10
87.353
 20
106.215
 11
87.6737
 21
106.279
  0
LINE
  8
0
 10
87.6737
 20
106.279
 11
88
 21
106.3
  0
LINE
  8
0
 10
88
 20
106.3
 11
88.3263
 21
106.279
  0
LINE
  8
0
 10
88.3263
 20
106.279
 11
88.647
 21
106.215
  0
LINE
  8
0
 10
88.647
 20
106.215
 11
88.9567
 21
106.11
  0
LINE
  8
0
 10
88.9567
 20
106.11
 11
89.25
 21
105.965
  0
LINE
  8
0
 10
89.25
 20
105.965
 11
89.5219
 21
105.783
  0
LINE
  8
0
 10
89.5219
 20
105.783
 11
89.7678
 21
105.568
  0
LINE
  8
0
 10
89.7678
 20
105.568
 11
89.9834
 21
105.322
  0
LINE
  8
0
 10
89.9834
 20
105.322
 11
90.1651
 21
105.05
  0
LINE
  8
0
 10
90.1651
 20
105.05
 11
90.3097
 21
104.757
  0
LINE
  8
0
 10
90.3097
 20
104.757
 11
90.4148
 21
104.447
  0
LINE
  8
0
 10
90.4148
 20
104.447
 11
90.4786
 21
104.126
  0
LINE
  8
0
 10
90.4786
 20
104.126
 11
90.5
 21
103.8
  0
LINE
  8
0
 10
90.5
 20
103.8
 11
90.4786
 21
103.474
  0
LINE
  8
0
 10
90.4786
 20
103.474
 11
90.4148
 21
103.153
  0
LINE
  8
0
 10
90.4148
 20
103.153
 11
90.3097
 21
102.843
  0
LINE
  8
0
 10
90.3097
 20
102.843
 11
90.1651
 21
102.55
  0
LINE
  8
0
 10
90.1651
 20
102.55
 11
89.9834
 21
102.278
  0
LINE
  8
0
 10
89.9834
 20
102.278
 11
89.7678
 21
102.032
  0
LINE
  8
0
 10
89.7678
 20
102.032
 11
89.5219
 21
101.817
  0
LINE
  8
0
 10
89.5219
 20
101.817
 11
89.25
 21
101.635
  0
LINE
  8
0
 10
89.25
 20
101.635
 11
88.9567
 21
101.49
  0
LINE
  8
0
 10
88.9567
 20
101.49
 11
88.647
 21
101.385
  0
LINE
  8
0
 10
88.647
 20
101.385
 11
88.3263
 21
101.321
  0
LINE
  8
0
 10
88.3263
 20
101.321
 11
88
 21
101.3
  0
LINE
  8
0
 10
88
 20
101.3
 11
87.6737
 21
101.321
  0
LINE
  8
0
 10
87.6737
 20
101.321
 11
87.353
 21
101.385
  0
LINE
  8
0
 10
87.353
 20
101.385
 11
87.0433
 21
101.49
  0
LINE
  8
0
 10
87.0433
 20
101.49
 11
86.75
 21
101.635
  0
LINE
  8
0
 10
86.75
 20
101.635
 11
86.4781
 21
101.817
  0
LINE
  8
0
 10
86.4781
 20
101.817
 11
86.2322
 21
102.032
  0
LINE
  8
0
 10
86.2322
 20
102.032
 11
86.0166
 21
102.278
  0
LINE
  8
0
 10
86.0166
 20
102.278
 11
85.8349
 21
102.55
  0
LINE
  8
0
 10
85.8349
 20
102.55
 11
85.6903
 21
102.843
  0
LINE
  8
0
 10
85.6903
 20
102.843
 11
85.5852
 21
103.153
  0
LINE
  8
0
 10
85.5852
 20
103.153
 11
85.5214
 21
103.474
  0
LINE
  8
0
 10
85.5214
 20
103.474
 11
85.5
 21
103.8
  0
LINE
  8
0
 10
85.5
 20
103.8
 11
85.5214
 21
104.126
  0
LINE
  8
0
 10
85.5214
 20
104.126
 11
85.5852
 21
104.447
  0
LINE
  8
0
 10
85.5852
 20
104.447
 11
85.6903
 21
104.757
  0
LINE
  8
0
 10
85.6903
 20
104.757
 11
85.8349
 21
105.05
  0
LINE
  8
0
 10
85.8349
 20
105.05
 11
86.0166
 21
105.322
  0
LINE
  8
0
 10
86.0166
 20
105.322
 11
86.2322
 21
105.568
  0
LINE
  8
0
 10
86.2322
 20
105.568
 11
86.4781
 21
105.783
  0
LINE
  8
0
 10
86.4781
 20
105.783
 11
86.75
 21
105.965
  0
LINE
  8
0
 10
63.6737
 20
89.3214
 11
63.353
 21
89.3852
  0
LINE
  8
0
 10
63.353
 20
89.3852
 11
63.0433
 21
89.4903
  0
LINE
  8
0
 10
63.0433
 20
89.4903
 11
62.75
 21
89.6349
  0
LINE
  8
0
 10
62.75
 20
89.6349
 11
62.4781
 21
89.8166
  0
LINE
  8
0
 10
62.4781
 20
89.8166
 11
62.2322
 21
90.0322
  0
LINE
  8
0
 10
62.2322
 20
90.0322
 11
62.0166
 21
90.2781
  0
LINE
  8
0
 10
62.0166
 20
90.2781
 11
61.8349
 21
90.55
  0
LINE
  8
0
 10
61.8349
 20
90.55
 11
61.6903
 21
90.8433
  0
LINE
  8
0
 10
61.6903
 20
90.8433
 11
61.5852
 21
91.153
  0
LINE
  8
0
 10
61.5852
 20
91.153
 11
61.5214
 21
91.4737
  0
LINE
  8
0
 10
61.5214
 20
91.4737
 11
61.5
 21
91.8
  0
LINE
  8
0
 10
61.5
 20
91.8
 11
61.5214
 21
92.1263
  0
LINE
  8
0
 10
61.5214
 20
92.1263
 11
61.5852
 21
92.447
  0
LINE
  8
0
 10
61.5852
 20
92.447
 11
61.6903
 21
92.7567
  0
LINE
  8
0
 10
61.6903
 20
92.7567
 11
61.8349
 21
93.05
  0
LINE
  8
0
 10
61.8349
 20
93.05
 11
62.0166
 21
93.3219
  0
LINE
  8
0
 10
62.0166
 20
93.3219
 11
62.2322
 21
93.5678
  0
LINE
  8
0
 10
62.2322
 20
93.5678
 11
62.4781
 21
93.7834
  0
LINE
  8
0
 10
62.4781
 20
93.7834
 11
62.75
 21
93.9651
  0
LINE
  8
0
 10
62.75
 20
93.9651
 11
63.0433
 21
94.1097
  0
LINE
  8
0
 10
63.0433
 20
94.1097
 11
63.353
 21
94.2148
  0
LINE
  8
0
 10
63.353
 20
94.2148
 11
63.6737
 21
94.2786
  0
LINE
  8
0
 10
63.6737
 20
94.2786
 11
64
 21
94.3
  0
LINE
  8
0
 10
64
 20
94.3
 11
64.3263
 21
94.2786
  0
LINE
  8
0
 10
64.3263
 20
94.2786
 11
64.647
 21
94.2148
  0
LINE
  8
0
 10
64.647
 20
94.2148
 11
64.9567
 21
94.1097
  0
LINE
  8
0
 10
64.9567
 20
94.1097
 11
65.25
 21
93.9651
  0
LINE
  8
0
 10
65.25
 20
93.9651
 11
65.5219
 21
93.7834
  0
LINE
  8
0
 10
65.5219
 20
93.7834
 11
65.7678
 21
93.5678
  0
LINE
  8
0
 10
65.7678
 20
93.5678
 11
65.9834
 21
93.3219
  0
LINE
  8
0
 10
65.9834
 20
93.3219
 11
66.1651
 21
93.05
  0
LINE
  8
0
 10
66.1651
 20
93.05
 11
66.3097
 21
92.7567
  0
LINE
  8
0
 10
66.3097
 20
92.7567
 11
66.4148
 21
92.447
  0
LINE
  8
0
 10
66.4148
 20
92.447
 11
66.4786
 21
92.1263
  0
LINE
  8
0
 10
66.4786
 20
92.1263
 11
66.5
 21
91.8
  0
LINE
  8
0
 10
66.5
 20
91.8
 11
66.4786
 21
91.4737
  0
LINE
  8
0
 10
66.4786
 20
91.4737
 11
66.4148
 21
91.153
  0
LINE
  8
0
 10
66.4148
 20
91.153
 11
66.3097
 21
90.8433
  0
LINE
  8
0
 10
66.3097
 20
90.8433
 11
66.1651
 21
90.55
  0
LINE
  8
0
 10
66.1651
 20
90.55
 11
65.9834
 21
90.2781
  0
LINE
  8
0
 10
65.9834
 20
90.2781
 11
65.7678
 21
90.0322
  0
LINE
  8
0
 10
65.7678
 20
90.0322
 11
65.5219
 21
89.8166
  0
LINE
  8
0
 10
65.5219
 20
89.8166
 11
65.25
 21
89.6349
  0
LINE
  8
0
 10
65.25
 20
89.6349
 11
64.9567
 21
89.4903
  0
LINE
  8
0
 10
64.9567
 20
89.4903
 11
64.647
 21
89.3852
  0
LINE
  8
0
 10
64.647
 20
89.3852
 11
64.3263
 21
89.3214
  0
LINE
  8
0
 10
64.3263
 20
89.3214
 11
64
 21
89.3
  0
LINE
  8
0
 10
64
 20
89.3
 11
63.6737
 21
89.3214
  0
LINE
  8
0
 10
51.6737
 20
89.3214
 11
51.353
 21
89.3852
  0
LINE
  8
0
 10
51.353
 20
89.3852
 11
51.0433
 21
89.4903
  0
LINE
  8
0
 10
51.0433
 20
89.4903
 11
50.75
 21
89.6349
  0
LINE
  8
0
 10
50.75
 20
89.6349
 11
50.4781
 21
89.8166
  0
LINE
  8
0
 10
50.4781
 20
89.8166
 11
50.2322
 21
90.0322
  0
LINE
  8
0
 10
50.2322
 20
90.0322
 11
50.0166
 21
90.2781
  0
LINE
  8
0
 10
50.0166
 20
90.2781
 11
49.8349
 21
90.55
  0
LINE
  8
0
 10
49.8349
 20
90.55
 11
49.6903
 21
90.8433
  0
LINE
  8
0
 10
49.6903
 20
90.8433
 11
49.5852
 21
91.153
  0
LINE
  8
0
 10
49.5852
 20
91.153
 11
49.5214
 21
91.4737
  0
LINE
  8
0
 10
49.5214
 20
91.4737
 11
49.5
 21
91.8
  0
LINE
  8
0
 10
49.5
 20
91.8
 11
49.5214
 21
92.1263
  0
LINE
  8
0
 10
49.5214
 20
92.1263
 11
49.5852
 21
92.447
  0
LINE
  8
0
 10
49.5852
 20
92.447
 11
49.6903
 21
92.7567
  0
LINE
  8
0
 10
49.6903
 20
92.7567
 11
49.8349
 21
93.05
  0
LINE
  8
0
 10
49.8349
 20
93.05
 11
50.0166
 21
93.3219
  0
LINE
  8
0
 10
50.0166
 20
93.3219
 11
50.2322
 21
93.5678
  0
LINE
  8
0
 10
50.2322
 20
93.5678
 11
50.4781
 21
93.7834
  0
LINE
  8
0
 10
50.4781
 20
93.7834
 11
50.75
 21
93.9651
  0
LINE
  8
0
 10
50.75
 20
93.9651
 11
51.0433
 21
94.1097
  0
LINE
  8
0
 10
51.0433
 20
94.1097
 11
51.353
 21
94.2148
  0
LINE
  8
0
 10
51.353
 20
94.2148
 11
51.6737
 21
94.2786
  0
LINE
  8
0
 10
51.6737
 20
94.2786
 11
52
 21
94.3
  0
LINE
  8
0
 10
52
 20
94.3
 11
52.3263
 21
94.2786
  0
LINE
  8
0
 10
52.3263
 20
94.2786
 11
52.647
 21
94.2148
  0
LINE
  8
0
 10
52.647
 20
94.2148
 11
52.9567
 21
94.1097
  0
LINE
  8
0
 10
52.9567
 20
94.1097
 11
53.25
 21
93.9651
  0
LINE
  8
0
 10
53.25
 20
93.9651
 11
53.5219
 21
93.7834
  0
LINE
  8
0
 10
53.5219
 20
93.7834
 11
53.7678
 21
93.5678
  0
LINE
  8
0
 10
53.7678
 20
93.5678
 11
53.9834
 21
93.3219
  0
LINE
  8
0
 10
53.9834
 20
93.3219
 11
54.1651
 21
93.05
  0
LINE
  8
0
 10
54.1651
 20
93.05
 11
54.3097
 21
92.7567
  0
LINE
  8
0
 10
54.3097
 20
92.7567
 11
54.4148
 21
92.447
  0
LINE
  8
0
 10
54.4148
 20
92.447
 11
54.4786
 21
92.1263
  0
LINE
  8
0
 10
54.4786
 20
92.1263
 11
54.5
 21
91.8
  0
LINE
  8
0
 10
54.5
 20
91.8
 11
54.4786
 21
91.4737
  0
LINE
  8
0
 10
54.4786
 20
91.4737
 11
54.4148
 21
91.153
  0
LINE
  8
0
 10
54.4148
 20
91.153
 11
54.3097
 21
90.8433
  0
LINE
  8
0
 10
54.3097
 20
90.8433
 11
54.1651
 21
90.55
  0
LINE
  8
0
 10
54.1651
 20
90.55
 11
53.9834
 21
90.2781
  0
LINE
  8
0
 10
53.9834
 20
90.2781
 11
53.7678
 21
90.0322
  0
LINE
  8
0
 10
53.7678
 20
90.0322
 11
53.5219
 21
89.8166
  0
LINE
  8
0
 10
53.5219
 20
89.8166
 11
53.25
 21
89.6349
  0
LINE
  8
0
 10
53.25
 20
89.6349
 11
52.9567
 21
89.4903
  0
LINE
  8
0
 10
52.9567
 20
89.4903
 11
52.647
 21
89.3852
  0
LINE
  8
0
 10
52.647
 20
89.3852
 11
52.3263
 21
89.3214
  0
LINE
  8
0
 10
52.3263
 20
89.3214
 11
52
 21
89.3
  0
LINE
  8
0
 10
52
 20
89.3
 11
51.6737
 21
89.3214
  0
LINE
  8
0
 10
87.6737
 20
89.3214
 11
87.353
 21
89.3852
  0
LINE
  8
0
 10
87.353
 20
89.3852
 11
87.0433
 21
89.4903
  0
LINE
  8
0
 10
87.0433
 20
89.4903
 11
86.75
 21
89.6349
  0
LINE
  8
0
 10
86.75
 20
89.6349
 11
86.4781
 21
89.8166
  0
LINE
  8
0
 10
86.4781
 20
89.8166
 11
86.2322
 21
90.0322
  0
LINE
  8
0
 10
86.2322
 20
90.0322
 11
86.0166
 21
90.2781
  0
LINE
  8
0
 10
86.0166
 20
90.2781
 11
85.8349
 21
90.55
  0
LINE
  8
0
 10
85.8349
 20
90.55
 11
85.6903
 21
90.8433
  0
LINE
  8
0
 10
85.6903
 20
90.8433
 11
85.5852
 21
91.153
  0
LINE
  8
0
 10
85.5852
 20
91.153
 11
85.5214
 21
91.4737
  0
LINE
  8
0
 10
85.5214
 20
91.4737
 11
85.5
 21
91.8
  0
LINE
  8
0
 10
85.5
 20
91.8
 11
85.5214
 21
92.1263
  0
LINE
  8
0
 10
85.5214
 20
92.1263
 11
85.5852
 21
92.447
  0
LINE
  8
0
 10
85.5852
 20
92.447
 11
85.6903
 21
92.7567
  0
LINE
  8
0
 10
85.6903
 20
92.7567
 11
85.8349
 21
93.05
  0
LINE
  8
0
 10
85.8349
 20
93.05
 11
86.0166
 21
93.3219
  0
LINE
  8
0
 10
86.0166
 20
93.3219
 11
86.2322
 21
93.5678
  0
LINE
  8
0
 10
86.2322
 20
93.5678
 11
86.4781
 21
93.7834
  0
LINE
  8
0
 10
86.4781
 20
93.7834
 11
86.75
 21
93.9651
  0
LINE
  8
0
 10
86.75
 20
93.9651
 11
87.0433
 21
94.1097
  0
LINE
  8
0
 10
87.0433
 20
94.1097
 11
87.353
 21
94.2148
  0
LINE
  8
0
 10
87.353
 20
94.2148
 11
87.6737
 21
94.2786
  0
LINE
  8
0
 10
87.6737
 20
94.2786
 11
88
 21
94.3
  0
LINE
  8
0
 10
88
 20
94.3
 11
88.3263
 21
94.2786
  0
LINE
  8
0
 10
88.3263
 20
94.2786
 11
88.647
 21
94.2148
  0
LINE
  8
0
 10
88.647
 20
94.2148
 11
88.9567
 21
94.1097
  0
LINE
  8
0
 10
88.9567
 20
94.1097
 11
89.25
 21
93.9651
  0
LINE
  8
0
 10
89.25
 20
93.9651
 11
89.5219
 21
93.7834
  0
LINE
  8
0
 10
89.5219
 20
93.7834
 11
89.7678
 21
93.5678
  0
LINE
  8
0
 10
89.7678
 20
93.5678
 11
89.9834
 21
93.3219
  0
LINE
  8
0
 10
89.9834
 20
93.3219
 11
90.1651
 21
93.05
  0
LINE
  8
0
 10
90.1651
 20
93.05
 11
90.3097
 21
92.7567
  0
LINE
  8
0
 10
90.3097
 20
92.7567
 11
90.4148
 21
92.447
  0
LINE
  8
0
 10
90.4148
 20
92.447
 11
90.4786
 21
92.1263
  0
LINE
  8
0
 10
90.4786
 20
92.1263
 11
90.5
 21
91.8
  0
LINE
  8
0
 10
90.5
 20
91.8
 11
90.4786
 21
91.4737
  0
LINE
  8
0
 10
90.4786
 20
91.4737
 11
90.4148
 21
91.153
  0
LINE
  8
0
 10
90.4148
 20
91.153
 11
90.3097
 21
90.8433
  0
LINE
  8
0
 10
90.3097
 20
90.8433
 11
90.1651
 21
90.55
  0
LINE
  8
0
 10
90.1651
 20
90.55
 11
89.9834
 21
90.2781
  0
LINE
  8
0
 10
89.9834
 20
90.2781
 11
89.7678
 21
90.0322
  0
LINE
  8
0
 10
89.7678
 20
90.0322
 11
89.5219
 21
89.8166
  0
LINE
  8
0
 10
89.5219
 20
89.8166
 11
89.25
 21
89.6349
  0
LINE
  8
0
 10
89.25
 20
89.6349
 11
88.9567
 21
89.4903
  0
LINE
  8
0
 10
88.9567
 20
89.4903
 11
88.647
 21
89.3852
  0
LINE
  8
0
 10
88.647
 20
89.3852
 11
88.3263
 21
89.3214
  0
LINE
  8
0
 10
88.3263
 20
89.3214
 11
88
 21
89.3
  0
LINE
  8
0
 10
88
 20
89.3
 11
87.6737
 21
89.3214
  0
LINE
  8
0
 10
75.6737
 20
89.3214
 11
75.353
 21
89.3852
  0
LINE
  8
0
 10
75.353
 20
89.3852
 11
75.0433
 21
89.4903
  0
LINE
  8
0
 10
75.0433
 20
89.4903
 11
74.75
 21
89.6349
  0
LINE
  8
0
 10
74.75
 20
89.6349
 11
74.4781
 21
89.8166
  0
LINE
  8
0
 10
74.4781
 20
89.8166
 11
74.2322
 21
90.0322
  0
LINE
  8
0
 10
74.2322
 20
90.0322
 11
74.0166
 21
90.2781
  0
LINE
  8
0
 10
74.0166
 20
90.2781
 11
73.8349
 21
90.55
  0
LINE
  8
0
 10
73.8349
 20
90.55
 11
73.6903
 21
90.8433
  0
LINE
  8
0
 10
73.6903
 20
90.8433
 11
73.5852
 21
91.153
  0
LINE
  8
0
 10
73.5852
 20
91.153
 11
73.5214
 21
91.4737
  0
LINE
  8
0
 10
73.5214
 20
91.4737
 11
73.5
 21
91.8
  0
LINE
  8
0
 10
73.5
 20
91.8
 11
73.5214
 21
92.1263
  0
LINE
  8
0
 10
73.5214
 20
92.1263
 11
73.5852
 21
92.447
  0
LINE
  8
0
 10
73.5852
 20
92.447
 11
73.6903
 21
92.7567
  0
LINE
  8
0
 10
73.6903
 20
92.7567
 11
73.8349
 21
93.05
  0
LINE
  8
0
 10
73.8349
 20
93.05
 11
74.0166
 21
93.3219
  0
LINE
  8
0
 10
74.0166
 20
93.3219
 11
74.2322
 21
93.5678
  0
LINE
  8
0
 10
74.2322
 20
93.5678
 11
74.4781
 21
93.7834
  0
LINE
  8
0
 10
74.4781
 20
93.7834
 11
74.75
 21
93.9651
  0
LINE
  8
0
 10
74.75
 20
93.9651
 11
75.0433
 21
94.1097
  0
LINE
  8
0
 10
75.0433
 20
94.1097
 11
75.353
 21
94.2148
  0
LINE
  8
0
 10
75.353
 20
94.2148
 11
75.6737
 21
94.2786
  0
LINE
  8
0
 10
75.6737
 20
94.2786
 11
76
 21
94.3
  0
LINE
  8
0
 10
76
 20
94.3
 11
76.3263
 21
94.2786
  0
LINE
  8
0
 10
76.3263
 20
94.2786
 11
76.647
 21
94.2148
  0
LINE
  8
0
 10
76.647
 20
94.2148
 11
76.9567
 21
94.1097
  0
LINE
  8
0
 10
76.9567
 20
94.1097
 11
77.25
 21
93.9651
  0
LINE
  8
0
 10
77.25
 20
93.9651
 11
77.5219
 21
93.7834
  0
LINE
  8
0
 10
77.5219
 20
93.7834
 11
77.7678
 21
93.5678
  0
LINE
  8
0
 10
77.7678
 20
93.5678
 11
77.9834
 21
93.3219
  0
LINE
  8
0
 10
77.9834
 20
93.3219
 11
78.1651
 21
93.05
  0
LINE
  8
0
 10
78.1651
 20
93.05
 11
78.3097
 21
92.7567
  0
LINE
  8
0
 10
78.3097
 20
92.7567
 11
78.4148
 21
92.447
  0
LINE
  8
0
 10
78.4148
 20
92.447
 11
78.4786
 21
92.1263
  0
LINE
  8
0
 10
78.4786
 20
92.1263
 11
78.5
 21
91.8
  0
LINE
  8
0
 10
78.5
 20
91.8
 11
78.4786
 21
91.4737
  0
LINE
  8
0
 10
78.4786
 20
91.4737
 11
78.4148
 21
91.153
  0
LINE
  8
0
 10
78.4148
 20
91.153
 11
78.3097
 21
90.8433
  0
LINE
  8
0
 10
78.3097
 20
90.8433
 11
78.1651
 21
90.55
  0
LINE
  8
0
 10
78.1651
 20
90.55
 11
77.9834
 21
90.2781
  0
LINE
  8
0
 10
77.9834
 20
90.2781
 11
77.7678
 21
90.0322
  0
LINE
  8
0
 10
77.7678
 20
90.0322
 11
77.5219
 21
89.8166
  0
LINE
  8
0
 10
77.5219
 20
89.8166
 11
77.25
 21
89.6349
  0
LINE
  8
0
 10
77.25
 20
89.6349
 11
76.9567
 21
89.4903
  0
LINE
  8
0
 10
76.9567
 20
89.4903
 11
76.647
 21
89.3852
  0
LINE
  8
0
 10
76.647
 20
89.3852
 11
76.3263
 21
89.3214
  0
LINE
  8
0
 10
76.3263
 20
89.3214
 11
76
 21
89.3
  0
LINE
  8
0
 10
76
 20
89.3
 11
75.6737
 21
89.3214
  0
LINE
  8
0
 10
99.6737
 20
89.3214
 11
99.353
 21
89.3852
  0
LINE
  8
0
 10
99.353
 20
89.3852
 11
99.0433
 21
89.4903
  0
LINE
  8
0
 10
99.0433
 20
89.4903
 11
98.75
 21
89.6349
  0
LINE
  8
0
 10
98.75
 20
89.6349
 11
98.4781
 21
89.8166
  0
LINE
  8
0
 10
98.4781
 20
89.8166
 11
98.2322
 21
90.0322
  0
LINE
  8
0
 10
98.2322
 20
90.0322
 11
98.0166
 21
90.2781
  0
LINE
  8
0
 10
98.0166
 20
90.2781
 11
97.8349
 21
90.55
  0
LINE
  8
0
 10
97.8349
 20
90.55
 11
97.6903
 21
90.8433
  0
LINE
  8
0
 10
97.6903
 20
90.8433
 11
97.5852
 21
91.153
  0
LINE
  8
0
 10
97.5852
 20
91.153
 11
97.5214
 21
91.4737
  0
LINE
  8
0
 10
97.5214
 20
91.4737
 11
97.5
 21
91.8
  0
LINE
  8
0
 10
97.5
 20
91.8
 11
97.5214
 21
92.1263
  0
LINE
  8
0
 10
97.5214
 20
92.1263
 11
97.5852
 21
92.447
  0
LINE
  8
0
 10
97.5852
 20
92.447
 11
97.6903
 21
92.7567
  0
LINE
  8
0
 10
97.6903
 20
92.7567
 11
97.8349
 21
93.05
  0
LINE
  8
0
 10
97.8349
 20
93.05
 11
98.0166
 21
93.3219
  0
LINE
  8
0
 10
98.0166
 20
93.3219
 11
98.2322
 21
93.5678
  0
LINE
  8
0
 10
98.2322
 20
93.5678
 11
98.4781
 21
93.7834
  0
LINE
  8
0
 10
98.4781
 20
93.7834
 11
98.75
 21
93.9651
  0
LINE
  8
0
 10
98.75
 20
93.9651
 11
99.0433
 21
94.1097
  0
LINE
  8
0
 10
99.0433
 20
94.1097
 11
99.353
 21
94.2148
  0
LINE
  8
0
 10
99.353
 20
94.2148
 11
99.6737
 21
94.2786
  0
LINE
  8
0
 10
99.6737
 20
94.2786
 11
100
 21
94.3
  0
LINE
  8
0
 10
100
 20
94.3
 11
100.326
 21
94.2786
  0
LINE
  8
0
 10
100.326
 20
94.2786
 11
100.647
 21
94.2148
  0
LINE
  8
0
 10
100.647
 20
94.2148
 11
100.957
 21
94.1097
  0
LINE
  8
0
 10
100.957
 20
94.1097
 11
101.25
 21
93.9651
  0
LINE
  8
0
 10
101.25
 20
93.9651
 11
101.522
 21
93.7834
  0
LINE
  8
0
 10
101.522
 20
93.7834
 11
101.768
 21
93.5678
  0
LINE
  8
0
 10
101.768
 20
93.5678
 11
101.983
 21
93.3219
  0
LINE
  8
0
 10
101.983
 20
93.3219
 11
102.165
 21
93.05
  0
LINE
  8
0
 10
102.165
 20
93.05
 11
102.31
 21
92.7567
  0
LINE
  8
0
 10
102.31
 20
92.7567
 11
102.415
 21
92.447
  0
LINE
  8
0
 10
102.415
 20
92.447
 11
102.479
 21
92.1263
  0
LINE
  8
0
 10
102.479
 20
92.1263
 11
102.5
 21
91.8
  0
LINE
  8
0
 10
102.5
 20
91.8
 11
102.479
 21
91.4737
  0
LINE
  8
0
 10
102.479
 20
91.4737
 11
102.415
 21
91.153
  0
LINE
  8
0
 10
102.415
 20
91.153
 11
102.31
 21
90.8433
  0
LINE
  8
0
 10
102.31
 20
90.8433
 11
102.165
 21
90.55
  0
LINE
  8
0
 10
102.165
 20
90.55
 11
101.983
 21
90.2781
  0
LINE
  8
0
 10
101.983
 20
90.2781
 11
101.768
 21
90.0322
  0
LINE
  8
0
 10
101.768
 20
90.0322
 11
101.522
 21
89.8166
  0
LINE
  8
0
 10
101.522
 20
89.8166
 11
101.25
 21
89.6349
  0
LINE
  8
0
 10
101.25
 20
89.6349
 11
100.957
 21
89.4903
  0
LINE
  8
0
 10
100.957
 20
89.4903
 11
100.647
 21
89.3852
  0
LINE
  8
0
 10
100.647
 20
89.3852
 11
100.326
 21
89.3214
  0
LINE
  8
0
 10
100.326
 20
89.3214
 11
100
 21
89.3
  0
LINE
  8
0
 10
100
 20
89.3
 11
99.6737
 21
89.3214
  0
LINE
  8
0
 10
121.835
 20
90.55
 11
121.69
 21
90.8433
  0
LINE
  8
0
 10
121.69
 20
90.8433
 11
121.585
 21
91.153
  0
LINE
  8
0
 10
121.585
 20
91.153
 11
121.521
 21
91.4737
  0
LINE
  8
0
 10
121.521
 20
91.4737
 11
121.5
 21
91.8
  0
LINE
  8
0
 10
121.5
 20
91.8
 11
121.521
 21
92.1263
  0
LINE
  8
0
 10
121.521
 20
92.1263
 11
121.585
 21
92.447
  0
LINE
  8
0
 10
121.585
 20
92.447
 11
121.69
 21
92.7567
  0
LINE
  8
0
 10
121.69
 20
92.7567
 11
121.835
 21
93.05
  0
LINE
  8
0
 10
121.835
 20
93.05
 11
122.017
 21
93.3219
  0
LINE
  8
0
 10
122.017
 20
93.3219
 11
122.232
 21
93.5678
  0
LINE
  8
0
 10
122.232
 20
93.5678
 11
122.478
 21
93.7834
  0
LINE
  8
0
 10
122.478
 20
93.7834
 11
122.75
 21
93.9651
  0
LINE
  8
0
 10
122.75
 20
93.9651
 11
123.043
 21
94.1097
  0
LINE
  8
0
 10
123.043
 20
94.1097
 11
123.353
 21
94.2148
  0
LINE
  8
0
 10
123.353
 20
94.2148
 11
123.674
 21
94.2786
  0
LINE
  8
0
 10
123.674
 20
94.2786
 11
124
 21
94.3
  0
LINE
  8
0
 10
124
 20
94.3
 11
124.326
 21
94.2786
  0
LINE
  8
0
 10
124.326
 20
94.2786
 11
124.647
 21
94.2148
  0
LINE
  8
0
 10
124.647
 20
94.2148
 11
124.957
 21
94.1097
  0
LINE
  8
0
 10
124.957
 20
94.1097
 11
125.25
 21
93.9651
  0
LINE
  8
0
 10
125.25
 20
93.9651
 11
125.522
 21
93.7834
  0
LINE
  8
0
 10
125.522
 20
93.7834
 11
125.768
 21
93.5678
  0
LINE
  8
0
 10
125.768
 20
93.5678
 11
125.983
 21
93.3219
  0
LINE
  8
0
 10
125.983
 20
93.3219
 11
126.165
 21
93.05
  0
LINE
  8
0
 10
126.165
 20
93.05
 11
126.31
 21
92.7567
  0
LINE
  8
0
 10
126.31
 20
92.7567
 11
126.415
 21
92.447
  0
LINE
  8
0
 10
126.415
 20
92.447
 11
126.479
 21
92.1263
  0
LINE
  8
0
 10
126.479
 20
92.1263
 11
126.5
 21
91.8
  0
LINE
  8
0
 10
126.5
 20
91.8
 11
126.479
 21
91.4737
  0
LINE
  8
0
 10
126.479
 20
91.4737
 11
126.415
 21
91.153
  0
LINE
  8
0
 10
126.415
 20
91.153
 11
126.31
 21
90.8433
  0
LINE
  8
0
 10
126.31
 20
90.8433
 11
126.165
 21
90.55
  0
LINE
  8
0
 10
126.165
 20
90.55
 11
125.983
 21
90.2781
  0
LINE
  8
0
 10
125.983
 20
90.2781
 11
125.768
 21
90.0322
  0
LINE
  8
0
 10
125.768
 20
90.0322
 11
125.522
 21
89.8166
  0
LINE
  8
0
 10
125.522
 20
89.8166
 11
125.25
 21
89.6349
  0
LINE
  8
0
 10
125.25
 20
89.6349
 11
124.957
 21
89.4903
  0
LINE
  8
0
 10
124.957
 20
89.4903
 11
124.647
 21
89.3852
  0
LINE
  8
0
 10
124.647
 20
89.3852
 11
124.326
 21
89.3214
  0
LINE
  8
0
 10
124.326
 20
89.3214
 11
124
 21
89.3
  0
LINE
  8
0
 10
124
 20
89.3
 11
123.674
 21
89.3214
  0
LINE
  8
0
 10
123.674
 20
89.3214
 11
123.353
 21
89.3852
  0
LINE
  8
0
 10
123.353
 20
89.3852
 11
123.043
 21
89.4903
  0
LINE
  8
0
 10
123.043
 20
89.4903
 11
122.75
 21
89.6349
  0
LINE
  8
0
 10
122.75
 20
89.6349
 11
122.478
 21
89.8166
  0
LINE
  8
0
 10
122.478
 20
89.8166
 11
122.232
 21
90.0322
  0
LINE
  8
0
 10
122.232
 20
90.0322
 11
122.017
 21
90.2781
  0
LINE
  8
0
 10
122.017
 20
90.2781
 11
121.835
 21
90.55
  0
LINE
  8
0
 10
39.6737
 20
89.3214
 11
39.353
 21
89.3852
  0
LINE
  8
0
 10
39.353
 20
89.3852
 11
39.0433
 21
89.4903
  0
LINE
  8
0
 10
39.0433
 20
89.4903
 11
38.75
 21
89.6349
  0
LINE
  8
0
 10
38.75
 20
89.6349
 11
38.4781
 21
89.8166
  0
LINE
  8
0
 10
38.4781
 20
89.8166
 11
38.2322
 21
90.0322
  0
LINE
  8
0
 10
38.2322
 20
90.0322
 11
38.0166
 21
90.2781
  0
LINE
  8
0
 10
38.0166
 20
90.2781
 11
37.8349
 21
90.55
  0
LINE
  8
0
 10
37.8349
 20
90.55
 11
37.6903
 21
90.8433
  0
LINE
  8
0
 10
37.6903
 20
90.8433
 11
37.5852
 21
91.153
  0
LINE
  8
0
 10
37.5852
 20
91.153
 11
37.5214
 21
91.4737
  0
LINE
  8
0
 10
37.5214
 20
91.4737
 11
37.5
 21
91.8
  0
LINE
  8
0
 10
37.5
 20
91.8
 11
37.5214
 21
92.1263
  0
LINE
  8
0
 10
37.5214
 20
92.1263
 11
37.5852
 21
92.447
  0
LINE
  8
0
 10
37.5852
 20
92.447
 11
37.6903
 21
92.7567
  0
LINE
  8
0
 10
37.6903
 20
92.7567
 11
37.8349
 21
93.05
  0
LINE
  8
0
 10
37.8349
 20
93.05
 11
38.0166
 21
93.3219
  0
LINE
  8
0
 10
38.0166
 20
93.3219
 11
38.2322
 21
93.5678
  0
LINE
  8
0
 10
38.2322
 20
93.5678
 11
38.4781
 21
93.7834
  0
LINE
  8
0
 10
38.4781
 20
93.7834
 11
38.75
 21
93.9651
  0
LINE
  8
0
 10
38.75
 20
93.9651
 11
39.0433
 21
94.1097
  0
LINE
  8
0
 10
39.0433
 20
94.1097
 11
39.353
 21
94.2148
  0
LINE
  8
0
 10
39.353
 20
94.2148
 11
39.6737
 21
94.2786
  0
LINE
  8
0
 10
39.6737
 20
94.2786
 11
40
 21
94.3
  0
LINE
  8
0
 10
40
 20
94.3
 11
40.3263
 21
94.2786
  0
LINE
  8
0
 10
40.3263
 20
94.2786
 11
40.647
 21
94.2148
  0
LINE
  8
0
 10
40.647
 20
94.2148
 11
40.9567
 21
94.1097
  0
LINE
  8
0
 10
40.9567
 20
94.1097
 11
41.25
 21
93.9651
  0
LINE
  8
0
 10
41.25
 20
93.9651
 11
41.5219
 21
93.7834
  0
LINE
  8
0
 10
41.5219
 20
93.7834
 11
41.7678
 21
93.5678
  0
LINE
  8
0
 10
41.7678
 20
93.5678
 11
41.9834
 21
93.3219
  0
LINE
  8
0
 10
41.9834
 20
93.3219
 11
42.1651
 21
93.05
  0
LINE
  8
0
 10
42.1651
 20
93.05
 11
42.3097
 21
92.7567
  0
LINE
  8
0
 10
42.3097
 20
92.7567
 11
42.4148
 21
92.447
  0
LINE
  8
0
 10
42.4148
 20
92.447
 11
42.4786
 21
92.1263
  0
LINE
  8
0
 10
42.4786
 20
92.1263
 11
42.5
 21
91.8
  0
LINE
  8
0
 10
42.5
 20
91.8
 11
42.4786
 21
91.4737
  0
LINE
  8
0
 10
42.4786
 20
91.4737
 11
42.4148
 21
91.153
  0
LINE
  8
0
 10
42.4148
 20
91.153
 11
42.3097
 21
90.8433
  0
LINE
  8
0
 10
42.3097
 20
90.8433
 11
42.1651
 21
90.55
  0
LINE
  8
0
 10
42.1651
 20
90.55
 11
41.9834
 21
90.2781
  0
LINE
  8
0
 10
41.9834
 20
90.2781
 11
41.7678
 21
90.0322
  0
LINE
  8
0
 10
41.7678
 20
90.0322
 11
41.5219
 21
89.8166
  0
LINE
  8
0
 10
41.5219
 20
89.8166
 11
41.25
 21
89.6349
  0
LINE
  8
0
 10
41.25
 20
89.6349
 11
40.9567
 21
89.4903
  0
LINE
  8
0
 10
40.9567
 20
89.4903
 11
40.647
 21
89.3852
  0
LINE
  8
0
 10
40.647
 20
89.3852
 11
40.3263
 21
89.3214
  0
LINE
  8
0
 10
40.3263
 20
89.3214
 11
40
 21
89.3
  0
LINE
  8
0
 10
40
 20
89.3
 11
39.6737
 21
89.3214
  0
LINE
  8
0
 10
121.835
 20
78.55
 11
121.69
 21
78.8433
  0
LINE
  8
0
 10
121.69
 20
78.8433
 11
121.585
 21
79.153
  0
LINE
  8
0
 10
121.585
 20
79.153
 11
121.521
 21
79.4737
  0
LINE
  8
0
 10
121.521
 20
79.4737
 11
121.5
 21
79.8
  0
LINE
  8
0
 10
121.5
 20
79.8
 11
121.521
 21
80.1263
  0
LINE
  8
0
 10
121.521
 20
80.1263
 11
121.585
 21
80.447
  0
LINE
  8
0
 10
121.585
 20
80.447
 11
121.69
 21
80.7567
  0
LINE
  8
0
 10
121.69
 20
80.7567
 11
121.835
 21
81.05
  0
LINE
  8
0
 10
121.835
 20
81.05
 11
122.017
 21
81.3219
  0
LINE
  8
0
 10
122.017
 20
81.3219
 11
122.232
 21
81.5678
  0
LINE
  8
0
 10
122.232
 20
81.5678
 11
122.478
 21
81.7834
  0
LINE
  8
0
 10
122.478
 20
81.7834
 11
122.75
 21
81.9651
  0
LINE
  8
0
 10
122.75
 20
81.9651
 11
123.043
 21
82.1097
  0
LINE
  8
0
 10
123.043
 20
82.1097
 11
123.353
 21
82.2148
  0
LINE
  8
0
 10
123.353
 20
82.2148
 11
123.674
 21
82.2786
  0
LINE
  8
0
 10
123.674
 20
82.2786
 11
124
 21
82.3
  0
LINE
  8
0
 10
124
 20
82.3
 11
124.326
 21
82.2786
  0
LINE
  8
0
 10
124.326
 20
82.2786
 11
124.647
 21
82.2148
  0
LINE
  8
0
 10
124.647
 20
82.2148
 11
124.957
 21
82.1097
  0
LINE
  8
0
 10
124.957
 20
82.1097
 11
125.25
 21
81.9651
  0
LINE
  8
0
 10
125.25
 20
81.9651
 11
125.522
 21
81.7834
  0
LINE
  8
0
 10
125.522
 20
81.7834
 11
125.768
 21
81.5678
  0
LINE
  8
0
 10
125.768
 20
81.5678
 11
125.983
 21
81.3219
  0
LINE
  8
0
 10
125.983
 20
81.3219
 11
126.165
 21
81.05
  0
LINE
  8
0
 10
126.165
 20
81.05
 11
126.31
 21
80.7567
  0
LINE
  8
0
 10
126.31
 20
80.7567
 11
126.415
 21
80.447
  0
LINE
  8
0
 10
126.415
 20
80.447
 11
126.479
 21
80.1263
  0
LINE
  8
0
 10
126.479
 20
80.1263
 11
126.5
 21
79.8
  0
LINE
  8
0
 10
126.5
 20
79.8
 11
126.479
 21
79.4737
  0
LINE
  8
0
 10
126.479
 20
79.4737
 11
126.415
 21
79.153
  0
LINE
  8
0
 10
126.415
 20
79.153
 11
126.31
 21
78.8433
  0
LINE
  8
0
 10
126.31
 20
78.8433
 11
126.165
 21
78.55
  0
LINE
  8
0
 10
126.165
 20
78.55
 11
125.983
 21
78.2781
  0
LINE
  8
0
 10
125.983
 20
78.2781
 11
125.768
 21
78.0322
  0
LINE
  8
0
 10
125.768
 20
78.0322
 11
125.522
 21
77.8166
  0
LINE
  8
0
 10
125.522
 20
77.8166
 11
125.25
 21
77.6349
  0
LINE
  8
0
 10
125.25
 20
77.6349
 11
124.957
 21
77.4903
  0
LINE
  8
0
 10
124.957
 20
77.4903
 11
124.647
 21
77.3852
  0
LINE
  8
0
 10
124.647
 20
77.3852
 11
124.326
 21
77.3214
  0
LINE
  8
0
 10
124.326
 20
77.3214
 11
124
 21
77.3
  0
LINE
  8
0
 10
124
 20
77.3
 11
123.674
 21
77.3214
  0
LINE
  8
0
 10
123.674
 20
77.3214
 11
123.353
 21
77.3852
  0
LINE
  8
0
 10
123.353
 20
77.3852
 11
123.043
 21
77.4903
  0
LINE
  8
0
 10
123.043
 20
77.4903
 11
122.75
 21
77.6349
  0
LINE
  8
0
 10
122.75
 20
77.6349
 11
122.478
 21
77.8166
  0
LINE
  8
0
 10
122.478
 20
77.8166
 11
122.232
 21
78.0322
  0
LINE
  8
0
 10
122.232
 20
78.0322
 11
122.017
 21
78.2781
  0
LINE
  8
0
 10
122.017
 20
78.2781
 11
121.835
 21
78.55
  0
LINE
  8
0
 10
51.6737
 20
77.3214
 11
51.353
 21
77.3852
  0
LINE
  8
0
 10
51.353
 20
77.3852
 11
51.0433
 21
77.4903
  0
LINE
  8
0
 10
51.0433
 20
77.4903
 11
50.75
 21
77.6349
  0
LINE
  8
0
 10
50.75
 20
77.6349
 11
50.4781
 21
77.8166
  0
LINE
  8
0
 10
50.4781
 20
77.8166
 11
50.2322
 21
78.0322
  0
LINE
  8
0
 10
50.2322
 20
78.0322
 11
50.0166
 21
78.2781
  0
LINE
  8
0
 10
50.0166
 20
78.2781
 11
49.8349
 21
78.55
  0
LINE
  8
0
 10
49.8349
 20
78.55
 11
49.6903
 21
78.8433
  0
LINE
  8
0
 10
49.6903
 20
78.8433
 11
49.5852
 21
79.153
  0
LINE
  8
0
 10
49.5852
 20
79.153
 11
49.5214
 21
79.4737
  0
LINE
  8
0
 10
49.5214
 20
79.4737
 11
49.5
 21
79.8
  0
LINE
  8
0
 10
49.5
 20
79.8
 11
49.5214
 21
80.1263
  0
LINE
  8
0
 10
49.5214
 20
80.1263
 11
49.5852
 21
80.447
  0
LINE
  8
0
 10
49.5852
 20
80.447
 11
49.6903
 21
80.7567
  0
LINE
  8
0
 10
49.6903
 20
80.7567
 11
49.8349
 21
81.05
  0
LINE
  8
0
 10
49.8349
 20
81.05
 11
50.0166
 21
81.3219
  0
LINE
  8
0
 10
50.0166
 20
81.3219
 11
50.2322
 21
81.5678
  0
LINE
  8
0
 10
50.2322
 20
81.5678
 11
50.4781
 21
81.7834
  0
LINE
  8
0
 10
50.4781
 20
81.7834
 11
50.75
 21
81.9651
  0
LINE
  8
0
 10
50.75
 20
81.9651
 11
51.0433
 21
82.1097
  0
LINE
  8
0
 10
51.0433
 20
82.1097
 11
51.353
 21
82.2148
  0
LINE
  8
0
 10
51.353
 20
82.2148
 11
51.6737
 21
82.2786
  0
LINE
  8
0
 10
51.6737
 20
82.2786
 11
52
 21
82.3
  0
LINE
  8
0
 10
52
 20
82.3
 11
52.3263
 21
82.2786
  0
LINE
  8
0
 10
52.3263
 20
82.2786
 11
52.647
 21
82.2148
  0
LINE
  8
0
 10
52.647
 20
82.2148
 11
52.9567
 21
82.1097
  0
LINE
  8
0
 10
52.9567
 20
82.1097
 11
53.25
 21
81.9651
  0
LINE
  8
0
 10
53.25
 20
81.9651
 11
53.5219
 21
81.7834
  0
LINE
  8
0
 10
53.5219
 20
81.7834
 11
53.7678
 21
81.5678
  0
LINE
  8
0
 10
53.7678
 20
81.5678
 11
53.9834
 21
81.3219
  0
LINE
  8
0
 10
53.9834
 20
81.3219
 11
54.1651
 21
81.05
  0
LINE
  8
0
 10
54.1651
 20
81.05
 11
54.3097
 21
80.7567
  0
LINE
  8
0
 10
54.3097
 20
80.7567
 11
54.4148
 21
80.447
  0
LINE
  8
0
 10
54.4148
 20
80.447
 11
54.4786
 21
80.1263
  0
LINE
  8
0
 10
54.4786
 20
80.1263
 11
54.5
 21
79.8
  0
LINE
  8
0
 10
54.5
 20
79.8
 11
54.4786
 21
79.4737
  0
LINE
  8
0
 10
54.4786
 20
79.4737
 11
54.4148
 21
79.153
  0
LINE
  8
0
 10
54.4148
 20
79.153
 11
54.3097
 21
78.8433
  0
LINE
  8
0
 10
54.3097
 20
78.8433
 11
54.1651
 21
78.55
  0
LINE
  8
0
 10
54.1651
 20
78.55
 11
53.9834
 21
78.2781
  0
LINE
  8
0
 10
53.9834
 20
78.2781
 11
53.7678
 21
78.0322
  0
LINE
  8
0
 10
53.7678
 20
78.0322
 11
53.5219
 21
77.8166
  0
LINE
  8
0
 10
53.5219
 20
77.8166
 11
53.25
 21
77.6349
  0
LINE
  8
0
 10
53.25
 20
77.6349
 11
52.9567
 21
77.4903
  0
LINE
  8
0
 10
52.9567
 20
77.4903
 11
52.647
 21
77.3852
  0
LINE
  8
0
 10
52.647
 20
77.3852
 11
52.3263
 21
77.3214
  0
LINE
  8
0
 10
52.3263
 20
77.3214
 11
52
 21
77.3
  0
LINE
  8
0
 10
52
 20
77.3
 11
51.6737
 21
77.3214
  0
LINE
  8
0
 10
97.6903
 20
78.8433
 11
97.5852
 21
79.153
  0
LINE
  8
0
 10
97.5852
 20
79.153
 11
97.5214
 21
79.4737
  0
LINE
  8
0
 10
97.5214
 20
79.4737
 11
97.5
 21
79.8
  0
LINE
  8
0
 10
97.5
 20
79.8
 11
97.5214
 21
80.1263
  0
LINE
  8
0
 10
97.5214
 20
80.1263
 11
97.5852
 21
80.447
  0
LINE
  8
0
 10
97.5852
 20
80.447
 11
97.6903
 21
80.7567
  0
LINE
  8
0
 10
97.6903
 20
80.7567
 11
97.8349
 21
81.05
  0
LINE
  8
0
 10
97.8349
 20
81.05
 11
98.0166
 21
81.3219
  0
LINE
  8
0
 10
98.0166
 20
81.3219
 11
98.2322
 21
81.5678
  0
LINE
  8
0
 10
98.2322
 20
81.5678
 11
98.4781
 21
81.7834
  0
LINE
  8
0
 10
98.4781
 20
81.7834
 11
98.75
 21
81.9651
  0
LINE
  8
0
 10
98.75
 20
81.9651
 11
99.0433
 21
82.1097
  0
LINE
  8
0
 10
99.0433
 20
82.1097
 11
99.353
 21
82.2148
  0
LINE
  8
0
 10
99.353
 20
82.2148
 11
99.6737
 21
82.2786
  0
LINE
  8
0
 10
99.6737
 20
82.2786
 11
100
 21
82.3
  0
LINE
  8
0
 10
100
 20
82.3
 11
100.326
 21
82.2786
  0
LINE
  8
0
 10
100.326
 20
82.2786
 11
100.647
 21
82.2148
  0
LINE
  8
0
 10
100.647
 20
82.2148
 11
100.957
 21
82.1097
  0
LINE
  8
0
 10
100.957
 20
82.1097
 11
101.25
 21
81.9651
  0
LINE
  8
0
 10
101.25
 20
81.9651
 11
101.522
 21
81.7834
  0
LINE
  8
0
 10
101.522
 20
81.7834
 11
101.768
 21
81.5678
  0
LINE
  8
0
 10
101.768
 20
81.5678
 11
101.983
 21
81.3219
  0
LINE
  8
0
 10
101.983
 20
81.3219
 11
102.165
 21
81.05
  0
LINE
  8
0
 10
102.165
 20
81.05
 11
102.31
 21
80.7567
  0
LINE
  8
0
 10
102.31
 20
80.7567
 11
102.415
 21
80.447
  0
LINE
  8
0
 10
102.415
 20
80.447
 11
102.479
 21
80.1263
  0
LINE
  8
0
 10
102.479
 20
80.1263
 11
102.5
 21
79.8
  0
LINE
  8
0
 10
102.5
 20
79.8
 11
102.479
 21
79.4737
  0
LINE
  8
0
 10
102.479
 20
79.4737
 11
102.415
 21
79.153
  0
LINE
  8
0
 10
102.415
 20
79.153
 11
102.31
 21
78.8433
  0
LINE
  8
0
 10
102.31
 20
78.8433
 11
102.165
 21
78.55
  0
LINE
  8
0
 10
102.165
 20
78.55
 11
101.983
 21
78.2781
  0
LINE
  8
0
 10
101.983
 20
78.2781
 11
101.768
 21
78.0322
  0
LINE
  8
0
 10
101.768
 20
78.0322
 11
101.522
 21
77.8166
  0
LINE
  8
0
 10
101.522
 20
77.8166
 11
101.25
 21
77.6349
  0
LINE
  8
0
 10
101.25
 20
77.6349
 11
100.957
 21
77.4903
  0
LINE
  8
0
 10
100.957
 20
77.4903
 11
100.647
 21
77.3852
  0
LINE
  8
0
 10
100.647
 20
77.3852
 11
100.326
 21
77.3214
  0
LINE
  8
0
 10
100.326
 20
77.3214
 11
100
 21
77.3
  0
LINE
  8
0
 10
100
 20
77.3
 11
99.6737
 21
77.3214
  0
LINE
  8
0
 10
99.6737
 20
77.3214
 11
99.353
 21
77.3852
  0
LINE
  8
0
 10
99.353
 20
77.3852
 11
99.0433
 21
77.4903
  0
LINE
  8
0
 10
99.0433
 20
77.4903
 11
98.75
 21
77.6349
  0
LINE
  8
0
 10
98.75
 20
77.6349
 11
98.4781
 21
77.8166
  0
LINE
  8
0
 10
98.4781
 20
77.8166
 11
98.2322
 21
78.0322
  0
LINE
  8
0
 10
98.2322
 20
78.0322
 11
98.0166
 21
78.2781
  0
LINE
  8
0
 10
98.0166
 20
78.2781
 11
97.8349
 21
78.55
  0
LINE
  8
0
 10
97.8349
 20
78.55
 11
97.6903
 21
78.8433
  0
LINE
  8
0
 10
39.6737
 20
77.3214
 11
39.353
 21
77.3852
  0
LINE
  8
0
 10
39.353
 20
77.3852
 11
39.0433
 21
77.4903
  0
LINE
  8
0
 10
39.0433
 20
77.4903
 11
38.75
 21
77.6349
  0
LINE
  8
0
 10
38.75
 20
77.6349
 11
38.4781
 21
77.8166
  0
LINE
  8
0
 10
38.4781
 20
77.8166
 11
38.2322
 21
78.0322
  0
LINE
  8
0
 10
38.2322
 20
78.0322
 11
38.0166
 21
78.2781
  0
LINE
  8
0
 10
38.0166
 20
78.2781
 11
37.8349
 21
78.55
  0
LINE
  8
0
 10
37.8349
 20
78.55
 11
37.6903
 21
78.8433
  0
LINE
  8
0
 10
37.6903
 20
78.8433
 11
37.5852
 21
79.153
  0
LINE
  8
0
 10
37.5852
 20
79.153
 11
37.5214
 21
79.4737
  0
LINE
  8
0
 10
37.5214
 20
79.4737
 11
37.5
 21
79.8
  0
LINE
  8
0
 10
37.5
 20
79.8
 11
37.5214
 21
80.1263
  0
LINE
  8
0
 10
37.5214
 20
80.1263
 11
37.5852
 21
80.447
  0
LINE
  8
0
 10
37.5852
 20
80.447
 11
37.6903
 21
80.7567
  0
LINE
  8
0
 10
37.6903
 20
80.7567
 11
37.8349
 21
81.05
  0
LINE
  8
0
 10
37.8349
 20
81.05
 11
38.0166
 21
81.3219
  0
LINE
  8
0
 10
38.0166
 20
81.3219
 11
38.2322
 21
81.5678
  0
LINE
  8
0
 10
38.2322
 20
81.5678
 11
38.4781
 21
81.7834
  0
LINE
  8
0
 10
38.4781
 20
81.7834
 11
38.75
 21
81.9651
  0
LINE
  8
0
 10
38.75
 20
81.9651
 11
39.0433
 21
82.1097
  0
LINE
  8
0
 10
39.0433
 20
82.1097
 11
39.353
 21
82.2148
  0
LINE
  8
0
 10
39.353
 20
82.2148
 11
39.6737
 21
82.2786
  0
LINE
  8
0
 10
39.6737
 20
82.2786
 11
40
 21
82.3
  0
LINE
  8
0
 10
40
 20
82.3
 11
40.3263
 21
82.2786
  0
LINE
  8
0
 10
40.3263
 20
82.2786
 11
40.647
 21
82.2148
  0
LINE
  8
0
 10
40.647
 20
82.2148
 11
40.9567
 21
82.1097
  0
LINE
  8
0
 10
40.9567
 20
82.1097
 11
41.25
 21
81.9651
  0
LINE
  8
0
 10
41.25
 20
81.9651
 11
41.5219
 21
81.7834
  0
LINE
  8
0
 10
41.5219
 20
81.7834
 11
41.7678
 21
81.5678
  0
LINE
  8
0
 10
41.7678
 20
81.5678
 11
41.9834
 21
81.3219
  0
LINE
  8
0
 10
41.9834
 20
81.3219
 11
42.1651
 21
81.05
  0
LINE
  8
0
 10
42.1651
 20
81.05
 11
42.3097
 21
80.7567
  0
LINE
  8
0
 10
42.3097
 20
80.7567
 11
42.4148
 21
80.447
  0
LINE
  8
0
 10
42.4148
 20
80.447
 11
42.4786
 21
80.1263
  0
LINE
  8
0
 10
42.4786
 20
80.1263
 11
42.5
 21
79.8
  0
LINE
  8
0
 10
42.5
 20
79.8
 11
42.4786
 21
79.4737
  0
LINE
  8
0
 10
42.4786
 20
79.4737
 11
42.4148
 21
79.153
  0
LINE
  8
0
 10
42.4148
 20
79.153
 11
42.3097
 21
78.8433
  0
LINE
  8
0
 10
42.3097
 20
78.8433
 11
42.1651
 21
78.55
  0
LINE
  8
0
 10
42.1651
 20
78.55
 11
41.9834
 21
78.2781
  0
LINE
  8
0
 10
41.9834
 20
78.2781
 11
41.7678
 21
78.0322
  0
LINE
  8
0
 10
41.7678
 20
78.0322
 11
41.5219
 21
77.8166
  0
LINE
  8
0
 10
41.5219
 20
77.8166
 11
41.25
 21
77.6349
  0
LINE
  8
0
 10
41.25
 20
77.6349
 11
40.9567
 21
77.4903
  0
LINE
  8
0
 10
40.9567
 20
77.4903
 11
40.647
 21
77.3852
  0
LINE
  8
0
 10
40.647
 20
77.3852
 11
40.3263
 21
77.3214
  0
LINE
  8
0
 10
40.3263
 20
77.3214
 11
40
 21
77.3
  0
LINE
  8
0
 10
40
 20
77.3
 11
39.6737
 21
77.3214
  0
LINE
  8
0
 10
63.6737
 20
77.3214
 11
63.353
 21
77.3852
  0
LINE
  8
0
 10
63.353
 20
77.3852
 11
63.0433
 21
77.4903
  0
LINE
  8
0
 10
63.0433
 20
77.4903
 11
62.75
 21
77.6349
  0
LINE
  8
0
 10
62.75
 20
77.6349
 11
62.4781
 21
77.8166
  0
LINE
  8
0
 10
62.4781
 20
77.8166
 11
62.2322
 21
78.0322
  0
LINE
  8
0
 10
62.2322
 20
78.0322
 11
62.0166
 21
78.2781
  0
LINE
  8
0
 10
62.0166
 20
78.2781
 11
61.8349
 21
78.55
  0
LINE
  8
0
 10
61.8349
 20
78.55
 11
61.6903
 21
78.8433
  0
LINE
  8
0
 10
61.6903
 20
78.8433
 11
61.5852
 21
79.153
  0
LINE
  8
0
 10
61.5852
 20
79.153
 11
61.5214
 21
79.4737
  0
LINE
  8
0
 10
61.5214
 20
79.4737
 11
61.5
 21
79.8
  0
LINE
  8
0
 10
61.5
 20
79.8
 11
61.5214
 21
80.1263
  0
LINE
  8
0
 10
61.5214
 20
80.1263
 11
61.5852
 21
80.447
  0
LINE
  8
0
 10
61.5852
 20
80.447
 11
61.6903
 21
80.7567
  0
LINE
  8
0
 10
61.6903
 20
80.7567
 11
61.8349
 21
81.05
  0
LINE
  8
0
 10
61.8349
 20
81.05
 11
62.0166
 21
81.3219
  0
LINE
  8
0
 10
62.0166
 20
81.3219
 11
62.2322
 21
81.5678
  0
LINE
  8
0
 10
62.2322
 20
81.5678
 11
62.4781
 21
81.7834
  0
LINE
  8
0
 10
62.4781
 20
81.7834
 11
62.75
 21
81.9651
  0
LINE
  8
0
 10
62.75
 20
81.9651
 11
63.0433
 21
82.1097
  0
LINE
  8
0
 10
63.0433
 20
82.1097
 11
63.353
 21
82.2148
  0
LINE
  8
0
 10
63.353
 20
82.2148
 11
63.6737
 21
82.2786
  0
LINE
  8
0
 10
63.6737
 20
82.2786
 11
64
 21
82.3
  0
LINE
  8
0
 10
64
 20
82.3
 11
64.3263
 21
82.2786
  0
LINE
  8
0
 10
64.3263
 20
82.2786
 11
64.647
 21
82.2148
  0
LINE
  8
0
 10
64.647
 20
82.2148
 11
64.9567
 21
82.1097
  0
LINE
  8
0
 10
64.9567
 20
82.1097
 11
65.25
 21
81.9651
  0
LINE
  8
0
 10
65.25
 20
81.9651
 11
65.5219
 21
81.7834
  0
LINE
  8
0
 10
65.5219
 20
81.7834
 11
65.7678
 21
81.5678
  0
LINE
  8
0
 10
65.7678
 20
81.5678
 11
65.9834
 21
81.3219
  0
LINE
  8
0
 10
65.9834
 20
81.3219
 11
66.1651
 21
81.05
  0
LINE
  8
0
 10
66.1651
 20
81.05
 11
66.3097
 21
80.7567
  0
LINE
  8
0
 10
66.3097
 20
80.7567
 11
66.4148
 21
80.447
  0
LINE
  8
0
 10
66.4148
 20
80.447
 11
66.4786
 21
80.1263
  0
LINE
  8
0
 10
66.4786
 20
80.1263
 11
66.5
 21
79.8
  0
LINE
  8
0
 10
66.5
 20
79.8
 11
66.4786
 21
79.4737
  0
LINE
  8
0
 10
66.4786
 20
79.4737
 11
66.4148
 21
79.153
  0
LINE
  8
0
 10
66.4148
 20
79.153
 11
66.3097
 21
78.8433
  0
LINE
  8
0
 10
66.3097
 20
78.8433
 11
66.1651
 21
78.55
  0
LINE
  8
0
 10
66.1651
 20
78.55
 11
65.9834
 21
78.2781
  0
LINE
  8
0
 10
65.9834
 20
78.2781
 11
65.7678
 21
78.0322
  0
LINE
  8
0
 10
65.7678
 20
78.0322
 11
65.5219
 21
77.8166
  0
LINE
  8
0
 10
65.5219
 20
77.8166
 11
65.25
 21
77.6349
  0
LINE
  8
0
 10
65.25
 20
77.6349
 11
64.9567
 21
77.4903
  0
LINE
  8
0
 10
64.9567
 20
77.4903
 11
64.647
 21
77.3852
  0
LINE
  8
0
 10
64.647
 20
77.3852
 11
64.3263
 21
77.3214
  0
LINE
  8
0
 10
64.3263
 20
77.3214
 11
64
 21
77.3
  0
LINE
  8
0
 10
64
 20
77.3
 11
63.6737
 21
77.3214
  0
LINE
  8
0
 10
75.6737
 20
77.3214
 11
75.353
 21
77.3852
  0
LINE
  8
0
 10
75.353
 20
77.3852
 11
75.0433
 21
77.4903
  0
LINE
  8
0
 10
75.0433
 20
77.4903
 11
74.75
 21
77.6349
  0
LINE
  8
0
 10
74.75
 20
77.6349
 11
74.4781
 21
77.8166
  0
LINE
  8
0
 10
74.4781
 20
77.8166
 11
74.2322
 21
78.0322
  0
LINE
  8
0
 10
74.2322
 20
78.0322
 11
74.0166
 21
78.2781
  0
LINE
  8
0
 10
74.0166
 20
78.2781
 11
73.8349
 21
78.55
  0
LINE
  8
0
 10
73.8349
 20
78.55
 11
73.6903
 21
78.8433
  0
LINE
  8
0
 10
73.6903
 20
78.8433
 11
73.5852
 21
79.153
  0
LINE
  8
0
 10
73.5852
 20
79.153
 11
73.5214
 21
79.4737
  0
LINE
  8
0
 10
73.5214
 20
79.4737
 11
73.5
 21
79.8
  0
LINE
  8
0
 10
73.5
 20
79.8
 11
73.5214
 21
80.1263
  0
LINE
  8
0
 10
73.5214
 20
80.1263
 11
73.5852
 21
80.447
  0
LINE
  8
0
 10
73.5852
 20
80.447
 11
73.6903
 21
80.7567
  0
LINE
  8
0
 10
73.6903
 20
80.7567
 11
73.8349
 21
81.05
  0
LINE
  8
0
 10
73.8349
 20
81.05
 11
74.0166
 21
81.3219
  0
LINE
  8
0
 10
74.0166
 20
81.3219
 11
74.2322
 21
81.5678
  0
LINE
  8
0
 10
74.2322
 20
81.5678
 11
74.4781
 21
81.7834
  0
LINE
  8
0
 10
74.4781
 20
81.7834
 11
74.75
 21
81.9651
  0
LINE
  8
0
 10
74.75
 20
81.9651
 11
75.0433
 21
82.1097
  0
LINE
  8
0
 10
75.0433
 20
82.1097
 11
75.353
 21
82.2148
  0
LINE
  8
0
 10
75.353
 20
82.2148
 11
75.6737
 21
82.2786
  0
LINE
  8
0
 10
75.6737
 20
82.2786
 11
76
 21
82.3
  0
LINE
  8
0
 10
76
 20
82.3
 11
76.3263
 21
82.2786
  0
LINE
  8
0
 10
76.3263
 20
82.2786
 11
76.647
 21
82.2148
  0
LINE
  8
0
 10
76.647
 20
82.2148
 11
76.9567
 21
82.1097
  0
LINE
  8
0
 10
76.9567
 20
82.1097
 11
77.25
 21
81.9651
  0
LINE
  8
0
 10
77.25
 20
81.9651
 11
77.5219
 21
81.7834
  0
LINE
  8
0
 10
77.5219
 20
81.7834
 11
77.7678
 21
81.5678
  0
LINE
  8
0
 10
77.7678
 20
81.5678
 11
77.9834
 21
81.3219
  0
LINE
  8
0
 10
77.9834
 20
81.3219
 11
78.1651
 21
81.05
  0
LINE
  8
0
 10
78.1651
 20
81.05
 11
78.3097
 21
80.7567
  0
LINE
  8
0
 10
78.3097
 20
80.7567
 11
78.4148
 21
80.447
  0
LINE
  8
0
 10
78.4148
 20
80.447
 11
78.4786
 21
80.1263
  0
LINE
  8
0
 10
78.4786
 20
80.1263
 11
78.5
 21
79.8
  0
LINE
  8
0
 10
78.5
 20
79.8
 11
78.4786
 21
79.4737
  0
LINE
  8
0
 10
78.4786
 20
79.4737
 11
78.4148
 21
79.153
  0
LINE
  8
0
 10
78.4148
 20
79.153
 11
78.3097
 21
78.8433
  0
LINE
  8
0
 10
78.3097
 20
78.8433
 11
78.1651
 21
78.55
  0
LINE
  8
0
 10
78.1651
 20
78.55
 11
77.9834
 21
78.2781
  0
LINE
  8
0
 10
77.9834
 20
78.2781
 11
77.7678
 21
78.0322
  0
LINE
  8
0
 10
77.7678
 20
78.0322
 11
77.5219
 21
77.8166
  0
LINE
  8
0
 10
77.5219
 20
77.8166
 11
77.25
 21
77.6349
  0
LINE
  8
0
 10
77.25
 20
77.6349
 11
76.9567
 21
77.4903
  0
LINE
  8
0
 10
76.9567
 20
77.4903
 11
76.647
 21
77.3852
  0
LINE
  8
0
 10
76.647
 20
77.3852
 11
76.3263
 21
77.3214
  0
LINE
  8
0
 10
76.3263
 20
77.3214
 11
76
 21
77.3
  0
LINE
  8
0
 10
76
 20
77.3
 11
75.6737
 21
77.3214
  0
LINE
  8
0
 10
39.6737
 20
65.3214
 11
39.353
 21
65.3852
  0
LINE
  8
0
 10
39.353
 20
65.3852
 11
39.0433
 21
65.4903
  0
LINE
  8
0
 10
39.0433
 20
65.4903
 11
38.75
 21
65.6349
  0
LINE
  8
0
 10
38.75
 20
65.6349
 11
38.4781
 21
65.8166
  0
LINE
  8
0
 10
38.4781
 20
65.8166
 11
38.2322
 21
66.0322
  0
LINE
  8
0
 10
38.2322
 20
66.0322
 11
38.0166
 21
66.2781
  0
LINE
  8
0
 10
38.0166
 20
66.2781
 11
37.8349
 21
66.55
  0
LINE
  8
0
 10
37.8349
 20
66.55
 11
37.6903
 21
66.8433
  0
LINE
  8
0
 10
37.6903
 20
66.8433
 11
37.5852
 21
67.153
  0
LINE
  8
0
 10
37.5852
 20
67.153
 11
37.5214
 21
67.4737
  0
LINE
  8
0
 10
37.5214
 20
67.4737
 11
37.5
 21
67.8
  0
LINE
  8
0
 10
37.5
 20
67.8
 11
37.5214
 21
68.1263
  0
LINE
  8
0
 10
37.5214
 20
68.1263
 11
37.5852
 21
68.447
  0
LINE
  8
0
 10
37.5852
 20
68.447
 11
37.6903
 21
68.7567
  0
LINE
  8
0
 10
37.6903
 20
68.7567
 11
37.8349
 21
69.05
  0
LINE
  8
0
 10
37.8349
 20
69.05
 11
38.0166
 21
69.3219
  0
LINE
  8
0
 10
38.0166
 20
69.3219
 11
38.2322
 21
69.5678
  0
LINE
  8
0
 10
38.2322
 20
69.5678
 11
38.4781
 21
69.7834
  0
LINE
  8
0
 10
38.4781
 20
69.7834
 11
38.75
 21
69.9651
  0
LINE
  8
0
 10
38.75
 20
69.9651
 11
39.0433
 21
70.1097
  0
LINE
  8
0
 10
39.0433
 20
70.1097
 11
39.353
 21
70.2148
  0
LINE
  8
0
 10
39.353
 20
70.2148
 11
39.6737
 21
70.2786
  0
LINE
  8
0
 10
39.6737
 20
70.2786
 11
40
 21
70.3
  0
LINE
  8
0
 10
40
 20
70.3
 11
40.3263
 21
70.2786
  0
LINE
  8
0
 10
40.3263
 20
70.2786
 11
40.647
 21
70.2148
  0
LINE
  8
0
 10
40.647
 20
70.2148
 11
40.9567
 21
70.1097
  0
LINE
  8
0
 10
40.9567
 20
70.1097
 11
41.25
 21
69.9651
  0
LINE
  8
0
 10
41.25
 20
69.9651
 11
41.5219
 21
69.7834
  0
LINE
  8
0
 10
41.5219
 20
69.7834
 11
41.7678
 21
69.5678
  0
LINE
  8
0
 10
41.7678
 20
69.5678
 11
41.9834
 21
69.3219
  0
LINE
  8
0
 10
41.9834
 20
69.3219
 11
42.1651
 21
69.05
  0
LINE
  8
0
 10
42.1651
 20
69.05
 11
42.3097
 21
68.7567
  0
LINE
  8
0
 10
42.3097
 20
68.7567
 11
42.4148
 21
68.447
  0
LINE
  8
0
 10
42.4148
 20
68.447
 11
42.4786
 21
68.1263
  0
LINE
  8
0
 10
42.4786
 20
68.1263
 11
42.5
 21
67.8
  0
LINE
  8
0
 10
42.5
 20
67.8
 11
42.4786
 21
67.4737
  0
LINE
  8
0
 10
42.4786
 20
67.4737
 11
42.4148
 21
67.153
  0
LINE
  8
0
 10
42.4148
 20
67.153
 11
42.3097
 21
66.8433
  0
LINE
  8
0
 10
42.3097
 20
66.8433
 11
42.1651
 21
66.55
  0
LINE
  8
0
 10
42.1651
 20
66.55
 11
41.9834
 21
66.2781
  0
LINE
  8
0
 10
41.9834
 20
66.2781
 11
41.7678
 21
66.0322
  0
LINE
  8
0
 10
41.7678
 20
66.0322
 11
41.5219
 21
65.8166
  0
LINE
  8
0
 10
41.5219
 20
65.8166
 11
41.25
 21
65.6349
  0
LINE
  8
0
 10
41.25
 20
65.6349
 11
40.9567
 21
65.4903
  0
LINE
  8
0
 10
40.9567
 20
65.4903
 11
40.647
 21
65.3852
  0
LINE
  8
0
 10
40.647
 20
65.3852
 11
40.3263
 21
65.3214
  0
LINE
  8
0
 10
40.3263
 20
65.3214
 11
40
 21
65.3
  0
LINE
  8
0
 10
40
 20
65.3
 11
39.6737
 21
65.3214
  0
LINE
  8
0
 10
51.6737
 20
65.3214
 11
51.353
 21
65.3852
  0
LINE
  8
0
 10
51.353
 20
65.3852
 11
51.0433
 21
65.4903
  0
LINE
  8
0
 10
51.0433
 20
65.4903
 11
50.75
 21
65.6349
  0
LINE
  8
0
 10
50.75
 20
65.6349
 11
50.4781
 21
65.8166
  0
LINE
  8
0
 10
50.4781
 20
65.8166
 11
50.2322
 21
66.0322
  0
LINE
  8
0
 10
50.2322
 20
66.0322
 11
50.0166
 21
66.2781
  0
LINE
  8
0
 10
50.0166
 20
66.2781
 11
49.8349
 21
66.55
  0
LINE
  8
0
 10
49.8349
 20
66.55
 11
49.6903
 21
66.8433
  0
LINE
  8
0
 10
49.6903
 20
66.8433
 11
49.5852
 21
67.153
  0
LINE
  8
0
 10
49.5852
 20
67.153
 11
49.5214
 21
67.4737
  0
LINE
  8
0
 10
49.5214
 20
67.4737
 11
49.5
 21
67.8
  0
LINE
  8
0
 10
49.5
 20
67.8
 11
49.5214
 21
68.1263
  0
LINE
  8
0
 10
49.5214
 20
68.1263
 11
49.5852
 21
68.447
  0
LINE
  8
0
 10
49.5852
 20
68.447
 11
49.6903
 21
68.7567
  0
LINE
  8
0
 10
49.6903
 20
68.7567
 11
49.8349
 21
69.05
  0
LINE
  8
0
 10
49.8349
 20
69.05
 11
50.0166
 21
69.3219
  0
LINE
  8
0
 10
50.0166
 20
69.3219
 11
50.2322
 21
69.5678
  0
LINE
  8
0
 10
50.2322
 20
69.5678
 11
50.4781
 21
69.7834
  0
LINE
  8
0
 10
50.4781
 20
69.7834
 11
50.75
 21
69.9651
  0
LINE
  8
0
 10
50.75
 20
69.9651
 11
51.0433
 21
70.1097
  0
LINE
  8
0
 10
51.0433
 20
70.1097
 11
51.353
 21
70.2148
  0
LINE
  8
0
 10
51.353
 20
70.2148
 11
51.6737
 21
70.2786
  0
LINE
  8
0
 10
51.6737
 20
70.2786
 11
52
 21
70.3
  0
LINE
  8
0
 10
52
 20
70.3
 11
52.3263
 21
70.2786
  0
LINE
  8
0
 10
52.3263
 20
70.2786
 11
52.647
 21
70.2148
  0
LINE
  8
0
 10
52.647
 20
70.2148
 11
52.9567
 21
70.1097
  0
LINE
  8
0
 10
52.9567
 20
70.1097
 11
53.25
 21
69.9651
  0
LINE
  8
0
 10
53.25
 20
69.9651
 11
53.5219
 21
69.7834
  0
LINE
  8
0
 10
53.5219
 20
69.7834
 11
53.7678
 21
69.5678
  0
LINE
  8
0
 10
53.7678
 20
69.5678
 11
53.9834
 21
69.3219
  0
LINE
  8
0
 10
53.9834
 20
69.3219
 11
54.1651
 21
69.05
  0
LINE
  8
0
 10
54.1651
 20
69.05
 11
54.3097
 21
68.7567
  0
LINE
  8
0
 10
54.3097
 20
68.7567
 11
54.4148
 21
68.447
  0
LINE
  8
0
 10
54.4148
 20
68.447
 11
54.4786
 21
68.1263
  0
LINE
  8
0
 10
54.4786
 20
68.1263
 11
54.5
 21
67.8
  0
LINE
  8
0
 10
54.5
 20
67.8
 11
54.4786
 21
67.4737
  0
LINE
  8
0
 10
54.4786
 20
67.4737
 11
54.4148
 21
67.153
  0
LINE
  8
0
 10
54.4148
 20
67.153
 11
54.3097
 21
66.8433
  0
LINE
  8
0
 10
54.3097
 20
66.8433
 11
54.1651
 21
66.55
  0
LINE
  8
0
 10
54.1651
 20
66.55
 11
53.9834
 21
66.2781
  0
LINE
  8
0
 10
53.9834
 20
66.2781
 11
53.7678
 21
66.0322
  0
LINE
  8
0
 10
53.7678
 20
66.0322
 11
53.5219
 21
65.8166
  0
LINE
  8
0
 10
53.5219
 20
65.8166
 11
53.25
 21
65.6349
  0
LINE
  8
0
 10
53.25
 20
65.6349
 11
52.9567
 21
65.4903
  0
LINE
  8
0
 10
52.9567
 20
65.4903
 11
52.647
 21
65.3852
  0
LINE
  8
0
 10
52.647
 20
65.3852
 11
52.3263
 21
65.3214
  0
LINE
  8
0
 10
52.3263
 20
65.3214
 11
52
 21
65.3
  0
LINE
  8
0
 10
52
 20
65.3
 11
51.6737
 21
65.3214
  0
LINE
  8
0
 10
63.6737
 20
65.3214
 11
63.353
 21
65.3852
  0
LINE
  8
0
 10
63.353
 20
65.3852
 11
63.0433
 21
65.4903
  0
LINE
  8
0
 10
63.0433
 20
65.4903
 11
62.75
 21
65.6349
  0
LINE
  8
0
 10
62.75
 20
65.6349
 11
62.4781
 21
65.8166
  0
LINE
  8
0
 10
62.4781
 20
65.8166
 11
62.2322
 21
66.0322
  0
LINE
  8
0
 10
62.2322
 20
66.0322
 11
62.0166
 21
66.2781
  0
LINE
  8
0
 10
62.0166
 20
66.2781
 11
61.8349
 21
66.55
  0
LINE
  8
0
 10
61.8349
 20
66.55
 11
61.6903
 21
66.8433
  0
LINE
  8
0
 10
61.6903
 20
66.8433
 11
61.5852
 21
67.153
  0
LINE
  8
0
 10
61.5852
 20
67.153
 11
61.5214
 21
67.4737
  0
LINE
  8
0
 10
61.5214
 20
67.4737
 11
61.5
 21
67.8
  0
LINE
  8
0
 10
61.5
 20
67.8
 11
61.5214
 21
68.1263
  0
LINE
  8
0
 10
61.5214
 20
68.1263
 11
61.5852
 21
68.447
  0
LINE
  8
0
 10
61.5852
 20
68.447
 11
61.6903
 21
68.7567
  0
LINE
  8
0
 10
61.6903
 20
68.7567
 11
61.8349
 21
69.05
  0
LINE
  8
0
 10
61.8349
 20
69.05
 11
62.0166
 21
69.3219
  0
LINE
  8
0
 10
62.0166
 20
69.3219
 11
62.2322
 21
69.5678
  0
LINE
  8
0
 10
62.2322
 20
69.5678
 11
62.4781
 21
69.7834
  0
LINE
  8
0
 10
62.4781
 20
69.7834
 11
62.75
 21
69.9651
  0
LINE
  8
0
 10
62.75
 20
69.9651
 11
63.0433
 21
70.1097
  0
LINE
  8
0
 10
63.0433
 20
70.1097
 11
63.353
 21
70.2148
  0
LINE
  8
0
 10
63.353
 20
70.2148
 11
63.6737
 21
70.2786
  0
LINE
  8
0
 10
63.6737
 20
70.2786
 11
64
 21
70.3
  0
LINE
  8
0
 10
64
 20
70.3
 11
64.3263
 21
70.2786
  0
LINE
  8
0
 10
64.3263
 20
70.2786
 11
64.647
 21
70.2148
  0
LINE
  8
0
 10
64.647
 20
70.2148
 11
64.9567
 21
70.1097
  0
LINE
  8
0
 10
64.9567
 20
70.1097
 11
65.25
 21
69.9651
  0
LINE
  8
0
 10
65.25
 20
69.9651
 11
65.5219
 21
69.7834
  0
LINE
  8
0
 10
65.5219
 20
69.7834
 11
65.7678
 21
69.5678
  0
LINE
  8
0
 10
65.7678
 20
69.5678
 11
65.9834
 21
69.3219
  0
LINE
  8
0
 10
65.9834
 20
69.3219
 11
66.1651
 21
69.05
  0
LINE
  8
0
 10
66.1651
 20
69.05
 11
66.3097
 21
68.7567
  0
LINE
  8
0
 10
66.3097
 20
68.7567
 11
66.4148
 21
68.447
  0
LINE
  8
0
 10
66.4148
 20
68.447
 11
66.4786
 21
68.1263
  0
LINE
  8
0
 10
66.4786
 20
68.1263
 11
66.5
 21
67.8
  0
LINE
  8
0
 10
66.5
 20
67.8
 11
66.4786
 21
67.4737
  0
LINE
  8
0
 10
66.4786
 20
67.4737
 11
66.4148
 21
67.153
  0
LINE
  8
0
 10
66.4148
 20
67.153
 11
66.3097
 21
66.8433
  0
LINE
  8
0
 10
66.3097
 20
66.8433
 11
66.1651
 21
66.55
  0
LINE
  8
0
 10
66.1651
 20
66.55
 11
65.9834
 21
66.2781
  0
LINE
  8
0
 10
65.9834
 20
66.2781
 11
65.7678
 21
66.0322
  0
LINE
  8
0
 10
65.7678
 20
66.0322
 11
65.5219
 21
65.8166
  0
LINE
  8
0
 10
65.5219
 20
65.8166
 11
65.25
 21
65.6349
  0
LINE
  8
0
 10
65.25
 20
65.6349
 11
64.9567
 21
65.4903
  0
LINE
  8
0
 10
64.9567
 20
65.4903
 11
64.647
 21
65.3852
  0
LINE
  8
0
 10
64.647
 20
65.3852
 11
64.3263
 21
65.3214
  0
LINE
  8
0
 10
64.3263
 20
65.3214
 11
64
 21
65.3
  0
LINE
  8
0
 10
64
 20
65.3
 11
63.6737
 21
65.3214
  0
LINE
  8
0
 10
75.6737
 20
65.3214
 11
75.353
 21
65.3852
  0
LINE
  8
0
 10
75.353
 20
65.3852
 11
75.0433
 21
65.4903
  0
LINE
  8
0
 10
75.0433
 20
65.4903
 11
74.75
 21
65.6349
  0
LINE
  8
0
 10
74.75
 20
65.6349
 11
74.4781
 21
65.8166
  0
LINE
  8
0
 10
74.4781
 20
65.8166
 11
74.2322
 21
66.0322
  0
LINE
  8
0
 10
74.2322
 20
66.0322
 11
74.0166
 21
66.2781
  0
LINE
  8
0
 10
74.0166
 20
66.2781
 11
73.8349
 21
66.55
  0
LINE
  8
0
 10
73.8349
 20
66.55
 11
73.6903
 21
66.8433
  0
LINE
  8
0
 10
73.6903
 20
66.8433
 11
73.5852
 21
67.153
  0
LINE
  8
0
 10
73.5852
 20
67.153
 11
73.5214
 21
67.4737
  0
LINE
  8
0
 10
73.5214
 20
67.4737
 11
73.5
 21
67.8
  0
LINE
  8
0
 10
73.5
 20
67.8
 11
73.5214
 21
68.1263
  0
LINE
  8
0
 10
73.5214
 20
68.1263
 11
73.5852
 21
68.447
  0
LINE
  8
0
 10
73.5852
 20
68.447
 11
73.6903
 21
68.7567
  0
LINE
  8
0
 10
73.6903
 20
68.7567
 11
73.8349
 21
69.05
  0
LINE
  8
0
 10
73.8349
 20
69.05
 11
74.0166
 21
69.3219
  0
LINE
  8
0
 10
74.0166
 20
69.3219
 11
74.2322
 21
69.5678
  0
LINE
  8
0
 10
74.2322
 20
69.5678
 11
74.4781
 21
69.7834
  0
LINE
  8
0
 10
74.4781
 20
69.7834
 11
74.75
 21
69.9651
  0
LINE
  8
0
 10
74.75
 20
69.9651
 11
75.0433
 21
70.1097
  0
LINE
  8
0
 10
75.0433
 20
70.1097
 11
75.353
 21
70.2148
  0
LINE
  8
0
 10
75.353
 20
70.2148
 11
75.6737
 21
70.2786
  0
LINE
  8
0
 10
75.6737
 20
70.2786
 11
76
 21
70.3
  0
LINE
  8
0
 10
76
 20
70.3
 11
76.3263
 21
70.2786
  0
LINE
  8
0
 10
76.3263
 20
70.2786
 11
76.647
 21
70.2148
  0
LINE
  8
0
 10
76.647
 20
70.2148
 11
76.9567
 21
70.1097
  0
LINE
  8
0
 10
76.9567
 20
70.1097
 11
77.25
 21
69.9651
  0
LINE
  8
0
 10
77.25
 20
69.9651
 11
77.5219
 21
69.7834
  0
LINE
  8
0
 10
77.5219
 20
69.7834
 11
77.7678
 21
69.5678
  0
LINE
  8
0
 10
77.7678
 20
69.5678
 11
77.9834
 21
69.3219
  0
LINE
  8
0
 10
77.9834
 20
69.3219
 11
78.1651
 21
69.05
  0
LINE
  8
0
 10
78.1651
 20
69.05
 11
78.3097
 21
68.7567
  0
LINE
  8
0
 10
78.3097
 20
68.7567
 11
78.4148
 21
68.447
  0
LINE
  8
0
 10
78.4148
 20
68.447
 11
78.4786
 21
68.1263
  0
LINE
  8
0
 10
78.4786
 20
68.1263
 11
78.5
 21
67.8
  0
LINE
  8
0
 10
78.5
 20
67.8
 11
78.4786
 21
67.4737
  0
LINE
  8
0
 10
78.4786
 20
67.4737
 11
78.4148
 21
67.153
  0
LINE
  8
0
 10
78.4148
 20
67.153
 11
78.3097
 21
66.8433
  0
LINE
  8
0
 10
78.3097
 20
66.8433
 11
78.1651
 21
66.55
  0
LINE
  8
0
 10
78.1651
 20
66.55
 11
77.9834
 21
66.2781
  0
LINE
  8
0
 10
77.9834
 20
66.2781
 11
77.7678
 21
66.0322
  0
LINE
  8
0
 10
77.7678
 20
66.0322
 11
77.5219
 21
65.8166
  0
LINE
  8
0
 10
77.5219
 20
65.8166
 11
77.25
 21
65.6349
  0
LINE
  8
0
 10
77.25
 20
65.6349
 11
76.9567
 21
65.4903
  0
LINE
  8
0
 10
76.9567
 20
65.4903
 11
76.647
 21
65.3852
  0
LINE
  8
0
 10
76.647
 20
65.3852
 11
76.3263
 21
65.3214
  0
LINE
  8
0
 10
76.3263
 20
65.3214
 11
76
 21
65.3
  0
LINE
  8
0
 10
76
 20
65.3
 11
75.6737
 21
65.3214
  0
LINE
  8
0
 10
111.674
 20
65.3214
 11
111.353
 21
65.3852
  0
LINE
  8
0
 10
111.353
 20
65.3852
 11
111.043
 21
65.4903
  0
LINE
  8
0
 10
111.043
 20
65.4903
 11
110.75
 21
65.6349
  0
LINE
  8
0
 10
110.75
 20
65.6349
 11
110.478
 21
65.8166
  0
LINE
  8
0
 10
110.478
 20
65.8166
 11
110.232
 21
66.0322
  0
LINE
  8
0
 10
110.232
 20
66.0322
 11
110.017
 21
66.2781
  0
LINE
  8
0
 10
110.017
 20
66.2781
 11
109.835
 21
66.55
  0
LINE
  8
0
 10
109.835
 20
66.55
 11
109.69
 21
66.8433
  0
LINE
  8
0
 10
109.69
 20
66.8433
 11
109.585
 21
67.153
  0
LINE
  8
0
 10
109.585
 20
67.153
 11
109.521
 21
67.4737
  0
LINE
  8
0
 10
109.521
 20
67.4737
 11
109.5
 21
67.8
  0
LINE
  8
0
 10
109.5
 20
67.8
 11
109.521
 21
68.1263
  0
LINE
  8
0
 10
109.521
 20
68.1263
 11
109.585
 21
68.447
  0
LINE
  8
0
 10
109.585
 20
68.447
 11
109.69
 21
68.7567
  0
LINE
  8
0
 10
109.69
 20
68.7567
 11
109.835
 21
69.05
  0
LINE
  8
0
 10
109.835
 20
69.05
 11
110.017
 21
69.3219
  0
LINE
  8
0
 10
110.017
 20
69.3219
 11
110.232
 21
69.5678
  0
LINE
  8
0
 10
110.232
 20
69.5678
 11
110.478
 21
69.7834
  0
LINE
  8
0
 10
110.478
 20
69.7834
 11
110.75
 21
69.9651
  0
LINE
  8
0
 10
110.75
 20
69.9651
 11
111.043
 21
70.1097
  0
LINE
  8
0
 10
111.043
 20
70.1097
 11
111.353
 21
70.2148
  0
LINE
  8
0
 10
111.353
 20
70.2148
 11
111.674
 21
70.2786
  0
LINE
  8
0
 10
111.674
 20
70.2786
 11
112
 21
70.3
  0
LINE
  8
0
 10
112
 20
70.3
 11
112.326
 21
70.2786
  0
LINE
  8
0
 10
112.326
 20
70.2786
 11
112.647
 21
70.2148
  0
LINE
  8
0
 10
112.647
 20
70.2148
 11
112.957
 21
70.1097
  0
LINE
  8
0
 10
112.957
 20
70.1097
 11
113.25
 21
69.9651
  0
LINE
  8
0
 10
113.25
 20
69.9651
 11
113.522
 21
69.7834
  0
LINE
  8
0
 10
113.522
 20
69.7834
 11
113.768
 21
69.5678
  0
LINE
  8
0
 10
113.768
 20
69.5678
 11
113.983
 21
69.3219
  0
LINE
  8
0
 10
113.983
 20
69.3219
 11
114.165
 21
69.05
  0
LINE
  8
0
 10
114.165
 20
69.05
 11
114.31
 21
68.7567
  0
LINE
  8
0
 10
114.31
 20
68.7567
 11
114.415
 21
68.447
  0
LINE
  8
0
 10
114.415
 20
68.447
 11
114.479
 21
68.1263
  0
LINE
  8
0
 10
114.479
 20
68.1263
 11
114.5
 21
67.8
  0
LINE
  8
0
 10
114.5
 20
67.8
 11
114.479
 21
67.4737
  0
LINE
  8
0
 10
114.479
 20
67.4737
 11
114.415
 21
67.153
  0
LINE
  8
0
 10
114.415
 20
67.153
 11
114.31
 21
66.8433
  0
LINE
  8
0
 10
114.31
 20
66.8433
 11
114.165
 21
66.55
  0
LINE
  8
0
 10
114.165
 20
66.55
 11
113.983
 21
66.2781
  0
LINE
  8
0
 10
113.983
 20
66.2781
 11
113.768
 21
66.0322
  0
LINE
  8
0
 10
113.768
 20
66.0322
 11
113.522
 21
65.8166
  0
LINE
  8
0
 10
113.522
 20
65.8166
 11
113.25
 21
65.6349
  0
LINE
  8
0
 10
113.25
 20
65.6349
 11
112.957
 21
65.4903
  0
LINE
  8
0
 10
112.957
 20
65.4903
 11
112.647
 21
65.3852
  0
LINE
  8
0
 10
112.647
 20
65.3852
 11
112.326
 21
65.3214
  0
LINE
  8
0
 10
112.326
 20
65.3214
 11
112
 21
65.3
  0
LINE
  8
0
 10
112
 20
65.3
 11
111.674
 21
65.3214
  0
LINE
  8
0
 10
87.6737
 20
65.3214
 11
87.353
 21
65.3852
  0
LINE
  8
0
 10
87.353
 20
65.3852
 11
87.0433
 21
65.4903
  0
LINE
  8
0
 10
87.0433
 20
65.4903
 11
86.75
 21
65.6349
  0
LINE
  8
0
 10
86.75
 20
65.6349
 11
86.4781
 21
65.8166
  0
LINE
  8
0
 10
86.4781
 20
65.8166
 11
86.2322
 21
66.0322
  0
LINE
  8
0
 10
86.2322
 20
66.0322
 11
86.0166
 21
66.2781
  0
LINE
  8
0
 10
86.0166
 20
66.2781
 11
85.8349
 21
66.55
  0
LINE
  8
0
 10
85.8349
 20
66.55
 11
85.6903
 21
66.8433
  0
LINE
  8
0
 10
85.6903
 20
66.8433
 11
85.5852
 21
67.153
  0
LINE
  8
0
 10
85.5852
 20
67.153
 11
85.5214
 21
67.4737
  0
LINE
  8
0
 10
85.5214
 20
67.4737
 11
85.5
 21
67.8
  0
LINE
  8
0
 10
85.5
 20
67.8
 11
85.5214
 21
68.1263
  0
LINE
  8
0
 10
85.5214
 20
68.1263
 11
85.5852
 21
68.447
  0
LINE
  8
0
 10
85.5852
 20
68.447
 11
85.6903
 21
68.7567
  0
LINE
  8
0
 10
85.6903
 20
68.7567
 11
85.8349
 21
69.05
  0
LINE
  8
0
 10
85.8349
 20
69.05
 11
86.0166
 21
69.3219
  0
LINE
  8
0
 10
86.0166
 20
69.3219
 11
86.2322
 21
69.5678
  0
LINE
  8
0
 10
86.2322
 20
69.5678
 11
86.4781
 21
69.7834
  0
LINE
  8
0
 10
86.4781
 20
69.7834
 11
86.75
 21
69.9651
  0
LINE
  8
0
 10
86.75
 20
69.9651
 11
87.0433
 21
70.1097
  0
LINE
  8
0
 10
87.0433
 20
70.1097
 11
87.353
 21
70.2148
  0
LINE
  8
0
 10
87.353
 20
70.2148
 11
87.6737
 21
70.2786
  0
LINE
  8
0
 10
87.6737
 20
70.2786
 11
88
 21
70.3
  0
LINE
  8
0
 10
88
 20
70.3
 11
88.3263
 21
70.2786
  0
LINE
  8
0
 10
88.3263
 20
70.2786
 11
88.647
 21
70.2148
  0
LINE
  8
0
 10
88.647
 20
70.2148
 11
88.9567
 21
70.1097
  0
LINE
  8
0
 10
88.9567
 20
70.1097
 11
89.25
 21
69.9651
  0
LINE
  8
0
 10
89.25
 20
69.9651
 11
89.5219
 21
69.7834
  0
LINE
  8
0
 10
89.5219
 20
69.7834
 11
89.7678
 21
69.5678
  0
LINE
  8
0
 10
89.7678
 20
69.5678
 11
89.9834
 21
69.3219
  0
LINE
  8
0
 10
89.9834
 20
69.3219
 11
90.1651
 21
69.05
  0
LINE
  8
0
 10
90.1651
 20
69.05
 11
90.3097
 21
68.7567
  0
LINE
  8
0
 10
90.3097
 20
68.7567
 11
90.4148
 21
68.447
  0
LINE
  8
0
 10
90.4148
 20
68.447
 11
90.4786
 21
68.1263
  0
LINE
  8
0
 10
90.4786
 20
68.1263
 11
90.5
 21
67.8
  0
LINE
  8
0
 10
90.5
 20
67.8
 11
90.4786
 21
67.4737
  0
LINE
  8
0
 10
90.4786
 20
67.4737
 11
90.4148
 21
67.153
  0
LINE
  8
0
 10
90.4148
 20
67.153
 11
90.3097
 21
66.8433
  0
LINE
  8
0
 10
90.3097
 20
66.8433
 11
90.1651
 21
66.55
  0
LINE
  8
0
 10
90.1651
 20
66.55
 11
89.9834
 21
66.2781
  0
LINE
  8
0
 10
89.9834
 20
66.2781
 11
89.7678
 21
66.0322
  0
LINE
  8
0
 10
89.7678
 20
66.0322
 11
89.5219
 21
65.8166
  0
LINE
  8
0
 10
89.5219
 20
65.8166
 11
89.25
 21
65.6349
  0
LINE
  8
0
 10
89.25
 20
65.6349
 11
88.9567
 21
65.4903
  0
LINE
  8
0
 10
88.9567
 20
65.4903
 11
88.647
 21
65.3852
  0
LINE
  8
0
 10
88.647
 20
65.3852
 11
88.3263
 21
65.3214
  0
LINE
  8
0
 10
88.3263
 20
65.3214
 11
88
 21
65.3
  0
LINE
  8
0
 10
88
 20
65.3
 11
87.6737
 21
65.3214
  0
LINE
  8
0
 10
123.674
 20
65.3214
 11
123.353
 21
65.3852
  0
LINE
  8
0
 10
123.353
 20
65.3852
 11
123.043
 21
65.4903
  0
LINE
  8
0
 10
123.043
 20
65.4903
 11
122.75
 21
65.6349
  0
LINE
  8
0
 10
122.75
 20
65.6349
 11
122.478
 21
65.8166
  0
LINE
  8
0
 10
122.478
 20
65.8166
 11
122.232
 21
66.0322
  0
LINE
  8
0
 10
122.232
 20
66.0322
 11
122.017
 21
66.2781
  0
LINE
  8
0
 10
122.017
 20
66.2781
 11
121.835
 21
66.55
  0
LINE
  8
0
 10
121.835
 20
66.55
 11
121.69
 21
66.8433
  0
LINE
  8
0
 10
121.69
 20
66.8433
 11
121.585
 21
67.153
  0
LINE
  8
0
 10
121.585
 20
67.153
 11
121.521
 21
67.4737
  0
LINE
  8
0
 10
121.521
 20
67.4737
 11
121.5
 21
67.8
  0
LINE
  8
0
 10
121.5
 20
67.8
 11
121.521
 21
68.1263
  0
LINE
  8
0
 10
121.521
 20
68.1263
 11
121.585
 21
68.447
  0
LINE
  8
0
 10
121.585
 20
68.447
 11
121.69
 21
68.7567
  0
LINE
  8
0
 10
121.69
 20
68.7567
 11
121.835
 21
69.05
  0
LINE
  8
0
 10
121.835
 20
69.05
 11
122.017
 21
69.3219
  0
LINE
  8
0
 10
122.017
 20
69.3219
 11
122.232
 21
69.5678
  0
LINE
  8
0
 10
122.232
 20
69.5678
 11
122.478
 21
69.7834
  0
LINE
  8
0
 10
122.478
 20
69.7834
 11
122.75
 21
69.9651
  0
LINE
  8
0
 10
122.75
 20
69.9651
 11
123.043
 21
70.1097
  0
LINE
  8
0
 10
123.043
 20
70.1097
 11
123.353
 21
70.2148
  0
LINE
  8
0
 10
123.353
 20
70.2148
 11
123.674
 21
70.2786
  0
LINE
  8
0
 10
123.674
 20
70.2786
 11
124
 21
70.3
  0
LINE
  8
0
 10
124
 20
70.3
 11
124.326
 21
70.2786
  0
LINE
  8
0
 10
124.326
 20
70.2786
 11
124.647
 21
70.2148
  0
LINE
  8
0
 10
124.647
 20
70.2148
 11
124.957
 21
70.1097
  0
LINE
  8
0
 10
124.957
 20
70.1097
 11
125.25
 21
69.9651
  0
LINE
  8
0
 10
125.25
 20
69.9651
 11
125.522
 21
69.7834
  0
LINE
  8
0
 10
125.522
 20
69.7834
 11
125.768
 21
69.5678
  0
LINE
  8
0
 10
125.768
 20
69.5678
 11
125.983
 21
69.3219
  0
LINE
  8
0
 10
125.983
 20
69.3219
 11
126.165
 21
69.05
  0
LINE
  8
0
 10
126.165
 20
69.05
 11
126.31
 21
68.7567
  0
LINE
  8
0
 10
126.31
 20
68.7567
 11
126.415
 21
68.447
  0
LINE
  8
0
 10
126.415
 20
68.447
 11
126.479
 21
68.1263
  0
LINE
  8
0
 10
126.479
 20
68.1263
 11
126.5
 21
67.8
  0
LINE
  8
0
 10
126.5
 20
67.8
 11
126.479
 21
67.4737
  0
LINE
  8
0
 10
126.479
 20
67.4737
 11
126.415
 21
67.153
  0
LINE
  8
0
 10
126.415
 20
67.153
 11
126.31
 21
66.8433
  0
LINE
  8
0
 10
126.31
 20
66.8433
 11
126.165
 21
66.55
  0
LINE
  8
0
 10
126.165
 20
66.55
 11
125.983
 21
66.2781
  0
LINE
  8
0
 10
125.983
 20
66.2781
 11
125.768
 21
66.0322
  0
LINE
  8
0
 10
125.768
 20
66.0322
 11
125.522
 21
65.8166
  0
LINE
  8
0
 10
125.522
 20
65.8166
 11
125.25
 21
65.6349
  0
LINE
  8
0
 10
125.25
 20
65.6349
 11
124.957
 21
65.4903
  0
LINE
  8
0
 10
124.957
 20
65.4903
 11
124.647
 21
65.3852
  0
LINE
  8
0
 10
124.647
 20
65.3852
 11
124.326
 21
65.3214
  0
LINE
  8
0
 10
124.326
 20
65.3214
 11
124
 21
65.3
  0
LINE
  8
0
 10
124
 20
65.3
 11
123.674
 21
65.3214
  0
LINE
  8
0
 10
99.6737
 20
65.3214
 11
99.353
 21
65.3852
  0
LINE
  8
0
 10
99.353
 20
65.3852
 11
99.0433
 21
65.4903
  0
LINE
  8
0
 10
99.0433
 20
65.4903
 11
98.75
 21
65.6349
  0
LINE
  8
0
 10
98.75
 20
65.6349
 11
98.4781
 21
65.8166
  0
LINE
  8
0
 10
98.4781
 20
65.8166
 11
98.2322
 21
66.0322
  0
LINE
  8
0
 10
98.2322
 20
66.0322
 11
98.0166
 21
66.2781
  0
LINE
  8
0
 10
98.0166
 20
66.2781
 11
97.8349
 21
66.55
  0
LINE
  8
0
 10
97.8349
 20
66.55
 11
97.6903
 21
66.8433
  0
LINE
  8
0
 10
97.6903
 20
66.8433
 11
97.5852
 21
67.153
  0
LINE
  8
0
 10
97.5852
 20
67.153
 11
97.5214
 21
67.4737
  0
LINE
  8
0
 10
97.5214
 20
67.4737
 11
97.5
 21
67.8
  0
LINE
  8
0
 10
97.5
 20
67.8
 11
97.5214
 21
68.1263
  0
LINE
  8
0
 10
97.5214
 20
68.1263
 11
97.5852
 21
68.447
  0
LINE
  8
0
 10
97.5852
 20
68.447
 11
97.6903
 21
68.7567
  0
LINE
  8
0
 10
97.6903
 20
68.7567
 11
97.8349
 21
69.05
  0
LINE
  8
0
 10
97.8349
 20
69.05
 11
98.0166
 21
69.3219
  0
LINE
  8
0
 10
98.0166
 20
69.3219
 11
98.2322
 21
69.5678
  0
LINE
  8
0
 10
98.2322
 20
69.5678
 11
98.4781
 21
69.7834
  0
LINE
  8
0
 10
98.4781
 20
69.7834
 11
98.75
 21
69.9651
  0
LINE
  8
0
 10
98.75
 20
69.9651
 11
99.0433
 21
70.1097
  0
LINE
  8
0
 10
99.0433
 20
70.1097
 11
99.353
 21
70.2148
  0
LINE
  8
0
 10
99.353
 20
70.2148
 11
99.6737
 21
70.2786
  0
LINE
  8
0
 10
99.6737
 20
70.2786
 11
100
 21
70.3
  0
LINE
  8
0
 10
100
 20
70.3
 11
100.326
 21
70.2786
  0
LINE
  8
0
 10
100.326
 20
70.2786
 11
100.647
 21
70.2148
  0
LINE
  8
0
 10
100.647
 20
70.2148
 11
100.957
 21
70.1097
  0
LINE
  8
0
 10
100.957
 20
70.1097
 11
101.25
 21
69.9651
  0
LINE
  8
0
 10
101.25
 20
69.9651
 11
101.522
 21
69.7834
  0
LINE
  8
0
 10
101.522
 20
69.7834
 11
101.768
 21
69.5678
  0
LINE
  8
0
 10
101.768
 20
69.5678
 11
101.983
 21
69.3219
  0
LINE
  8
0
 10
101.983
 20
69.3219
 11
102.165
 21
69.05
  0
LINE
  8
0
 10
102.165
 20
69.05
 11
102.31
 21
68.7567
  0
LINE
  8
0
 10
102.31
 20
68.7567
 11
102.415
 21
68.447
  0
LINE
  8
0
 10
102.415
 20
68.447
 11
102.479
 21
68.1263
  0
LINE
  8
0
 10
102.479
 20
68.1263
 11
102.5
 21
67.8
  0
LINE
  8
0
 10
102.5
 20
67.8
 11
102.479
 21
67.4737
  0
LINE
  8
0
 10
102.479
 20
67.4737
 11
102.415
 21
67.153
  0
LINE
  8
0
 10
102.415
 20
67.153
 11
102.31
 21
66.8433
  0
LINE
  8
0
 10
102.31
 20
66.8433
 11
102.165
 21
66.55
  0
LINE
  8
0
 10
102.165
 20
66.55
 11
101.983
 21
66.2781
  0
LINE
  8
0
 10
101.983
 20
66.2781
 11
101.768
 21
66.0322
  0
LINE
  8
0
 10
101.768
 20
66.0322
 11
101.522
 21
65.8166
  0
LINE
  8
0
 10
101.522
 20
65.8166
 11
101.25
 21
65.6349
  0
LINE
  8
0
 10
101.25
 20
65.6349
 11
100.957
 21
65.4903
  0
LINE
  8
0
 10
100.957
 20
65.4903
 11
100.647
 21
65.3852
  0
LINE
  8
0
 10
100.647
 20
65.3852
 11
100.326
 21
65.3214
  0
LINE
  8
0
 10
100.326
 20
65.3214
 11
100
 21
65.3
  0
LINE
  8
0
 10
100
 20
65.3
 11
99.6737
 21
65.3214
  0
LINE
  8
0
 10
188.6
 20
30
 11
188.6
 21
35
  0
LINE
  8
0
 10
188.6
 20
35
 11
198.6
 21
35
  0
LINE
  8
0
 10
198.6
 20
35
 11
198.6
 21
30
  0
LINE
  8
0
 10
198.6
 20
30
 11
188.6
 21
30
  0
LINE
  8
0
 10
165.947
 20
23.0428
 11
165.306
 21
23.1704
  0
LINE
  8
0
 10
165.306
 20
23.1704
 11
164.687
 21
23.3806
  0
LINE
  8
0
 10
164.687
 20
23.3806
 11
164.1
 21
23.6699
  0
LINE
  8
0
 10
164.1
 20
23.6699
 11
163.556
 21
24.0332
  0
LINE
  8
0
 10
163.556
 20
24.0332
 11
163.064
 21
24.4645
  0
LINE
  8
0
 10
163.064
 20
24.4645
 11
162.633
 21
24.9562
  0
LINE
  8
0
 10
162.633
 20
24.9562
 11
162.27
 21
25.5
  0
LINE
  8
0
 10
162.27
 20
25.5
 11
161.981
 21
26.0866
  0
LINE
  8
0
 10
161.981
 20
26.0866
 11
161.77
 21
26.7059
  0
LINE
  8
0
 10
161.77
 20
26.7059
 11
161.643
 21
27.3474
  0
LINE
  8
0
 10
161.643
 20
27.3474
 11
161.6
 21
28
  0
LINE
  8
0
 10
161.6
 20
28
 11
161.643
 21
28.6526
  0
LINE
  8
0
 10
161.643
 20
28.6526
 11
161.77
 21
29.2941
  0
LINE
  8
0
 10
161.77
 20
29.2941
 11
161.981
 21
29.9134
  0
LINE
  8
0
 10
161.981
 20
29.9134
 11
162.27
 21
30.5
  0
LINE
  8
0
 10
162.27
 20
30.5
 11
162.633
 21
31.0438
  0
LINE
  8
0
 10
162.633
 20
31.0438
 11
163.064
 21
31.5355
  0
LINE
  8
0
 10
163.064
 20
31.5355
 11
163.556
 21
31.9668
  0
LINE
  8
0
 10
163.556
 20
31.9668
 11
164.1
 21
32.3301
  0
LINE
  8
0
 10
164.1
 20
32.3301
 11
164.687
 21
32.6194
  0
LINE
  8
0
 10
164.687
 20
32.6194
 11
165.306
 21
32.8296
  0
LINE
  8
0
 10
165.306
 20
32.8296
 11
165.947
 21
32.9572
  0
LINE
  8
0
 10
165.947
 20
32.9572
 11
166.6
 21
33
  0
LINE
  8
0
 10
166.6
 20
33
 11
167.253
 21
32.9572
  0
LINE
  8
0
 10
167.253
 20
32.9572
 11
167.894
 21
32.8296
  0
LINE
  8
0
 10
167.894
 20
32.8296
 11
168.513
 21
32.6194
  0
LINE
  8
0
 10
168.513
 20
32.6194
 11
169.1
 21
32.3301
  0
LINE
  8
0
 10
169.1
 20
32.3301
 11
169.644
 21
31.9668
  0
LINE
  8
0
 10
169.644
 20
31.9668
 11
170.136
 21
31.5355
  0
LINE
  8
0
 10
170.136
 20
31.5355
 11
170.567
 21
31.0438
  0
LINE
  8
0
 10
170.567
 20
31.0438
 11
170.93
 21
30.5
  0
LINE
  8
0
 10
170.93
 20
30.5
 11
171.219
 21
29.9134
  0
LINE
  8
0
 10
171.219
 20
29.9134
 11
171.43
 21
29.2941
  0
LINE
  8
0
 10
171.43
 20
29.2941
 11
171.557
 21
28.6526
  0
LINE
  8
0
 10
171.557
 20
28.6526
 11
171.6
 21
28
  0
LINE
  8
0
 10
171.6
 20
28
 11
171.557
 21
27.3474
  0
LINE
  8
0
 10
171.557
 20
27.3474
 11
171.43
 21
26.7059
  0
LINE
  8
0
 10
171.43
 20
26.7059
 11
171.219
 21
26.0866
  0
LINE
  8
0
 10
171.219
 20
26.0866
 11
170.93
 21
25.5
  0
LINE
  8
0
 10
170.93
 20
25.5
 11
170.567
 21
24.9562
  0
LINE
  8
0
 10
170.567
 20
24.9562
 11
170.136
 21
24.4645
  0
LINE
  8
0
 10
170.136
 20
24.4645
 11
169.644
 21
24.0332
  0
LINE
  8
0
 10
169.644
 20
24.0332
 11
169.1
 21
23.6699
  0
LINE
  8
0
 10
169.1
 20
23.6699
 11
168.513
 21
23.3806
  0
LINE
  8
0
 10
168.513
 20
23.3806
 11
167.894
 21
23.1704
  0
LINE
  8
0
 10
167.894
 20
23.1704
 11
167.253
 21
23.0428
  0
LINE
  8
0
 10
167.253
 20
23.0428
 11
166.6
 21
23
  0
LINE
  8
0
 10
166.6
 20
23
 11
165.947
 21
23.0428
  0
LINE
  8
0
 10
65.5219
 20
113.817
 11
65.25
 21
113.635
  0
LINE
  8
0
 10
65.25
 20
113.635
 11
64.9567
 21
113.49
  0
LINE
  8
0
 10
64.9567
 20
113.49
 11
64.647
 21
113.385
  0
LINE
  8
0
 10
64.647
 20
113.385
 11
64.3263
 21
113.321
  0
LINE
  8
0
 10
64.3263
 20
113.321
 11
64
 21
113.3
  0
LINE
  8
0
 10
64
 20
113.3
 11
63.6737
 21
113.321
  0
LINE
  8
0
 10
63.6737
 20
113.321
 11
63.353
 21
113.385
  0
LINE
  8
0
 10
63.353
 20
113.385
 11
63.0433
 21
113.49
  0
LINE
  8
0
 10
63.0433
 20
113.49
 11
62.75
 21
113.635
  0
LINE
  8
0
 10
62.75
 20
113.635
 11
62.4781
 21
113.817
  0
LINE
  8
0
 10
62.4781
 20
113.817
 11
62.2322
 21
114.032
  0
LINE
  8
0
 10
62.2322
 20
114.032
 11
62.0166
 21
114.278
  0
LINE
  8
0
 10
62.0166
 20
114.278
 11
61.8349
 21
114.55
  0
LINE
  8
0
 10
61.8349
 20
114.55
 11
61.6903
 21
114.843
  0
LINE
  8
0
 10
61.6903
 20
114.843
 11
61.5852
 21
115.153
  0
LINE
  8
0
 10
61.5852
 20
115.153
 11
61.5214
 21
115.474
  0
LINE
  8
0
 10
61.5214
 20
115.474
 11
61.5
 21
115.8
  0
LINE
  8
0
 10
61.5
 20
115.8
 11
61.5214
 21
116.126
  0
LINE
  8
0
 10
61.5214
 20
116.126
 11
61.5852
 21
116.447
  0
LINE
  8
0
 10
61.5852
 20
116.447
 11
61.6903
 21
116.757
  0
LINE
  8
0
 10
61.6903
 20
116.757
 11
61.8349
 21
117.05
  0
LINE
  8
0
 10
61.8349
 20
117.05
 11
62.0166
 21
117.322
  0
LINE
  8
0
 10
62.0166
 20
117.322
 11
62.2322
 21
117.568
  0
LINE
  8
0
 10
62.2322
 20
117.568
 11
62.4781
 21
117.783
  0
LINE
  8
0
 10
62.4781
 20
117.783
 11
62.75
 21
117.965
  0
LINE
  8
0
 10
62.75
 20
117.965
 11
63.0433
 21
118.11
  0
LINE
  8
0
 10
63.0433
 20
118.11
 11
63.353
 21
118.215
  0
LINE
  8
0
 10
63.353
 20
118.215
 11
63.6737
 21
118.279
  0
LINE
  8
0
 10
63.6737
 20
118.279
 11
64
 21
118.3
  0
LINE
  8
0
 10
64
 20
118.3
 11
64.3263
 21
118.279
  0
LINE
  8
0
 10
64.3263
 20
118.279
 11
64.647
 21
118.215
  0
LINE
  8
0
 10
64.647
 20
118.215
 11
64.9567
 21
118.11
  0
LINE
  8
0
 10
64.9567
 20
118.11
 11
65.25
 21
117.965
  0
LINE
  8
0
 10
65.25
 20
117.965
 11
65.5219
 21
117.783
  0
LINE
  8
0
 10
65.5219
 20
117.783
 11
65.7678
 21
117.568
  0
LINE
  8
0
 10
65.7678
 20
117.568
 11
65.9834
 21
117.322
  0
LINE
  8
0
 10
65.9834
 20
117.322
 11
66.1651
 21
117.05
  0
LINE
  8
0
 10
66.1651
 20
117.05
 11
66.3097
 21
116.757
  0
LINE
  8
0
 10
66.3097
 20
116.757
 11
66.4148
 21
116.447
  0
LINE
  8
0
 10
66.4148
 20
116.447
 11
66.4786
 21
116.126
  0
LINE
  8
0
 10
66.4786
 20
116.126
 11
66.5
 21
115.8
  0
LINE
  8
0
 10
66.5
 20
115.8
 11
66.4786
 21
115.474
  0
LINE
  8
0
 10
66.4786
 20
115.474
 11
66.4148
 21
115.153
  0
LINE
  8
0
 10
66.4148
 20
115.153
 11
66.3097
 21
114.843
  0
LINE
  8
0
 10
66.3097
 20
114.843
 11
66.1651
 21
114.55
  0
LINE
  8
0
 10
66.1651
 20
114.55
 11
65.9834
 21
114.278
  0
LINE
  8
0
 10
65.9834
 20
114.278
 11
65.7678
 21
114.032
  0
LINE
  8
0
 10
65.7678
 20
114.032
 11
65.5219
 21
113.817
  0
LINE
  8
0
 10
78.1651
 20
105.05
 11
78.3097
 21
104.757
  0
LINE
  8
0
 10
78.3097
 20
104.757
 11
78.4148
 21
104.447
  0
LINE
  8
0
 10
78.4148
 20
104.447
 11
78.4786
 21
104.126
  0
LINE
  8
0
 10
78.4786
 20
104.126
 11
78.5
 21
103.8
  0
LINE
  8
0
 10
78.5
 20
103.8
 11
78.4786
 21
103.474
  0
LINE
  8
0
 10
78.4786
 20
103.474
 11
78.4148
 21
103.153
  0
LINE
  8
0
 10
78.4148
 20
103.153
 11
78.3097
 21
102.843
  0
LINE
  8
0
 10
78.3097
 20
102.843
 11
78.1651
 21
102.55
  0
LINE
  8
0
 10
78.1651
 20
102.55
 11
77.9834
 21
102.278
  0
LINE
  8
0
 10
77.9834
 20
102.278
 11
77.7678
 21
102.032
  0
LINE
  8
0
 10
77.7678
 20
102.032
 11
77.5219
 21
101.817
  0
LINE
  8
0
 10
77.5219
 20
101.817
 11
77.25
 21
101.635
  0
LINE
  8
0
 10
77.25
 20
101.635
 11
76.9567
 21
101.49
  0
LINE
  8
0
 10
76.9567
 20
101.49
 11
76.647
 21
101.385
  0
LINE
  8
0
 10
76.647
 20
101.385
 11
76.3263
 21
101.321
  0
LINE
  8
0
 10
76.3263
 20
101.321
 11
76
 21
101.3
  0
LINE
  8
0
 10
76
 20
101.3
 11
75.6737
 21
101.321
  0
LINE
  8
0
 10
75.6737
 20
101.321
 11
75.353
 21
101.385
  0
LINE
  8
0
 10
75.353
 20
101.385
 11
75.0433
 21
101.49
  0
LINE
  8
0
 10
75.0433
 20
101.49
 11
74.75
 21
101.635
  0
LINE
  8
0
 10
74.75
 20
101.635
 11
74.4781
 21
101.817
  0
LINE
  8
0
 10
74.4781
 20
101.817
 11
74.2322
 21
102.032
  0
LINE
  8
0
 10
74.2322
 20
102.032
 11
74.0166
 21
102.278
  0
LINE
  8
0
 10
74.0166
 20
102.278
 11
73.8349
 21
102.55
  0
LINE
  8
0
 10
73.8349
 20
102.55
 11
73.6903
 21
102.843
  0
LINE
  8
0
 10
73.6903
 20
102.843
 11
73.5852
 21
103.153
  0
LINE
  8
0
 10
73.5852
 20
103.153
 11
73.5214
 21
103.474
  0
LINE
  8
0
 10
73.5214
 20
103.474
 11
73.5
 21
103.8
  0
LINE
  8
0
 10
73.5
 20
103.8
 11
73.5214
 21
104.126
  0
LINE
  8
0
 10
73.5214
 20
104.126
 11
73.5852
 21
104.447
  0
LINE
  8
0
 10
73.5852
 20
104.447
 11
73.6903
 21
104.757
  0
LINE
  8
0
 10
73.6903
 20
104.757
 11
73.8349
 21
105.05
  0
LINE
  8
0
 10
73.8349
 20
105.05
 11
74.0166
 21
105.322
  0
LINE
  8
0
 10
74.0166
 20
105.322
 11
74.2322
 21
105.568
  0
LINE
  8
0
 10
74.2322
 20
105.568
 11
74.4781
 21
105.783
  0
LINE
  8
0
 10
74.4781
 20
105.783
 11
74.75
 21
105.965
  0
LINE
  8
0
 10
74.75
 20
105.965
 11
75.0433
 21
106.11
  0
LINE
  8
0
 10
75.0433
 20
106.11
 11
75.353
 21
106.215
  0
LINE
  8
0
 10
75.353
 20
106.215
 11
75.6737
 21
106.279
  0
LINE
  8
0
 10
75.6737
 20
106.279
 11
76
 21
106.3
  0
LINE
  8
0
 10
76
 20
106.3
 11
76.3263
 21
106.279
  0
LINE
  8
0
 10
76.3263
 20
106.279
 11
76.647
 21
106.215
  0
LINE
  8
0
 10
76.647
 20
106.215
 11
76.9567
 21
106.11
  0
LINE
  8
0
 10
76.9567
 20
106.11
 11
77.25
 21
105.965
  0
LINE
  8
0
 10
77.25
 20
105.965
 11
77.5219
 21
105.783
  0
LINE
  8
0
 10
77.5219
 20
105.783
 11
77.7678
 21
105.568
  0
LINE
  8
0
 10
77.7678
 20
105.568
 11
77.9834
 21
105.322
  0
LINE
  8
0
 10
77.9834
 20
105.322
 11
78.1651
 21
105.05
  0
LINE
  8
0
 10
101.522
 20
101.817
 11
101.25
 21
101.635
  0
LINE
  8
0
 10
101.25
 20
101.635
 11
100.957
 21
101.49
  0
LINE
  8
0
 10
100.957
 20
101.49
 11
100.647
 21
101.385
  0
LINE
  8
0
 10
100.647
 20
101.385
 11
100.326
 21
101.321
  0
LINE
  8
0
 10
100.326
 20
101.321
 11
100
 21
101.3
  0
LINE
  8
0
 10
100
 20
101.3
 11
99.6737
 21
101.321
  0
LINE
  8
0
 10
99.6737
 20
101.321
 11
99.353
 21
101.385
  0
LINE
  8
0
 10
99.353
 20
101.385
 11
99.0433
 21
101.49
  0
LINE
  8
0
 10
99.0433
 20
101.49
 11
98.75
 21
101.635
  0
LINE
  8
0
 10
98.75
 20
101.635
 11
98.4781
 21
101.817
  0
LINE
  8
0
 10
98.4781
 20
101.817
 11
98.2322
 21
102.032
  0
LINE
  8
0
 10
98.2322
 20
102.032
 11
98.0166
 21
102.278
  0
LINE
  8
0
 10
98.0166
 20
102.278
 11
97.8349
 21
102.55
  0
LINE
  8
0
 10
97.8349
 20
102.55
 11
97.6903
 21
102.843
  0
LINE
  8
0
 10
97.6903
 20
102.843
 11
97.5852
 21
103.153
  0
LINE
  8
0
 10
97.5852
 20
103.153
 11
97.5214
 21
103.474
  0
LINE
  8
0
 10
97.5214
 20
103.474
 11
97.5
 21
103.8
  0
LINE
  8
0
 10
97.5
 20
103.8
 11
97.5214
 21
104.126
  0
LINE
  8
0
 10
97.5214
 20
104.126
 11
97.5852
 21
104.447
  0
LINE
  8
0
 10
97.5852
 20
104.447
 11
97.6903
 21
104.757
  0
LINE
  8
0
 10
97.6903
 20
104.757
 11
97.8349
 21
105.05
  0
LINE
  8
0
 10
97.8349
 20
105.05
 11
98.0166
 21
105.322
  0
LINE
  8
0
 10
98.0166
 20
105.322
 11
98.2322
 21
105.568
  0
LINE
  8
0
 10
98.2322
 20
105.568
 11
98.4781
 21
105.783
  0
LINE
  8
0
 10
98.4781
 20
105.783
 11
98.75
 21
105.965
  0
LINE
  8
0
 10
98.75
 20
105.965
 11
99.0433
 21
106.11
  0
LINE
  8
0
 10
99.0433
 20
106.11
 11
99.353
 21
106.215
  0
LINE
  8
0
 10
99.353
 20
106.215
 11
99.6737
 21
106.279
  0
LINE
  8
0
 10
99.6737
 20
106.279
 11
100
 21
106.3
  0
LINE
  8
0
 10
100
 20
106.3
 11
100.326
 21
106.279
  0
LINE
  8
0
 10
100.326
 20
106.279
 11
100.647
 21
106.215
  0
LINE
  8
0
 10
100.647
 20
106.215
 11
100.957
 21
106.11
  0
LINE
  8
0
 10
100.957
 20
106.11
 11
101.25
 21
105.965
  0
LINE
  8
0
 10
101.25
 20
105.965
 11
101.522
 21
105.783
  0
LINE
  8
0
 10
101.522
 20
105.783
 11
101.768
 21
105.568
  0
LINE
  8
0
 10
101.768
 20
105.568
 11
101.983
 21
105.322
  0
LINE
  8
0
 10
101.983
 20
105.322
 11
102.165
 21
105.05
  0
LINE
  8
0
 10
102.165
 20
105.05
 11
102.31
 21
104.757
  0
LINE
  8
0
 10
102.31
 20
104.757
 11
102.415
 21
104.447
  0
LINE
  8
0
 10
102.415
 20
104.447
 11
102.479
 21
104.126
  0
LINE
  8
0
 10
102.479
 20
104.126
 11
102.5
 21
103.8
  0
LINE
  8
0
 10
102.5
 20
103.8
 11
102.479
 21
103.474
  0
LINE
  8
0
 10
102.479
 20
103.474
 11
102.415
 21
103.153
  0
LINE
  8
0
 10
102.415
 20
103.153
 11
102.31
 21
102.843
  0
LINE
  8
0
 10
102.31
 20
102.843
 11
102.165
 21
102.55
  0
LINE
  8
0
 10
102.165
 20
102.55
 11
101.983
 21
102.278
  0
LINE
  8
0
 10
101.983
 20
102.278
 11
101.768
 21
102.032
  0
LINE
  8
0
 10
101.768
 20
102.032
 11
101.522
 21
101.817
  0
LINE
  8
0
 10
53.5219
 20
101.817
 11
53.25
 21
101.635
  0
LINE
  8
0
 10
53.25
 20
101.635
 11
52.9567
 21
101.49
  0
LINE
  8
0
 10
52.9567
 20
101.49
 11
52.647
 21
101.385
  0
LINE
  8
0
 10
52.647
 20
101.385
 11
52.3263
 21
101.321
  0
LINE
  8
0
 10
52.3263
 20
101.321
 11
52
 21
101.3
  0
LINE
  8
0
 10
52
 20
101.3
 11
51.6737
 21
101.321
  0
LINE
  8
0
 10
51.6737
 20
101.321
 11
51.353
 21
101.385
  0
LINE
  8
0
 10
51.353
 20
101.385
 11
51.0433
 21
101.49
  0
LINE
  8
0
 10
51.0433
 20
101.49
 11
50.75
 21
101.635
  0
LINE
  8
0
 10
50.75
 20
101.635
 11
50.4781
 21
101.817
  0
LINE
  8
0
 10
50.4781
 20
101.817
 11
50.2322
 21
102.032
  0
LINE
  8
0
 10
50.2322
 20
102.032
 11
50.0166
 21
102.278
  0
LINE
  8
0
 10
50.0166
 20
102.278
 11
49.8349
 21
102.55
  0
LINE
  8
0
 10
49.8349
 20
102.55
 11
49.6903
 21
102.843
  0
LINE
  8
0
 10
49.6903
 20
102.843
 11
49.5852
 21
103.153
  0
LINE
  8
0
 10
49.5852
 20
103.153
 11
49.5214
 21
103.474
  0
LINE
  8
0
 10
49.5214
 20
103.474
 11
49.5
 21
103.8
  0
LINE
  8
0
 10
49.5
 20
103.8
 11
49.5214
 21
104.126
  0
LINE
  8
0
 10
49.5214
 20
104.126
 11
49.5852
 21
104.447
  0
LINE
  8
0
 10
49.5852
 20
104.447
 11
49.6903
 21
104.757
  0
LINE
  8
0
 10
49.6903
 20
104.757
 11
49.8349
 21
105.05
  0
LINE
  8
0
 10
49.8349
 20
105.05
 11
50.0166
 21
105.322
  0
LINE
  8
0
 10
50.0166
 20
105.322
 11
50.2322
 21
105.568
  0
LINE
  8
0
 10
50.2322
 20
105.568
 11
50.4781
 21
105.783
  0
LINE
  8
0
 10
50.4781
 20
105.783
 11
50.75
 21
105.965
  0
LINE
  8
0
 10
50.75
 20
105.965
 11
51.0433
 21
106.11
  0
LINE
  8
0
 10
51.0433
 20
106.11
 11
51.353
 21
106.215
  0
LINE
  8
0
 10
51.353
 20
106.215
 11
51.6737
 21
106.279
  0
LINE
  8
0
 10
51.6737
 20
106.279
 11
52
 21
106.3
  0
LINE
  8
0
 10
52
 20
106.3
 11
52.3263
 21
106.279
  0
LINE
  8
0
 10
52.3263
 20
106.279
 11
52.647
 21
106.215
  0
LINE
  8
0
 10
52.647
 20
106.215
 11
52.9567
 21
106.11
  0
LINE
  8
0
 10
52.9567
 20
106.11
 11
53.25
 21
105.965
  0
LINE
  8
0
 10
53.25
 20
105.965
 11
53.5219
 21
105.783
  0
LINE
  8
0
 10
53.5219
 20
105.783
 11
53.7678
 21
105.568
  0
LINE
  8
0
 10
53.7678
 20
105.568
 11
53.9834
 21
105.322
  0
LINE
  8
0
 10
53.9834
 20
105.322
 11
54.1651
 21
105.05
  0
LINE
  8
0
 10
54.1651
 20
105.05
 11
54.3097
 21
104.757
  0
LINE
  8
0
 10
54.3097
 20
104.757
 11
54.4148
 21
104.447
  0
LINE
  8
0
 10
54.4148
 20
104.447
 11
54.4786
 21
104.126
  0
LINE
  8
0
 10
54.4786
 20
104.126
 11
54.5
 21
103.8
  0
LINE
  8
0
 10
54.5
 20
103.8
 11
54.4786
 21
103.474
  0
LINE
  8
0
 10
54.4786
 20
103.474
 11
54.4148
 21
103.153
  0
LINE
  8
0
 10
54.4148
 20
103.153
 11
54.3097
 21
102.843
  0
LINE
  8
0
 10
54.3097
 20
102.843
 11
54.1651
 21
102.55
  0
LINE
  8
0
 10
54.1651
 20
102.55
 11
53.9834
 21
102.278
  0
LINE
  8
0
 10
53.9834
 20
102.278
 11
53.7678
 21
102.032
  0
LINE
  8
0
 10
53.7678
 20
102.032
 11
53.5219
 21
101.817
  0
LINE
  8
0
 10
109.69
 20
102.843
 11
109.585
 21
103.153
  0
LINE
  8
0
 10
109.585
 20
103.153
 11
109.521
 21
103.474
  0
LINE
  8
0
 10
109.521
 20
103.474
 11
109.5
 21
103.8
  0
LINE
  8
0
 10
109.5
 20
103.8
 11
109.521
 21
104.126
  0
LINE
  8
0
 10
109.521
 20
104.126
 11
109.585
 21
104.447
  0
LINE
  8
0
 10
109.585
 20
104.447
 11
109.69
 21
104.757
  0
LINE
  8
0
 10
109.69
 20
104.757
 11
109.835
 21
105.05
  0
LINE
  8
0
 10
109.835
 20
105.05
 11
110.017
 21
105.322
  0
LINE
  8
0
 10
110.017
 20
105.322
 11
110.232
 21
105.568
  0
LINE
  8
0
 10
110.232
 20
105.568
 11
110.478
 21
105.783
  0
LINE
  8
0
 10
110.478
 20
105.783
 11
110.75
 21
105.965
  0
LINE
  8
0
 10
110.75
 20
105.965
 11
111.043
 21
106.11
  0
LINE
  8
0
 10
111.043
 20
106.11
 11
111.353
 21
106.215
  0
LINE
  8
0
 10
111.353
 20
106.215
 11
111.674
 21
106.279
  0
LINE
  8
0
 10
111.674
 20
106.279
 11
112
 21
106.3
  0
LINE
  8
0
 10
112
 20
106.3
 11
112.326
 21
106.279
  0
LINE
  8
0
 10
112.326
 20
106.279
 11
112.647
 21
106.215
  0
LINE
  8
0
 10
112.647
 20
106.215
 11
112.957
 21
106.11
  0
LINE
  8
0
 10
112.957
 20
106.11
 11
113.25
 21
105.965
  0
LINE
  8
0
 10
113.25
 20
105.965
 11
113.522
 21
105.783
  0
LINE
  8
0
 10
113.522
 20
105.783
 11
113.768
 21
105.568
  0
LINE
  8
0
 10
113.768
 20
105.568
 11
113.983
 21
105.322
  0
LINE
  8
0
 10
113.983
 20
105.322
 11
114.165
 21
105.05
  0
LINE
  8
0
 10
114.165
 20
105.05
 11
114.31
 21
104.757
  0
LINE
  8
0
 10
114.31
 20
104.757
 11
114.415
 21
104.447
  0
LINE
  8
0
 10
114.415
 20
104.447
 11
114.479
 21
104.126
  0
LINE
  8
0
 10
114.479
 20
104.126
 11
114.5
 21
103.8
  0
LINE
  8
0
 10
114.5
 20
103.8
 11
114.479
 21
103.474
  0
LINE
  8
0
 10
114.479
 20
103.474
 11
114.415
 21
103.153
  0
LINE
  8
0
 10
114.415
 20
103.153
 11
114.31
 21
102.843
  0
LINE
  8
0
 10
114.31
 20
102.843
 11
114.165
 21
102.55
  0
LINE
  8
0
 10
114.165
 20
102.55
 11
113.983
 21
102.278
  0
LINE
  8
0
 10
113.983
 20
102.278
 11
113.768
 21
102.032
  0
LINE
  8
0
 10
113.768
 20
102.032
 11
113.522
 21
101.817
  0
LINE
  8
0
 10
113.522
 20
101.817
 11
113.25
 21
101.635
  0
LINE
  8
0
 10
113.25
 20
101.635
 11
112.957
 21
101.49
  0
LINE
  8
0
 10
112.957
 20
101.49
 11
112.647
 21
101.385
  0
LINE
  8
0
 10
112.647
 20
101.385
 11
112.326
 21
101.321
  0
LINE
  8
0
 10
112.326
 20
101.321
 11
112
 21
101.3
  0
LINE
  8
0
 10
112
 20
101.3
 11
111.674
 21
101.321
  0
LINE
  8
0
 10
111.674
 20
101.321
 11
111.353
 21
101.385
  0
LINE
  8
0
 10
111.353
 20
101.385
 11
111.043
 21
101.49
  0
LINE
  8
0
 10
111.043
 20
101.49
 11
110.75
 21
101.635
  0
LINE
  8
0
 10
110.75
 20
101.635
 11
110.478
 21
101.817
  0
LINE
  8
0
 10
110.478
 20
101.817
 11
110.232
 21
102.032
  0
LINE
  8
0
 10
110.232
 20
102.032
 11
110.017
 21
102.278
  0
LINE
  8
0
 10
110.017
 20
102.278
 11
109.835
 21
102.55
  0
LINE
  8
0
 10
109.835
 20
102.55
 11
109.69
 21
102.843
  0
LINE
  8
0
 10
113.25
 20
89.6349
 11
112.957
 21
89.4903
  0
LINE
  8
0
 10
112.957
 20
89.4903
 11
112.647
 21
89.3852
  0
LINE
  8
0
 10
112.647
 20
89.3852
 11
112.326
 21
89.3214
  0
LINE
  8
0
 10
112.326
 20
89.3214
 11
112
 21
89.3
  0
LINE
  8
0
 10
112
 20
89.3
 11
111.674
 21
89.3214
  0
LINE
  8
0
 10
111.674
 20
89.3214
 11
111.353
 21
89.3852
  0
LINE
  8
0
 10
111.353
 20
89.3852
 11
111.043
 21
89.4903
  0
LINE
  8
0
 10
111.043
 20
89.4903
 11
110.75
 21
89.6349
  0
LINE
  8
0
 10
110.75
 20
89.6349
 11
110.478
 21
89.8166
  0
LINE
  8
0
 10
110.478
 20
89.8166
 11
110.232
 21
90.0322
  0
LINE
  8
0
 10
110.232
 20
90.0322
 11
110.017
 21
90.2781
  0
LINE
  8
0
 10
110.017
 20
90.2781
 11
109.835
 21
90.55
  0
LINE
  8
0
 10
109.835
 20
90.55
 11
109.69
 21
90.8433
  0
LINE
  8
0
 10
109.69
 20
90.8433
 11
109.585
 21
91.153
  0
LINE
  8
0
 10
109.585
 20
91.153
 11
109.521
 21
91.4737
  0
LINE
  8
0
 10
109.521
 20
91.4737
 11
109.5
 21
91.8
  0
LINE
  8
0
 10
109.5
 20
91.8
 11
109.521
 21
92.1263
  0
LINE
  8
0
 10
109.521
 20
92.1263
 11
109.585
 21
92.447
  0
LINE
  8
0
 10
109.585
 20
92.447
 11
109.69
 21
92.7567
  0
LINE
  8
0
 10
109.69
 20
92.7567
 11
109.835
 21
93.05
  0
LINE
  8
0
 10
109.835
 20
93.05
 11
110.017
 21
93.3219
  0
LINE
  8
0
 10
110.017
 20
93.3219
 11
110.232
 21
93.5678
  0
LINE
  8
0
 10
110.232
 20
93.5678
 11
110.478
 21
93.7834
  0
LINE
  8
0
 10
110.478
 20
93.7834
 11
110.75
 21
93.9651
  0
LINE
  8
0
 10
110.75
 20
93.9651
 11
111.043
 21
94.1097
  0
LINE
  8
0
 10
111.043
 20
94.1097
 11
111.353
 21
94.2148
  0
LINE
  8
0
 10
111.353
 20
94.2148
 11
111.674
 21
94.2786
  0
LINE
  8
0
 10
111.674
 20
94.2786
 11
112
 21
94.3
  0
LINE
  8
0
 10
112
 20
94.3
 11
112.326
 21
94.2786
  0
LINE
  8
0
 10
112.326
 20
94.2786
 11
112.647
 21
94.2148
  0
LINE
  8
0
 10
112.647
 20
94.2148
 11
112.957
 21
94.1097
  0
LINE
  8
0
 10
112.957
 20
94.1097
 11
113.25
 21
93.9651
  0
LINE
  8
0
 10
113.25
 20
93.9651
 11
113.522
 21
93.7834
  0
LINE
  8
0
 10
113.522
 20
93.7834
 11
113.768
 21
93.5678
  0
LINE
  8
0
 10
113.768
 20
93.5678
 11
113.983
 21
93.3219
  0
LINE
  8
0
 10
113.983
 20
93.3219
 11
114.165
 21
93.05
  0
LINE
  8
0
 10
114.165
 20
93.05
 11
114.31
 21
92.7567
  0
LINE
  8
0
 10
114.31
 20
92.7567
 11
114.415
 21
92.447
  0
LINE
  8
0
 10
114.415
 20
92.447
 11
114.479
 21
92.1263
  0
LINE
  8
0
 10
114.479
 20
92.1263
 11
114.5
 21
91.8
  0
LINE
  8
0
 10
114.5
 20
91.8
 11
114.479
 21
91.4737
  0
LINE
  8
0
 10
114.479
 20
91.4737
 11
114.415
 21
91.153
  0
LINE
  8
0
 10
114.415
 20
91.153
 11
114.31
 21
90.8433
  0
LINE
  8
0
 10
114.31
 20
90.8433
 11
114.165
 21
90.55
  0
LINE
  8
0
 10
114.165
 20
90.55
 11
113.983
 21
90.2781
  0
LINE
  8
0
 10
113.983
 20
90.2781
 11
113.768
 21
90.0322
  0
LINE
  8
0
 10
113.768
 20
90.0322
 11
113.522
 21
89.8166
  0
LINE
  8
0
 10
113.522
 20
89.8166
 11
113.25
 21
89.6349
  0
LINE
  8
0
 10
89.5219
 20
77.8166
 11
89.25
 21
77.6349
  0
LINE
  8
0
 10
89.25
 20
77.6349
 11
88.9567
 21
77.4903
  0
LINE
  8
0
 10
88.9567
 20
77.4903
 11
88.647
 21
77.3852
  0
LINE
  8
0
 10
88.647
 20
77.3852
 11
88.3263
 21
77.3214
  0
LINE
  8
0
 10
88.3263
 20
77.3214
 11
88
 21
77.3
  0
LINE
  8
0
 10
88
 20
77.3
 11
87.6737
 21
77.3214
  0
LINE
  8
0
 10
87.6737
 20
77.3214
 11
87.353
 21
77.3852
  0
LINE
  8
0
 10
87.353
 20
77.3852
 11
87.0433
 21
77.4903
  0
LINE
  8
0
 10
87.0433
 20
77.4903
 11
86.75
 21
77.6349
  0
LINE
  8
0
 10
86.75
 20
77.6349
 11
86.4781
 21
77.8166
  0
LINE
  8
0
 10
86.4781
 20
77.8166
 11
86.2322
 21
78.0322
  0
LINE
  8
0
 10
86.2322
 20
78.0322
 11
86.0166
 21
78.2781
  0
LINE
  8
0
 10
86.0166
 20
78.2781
 11
85.8349
 21
78.55
  0
LINE
  8
0
 10
85.8349
 20
78.55
 11
85.6903
 21
78.8433
  0
LINE
  8
0
 10
85.6903
 20
78.8433
 11
85.5852
 21
79.153
  0
LINE
  8
0
 10
85.5852
 20
79.153
 11
85.5214
 21
79.4737
  0
LINE
  8
0
 10
85.5214
 20
79.4737
 11
85.5
 21
79.8
  0
LINE
  8
0
 10
85.5
 20
79.8
 11
85.5214
 21
80.1263
  0
LINE
  8
0
 10
85.5214
 20
80.1263
 11
85.5852
 21
80.447
  0
LINE
  8
0
 10
85.5852
 20
80.447
 11
85.6903
 21
80.7567
  0
LINE
  8
0
 10
85.6903
 20
80.7567
 11
85.8349
 21
81.05
  0
LINE
  8
0
 10
85.8349
 20
81.05
 11
86.0166
 21
81.3219
  0
LINE
  8
0
 10
86.0166
 20
81.3219
 11
86.2322
 21
81.5678
  0
LINE
  8
0
 10
86.2322
 20
81.5678
 11
86.4781
 21
81.7834
  0
LINE
  8
0
 10
86.4781
 20
81.7834
 11
86.75
 21
81.9651
  0
LINE
  8
0
 10
86.75
 20
81.9651
 11
87.0433
 21
82.1097
  0
LINE
  8
0
 10
87.0433
 20
82.1097
 11
87.353
 21
82.2148
  0
LINE
  8
0
 10
87.353
 20
82.2148
 11
87.6737
 21
82.2786
  0
LINE
  8
0
 10
87.6737
 20
82.2786
 11
88
 21
82.3
  0
LINE
  8
0
 10
88
 20
82.3
 11
88.3263
 21
82.2786
  0
LINE
  8
0
 10
88.3263
 20
82.2786
 11
88.647
 21
82.2148
  0
LINE
  8
0
 10
88.647
 20
82.2148
 11
88.9567
 21
82.1097
  0
LINE
  8
0
 10
88.9567
 20
82.1097
 11
89.25
 21
81.9651
  0
LINE
  8
0
 10
89.25
 20
81.9651
 11
89.5219
 21
81.7834
  0
LINE
  8
0
 10
89.5219
 20
81.7834
 11
89.7678
 21
81.5678
  0
LINE
  8
0
 10
89.7678
 20
81.5678
 11
89.9834
 21
81.3219
  0
LINE
  8
0
 10
89.9834
 20
81.3219
 11
90.1651
 21
81.05
  0
LINE
  8
0
 10
90.1651
 20
81.05
 11
90.3097
 21
80.7567
  0
LINE
  8
0
 10
90.3097
 20
80.7567
 11
90.4148
 21
80.447
  0
LINE
  8
0
 10
90.4148
 20
80.447
 11
90.4786
 21
80.1263
  0
LINE
  8
0
 10
90.4786
 20
80.1263
 11
90.5
 21
79.8
  0
LINE
  8
0
 10
90.5
 20
79.8
 11
90.4786
 21
79.4737
  0
LINE
  8
0
 10
90.4786
 20
79.4737
 11
90.4148
 21
79.153
  0
LINE
  8
0
 10
90.4148
 20
79.153
 11
90.3097
 21
78.8433
  0
LINE
  8
0
 10
90.3097
 20
78.8433
 11
90.1651
 21
78.55
  0
LINE
  8
0
 10
90.1651
 20
78.55
 11
89.9834
 21
78.2781
  0
LINE
  8
0
 10
89.9834
 20
78.2781
 11
89.7678
 21
78.0322
  0
LINE
  8
0
 10
89.7678
 20
78.0322
 11
89.5219
 21
77.8166
  0
LINE
  8
0
 10
113.25
 20
77.6349
 11
112.957
 21
77.4903
  0
LINE
  8
0
 10
112.957
 20
77.4903
 11
112.647
 21
77.3852
  0
LINE
  8
0
 10
112.647
 20
77.3852
 11
112.326
 21
77.3214
  0
LINE
  8
0
 10
112.326
 20
77.3214
 11
112
 21
77.3
  0
LINE
  8
0
 10
112
 20
77.3
 11
111.674
 21
77.3214
  0
LINE
  8
0
 10
111.674
 20
77.3214
 11
111.353
 21
77.3852
  0
LINE
  8
0
 10
111.353
 20
77.3852
 11
111.043
 21
77.4903
  0
LINE
  8
0
 10
111.043
 20
77.4903
 11
110.75
 21
77.6349
  0
LINE
  8
0
 10
110.75
 20
77.6349
 11
110.478
 21
77.8166
  0
LINE
  8
0
 10
110.478
 20
77.8166
 11
110.232
 21
78.0322
  0
LINE
  8
0
 10
110.232
 20
78.0322
 11
110.017
 21
78.2781
  0
LINE
  8
0
 10
110.017
 20
78.2781
 11
109.835
 21
78.55
  0
LINE
  8
0
 10
109.835
 20
78.55
 11
109.69
 21
78.8433
  0
LINE
  8
0
 10
109.69
 20
78.8433
 11
109.585
 21
79.153
  0
LINE
  8
0
 10
109.585
 20
79.153
 11
109.521
 21
79.4737
  0
LINE
  8
0
 10
109.521
 20
79.4737
 11
109.5
 21
79.8
  0
LINE
  8
0
 10
109.5
 20
79.8
 11
109.521
 21
80.1263
  0
LINE
  8
0
 10
109.521
 20
80.1263
 11
109.585
 21
80.447
  0
LINE
  8
0
 10
109.585
 20
80.447
 11
109.69
 21
80.7567
  0
LINE
  8
0
 10
109.69
 20
80.7567
 11
109.835
 21
81.05
  0
LINE
  8
0
 10
109.835
 20
81.05
 11
110.017
 21
81.3219
  0
LINE
  8
0
 10
110.017
 20
81.3219
 11
110.232
 21
81.5678
  0
LINE
  8
0
 10
110.232
 20
81.5678
 11
110.478
 21
81.7834
  0
LINE
  8
0
 10
110.478
 20
81.7834
 11
110.75
 21
81.9651
  0
LINE
  8
0
 10
110.75
 20
81.9651
 11
111.043
 21
82.1097
  0
LINE
  8
0
 10
111.043
 20
82.1097
 11
111.353
 21
82.2148
  0
LINE
  8
0
 10
111.353
 20
82.2148
 11
111.674
 21
82.2786
  0
LINE
  8
0
 10
111.674
 20
82.2786
 11
112
 21
82.3
  0
LINE
  8
0
 10
112
 20
82.3
 11
112.326
 21
82.2786
  0
LINE
  8
0
 10
112.326
 20
82.2786
 11
112.647
 21
82.2148
  0
LINE
  8
0
 10
112.647
 20
82.2148
 11
112.957
 21
82.1097
  0
LINE
  8
0
 10
112.957
 20
82.1097
 11
113.25
 21
81.9651
  0
LINE
  8
0
 10
113.25
 20
81.9651
 11
113.522
 21
81.7834
  0
LINE
  8
0
 10
113.522
 20
81.7834
 11
113.768
 21
81.5678
  0
LINE
  8
0
 10
113.768
 20
81.5678
 11
113.983
 21
81.3219
  0
LINE
  8
0
 10
113.983
 20
81.3219
 11
114.165
 21
81.05
  0
LINE
  8
0
 10
114.165
 20
81.05
 11
114.31
 21
80.7567
  0
LINE
  8
0
 10
114.31
 20
80.7567
 11
114.415
 21
80.447
  0
LINE
  8
0
 10
114.415
 20
80.447
 11
114.479
 21
80.1263
  0
LINE
  8
0
 10
114.479
 20
80.1263
 11
114.5
 21
79.8
  0
LINE
  8
0
 10
114.5
 20
79.8
 11
114.479
 21
79.4737
  0
LINE
  8
0
 10
114.479
 20
79.4737
 11
114.415
 21
79.153
  0
LINE
  8
0
 10
114.415
 20
79.153
 11
114.31
 21
78.8433
  0
LINE
  8
0
 10
114.31
 20
78.8433
 11
114.165
 21
78.55
  0
LINE
  8
0
 10
114.165
 20
78.55
 11
113.983
 21
78.2781
  0
LINE
  8
0
 10
113.983
 20
78.2781
 11
113.768
 21
78.0322
  0
LINE
  8
0
 10
113.768
 20
78.0322
 11
113.522
 21
77.8166
  0
LINE
  8
0
 10
113.522
 20
77.8166
 11
113.25
 21
77.6349
  0
ENDSEC
  0
SECTION
  2
OBJECTS
  0
DICTIONARY
  0
ENDSEC
  0
EOF
