  0
SECTION
  2
HEADER
  9
$ACADVER
  1
AC1027
  9
$ACADMAINTVER
 70
105
  9
$DWGCODEPAGE
  3
ANSI_1252
  9
$LASTSAVEDBY
  1
ezdxf
  9
$REQUIREDVERSIONS
160
0
  9
$INSBASE
 10
0.0
 20
0.0
 30
0.0
  9
$EXTMIN
 10
1e+20
 20
1e+20
 30
1e+20
  9
$EXTMAX
 10
-1e+20
 20
-1e+20
 30
-1e+20
  9
$LIMMIN
 10
0.0
 20
0.0
  9
$LIMMAX
 10
420.0
 20
297.0
  9
$ORTHOMODE
 70
0
  9
$REGENMODE
 70
1
  9
$FILLMODE
 70
1
  9
$QTEXTMODE
 70
0
  9
$MIRRTEXT
 70
1
  9
$LTSCALE
 40
1.0
  9
$ATTMODE
 70
1
  9
$TEXTSIZE
 40
2.5
  9
$TRACEWID
 40
1.0
  9
$TEXTSTYLE
  7
Standard
  9
$CLAYER
  8
0
  9
$CELTYPE
  6
ByLayer
  9
$CECOLOR
 62
256
  9
$CELTSCALE
 40
1.0
  9
$DISPSILH
 70
0
  9
$DIMSCALE
 40
1.0
  9
$DIMASZ
 40
2.5
  9
$DIMEXO
 40
0.625
  9
$DIMDLI
 40
3.75
  9
$DIMRND
 40
0.0
  9
$DIMDLE
 40
0.0
  9
$DIMEXE
 40
1.25
  9
$DIMTP
 40
0.0
  9
$DIMTM
 40
0.0
  9
$DIMTXT
 40
2.5
  9
$DIMCEN
 40
2.5
  9
$DIMTSZ
 40
0.0
  9
$DIMTOL
 70
0
  9
$DIMLIM
 70
0
  9
$DIMTIH
 70
0
  9
$DIMTOH
 70
0
  9
$DIMSE1
 70
0
  9
$DIMSE2
 70
0
  9
$DIMTAD
 70
1
  9
$DIMZIN
 70
8
  9
$DIMBLK
  1

  9
$DIMASO
 70
1
  9
$DIMSHO
 70
1
  9
$DIMPOST
  1

  9
$DIMAPOST
  1

  9
$DIMALT
 70
0
  9
$DIMALTD
 70
3
  9
$DIMALTF
 40
0.03937007874
  9
$DIMLFAC
 40
1.0
  9
$DIMTOFL
 70
1
  9
$DIMTVP
 40
0.0
  9
$DIMTIX
 70
0
  9
$DIMSOXD
 70
0
  9
$DIMSAH
 70
0
  9
$DIMBLK1
  1

  9
$DIMBLK2
  1

  9
$DIMSTYLE
  2
ISO-25
  9
$DIMCLRD
 70
0
  9
$DIMCLRE
 70
0
  9
$DIMCLRT
 70
0
  9
$DIMTFAC
 40
1.0
  9
$DIMGAP
 40
0.625
  9
$DIMJUST
 70
0
  9
$DIMSD1
 70
0
  9
$DIMSD2
 70
0
  9
$DIMTOLJ
 70
0
  9
$DIMTZIN
 70
8
  9
$DIMALTZ
 70
0
  9
$DIMALTTZ
 70
0
  9
$DIMUPT
 70
0
  9
$DIMDEC
 70
2
  9
$DIMTDEC
 70
2
  9
$DIMALTU
 70
2
  9
$DIMALTTD
 70
3
  9
$DIMTXSTY
  7
Standard
  9
$DIMAUNIT
 70
0
  9
$DIMADEC
 70
0
  9
$DIMALTRND
 40
0.0
  9
$DIMAZIN
 70
0
  9
$DIMDSEP
 70
44
  9
$DIMATFIT
 70
3
  9
$DIMFRAC
 70
0
  9
$DIMLDRBLK
  1

  9
$DIMLUNIT
 70
2
  9
$DIMLWD
 70
-2
  9
$DIMLWE
 70
-2
  9
$DIMTMOVE
 70
0
  9
$DIMFXL
 40
1.0
  9
$DIMFXLON
 70
0
  9
$DIMJOGANG
 40
0.785398163397
  9
$DIMTFILL
 70
0
  9
$DIMTFILLCLR
 70
0
  9
$DIMARCSYM
 70
0
  9
$DIMLTYPE
  6

  9
$DIMLTEX1
  6

  9
$DIMLTEX2
  6

  9
$DIMTXTDIRECTION
 70
0
  9
$LUNITS
 70
2
  9
$LUPREC
 70
4
  9
$SKETCHINC
 40
1.0
  9
$FILLETRAD
 40
10.0
  9
$AUNITS
 70
0
  9
$AUPREC
 70
2
  9
$MENU
  1
.
  9
$ELEVATION
 40
0.0
  9
$PELEVATION
 40
0.0
  9
$THICKNESS
 40
0.0
  9
$LIMCHECK
 70
0
  9
$CHAMFERA
 40
0.0
  9
$CHAMFERB
 40
0.0
  9
$CHAMFERC
 40
0.0
  9
$CHAMFERD
 40
0.0
  9
$SKPOLY
 70
0
  9
$TDCREATE
 40
2461321.971608796
  9
$TDUCREATE
 40
2458532.153996898
  9
$TDUPDATE
 40
2461321.971608796
  9
$TDUUPDATE
 40
2458532.1544311
  9
$TDINDWG
 40
0.0
  9
$TDUSRTIMER
 40
0.0
  9
$USRTIMER
 70
1
  9
$ANGBASE
 50
0.0
  9
$ANGDIR
 70
0
  9
$PDMODE
 70
0
  9
$PDSIZE
 40
0.0
  9
$PLINEWID
 40
0.0
  9
$SPLFRAME
 70
0
  9
$SPLINETYPE
 70
6
  9
$SPLINESEGS
 70
8
  9
$HANDSEED
  5
101
  9
$SURFTAB1
 70
6
  9
$SURFTAB2
 70
6
  9
$SURFTYPE
 70
6
  9
$SURFU
 70
6
  9
$SURFV
 70
6
  9
$UCSBASE
  2

  9
$UCSNAME
  2

  9
$UCSORG
 10
0.0
 20
0.0
 30
0.0
  9
$UCSXDIR
 10
1.0
 20
0.0
 30
0.0
  9
$UCSYDIR
 10
0.0
 20
1.0
 30
0.0
  9
$UCSORTHOREF
  2

  9
$UCSORTHOVIEW
 70
0
  9
$UCSORGTOP
 10
0.0
 20
0.0
 30
0.0
  9
$UCSORGBOTTOM
 10
0.0
 20
0.0
 30
0.0
  9
$UCSORGLEFT
 10
0.0
 20
0.0
 30
0.0
  9
$UCSORGRIGHT
 10
0.0
 20
0.0
 30
0.0
  9
$UCSORGFRONT
 10
0.0
 20
0.0
 30
0.0
  9
$UCSORGBACK
 10
0.0
 20
0.0
 30
0.0
  9
$PUCSBASE
  2

  9
$PUCSNAME
  2

  9
$PUCSORG
 10
0.0
 20
0.0
 30
0.0
  9
$PUCSXDIR
 10
1.0
 20
0.0
 30
0.0
  9
$PUCSYDIR
 10
0.0
 20
1.0
 30
0.0
  9
$PUCSORTHOREF
  2

  9
$PUCSORTHOVIEW
 70
0
  9
$PUCSORGTOP
 10
0.0
 20
0.0
 30
0.0
  9
$PUCSORGBOTTOM
 10
0.0
 20
0.0
 30
0.0
  9
$PUCSORGLEFT
 10
0.0
 20
0.0
 30
0.0
  9
$PUCSORGRIGHT
 10
0.0
 20
0.0
 30
0.0
  9
$PUCSORGFRONT
 10
0.0
 20
0.0
 30
0.0
  9
$PUCSORGBACK
 10
0.0
 20
0.0
 30
0.0
  9
$USERI1
 70
0
  9
$USERI2
 70
0
  9
$USERI3
 70
0
  9
$USERI4
 70
0
  9
$USERI5
 70
0
  9
$USERR1
 40
0.0
  9
$USERR2
 40
0.0
  9
$USERR3
 40
0.0
  9
$USERR4
 40
0.0
  9
$USERR5
 40
0.0
  9
$WORLDVIEW
 70
1
  9
$SHADEDGE
 70
3
  9
$SHADEDIF
 70
70
  9
$TILEMODE
 70
1
  9
$MAXACTVP
 70
64
  9
$PINSBASE
 10
0.0
 20
0.0
 30
0.0
  9
$PLIMCHECK
 70
0
  9
$PEXTMIN
 10
1e+20
 20
1e+20
 30
1e+20
  9
$PEXTMAX
 10
-1e+20
 20
-1e+20
 30
-1e+20
  9
$PLIMMIN
 10
0.0
 20
0.0
  9
$PLIMMAX
 10
420.0
 20
297.0
  9
$UNITMODE
 70
0
  9
$VISRETAIN
 70
1
  9
$PLINEGEN
 70
0
  9
$PSLTSCALE
 70
1
  9
$TREEDEPTH
 70
3020
  9
$CMLSTYLE
  2
Standard
  9
$CMLJUST
 70
0
  9
$CMLSCALE
 40
20.0
  9
$PROXYGRAPHICS
 70
1
  9
$MEASUREMENT
 70
1
  9
$CELWEIGHT
370
-1
  9
$ENDCAPS
280
0
  9
$JOINSTYLE
280
0
  9
$LWDISPLAY
290
0
  9
$INSUNITS
 70
4
  9
$HYPERLINKBASE
  1

  9
$STYLESHEET
  1

  9
$XEDIT
290
1
  9
$CEPSNTYPE
380
0
  9
$PSTYLEMODE
290
1
  9
$FINGERPRINTGUID
  2
{DC84E96E-2BA8-4DEB-859D-F9EF473FF55F}
  9
$VERSIONGUID
  2
{A549FF78-0937-4D03-9823-0650E355106D}
  9
$EXTNAMES
290
1
  9
$PSVPSCALE
 40
0.0
  9
$OLESTARTUP
290
0
  9
$SORTENTS
280
127
  9
$INDEXCTL
280
0
  9
$HIDETEXT
280
1
  9
$XCLIPFRAME
280
1
  9
$HALOGAP
280
0
  9
$OBSCOLOR
 70
257
  9
$OBSLTYPE
280
0
  9
$INTERSECTIONDISPLAY
280
0
  9
$INTERSECTIONCOLOR
 70
257
  9
$DIMASSOC
280
2
  9
$PROJECTNAME
  1

  9
$CAMERADISPLAY
290
0
  9
$LENSLENGTH
 40
50.0
  9
$CAMERAHEIGHT
 40
0.0
  9
$STEPSPERSEC
 40
24.0
  9
$STEPSIZE
 40
100.0
  9
$3DDWFPREC
 40
2.0
  9
$PSOLWIDTH
 40
0.005
  9
$PSOLHEIGHT
 40
0.08
  9
$LOFTANG1
 40
1.570796326795
  9
$LOFTANG2
 40
1.570796326795
  9
$LOFTMAG1
 40
0.0
  9
$LOFTMAG2
 40
0.0
  9
$LOFTPARAM
 70
7
  9
$LOFTNORMALS
280
1
  9
$LATITUDE
 40
37.795
  9
$LONGITUDE
 40
-122.394
  9
$NORTHDIRECTION
 40
0.0
  9
$TIMEZONE
 70
-8000
  9
$LIGHTGLYPHDISPLAY
280
1
  9
$TILEMODELIGHTSYNCH
280
1
  9
$CMATERIAL
347
20
  9
$SOLIDHIST
280
0
  9
$SHOWHIST
280
1
  9
$DWFFRAME
280
2
  9
$DGNFRAME
280
2
  9
$REALWORLDSCALE
290
1
  9
$INTERFERECOLOR
 62
256
  9
$CSHADOW
280
0
  9
$SHADOWPLANELOCATION
 40
0.0
  0
ENDSEC
  0
SECTION
  2
CLASSES
  0
CLASS
  1
ACDBDICTIONARYWDFLT
  2
AcDbDictionaryWithDefault
  3
ObjectDBX Classes
 90
0
 91
0
280
0
281
0
  0
CLASS
  1
SUN
  2
AcDbSun
  3
SCENEOE
 90
1153
 91
0
280
0
281
0
  0
CLASS
  1
VISUALSTYLE
  2
AcDbVisualStyle
  3
ObjectDBX Classes
 90
4095
 91
0
280
0
281
0
  0
CLASS
  1
MATERIAL
  2
AcDbMaterial
  3
ObjectDBX Classes
 90
1153
 91
0
280
0
281
0
  0
CLASS
  1
SCALE
  2
AcDbScale
  3
ObjectDBX Classes
 90
1153
 91
0
280
0
281
0
  0
CLASS
  1
TABLESTYLE
  2
AcDbTableStyle
  3
ObjectDBX Classes
 90
4095
 91
0
280
0
281
0
  0
CLASS
  1
MLEADERSTYLE
  2
AcDbMLeaderStyle
  3
ACDB_MLEADERSTYLE_CLASS
 90
4095
 91
0
280
0
281
0
  0
CLASS
  1
DICTIONARYVAR
  2
AcDbDictionaryVar
  3
ObjectDBX Classes
 90
0
 91
0
280
0
281
0
  0
CLASS
  1
CELLSTYLEMAP
  2
AcDbCellStyleMap
  3
ObjectDBX Classes
 90
1152
 91
0
280
0
281
0
  0
CLASS
  1
MENTALRAYRENDERSETTINGS
  2
AcDbMentalRayRenderSettings
  3
SCENEOE
 90
1024
 91
0
280
0
281
0
  0
CLASS
  1
ACDBDETAILVIEWSTYLE
  2
AcDbDetailViewStyle
  3
ObjectDBX Classes
 90
1025
 91
0
280
0
281
0
  0
CLASS
  1
ACDBSECTIONVIEWSTYLE
  2
AcDbSectionViewStyle
  3
ObjectDBX Classes
 90
1025
 91
0
280
0
281
0
  0
CLASS
  1
RASTERVARIABLES
  2
AcDbRasterVariables
  3
ISM
 90
0
 91
0
280
0
281
0
  0
CLASS
  1
ACDBPLACEHOLDER
  2
AcDbPlaceHolder
  3
ObjectDBX Classes
 90
0
 91
0
280
0
281
0
  0
CLASS
  1
LAYOUT
  2
AcDbLayout
  3
ObjectDBX Classes
 90
0
 91
0
280
0
281
0
  0
ENDSEC
  0
SECTION
  2
TABLES
  0
TABLE
  2
VPORT
  5
8
330
0
100
AcDbSymbolTable
 70
1
  0
VPORT
  5
FD
330
8
100
AcDbSymbolTableRecord
100
AcDbViewportTableRecord
  2
*Active
 70
0
 10
0.0
 20
0.0
 11
1.0
 21
1.0
 12
90.0
 22
83.25
 13
0.0
 23
0.0
 14
0.5
 24
0.5
 15
0.5
 25
0.5
 16
0.0
 26
0.0
 36
1.0
 17
0.0
 27
0.0
 37
0.0
 40
166.5
 41
1.34
 42
50.0
 43
0.0
 44
0.0
 50
0.0
 51
0.0
 71
0
 72
1000
 73
1
 74
3
 75
0
 76
0
 77
0
 78
0
281
0
 65
1
110
0.0
120
0.0
130
0.0
111
1.0
121
0.0
131
0.0
112
0.0
122
1.0
132
0.0
 79
0
146
0.0
  0
ENDTAB
  0
TABLE
  2
LTYPE
  5
2
330
0
100
AcDbSymbolTable
 70
3
  0
LTYPE
  5
24
330
2
100
AcDbSymbolTableRecord
100
AcDbLinetypeTableRecord
  2
ByBlock
 70
0
  3

 72
65
 73
0
 40
0.0
  0
LTYPE
  5
25
330
2
100
AcDbSymbolTableRecord
100
AcDbLinetypeTableRecord
  2
ByLayer
 70
0
  3

 72
65
 73
0
 40
0.0
  0
LTYPE
  5
26
330
2
100
AcDbSymbolTableRecord
100
AcDbLinetypeTableRecord
  2
Continuous
 70
0
  3

 72
65
 73
0
 40
0.0
  0
ENDTAB
  0
TABLE
  2
LAYER
  5
1
330
0
100
AcDbSymbolTable
 70
4
  0
LAYER
  5
27
330
1
100
AcDbSymbolTableRecord
100
AcDbLayerTableRecord
  2
0
 70
0
 62
7
  6
Continuous
370
-3
390
13
347
21
  0
LAYER
  5
28
330
1
100
AcDbSymbolTableRecord
100
AcDbLayerTableRecord
  2
Defpoints
 70
0
 62
7
  6
Continuous
290
0
370
-3
390
13
347
21
  0
LAYER
  5
2F
330
1
100
AcDbSymbolTableRecord
100
AcDbLayerTableRecord
  2
CUT
 70
0
 62
1
  6
Continuous
370
-3
390
13
347
21
  0
LAYER
  5
30
330
1
100
AcDbSymbolTableRecord
100
AcDbLayerTableRecord
  2
ENGRAVE
 70
0
 62
7
  6
Continuous
370
-3
390
13
347
21
  0
ENDTAB
  0
TABLE
  2
STYLE
  5
5
330
0
100
AcDbSymbolTable
 70
1
  0
STYLE
  5
29
330
5
100
AcDbSymbolTableRecord
100
AcDbTextStyleTableRecord
  2
Standard
 70
0
 40
0.0
 41
1.0
 50
0.0
 71
0
 42
2.5
  3
txt
  4

  0
ENDTAB
  0
TABLE
  2
VIEW
  5
7
330
0
100
AcDbSymbolTable
 70
0
  0
ENDTAB
  0
TABLE
  2
UCS
  5
6
330
0
100
AcDbSymbolTable
 70
0
  0
ENDTAB
  0
TABLE
  2
APPID
  5
3
330
0
100
AcDbSymbolTable
 70
3
  0
APPID
  5
2A
330
3
100
AcDbSymbolTableRecord
100
AcDbRegAppTableRecord
  2
ACAD
 70
0
  0
APPID
  5
FE
330
3
100
AcDbSymbolTableRecord
100
AcDbRegAppTableRecord
  2
HATCHBACKGROUNDCOLOR
 70
0
  0
APPID
  5
FF
330
3
100
AcDbSymbolTableRecord
100
AcDbRegAppTableRecord
  2
EZDXF
 70
0
  0
ENDTAB
  0
TABLE
  2
DIMSTYLE
  5
4
330
0
100
AcDbSymbolTable
 70
1
100
AcDbDimStyleTable
  0
DIMSTYLE
105
2B
330
4
100
AcDbSymbolTableRecord
100
AcDbDimStyleTableRecord
  2
Standard
 70
0
 40
1.0
 41
2.5
 42
0.625
 43
3.75
 44
1.25
 45
0.0
 46
0.0
 47
0.0
 48
0.0
 49
2.5
140
2.5
141
2.5
142
0.0
143
0.03937007874
144
1.0
145
0.0
146
1.0
147
0.625
148
0.0
 69
0
 70
0
 71
0
 72
0
 73
0
 74
0
 75
0
 76
0
 77
1
 78
8
 79
3
170
0
171
3
172
1
173
0
174
0
175
0
176
0
177
0
178
0
179
2
271
2
272
2
273
2
274
3
275
0
276
0
277
2
278
44
279
0
280
0
281
0
282
0
283
0
284
8
285
0
286
0
288
0
289
3
290
0
371
-2
372
-2
  0
ENDTAB
  0
TABLE
  2
BLOCK_RECORD
  5
9
330
0
100
AcDbSymbolTable
 70
2
  0
BLOCK_RECORD
  5
17
330
9
100
AcDbSymbolTableRecord
100
AcDbBlockTableRecord
  2
*Model_Space
340
1A
 70
0
280
1
281
0
  0
BLOCK_RECORD
  5
1B
330
9
100
AcDbSymbolTableRecord
100
AcDbBlockTableRecord
  2
*Paper_Space
340
1E
 70
0
280
1
281
0
  0
ENDTAB
  0
ENDSEC
  0
SECTION
  2
BLOCKS
  0
BLOCK
  5
18
330
17
100
AcDbEntity
  8
0
100
AcDbBlockBegin
  2
*Model_Space
 70
0
 10
0.0
 20
0.0
 30
0.0
  3
*Model_Space
  1

  0
ENDBLK
  5
19
330
17
100
AcDbEntity
  8
0
100
AcDbBlockEnd
  0
BLOCK
  5
1C
330
1B
100
AcDbEntity
  8
0
100
AcDbBlockBegin
  2
*Paper_Space
 70
0
 10
0.0
 20
0.0
 30
0.0
  3
*Paper_Space
  1

  0
ENDBLK
  5
1D
330
1B
100
AcDbEntity
  8
0
100
AcDbBlockEnd
  0
ENDSEC
  0
SECTION
  2
ENTITIES
  0
LINE
  5
31
330
17
100
AcDbEntity
  8
CUT
100
AcDbLine
 10
0.0
 20
160.5
 30
0.0
 11
0.0
 21
6.0
 31
0.0
  0
ARC
  5
32
330
17
100
AcDbEntity
  8
CUT
100
AcDbCircle
 10
6.0
 20
6.0
 30
0.0
 40
6.0
100
AcDbArc
 50
180.0
 51
270.0
  0
LINE
  5
33
330
17
100
AcDbEntity
  8
CUT
100
AcDbLine
 10
6.0
 20
0.0
 30
0.0
 11
174.0
 21
0.0
 31
0.0
  0
ARC
  5
34
330
17
100
AcDbEntity
  8
CUT
100
AcDbCircle
 10
174.0
 20
6.0
 30
0.0
 40
6.0
100
AcDbArc
 50
270.0
 51
360.0
  0
LINE
  5
35
330
17
100
AcDbEntity
  8
CUT
100
AcDbLine
 10
180.0
 20
6.0
 30
0.0
 11
180.0
 21
160.5
 31
0.0
  0
ARC
  5
36
330
17
100
AcDbEntity
  8
CUT
100
AcDbCircle
 10
174.0
 20
160.5
 30
0.0
 40
6.0
100
AcDbArc
 50
0.0
 51
90.0
  0
LINE
  5
37
330
17
100
AcDbEntity
  8
CUT
100
AcDbLine
 10
174.0
 20
166.5
 30
0.0
 11
6.0
 21
166.5
 31
0.0
  0
ARC
  5
38
330
17
100
AcDbEntity
  8
CUT
100
AcDbCircle
 10
6.0
 20
160.5
 30
0.0
 40
6.0
100
AcDbArc
 50
90.0
 51
180.0
  0
CIRCLE
  5
39
330
17
100
AcDbEntity
  8
CUT
100
AcDbCircle
 10
7.0
 20
7.0
 30
0.0
 40
1.7
  0
CIRCLE
  5
3A
330
17
100
AcDbEntity
  8
CUT
100
AcDbCircle
 10
54.5
 20
19.5
 30
0.0
 40
1.35
  0
LINE
  5
3B
330
17
100
AcDbEntity
  8
CUT
100
AcDbLine
 10
55.5
 20
26.5
 30
0.0
 11
91.5
 21
26.5
 31
0.0
  0
ARC
  5
3C
330
17
100
AcDbEntity
  8
CUT
100
AcDbCircle
 10
91.5
 20
25.0
 30
0.0
 40
1.5
100
AcDbArc
 50
-90.0
 51
90.0
  0
LINE
  5
3D
330
17
100
AcDbEntity
  8
CUT
100
AcDbLine
 10
91.5
 20
23.5
 30
0.0
 11
55.5
 21
23.5
 31
0.0
  0
ARC
  5
3E
330
17
100
AcDbEntity
  8
CUT
100
AcDbCircle
 10
55.5
 20
25.0
 30
0.0
 40
1.5
100
AcDbArc
 50
-270.0
 51
-90.0
  0
LINE
  5
3F
330
17
100
AcDbEntity
  8
CUT
100
AcDbLine
 10
55.5
 20
34.0
 30
0.0
 11
91.5
 21
34.0
 31
0.0
  0
ARC
  5
40
330
17
100
AcDbEntity
  8
CUT
100
AcDbCircle
 10
91.5
 20
32.5
 30
0.0
 40
1.5
100
AcDbArc
 50
-90.0
 51
90.0
  0
LINE
  5
41
330
17
100
AcDbEntity
  8
CUT
100
AcDbLine
 10
91.5
 20
31.0
 30
0.0
 11
55.5
 21
31.0
 31
0.0
  0
ARC
  5
42
330
17
100
AcDbEntity
  8
CUT
100
AcDbCircle
 10
55.5
 20
32.5
 30
0.0
 40
1.5
100
AcDbArc
 50
-270.0
 51
-90.0
  0
LINE
  5
43
330
17
100
AcDbEntity
  8
CUT
100
AcDbLine
 10
55.5
 20
41.5
 30
0.0
 11
91.5
 21
41.5
 31
0.0
  0
ARC
  5
44
330
17
100
AcDbEntity
  8
CUT
100
AcDbCircle
 10
91.5
 20
40.0
 30
0.0
 40
1.5
100
AcDbArc
 50
-90.0
 51
90.0
  0
LINE
  5
45
330
17
100
AcDbEntity
  8
CUT
100
AcDbLine
 10
91.5
 20
38.5
 30
0.0
 11
55.5
 21
38.5
 31
0.0
  0
ARC
  5
46
330
17
100
AcDbEntity
  8
CUT
100
AcDbCircle
 10
55.5
 20
40.0
 30
0.0
 40
1.5
100
AcDbArc
 50
-270.0
 51
-90.0
  0
LINE
  5
47
330
17
100
AcDbEntity
  8
CUT
100
AcDbLine
 10
55.5
 20
49.0
 30
0.0
 11
91.5
 21
49.0
 31
0.0
  0
ARC
  5
48
330
17
100
AcDbEntity
  8
CUT
100
AcDbCircle
 10
91.5
 20
47.5
 30
0.0
 40
1.5
100
AcDbArc
 50
-90.0
 51
90.0
  0
LINE
  5
49
330
17
100
AcDbEntity
  8
CUT
100
AcDbLine
 10
91.5
 20
46.0
 30
0.0
 11
55.5
 21
46.0
 31
0.0
  0
ARC
  5
4A
330
17
100
AcDbEntity
  8
CUT
100
AcDbCircle
 10
55.5
 20
47.5
 30
0.0
 40
1.5
100
AcDbArc
 50
-270.0
 51
-90.0
  0
LINE
  5
4B
330
17
100
AcDbEntity
  8
CUT
100
AcDbLine
 10
55.5
 20
56.5
 30
0.0
 11
91.5
 21
56.5
 31
0.0
  0
ARC
  5
4C
330
17
100
AcDbEntity
  8
CUT
100
AcDbCircle
 10
91.5
 20
55.0
 30
0.0
 40
1.5
100
AcDbArc
 50
-90.0
 51
90.0
  0
LINE
  5
4D
330
17
100
AcDbEntity
  8
CUT
100
AcDbLine
 10
91.5
 20
53.5
 30
0.0
 11
55.5
 21
53.5
 31
0.0
  0
ARC
  5
4E
330
17
100
AcDbEntity
  8
CUT
100
AcDbCircle
 10
55.5
 20
55.0
 30
0.0
 40
1.5
100
AcDbArc
 50
-270.0
 51
-90.0
  0
LINE
  5
4F
330
17
100
AcDbEntity
  8
CUT
100
AcDbLine
 10
55.5
 20
64.0
 30
0.0
 11
91.5
 21
64.0
 31
0.0
  0
ARC
  5
50
330
17
100
AcDbEntity
  8
CUT
100
AcDbCircle
 10
91.5
 20
62.5
 30
0.0
 40
1.5
100
AcDbArc
 50
-90.0
 51
90.0
  0
LINE
  5
51
330
17
100
AcDbEntity
  8
CUT
100
AcDbLine
 10
91.5
 20
61.0
 30
0.0
 11
55.5
 21
61.0
 31
0.0
  0
ARC
  5
52
330
17
100
AcDbEntity
  8
CUT
100
AcDbCircle
 10
55.5
 20
62.5
 30
0.0
 40
1.5
100
AcDbArc
 50
-270.0
 51
-90.0
  0
CIRCLE
  5
53
330
17
100
AcDbEntity
  8
CUT
100
AcDbCircle
 10
54.5
 20
68.5
 30
0.0
 40
1.35
  0
CIRCLE
  5
54
330
17
100
AcDbEntity
  8
CUT
100
AcDbCircle
 10
115.7
 20
7.0
 30
0.0
 40
1.7
  0
CIRCLE
  5
55
330
17
100
AcDbEntity
  8
CUT
100
AcDbCircle
 10
112.5
 20
19.5
 30
0.0
 40
1.35
  0
CIRCLE
  5
56
330
17
100
AcDbEntity
  8
CUT
100
AcDbCircle
 10
112.5
 20
68.5
 30
0.0
 40
1.35
  0
CIRCLE
  5
57
330
17
100
AcDbEntity
  8
CUT
100
AcDbCircle
 10
7.0
 20
159.5
 30
0.0
 40
1.7
  0
CIRCLE
  5
58
330
17
100
AcDbEntity
  8
CUT
100
AcDbCircle
 10
56.0
 20
150.0
 30
0.0
 40
6.1
  0
CIRCLE
  5
59
330
17
100
AcDbEntity
  8
CUT
100
AcDbCircle
 10
173.0
 20
159.5
 30
0.0
 40
1.7
  0
SPLINE
  5
5A
330
17
100
AcDbEntity
  8
ENGRAVE
100
AcDbSpline
 70
0
 71
2
 72
24
 73
21
 74
0
 40
0.0
 40
0.0
 40
0.0
 40
1.0
 40
1.0
 40
2.0
 40
2.0
 40
2.9065133400261827
 40
2.9065133400261827
 40
3.8130266800524004
 40
3.8130266800524004
 40
4.719540020078625
 40
4.719540020078625
 40
5.626080683652502
 40
5.626080683652502
 40
6.532621347226371
 40
6.532621347226371
 40
7.439162010800276
 40
7.439162010800276
 40
8.43919215216336
 40
8.43919215216336
 40
9.439222293526443
 40
9.439222293526443
 40
9.439222293526443
 10
50.22608005000001
 20
139.61318687500003
 30
0.0
 10
50.075933175
 20
140.02829375000005
 30
0.0
 10
49.72928004999999
 20
140.26234031250002
 30
0.0
 10
49.382626925
 20
140.49638687500004
 30
0.0
 10
48.9101063
 20
140.496386875
 30
0.0
 10
48.48176005
 20
140.49638687500004
 30
0.0
 10
48.157186925000005
 20
140.297666875
 30
0.0
 10
47.8326138
 20
140.09894687500002
 30
0.0
 10
47.651553487499996
 20
139.73904000000002
 30
0.0
 10
47.470493175000016
 20
139.379133125
 30
0.0
 10
47.470493174999994
 20
138.90221375000002
 30
0.0
 10
47.470493175
 20
138.42528000000004
 30
0.0
 10
47.651553487499996
 20
138.06316656250002
 30
0.0
 10
47.832613800000004
 20
137.701053125
 30
0.0
 10
48.15718692499998
 20
137.50233312500004
 30
0.0
 10
48.481760050000005
 20
137.30361312500006
 30
0.0
 10
48.910106299999995
 20
137.30361312500003
 30
0.0
 10
49.382626925
 20
137.30361312500008
 30
0.0
 10
49.72928005000001
 20
137.54208
 30
0.0
 10
50.075933175
 20
137.78054687500003
 30
0.0
 10
50.22608005000001
 20
138.191240625
 30
0.0
  0
LINE
  5
5B
330
17
100
AcDbEntity
  8
ENGRAVE
100
AcDbLine
 10
49.80656005
 20
139.45862687500002
 30
0.0
 11
50.22608005
 21
139.61318687500003
 31
0.0
  0
SPLINE
  5
5C
330
17
100
AcDbEntity
  8
ENGRAVE
100
AcDbSpline
 70
0
 71
3
 72
32
 73
28
 74
0
 40
0.0
 40
0.0
 40
0.0
 40
0.0
 40
1.0
 40
1.0
 40
1.0
 40
1.9999999999999793
 40
1.9999999999999793
 40
1.9999999999999793
 40
2.9188844411208157
 40
2.9188844411208157
 40
2.9188844411208157
 40
4.756653323362423
 40
4.756653323362423
 40
4.756653323362423
 40
5.675501287787593
 40
5.675501287787593
 40
5.675501287787593
 40
6.594349252212764
 40
6.594349252212764
 40
6.594349252212764
 40
7.513197216637914
 40
7.513197216637914
 40
7.513197216637914
 40
8.513157519920815
 40
8.513157519920815
 40
8.513157519920815
 40
9.513117823203737
 40
9.513117823203737
 40
9.513117823203737
 40
9.513117823203737
 10
49.80656005
 20
138.34137312500002
 30
0.0
 10
49.73296005
 20
138.150013125
 30
0.0
 10
49.619615570833346
 20
138.00060656250002
 30
0.0
 10
49.4665266125
 20
137.89315343750002
 30
0.0
 10
49.313437654166655
 20
137.78570031249996
 30
0.0
 10
49.127964216666676
 20
137.73197374999998
 30
0.0
 10
48.9101063
 20
137.73197375000004
 30
0.0
 10
48.70992004999997
 20
137.7319737499999
 30
0.0
 10
48.53549140416668
 20
137.77981375
 30
0.0
 10
48.38682036249999
 20
137.87549375000006
 30
0.0
 10
48.09154857316875
 20
138.0652454348041
 30
0.0
 10
47.9188635059979
 20
138.4209945651959
 30
0.0
 10
47.9209338
 20
138.90221375000002
 30
0.0
 10
47.920933799999965
 20
139.14361791666667
 30
0.0
 10
47.9614138
 20
139.35043343749996
 30
0.0
 10
48.04237380000001
 20
139.52266031250002
 30
0.0
 10
48.12333379999997
 20
139.69488718749997
 30
0.0
 10
48.23814932083333
 20
139.828840625
 30
0.0
 10
48.386820362500025
 20
139.92452062500004
 30
0.0
 10
48.535491404166656
 20
140.02020062500003
 30
0.0
 10
48.70992005
 20
140.068040625
 30
0.0
 10
48.91010630000001
 20
140.068040625
 30
0.0
 10
49.127964216666655
 20
140.06804062499992
 30
0.0
 10
49.31343765416666
 20
140.01431166666677
 30
0.0
 10
49.46652661250001
 20
139.90685375
 30
0.0
 10
49.619615570833346
 20
139.79939583333345
 30
0.0
 10
49.73296005
 20
139.64998687499994
 30
0.0
 10
49.80656005
 20
139.45862687500002
 30
0.0
  0
LINE
  5
5D
330
17
100
AcDbEntity
  8
ENGRAVE
100
AcDbLine
 10
50.22608005
 20
138.19124062500003
 30
0.0
 11
49.80656005
 21
138.34137312500002
 31
0.0
  0
LINE
  5
5E
330
17
100
AcDbEntity
  8
ENGRAVE
100
AcDbLine
 10
50.716253175000006
 20
137.36102687500002
 30
0.0
 11
51.166679425000005
 21
137.36102687500002
 31
0.0
  0
LINE
  5
5F
330
17
100
AcDbEntity
  8
ENGRAVE
100
AcDbLine
 10
50.716253175000006
 20
140.43897312500002
 30
0.0
 11
50.716253175000006
 21
137.36102687500002
 31
0.0
  0
LINE
  5
60
330
17
100
AcDbEntity
  8
ENGRAVE
100
AcDbLine
 10
51.166679425000005
 20
140.43897312500002
 30
0.0
 11
50.716253175000006
 21
140.43897312500002
 31
0.0
  0
LINE
  5
61
330
17
100
AcDbEntity
  8
ENGRAVE
100
AcDbLine
 10
51.166679425000005
 20
139.14950687500001
 30
0.0
 11
51.166679425000005
 21
140.43897312500002
 31
0.0
  0
LINE
  5
62
330
17
100
AcDbEntity
  8
ENGRAVE
100
AcDbLine
 10
52.6195463
 20
139.14950687500001
 30
0.0
 11
51.166679425000005
 21
139.14950687500001
 31
0.0
  0
LINE
  5
63
330
17
100
AcDbEntity
  8
ENGRAVE
100
AcDbLine
 10
52.6195463
 20
140.43897312500002
 30
0.0
 11
52.6195463
 21
139.14950687500001
 31
0.0
  0
LINE
  5
64
330
17
100
AcDbEntity
  8
ENGRAVE
100
AcDbLine
 10
53.069986925
 20
140.43897312500002
 30
0.0
 11
52.6195463
 21
140.43897312500002
 31
0.0
  0
LINE
  5
65
330
17
100
AcDbEntity
  8
ENGRAVE
100
AcDbLine
 10
53.069986925
 20
137.36102687500002
 30
0.0
 11
53.069986925
 21
140.43897312500002
 31
0.0
  0
LINE
  5
66
330
17
100
AcDbEntity
  8
ENGRAVE
100
AcDbLine
 10
52.6195463
 20
137.36102687500002
 30
0.0
 11
53.069986925
 21
137.36102687500002
 31
0.0
  0
LINE
  5
67
330
17
100
AcDbEntity
  8
ENGRAVE
100
AcDbLine
 10
52.6195463
 20
138.729986875
 30
0.0
 11
52.6195463
 21
137.36102687500002
 31
0.0
  0
LINE
  5
68
330
17
100
AcDbEntity
  8
ENGRAVE
100
AcDbLine
 10
51.166679425000005
 20
138.729986875
 30
0.0
 11
52.6195463
 21
138.729986875
 31
0.0
  0
LINE
  5
69
330
17
100
AcDbEntity
  8
ENGRAVE
100
AcDbLine
 10
51.166679425000005
 20
137.36102687500002
 30
0.0
 11
51.166679425000005
 21
138.729986875
 31
0.0
  0
LINE
  5
6A
330
17
100
AcDbEntity
  8
ENGRAVE
100
AcDbLine
 10
53.4630138
 20
137.36102687500002
 30
0.0
 11
53.957600049999996
 21
137.36102687500002
 31
0.0
  0
LINE
  5
6B
330
17
100
AcDbEntity
  8
ENGRAVE
100
AcDbLine
 10
54.659746925
 20
140.43897312500002
 30
0.0
 11
53.4630138
 21
137.36102687500002
 31
0.0
  0
LINE
  5
6C
330
17
100
AcDbEntity
  8
ENGRAVE
100
AcDbLine
 10
55.0086138
 20
140.43897312500002
 30
0.0
 11
54.659746925
 21
140.43897312500002
 31
0.0
  0
LINE
  5
6D
330
17
100
AcDbEntity
  8
ENGRAVE
100
AcDbLine
 10
56.200933799999994
 20
137.36102687500002
 30
0.0
 11
55.0086138
 21
140.43897312500002
 31
0.0
  0
LINE
  5
6E
330
17
100
AcDbEntity
  8
ENGRAVE
100
AcDbLine
 10
55.710760674999996
 20
137.36102687500002
 30
0.0
 11
56.200933799999994
 21
137.36102687500002
 31
0.0
  0
LINE
  5
6F
330
17
100
AcDbEntity
  8
ENGRAVE
100
AcDbLine
 10
55.463453175
 20
138.04550687500003
 30
0.0
 11
55.710760674999996
 21
137.36102687500002
 31
0.0
  0
LINE
  5
70
330
17
100
AcDbEntity
  8
ENGRAVE
100
AcDbLine
 10
54.204893174999995
 20
138.04550687500003
 30
0.0
 11
55.463453175
 21
138.04550687500003
 31
0.0
  0
LINE
  5
71
330
17
100
AcDbEntity
  8
ENGRAVE
100
AcDbLine
 10
53.957600049999996
 20
137.36102687500002
 30
0.0
 11
54.204893174999995
 21
138.04550687500003
 31
0.0
  0
LINE
  5
72
330
17
100
AcDbEntity
  8
ENGRAVE
100
AcDbLine
 10
55.3177338
 20
138.44736000000003
 30
0.0
 11
54.350626925
 21
138.44736000000003
 31
0.0
  0
LINE
  5
73
330
17
100
AcDbEntity
  8
ENGRAVE
100
AcDbLine
 10
54.836386925
 20
139.78541375000003
 30
0.0
 11
55.3177338
 21
138.44736000000003
 31
0.0
  0
LINE
  5
74
330
17
100
AcDbEntity
  8
ENGRAVE
100
AcDbLine
 10
54.350626925
 20
138.44736000000003
 30
0.0
 11
54.836386925
 21
139.78541375000003
 31
0.0
  0
LINE
  5
75
330
17
100
AcDbEntity
  8
ENGRAVE
100
AcDbLine
 10
56.598373800000005
 20
137.36102687500002
 30
0.0
 11
57.048800050000004
 21
137.36102687500002
 31
0.0
  0
LINE
  5
76
330
17
100
AcDbEntity
  8
ENGRAVE
100
AcDbLine
 10
56.598373800000005
 20
140.43897312500002
 30
0.0
 11
56.598373800000005
 21
137.36102687500002
 31
0.0
  0
LINE
  5
77
330
17
100
AcDbEntity
  8
ENGRAVE
100
AcDbLine
 10
57.5478138
 20
140.43897312500002
 30
0.0
 11
56.598373800000005
 21
140.43897312500002
 31
0.0
  0
SPLINE
  5
78
330
17
100
AcDbEntity
  8
ENGRAVE
100
AcDbSpline
 70
0
 71
3
 72
14
 73
10
 74
0
 40
0.0
 40
0.0
 40
0.0
 40
0.0
 40
1.0
 40
1.0
 40
1.0
 40
1.6777705439814194
 40
1.6777705439814194
 40
1.6777705439814194
 40
3.0333116319444082
 40
3.0333116319444082
 40
3.0333116319444082
 40
3.0333116319444082
 10
58.35594755
 20
138.94196062500004
 30
0.0
 10
58.50608963333331
 20
139.0921027083333
 30
0.0
 10
58.58116067500001
 20
139.29965375
 30
0.0
 10
58.58116067500001
 20
139.56461375000003
 30
0.0
 10
58.58116067500005
 20
139.74419583333344
 30
0.0
 10
58.545096195833324
 20
139.89949135416668
 30
0.0
 10
58.4729672375
 20
140.03050031249998
 30
0.0
 10
58.32710025688738
 20
140.2909091652207
 30
0.0
 10
58.03223119727929
 20
140.44058218894594
 30
0.0
 10
57.54781379999999
 20
140.43897312500002
 30
0.0
  0
SPLINE
  5
79
330
17
100
AcDbEntity
  8
ENGRAVE
100
AcDbSpline
 70
0
 71
2
 72
6
 73
3
 74
0
 40
0.0
 40
0.0
 40
0.0
 40
1.0
 40
1.0
 40
1.0
 10
58.35594755
 20
138.94196062500004
 30
0.0
 10
58.214626925000005
 20
138.80505312500003
 30
0.0
 10
58.00266755
 20
138.73881312500004
 30
0.0
  0
LINE
  5
7A
330
17
100
AcDbEntity
  8
ENGRAVE
100
AcDbLine
 10
58.81962755
 20
137.36102687500002
 30
0.0
 11
58.00266755
 21
138.73881312500004
 31
0.0
  0
LINE
  5
7B
330
17
100
AcDbEntity
  8
ENGRAVE
100
AcDbLine
 10
58.302946925
 20
137.36102687500002
 30
0.0
 11
58.81962755
 21
137.36102687500002
 31
0.0
  0
LINE
  5
7C
330
17
100
AcDbEntity
  8
ENGRAVE
100
AcDbLine
 10
57.543400675
 20
138.67700062500003
 30
0.0
 11
58.302946925
 21
137.36102687500002
 31
0.0
  0
SPLINE
  5
7D
330
17
100
AcDbEntity
  8
ENGRAVE
100
AcDbSpline
 70
0
 71
2
 72
6
 73
3
 74
0
 40
0.0
 40
0.0
 40
0.0
 40
1.0
 40
1.0
 40
1.0
 10
57.543400675
 20
138.67700062500003
 30
0.0
 10
57.53456005
 20
138.67700062500003
 30
0.0
 10
57.525733800000005
 20
138.67700062500003
 30
0.0
  0
LINE
  5
7E
330
17
100
AcDbEntity
  8
ENGRAVE
100
AcDbLine
 10
57.048800050000004
 20
138.67700062500003
 30
0.0
 11
57.525733800000005
 21
138.67700062500003
 31
0.0
  0
LINE
  5
7F
330
17
100
AcDbEntity
  8
ENGRAVE
100
AcDbLine
 10
57.048800050000004
 20
137.36102687500002
 30
0.0
 11
57.048800050000004
 21
138.67700062500003
 31
0.0
  0
LINE
  5
80
330
17
100
AcDbEntity
  8
ENGRAVE
100
AcDbLine
 10
57.048800050000004
 20
139.07444062500002
 30
0.0
 11
57.048800050000004
 21
140.03712000000002
 31
0.0
  0
LINE
  5
81
330
17
100
AcDbEntity
  8
ENGRAVE
100
AcDbLine
 10
57.5036538
 20
139.07444062500002
 30
0.0
 11
57.048800050000004
 21
139.07444062500002
 31
0.0
  0
SPLINE
  5
82
330
17
100
AcDbEntity
  8
ENGRAVE
100
AcDbSpline
 70
0
 71
3
 72
17
 73
13
 74
0
 40
0.0
 40
0.0
 40
0.0
 40
0.0
 40
1.0
 40
1.0
 40
1.0
 40
2.9999999999997606
 40
2.9999999999997606
 40
2.9999999999997606
 40
4.999999999999835
 40
4.999999999999835
 40
4.999999999999835
 40
5.999999999999934
 40
5.999999999999934
 40
5.999999999999934
 40
5.999999999999934
 10
57.5036538
 20
140.03712000000002
 30
0.0
 10
57.62435588333332
 20
140.03712000000002
 30
0.0
 10
57.73181140416667
 20
140.0223999999999
 30
0.0
 10
57.8260203625
 20
139.99296000000004
 30
0.0
 10
58.011677637580554
 20
139.93223882352586
 30
0.0
 10
58.13790819158615
 20
139.80344836397416
 30
0.0
 10
58.13514755
 20
139.5601934375
 30
0.0
 10
58.13813805786413
 20
139.31716837730374
 30
0.0
 10
58.0107122504692
 20
139.1842405810296
 30
0.0
 10
57.828226925
 20
139.12080718750002
 30
0.0
 10
57.7354890083334
 20
139.08989614583342
 30
0.0
 10
57.62729796666664
 20
139.07444062500002
 30
0.0
 10
57.5036538
 20
139.07444062500002
 30
0.0
  0
LINE
  5
83
330
17
100
AcDbEntity
  8
ENGRAVE
100
AcDbLine
 10
57.048800050000004
 20
140.03712000000002
 30
0.0
 11
57.5036538
 21
140.03712000000002
 31
0.0
  0
SPLINE
  5
84
330
17
100
AcDbEntity
  8
ENGRAVE
100
AcDbSpline
 70
0
 71
3
 72
32
 73
28
 74
0
 40
0.0
 40
0.0
 40
0.0
 40
0.0
 40
1.0
 40
1.0
 40
1.0
 40
2.0
 40
2.0
 40
2.0
 40
2.9065133400261827
 40
2.9065133400261827
 40
2.9065133400261827
 40
3.8130266800524004
 40
3.8130266800524004
 40
3.8130266800524004
 40
4.719540020078625
 40
4.719540020078625
 40
4.719540020078625
 40
5.626053360104904
 40
5.626053360104904
 40
5.626053360104904
 40
6.532566700131175
 40
6.532566700131175
 40
6.532566700131175
 40
7.439080040157469
 40
7.439080040157469
 40
7.439080040157469
 40
8.364899599808952
 40
8.364899599808952
 40
8.364899599808952
 40
8.364899599808952
 10
61.888747550000005
 20
139.61318687500003
 30
0.0
 10
61.7886496333333
 20
139.88992479166666
 30
0.0
 10
61.623049633333366
 20
140.10630927083338
 30
0.0
 10
61.39194754999999
 20
140.26234031250002
 30
0.0
 10
61.16084546666664
 20
140.4183713541667
 30
0.0
 10
60.88778755000001
 20
140.496386875
 30
0.0
 10
60.5727738
 20
140.496386875
 30
0.0
 10
60.28720963333333
 20
140.4963868750001
 30
0.0
 10
60.03623650833332
 20
140.43014687499993
 30
0.0
 10
59.81985442500001
 20
140.297666875
 30
0.0
 10
59.60347234166663
 20
140.16518687499993
 30
0.0
 10
59.43492786250002
 20
139.97897791666674
 30
0.0
 10
59.3142209875
 20
139.73904000000002
 30
0.0
 10
59.193514112500004
 20
139.49910208333333
 30
0.0
 10
59.13316067500001
 20
139.2201576041667
 30
0.0
 10
59.13316067499999
 20
138.90220656250003
 30
0.0
 10
59.133160675
 20
138.58425552083338
 30
0.0
 10
59.19351411249997
 20
138.30457552083334
 30
0.0
 10
59.314220987500015
 20
138.06316656250004
 30
0.0
 10
59.434927862499976
 20
137.82175760416663
 30
0.0
 10
59.60126338333332
 20
137.63481312499994
 30
0.0
 10
59.81322755000001
 20
137.50233312500004
 30
0.0
 10
60.02519171666665
 20
137.369853125
 30
0.0
 10
60.26954275833331
 20
137.3036131250001
 30
0.0
 10
60.54628067500002
 20
137.30361312500006
 30
0.0
 10
60.82707191394253
 20
137.30453259011193
 30
0.0
 10
61.086881727724105
 20
137.37924532655475
 30
0.0
 10
61.2793338
 20
137.55092062500003
 30
0.0
  0
LINE
  5
85
330
17
100
AcDbEntity
  8
ENGRAVE
100
AcDbLine
 10
61.46922755
 20
139.45862687500002
 30
0.0
 11
61.88874755
 21
139.61318687500003
 31
0.0
  0
SPLINE
  5
86
330
17
100
AcDbEntity
  8
ENGRAVE
100
AcDbSpline
 70
0
 71
3
 72
32
 73
28
 74
0
 40
0.0
 40
0.0
 40
0.0
 40
0.0
 40
2.0
 40
2.0
 40
2.0
 40
2.9999999999999587
 40
2.9999999999999587
 40
2.9999999999999587
 40
4.942801339285652
 40
4.942801339285652
 40
4.942801339285652
 40
8.828404017856903
 40
8.828404017856903
 40
8.828404017856903
 40
10.771205357142527
 40
10.771205357142527
 40
10.771205357142527
 40
12.714006696428152
 40
12.714006696428152
 40
12.714006696428152
 40
14.656808035713732
 40
14.656808035713732
 40
14.656808035713732
 40
16.771112351189736
 40
16.771112351189736
 40
16.771112351189736
 40
18.885416666665783
 40
18.885416666665783
 40
18.885416666665783
 40
18.885416666665783
 10
61.40740067499999
 20
138.21773374999998
 30
0.0
 10
61.2985138520306
 20
137.96927392360968
 30
0.0
 10
61.10044749796937
 20
137.83101743055704
 30
0.0
 10
60.888520674999995
 20
137.77392718750002
 30
0.0
 10
60.781062758333306
 20
137.7459582291666
 30
0.0
 10
60.675813800000014
 20
137.73197375000004
 30
0.0
 10
60.57277380000001
 20
137.73197375
 30
0.0
 10
60.37258754999997
 20
137.73197374999992
 30
0.0
 10
60.19815890416666
 20
137.77981375
 30
0.0
 10
60.0494878625
 20
137.87549375000006
 30
0.0
 10
59.75421607316882
 20
138.06524468605423
 30
0.0
 10
59.58153100599785
 20
138.42099770977921
 30
0.0
 10
59.58360130000001
 20
138.90220656250006
 30
0.0
 10
59.583601300000005
 20
139.1436155208333
 30
0.0
 10
59.62408129999999
 20
139.35043343750007
 30
0.0
 10
59.705041300000005
 20
139.52266031250002
 30
0.0
 10
59.786001299999974
 20
139.69488718750003
 30
0.0
 10
59.90081682083336
 20
139.828840625
 30
0.0
 10
60.049487862499994
 20
139.924520625
 30
0.0
 10
60.19815890416664
 20
140.02020062499997
 30
0.0
 10
60.37258754999999
 20
140.0680406250001
 30
0.0
 10
60.5727738
 20
140.068040625
 30
0.0
 10
60.79063171666672
 20
140.06804062500012
 30
0.0
 10
60.97610515416663
 20
140.01431166666663
 30
0.0
 10
61.12919411249999
 20
139.90685375
 30
0.0
 10
61.28228307083337
 20
139.79939583333348
 30
0.0
 10
61.395627549999986
 20
139.64998687499988
 30
0.0
 10
61.46922754999999
 20
139.45862687500002
 30
0.0
  0
SPLINE
  5
87
330
17
100
AcDbEntity
  8
ENGRAVE
100
AcDbSpline
 70
0
 71
2
 72
6
 73
3
 74
0
 40
0.0
 40
0.0
 40
0.0
 40
1.0
 40
1.0
 40
1.0
 10
61.407400675
 20
138.21773375
 30
0.0
 10
61.4780538
 20
138.36788062500003
 30
0.0
 10
61.486894424999996
 20
138.59309375
 30
0.0
  0
LINE
  5
88
330
17
100
AcDbEntity
  8
ENGRAVE
100
AcDbLine
 10
60.71850755
 20
138.59309375
 30
0.0
 11
61.486894424999996
 21
138.59309375
 31
0.0
  0
LINE
  5
89
330
17
100
AcDbEntity
  8
ENGRAVE
100
AcDbLine
 10
60.71850755
 20
138.994946875
 30
0.0
 11
60.71850755
 21
138.59309375
 31
0.0
  0
LINE
  5
8A
330
17
100
AcDbEntity
  8
ENGRAVE
100
AcDbLine
 10
61.88874755
 20
138.994946875
 30
0.0
 11
60.71850755
 21
138.994946875
 31
0.0
  0
LINE
  5
8B
330
17
100
AcDbEntity
  8
ENGRAVE
100
AcDbLine
 10
61.88874755
 20
137.36102687500002
 30
0.0
 11
61.88874755
 21
138.994946875
 31
0.0
  0
LINE
  5
8C
330
17
100
AcDbEntity
  8
ENGRAVE
100
AcDbLine
 10
61.491307549999995
 20
137.36102687500002
 30
0.0
 11
61.88874755
 21
137.36102687500002
 31
0.0
  0
LINE
  5
8D
330
17
100
AcDbEntity
  8
ENGRAVE
100
AcDbLine
 10
61.44714755
 20
137.75405375000003
 30
0.0
 11
61.491307549999995
 21
137.36102687500002
 31
0.0
  0
SPLINE
  5
8E
330
17
100
AcDbEntity
  8
ENGRAVE
100
AcDbSpline
 70
0
 71
2
 72
6
 73
3
 74
0
 40
0.0
 40
0.0
 40
0.0
 40
1.0
 40
1.0
 40
1.0
 10
61.44714755
 20
137.75405375000003
 30
0.0
 10
61.380907549999996
 20
137.63481312500002
 30
0.0
 10
61.279333799999996
 20
137.55092062500003
 30
0.0
  0
LINE
  5
8F
330
17
100
AcDbEntity
  8
ENGRAVE
100
AcDbLine
 10
62.4937338
 20
137.36102687500002
 30
0.0
 11
64.52950692499999
 21
137.36102687500002
 31
0.0
  0
LINE
  5
90
330
17
100
AcDbEntity
  8
ENGRAVE
100
AcDbLine
 10
62.4937338
 20
140.43897312500002
 30
0.0
 11
62.4937338
 21
137.36102687500002
 31
0.0
  0
LINE
  5
91
330
17
100
AcDbEntity
  8
ENGRAVE
100
AcDbLine
 10
64.52950692499999
 20
140.43897312500002
 30
0.0
 11
62.4937338
 21
140.43897312500002
 31
0.0
  0
LINE
  5
92
330
17
100
AcDbEntity
  8
ENGRAVE
100
AcDbLine
 10
64.52950692499999
 20
140.03712000000002
 30
0.0
 11
64.52950692499999
 21
140.43897312500002
 31
0.0
  0
LINE
  5
93
330
17
100
AcDbEntity
  8
ENGRAVE
100
AcDbLine
 10
62.94416005
 20
140.03712000000002
 30
0.0
 11
64.52950692499999
 21
140.03712000000002
 31
0.0
  0
LINE
  5
94
330
17
100
AcDbEntity
  8
ENGRAVE
100
AcDbLine
 10
62.94416005
 20
139.13625312500002
 30
0.0
 11
62.94416005
 21
140.03712000000002
 31
0.0
  0
LINE
  5
95
330
17
100
AcDbEntity
  8
ENGRAVE
100
AcDbLine
 10
64.39702692499999
 20
139.13625312500002
 30
0.0
 11
62.94416005
 21
139.13625312500002
 31
0.0
  0
LINE
  5
96
330
17
100
AcDbEntity
  8
ENGRAVE
100
AcDbLine
 10
64.39702692499999
 20
138.73440000000002
 30
0.0
 11
64.39702692499999
 21
139.13625312500002
 31
0.0
  0
LINE
  5
97
330
17
100
AcDbEntity
  8
ENGRAVE
100
AcDbLine
 10
62.94416005
 20
138.73440000000002
 30
0.0
 11
64.39702692499999
 21
138.73440000000002
 31
0.0
  0
LINE
  5
98
330
17
100
AcDbEntity
  8
ENGRAVE
100
AcDbLine
 10
62.94416005
 20
137.76288000000002
 30
0.0
 11
62.94416005
 21
138.73440000000002
 31
0.0
  0
LINE
  5
99
330
17
100
AcDbEntity
  8
ENGRAVE
100
AcDbLine
 10
64.52950692499999
 20
137.76288000000002
 30
0.0
 11
62.94416005
 21
137.76288000000002
 31
0.0
  0
LINE
  5
9A
330
17
100
AcDbEntity
  8
ENGRAVE
100
AcDbLine
 10
64.52950692499999
 20
137.36102687500002
 30
0.0
 11
64.52950692499999
 21
137.76288000000002
 31
0.0
  0
LINE
  5
9B
330
17
100
AcDbEntity
  8
ENGRAVE
100
AcDbLine
 10
66.81769814453125
 20
85.18055185546875
 30
0.0
 11
63.25799443359375
 21
85.18055185546875
 31
0.0
  0
SPLINE
  5
9C
330
17
100
AcDbEntity
  8
ENGRAVE
100
AcDbSpline
 70
0
 71
2
 72
14
 73
11
 74
0
 40
0.0
 40
0.0
 40
0.0
 40
1.0
 40
1.0
 40
1.9999999999999332
 40
1.9999999999999332
 40
2.5455756140868737
 40
2.5455756140868737
 40
3.0911512281738305
 40
3.0911512281738305
 40
3.636726842260835
 40
3.636726842260835
 40
3.636726842260835
 10
68.19909072265625
 20
84.86175927734375
 30
0.0
 10
68.12664072265625
 20
85.11294443359377
 30
0.0
 10
68.01796572265624
 20
85.21919814453125
 30
0.0
 10
67.90929072265624
 20
85.32545185546874
 30
0.0
 10
67.69678330078125
 20
85.32545185546874
 30
0.0
 10
67.58084443359375
 20
85.32545185546874
 30
0.0
 10
67.4576888671875
 20
85.29164814453125
 30
0.0
 10
67.33453330078125
 20
85.25784443359376
 30
0.0
 10
67.18238515625
 20
85.21919814453123
 30
0.0
 10
67.03023701171877
 20
85.18055185546875
 30
0.0
 10
66.81769814453125
 20
85.18055185546874
 30
0.0
  0
LINE
  5
9D
330
17
100
AcDbEntity
  8
ENGRAVE
100
AcDbLine
 10
68.62894814453125
 20
83.34999443359375
 30
0.0
 11
68.19909072265625
 21
84.86175927734375
 31
0.0
  0
SPLINE
  5
9E
330
17
100
AcDbEntity
  8
ENGRAVE
100
AcDbSpline
 70
0
 71
2
 72
8
 73
5
 74
0
 40
0.0
 40
0.0
 40
0.0
 40
1.0
 40
1.0
 40
2.0
 40
2.0
 40
2.0
 10
68.35364443359374
 20
82.98774443359375
 30
0.0
 10
68.50338701171876
 20
83.01189443359377
 30
0.0
 10
68.58549072265625
 20
83.10849443359375
 30
0.0
 10
68.66759443359376
 20
83.20509443359376
 30
0.0
 10
68.62894814453125
 20
83.34999443359375
 30
0.0
  0
SPLINE
  5
9F
330
17
100
AcDbEntity
  8
ENGRAVE
100
AcDbSpline
 70
0
 71
2
 72
8
 73
5
 74
0
 40
0.0
 40
0.0
 40
0.0
 40
1.0
 40
1.0
 40
1.9999999999999614
 40
1.9999999999999614
 40
1.9999999999999614
 10
67.92859814453125
 20
83.20990556640623
 30
0.0
 10
68.00589072265623
 20
83.05535185546876
 30
0.0
 10
68.12181386718753
 20
83.01429999999999
 30
0.0
 10
68.23773701171872
 20
82.97324814453124
 30
0.0
 10
68.35364443359376
 20
82.98774443359375
 30
0.0
  0
SPLINE
  5
A0
330
17
100
AcDbEntity
  8
ENGRAVE
100
AcDbSpline
 70
0
 71
2
 72
10
 73
7
 74
0
 40
0.0
 40
0.0
 40
0.0
 40
1.0
 40
1.0
 40
2.0000000000000453
 40
2.0000000000000453
 40
3.0000000000001155
 40
3.0000000000001155
 40
3.0000000000001155
 10
66.26709072265623
 20
84.53334443359375
 30
0.0
 10
66.59069443359377
 20
84.53334443359375
 30
0.0
 10
66.8611712890625
 20
84.427075
 30
0.0
 10
67.13164814453123
 20
84.32080556640625
 30
0.0
 10
67.39006572265627
 20
84.03583242187499
 30
0.0
 10
67.64848330078122
 20
83.75085927734375
 30
0.0
 10
67.92859814453126
 20
83.20990556640623
 30
0.0
  0
LINE
  5
A1
330
17
100
AcDbEntity
  8
ENGRAVE
100
AcDbLine
 10
65.76959443359375
 20
84.53334443359375
 30
0.0
 11
66.26709072265625
 21
84.53334443359375
 31
0.0
  0
LINE
  5
A2
330
17
100
AcDbEntity
  8
ENGRAVE
100
AcDbLine
 10
65.76959443359375
 20
81.98309814453125
 30
0.0
 11
65.76959443359375
 21
84.53334443359375
 31
0.0
  0
LINE
  5
A3
330
17
100
AcDbEntity
  8
ENGRAVE
100
AcDbLine
 10
66.26224814453126
 20
81.98309814453125
 30
0.0
 11
65.76959443359375
 21
81.98309814453125
 31
0.0
  0
SPLINE
  5
A4
330
17
100
AcDbEntity
  8
ENGRAVE
100
AcDbSpline
 70
0
 71
2
 72
8
 73
5
 74
0
 40
0.0
 40
0.0
 40
0.0
 40
1.0
 40
1.0
 40
2.0
 40
2.0
 40
2.0
 10
66.98674814453125
 20
82.61580927734374
 30
0.0
 10
66.86599814453126
 20
82.23909443359376
 30
0.0
 10
66.72594072265623
 20
82.11109628906252
 30
0.0
 10
66.58588330078128
 20
81.98309814453125
 30
0.0
 10
66.26224814453124
 20
81.98309814453127
 30
0.0
  0
SPLINE
  5
A5
330
17
100
AcDbEntity
  8
ENGRAVE
100
AcDbSpline
 70
0
 71
3
 72
11
 73
7
 74
0
 40
0.0
 40
0.0
 40
0.0
 40
0.0
 40
1.0
 40
1.0
 40
1.0
 40
1.8147076552140597
 40
1.8147076552140597
 40
1.8147076552140597
 40
1.8147076552140597
 10
67.61949072265625
 20
82.61099814453125
 30
0.0
 10
67.58085491536458
 20
82.77843395182289
 30
0.0
 10
67.47459072265625
 20
82.86215185546877
 30
0.0
 10
67.30069814453125
 20
82.86215185546877
 30
0.0
 10
67.16053338950641
 20
82.85963605516238
 30
0.0
 10
67.04322644122277
 20
82.79865346306681
 30
0.0
 10
66.98674814453125
 20
82.61580927734374
 30
0.0
  0
LINE
  5
A6
330
17
100
AcDbEntity
  8
ENGRAVE
100
AcDbLine
 10
67.99623701171875
 20
81.04605927734374
 30
0.0
 11
67.61949072265625
 21
82.61099814453125
 31
0.0
  0
SPLINE
  5
A7
330
17
100
AcDbEntity
  8
ENGRAVE
100
AcDbSpline
 70
0
 71
2
 72
8
 73
5
 74
0
 40
0.0
 40
0.0
 40
0.0
 40
1.0
 40
1.0
 40
2.0
 40
2.0
 40
2.0
 10
67.82234443359376
 20
80.65484814453124
 30
0.0
 10
67.93828330078125
 20
80.70314814453124
 30
0.0
 10
67.9889888671875
 20
80.7925
 30
0.0
 10
68.03969443359375
 20
80.88185185546875
 30
0.0
 10
67.99623701171875
 20
81.04605927734374
 30
0.0
  0
SPLINE
  5
A8
330
17
100
AcDbEntity
  8
ENGRAVE
100
AcDbSpline
 70
0
 71
3
 72
8
 73
4
 74
0
 40
0.0
 40
0.0
 40
0.0
 40
0.0
 40
2.0
 40
2.0
 40
2.0
 40
2.0
 10
67.37799072265624
 20
80.81905556640625
 30
0.0
 10
67.50678744687455
 20
80.64418156263832
 30
0.0
 10
67.65493286562543
 20
80.59786537746581
 30
0.0
 10
67.82234443359374
 20
80.65484814453124
 30
0.0
  0
SPLINE
  5
A9
330
17
100
AcDbEntity
  8
ENGRAVE
100
AcDbSpline
 70
0
 71
2
 72
10
 73
7
 74
0
 40
0.0
 40
0.0
 40
0.0
 40
1.0
 40
1.0
 40
2.0
 40
2.0
 40
3.0
 40
3.0
 40
3.0
 10
66.38299814453124
 20
81.35035556640625
 30
0.0
 10
66.63899443359375
 20
81.35035556640626
 30
0.0
 10
66.803217578125
 20
81.30447685546875
 30
0.0
 10
66.96744072265625
 20
81.25859814453125
 30
0.0
 10
67.09543886718751
 20
81.14267499999998
 30
0.0
 10
67.22343701171874
 20
81.02675185546875
 30
0.0
 10
67.37799072265626
 20
80.81905556640623
 30
0.0
  0
LINE
  5
AA
330
17
100
AcDbEntity
  8
ENGRAVE
100
AcDbLine
 10
65.76959443359375
 20
81.35035556640625
 30
0.0
 11
66.38299814453124
 21
81.35035556640625
 31
0.0
  0
LINE
  5
AB
330
17
100
AcDbEntity
  8
ENGRAVE
100
AcDbLine
 10
65.76959443359375
 20
79.42800927734375
 30
0.0
 11
65.76959443359375
 21
81.35035556640625
 31
0.0
  0
SPLINE
  5
AC
330
17
100
AcDbEntity
  8
ENGRAVE
100
AcDbSpline
 70
0
 71
3
 72
8
 73
4
 74
0
 40
0.0
 40
0.0
 40
0.0
 40
0.0
 40
1.9999999999999165
 40
1.9999999999999165
 40
1.9999999999999165
 40
1.9999999999999165
 10
66.01593701171875
 20
79.12374443359374
 30
0.0
 10
65.8330928259957
 20
79.16084586622195
 30
0.0
 10
65.77211023390008
 20
79.27497945929889
 30
0.0
 10
65.76959443359375
 20
79.42800927734375
 30
0.0
  0
LINE
  5
AD
330
17
100
AcDbEntity
  8
ENGRAVE
100
AcDbLine
 10
66.32023330078125
 20
79.06094814453125
 30
0.0
 11
66.01593701171875
 21
79.12374443359374
 31
0.0
  0
SPLINE
  5
AE
330
17
100
AcDbEntity
  8
ENGRAVE
100
AcDbSpline
 70
0
 71
3
 72
11
 73
7
 74
0
 40
0.0
 40
0.0
 40
0.0
 40
0.0
 40
1.999999999999914
 40
1.999999999999914
 40
1.999999999999914
 40
4.137373737373528
 40
4.137373737373528
 40
4.137373737373528
 40
4.137373737373528
 10
66.20913701171874
 20
78.41855185546875
 30
0.0
 10
66.47415424465325
 20
78.41603933094403
 30
0.0
 10
66.59453462253421
 20
78.53857551280598
 30
0.0
 10
66.59553701171875
 20
78.72284814453126
 30
0.0
 10
66.59302448719404
 20
78.92447431821364
 30
0.0
 10
66.52236066905594
 20
79.02028004376554
 30
0.0
 10
66.32023330078125
 20
79.06094814453125
 30
0.0
  0
LINE
  5
AF
330
17
100
AcDbEntity
  8
ENGRAVE
100
AcDbLine
 10
63.25799443359375
 20
78.41855185546875
 30
0.0
 11
66.20913701171875
 21
78.41855185546875
 31
0.0
  0
SPLINE
  5
B0
330
17
100
AcDbEntity
  8
ENGRAVE
100
AcDbSpline
 70
0
 71
3
 72
11
 73
7
 74
0
 40
0.0
 40
0.0
 40
0.0
 40
0.0
 40
1.0
 40
1.0
 40
1.0
 40
2.1374952125622726
 40
2.1374952125622726
 40
2.1374952125622726
 40
2.1374952125622726
 10
63.10828330078125
 20
79.05610556640625
 30
0.0
 10
62.95049072265623
 20
78.99814137369786
 30
0.0
 10
62.87159443359376
 20
78.88705556640625
 30
0.0
 10
62.87159443359374
 20
78.72284814453126
 30
0.0
 10
62.87259682277831
 20
78.53857551280598
 30
0.0
 10
62.99297720065917
 20
78.41603933094402
 30
0.0
 10
63.25799443359375
 20
78.41855185546875
 30
0.0
  0
LINE
  5
B1
330
17
100
AcDbEntity
  8
ENGRAVE
100
AcDbLine
 10
63.29664072265625
 20
79.12374443359374
 30
0.0
 11
63.10828330078125
 21
79.05610556640625
 31
0.0
  0
SPLINE
  5
B2
330
17
100
AcDbEntity
  8
ENGRAVE
100
AcDbSpline
 70
0
 71
3
 72
8
 73
4
 74
0
 40
0.0
 40
0.0
 40
0.0
 40
0.0
 40
2.0
 40
2.0
 40
2.0
 40
2.0
 10
63.54298330078125
 20
79.42800927734373
 30
0.0
 10
63.54247883040731
 20
79.27195918861857
 30
0.0
 10
63.4646019638635
 20
79.18319452231891
 30
0.0
 10
63.29664072265625
 20
79.12374443359373
 30
0.0
  0
LINE
  5
B3
330
17
100
AcDbEntity
  8
ENGRAVE
100
AcDbLine
 10
63.54298330078125
 20
84.17109443359375
 30
0.0
 11
63.54298330078125
 21
79.42800927734375
 31
0.0
  0
SPLINE
  5
B4
330
17
100
AcDbEntity
  8
ENGRAVE
100
AcDbSpline
 70
0
 71
3
 72
8
 73
4
 74
0
 40
0.0
 40
0.0
 40
0.0
 40
0.0
 40
2.0
 40
2.0
 40
2.0
 40
2.0
 10
63.29664072265625
 20
84.47535927734377
 30
0.0
 10
63.46460196386348
 20
84.41590918861857
 30
0.0
 10
63.54247883040733
 20
84.32714452231886
 30
0.0
 10
63.54298330078125
 20
84.17109443359377
 30
0.0
  0
LINE
  5
B5
330
17
100
AcDbEntity
  8
ENGRAVE
100
AcDbLine
 10
63.10828330078125
 20
84.54299814453125
 30
0.0
 11
63.29664072265625
 21
84.47535927734376
 31
0.0
  0
SPLINE
  5
B6
330
17
100
AcDbEntity
  8
ENGRAVE
100
AcDbSpline
 70
0
 71
3
 72
11
 73
7
 74
0
 40
0.0
 40
0.0
 40
0.0
 40
0.0
 40
2.0
 40
2.0
 40
2.0
 40
3.758249158249103
 40
3.758249158249103
 40
3.758249158249103
 40
3.758249158249103
 10
63.257994433593744
 20
85.18055185546875
 30
0.0
 10
62.99297720065916
 20
85.18306437999345
 30
0.0
 10
62.87259682277832
 20
85.06052819813151
 30
0.0
 10
62.87159443359375
 20
84.87625556640624
 30
0.0
 10
62.871594433593714
 20
84.71204814453121
 30
0.0
 10
62.95049072265626
 20
84.6009623372396
 30
0.0
 10
63.10828330078126
 20
84.54299814453127
 30
0.0
  0
LINE
  5
B7
330
17
100
AcDbEntity
  8
ENGRAVE
100
AcDbLine
 10
71.42553701171876
 20
79.37489814453124
 30
0.0
 11
71.42553701171876
 21
85.30614443359374
 31
0.0
  0
SPLINE
  5
B8
330
17
100
AcDbEntity
  8
ENGRAVE
100
AcDbSpline
 70
0
 71
2
 72
8
 73
5
 74
0
 40
0.0
 40
0.0
 40
0.0
 40
1.0
 40
1.0
 40
1.9999999999999394
 40
1.9999999999999394
 40
1.9999999999999394
 10
71.55594072265626
 20
79.00780556640625
 30
0.0
 10
71.48349072265626
 20
79.03679814453126
 30
0.0
 10
71.45451386718752
 20
79.11407499999999
 30
0.0
 10
71.42553701171875
 20
79.19135185546877
 30
0.0
 10
71.42553701171877
 20
79.37489814453124
 30
0.0
  0
LINE
  5
B9
330
17
100
AcDbEntity
  8
ENGRAVE
100
AcDbLine
 10
71.66703701171875
 20
78.95950556640625
 30
0.0
 11
71.55594072265626
 21
79.00780556640625
 31
0.0
  0
SPLINE
  5
BA
330
17
100
AcDbEntity
  8
ENGRAVE
100
AcDbSpline
 70
0
 71
3
 72
11
 73
7
 74
0
 40
0.0
 40
0.0
 40
0.0
 40
0.0
 40
2.0
 40
2.0
 40
2.0
 40
3.4611917876815146
 40
3.4611917876815146
 40
3.4611917876815146
 40
3.4611917876815146
 10
71.52213701171875
 20
78.41855185546873
 30
0.0
 10
71.76191876164218
 20
78.4165405255363
 30
0.0
 10
71.86353800919112
 20
78.52359899269284
 30
0.0
 10
71.86504814453126
 20
78.68904443359375
 30
0.0
 10
71.86353800919113
 20
78.81138438697874
 30
0.0
 10
71.81021876164228
 20
78.90156561302123
 30
0.0
 10
71.66703701171875
 20
78.95950556640625
 30
0.0
  0
LINE
  5
BB
330
17
100
AcDbEntity
  8
ENGRAVE
100
AcDbLine
 10
69.30514814453126
 20
78.41855185546875
 30
0.0
 11
71.52213701171875
 21
78.41855185546875
 31
0.0
  0
SPLINE
  5
BC
330
17
100
AcDbEntity
  8
ENGRAVE
100
AcDbSpline
 70
0
 71
3
 72
11
 73
7
 74
0
 40
0.0
 40
0.0
 40
0.0
 40
0.0
 40
2.000000000000144
 40
2.000000000000144
 40
2.000000000000144
 40
4.73749143248836
 40
4.73749143248836
 40
4.73749143248836
 40
4.73749143248836
 10
69.16024814453125
 20
78.95950556640625
 30
0.0
 10
69.01706639460774
 20
78.90156561302118
 30
0.0
 10
68.96374714705888
 20
78.81138438697876
 30
0.0
 10
68.96223701171876
 20
78.68904443359374
 30
0.0
 10
68.96374714705887
 20
78.52359899269281
 30
0.0
 10
69.0653663946078
 20
78.41654052553633
 30
0.0
 10
69.30514814453126
 20
78.41855185546873
 30
0.0
  0
LINE
  5
BD
330
17
100
AcDbEntity
  8
ENGRAVE
100
AcDbLine
 10
69.27134443359375
 20
79.00780556640625
 30
0.0
 11
69.16024814453125
 21
78.95950556640625
 31
0.0
  0
SPLINE
  5
BE
330
17
100
AcDbEntity
  8
ENGRAVE
100
AcDbSpline
 70
0
 71
2
 72
8
 73
5
 74
0
 40
0.0
 40
0.0
 40
0.0
 40
1.0
 40
1.0
 40
1.9999999999999394
 40
1.9999999999999394
 40
1.9999999999999394
 10
69.40174814453125
 20
79.37489814453124
 30
0.0
 10
69.40174814453127
 20
79.19135185546877
 30
0.0
 10
69.3727712890625
 20
79.11407499999999
 30
0.0
 10
69.34379443359374
 20
79.03679814453128
 30
0.0
 10
69.27134443359375
 20
79.00780556640625
 30
0.0
  0
LINE
  5
BF
330
17
100
AcDbEntity
  8
ENGRAVE
100
AcDbLine
 10
69.40174814453125
 20
84.25800927734375
 30
0.0
 11
69.40174814453125
 21
79.37489814453124
 31
0.0
  0
SPLINE
  5
C0
330
17
100
AcDbEntity
  8
ENGRAVE
100
AcDbSpline
 70
0
 71
2
 72
8
 73
5
 74
0
 40
0.0
 40
0.0
 40
0.0
 40
1.0
 40
1.0
 40
2.000000000000274
 40
2.000000000000274
 40
2.000000000000274
 10
69.24235185546875
 20
84.55265185546877
 30
0.0
 10
69.32448701171876
 20
84.52850185546878
 30
0.0
 10
69.363117578125
 20
84.46812685546874
 30
0.0
 10
69.40174814453124
 20
84.40775185546875
 30
0.0
 10
69.40174814453125
 20
84.25800927734373
 30
0.0
  0
LINE
  5
C1
330
17
100
AcDbEntity
  8
ENGRAVE
100
AcDbLine
 10
69.13128701171875
 20
84.58164443359375
 30
0.0
 11
69.24235185546875
 21
84.55265185546875
 31
0.0
  0
SPLINE
  5
C2
330
17
100
AcDbEntity
  8
ENGRAVE
100
AcDbSpline
 70
0
 71
3
 72
14
 73
10
 74
0
 40
0.0
 40
0.0
 40
0.0
 40
0.0
 40
1.0
 40
1.0
 40
1.0
 40
1.9999999999999907
 40
1.9999999999999907
 40
1.9999999999999907
 40
3.7277300976621928
 40
3.7277300976621928
 40
3.7277300976621928
 40
3.7277300976621928
 10
69.22788701171875
 20
85.11775556640626
 30
0.0
 10
69.11839443359378
 20
85.07589137369789
 30
0.0
 10
69.04433024088542
 20
85.03403242187501
 30
0.0
 10
69.00569443359376
 20
84.9921787109375
 30
0.0
 10
68.96705862630208
 20
84.95032499999995
 30
0.0
 10
68.94774072265623
 20
84.89398024088548
 30
0.0
 10
68.94774072265623
 20
84.82314443359371
 30
0.0
 10
68.94874638762244
 20
84.69975033659587
 30
0.0
 10
69.00148134675254
 20
84.62772498892498
 30
0.0
 10
69.13128701171877
 20
84.58164443359375
 30
0.0
  0
LINE
  5
C3
330
17
100
AcDbEntity
  8
ENGRAVE
100
AcDbLine
 10
70.35809443359375
 20
85.54280185546875
 30
0.0
 11
69.22788701171875
 21
85.11775556640625
 31
0.0
  0
SPLINE
  5
C4
330
17
100
AcDbEntity
  8
ENGRAVE
100
AcDbSpline
 70
0
 71
2
 72
12
 73
9
 74
0
 40
0.0
 40
0.0
 40
0.0
 40
1.0
 40
1.0
 40
2.0
 40
2.0
 40
2.489004629629619
 40
2.489004629629619
 40
2.978009259259238
 40
2.978009259259238
 40
2.978009259259238
 10
71.42553701171876
 20
85.30614443359374
 30
0.0
 10
71.42553701171877
 20
85.48000556640626
 30
0.0
 10
71.31686201171875
 20
85.5959287109375
 30
0.0
 10
71.20818701171875
 20
85.71185185546878
 30
0.0
 10
70.99083701171875
 20
85.71185185546874
 30
0.0
 10
70.88455185546877
 20
85.71185185546874
 30
0.0
 10
70.74449443359376
 20
85.67320556640627
 30
0.0
 10
70.60443701171876
 20
85.63455927734375
 30
0.0
 10
70.35809443359375
 20
85.54280185546877
 30
0.0
  0
LINE
  5
C5
330
17
100
AcDbEntity
  8
ENGRAVE
100
AcDbLine
 10
72.65715556640626
 20
81.73675556640625
 30
0.0
 11
72.65715556640626
 21
79.79994443359375
 31
0.0
  0
SPLINE
  5
C6
330
17
100
AcDbEntity
  8
ENGRAVE
100
AcDbSpline
 70
0
 71
2
 72
8
 73
5
 74
0
 40
0.0
 40
0.0
 40
0.0
 40
1.0
 40
1.0
 40
1.9999999999998357
 40
1.9999999999998357
 40
1.9999999999998357
 10
72.49775927734376
 20
82.02655556640624
 30
0.0
 10
72.57989443359375
 20
82.00724814453126
 30
0.0
 10
72.618525
 20
81.94445185546874
 30
0.0
 10
72.65715556640626
 20
81.88165556640624
 30
0.0
 10
72.65715556640626
 20
81.73675556640625
 30
0.0
  0
LINE
  5
C7
330
17
100
AcDbEntity
  8
ENGRAVE
100
AcDbLine
 10
72.38669443359376
 20
82.06035927734375
 30
0.0
 11
72.49775927734376
 21
82.02655556640624
 31
0.0
  0
SPLINE
  5
C8
330
17
100
AcDbEntity
  8
ENGRAVE
100
AcDbSpline
 70
0
 71
3
 72
14
 73
10
 74
0
 40
0.0
 40
0.0
 40
0.0
 40
0.0
 40
1.0
 40
1.0
 40
1.0
 40
1.9999999999998779
 40
1.9999999999998779
 40
1.9999999999998779
 40
3.5652420039621036
 40
3.5652420039621036
 40
3.5652420039621036
 40
3.5652420039621036
 10
72.48329443359376
 20
82.59650185546874
 30
0.0
 10
72.37380185546871
 20
82.55463766276038
 30
0.0
 10
72.29973766276044
 20
82.51277871093748
 30
0.0
 10
72.26110185546874
 20
82.470925
 30
0.0
 10
72.22246604817704
 20
82.42907128906246
 30
0.0
 10
72.20314814453126
 20
82.3711123372396
 30
0.0
 10
72.20314814453126
 20
82.29704814453126
 30
0.0
 10
72.2041538094975
 20
82.18162095370687
 30
0.0
 10
72.2568887686275
 20
82.09851485358482
 30
0.0
 10
72.38669443359376
 20
82.06035927734375
 30
0.0
  0
LINE
  5
C9
330
17
100
AcDbEntity
  8
ENGRAVE
100
AcDbLine
 10
73.61350185546875
 20
83.01670556640624
 30
0.0
 11
72.48329443359376
 21
82.59650185546874
 31
0.0
  0
SPLINE
  5
CA
330
17
100
AcDbEntity
  8
ENGRAVE
100
AcDbSpline
 70
0
 71
2
 72
12
 73
9
 74
0
 40
0.0
 40
0.0
 40
0.0
 40
1.0
 40
1.0
 40
2.0000000000000613
 40
2.0000000000000613
 40
2.4890046296297754
 40
2.4890046296297754
 40
2.9780092592594896
 40
2.9780092592594896
 40
2.9780092592594896
 10
74.68094443359375
 20
82.78485927734374
 30
0.0
 10
74.68094443359374
 20
82.95875185546873
 30
0.0
 10
74.57226943359376
 20
83.074675
 30
0.0
 10
74.46359443359378
 20
83.19059814453126
 30
0.0
 10
74.24624443359374
 20
83.19059814453125
 30
0.0
 10
74.13995927734376
 20
83.19059814453125
 30
0.0
 10
73.99990185546875
 20
83.15195185546875
 30
0.0
 10
73.85984443359374
 20
83.11330556640625
 30
0.0
 10
73.61350185546875
 20
83.01670556640624
 30
0.0
  0
LINE
  5
CB
330
17
100
AcDbEntity
  8
ENGRAVE
100
AcDbLine
 10
74.68094443359375
 20
80.08005927734375
 30
0.0
 11
74.68094443359375
 21
82.78485927734374
 31
0.0
  0
SPLINE
  5
CC
330
17
100
AcDbEntity
  8
ENGRAVE
100
AcDbSpline
 70
0
 71
2
 72
10
 73
7
 74
0
 40
0.0
 40
0.0
 40
0.0
 40
1.0
 40
1.0
 40
2.656358087487427
 40
2.656358087487427
 40
4.312716174974854
 40
4.312716174974854
 40
4.312716174974854
 10
75.54550185546876
 20
79.52945185546875
 30
0.0
 10
75.37160927734375
 20
79.46665556640625
 30
0.0
 10
75.21705556640626
 20
79.46665556640623
 30
0.0
 10
74.96105927734376
 20
79.46665556640625
 30
0.0
 10
74.82100185546875
 20
79.621225
 30
0.0
 10
74.68094443359374
 20
79.77579443359375
 30
0.0
 10
74.68094443359375
 20
80.08005927734375
 30
0.0
  0
SPLINE
  5
CD
330
17
100
AcDbEntity
  8
ENGRAVE
100
AcDbSpline
 70
0
 71
2
 72
6
 73
3
 74
0
 40
0.0
 40
0.0
 40
0.0
 40
1.0
 40
1.0
 40
1.0
 10
75.54550185546876
 20
79.52945185546875
 30
0.0
 10
75.65175556640625
 20
79.56809814453125
 30
0.0
 10
75.74835556640626
 20
79.63570556640624
 30
0.0
  0
LINE
  5
CE
330
17
100
AcDbEntity
  8
ENGRAVE
100
AcDbLine
 10
75.74835556640626
 20
81.73675556640625
 30
0.0
 11
75.74835556640626
 21
79.63570556640624
 31
0.0
  0
SPLINE
  5
CF
330
17
100
AcDbEntity
  8
ENGRAVE
100
AcDbSpline
 70
0
 71
2
 72
8
 73
5
 74
0
 40
0.0
 40
0.0
 40
0.0
 40
1.0
 40
1.0
 40
1.9999999999998357
 40
1.9999999999998357
 40
1.9999999999998357
 10
75.59380185546875
 20
82.02655556640624
 30
0.0
 10
75.67109443359375
 20
82.00724814453126
 30
0.0
 10
75.70972500000002
 20
81.94445185546874
 30
0.0
 10
75.74835556640622
 20
81.88165556640624
 30
0.0
 10
75.74835556640626
 20
81.73675556640625
 30
0.0
  0
LINE
  5
D0
330
17
100
AcDbEntity
  8
ENGRAVE
100
AcDbLine
 10
75.47789443359376
 20
82.06035927734375
 30
0.0
 11
75.59380185546875
 21
82.02655556640624
 31
0.0
  0
SPLINE
  5
D1
330
17
100
AcDbEntity
  8
ENGRAVE
100
AcDbSpline
 70
0
 71
3
 72
14
 73
10
 74
0
 40
0.0
 40
0.0
 40
0.0
 40
0.0
 40
1.0
 40
1.0
 40
1.0
 40
1.9999999999997693
 40
1.9999999999997693
 40
1.9999999999997693
 40
3.565242003961825
 40
3.565242003961825
 40
3.565242003961825
 40
3.565242003961825
 10
75.57449443359376
 20
82.59650185546874
 30
0.0
 10
75.4682302408854
 20
82.55463766276038
 30
0.0
 10
75.39497314453124
 20
82.51277871093747
 30
0.0
 10
75.35472314453125
 20
82.47092500000001
 30
0.0
 10
75.31447314453123
 20
82.42907128906246
 30
0.0
 10
75.29434814453127
 20
82.37111233723958
 30
0.0
 10
75.29434814453126
 20
82.29704814453125
 30
0.0
 10
75.29535380949744
 20
82.18162095370687
 30
0.0
 10
75.3480887686275
 20
82.09851485358482
 30
0.0
 10
75.47789443359376
 20
82.06035927734375
 30
0.0
  0
LINE
  5
D2
330
17
100
AcDbEntity
  8
ENGRAVE
100
AcDbLine
 10
76.70954443359375
 20
83.01670556640624
 30
0.0
 11
75.57449443359376
 21
82.59650185546874
 31
0.0
  0
SPLINE
  5
D3
330
17
100
AcDbEntity
  8
ENGRAVE
100
AcDbSpline
 70
0
 71
2
 72
12
 73
9
 74
0
 40
0.0
 40
0.0
 40
0.0
 40
1.0
 40
1.0
 40
2.000000000000061
 40
2.000000000000061
 40
2.690590606107675
 40
2.690590606107675
 40
3.3811812122153535
 40
3.3811812122153535
 40
3.3811812122153535
 10
77.77214443359375
 20
82.78485927734374
 30
0.0
 10
77.77214443359375
 20
82.95875185546873
 30
0.0
 10
77.66829628906251
 20
83.074675
 30
0.0
 10
77.56444814453127
 20
83.19059814453126
 30
0.0
 10
77.36159443359375
 20
83.19059814453125
 30
0.0
 10
77.22150556640625
 20
83.19059814453125
 30
0.0
 10
77.08143242187501
 20
83.1495462890625
 30
0.0
 10
76.94135927734374
 20
83.10849443359375
 30
0.0
 10
76.70954443359375
 20
83.01670556640624
 30
0.0
  0
LINE
  5
D4
330
17
100
AcDbEntity
  8
ENGRAVE
100
AcDbLine
 10
77.77214443359375
 20
79.37489814453124
 30
0.0
 11
77.77214443359375
 21
82.78485927734374
 31
0.0
  0
SPLINE
  5
D5
330
17
100
AcDbEntity
  8
ENGRAVE
100
AcDbSpline
 70
0
 71
2
 72
8
 73
5
 74
0
 40
0.0
 40
0.0
 40
0.0
 40
1.0
 40
1.0
 40
2.0
 40
2.0
 40
2.0
 10
77.90254814453124
 20
79.00780556640625
 30
0.0
 10
77.83009814453126
 20
79.03679814453125
 30
0.0
 10
77.80112128906251
 20
79.11407500000001
 30
0.0
 10
77.77214443359377
 20
79.19135185546875
 30
0.0
 10
77.77214443359375
 20
79.37489814453126
 30
0.0
  0
LINE
  5
D6
330
17
100
AcDbEntity
  8
ENGRAVE
100
AcDbLine
 10
78.01364443359375
 20
78.95950556640625
 30
0.0
 11
77.90254814453125
 21
79.00780556640625
 31
0.0
  0
SPLINE
  5
D7
330
17
100
AcDbEntity
  8
ENGRAVE
100
AcDbSpline
 70
0
 71
3
 72
11
 73
7
 74
0
 40
0.0
 40
0.0
 40
0.0
 40
0.0
 40
1.9999999999999027
 40
1.9999999999999027
 40
1.9999999999999027
 40
3.4611917876812752
 40
3.4611917876812752
 40
3.4611917876812752
 40
3.4611917876812752
 10
77.86874443359375
 20
78.41855185546873
 30
0.0
 10
78.10852618351714
 20
78.4165405255363
 30
0.0
 10
78.21014543106617
 20
78.52359899269284
 30
0.0
 10
78.21165556640625
 20
78.68904443359375
 30
0.0
 10
78.21014543106604
 20
78.81138438697872
 30
0.0
 10
78.15682618351728
 20
78.90156561302128
 30
0.0
 10
78.01364443359375
 20
78.95950556640625
 30
0.0
  0
LINE
  5
D8
330
17
100
AcDbEntity
  8
ENGRAVE
100
AcDbLine
 10
76.62740927734376
 20
78.41855185546875
 30
0.0
 11
77.86874443359376
 21
78.41855185546875
 31
0.0
  0
SPLINE
  5
D9
330
17
100
AcDbEntity
  8
ENGRAVE
100
AcDbSpline
 70
0
 71
2
 72
6
 73
3
 74
0
 40
0.0
 40
0.0
 40
0.0
 40
1.0
 40
1.0
 40
1.0
 10
76.62740927734376
 20
78.41855185546875
 30
0.0
 10
76.30380556640625
 20
78.41855185546875
 30
0.0
 10
76.06230556640625
 20
78.69385556640624
 30
0.0
  0
SPLINE
  5
DA
330
17
100
AcDbEntity
  8
ENGRAVE
100
AcDbSpline
 70
0
 71
2
 72
6
 73
3
 74
0
 40
0.0
 40
0.0
 40
0.0
 40
1.0
 40
1.0
 40
1.0
 10
76.06230556640625
 20
78.69385556640624
 30
0.0
 10
75.87875927734376
 20
78.89189814453125
 30
0.0
 10
75.83530185546876
 20
79.14789443359375
 30
0.0
  0
SPLINE
  5
DB
330
17
100
AcDbEntity
  8
ENGRAVE
100
AcDbSpline
 70
0
 71
2
 72
6
 73
3
 74
0
 40
0.0
 40
0.0
 40
0.0
 40
1.0
 40
1.0
 40
1.0
 10
75.83530185546876
 20
79.14789443359375
 30
0.0
 10
75.35230185546875
 20
78.73250185546875
 30
0.0
 10
74.97555556640626
 20
78.54414443359374
 30
0.0
  0
SPLINE
  5
DC
330
17
100
AcDbEntity
  8
ENGRAVE
100
AcDbSpline
 70
0
 71
2
 72
10
 73
7
 74
0
 40
0.0
 40
0.0
 40
0.0
 40
1.0
 40
1.0
 40
2.0000000000000173
 40
2.0000000000000173
 40
2.661508413461581
 40
2.661508413461581
 40
2.661508413461581
 10
72.65715556640626
 20
79.79994443359375
 30
0.0
 10
72.65715556640626
 20
79.11890185546875
 30
0.0
 10
73.04597685546875
 20
78.703525
 30
0.0
 10
73.43479814453124
 20
78.28814814453122
 30
0.0
 10
74.06269814453125
 20
78.28814814453125
 30
0.0
 10
74.47805927734376
 20
78.28814814453125
 30
0.0
 10
74.97555556640626
 20
78.54414443359374
 30
0.0
  0
LINE
  5
DD
330
17
100
AcDbEntity
  8
ENGRAVE
100
AcDbLine
 10
82.07081298828126
 20
81.38900185546875
 30
0.0
 11
81.53951298828126
 21
82.15214814453125
 31
0.0
  0
LINE
  5
DE
330
17
100
AcDbEntity
  8
ENGRAVE
100
AcDbLine
 10
82.40410185546875
 20
81.84300927734375
 30
0.0
 11
82.07081298828126
 21
81.38900185546875
 31
0.0
  0
SPLINE
  5
DF
330
17
100
AcDbEntity
  8
ENGRAVE
100
AcDbSpline
 70
0
 71
2
 72
8
 73
5
 74
0
 40
0.0
 40
0.0
 40
0.0
 40
1.0
 40
1.0
 40
1.9999999999999862
 40
1.9999999999999862
 40
1.9999999999999862
 10
82.35580185546877
 20
82.48059443359375
 30
0.0
 10
82.51519814453124
 20
82.41295556640627
 30
0.0
 10
82.544175
 20
82.2415
 30
0.0
 10
82.57315185546878
 20
82.07004443359376
 30
0.0
 10
82.40410185546875
 20
81.84300927734375
 30
0.0
  0
LINE
  5
E0
330
17
100
AcDbEntity
  8
ENGRAVE
100
AcDbLine
 10
82.26401298828125
 20
82.51920927734375
 30
0.0
 11
82.35580185546875
 21
82.48059443359375
 31
0.0
  0
SPLINE
  5
E1
330
17
100
AcDbEntity
  8
ENGRAVE
100
AcDbSpline
 70
0
 71
3
 72
14
 73
10
 74
0
 40
0.0
 40
0.0
 40
0.0
 40
0.0
 40
1.0
 40
1.0
 40
1.0
 40
2.0000000000000955
 40
2.0000000000000955
 40
2.0000000000000955
 40
3.3334940921150387
 40
3.3334940921150387
 40
3.3334940921150387
 40
3.3334940921150387
 10
82.41375556640625
 20
83.05050927734375
 30
0.0
 10
82.31392718098955
 20
83.05050927734374
 30
0.0
 10
82.2334271809896
 20
83.02635927734374
 30
0.0
 10
82.17225556640625
 20
82.97805927734376
 30
0.0
 10
82.111083951823
 20
82.9297592773438
 30
0.0
 10
82.08049814453119
 20
82.86214137369785
 30
0.0
 10
82.0804981445313
 20
82.77520556640629
 30
0.0
 10
82.08049814453125
 20
82.65776704564941
 30
0.0
 10
82.14166975911462
 20
82.5851194126839
 30
0.0
 10
82.26401298828124
 20
82.51920927734373
 30
0.0
  0
LINE
  5
E2
330
17
100
AcDbEntity
  8
ENGRAVE
100
AcDbLine
 10
83.73716298828126
 20
83.05050927734375
 30
0.0
 11
82.41375556640625
 21
83.05050927734375
 31
0.0
  0
SPLINE
  5
E3
330
17
100
AcDbEntity
  8
ENGRAVE
100
AcDbSpline
 70
0
 71
3
 72
14
 73
10
 74
0
 40
0.0
 40
0.0
 40
0.0
 40
0.0
 40
1.0
 40
1.0
 40
1.0
 40
2.0000000000002416
 40
2.0000000000002416
 40
2.0000000000002416
 40
4.842357779302069
 40
4.842357779302069
 40
4.842357779302069
 40
4.842357779302069
 10
83.84344814453127
 20
82.48059443359374
 30
0.0
 10
83.92715556640621
 20
82.52889443359373
 30
0.0
 10
83.98591637369793
 20
82.57477838541666
 30
0.0
 10
84.01973056640624
 20
82.6182462890625
 30
0.0
 10
84.05354475911454
 20
82.66171419270827
 30
0.0
 10
84.0704518554688
 20
82.71403395182293
 30
0.0
 10
84.07045185546876
 20
82.77520556640624
 30
0.0
 10
84.07196199080892
 20
82.9475670456494
 30
0.0
 10
83.94818123835778
 20
83.05201941268392
 30
0.0
 10
83.73716298828124
 20
83.05050927734374
 30
0.0
  0
SPLINE
  5
E4
330
17
100
AcDbEntity
  8
ENGRAVE
100
AcDbSpline
 70
0
 71
2
 72
8
 73
5
 74
0
 40
0.0
 40
0.0
 40
0.0
 40
1.0
 40
1.0
 40
2.0000000000000355
 40
2.0000000000000355
 40
2.0000000000000355
 10
82.91125185546878
 20
81.59185556640625
 30
0.0
 10
83.22035927734376
 20
81.97825556640626
 30
0.0
 10
83.4063111328125
 20
82.17628242187499
 30
0.0
 10
83.59226298828126
 20
82.37430927734377
 30
0.0
 10
83.84344814453127
 20
82.48059443359375
 30
0.0
  0
LINE
  5
E5
330
17
100
AcDbEntity
  8
ENGRAVE
100
AcDbLine
 10
82.40891298828126
 20
80.92049814453125
 30
0.0
 11
82.91125185546876
 21
81.59185556640625
 31
0.0
  0
LINE
  5
E6
330
17
100
AcDbEntity
  8
ENGRAVE
100
AcDbLine
 10
83.52465556640625
 20
79.40870185546875
 30
0.0
 11
82.40891298828126
 21
80.92049814453125
 31
0.0
  0
SPLINE
  5
E7
330
17
100
AcDbEntity
  8
ENGRAVE
100
AcDbSpline
 70
0
 71
2
 72
8
 73
5
 74
0
 40
0.0
 40
0.0
 40
0.0
 40
1.0
 40
1.0
 40
2.0
 40
2.0
 40
2.0
 10
83.94004814453126
 20
78.96915927734375
 30
0.0
 10
83.85791298828124
 20
79.02230185546875
 30
0.0
 10
83.76615556640625
 20
79.11890185546876
 30
0.0
 10
83.67439814453124
 20
79.21550185546873
 30
0.0
 10
83.52465556640625
 20
79.40870185546876
 30
0.0
  0
SPLINE
  5
E8
330
17
100
AcDbEntity
  8
ENGRAVE
100
AcDbSpline
 70
0
 71
3
 72
11
 73
7
 74
0
 40
0.0
 40
0.0
 40
0.0
 40
0.0
 40
2.0
 40
2.0
 40
2.0
 40
3.462058602554499
 40
3.462058602554499
 40
3.462058602554499
 40
3.462058602554499
 10
83.79030556640626
 20
78.41855185546875
 30
0.0
 10
84.00082262189044
 20
78.41603277938069
 30
0.0
 10
84.13041689633872
 20
78.5289597987443
 30
0.0
 10
84.12840556640626
 20
78.69385556640623
 30
0.0
 10
84.12790109603228
 20
78.81875979874422
 30
0.0
 10
84.06935261490524
 20
78.88936858667243
 30
0.0
 10
83.94004814453125
 20
78.96915927734373
 30
0.0
  0
LINE
  5
E9
330
17
100
AcDbEntity
  8
ENGRAVE
100
AcDbLine
 10
81.23524814453125
 20
78.41855185546875
 30
0.0
 11
83.79030556640626
 21
78.41855185546875
 31
0.0
  0
SPLINE
  5
EA
330
17
100
AcDbEntity
  8
ENGRAVE
100
AcDbSpline
 70
0
 71
3
 72
11
 73
7
 74
0
 40
0.0
 40
0.0
 40
0.0
 40
0.0
 40
2.0000000000000475
 40
2.0000000000000475
 40
2.0000000000000475
 40
4.842357779301151
 40
4.842357779301151
 40
4.842357779301151
 40
4.842357779301151
 10
81.04685927734376
 20
78.93535556640626
 30
0.0
 10
80.9443521797493
 20
78.89624280384558
 30
0.0
 10
80.8869552421257
 20
78.82153929250856
 30
0.0
 10
80.88746298828124
 20
78.69869814453125
 30
0.0
 10
80.88545165834891
 20
78.52684113566205
 30
0.0
 10
81.01827431821361
 20
78.41653724975463
 30
0.0
 10
81.23524814453125
 20
78.41855185546876
 30
0.0
  0
LINE
  5
EB
330
17
100
AcDbEntity
  8
ENGRAVE
100
AcDbLine
 10
81.16279814453125
 20
78.97400185546874
 30
0.0
 11
81.04685927734376
 21
78.93535556640624
 31
0.0
  0
SPLINE
  5
EC
330
17
100
AcDbEntity
  8
ENGRAVE
100
AcDbSpline
 70
0
 71
3
 72
8
 73
4
 74
0
 40
0.0
 40
0.0
 40
0.0
 40
0.0
 40
1.9999999999998321
 40
1.9999999999998321
 40
1.9999999999998321
 40
1.9999999999998321
 10
81.16760927734376
 20
79.32659814453125
 30
0.0
 10
81.30978208651933
 20
79.12442229760984
 30
0.0
 10
81.30396856452228
 20
79.02804931697348
 30
0.0
 10
81.16279814453125
 20
78.97400185546874
 30
0.0
  0
LINE
  5
ED
330
17
100
AcDbEntity
  8
ENGRAVE
100
AcDbLine
 10
80.61215927734376
 20
80.13320185546876
 30
0.0
 11
81.16760927734376
 21
79.32659814453125
 31
0.0
  0
LINE
  5
EE
330
17
100
AcDbEntity
  8
ENGRAVE
100
AcDbLine
 10
80.23541298828125
 20
79.62120927734375
 30
0.0
 11
80.61215927734376
 21
80.13320185546876
 31
0.0
  0
SPLINE
  5
EF
330
17
100
AcDbEntity
  8
ENGRAVE
100
AcDbSpline
 70
0
 71
2
 72
8
 73
5
 74
0
 40
0.0
 40
0.0
 40
0.0
 40
1.0
 40
1.0
 40
1.9999999999998996
 40
1.9999999999998996
 40
1.9999999999998996
 10
80.28371298828125
 20
78.99815185546875
 30
0.0
 10
80.12915927734376
 20
79.07060185546875
 30
0.0
 10
80.10018242187502
 20
79.23240371093752
 30
0.0
 10
80.07120556640626
 20
79.39420556640624
 30
0.0
 10
80.23541298828125
 20
79.62120927734377
 30
0.0
  0
LINE
  5
F0
330
17
100
AcDbEntity
  8
ENGRAVE
100
AcDbLine
 10
80.38031298828126
 20
78.94985185546875
 30
0.0
 11
80.28371298828125
 21
78.99815185546875
 31
0.0
  0
SPLINE
  5
F1
330
17
100
AcDbEntity
  8
ENGRAVE
100
AcDbSpline
 70
0
 71
3
 72
14
 73
10
 74
0
 40
0.0
 40
0.0
 40
0.0
 40
0.0
 40
1.0
 40
1.0
 40
1.0
 40
2.0
 40
2.0
 40
2.0
 40
3.4611917876814227
 40
3.4611917876814227
 40
3.4611917876814227
 40
3.4611917876814227
 10
80.23060185546875
 20
78.42339443359374
 30
0.0
 10
80.33363766276042
 20
78.42339443359371
 30
0.0
 10
80.41493951822916
 20
78.44834628906251
 30
0.0
 10
80.474507421875
 20
78.49825
 30
0.0
 10
80.53407532552082
 20
78.54815371093748
 30
0.0
 10
80.56385927734378
 20
78.61496975911462
 30
0.0
 10
80.56385927734375
 20
78.69869814453125
 30
0.0
 10
80.56385600156212
 20
78.82304942784869
 30
0.0
 10
80.50270142031292
 20
78.88990057215129
 30
0.0
 10
80.38031298828126
 20
78.94985185546875
 30
0.0
  0
LINE
  5
F2
330
17
100
AcDbEntity
  8
ENGRAVE
100
AcDbLine
 10
78.90235185546875
 20
78.42339443359374
 30
0.0
 11
80.23060185546876
 21
78.42339443359374
 31
0.0
  0
SPLINE
  5
F3
330
17
100
AcDbEntity
  8
ENGRAVE
100
AcDbSpline
 70
0
 71
2
 72
12
 73
9
 74
0
 40
0.0
 40
0.0
 40
0.0
 40
1.0
 40
1.0
 40
1.99999999999997
 40
1.99999999999997
 40
3.368745716243841
 40
3.368745716243841
 40
4.737491432487712
 40
4.737491432487712
 40
4.737491432487712
 10
78.80090927734375
 20
78.99330927734376
 30
0.0
 10
78.67534814453126
 20
78.92085927734375
 30
0.0
 10
78.62462685546878
 20
78.85565742187501
 30
0.0
 10
78.57390556640624
 20
78.79045556640624
 30
0.0
 10
78.57390556640625
 20
78.69869814453125
 30
0.0
 10
78.57390556640627
 20
78.57310556640628
 30
0.0
 10
78.663257421875
 20
78.49825
 30
0.0
 10
78.75260927734374
 20
78.42339443359374
 30
0.0
 10
78.90235185546875
 20
78.42339443359374
 30
0.0
  0
SPLINE
  5
F4
330
17
100
AcDbEntity
  8
ENGRAVE
100
AcDbSpline
 70
0
 71
2
 72
10
 73
7
 74
0
 40
0.0
 40
0.0
 40
0.0
 40
1.0
 40
1.0
 40
2.0000000000000417
 40
2.0000000000000417
 40
3.0000000000000835
 40
3.0000000000000835
 40
3.0000000000000835
 10
79.72826298828126
 20
79.87239443359375
 30
0.0
 10
79.52540927734375
 20
79.61639814453127
 30
0.0
 10
79.38050927734376
 20
79.44734814453125
 30
0.0
 10
79.23560927734377
 20
79.27829814453123
 30
0.0
 10
79.10278427734376
 20
79.1720287109375
 30
0.0
 10
78.96995927734378
 20
79.06575927734377
 30
0.0
 10
78.80090927734376
 20
78.99330927734376
 30
0.0
  0
LINE
  5
F5
330
17
100
AcDbEntity
  8
ENGRAVE
100
AcDbLine
 10
80.27890185546876
 20
80.60170556640625
 30
0.0
 11
79.72826298828126
 21
79.87239443359375
 31
0.0
  0
LINE
  5
F6
330
17
100
AcDbEntity
  8
ENGRAVE
100
AcDbLine
 10
79.24526298828125
 20
82.11350185546875
 30
0.0
 11
80.27890185546876
 21
80.60170556640625
 31
0.0
  0
SPLINE
  5
F7
330
17
100
AcDbEntity
  8
ENGRAVE
100
AcDbSpline
 70
0
 71
2
 72
8
 73
5
 74
0
 40
0.0
 40
0.0
 40
0.0
 40
1.0
 40
1.0
 40
2.000000000000024
 40
2.000000000000024
 40
2.000000000000024
 10
78.82024814453126
 20
82.47090927734374
 30
0.0
 10
78.92650185546876
 20
82.42745185546875
 30
0.0
 10
79.03275556640625
 20
82.350175
 30
0.0
 10
79.13900927734375
 20
82.27289814453128
 30
0.0
 10
79.24526298828124
 20
82.11350185546874
 30
0.0
  0
SPLINE
  5
F8
330
17
100
AcDbEntity
  8
ENGRAVE
100
AcDbSpline
 70
0
 71
2
 72
12
 73
9
 74
0
 40
0.0
 40
0.0
 40
0.0
 40
1.0
 40
1.0
 40
2.000000000000017
 40
2.000000000000017
 40
2.851941162286033
 40
2.851941162286033
 40
3.703882324571972
 40
3.703882324571972
 40
3.703882324571972
 10
78.95065185546876
 20
83.05050927734376
 30
0.0
 10
78.79609814453126
 20
83.05050927734374
 30
0.0
 10
78.70432500000001
 20
82.97565371093751
 30
0.0
 10
78.61255185546875
 20
82.90079814453127
 30
0.0
 10
78.61255185546875
 20
82.77039443359376
 30
0.0
 10
78.61255185546878
 20
82.65929814453126
 30
0.0
 10
78.656025
 20
82.58925371093751
 30
0.0
 10
78.6994981445313
 20
82.51920927734376
 30
0.0
 10
78.82024814453126
 20
82.47090927734376
 30
0.0
  0
LINE
  5
F9
330
17
100
AcDbEntity
  8
ENGRAVE
100
AcDbLine
 10
81.43325927734375
 20
83.05050927734375
 30
0.0
 11
78.95065185546876
 21
83.05050927734375
 31
0.0
  0
SPLINE
  5
FA
330
17
100
AcDbEntity
  8
ENGRAVE
100
AcDbSpline
 70
0
 71
3
 72
11
 73
7
 74
0
 40
0.0
 40
0.0
 40
0.0
 40
0.0
 40
2.0
 40
2.0
 40
2.0
 40
4.999638336347488
 40
4.999638336347488
 40
4.999638336347488
 40
4.999638336347488
 10
81.64095556640628
 20
82.52405185546874
 30
0.0
 10
81.72468395182285
 20
82.59046646118284
 30
0.0
 10
81.76654814453128
 20
82.65726257527547
 30
0.0
 10
81.76654814453126
 20
82.77520556640624
 30
0.0
 10
81.76906722061928
 20
82.94756704564941
 30
0.0
 10
81.6368118158391
 20
83.05201941268392
 30
0.0
 10
81.43325927734375
 20
83.05050927734375
 30
0.0
  0
LINE
  5
FB
330
17
100
AcDbEntity
  8
ENGRAVE
100
AcDbLine
 10
81.53470185546875
 20
82.46125556640625
 30
0.0
 11
81.64095556640626
 21
82.52405185546876
 31
0.0
  0
SPLINE
  5
FC
330
17
100
AcDbEntity
  8
ENGRAVE
100
AcDbSpline
 70
0
 71
2
 72
8
 73
5
 74
0
 40
0.0
 40
0.0
 40
0.0
 40
1.0
 40
1.0
 40
2.0000000000000075
 40
2.0000000000000075
 40
2.0000000000000075
 10
81.53951298828125
 20
82.15214814453124
 30
0.0
 10
81.45259814453127
 20
82.27770927734375
 30
0.0
 10
81.4550037109375
 20
82.345332421875
 30
0.0
 10
81.45740927734376
 20
82.41295556640625
 30
0.0
 10
81.53470185546874
 20
82.46125556640625
 30
0.0
  0
ENDSEC
  0
SECTION
  2
OBJECTS
  0
DICTIONARY
  5
A
330
0
100
AcDbDictionary
281
1
  3
ACAD_COLOR
350
B
  3
ACAD_GROUP
350
C
  3
ACAD_LAYOUT
350
D
  3
ACAD_MATERIAL
350
E
  3
ACAD_MLEADERSTYLE
350
F
  3
ACAD_MLINESTYLE
350
10
  3
ACAD_PLOTSETTINGS
350
11
  3
ACAD_PLOTSTYLENAME
350
12
  3
ACAD_SCALELIST
350
14
  3
ACAD_TABLESTYLE
350
15
  3
ACAD_VISUALSTYLE
350
16
  3
EZDXF_META
350
2D
  0
DICTIONARY
  5
B
330
A
100
AcDbDictionary
281
1
  0
DICTIONARY
  5
C
330
A
100
AcDbDictionary
281
1
  0
DICTIONARY
  5
D
330
A
100
AcDbDictionary
281
1
  3
Model
350
1A
  3
Layout1
350
1E
  0
DICTIONARY
  5
E
330
A
100
AcDbDictionary
281
1
  3
ByBlock
350
1F
  3
ByLayer
350
20
  3
Global
350
21
  0
DICTIONARY
  5
F
330
A
100
AcDbDictionary
281
1
  3
Standard
350
2C
  0
DICTIONARY
  5
10
330
A
100
AcDbDictionary
281
1
  3
Standard
350
22
  0
DICTIONARY
  5
11
330
A
100
AcDbDictionary
281
1
  0
ACDBDICTIONARYWDFLT
  5
12
330
A
100
AcDbDictionary
281
1
  3
Normal
350
13
100
AcDbDictionaryWithDefault
340
13
  0
ACDBPLACEHOLDER
  5
13
330
12
  0
DICTIONARY
  5
14
330
A
100
AcDbDictionary
281
1
  0
DICTIONARY
  5
15
330
A
100
AcDbDictionary
281
1
  0
DICTIONARY
  5
16
330
A
100
AcDbDictionary
281
1
  0
LAYOUT
  5
1A
330
D
100
AcDbPlotSettings
  1

  4
A3
  6

 40
7.5
 41
20.0
 42
7.5
 43
20.0
 44
420.0
 45
297.0
 46
0.0
 47
0.0
 48
0.0
 49
0.0
140
0.0
141
0.0
142
1.0
143
1.0
 70
1024
 72
1
 73
0
 74
5
  7

 75
16
 76
0
 77
2
 78
300
147
1.0
148
0.0
149
0.0
100
AcDbLayout
  1
Model
 70
1
 71
0
 10
0.0
 20
0.0
 11
420.0
 21
297.0
 12
0.0
 22
0.0
 32
0.0
 14
1e+20
 24
1e+20
 34
1e+20
 15
-1e+20
 25
-1e+20
 35
-1e+20
146
0.0
 13
0.0
 23
0.0
 33
0.0
 16
1.0
 26
0.0
 36
0.0
 17
0.0
 27
1.0
 37
0.0
 76
1
330
17
  0
LAYOUT
  5
1E
330
D
100
AcDbPlotSettings
  1

  4
A3
  6

 40
7.5
 41
20.0
 42
7.5
 43
20.0
 44
420.0
 45
297.0
 46
0.0
 47
0.0
 48
0.0
 49
0.0
140
0.0
141
0.0
142
1.0
143
1.0
 70
0
 72
1
 73
0
 74
5
  7

 75
16
 76
0
 77
2
 78
300
147
1.0
148
0.0
149
0.0
100
AcDbLayout
  1
Layout1
 70
1
 71
1
 10
0.0
 20
0.0
 11
420.0
 21
297.0
 12
0.0
 22
0.0
 32
0.0
 14
1e+20
 24
1e+20
 34
1e+20
 15
-1e+20
 25
-1e+20
 35
-1e+20
146
0.0
 13
0.0
 23
0.0
 33
0.0
 16
1.0
 26
0.0
 36
0.0
 17
0.0
 27
1.0
 37
0.0
 76
1
330
1B
  0
MATERIAL
  5
1F
102
{ACAD_REACTORS
330
E
102
}
330
E
100
AcDbMaterial
  1
ByBlock
  2

 70
0
 40
1.0
 71
1
 41
1.0
 91
-1023410177
 42
1.0
 72
1
  3

 73
1
 74
1
 75
1
 44
0.5
 73
0
 45
1.0
 46
1.0
 77
1
  4

 78
1
 79
1
170
1
 48
1.0
171
1
  6

172
1
173
1
174
1
140
1.0
141
1.0
175
1
  7

176
1
177
1
178
1
143
1.0
179
1
  8

270
1
271
1
272
1
145
1.0
146
1.0
273
1
  9

274
1
275
1
276
1
 42
1.0
 72
1
  3

 73
1
 74
1
 75
1
 94
63
  0
MATERIAL
  5
20
102
{ACAD_REACTORS
330
E
102
}
330
E
100
AcDbMaterial
  1
ByLayer
  2

 70
0
 40
1.0
 71
1
 41
1.0
 91
-1023410177
 42
1.0
 72
1
  3

 73
1
 74
1
 75
1
 44
0.5
 73
0
 45
1.0
 46
1.0
 77
1
  4

 78
1
 79
1
170
1
 48
1.0
171
1
  6

172
1
173
1
174
1
140
1.0
141
1.0
175
1
  7

176
1
177
1
178
1
143
1.0
179
1
  8

270
1
271
1
272
1
145
1.0
146
1.0
273
1
  9

274
1
275
1
276
1
 42
1.0
 72
1
  3

 73
1
 74
1
 75
1
 94
63
  0
MATERIAL
  5
21
102
{ACAD_REACTORS
330
E
102
}
330
E
100
AcDbMaterial
  1
Global
  2

 70
0
 40
1.0
 71
1
 41
1.0
 91
-1023410177
 42
1.0
 72
1
  3

 73
1
 74
1
 75
1
 44
0.5
 73
0
 45
1.0
 46
1.0
 77
1
  4

 78
1
 79
1
170
1
 48
1.0
171
1
  6

172
1
173
1
174
1
140
1.0
141
1.0
175
1
  7

176
1
177
1
178
1
143
1.0
179
1
  8

270
1
271
1
272
1
145
1.0
146
1.0
273
1
  9

274
1
275
1
276
1
 42
1.0
 72
1
  3

 73
1
 74
1
 75
1
 94
63
  0
MLINESTYLE
  5
22
102
{ACAD_REACTORS
330
10
102
}
330
10
100
AcDbMlineStyle
  2
Standard
 70
0
  3

 62
256
 51
90.0
 52
90.0
 71
2
 49
0.5
 62
256
  6
BYLAYER
 49
-0.5
 62
256
  6
BYLAYER
  0
MLEADERSTYLE
  5
2C
102
{ACAD_REACTORS
330
F
102
}
330
F
100
AcDbMLeaderStyle
179
2
170
2
171
1
172
0
 90
2
 40
0.0
 41
0.0
173
1
 91
-1056964608
 92
-2
290
1
 42
2.0
291
1
 43
8.0
  3
Standard
 44
4.0
300

342
29
174
1
175
1
176
0
178
1
 93
-1056964608
 45
4.0
292
0
297
0
 46
4.0
 94
-1056964608
 47
1.0
 49
1.0
140
1.0
294
1
141
0.0
177
0
142
1.0
295
0
296
0
143
3.75
271
0
272
9
273
9
  0
DICTIONARY
  5
2D
330
A
100
AcDbDictionary
280
1
281
1
  3
CREATED_BY_EZDXF
350
2E
  3
WRITTEN_BY_EZDXF
350
100
  0
DICTIONARYVAR
  5
2E
330
2D
100
DictionaryVariables
280
0
  1
1.4.4 @ 2026-10-08T03:19:07.800918+00:00
  0
DICTIONARYVAR
  5
100
330
2D
100
DictionaryVariables
280
0
  1
1.4.4 @ 2026-10-08T03:19:07.891152+00:00
  0
ENDSEC
  0
EOF
