  0
SECTION
  2
HEADER
  9
$ACADVER
  1
AC1027
  9
$ACADMAINTVER
 70
105
  9
$DWGCODEPAGE
  3
ANSI_1252
  9
$LASTSAVEDBY
  1
ezdxf
  9
$REQUIREDVERSIONS
160
0
  9
$INSBASE
 10
0.0
 20
0.0
 30
0.0
  9
$EXTMIN
 10
1e+20
 20
1e+20
 30
1e+20
  9
$EXTMAX
 10
-1e+20
 20
-1e+20
 30
-1e+20
  9
$LIMMIN
 10
0.0
 20
0.0
  9
$LIMMAX
 10
420.0
 20
297.0
  9
$ORTHOMODE
 70
0
  9
$REGENMODE
 70
1
  9
$FILLMODE
 70
1
  9
$QTEXTMODE
 70
0
  9
$MIRRTEXT
 70
1
  9
$LTSCALE
 40
1.0
  9
$ATTMODE
 70
1
  9
$TEXTSIZE
 40
2.5
  9
$TRACEWID
 40
1.0
  9
$TEXTSTYLE
  7
Standard
  9
$CLAYER
  8
0
  9
$CELTYPE
  6
ByLayer
  9
$CECOLOR
 62
256
  9
$CELTSCALE
 40
1.0
  9
$DISPSILH
 70
0
  9
$DIMSCALE
 40
1.0
  9
$DIMASZ
 40
2.5
  9
$DIMEXO
 40
0.625
  9
$DIMDLI
 40
3.75
  9
$DIMRND
 40
0.0
  9
$DIMDLE
 40
0.0
  9
$DIMEXE
 40
1.25
  9
$DIMTP
 40
0.0
  9
$DIMTM
 40
0.0
  9
$DIMTXT
 40
2.5
  9
$DIMCEN
 40
2.5
  9
$DIMTSZ
 40
0.0
  9
$DIMTOL
 70
0
  9
$DIMLIM
 70
0
  9
$DIMTIH
 70
0
  9
$DIMTOH
 70
0
  9
$DIMSE1
 70
0
  9
$DIMSE2
 70
0
  9
$DIMTAD
 70
1
  9
$DIMZIN
 70
8
  9
$DIMBLK
  1

  9
$DIMASO
 70
1
  9
$DIMSHO
 70
1
  9
$DIMPOST
  1

  9
$DIMAPOST
  1

  9
$DIMALT
 70
0
  9
$DIMALTD
 70
3
  9
$DIMALTF
 40
0.03937007874
  9
$DIMLFAC
 40
1.0
  9
$DIMTOFL
 70
1
  9
$DIMTVP
 40
0.0
  9
$DIMTIX
 70
0
  9
$DIMSOXD
 70
0
  9
$DIMSAH
 70
0
  9
$DIMBLK1
  1

  9
$DIMBLK2
  1

  9
$DIMSTYLE
  2
ISO-25
  9
$DIMCLRD
 70
0
  9
$DIMCLRE
 70
0
  9
$DIMCLRT
 70
0
  9
$DIMTFAC
 40
1.0
  9
$DIMGAP
 40
0.625
  9
$DIMJUST
 70
0
  9
$DIMSD1
 70
0
  9
$DIMSD2
 70
0
  9
$DIMTOLJ
 70
0
  9
$DIMTZIN
 70
8
  9
$DIMALTZ
 70
0
  9
$DIMALTTZ
 70
0
  9
$DIMUPT
 70
0
  9
$DIMDEC
 70
2
  9
$DIMTDEC
 70
2
  9
$DIMALTU
 70
2
  9
$DIMALTTD
 70
3
  9
$DIMTXSTY
  7
Standard
  9
$DIMAUNIT
 70
0
  9
$DIMADEC
 70
0
  9
$DIMALTRND
 40
0.0
  9
$DIMAZIN
 70
0
  9
$DIMDSEP
 70
44
  9
$DIMATFIT
 70
3
  9
$DIMFRAC
 70
0
  9
$DIMLDRBLK
  1

  9
$DIMLUNIT
 70
2
  9
$DIMLWD
 70
-2
  9
$DIMLWE
 70
-2
  9
$DIMTMOVE
 70
0
  9
$DIMFXL
 40
1.0
  9
$DIMFXLON
 70
0
  9
$DIMJOGANG
 40
0.785398163397
  9
$DIMTFILL
 70
0
  9
$DIMTFILLCLR
 70
0
  9
$DIMARCSYM
 70
0
  9
$DIMLTYPE
  6

  9
$DIMLTEX1
  6

  9
$DIMLTEX2
  6

  9
$DIMTXTDIRECTION
 70
0
  9
$LUNITS
 70
2
  9
$LUPREC
 70
4
  9
$SKETCHINC
 40
1.0
  9
$FILLETRAD
 40
10.0
  9
$AUNITS
 70
0
  9
$AUPREC
 70
2
  9
$MENU
  1
.
  9
$ELEVATION
 40
0.0
  9
$PELEVATION
 40
0.0
  9
$THICKNESS
 40
0.0
  9
$LIMCHECK
 70
0
  9
$CHAMFERA
 40
0.0
  9
$CHAMFERB
 40
0.0
  9
$CHAMFERC
 40
0.0
  9
$CHAMFERD
 40
0.0
  9
$SKPOLY
 70
0
  9
$TDCREATE
 40
2461321.987962963
  9
$TDUCREATE
 40
2458532.153996898
  9
$TDUPDATE
 40
2461321.987962963
  9
$TDUUPDATE
 40
2458532.1544311
  9
$TDINDWG
 40
0.0
  9
$TDUSRTIMER
 40
0.0
  9
$USRTIMER
 70
1
  9
$ANGBASE
 50
0.0
  9
$ANGDIR
 70
0
  9
$PDMODE
 70
0
  9
$PDSIZE
 40
0.0
  9
$PLINEWID
 40
0.0
  9
$SPLFRAME
 70
0
  9
$SPLINETYPE
 70
6
  9
$SPLINESEGS
 70
8
  9
$HANDSEED
  5
114
  9
$SURFTAB1
 70
6
  9
$SURFTAB2
 70
6
  9
$SURFTYPE
 70
6
  9
$SURFU
 70
6
  9
$SURFV
 70
6
  9
$UCSBASE
  2

  9
$UCSNAME
  2

  9
$UCSORG
 10
0.0
 20
0.0
 30
0.0
  9
$UCSXDIR
 10
1.0
 20
0.0
 30
0.0
  9
$UCSYDIR
 10
0.0
 20
1.0
 30
0.0
  9
$UCSORTHOREF
  2

  9
$UCSORTHOVIEW
 70
0
  9
$UCSORGTOP
 10
0.0
 20
0.0
 30
0.0
  9
$UCSORGBOTTOM
 10
0.0
 20
0.0
 30
0.0
  9
$UCSORGLEFT
 10
0.0
 20
0.0
 30
0.0
  9
$UCSORGRIGHT
 10
0.0
 20
0.0
 30
0.0
  9
$UCSORGFRONT
 10
0.0
 20
0.0
 30
0.0
  9
$UCSORGBACK
 10
0.0
 20
0.0
 30
0.0
  9
$PUCSBASE
  2

  9
$PUCSNAME
  2

  9
$PUCSORG
 10
0.0
 20
0.0
 30
0.0
  9
$PUCSXDIR
 10
1.0
 20
0.0
 30
0.0
  9
$PUCSYDIR
 10
0.0
 20
1.0
 30
0.0
  9
$PUCSORTHOREF
  2

  9
$PUCSORTHOVIEW
 70
0
  9
$PUCSORGTOP
 10
0.0
 20
0.0
 30
0.0
  9
$PUCSORGBOTTOM
 10
0.0
 20
0.0
 30
0.0
  9
$PUCSORGLEFT
 10
0.0
 20
0.0
 30
0.0
  9
$PUCSORGRIGHT
 10
0.0
 20
0.0
 30
0.0
  9
$PUCSORGFRONT
 10
0.0
 20
0.0
 30
0.0
  9
$PUCSORGBACK
 10
0.0
 20
0.0
 30
0.0
  9
$USERI1
 70
0
  9
$USERI2
 70
0
  9
$USERI3
 70
0
  9
$USERI4
 70
0
  9
$USERI5
 70
0
  9
$USERR1
 40
0.0
  9
$USERR2
 40
0.0
  9
$USERR3
 40
0.0
  9
$USERR4
 40
0.0
  9
$USERR5
 40
0.0
  9
$WORLDVIEW
 70
1
  9
$SHADEDGE
 70
3
  9
$SHADEDIF
 70
70
  9
$TILEMODE
 70
1
  9
$MAXACTVP
 70
64
  9
$PINSBASE
 10
0.0
 20
0.0
 30
0.0
  9
$PLIMCHECK
 70
0
  9
$PEXTMIN
 10
1e+20
 20
1e+20
 30
1e+20
  9
$PEXTMAX
 10
-1e+20
 20
-1e+20
 30
-1e+20
  9
$PLIMMIN
 10
0.0
 20
0.0
  9
$PLIMMAX
 10
420.0
 20
297.0
  9
$UNITMODE
 70
0
  9
$VISRETAIN
 70
1
  9
$PLINEGEN
 70
0
  9
$PSLTSCALE
 70
1
  9
$TREEDEPTH
 70
3020
  9
$CMLSTYLE
  2
Standard
  9
$CMLJUST
 70
0
  9
$CMLSCALE
 40
20.0
  9
$PROXYGRAPHICS
 70
1
  9
$MEASUREMENT
 70
1
  9
$CELWEIGHT
370
-1
  9
$ENDCAPS
280
0
  9
$JOINSTYLE
280
0
  9
$LWDISPLAY
290
0
  9
$INSUNITS
 70
4
  9
$HYPERLINKBASE
  1

  9
$STYLESHEET
  1

  9
$XEDIT
290
1
  9
$CEPSNTYPE
380
0
  9
$PSTYLEMODE
290
1
  9
$FINGERPRINTGUID
  2
{1459E56A-10B6-4494-8BA5-0C73867EDD76}
  9
$VERSIONGUID
  2
{61731ECF-3FC7-4FA3-BD85-A3A38819CDFC}
  9
$EXTNAMES
290
1
  9
$PSVPSCALE
 40
0.0
  9
$OLESTARTUP
290
0
  9
$SORTENTS
280
127
  9
$INDEXCTL
280
0
  9
$HIDETEXT
280
1
  9
$XCLIPFRAME
280
1
  9
$HALOGAP
280
0
  9
$OBSCOLOR
 70
257
  9
$OBSLTYPE
280
0
  9
$INTERSECTIONDISPLAY
280
0
  9
$INTERSECTIONCOLOR
 70
257
  9
$DIMASSOC
280
2
  9
$PROJECTNAME
  1

  9
$CAMERADISPLAY
290
0
  9
$LENSLENGTH
 40
50.0
  9
$CAMERAHEIGHT
 40
0.0
  9
$STEPSPERSEC
 40
24.0
  9
$STEPSIZE
 40
100.0
  9
$3DDWFPREC
 40
2.0
  9
$PSOLWIDTH
 40
0.005
  9
$PSOLHEIGHT
 40
0.08
  9
$LOFTANG1
 40
1.570796326795
  9
$LOFTANG2
 40
1.570796326795
  9
$LOFTMAG1
 40
0.0
  9
$LOFTMAG2
 40
0.0
  9
$LOFTPARAM
 70
7
  9
$LOFTNORMALS
280
1
  9
$LATITUDE
 40
37.795
  9
$LONGITUDE
 40
-122.394
  9
$NORTHDIRECTION
 40
0.0
  9
$TIMEZONE
 70
-8000
  9
$LIGHTGLYPHDISPLAY
280
1
  9
$TILEMODELIGHTSYNCH
280
1
  9
$CMATERIAL
347
20
  9
$SOLIDHIST
280
0
  9
$SHOWHIST
280
1
  9
$DWFFRAME
280
2
  9
$DGNFRAME
280
2
  9
$REALWORLDSCALE
290
1
  9
$INTERFERECOLOR
 62
256
  9
$CSHADOW
280
0
  9
$SHADOWPLANELOCATION
 40
0.0
  0
ENDSEC
  0
SECTION
  2
CLASSES
  0
CLASS
  1
ACDBDICTIONARYWDFLT
  2
AcDbDictionaryWithDefault
  3
ObjectDBX Classes
 90
0
 91
0
280
0
281
0
  0
CLASS
  1
SUN
  2
AcDbSun
  3
SCENEOE
 90
1153
 91
0
280
0
281
0
  0
CLASS
  1
VISUALSTYLE
  2
AcDbVisualStyle
  3
ObjectDBX Classes
 90
4095
 91
0
280
0
281
0
  0
CLASS
  1
MATERIAL
  2
AcDbMaterial
  3
ObjectDBX Classes
 90
1153
 91
0
280
0
281
0
  0
CLASS
  1
SCALE
  2
AcDbScale
  3
ObjectDBX Classes
 90
1153
 91
0
280
0
281
0
  0
CLASS
  1
TABLESTYLE
  2
AcDbTableStyle
  3
ObjectDBX Classes
 90
4095
 91
0
280
0
281
0
  0
CLASS
  1
MLEADERSTYLE
  2
AcDbMLeaderStyle
  3
ACDB_MLEADERSTYLE_CLASS
 90
4095
 91
0
280
0
281
0
  0
CLASS
  1
DICTIONARYVAR
  2
AcDbDictionaryVar
  3
ObjectDBX Classes
 90
0
 91
0
280
0
281
0
  0
CLASS
  1
CELLSTYLEMAP
  2
AcDbCellStyleMap
  3
ObjectDBX Classes
 90
1152
 91
0
280
0
281
0
  0
CLASS
  1
MENTALRAYRENDERSETTINGS
  2
AcDbMentalRayRenderSettings
  3
SCENEOE
 90
1024
 91
0
280
0
281
0
  0
CLASS
  1
ACDBDETAILVIEWSTYLE
  2
AcDbDetailViewStyle
  3
ObjectDBX Classes
 90
1025
 91
0
280
0
281
0
  0
CLASS
  1
ACDBSECTIONVIEWSTYLE
  2
AcDbSectionViewStyle
  3
ObjectDBX Classes
 90
1025
 91
0
280
0
281
0
  0
CLASS
  1
RASTERVARIABLES
  2
AcDbRasterVariables
  3
ISM
 90
0
 91
0
280
0
281
0
  0
CLASS
  1
ACDBPLACEHOLDER
  2
AcDbPlaceHolder
  3
ObjectDBX Classes
 90
0
 91
0
280
0
281
0
  0
CLASS
  1
LAYOUT
  2
AcDbLayout
  3
ObjectDBX Classes
 90
0
 91
0
280
0
281
0
  0
ENDSEC
  0
SECTION
  2
TABLES
  0
TABLE
  2
VPORT
  5
8
330
0
100
AcDbSymbolTable
 70
1
  0
VPORT
  5
110
330
8
100
AcDbSymbolTableRecord
100
AcDbViewportTableRecord
  2
*Active
 70
0
 10
0.0
 20
0.0
 11
1.0
 21
1.0
 12
90.0
 22
107.25
 13
0.0
 23
0.0
 14
0.5
 24
0.5
 15
0.5
 25
0.5
 16
0.0
 26
0.0
 36
1.0
 17
0.0
 27
0.0
 37
0.0
 40
120.5
 41
1.34
 42
50.0
 43
0.0
 44
0.0
 50
0.0
 51
0.0
 71
0
 72
1000
 73
1
 74
3
 75
0
 76
0
 77
0
 78
0
281
0
 65
1
110
0.0
120
0.0
130
0.0
111
1.0
121
0.0
131
0.0
112
0.0
122
1.0
132
0.0
 79
0
146
0.0
  0
ENDTAB
  0
TABLE
  2
LTYPE
  5
2
330
0
100
AcDbSymbolTable
 70
3
  0
LTYPE
  5
24
330
2
100
AcDbSymbolTableRecord
100
AcDbLinetypeTableRecord
  2
ByBlock
 70
0
  3

 72
65
 73
0
 40
0.0
  0
LTYPE
  5
25
330
2
100
AcDbSymbolTableRecord
100
AcDbLinetypeTableRecord
  2
ByLayer
 70
0
  3

 72
65
 73
0
 40
0.0
  0
LTYPE
  5
26
330
2
100
AcDbSymbolTableRecord
100
AcDbLinetypeTableRecord
  2
Continuous
 70
0
  3

 72
65
 73
0
 40
0.0
  0
ENDTAB
  0
TABLE
  2
LAYER
  5
1
330
0
100
AcDbSymbolTable
 70
4
  0
LAYER
  5
27
330
1
100
AcDbSymbolTableRecord
100
AcDbLayerTableRecord
  2
0
 70
0
 62
7
  6
Continuous
370
-3
390
13
347
21
  0
LAYER
  5
28
330
1
100
AcDbSymbolTableRecord
100
AcDbLayerTableRecord
  2
Defpoints
 70
0
 62
7
  6
Continuous
290
0
370
-3
390
13
347
21
  0
LAYER
  5
2F
330
1
100
AcDbSymbolTableRecord
100
AcDbLayerTableRecord
  2
CUT
 70
0
 62
1
  6
Continuous
370
-3
390
13
347
21
  0
LAYER
  5
30
330
1
100
AcDbSymbolTableRecord
100
AcDbLayerTableRecord
  2
ENGRAVE
 70
0
 62
7
  6
Continuous
370
-3
390
13
347
21
  0
ENDTAB
  0
TABLE
  2
STYLE
  5
5
330
0
100
AcDbSymbolTable
 70
1
  0
STYLE
  5
29
330
5
100
AcDbSymbolTableRecord
100
AcDbTextStyleTableRecord
  2
Standard
 70
0
 40
0.0
 41
1.0
 50
0.0
 71
0
 42
2.5
  3
txt
  4

  0
ENDTAB
  0
TABLE
  2
VIEW
  5
7
330
0
100
AcDbSymbolTable
 70
0
  0
ENDTAB
  0
TABLE
  2
UCS
  5
6
330
0
100
AcDbSymbolTable
 70
0
  0
ENDTAB
  0
TABLE
  2
APPID
  5
3
330
0
100
AcDbSymbolTable
 70
3
  0
APPID
  5
2A
330
3
100
AcDbSymbolTableRecord
100
AcDbRegAppTableRecord
  2
ACAD
 70
0
  0
APPID
  5
111
330
3
100
AcDbSymbolTableRecord
100
AcDbRegAppTableRecord
  2
HATCHBACKGROUNDCOLOR
 70
0
  0
APPID
  5
112
330
3
100
AcDbSymbolTableRecord
100
AcDbRegAppTableRecord
  2
EZDXF
 70
0
  0
ENDTAB
  0
TABLE
  2
DIMSTYLE
  5
4
330
0
100
AcDbSymbolTable
 70
1
100
AcDbDimStyleTable
  0
DIMSTYLE
105
2B
330
4
100
AcDbSymbolTableRecord
100
AcDbDimStyleTableRecord
  2
Standard
 70
0
 40
1.0
 41
2.5
 42
0.625
 43
3.75
 44
1.25
 45
0.0
 46
0.0
 47
0.0
 48
0.0
 49
2.5
140
2.5
141
2.5
142
0.0
143
0.03937007874
144
1.0
145
0.0
146
1.0
147
0.625
148
0.0
 69
0
 70
0
 71
0
 72
0
 73
0
 74
0
 75
0
 76
0
 77
1
 78
8
 79
3
170
0
171
3
172
1
173
0
174
0
175
0
176
0
177
0
178
0
179
2
271
2
272
2
273
2
274
3
275
0
276
0
277
2
278
44
279
0
280
0
281
0
282
0
283
0
284
8
285
0
286
0
288
0
289
3
290
0
371
-2
372
-2
  0
ENDTAB
  0
TABLE
  2
BLOCK_RECORD
  5
9
330
0
100
AcDbSymbolTable
 70
2
  0
BLOCK_RECORD
  5
17
330
9
100
AcDbSymbolTableRecord
100
AcDbBlockTableRecord
  2
*Model_Space
340
1A
 70
0
280
1
281
0
  0
BLOCK_RECORD
  5
1B
330
9
100
AcDbSymbolTableRecord
100
AcDbBlockTableRecord
  2
*Paper_Space
340
1E
 70
0
280
1
281
0
  0
ENDTAB
  0
ENDSEC
  0
SECTION
  2
BLOCKS
  0
BLOCK
  5
18
330
17
100
AcDbEntity
  8
0
100
AcDbBlockBegin
  2
*Model_Space
 70
0
 10
0.0
 20
0.0
 30
0.0
  3
*Model_Space
  1

  0
ENDBLK
  5
19
330
17
100
AcDbEntity
  8
0
100
AcDbBlockEnd
  0
BLOCK
  5
1C
330
1B
100
AcDbEntity
  8
0
100
AcDbBlockBegin
  2
*Paper_Space
 70
0
 10
0.0
 20
0.0
 30
0.0
  3
*Paper_Space
  1

  0
ENDBLK
  5
1D
330
1B
100
AcDbEntity
  8
0
100
AcDbBlockEnd
  0
ENDSEC
  0
SECTION
  2
ENTITIES
  0
LINE
  5
31
330
17
100
AcDbEntity
  8
CUT
100
AcDbLine
 10
4.0
 20
159.5
 30
0.0
 11
4.0
 21
55.0
 31
0.0
  0
ARC
  5
32
330
17
100
AcDbEntity
  8
CUT
100
AcDbCircle
 10
12.0
 20
55.0
 30
0.0
 40
8.0
100
AcDbArc
 50
180.0
 51
270.0
  0
ARC
  5
33
330
17
100
AcDbEntity
  8
CUT
100
AcDbCircle
 10
12.0
 20
159.5
 30
0.0
 40
8.0
100
AcDbArc
 50
90.0
 51
180.0
  0
LINE
  5
34
330
17
100
AcDbEntity
  8
CUT
100
AcDbLine
 10
12.0
 20
47.0
 30
0.0
 11
168.0
 21
47.0
 31
0.0
  0
LINE
  5
35
330
17
100
AcDbEntity
  8
CUT
100
AcDbLine
 10
168.0
 20
167.5
 30
0.0
 11
12.0
 21
167.5
 31
0.0
  0
ARC
  5
36
330
17
100
AcDbEntity
  8
CUT
100
AcDbCircle
 10
168.0
 20
55.0
 30
0.0
 40
8.0
100
AcDbArc
 50
270.0
 51
360.0
  0
ARC
  5
37
330
17
100
AcDbEntity
  8
CUT
100
AcDbCircle
 10
168.0
 20
159.5
 30
0.0
 40
8.0
100
AcDbArc
 50
0.0
 51
90.0
  0
LINE
  5
38
330
17
100
AcDbEntity
  8
CUT
100
AcDbLine
 10
176.0
 20
55.0
 30
0.0
 11
176.0
 21
159.5
 31
0.0
  0
LINE
  5
39
330
17
100
AcDbEntity
  8
CUT
100
AcDbLine
 10
166.0
 20
66.4
 30
0.0
 11
13.799999999999997
 21
66.4
 31
0.0
  0
LINE
  5
3A
330
17
100
AcDbEntity
  8
CUT
100
AcDbLine
 10
166.0
 20
150.3
 30
0.0
 11
166.0
 21
66.4
 31
0.0
  0
LINE
  5
3B
330
17
100
AcDbEntity
  8
CUT
100
AcDbLine
 10
13.799999999999997
 20
150.3
 30
0.0
 11
166.0
 21
150.3
 31
0.0
  0
LINE
  5
3C
330
17
100
AcDbEntity
  8
CUT
100
AcDbLine
 10
13.799999999999997
 20
66.4
 30
0.0
 11
13.799999999999997
 21
150.3
 31
0.0
  0
LINE
  5
3D
330
17
100
AcDbEntity
  8
CUT
100
AcDbLine
 10
55.89999999999999
 20
108.36000000000001
 30
0.0
 11
55.89999999999999
 21
108.34
 31
0.0
  0
ARC
  5
3E
330
17
100
AcDbEntity
  8
CUT
100
AcDbCircle
 10
64.38999999999999
 20
108.34
 30
0.0
 40
8.49
100
AcDbArc
 50
180.0
 51
270.0
  0
ARC
  5
3F
330
17
100
AcDbEntity
  8
CUT
100
AcDbCircle
 10
64.38999999999999
 20
108.36000000000001
 30
0.0
 40
8.49
100
AcDbArc
 50
90.0
 51
180.0
  0
LINE
  5
40
330
17
100
AcDbEntity
  8
CUT
100
AcDbLine
 10
64.38999999999999
 20
99.85000000000001
 30
0.0
 11
115.41
 21
99.85000000000001
 31
0.0
  0
LINE
  5
41
330
17
100
AcDbEntity
  8
CUT
100
AcDbLine
 10
115.41
 20
116.85000000000001
 30
0.0
 11
64.38999999999999
 21
116.85000000000001
 31
0.0
  0
ARC
  5
42
330
17
100
AcDbEntity
  8
CUT
100
AcDbCircle
 10
115.41
 20
108.34
 30
0.0
 40
8.49
100
AcDbArc
 50
270.0
 51
360.0
  0
ARC
  5
43
330
17
100
AcDbEntity
  8
CUT
100
AcDbCircle
 10
115.41
 20
108.36000000000001
 30
0.0
 40
8.49
100
AcDbArc
 50
0.0
 51
90.0
  0
LINE
  5
44
330
17
100
AcDbEntity
  8
CUT
100
AcDbLine
 10
123.89999999999999
 20
108.34
 30
0.0
 11
123.89999999999999
 21
108.36000000000001
 31
0.0
  0
CIRCLE
  5
45
330
17
100
AcDbEntity
  8
CUT
100
AcDbCircle
 10
71.39999999999999
 20
108.35000000000001
 30
0.0
 40
7.387794646274727
  0
ARC
  5
46
330
17
100
AcDbEntity
  8
CUT
100
AcDbCircle
 10
96.19
 20
108.34
 30
0.0
 40
5.111644277956717
100
AcDbArc
 50
180.0
 51
270.0
  0
LINE
  5
47
330
17
100
AcDbEntity
  8
CUT
100
AcDbLine
 10
91.07835572204327
 20
108.34000000000002
 30
0.0
 11
91.07835572204327
 21
108.36000000000001
 31
0.0
  0
LINE
  5
48
330
17
100
AcDbEntity
  8
CUT
100
AcDbLine
 10
99.60999999999999
 20
103.22835572204329
 30
0.0
 11
96.18999999999998
 21
103.22835572204329
 31
0.0
  0
ARC
  5
49
330
17
100
AcDbEntity
  8
CUT
100
AcDbCircle
 10
96.19
 20
108.36000000000001
 30
0.0
 40
5.111644277956717
100
AcDbArc
 50
90.0
 51
180.0
  0
ARC
  5
4A
330
17
100
AcDbEntity
  8
CUT
100
AcDbCircle
 10
99.60999999999999
 20
108.34
 30
0.0
 40
5.111644277956717
100
AcDbArc
 50
270.0
 51
360.0
  0
LINE
  5
4B
330
17
100
AcDbEntity
  8
CUT
100
AcDbLine
 10
96.18999999999998
 20
113.47164427795673
 30
0.0
 11
99.60999999999999
 21
113.47164427795673
 31
0.0
  0
LINE
  5
4C
330
17
100
AcDbEntity
  8
CUT
100
AcDbLine
 10
104.7216442779567
 20
108.36000000000001
 30
0.0
 11
104.7216442779567
 21
108.34
 31
0.0
  0
ARC
  5
4D
330
17
100
AcDbEntity
  8
CUT
100
AcDbCircle
 10
99.60999999999999
 20
108.36000000000001
 30
0.0
 40
5.111644277956717
100
AcDbArc
 50
0.0
 51
90.0
  0
CIRCLE
  5
4E
330
17
100
AcDbEntity
  8
CUT
100
AcDbCircle
 10
114.39999999999999
 20
108.35000000000001
 30
0.0
 40
1.55
  0
LINE
  5
4F
330
17
100
AcDbEntity
  8
ENGRAVE
100
AcDbLine
 10
83.31769814453125
 20
59.88055185546875
 30
0.0
 11
79.75799443359375
 21
59.88055185546875
 31
0.0
  0
SPLINE
  5
50
330
17
100
AcDbEntity
  8
ENGRAVE
100
AcDbSpline
 70
0
 71
2
 72
6
 73
3
 74
0
 40
0.0
 40
0.0
 40
0.0
 40
1.0
 40
1.0
 40
1.0
 10
83.31769814453125
 20
59.88055185546875
 30
0.0
 10
83.53023701171875
 20
59.88055185546875
 30
0.0
 10
83.68238515625
 20
59.91919814453125
 30
0.0
  0
SPLINE
  5
51
330
17
100
AcDbEntity
  8
ENGRAVE
100
AcDbSpline
 70
0
 71
2
 72
6
 73
3
 74
0
 40
0.0
 40
0.0
 40
0.0
 40
1.0
 40
1.0
 40
1.0
 10
83.68238515625
 20
59.91919814453125
 30
0.0
 10
83.83453330078126
 20
59.95784443359375
 30
0.0
 10
83.9576888671875
 20
59.991648144531254
 30
0.0
  0
SPLINE
  5
52
330
17
100
AcDbEntity
  8
ENGRAVE
100
AcDbSpline
 70
0
 71
2
 72
6
 73
3
 74
0
 40
0.0
 40
0.0
 40
0.0
 40
1.0
 40
1.0
 40
1.0
 10
83.9576888671875
 20
59.991648144531254
 30
0.0
 10
84.08084443359375
 20
60.02545185546875
 30
0.0
 10
84.19678330078126
 20
60.02545185546875
 30
0.0
  0
SPLINE
  5
53
330
17
100
AcDbEntity
  8
ENGRAVE
100
AcDbSpline
 70
0
 71
2
 72
6
 73
3
 74
0
 40
0.0
 40
0.0
 40
0.0
 40
1.0
 40
1.0
 40
1.0
 10
84.19678330078126
 20
60.02545185546875
 30
0.0
 10
84.40929072265625
 20
60.02545185546875
 30
0.0
 10
84.51796572265626
 20
59.91919814453125
 30
0.0
  0
SPLINE
  5
54
330
17
100
AcDbEntity
  8
ENGRAVE
100
AcDbSpline
 70
0
 71
2
 72
6
 73
3
 74
0
 40
0.0
 40
0.0
 40
0.0
 40
1.0
 40
1.0
 40
1.0
 10
84.51796572265626
 20
59.91919814453125
 30
0.0
 10
84.62664072265626
 20
59.81294443359375
 30
0.0
 10
84.69909072265625
 20
59.561759277343754
 30
0.0
  0
LINE
  5
55
330
17
100
AcDbEntity
  8
ENGRAVE
100
AcDbLine
 10
85.12894814453125
 20
58.04999443359375
 30
0.0
 11
84.69909072265625
 21
59.561759277343754
 31
0.0
  0
SPLINE
  5
56
330
17
100
AcDbEntity
  8
ENGRAVE
100
AcDbSpline
 70
0
 71
2
 72
6
 73
3
 74
0
 40
0.0
 40
0.0
 40
0.0
 40
1.0
 40
1.0
 40
1.0
 10
85.12894814453125
 20
58.04999443359375
 30
0.0
 10
85.16759443359376
 20
57.90509443359375
 30
0.0
 10
85.08549072265626
 20
57.80849443359375
 30
0.0
  0
SPLINE
  5
57
330
17
100
AcDbEntity
  8
ENGRAVE
100
AcDbSpline
 70
0
 71
2
 72
6
 73
3
 74
0
 40
0.0
 40
0.0
 40
0.0
 40
1.0
 40
1.0
 40
1.0
 10
85.08549072265626
 20
57.80849443359375
 30
0.0
 10
85.00338701171876
 20
57.711894433593756
 30
0.0
 10
84.85364443359376
 20
57.68774443359375
 30
0.0
  0
SPLINE
  5
58
330
17
100
AcDbEntity
  8
ENGRAVE
100
AcDbSpline
 70
0
 71
2
 72
6
 73
3
 74
0
 40
0.0
 40
0.0
 40
0.0
 40
1.0
 40
1.0
 40
1.0
 10
84.85364443359376
 20
57.68774443359375
 30
0.0
 10
84.73773701171876
 20
57.67324814453125
 30
0.0
 10
84.62181386718751
 20
57.7143
 30
0.0
  0
SPLINE
  5
59
330
17
100
AcDbEntity
  8
ENGRAVE
100
AcDbSpline
 70
0
 71
2
 72
6
 73
3
 74
0
 40
0.0
 40
0.0
 40
0.0
 40
1.0
 40
1.0
 40
1.0
 10
84.62181386718751
 20
57.7143
 30
0.0
 10
84.50589072265626
 20
57.75535185546875
 30
0.0
 10
84.42859814453125
 20
57.90990556640625
 30
0.0
  0
SPLINE
  5
5A
330
17
100
AcDbEntity
  8
ENGRAVE
100
AcDbSpline
 70
0
 71
2
 72
6
 73
3
 74
0
 40
0.0
 40
0.0
 40
0.0
 40
1.0
 40
1.0
 40
1.0
 10
84.42859814453125
 20
57.90990556640625
 30
0.0
 10
84.14848330078125
 20
58.45085927734375
 30
0.0
 10
83.89006572265626
 20
58.735832421875
 30
0.0
  0
SPLINE
  5
5B
330
17
100
AcDbEntity
  8
ENGRAVE
100
AcDbSpline
 70
0
 71
2
 72
6
 73
3
 74
0
 40
0.0
 40
0.0
 40
0.0
 40
1.0
 40
1.0
 40
1.0
 10
83.89006572265626
 20
58.735832421875
 30
0.0
 10
83.63164814453125
 20
59.02080556640625
 30
0.0
 10
83.36117128906251
 20
59.127075000000005
 30
0.0
  0
SPLINE
  5
5C
330
17
100
AcDbEntity
  8
ENGRAVE
100
AcDbSpline
 70
0
 71
2
 72
6
 73
3
 74
0
 40
0.0
 40
0.0
 40
0.0
 40
1.0
 40
1.0
 40
1.0
 10
83.36117128906251
 20
59.127075000000005
 30
0.0
 10
83.09069443359375
 20
59.23334443359375
 30
0.0
 10
82.76709072265626
 20
59.23334443359375
 30
0.0
  0
LINE
  5
5D
330
17
100
AcDbEntity
  8
ENGRAVE
100
AcDbLine
 10
82.26959443359375
 20
59.23334443359375
 30
0.0
 11
82.76709072265626
 21
59.23334443359375
 31
0.0
  0
LINE
  5
5E
330
17
100
AcDbEntity
  8
ENGRAVE
100
AcDbLine
 10
82.26959443359375
 20
56.68309814453125
 30
0.0
 11
82.26959443359375
 21
59.23334443359375
 31
0.0
  0
LINE
  5
5F
330
17
100
AcDbEntity
  8
ENGRAVE
100
AcDbLine
 10
82.76224814453126
 20
56.68309814453125
 30
0.0
 11
82.26959443359375
 21
56.68309814453125
 31
0.0
  0
SPLINE
  5
60
330
17
100
AcDbEntity
  8
ENGRAVE
100
AcDbSpline
 70
0
 71
2
 72
6
 73
3
 74
0
 40
0.0
 40
0.0
 40
0.0
 40
1.0
 40
1.0
 40
1.0
 10
82.76224814453126
 20
56.68309814453125
 30
0.0
 10
83.08588330078126
 20
56.68309814453125
 30
0.0
 10
83.22594072265626
 20
56.811096289062505
 30
0.0
  0
SPLINE
  5
61
330
17
100
AcDbEntity
  8
ENGRAVE
100
AcDbSpline
 70
0
 71
2
 72
6
 73
3
 74
0
 40
0.0
 40
0.0
 40
0.0
 40
1.0
 40
1.0
 40
1.0
 10
83.22594072265626
 20
56.811096289062505
 30
0.0
 10
83.36599814453126
 20
56.93909443359375
 30
0.0
 10
83.48674814453126
 20
57.31580927734375
 30
0.0
  0
SPLINE
  5
62
330
17
100
AcDbEntity
  8
ENGRAVE
100
AcDbSpline
 70
0
 71
2
 72
6
 73
3
 74
0
 40
0.0
 40
0.0
 40
0.0
 40
1.0
 40
1.0
 40
1.0
 10
83.48674814453126
 20
57.31580927734375
 30
0.0
 10
83.53023701171875
 20
57.451055566406254
 30
0.0
 10
83.61234072265626
 20
57.506603710937505
 30
0.0
  0
SPLINE
  5
63
330
17
100
AcDbEntity
  8
ENGRAVE
100
AcDbSpline
 70
0
 71
2
 72
6
 73
3
 74
0
 40
0.0
 40
0.0
 40
0.0
 40
1.0
 40
1.0
 40
1.0
 10
83.61234072265626
 20
57.506603710937505
 30
0.0
 10
83.69444443359376
 20
57.562151855468755
 30
0.0
 10
83.80069814453125
 20
57.562151855468755
 30
0.0
  0
SPLINE
  5
64
330
17
100
AcDbEntity
  8
ENGRAVE
100
AcDbSpline
 70
0
 71
2
 72
6
 73
3
 74
0
 40
0.0
 40
0.0
 40
0.0
 40
1.0
 40
1.0
 40
1.0
 10
83.80069814453125
 20
57.562151855468755
 30
0.0
 10
84.06153701171876
 20
57.562151855468755
 30
0.0
 10
84.11949072265625
 20
57.310998144531254
 30
0.0
  0
LINE
  5
65
330
17
100
AcDbEntity
  8
ENGRAVE
100
AcDbLine
 10
84.49623701171876
 20
55.746059277343754
 30
0.0
 11
84.11949072265625
 21
57.310998144531254
 31
0.0
  0
SPLINE
  5
66
330
17
100
AcDbEntity
  8
ENGRAVE
100
AcDbSpline
 70
0
 71
2
 72
6
 73
3
 74
0
 40
0.0
 40
0.0
 40
0.0
 40
1.0
 40
1.0
 40
1.0
 10
84.49623701171876
 20
55.746059277343754
 30
0.0
 10
84.53969443359375
 20
55.58185185546875
 30
0.0
 10
84.4889888671875
 20
55.4925
 30
0.0
  0
SPLINE
  5
67
330
17
100
AcDbEntity
  8
ENGRAVE
100
AcDbSpline
 70
0
 71
2
 72
6
 73
3
 74
0
 40
0.0
 40
0.0
 40
0.0
 40
1.0
 40
1.0
 40
1.0
 10
84.4889888671875
 20
55.4925
 30
0.0
 10
84.43828330078125
 20
55.40314814453125
 30
0.0
 10
84.32234443359376
 20
55.35484814453125
 30
0.0
  0
SPLINE
  5
68
330
17
100
AcDbEntity
  8
ENGRAVE
100
AcDbSpline
 70
0
 71
2
 72
6
 73
3
 74
0
 40
0.0
 40
0.0
 40
0.0
 40
1.0
 40
1.0
 40
1.0
 10
84.32234443359376
 20
55.35484814453125
 30
0.0
 10
84.19678330078126
 20
55.311359277343755
 30
0.0
 10
84.08568701171876
 20
55.35000556640625
 30
0.0
  0
SPLINE
  5
69
330
17
100
AcDbEntity
  8
ENGRAVE
100
AcDbSpline
 70
0
 71
2
 72
6
 73
3
 74
0
 40
0.0
 40
0.0
 40
0.0
 40
1.0
 40
1.0
 40
1.0
 10
84.08568701171876
 20
55.35000556640625
 30
0.0
 10
83.97459072265626
 20
55.38865185546875
 30
0.0
 10
83.87799072265625
 20
55.51905556640625
 30
0.0
  0
SPLINE
  5
6A
330
17
100
AcDbEntity
  8
ENGRAVE
100
AcDbSpline
 70
0
 71
2
 72
6
 73
3
 74
0
 40
0.0
 40
0.0
 40
0.0
 40
1.0
 40
1.0
 40
1.0
 10
83.87799072265625
 20
55.51905556640625
 30
0.0
 10
83.72343701171876
 20
55.72675185546875
 30
0.0
 10
83.59543886718751
 20
55.842675
 30
0.0
  0
SPLINE
  5
6B
330
17
100
AcDbEntity
  8
ENGRAVE
100
AcDbSpline
 70
0
 71
2
 72
6
 73
3
 74
0
 40
0.0
 40
0.0
 40
0.0
 40
1.0
 40
1.0
 40
1.0
 10
83.59543886718751
 20
55.842675
 30
0.0
 10
83.46744072265625
 20
55.95859814453125
 30
0.0
 10
83.303217578125
 20
56.00447685546875
 30
0.0
  0
SPLINE
  5
6C
330
17
100
AcDbEntity
  8
ENGRAVE
100
AcDbSpline
 70
0
 71
2
 72
6
 73
3
 74
0
 40
0.0
 40
0.0
 40
0.0
 40
1.0
 40
1.0
 40
1.0
 10
83.303217578125
 20
56.00447685546875
 30
0.0
 10
83.13899443359375
 20
56.05035556640625
 30
0.0
 10
82.88299814453126
 20
56.05035556640625
 30
0.0
  0
LINE
  5
6D
330
17
100
AcDbEntity
  8
ENGRAVE
100
AcDbLine
 10
82.26959443359375
 20
56.05035556640625
 30
0.0
 11
82.88299814453126
 21
56.05035556640625
 31
0.0
  0
LINE
  5
6E
330
17
100
AcDbEntity
  8
ENGRAVE
100
AcDbLine
 10
82.26959443359375
 20
54.12800927734375
 30
0.0
 11
82.26959443359375
 21
56.05035556640625
 31
0.0
  0
SPLINE
  5
6F
330
17
100
AcDbEntity
  8
ENGRAVE
100
AcDbSpline
 70
0
 71
2
 72
6
 73
3
 74
0
 40
0.0
 40
0.0
 40
0.0
 40
1.0
 40
1.0
 40
1.0
 10
82.26959443359375
 20
54.12800927734375
 30
0.0
 10
82.26959443359375
 20
54.01210185546875
 30
0.0
 10
82.32514257812501
 20
53.9324037109375
 30
0.0
  0
SPLINE
  5
70
330
17
100
AcDbEntity
  8
ENGRAVE
100
AcDbSpline
 70
0
 71
2
 72
6
 73
3
 74
0
 40
0.0
 40
0.0
 40
0.0
 40
1.0
 40
1.0
 40
1.0
 10
82.32514257812501
 20
53.9324037109375
 30
0.0
 10
82.38069072265625
 20
53.85270556640625
 30
0.0
 10
82.51593701171876
 20
53.82374443359375
 30
0.0
  0
LINE
  5
71
330
17
100
AcDbEntity
  8
ENGRAVE
100
AcDbLine
 10
82.82023330078125
 20
53.760948144531255
 30
0.0
 11
82.51593701171876
 21
53.82374443359375
 31
0.0
  0
SPLINE
  5
72
330
17
100
AcDbEntity
  8
ENGRAVE
100
AcDbSpline
 70
0
 71
2
 72
6
 73
3
 74
0
 40
0.0
 40
0.0
 40
0.0
 40
1.0
 40
1.0
 40
1.0
 10
82.82023330078125
 20
53.760948144531255
 30
0.0
 10
82.96994443359375
 20
53.73195556640625
 30
0.0
 10
83.03274072265626
 20
53.652257421875
 30
0.0
  0
SPLINE
  5
73
330
17
100
AcDbEntity
  8
ENGRAVE
100
AcDbSpline
 70
0
 71
2
 72
6
 73
3
 74
0
 40
0.0
 40
0.0
 40
0.0
 40
1.0
 40
1.0
 40
1.0
 10
83.03274072265626
 20
53.652257421875
 30
0.0
 10
83.09553701171876
 20
53.57255927734375
 30
0.0
 10
83.09553701171876
 20
53.42284814453125
 30
0.0
  0
SPLINE
  5
74
330
17
100
AcDbEntity
  8
ENGRAVE
100
AcDbSpline
 70
0
 71
2
 72
6
 73
3
 74
0
 40
0.0
 40
0.0
 40
0.0
 40
1.0
 40
1.0
 40
1.0
 10
83.09553701171876
 20
53.42284814453125
 30
0.0
 10
83.09553701171876
 20
53.28275927734375
 30
0.0
 10
83.001342578125
 20
53.200655566406255
 30
0.0
  0
SPLINE
  5
75
330
17
100
AcDbEntity
  8
ENGRAVE
100
AcDbSpline
 70
0
 71
2
 72
6
 73
3
 74
0
 40
0.0
 40
0.0
 40
0.0
 40
1.0
 40
1.0
 40
1.0
 10
83.001342578125
 20
53.200655566406255
 30
0.0
 10
82.90714814453126
 20
53.11855185546875
 30
0.0
 10
82.70913701171875
 20
53.11855185546875
 30
0.0
  0
LINE
  5
76
330
17
100
AcDbEntity
  8
ENGRAVE
100
AcDbLine
 10
79.75799443359375
 20
53.11855185546875
 30
0.0
 11
82.70913701171875
 21
53.11855185546875
 31
0.0
  0
SPLINE
  5
77
330
17
100
AcDbEntity
  8
ENGRAVE
100
AcDbSpline
 70
0
 71
2
 72
6
 73
3
 74
0
 40
0.0
 40
0.0
 40
0.0
 40
1.0
 40
1.0
 40
1.0
 10
79.75799443359375
 20
53.11855185546875
 30
0.0
 10
79.55998330078125
 20
53.11855185546875
 30
0.0
 10
79.46578886718751
 20
53.200655566406255
 30
0.0
  0
SPLINE
  5
78
330
17
100
AcDbEntity
  8
ENGRAVE
100
AcDbSpline
 70
0
 71
2
 72
6
 73
3
 74
0
 40
0.0
 40
0.0
 40
0.0
 40
1.0
 40
1.0
 40
1.0
 10
79.46578886718751
 20
53.200655566406255
 30
0.0
 10
79.37159443359376
 20
53.28275927734375
 30
0.0
 10
79.37159443359376
 20
53.42284814453125
 30
0.0
  0
SPLINE
  5
79
330
17
100
AcDbEntity
  8
ENGRAVE
100
AcDbSpline
 70
0
 71
2
 72
6
 73
3
 74
0
 40
0.0
 40
0.0
 40
0.0
 40
1.0
 40
1.0
 40
1.0
 10
79.37159443359376
 20
53.42284814453125
 30
0.0
 10
79.37159443359376
 20
53.66915927734375
 30
0.0
 10
79.60828330078125
 20
53.756105566406255
 30
0.0
  0
LINE
  5
7A
330
17
100
AcDbEntity
  8
ENGRAVE
100
AcDbLine
 10
79.79664072265625
 20
53.82374443359375
 30
0.0
 11
79.60828330078125
 21
53.756105566406255
 31
0.0
  0
SPLINE
  5
7B
330
17
100
AcDbEntity
  8
ENGRAVE
100
AcDbSpline
 70
0
 71
2
 72
6
 73
3
 74
0
 40
0.0
 40
0.0
 40
0.0
 40
1.0
 40
1.0
 40
1.0
 10
79.79664072265625
 20
53.82374443359375
 30
0.0
 10
79.92223330078126
 20
53.86720185546875
 30
0.0
 10
79.98260830078125
 20
53.93965185546875
 30
0.0
  0
SPLINE
  5
7C
330
17
100
AcDbEntity
  8
ENGRAVE
100
AcDbSpline
 70
0
 71
2
 72
6
 73
3
 74
0
 40
0.0
 40
0.0
 40
0.0
 40
1.0
 40
1.0
 40
1.0
 10
79.98260830078125
 20
53.93965185546875
 30
0.0
 10
80.04298330078126
 20
54.01210185546875
 30
0.0
 10
80.04298330078126
 20
54.12800927734375
 30
0.0
  0
LINE
  5
7D
330
17
100
AcDbEntity
  8
ENGRAVE
100
AcDbLine
 10
80.04298330078126
 20
58.871094433593754
 30
0.0
 11
80.04298330078126
 21
54.12800927734375
 31
0.0
  0
SPLINE
  5
7E
330
17
100
AcDbEntity
  8
ENGRAVE
100
AcDbSpline
 70
0
 71
2
 72
6
 73
3
 74
0
 40
0.0
 40
0.0
 40
0.0
 40
1.0
 40
1.0
 40
1.0
 10
80.04298330078126
 20
58.871094433593754
 30
0.0
 10
80.04298330078126
 20
58.987001855468755
 30
0.0
 10
79.98260830078125
 20
59.05945185546875
 30
0.0
  0
SPLINE
  5
7F
330
17
100
AcDbEntity
  8
ENGRAVE
100
AcDbSpline
 70
0
 71
2
 72
6
 73
3
 74
0
 40
0.0
 40
0.0
 40
0.0
 40
1.0
 40
1.0
 40
1.0
 10
79.98260830078125
 20
59.05945185546875
 30
0.0
 10
79.92223330078126
 20
59.131901855468755
 30
0.0
 10
79.79664072265625
 20
59.17535927734375
 30
0.0
  0
LINE
  5
80
330
17
100
AcDbEntity
  8
ENGRAVE
100
AcDbLine
 10
79.60828330078125
 20
59.24299814453125
 30
0.0
 11
79.79664072265625
 21
59.17535927734375
 31
0.0
  0
SPLINE
  5
81
330
17
100
AcDbEntity
  8
ENGRAVE
100
AcDbSpline
 70
0
 71
2
 72
6
 73
3
 74
0
 40
0.0
 40
0.0
 40
0.0
 40
1.0
 40
1.0
 40
1.0
 10
79.60828330078125
 20
59.24299814453125
 30
0.0
 10
79.37159443359376
 20
59.32994443359375
 30
0.0
 10
79.37159443359376
 20
59.57625556640625
 30
0.0
  0
SPLINE
  5
82
330
17
100
AcDbEntity
  8
ENGRAVE
100
AcDbSpline
 70
0
 71
2
 72
6
 73
3
 74
0
 40
0.0
 40
0.0
 40
0.0
 40
1.0
 40
1.0
 40
1.0
 10
79.37159443359376
 20
59.57625556640625
 30
0.0
 10
79.37159443359376
 20
59.716344433593754
 30
0.0
 10
79.46578886718751
 20
59.79844814453125
 30
0.0
  0
SPLINE
  5
83
330
17
100
AcDbEntity
  8
ENGRAVE
100
AcDbSpline
 70
0
 71
2
 72
6
 73
3
 74
0
 40
0.0
 40
0.0
 40
0.0
 40
1.0
 40
1.0
 40
1.0
 10
79.46578886718751
 20
59.79844814453125
 30
0.0
 10
79.55998330078125
 20
59.88055185546875
 30
0.0
 10
79.75799443359375
 20
59.88055185546875
 30
0.0
  0
LINE
  5
84
330
17
100
AcDbEntity
  8
ENGRAVE
100
AcDbLine
 10
87.92553701171876
 20
54.074898144531254
 30
0.0
 11
87.92553701171876
 21
60.006144433593754
 31
0.0
  0
SPLINE
  5
85
330
17
100
AcDbEntity
  8
ENGRAVE
100
AcDbSpline
 70
0
 71
2
 72
6
 73
3
 74
0
 40
0.0
 40
0.0
 40
0.0
 40
1.0
 40
1.0
 40
1.0
 10
87.92553701171876
 20
54.074898144531254
 30
0.0
 10
87.92553701171876
 20
53.89135185546875
 30
0.0
 10
87.9545138671875
 20
53.814075
 30
0.0
  0
SPLINE
  5
86
330
17
100
AcDbEntity
  8
ENGRAVE
100
AcDbSpline
 70
0
 71
2
 72
6
 73
3
 74
0
 40
0.0
 40
0.0
 40
0.0
 40
1.0
 40
1.0
 40
1.0
 10
87.9545138671875
 20
53.814075
 30
0.0
 10
87.98349072265626
 20
53.73679814453125
 30
0.0
 10
88.05594072265626
 20
53.70780556640625
 30
0.0
  0
LINE
  5
87
330
17
100
AcDbEntity
  8
ENGRAVE
100
AcDbLine
 10
88.16703701171875
 20
53.65950556640625
 30
0.0
 11
88.05594072265626
 21
53.70780556640625
 31
0.0
  0
SPLINE
  5
88
330
17
100
AcDbEntity
  8
ENGRAVE
100
AcDbSpline
 70
0
 71
2
 72
6
 73
3
 74
0
 40
0.0
 40
0.0
 40
0.0
 40
1.0
 40
1.0
 40
1.0
 10
88.16703701171875
 20
53.65950556640625
 30
0.0
 10
88.27329072265626
 20
53.61604814453125
 30
0.0
 10
88.31916943359376
 20
53.548425
 30
0.0
  0
SPLINE
  5
89
330
17
100
AcDbEntity
  8
ENGRAVE
100
AcDbSpline
 70
0
 71
2
 72
6
 73
3
 74
0
 40
0.0
 40
0.0
 40
0.0
 40
1.0
 40
1.0
 40
1.0
 10
88.31916943359376
 20
53.548425
 30
0.0
 10
88.36504814453126
 20
53.480801855468755
 30
0.0
 10
88.36504814453126
 20
53.38904443359375
 30
0.0
  0
SPLINE
  5
8A
330
17
100
AcDbEntity
  8
ENGRAVE
100
AcDbSpline
 70
0
 71
2
 72
6
 73
3
 74
0
 40
0.0
 40
0.0
 40
0.0
 40
1.0
 40
1.0
 40
1.0
 10
88.36504814453126
 20
53.38904443359375
 30
0.0
 10
88.36504814453126
 20
53.26345185546875
 30
0.0
 10
88.28294443359376
 20
53.191001855468755
 30
0.0
  0
SPLINE
  5
8B
330
17
100
AcDbEntity
  8
ENGRAVE
100
AcDbSpline
 70
0
 71
2
 72
6
 73
3
 74
0
 40
0.0
 40
0.0
 40
0.0
 40
1.0
 40
1.0
 40
1.0
 10
88.28294443359376
 20
53.191001855468755
 30
0.0
 10
88.20084072265625
 20
53.11855185546875
 30
0.0
 10
88.02213701171875
 20
53.11855185546875
 30
0.0
  0
LINE
  5
8C
330
17
100
AcDbEntity
  8
ENGRAVE
100
AcDbLine
 10
85.80514814453126
 20
53.11855185546875
 30
0.0
 11
88.02213701171875
 21
53.11855185546875
 31
0.0
  0
SPLINE
  5
8D
330
17
100
AcDbEntity
  8
ENGRAVE
100
AcDbSpline
 70
0
 71
2
 72
6
 73
3
 74
0
 40
0.0
 40
0.0
 40
0.0
 40
1.0
 40
1.0
 40
1.0
 10
85.80514814453126
 20
53.11855185546875
 30
0.0
 10
85.62644443359376
 20
53.11855185546875
 30
0.0
 10
85.54434072265626
 20
53.191001855468755
 30
0.0
  0
SPLINE
  5
8E
330
17
100
AcDbEntity
  8
ENGRAVE
100
AcDbSpline
 70
0
 71
2
 72
6
 73
3
 74
0
 40
0.0
 40
0.0
 40
0.0
 40
1.0
 40
1.0
 40
1.0
 10
85.54434072265626
 20
53.191001855468755
 30
0.0
 10
85.46223701171876
 20
53.26345185546875
 30
0.0
 10
85.46223701171876
 20
53.38904443359375
 30
0.0
  0
SPLINE
  5
8F
330
17
100
AcDbEntity
  8
ENGRAVE
100
AcDbSpline
 70
0
 71
2
 72
6
 73
3
 74
0
 40
0.0
 40
0.0
 40
0.0
 40
1.0
 40
1.0
 40
1.0
 10
85.46223701171876
 20
53.38904443359375
 30
0.0
 10
85.46223701171876
 20
53.480801855468755
 30
0.0
 10
85.50811572265626
 20
53.548425
 30
0.0
  0
SPLINE
  5
90
330
17
100
AcDbEntity
  8
ENGRAVE
100
AcDbSpline
 70
0
 71
2
 72
6
 73
3
 74
0
 40
0.0
 40
0.0
 40
0.0
 40
1.0
 40
1.0
 40
1.0
 10
85.50811572265626
 20
53.548425
 30
0.0
 10
85.55399443359376
 20
53.61604814453125
 30
0.0
 10
85.66024814453125
 20
53.65950556640625
 30
0.0
  0
LINE
  5
91
330
17
100
AcDbEntity
  8
ENGRAVE
100
AcDbLine
 10
85.77134443359375
 20
53.70780556640625
 30
0.0
 11
85.66024814453125
 21
53.65950556640625
 31
0.0
  0
SPLINE
  5
92
330
17
100
AcDbEntity
  8
ENGRAVE
100
AcDbSpline
 70
0
 71
2
 72
6
 73
3
 74
0
 40
0.0
 40
0.0
 40
0.0
 40
1.0
 40
1.0
 40
1.0
 10
85.77134443359375
 20
53.70780556640625
 30
0.0
 10
85.84379443359376
 20
53.73679814453125
 30
0.0
 10
85.8727712890625
 20
53.814075
 30
0.0
  0
SPLINE
  5
93
330
17
100
AcDbEntity
  8
ENGRAVE
100
AcDbSpline
 70
0
 71
2
 72
6
 73
3
 74
0
 40
0.0
 40
0.0
 40
0.0
 40
1.0
 40
1.0
 40
1.0
 10
85.8727712890625
 20
53.814075
 30
0.0
 10
85.90174814453125
 20
53.89135185546875
 30
0.0
 10
85.90174814453125
 20
54.074898144531254
 30
0.0
  0
LINE
  5
94
330
17
100
AcDbEntity
  8
ENGRAVE
100
AcDbLine
 10
85.90174814453125
 20
58.95800927734375
 30
0.0
 11
85.90174814453125
 21
54.074898144531254
 31
0.0
  0
SPLINE
  5
95
330
17
100
AcDbEntity
  8
ENGRAVE
100
AcDbSpline
 70
0
 71
2
 72
6
 73
3
 74
0
 40
0.0
 40
0.0
 40
0.0
 40
1.0
 40
1.0
 40
1.0
 10
85.90174814453125
 20
58.95800927734375
 30
0.0
 10
85.90174814453125
 20
59.10775185546875
 30
0.0
 10
85.863117578125
 20
59.16812685546875
 30
0.0
  0
SPLINE
  5
96
330
17
100
AcDbEntity
  8
ENGRAVE
100
AcDbSpline
 70
0
 71
2
 72
6
 73
3
 74
0
 40
0.0
 40
0.0
 40
0.0
 40
1.0
 40
1.0
 40
1.0
 10
85.863117578125
 20
59.16812685546875
 30
0.0
 10
85.82448701171876
 20
59.22850185546875
 30
0.0
 10
85.74235185546875
 20
59.252651855468756
 30
0.0
  0
LINE
  5
97
330
17
100
AcDbEntity
  8
ENGRAVE
100
AcDbLine
 10
85.63128701171875
 20
59.281644433593755
 30
0.0
 11
85.74235185546875
 21
59.252651855468756
 31
0.0
  0
SPLINE
  5
98
330
17
100
AcDbEntity
  8
ENGRAVE
100
AcDbSpline
 70
0
 71
2
 72
6
 73
3
 74
0
 40
0.0
 40
0.0
 40
0.0
 40
1.0
 40
1.0
 40
1.0
 10
85.63128701171875
 20
59.281644433593755
 30
0.0
 10
85.53468701171876
 20
59.31544814453125
 30
0.0
 10
85.49121386718751
 20
59.37340185546875
 30
0.0
  0
SPLINE
  5
99
330
17
100
AcDbEntity
  8
ENGRAVE
100
AcDbSpline
 70
0
 71
2
 72
6
 73
3
 74
0
 40
0.0
 40
0.0
 40
0.0
 40
1.0
 40
1.0
 40
1.0
 10
85.49121386718751
 20
59.37340185546875
 30
0.0
 10
85.44774072265625
 20
59.43135556640625
 30
0.0
 10
85.44774072265625
 20
59.52314443359375
 30
0.0
  0
SPLINE
  5
9A
330
17
100
AcDbEntity
  8
ENGRAVE
100
AcDbSpline
 70
0
 71
2
 72
6
 73
3
 74
0
 40
0.0
 40
0.0
 40
0.0
 40
1.0
 40
1.0
 40
1.0
 10
85.44774072265625
 20
59.52314443359375
 30
0.0
 10
85.44774072265625
 20
59.62939814453125
 30
0.0
 10
85.50569443359376
 20
59.692178710937505
 30
0.0
  0
SPLINE
  5
9B
330
17
100
AcDbEntity
  8
ENGRAVE
100
AcDbSpline
 70
0
 71
2
 72
6
 73
3
 74
0
 40
0.0
 40
0.0
 40
0.0
 40
1.0
 40
1.0
 40
1.0
 10
85.50569443359376
 20
59.692178710937505
 30
0.0
 10
85.56364814453126
 20
59.75495927734375
 30
0.0
 10
85.72788701171875
 20
59.81775556640625
 30
0.0
  0
LINE
  5
9C
330
17
100
AcDbEntity
  8
ENGRAVE
100
AcDbLine
 10
86.85809443359375
 20
60.242801855468755
 30
0.0
 11
85.72788701171875
 21
59.81775556640625
 31
0.0
  0
SPLINE
  5
9D
330
17
100
AcDbEntity
  8
ENGRAVE
100
AcDbSpline
 70
0
 71
2
 72
6
 73
3
 74
0
 40
0.0
 40
0.0
 40
0.0
 40
1.0
 40
1.0
 40
1.0
 10
86.85809443359375
 20
60.242801855468755
 30
0.0
 10
87.10443701171876
 20
60.33455927734375
 30
0.0
 10
87.24449443359376
 20
60.373205566406256
 30
0.0
  0
SPLINE
  5
9E
330
17
100
AcDbEntity
  8
ENGRAVE
100
AcDbSpline
 70
0
 71
2
 72
6
 73
3
 74
0
 40
0.0
 40
0.0
 40
0.0
 40
1.0
 40
1.0
 40
1.0
 10
87.24449443359376
 20
60.373205566406256
 30
0.0
 10
87.38455185546876
 20
60.411851855468754
 30
0.0
 10
87.49083701171875
 20
60.411851855468754
 30
0.0
  0
SPLINE
  5
9F
330
17
100
AcDbEntity
  8
ENGRAVE
100
AcDbSpline
 70
0
 71
2
 72
6
 73
3
 74
0
 40
0.0
 40
0.0
 40
0.0
 40
1.0
 40
1.0
 40
1.0
 10
87.49083701171875
 20
60.411851855468754
 30
0.0
 10
87.70818701171875
 20
60.411851855468754
 30
0.0
 10
87.81686201171875
 20
60.2959287109375
 30
0.0
  0
SPLINE
  5
A0
330
17
100
AcDbEntity
  8
ENGRAVE
100
AcDbSpline
 70
0
 71
2
 72
6
 73
3
 74
0
 40
0.0
 40
0.0
 40
0.0
 40
1.0
 40
1.0
 40
1.0
 10
87.81686201171875
 20
60.2959287109375
 30
0.0
 10
87.92553701171876
 20
60.18000556640625
 30
0.0
 10
87.92553701171876
 20
60.006144433593754
 30
0.0
  0
LINE
  5
A1
330
17
100
AcDbEntity
  8
ENGRAVE
100
AcDbLine
 10
89.15715556640626
 20
56.436755566406255
 30
0.0
 11
89.15715556640626
 21
54.499944433593754
 31
0.0
  0
SPLINE
  5
A2
330
17
100
AcDbEntity
  8
ENGRAVE
100
AcDbSpline
 70
0
 71
2
 72
6
 73
3
 74
0
 40
0.0
 40
0.0
 40
0.0
 40
1.0
 40
1.0
 40
1.0
 10
89.15715556640626
 20
56.436755566406255
 30
0.0
 10
89.15715556640626
 20
56.581655566406255
 30
0.0
 10
89.118525
 20
56.64445185546875
 30
0.0
  0
SPLINE
  5
A3
330
17
100
AcDbEntity
  8
ENGRAVE
100
AcDbSpline
 70
0
 71
2
 72
6
 73
3
 74
0
 40
0.0
 40
0.0
 40
0.0
 40
1.0
 40
1.0
 40
1.0
 10
89.118525
 20
56.64445185546875
 30
0.0
 10
89.07989443359375
 20
56.70724814453125
 30
0.0
 10
88.99775927734376
 20
56.726555566406255
 30
0.0
  0
LINE
  5
A4
330
17
100
AcDbEntity
  8
ENGRAVE
100
AcDbLine
 10
88.88669443359376
 20
56.76035927734375
 30
0.0
 11
88.99775927734376
 21
56.726555566406255
 31
0.0
  0
SPLINE
  5
A5
330
17
100
AcDbEntity
  8
ENGRAVE
100
AcDbSpline
 70
0
 71
2
 72
6
 73
3
 74
0
 40
0.0
 40
0.0
 40
0.0
 40
1.0
 40
1.0
 40
1.0
 10
88.88669443359376
 20
56.76035927734375
 30
0.0
 10
88.79009443359375
 20
56.78935185546875
 30
0.0
 10
88.7466212890625
 20
56.84972685546875
 30
0.0
  0
SPLINE
  5
A6
330
17
100
AcDbEntity
  8
ENGRAVE
100
AcDbSpline
 70
0
 71
2
 72
6
 73
3
 74
0
 40
0.0
 40
0.0
 40
0.0
 40
1.0
 40
1.0
 40
1.0
 10
88.7466212890625
 20
56.84972685546875
 30
0.0
 10
88.70314814453126
 20
56.91010185546875
 30
0.0
 10
88.70314814453126
 20
56.99704814453125
 30
0.0
  0
SPLINE
  5
A7
330
17
100
AcDbEntity
  8
ENGRAVE
100
AcDbSpline
 70
0
 71
2
 72
6
 73
3
 74
0
 40
0.0
 40
0.0
 40
0.0
 40
1.0
 40
1.0
 40
1.0
 10
88.70314814453126
 20
56.99704814453125
 30
0.0
 10
88.70314814453126
 20
57.10814443359375
 30
0.0
 10
88.76110185546875
 20
57.170925000000004
 30
0.0
  0
SPLINE
  5
A8
330
17
100
AcDbEntity
  8
ENGRAVE
100
AcDbSpline
 70
0
 71
2
 72
6
 73
3
 74
0
 40
0.0
 40
0.0
 40
0.0
 40
1.0
 40
1.0
 40
1.0
 10
88.76110185546875
 20
57.170925000000004
 30
0.0
 10
88.81905556640625
 20
57.23370556640625
 30
0.0
 10
88.98329443359376
 20
57.296501855468755
 30
0.0
  0
LINE
  5
A9
330
17
100
AcDbEntity
  8
ENGRAVE
100
AcDbLine
 10
90.11350185546875
 20
57.716705566406254
 30
0.0
 11
88.98329443359376
 21
57.296501855468755
 31
0.0
  0
SPLINE
  5
AA
330
17
100
AcDbEntity
  8
ENGRAVE
100
AcDbSpline
 70
0
 71
2
 72
6
 73
3
 74
0
 40
0.0
 40
0.0
 40
0.0
 40
1.0
 40
1.0
 40
1.0
 10
90.11350185546875
 20
57.716705566406254
 30
0.0
 10
90.35984443359375
 20
57.81330556640625
 30
0.0
 10
90.49990185546875
 20
57.851951855468755
 30
0.0
  0
SPLINE
  5
AB
330
17
100
AcDbEntity
  8
ENGRAVE
100
AcDbSpline
 70
0
 71
2
 72
6
 73
3
 74
0
 40
0.0
 40
0.0
 40
0.0
 40
1.0
 40
1.0
 40
1.0
 10
90.49990185546875
 20
57.851951855468755
 30
0.0
 10
90.63995927734375
 20
57.89059814453125
 30
0.0
 10
90.74624443359376
 20
57.89059814453125
 30
0.0
  0
SPLINE
  5
AC
330
17
100
AcDbEntity
  8
ENGRAVE
100
AcDbSpline
 70
0
 71
2
 72
6
 73
3
 74
0
 40
0.0
 40
0.0
 40
0.0
 40
1.0
 40
1.0
 40
1.0
 10
90.74624443359376
 20
57.89059814453125
 30
0.0
 10
90.96359443359376
 20
57.89059814453125
 30
0.0
 10
91.07226943359376
 20
57.774675
 30
0.0
  0
SPLINE
  5
AD
330
17
100
AcDbEntity
  8
ENGRAVE
100
AcDbSpline
 70
0
 71
2
 72
6
 73
3
 74
0
 40
0.0
 40
0.0
 40
0.0
 40
1.0
 40
1.0
 40
1.0
 10
91.07226943359376
 20
57.774675
 30
0.0
 10
91.18094443359375
 20
57.65875185546875
 30
0.0
 10
91.18094443359375
 20
57.48485927734375
 30
0.0
  0
LINE
  5
AE
330
17
100
AcDbEntity
  8
ENGRAVE
100
AcDbLine
 10
91.18094443359375
 20
54.78005927734375
 30
0.0
 11
91.18094443359375
 21
57.48485927734375
 31
0.0
  0
SPLINE
  5
AF
330
17
100
AcDbEntity
  8
ENGRAVE
100
AcDbSpline
 70
0
 71
2
 72
6
 73
3
 74
0
 40
0.0
 40
0.0
 40
0.0
 40
1.0
 40
1.0
 40
1.0
 10
91.18094443359375
 20
54.78005927734375
 30
0.0
 10
91.18094443359375
 20
54.475794433593755
 30
0.0
 10
91.32100185546875
 20
54.321225
 30
0.0
  0
SPLINE
  5
B0
330
17
100
AcDbEntity
  8
ENGRAVE
100
AcDbSpline
 70
0
 71
2
 72
6
 73
3
 74
0
 40
0.0
 40
0.0
 40
0.0
 40
1.0
 40
1.0
 40
1.0
 10
91.32100185546875
 20
54.321225
 30
0.0
 10
91.46105927734375
 20
54.16665556640625
 30
0.0
 10
91.71705556640626
 20
54.16665556640625
 30
0.0
  0
SPLINE
  5
B1
330
17
100
AcDbEntity
  8
ENGRAVE
100
AcDbSpline
 70
0
 71
2
 72
6
 73
3
 74
0
 40
0.0
 40
0.0
 40
0.0
 40
1.0
 40
1.0
 40
1.0
 10
91.71705556640626
 20
54.16665556640625
 30
0.0
 10
91.87160927734375
 20
54.16665556640625
 30
0.0
 10
92.04550185546876
 20
54.22945185546875
 30
0.0
  0
SPLINE
  5
B2
330
17
100
AcDbEntity
  8
ENGRAVE
100
AcDbSpline
 70
0
 71
2
 72
6
 73
3
 74
0
 40
0.0
 40
0.0
 40
0.0
 40
1.0
 40
1.0
 40
1.0
 10
92.04550185546876
 20
54.22945185546875
 30
0.0
 10
92.15175556640625
 20
54.26809814453125
 30
0.0
 10
92.24835556640626
 20
54.335705566406254
 30
0.0
  0
LINE
  5
B3
330
17
100
AcDbEntity
  8
ENGRAVE
100
AcDbLine
 10
92.24835556640626
 20
56.43675556640625
 30
0.0
 11
92.24835556640626
 21
54.335705566406254
 31
0.0
  0
SPLINE
  5
B4
330
17
100
AcDbEntity
  8
ENGRAVE
100
AcDbSpline
 70
0
 71
2
 72
6
 73
3
 74
0
 40
0.0
 40
0.0
 40
0.0
 40
1.0
 40
1.0
 40
1.0
 10
92.24835556640626
 20
56.436755566406255
 30
0.0
 10
92.24835556640626
 20
56.581655566406255
 30
0.0
 10
92.209725
 20
56.64445185546875
 30
0.0
  0
SPLINE
  5
B5
330
17
100
AcDbEntity
  8
ENGRAVE
100
AcDbSpline
 70
0
 71
2
 72
6
 73
3
 74
0
 40
0.0
 40
0.0
 40
0.0
 40
1.0
 40
1.0
 40
1.0
 10
92.209725
 20
56.64445185546875
 30
0.0
 10
92.17109443359375
 20
56.70724814453125
 30
0.0
 10
92.09380185546875
 20
56.726555566406255
 30
0.0
  0
LINE
  5
B6
330
17
100
AcDbEntity
  8
ENGRAVE
100
AcDbLine
 10
91.97789443359376
 20
56.76035927734375
 30
0.0
 11
92.09380185546875
 21
56.726555566406255
 31
0.0
  0
SPLINE
  5
B7
330
17
100
AcDbEntity
  8
ENGRAVE
100
AcDbSpline
 70
0
 71
2
 72
6
 73
3
 74
0
 40
0.0
 40
0.0
 40
0.0
 40
1.0
 40
1.0
 40
1.0
 10
91.97789443359376
 20
56.76035927734375
 30
0.0
 10
91.88129443359375
 20
56.78935185546875
 30
0.0
 10
91.8378212890625
 20
56.84972685546875
 30
0.0
  0
SPLINE
  5
B8
330
17
100
AcDbEntity
  8
ENGRAVE
100
AcDbSpline
 70
0
 71
2
 72
6
 73
3
 74
0
 40
0.0
 40
0.0
 40
0.0
 40
1.0
 40
1.0
 40
1.0
 10
91.8378212890625
 20
56.84972685546875
 30
0.0
 10
91.79434814453126
 20
56.91010185546875
 30
0.0
 10
91.79434814453126
 20
56.99704814453125
 30
0.0
  0
SPLINE
  5
B9
330
17
100
AcDbEntity
  8
ENGRAVE
100
AcDbSpline
 70
0
 71
2
 72
6
 73
3
 74
0
 40
0.0
 40
0.0
 40
0.0
 40
1.0
 40
1.0
 40
1.0
 10
91.79434814453126
 20
56.99704814453125
 30
0.0
 10
91.79434814453126
 20
57.10814443359375
 30
0.0
 10
91.85472314453125
 20
57.170925000000004
 30
0.0
  0
SPLINE
  5
BA
330
17
100
AcDbEntity
  8
ENGRAVE
100
AcDbSpline
 70
0
 71
2
 72
6
 73
3
 74
0
 40
0.0
 40
0.0
 40
0.0
 40
1.0
 40
1.0
 40
1.0
 10
91.85472314453125
 20
57.170925000000004
 30
0.0
 10
91.91509814453126
 20
57.23370556640625
 30
0.0
 10
92.07449443359376
 20
57.296501855468755
 30
0.0
  0
LINE
  5
BB
330
17
100
AcDbEntity
  8
ENGRAVE
100
AcDbLine
 10
93.20954443359375
 20
57.716705566406254
 30
0.0
 11
92.07449443359376
 21
57.296501855468755
 31
0.0
  0
SPLINE
  5
BC
330
17
100
AcDbEntity
  8
ENGRAVE
100
AcDbSpline
 70
0
 71
2
 72
6
 73
3
 74
0
 40
0.0
 40
0.0
 40
0.0
 40
1.0
 40
1.0
 40
1.0
 10
93.20954443359375
 20
57.716705566406254
 30
0.0
 10
93.44135927734375
 20
57.80849443359375
 30
0.0
 10
93.58143242187501
 20
57.8495462890625
 30
0.0
  0
SPLINE
  5
BD
330
17
100
AcDbEntity
  8
ENGRAVE
100
AcDbSpline
 70
0
 71
2
 72
6
 73
3
 74
0
 40
0.0
 40
0.0
 40
0.0
 40
1.0
 40
1.0
 40
1.0
 10
93.58143242187501
 20
57.8495462890625
 30
0.0
 10
93.72150556640625
 20
57.89059814453125
 30
0.0
 10
93.86159443359375
 20
57.89059814453125
 30
0.0
  0
SPLINE
  5
BE
330
17
100
AcDbEntity
  8
ENGRAVE
100
AcDbSpline
 70
0
 71
2
 72
6
 73
3
 74
0
 40
0.0
 40
0.0
 40
0.0
 40
1.0
 40
1.0
 40
1.0
 10
93.86159443359375
 20
57.89059814453125
 30
0.0
 10
94.06444814453126
 20
57.89059814453125
 30
0.0
 10
94.16829628906251
 20
57.774675
 30
0.0
  0
SPLINE
  5
BF
330
17
100
AcDbEntity
  8
ENGRAVE
100
AcDbSpline
 70
0
 71
2
 72
6
 73
3
 74
0
 40
0.0
 40
0.0
 40
0.0
 40
1.0
 40
1.0
 40
1.0
 10
94.16829628906251
 20
57.774675
 30
0.0
 10
94.27214443359375
 20
57.65875185546875
 30
0.0
 10
94.27214443359375
 20
57.48485927734375
 30
0.0
  0
LINE
  5
C0
330
17
100
AcDbEntity
  8
ENGRAVE
100
AcDbLine
 10
94.27214443359375
 20
54.074898144531254
 30
0.0
 11
94.27214443359375
 21
57.48485927734375
 31
0.0
  0
SPLINE
  5
C1
330
17
100
AcDbEntity
  8
ENGRAVE
100
AcDbSpline
 70
0
 71
2
 72
6
 73
3
 74
0
 40
0.0
 40
0.0
 40
0.0
 40
1.0
 40
1.0
 40
1.0
 10
94.27214443359375
 20
54.074898144531254
 30
0.0
 10
94.27214443359375
 20
53.89135185546875
 30
0.0
 10
94.30112128906251
 20
53.814075
 30
0.0
  0
SPLINE
  5
C2
330
17
100
AcDbEntity
  8
ENGRAVE
100
AcDbSpline
 70
0
 71
2
 72
6
 73
3
 74
0
 40
0.0
 40
0.0
 40
0.0
 40
1.0
 40
1.0
 40
1.0
 10
94.30112128906251
 20
53.814075
 30
0.0
 10
94.33009814453126
 20
53.73679814453125
 30
0.0
 10
94.40254814453125
 20
53.70780556640625
 30
0.0
  0
LINE
  5
C3
330
17
100
AcDbEntity
  8
ENGRAVE
100
AcDbLine
 10
94.51364443359375
 20
53.65950556640625
 30
0.0
 11
94.40254814453125
 21
53.70780556640625
 31
0.0
  0
SPLINE
  5
C4
330
17
100
AcDbEntity
  8
ENGRAVE
100
AcDbSpline
 70
0
 71
2
 72
6
 73
3
 74
0
 40
0.0
 40
0.0
 40
0.0
 40
1.0
 40
1.0
 40
1.0
 10
94.51364443359375
 20
53.65950556640625
 30
0.0
 10
94.61989814453125
 20
53.61604814453125
 30
0.0
 10
94.66577685546875
 20
53.548425
 30
0.0
  0
SPLINE
  5
C5
330
17
100
AcDbEntity
  8
ENGRAVE
100
AcDbSpline
 70
0
 71
2
 72
6
 73
3
 74
0
 40
0.0
 40
0.0
 40
0.0
 40
1.0
 40
1.0
 40
1.0
 10
94.66577685546875
 20
53.548425
 30
0.0
 10
94.71165556640625
 20
53.480801855468755
 30
0.0
 10
94.71165556640625
 20
53.38904443359375
 30
0.0
  0
SPLINE
  5
C6
330
17
100
AcDbEntity
  8
ENGRAVE
100
AcDbSpline
 70
0
 71
2
 72
6
 73
3
 74
0
 40
0.0
 40
0.0
 40
0.0
 40
1.0
 40
1.0
 40
1.0
 10
94.71165556640625
 20
53.38904443359375
 30
0.0
 10
94.71165556640625
 20
53.26345185546875
 30
0.0
 10
94.62955185546876
 20
53.191001855468755
 30
0.0
  0
SPLINE
  5
C7
330
17
100
AcDbEntity
  8
ENGRAVE
100
AcDbSpline
 70
0
 71
2
 72
6
 73
3
 74
0
 40
0.0
 40
0.0
 40
0.0
 40
1.0
 40
1.0
 40
1.0
 10
94.62955185546876
 20
53.191001855468755
 30
0.0
 10
94.54744814453126
 20
53.11855185546875
 30
0.0
 10
94.36874443359376
 20
53.11855185546875
 30
0.0
  0
LINE
  5
C8
330
17
100
AcDbEntity
  8
ENGRAVE
100
AcDbLine
 10
93.12740927734376
 20
53.11855185546875
 30
0.0
 11
94.36874443359376
 21
53.11855185546875
 31
0.0
  0
SPLINE
  5
C9
330
17
100
AcDbEntity
  8
ENGRAVE
100
AcDbSpline
 70
0
 71
2
 72
6
 73
3
 74
0
 40
0.0
 40
0.0
 40
0.0
 40
1.0
 40
1.0
 40
1.0
 10
93.12740927734376
 20
53.11855185546875
 30
0.0
 10
92.80380556640625
 20
53.11855185546875
 30
0.0
 10
92.56230556640625
 20
53.39385556640625
 30
0.0
  0
SPLINE
  5
CA
330
17
100
AcDbEntity
  8
ENGRAVE
100
AcDbSpline
 70
0
 71
2
 72
6
 73
3
 74
0
 40
0.0
 40
0.0
 40
0.0
 40
1.0
 40
1.0
 40
1.0
 10
92.56230556640625
 20
53.39385556640625
 30
0.0
 10
92.37875927734376
 20
53.59189814453125
 30
0.0
 10
92.33530185546876
 20
53.84789443359375
 30
0.0
  0
SPLINE
  5
CB
330
17
100
AcDbEntity
  8
ENGRAVE
100
AcDbSpline
 70
0
 71
2
 72
6
 73
3
 74
0
 40
0.0
 40
0.0
 40
0.0
 40
1.0
 40
1.0
 40
1.0
 10
92.33530185546876
 20
53.84789443359375
 30
0.0
 10
91.85230185546875
 20
53.43250185546875
 30
0.0
 10
91.47555556640626
 20
53.24414443359375
 30
0.0
  0
SPLINE
  5
CC
330
17
100
AcDbEntity
  8
ENGRAVE
100
AcDbSpline
 70
0
 71
2
 72
6
 73
3
 74
0
 40
0.0
 40
0.0
 40
0.0
 40
1.0
 40
1.0
 40
1.0
 10
91.47555556640626
 20
53.24414443359375
 30
0.0
 10
90.97805927734376
 20
52.98814814453125
 30
0.0
 10
90.56269814453125
 20
52.98814814453125
 30
0.0
  0
SPLINE
  5
CD
330
17
100
AcDbEntity
  8
ENGRAVE
100
AcDbSpline
 70
0
 71
2
 72
6
 73
3
 74
0
 40
0.0
 40
0.0
 40
0.0
 40
1.0
 40
1.0
 40
1.0
 10
90.56269814453125
 20
52.98814814453125
 30
0.0
 10
89.93479814453126
 20
52.98814814453125
 30
0.0
 10
89.54597685546875
 20
53.403525
 30
0.0
  0
SPLINE
  5
CE
330
17
100
AcDbEntity
  8
ENGRAVE
100
AcDbSpline
 70
0
 71
2
 72
6
 73
3
 74
0
 40
0.0
 40
0.0
 40
0.0
 40
1.0
 40
1.0
 40
1.0
 10
89.54597685546875
 20
53.403525
 30
0.0
 10
89.15715556640626
 20
53.81890185546875
 30
0.0
 10
89.15715556640626
 20
54.499944433593754
 30
0.0
  0
LINE
  5
CF
330
17
100
AcDbEntity
  8
ENGRAVE
100
AcDbLine
 10
98.57081298828126
 20
56.08900185546875
 30
0.0
 11
98.03951298828126
 21
56.85214814453125
 31
0.0
  0
LINE
  5
D0
330
17
100
AcDbEntity
  8
ENGRAVE
100
AcDbLine
 10
98.90410185546875
 20
56.54300927734375
 30
0.0
 11
98.57081298828126
 21
56.08900185546875
 31
0.0
  0
SPLINE
  5
D1
330
17
100
AcDbEntity
  8
ENGRAVE
100
AcDbSpline
 70
0
 71
2
 72
6
 73
3
 74
0
 40
0.0
 40
0.0
 40
0.0
 40
1.0
 40
1.0
 40
1.0
 10
98.90410185546875
 20
56.54300927734375
 30
0.0
 10
99.07315185546875
 20
56.77004443359375
 30
0.0
 10
99.04417500000001
 20
56.941500000000005
 30
0.0
  0
SPLINE
  5
D2
330
17
100
AcDbEntity
  8
ENGRAVE
100
AcDbSpline
 70
0
 71
2
 72
6
 73
3
 74
0
 40
0.0
 40
0.0
 40
0.0
 40
1.0
 40
1.0
 40
1.0
 10
99.04417500000001
 20
56.941500000000005
 30
0.0
 10
99.01519814453125
 20
57.11295556640625
 30
0.0
 10
98.85580185546875
 20
57.180594433593754
 30
0.0
  0
LINE
  5
D3
330
17
100
AcDbEntity
  8
ENGRAVE
100
AcDbLine
 10
98.76401298828125
 20
57.21920927734375
 30
0.0
 11
98.85580185546875
 21
57.180594433593754
 31
0.0
  0
SPLINE
  5
D4
330
17
100
AcDbEntity
  8
ENGRAVE
100
AcDbSpline
 70
0
 71
2
 72
6
 73
3
 74
0
 40
0.0
 40
0.0
 40
0.0
 40
1.0
 40
1.0
 40
1.0
 10
98.76401298828125
 20
57.21920927734375
 30
0.0
 10
98.67225556640626
 20
57.26750927734375
 30
0.0
 10
98.62637685546876
 20
57.327884277343756
 30
0.0
  0
SPLINE
  5
D5
330
17
100
AcDbEntity
  8
ENGRAVE
100
AcDbSpline
 70
0
 71
2
 72
6
 73
3
 74
0
 40
0.0
 40
0.0
 40
0.0
 40
1.0
 40
1.0
 40
1.0
 10
98.62637685546876
 20
57.327884277343756
 30
0.0
 10
98.58049814453126
 20
57.38825927734375
 30
0.0
 10
98.58049814453126
 20
57.47520556640625
 30
0.0
  0
SPLINE
  5
D6
330
17
100
AcDbEntity
  8
ENGRAVE
100
AcDbSpline
 70
0
 71
2
 72
6
 73
3
 74
0
 40
0.0
 40
0.0
 40
0.0
 40
1.0
 40
1.0
 40
1.0
 10
98.58049814453126
 20
57.47520556640625
 30
0.0
 10
98.58049814453126
 20
57.60560927734375
 30
0.0
 10
98.67225556640626
 20
57.67805927734375
 30
0.0
  0
SPLINE
  5
D7
330
17
100
AcDbEntity
  8
ENGRAVE
100
AcDbSpline
 70
0
 71
2
 72
6
 73
3
 74
0
 40
0.0
 40
0.0
 40
0.0
 40
1.0
 40
1.0
 40
1.0
 10
98.67225556640626
 20
57.67805927734375
 30
0.0
 10
98.76401298828125
 20
57.75050927734375
 30
0.0
 10
98.91375556640625
 20
57.75050927734375
 30
0.0
  0
LINE
  5
D8
330
17
100
AcDbEntity
  8
ENGRAVE
100
AcDbLine
 10
100.23716298828126
 20
57.75050927734375
 30
0.0
 11
98.91375556640625
 21
57.75050927734375
 31
0.0
  0
SPLINE
  5
D9
330
17
100
AcDbEntity
  8
ENGRAVE
100
AcDbSpline
 70
0
 71
2
 72
6
 73
3
 74
0
 40
0.0
 40
0.0
 40
0.0
 40
1.0
 40
1.0
 40
1.0
 10
100.23716298828126
 20
57.75050927734375
 30
0.0
 10
100.39655927734375
 20
57.75050927734375
 30
0.0
 10
100.48350556640625
 20
57.67805927734375
 30
0.0
  0
SPLINE
  5
DA
330
17
100
AcDbEntity
  8
ENGRAVE
100
AcDbSpline
 70
0
 71
2
 72
6
 73
3
 74
0
 40
0.0
 40
0.0
 40
0.0
 40
1.0
 40
1.0
 40
1.0
 10
100.48350556640625
 20
57.67805927734375
 30
0.0
 10
100.57045185546876
 20
57.60560927734375
 30
0.0
 10
100.57045185546876
 20
57.47520556640625
 30
0.0
  0
SPLINE
  5
DB
330
17
100
AcDbEntity
  8
ENGRAVE
100
AcDbSpline
 70
0
 71
2
 72
6
 73
3
 74
0
 40
0.0
 40
0.0
 40
0.0
 40
1.0
 40
1.0
 40
1.0
 10
100.57045185546876
 20
57.47520556640625
 30
0.0
 10
100.57045185546876
 20
57.38344814453125
 30
0.0
 10
100.51973056640625
 20
57.3182462890625
 30
0.0
  0
SPLINE
  5
DC
330
17
100
AcDbEntity
  8
ENGRAVE
100
AcDbSpline
 70
0
 71
2
 72
6
 73
3
 74
0
 40
0.0
 40
0.0
 40
0.0
 40
1.0
 40
1.0
 40
1.0
 10
100.51973056640625
 20
57.3182462890625
 30
0.0
 10
100.46900927734376
 20
57.25304443359375
 30
0.0
 10
100.34344814453127
 20
57.180594433593754
 30
0.0
  0
SPLINE
  5
DD
330
17
100
AcDbEntity
  8
ENGRAVE
100
AcDbSpline
 70
0
 71
2
 72
6
 73
3
 74
0
 40
0.0
 40
0.0
 40
0.0
 40
1.0
 40
1.0
 40
1.0
 10
100.34344814453127
 20
57.180594433593754
 30
0.0
 10
100.09226298828126
 20
57.07430927734375
 30
0.0
 10
99.9063111328125
 20
56.876282421875004
 30
0.0
  0
SPLINE
  5
DE
330
17
100
AcDbEntity
  8
ENGRAVE
100
AcDbSpline
 70
0
 71
2
 72
6
 73
3
 74
0
 40
0.0
 40
0.0
 40
0.0
 40
1.0
 40
1.0
 40
1.0
 10
99.9063111328125
 20
56.876282421875004
 30
0.0
 10
99.72035927734376
 20
56.67825556640625
 30
0.0
 10
99.41125185546876
 20
56.291855566406255
 30
0.0
  0
LINE
  5
DF
330
17
100
AcDbEntity
  8
ENGRAVE
100
AcDbLine
 10
98.90891298828126
 20
55.620498144531254
 30
0.0
 11
99.41125185546876
 21
56.291855566406255
 31
0.0
  0
LINE
  5
E0
330
17
100
AcDbEntity
  8
ENGRAVE
100
AcDbLine
 10
100.02465556640625
 20
54.10870185546875
 30
0.0
 11
98.90891298828126
 21
55.620498144531254
 31
0.0
  0
SPLINE
  5
E1
330
17
100
AcDbEntity
  8
ENGRAVE
100
AcDbSpline
 70
0
 71
2
 72
6
 73
3
 74
0
 40
0.0
 40
0.0
 40
0.0
 40
1.0
 40
1.0
 40
1.0
 10
100.02465556640625
 20
54.10870185546875
 30
0.0
 10
100.17439814453125
 20
53.915501855468754
 30
0.0
 10
100.26615556640625
 20
53.81890185546875
 30
0.0
  0
SPLINE
  5
E2
330
17
100
AcDbEntity
  8
ENGRAVE
100
AcDbSpline
 70
0
 71
2
 72
6
 73
3
 74
0
 40
0.0
 40
0.0
 40
0.0
 40
1.0
 40
1.0
 40
1.0
 10
100.26615556640625
 20
53.81890185546875
 30
0.0
 10
100.35791298828126
 20
53.72230185546875
 30
0.0
 10
100.44004814453126
 20
53.66915927734375
 30
0.0
  0
SPLINE
  5
E3
330
17
100
AcDbEntity
  8
ENGRAVE
100
AcDbSpline
 70
0
 71
2
 72
6
 73
3
 74
0
 40
0.0
 40
0.0
 40
0.0
 40
1.0
 40
1.0
 40
1.0
 10
100.44004814453126
 20
53.66915927734375
 30
0.0
 10
100.53664814453126
 20
53.611205566406255
 30
0.0
 10
100.58252685546876
 20
53.548425
 30
0.0
  0
SPLINE
  5
E4
330
17
100
AcDbEntity
  8
ENGRAVE
100
AcDbSpline
 70
0
 71
2
 72
6
 73
3
 74
0
 40
0.0
 40
0.0
 40
0.0
 40
1.0
 40
1.0
 40
1.0
 10
100.58252685546876
 20
53.548425
 30
0.0
 10
100.62840556640626
 20
53.485644433593755
 30
0.0
 10
100.62840556640626
 20
53.39385556640625
 30
0.0
  0
SPLINE
  5
E5
330
17
100
AcDbEntity
  8
ENGRAVE
100
AcDbSpline
 70
0
 71
2
 72
6
 73
3
 74
0
 40
0.0
 40
0.0
 40
0.0
 40
1.0
 40
1.0
 40
1.0
 10
100.62840556640626
 20
53.39385556640625
 30
0.0
 10
100.62840556640626
 20
53.26829443359375
 30
0.0
 10
100.53905371093751
 20
53.19342314453125
 30
0.0
  0
SPLINE
  5
E6
330
17
100
AcDbEntity
  8
ENGRAVE
100
AcDbSpline
 70
0
 71
2
 72
6
 73
3
 74
0
 40
0.0
 40
0.0
 40
0.0
 40
1.0
 40
1.0
 40
1.0
 10
100.53905371093751
 20
53.19342314453125
 30
0.0
 10
100.44970185546876
 20
53.11855185546875
 30
0.0
 10
100.29030556640626
 20
53.11855185546875
 30
0.0
  0
LINE
  5
E7
330
17
100
AcDbEntity
  8
ENGRAVE
100
AcDbLine
 10
97.73524814453125
 20
53.11855185546875
 30
0.0
 11
100.29030556640626
 21
53.11855185546875
 31
0.0
  0
SPLINE
  5
E8
330
17
100
AcDbEntity
  8
ENGRAVE
100
AcDbSpline
 70
0
 71
2
 72
6
 73
3
 74
0
 40
0.0
 40
0.0
 40
0.0
 40
1.0
 40
1.0
 40
1.0
 10
97.73524814453125
 20
53.11855185546875
 30
0.0
 10
97.57100927734376
 20
53.11855185546875
 30
0.0
 10
97.4792361328125
 20
53.19342314453125
 30
0.0
  0
SPLINE
  5
E9
330
17
100
AcDbEntity
  8
ENGRAVE
100
AcDbSpline
 70
0
 71
2
 72
6
 73
3
 74
0
 40
0.0
 40
0.0
 40
0.0
 40
1.0
 40
1.0
 40
1.0
 10
97.4792361328125
 20
53.19342314453125
 30
0.0
 10
97.38746298828126
 20
53.26829443359375
 30
0.0
 10
97.38746298828126
 20
53.39869814453125
 30
0.0
  0
SPLINE
  5
EA
330
17
100
AcDbEntity
  8
ENGRAVE
100
AcDbSpline
 70
0
 71
2
 72
6
 73
3
 74
0
 40
0.0
 40
0.0
 40
0.0
 40
1.0
 40
1.0
 40
1.0
 10
97.38746298828126
 20
53.39869814453125
 30
0.0
 10
97.38746298828126
 20
53.490455566406254
 30
0.0
 10
97.42853056640625
 20
53.548425
 30
0.0
  0
SPLINE
  5
EB
330
17
100
AcDbEntity
  8
ENGRAVE
100
AcDbSpline
 70
0
 71
2
 72
6
 73
3
 74
0
 40
0.0
 40
0.0
 40
0.0
 40
1.0
 40
1.0
 40
1.0
 10
97.42853056640625
 20
53.548425
 30
0.0
 10
97.46959814453126
 20
53.60639443359375
 30
0.0
 10
97.54685927734376
 20
53.635355566406254
 30
0.0
  0
LINE
  5
EC
330
17
100
AcDbEntity
  8
ENGRAVE
100
AcDbLine
 10
97.66279814453125
 20
53.67400185546875
 30
0.0
 11
97.54685927734376
 21
53.635355566406254
 31
0.0
  0
SPLINE
  5
ED
330
17
100
AcDbEntity
  8
ENGRAVE
100
AcDbSpline
 70
0
 71
2
 72
6
 73
3
 74
0
 40
0.0
 40
0.0
 40
0.0
 40
1.0
 40
1.0
 40
1.0
 10
97.66279814453125
 20
53.67400185546875
 30
0.0
 10
97.76905185546876
 20
53.71264814453125
 30
0.0
 10
97.77145742187501
 20
53.79475185546875
 30
0.0
  0
SPLINE
  5
EE
330
17
100
AcDbEntity
  8
ENGRAVE
100
AcDbSpline
 70
0
 71
2
 72
6
 73
3
 74
0
 40
0.0
 40
0.0
 40
0.0
 40
1.0
 40
1.0
 40
1.0
 10
97.77145742187501
 20
53.79475185546875
 30
0.0
 10
97.77386298828125
 20
53.87685556640625
 30
0.0
 10
97.66760927734376
 20
54.02659814453125
 30
0.0
  0
LINE
  5
EF
330
17
100
AcDbEntity
  8
ENGRAVE
100
AcDbLine
 10
97.11215927734376
 20
54.83320185546875
 30
0.0
 11
97.66760927734376
 21
54.02659814453125
 31
0.0
  0
LINE
  5
F0
330
17
100
AcDbEntity
  8
ENGRAVE
100
AcDbLine
 10
96.73541298828125
 20
54.321209277343755
 30
0.0
 11
97.11215927734376
 21
54.83320185546875
 31
0.0
  0
SPLINE
  5
F1
330
17
100
AcDbEntity
  8
ENGRAVE
100
AcDbSpline
 70
0
 71
2
 72
6
 73
3
 74
0
 40
0.0
 40
0.0
 40
0.0
 40
1.0
 40
1.0
 40
1.0
 10
96.73541298828125
 20
54.321209277343755
 30
0.0
 10
96.57120556640626
 20
54.09420556640625
 30
0.0
 10
96.600182421875
 20
53.9324037109375
 30
0.0
  0
SPLINE
  5
F2
330
17
100
AcDbEntity
  8
ENGRAVE
100
AcDbSpline
 70
0
 71
2
 72
6
 73
3
 74
0
 40
0.0
 40
0.0
 40
0.0
 40
1.0
 40
1.0
 40
1.0
 10
96.600182421875
 20
53.9324037109375
 30
0.0
 10
96.62915927734376
 20
53.770601855468755
 30
0.0
 10
96.78371298828125
 20
53.69815185546875
 30
0.0
  0
LINE
  5
F3
330
17
100
AcDbEntity
  8
ENGRAVE
100
AcDbLine
 10
96.88031298828126
 20
53.649851855468754
 30
0.0
 11
96.78371298828125
 21
53.69815185546875
 31
0.0
  0
SPLINE
  5
F4
330
17
100
AcDbEntity
  8
ENGRAVE
100
AcDbSpline
 70
0
 71
2
 72
6
 73
3
 74
0
 40
0.0
 40
0.0
 40
0.0
 40
1.0
 40
1.0
 40
1.0
 10
96.88031298828126
 20
53.649851855468754
 30
0.0
 10
96.97210185546876
 20
53.60639443359375
 30
0.0
 10
97.01798056640625
 20
53.548425
 30
0.0
  0
SPLINE
  5
F5
330
17
100
AcDbEntity
  8
ENGRAVE
100
AcDbSpline
 70
0
 71
2
 72
6
 73
3
 74
0
 40
0.0
 40
0.0
 40
0.0
 40
1.0
 40
1.0
 40
1.0
 10
97.01798056640625
 20
53.548425
 30
0.0
 10
97.06385927734375
 20
53.490455566406254
 30
0.0
 10
97.06385927734375
 20
53.39869814453125
 30
0.0
  0
SPLINE
  5
F6
330
17
100
AcDbEntity
  8
ENGRAVE
100
AcDbSpline
 70
0
 71
2
 72
6
 73
3
 74
0
 40
0.0
 40
0.0
 40
0.0
 40
1.0
 40
1.0
 40
1.0
 10
97.06385927734375
 20
53.39869814453125
 30
0.0
 10
97.06385927734375
 20
53.27310556640625
 30
0.0
 10
96.974507421875
 20
53.19825
 30
0.0
  0
SPLINE
  5
F7
330
17
100
AcDbEntity
  8
ENGRAVE
100
AcDbSpline
 70
0
 71
2
 72
6
 73
3
 74
0
 40
0.0
 40
0.0
 40
0.0
 40
1.0
 40
1.0
 40
1.0
 10
96.974507421875
 20
53.19825
 30
0.0
 10
96.88515556640625
 20
53.12339443359375
 30
0.0
 10
96.73060185546876
 20
53.12339443359375
 30
0.0
  0
LINE
  5
F8
330
17
100
AcDbEntity
  8
ENGRAVE
100
AcDbLine
 10
95.40235185546875
 20
53.12339443359375
 30
0.0
 11
96.73060185546876
 21
53.12339443359375
 31
0.0
  0
SPLINE
  5
F9
330
17
100
AcDbEntity
  8
ENGRAVE
100
AcDbSpline
 70
0
 71
2
 72
6
 73
3
 74
0
 40
0.0
 40
0.0
 40
0.0
 40
1.0
 40
1.0
 40
1.0
 10
95.40235185546875
 20
53.12339443359375
 30
0.0
 10
95.25260927734375
 20
53.12339443359375
 30
0.0
 10
95.163257421875
 20
53.19825
 30
0.0
  0
SPLINE
  5
FA
330
17
100
AcDbEntity
  8
ENGRAVE
100
AcDbSpline
 70
0
 71
2
 72
6
 73
3
 74
0
 40
0.0
 40
0.0
 40
0.0
 40
1.0
 40
1.0
 40
1.0
 10
95.163257421875
 20
53.19825
 30
0.0
 10
95.07390556640625
 20
53.27310556640625
 30
0.0
 10
95.07390556640625
 20
53.39869814453125
 30
0.0
  0
SPLINE
  5
FB
330
17
100
AcDbEntity
  8
ENGRAVE
100
AcDbSpline
 70
0
 71
2
 72
6
 73
3
 74
0
 40
0.0
 40
0.0
 40
0.0
 40
1.0
 40
1.0
 40
1.0
 10
95.07390556640625
 20
53.39869814453125
 30
0.0
 10
95.07390556640625
 20
53.490455566406254
 30
0.0
 10
95.12462685546876
 20
53.555657421875004
 30
0.0
  0
SPLINE
  5
FC
330
17
100
AcDbEntity
  8
ENGRAVE
100
AcDbSpline
 70
0
 71
2
 72
6
 73
3
 74
0
 40
0.0
 40
0.0
 40
0.0
 40
1.0
 40
1.0
 40
1.0
 10
95.12462685546876
 20
53.555657421875004
 30
0.0
 10
95.17534814453126
 20
53.620859277343754
 30
0.0
 10
95.30090927734376
 20
53.69330927734375
 30
0.0
  0
SPLINE
  5
FD
330
17
100
AcDbEntity
  8
ENGRAVE
100
AcDbSpline
 70
0
 71
2
 72
6
 73
3
 74
0
 40
0.0
 40
0.0
 40
0.0
 40
1.0
 40
1.0
 40
1.0
 10
95.30090927734376
 20
53.69330927734375
 30
0.0
 10
95.46995927734376
 20
53.765759277343754
 30
0.0
 10
95.60278427734376
 20
53.8720287109375
 30
0.0
  0
SPLINE
  5
FE
330
17
100
AcDbEntity
  8
ENGRAVE
100
AcDbSpline
 70
0
 71
2
 72
6
 73
3
 74
0
 40
0.0
 40
0.0
 40
0.0
 40
1.0
 40
1.0
 40
1.0
 10
95.60278427734376
 20
53.8720287109375
 30
0.0
 10
95.73560927734376
 20
53.97829814453125
 30
0.0
 10
95.88050927734376
 20
54.14734814453125
 30
0.0
  0
SPLINE
  5
FF
330
17
100
AcDbEntity
  8
ENGRAVE
100
AcDbSpline
 70
0
 71
2
 72
6
 73
3
 74
0
 40
0.0
 40
0.0
 40
0.0
 40
1.0
 40
1.0
 40
1.0
 10
95.88050927734376
 20
54.14734814453125
 30
0.0
 10
96.02540927734375
 20
54.31639814453125
 30
0.0
 10
96.22826298828126
 20
54.57239443359375
 30
0.0
  0
LINE
  5
100
330
17
100
AcDbEntity
  8
ENGRAVE
100
AcDbLine
 10
96.77890185546876
 20
55.301705566406255
 30
0.0
 11
96.22826298828126
 21
54.57239443359375
 31
0.0
  0
LINE
  5
101
330
17
100
AcDbEntity
  8
ENGRAVE
100
AcDbLine
 10
95.74526298828125
 20
56.81350185546875
 30
0.0
 11
96.77890185546876
 21
55.301705566406255
 31
0.0
  0
SPLINE
  5
102
330
17
100
AcDbEntity
  8
ENGRAVE
100
AcDbSpline
 70
0
 71
2
 72
6
 73
3
 74
0
 40
0.0
 40
0.0
 40
0.0
 40
1.0
 40
1.0
 40
1.0
 10
95.74526298828125
 20
56.81350185546875
 30
0.0
 10
95.63900927734376
 20
56.97289814453125
 30
0.0
 10
95.53275556640625
 20
57.050175
 30
0.0
  0
SPLINE
  5
103
330
17
100
AcDbEntity
  8
ENGRAVE
100
AcDbSpline
 70
0
 71
2
 72
6
 73
3
 74
0
 40
0.0
 40
0.0
 40
0.0
 40
1.0
 40
1.0
 40
1.0
 10
95.53275556640625
 20
57.050175
 30
0.0
 10
95.42650185546876
 20
57.12745185546875
 30
0.0
 10
95.32024814453126
 20
57.17090927734375
 30
0.0
  0
SPLINE
  5
104
330
17
100
AcDbEntity
  8
ENGRAVE
100
AcDbSpline
 70
0
 71
2
 72
6
 73
3
 74
0
 40
0.0
 40
0.0
 40
0.0
 40
1.0
 40
1.0
 40
1.0
 10
95.32024814453126
 20
57.17090927734375
 30
0.0
 10
95.19949814453126
 20
57.21920927734375
 30
0.0
 10
95.15602500000001
 20
57.2892537109375
 30
0.0
  0
SPLINE
  5
105
330
17
100
AcDbEntity
  8
ENGRAVE
100
AcDbSpline
 70
0
 71
2
 72
6
 73
3
 74
0
 40
0.0
 40
0.0
 40
0.0
 40
1.0
 40
1.0
 40
1.0
 10
95.15602500000001
 20
57.2892537109375
 30
0.0
 10
95.11255185546875
 20
57.35929814453125
 30
0.0
 10
95.11255185546875
 20
57.47039443359375
 30
0.0
  0
SPLINE
  5
106
330
17
100
AcDbEntity
  8
ENGRAVE
100
AcDbSpline
 70
0
 71
2
 72
6
 73
3
 74
0
 40
0.0
 40
0.0
 40
0.0
 40
1.0
 40
1.0
 40
1.0
 10
95.11255185546875
 20
57.47039443359375
 30
0.0
 10
95.11255185546875
 20
57.600798144531254
 30
0.0
 10
95.20432500000001
 20
57.6756537109375
 30
0.0
  0
SPLINE
  5
107
330
17
100
AcDbEntity
  8
ENGRAVE
100
AcDbSpline
 70
0
 71
2
 72
6
 73
3
 74
0
 40
0.0
 40
0.0
 40
0.0
 40
1.0
 40
1.0
 40
1.0
 10
95.20432500000001
 20
57.6756537109375
 30
0.0
 10
95.29609814453126
 20
57.75050927734375
 30
0.0
 10
95.45065185546876
 20
57.75050927734375
 30
0.0
  0
LINE
  5
108
330
17
100
AcDbEntity
  8
ENGRAVE
100
AcDbLine
 10
97.93325927734375
 20
57.75050927734375
 30
0.0
 11
95.45065185546876
 21
57.75050927734375
 31
0.0
  0
SPLINE
  5
109
330
17
100
AcDbEntity
  8
ENGRAVE
100
AcDbSpline
 70
0
 71
2
 72
6
 73
3
 74
0
 40
0.0
 40
0.0
 40
0.0
 40
1.0
 40
1.0
 40
1.0
 10
97.93325927734375
 20
57.75050927734375
 30
0.0
 10
98.08781298828126
 20
57.75050927734375
 30
0.0
 10
98.17718056640626
 20
57.67805927734375
 30
0.0
  0
SPLINE
  5
10A
330
17
100
AcDbEntity
  8
ENGRAVE
100
AcDbSpline
 70
0
 71
2
 72
6
 73
3
 74
0
 40
0.0
 40
0.0
 40
0.0
 40
1.0
 40
1.0
 40
1.0
 10
98.17718056640626
 20
57.67805927734375
 30
0.0
 10
98.26654814453126
 20
57.60560927734375
 30
0.0
 10
98.26654814453126
 20
57.47520556640625
 30
0.0
  0
SPLINE
  5
10B
330
17
100
AcDbEntity
  8
ENGRAVE
100
AcDbSpline
 70
0
 71
2
 72
6
 73
3
 74
0
 40
0.0
 40
0.0
 40
0.0
 40
1.0
 40
1.0
 40
1.0
 10
98.26654814453126
 20
57.47520556640625
 30
0.0
 10
98.26654814453126
 20
57.38825927734375
 30
0.0
 10
98.23515
 20
57.33030556640625
 30
0.0
  0
SPLINE
  5
10C
330
17
100
AcDbEntity
  8
ENGRAVE
100
AcDbSpline
 70
0
 71
2
 72
6
 73
3
 74
0
 40
0.0
 40
0.0
 40
0.0
 40
1.0
 40
1.0
 40
1.0
 10
98.23515
 20
57.33030556640625
 30
0.0
 10
98.20375185546875
 20
57.27235185546875
 30
0.0
 10
98.14095556640626
 20
57.22405185546875
 30
0.0
  0
LINE
  5
10D
330
17
100
AcDbEntity
  8
ENGRAVE
100
AcDbLine
 10
98.03470185546875
 20
57.161255566406254
 30
0.0
 11
98.14095556640626
 21
57.22405185546875
 31
0.0
  0
SPLINE
  5
10E
330
17
100
AcDbEntity
  8
ENGRAVE
100
AcDbSpline
 70
0
 71
2
 72
6
 73
3
 74
0
 40
0.0
 40
0.0
 40
0.0
 40
1.0
 40
1.0
 40
1.0
 10
98.03470185546875
 20
57.161255566406254
 30
0.0
 10
97.95740927734376
 20
57.11295556640625
 30
0.0
 10
97.9550037109375
 20
57.045332421875
 30
0.0
  0
SPLINE
  5
10F
330
17
100
AcDbEntity
  8
ENGRAVE
100
AcDbSpline
 70
0
 71
2
 72
6
 73
3
 74
0
 40
0.0
 40
0.0
 40
0.0
 40
1.0
 40
1.0
 40
1.0
 10
97.9550037109375
 20
57.045332421875
 30
0.0
 10
97.95259814453127
 20
56.97770927734375
 30
0.0
 10
98.03951298828126
 20
56.85214814453125
 30
0.0
  0
ENDSEC
  0
SECTION
  2
OBJECTS
  0
DICTIONARY
  5
A
330
0
100
AcDbDictionary
281
1
  3
ACAD_COLOR
350
B
  3
ACAD_GROUP
350
C
  3
ACAD_LAYOUT
350
D
  3
ACAD_MATERIAL
350
E
  3
ACAD_MLEADERSTYLE
350
F
  3
ACAD_MLINESTYLE
350
10
  3
ACAD_PLOTSETTINGS
350
11
  3
ACAD_PLOTSTYLENAME
350
12
  3
ACAD_SCALELIST
350
14
  3
ACAD_TABLESTYLE
350
15
  3
ACAD_VISUALSTYLE
350
16
  3
EZDXF_META
350
2D
  0
DICTIONARY
  5
B
330
A
100
AcDbDictionary
281
1
  0
DICTIONARY
  5
C
330
A
100
AcDbDictionary
281
1
  0
DICTIONARY
  5
D
330
A
100
AcDbDictionary
281
1
  3
Model
350
1A
  3
Layout1
350
1E
  0
DICTIONARY
  5
E
330
A
100
AcDbDictionary
281
1
  3
ByBlock
350
1F
  3
ByLayer
350
20
  3
Global
350
21
  0
DICTIONARY
  5
F
330
A
100
AcDbDictionary
281
1
  3
Standard
350
2C
  0
DICTIONARY
  5
10
330
A
100
AcDbDictionary
281
1
  3
Standard
350
22
  0
DICTIONARY
  5
11
330
A
100
AcDbDictionary
281
1
  0
ACDBDICTIONARYWDFLT
  5
12
330
A
100
AcDbDictionary
281
1
  3
Normal
350
13
100
AcDbDictionaryWithDefault
340
13
  0
ACDBPLACEHOLDER
  5
13
330
12
  0
DICTIONARY
  5
14
330
A
100
AcDbDictionary
281
1
  0
DICTIONARY
  5
15
330
A
100
AcDbDictionary
281
1
  0
DICTIONARY
  5
16
330
A
100
AcDbDictionary
281
1
  0
LAYOUT
  5
1A
330
D
100
AcDbPlotSettings
  1

  4
A3
  6

 40
7.5
 41
20.0
 42
7.5
 43
20.0
 44
420.0
 45
297.0
 46
0.0
 47
0.0
 48
0.0
 49
0.0
140
0.0
141
0.0
142
1.0
143
1.0
 70
1024
 72
1
 73
0
 74
5
  7

 75
16
 76
0
 77
2
 78
300
147
1.0
148
0.0
149
0.0
100
AcDbLayout
  1
Model
 70
1
 71
0
 10
0.0
 20
0.0
 11
420.0
 21
297.0
 12
0.0
 22
0.0
 32
0.0
 14
1e+20
 24
1e+20
 34
1e+20
 15
-1e+20
 25
-1e+20
 35
-1e+20
146
0.0
 13
0.0
 23
0.0
 33
0.0
 16
1.0
 26
0.0
 36
0.0
 17
0.0
 27
1.0
 37
0.0
 76
1
330
17
  0
LAYOUT
  5
1E
330
D
100
AcDbPlotSettings
  1

  4
A3
  6

 40
7.5
 41
20.0
 42
7.5
 43
20.0
 44
420.0
 45
297.0
 46
0.0
 47
0.0
 48
0.0
 49
0.0
140
0.0
141
0.0
142
1.0
143
1.0
 70
0
 72
1
 73
0
 74
5
  7

 75
16
 76
0
 77
2
 78
300
147
1.0
148
0.0
149
0.0
100
AcDbLayout
  1
Layout1
 70
1
 71
1
 10
0.0
 20
0.0
 11
420.0
 21
297.0
 12
0.0
 22
0.0
 32
0.0
 14
1e+20
 24
1e+20
 34
1e+20
 15
-1e+20
 25
-1e+20
 35
-1e+20
146
0.0
 13
0.0
 23
0.0
 33
0.0
 16
1.0
 26
0.0
 36
0.0
 17
0.0
 27
1.0
 37
0.0
 76
1
330
1B
  0
MATERIAL
  5
1F
102
{ACAD_REACTORS
330
E
102
}
330
E
100
AcDbMaterial
  1
ByBlock
  2

 70
0
 40
1.0
 71
1
 41
1.0
 91
-1023410177
 42
1.0
 72
1
  3

 73
1
 74
1
 75
1
 44
0.5
 73
0
 45
1.0
 46
1.0
 77
1
  4

 78
1
 79
1
170
1
 48
1.0
171
1
  6

172
1
173
1
174
1
140
1.0
141
1.0
175
1
  7

176
1
177
1
178
1
143
1.0
179
1
  8

270
1
271
1
272
1
145
1.0
146
1.0
273
1
  9

274
1
275
1
276
1
 42
1.0
 72
1
  3

 73
1
 74
1
 75
1
 94
63
  0
MATERIAL
  5
20
102
{ACAD_REACTORS
330
E
102
}
330
E
100
AcDbMaterial
  1
ByLayer
  2

 70
0
 40
1.0
 71
1
 41
1.0
 91
-1023410177
 42
1.0
 72
1
  3

 73
1
 74
1
 75
1
 44
0.5
 73
0
 45
1.0
 46
1.0
 77
1
  4

 78
1
 79
1
170
1
 48
1.0
171
1
  6

172
1
173
1
174
1
140
1.0
141
1.0
175
1
  7

176
1
177
1
178
1
143
1.0
179
1
  8

270
1
271
1
272
1
145
1.0
146
1.0
273
1
  9

274
1
275
1
276
1
 42
1.0
 72
1
  3

 73
1
 74
1
 75
1
 94
63
  0
MATERIAL
  5
21
102
{ACAD_REACTORS
330
E
102
}
330
E
100
AcDbMaterial
  1
Global
  2

 70
0
 40
1.0
 71
1
 41
1.0
 91
-1023410177
 42
1.0
 72
1
  3

 73
1
 74
1
 75
1
 44
0.5
 73
0
 45
1.0
 46
1.0
 77
1
  4

 78
1
 79
1
170
1
 48
1.0
171
1
  6

172
1
173
1
174
1
140
1.0
141
1.0
175
1
  7

176
1
177
1
178
1
143
1.0
179
1
  8

270
1
271
1
272
1
145
1.0
146
1.0
273
1
  9

274
1
275
1
276
1
 42
1.0
 72
1
  3

 73
1
 74
1
 75
1
 94
63
  0
MLINESTYLE
  5
22
102
{ACAD_REACTORS
330
10
102
}
330
10
100
AcDbMlineStyle
  2
Standard
 70
0
  3

 62
256
 51
90.0
 52
90.0
 71
2
 49
0.5
 62
256
  6
BYLAYER
 49
-0.5
 62
256
  6
BYLAYER
  0
MLEADERSTYLE
  5
2C
102
{ACAD_REACTORS
330
F
102
}
330
F
100
AcDbMLeaderStyle
179
2
170
2
171
1
172
0
 90
2
 40
0.0
 41
0.0
173
1
 91
-1056964608
 92
-2
290
1
 42
2.0
291
1
 43
8.0
  3
Standard
 44
4.0
300

342
29
174
1
175
1
176
0
178
1
 93
-1056964608
 45
4.0
292
0
297
0
 46
4.0
 94
-1056964608
 47
1.0
 49
1.0
140
1.0
294
1
141
0.0
177
0
142
1.0
295
0
296
0
143
3.75
271
0
272
9
273
9
  0
DICTIONARY
  5
2D
330
A
100
AcDbDictionary
280
1
281
1
  3
CREATED_BY_EZDXF
350
2E
  3
WRITTEN_BY_EZDXF
350
113
  0
DICTIONARYVAR
  5
2E
330
2D
100
DictionaryVariables
280
0
  1
1.4.4 @ 2026-10-08T03:42:40.816622+00:00
  0
DICTIONARYVAR
  5
113
330
2D
100
DictionaryVariables
280
0
  1
1.4.4 @ 2026-10-08T03:42:40.999672+00:00
  0
ENDSEC
  0
EOF
