  0
SECTION
  2
HEADER
  9
$ACADVER
  1
AC1027
  9
$ACADMAINTVER
 70
105
  9
$DWGCODEPAGE
  3
ANSI_1252
  9
$LASTSAVEDBY
  1
ezdxf
  9
$REQUIREDVERSIONS
160
0
  9
$INSBASE
 10
0.0
 20
0.0
 30
0.0
  9
$EXTMIN
 10
1e+20
 20
1e+20
 30
1e+20
  9
$EXTMAX
 10
-1e+20
 20
-1e+20
 30
-1e+20
  9
$LIMMIN
 10
0.0
 20
0.0
  9
$LIMMAX
 10
420.0
 20
297.0
  9
$ORTHOMODE
 70
0
  9
$REGENMODE
 70
1
  9
$FILLMODE
 70
1
  9
$QTEXTMODE
 70
0
  9
$MIRRTEXT
 70
1
  9
$LTSCALE
 40
1.0
  9
$ATTMODE
 70
1
  9
$TEXTSIZE
 40
2.5
  9
$TRACEWID
 40
1.0
  9
$TEXTSTYLE
  7
Standard
  9
$CLAYER
  8
0
  9
$CELTYPE
  6
ByLayer
  9
$CECOLOR
 62
256
  9
$CELTSCALE
 40
1.0
  9
$DISPSILH
 70
0
  9
$DIMSCALE
 40
1.0
  9
$DIMASZ
 40
2.5
  9
$DIMEXO
 40
0.625
  9
$DIMDLI
 40
3.75
  9
$DIMRND
 40
0.0
  9
$DIMDLE
 40
0.0
  9
$DIMEXE
 40
1.25
  9
$DIMTP
 40
0.0
  9
$DIMTM
 40
0.0
  9
$DIMTXT
 40
2.5
  9
$DIMCEN
 40
2.5
  9
$DIMTSZ
 40
0.0
  9
$DIMTOL
 70
0
  9
$DIMLIM
 70
0
  9
$DIMTIH
 70
0
  9
$DIMTOH
 70
0
  9
$DIMSE1
 70
0
  9
$DIMSE2
 70
0
  9
$DIMTAD
 70
1
  9
$DIMZIN
 70
8
  9
$DIMBLK
  1

  9
$DIMASO
 70
1
  9
$DIMSHO
 70
1
  9
$DIMPOST
  1

  9
$DIMAPOST
  1

  9
$DIMALT
 70
0
  9
$DIMALTD
 70
3
  9
$DIMALTF
 40
0.03937007874
  9
$DIMLFAC
 40
1.0
  9
$DIMTOFL
 70
1
  9
$DIMTVP
 40
0.0
  9
$DIMTIX
 70
0
  9
$DIMSOXD
 70
0
  9
$DIMSAH
 70
0
  9
$DIMBLK1
  1

  9
$DIMBLK2
  1

  9
$DIMSTYLE
  2
ISO-25
  9
$DIMCLRD
 70
0
  9
$DIMCLRE
 70
0
  9
$DIMCLRT
 70
0
  9
$DIMTFAC
 40
1.0
  9
$DIMGAP
 40
0.625
  9
$DIMJUST
 70
0
  9
$DIMSD1
 70
0
  9
$DIMSD2
 70
0
  9
$DIMTOLJ
 70
0
  9
$DIMTZIN
 70
8
  9
$DIMALTZ
 70
0
  9
$DIMALTTZ
 70
0
  9
$DIMUPT
 70
0
  9
$DIMDEC
 70
2
  9
$DIMTDEC
 70
2
  9
$DIMALTU
 70
2
  9
$DIMALTTD
 70
3
  9
$DIMTXSTY
  7
Standard
  9
$DIMAUNIT
 70
0
  9
$DIMADEC
 70
0
  9
$DIMALTRND
 40
0.0
  9
$DIMAZIN
 70
0
  9
$DIMDSEP
 70
44
  9
$DIMATFIT
 70
3
  9
$DIMFRAC
 70
0
  9
$DIMLDRBLK
  1

  9
$DIMLUNIT
 70
2
  9
$DIMLWD
 70
-2
  9
$DIMLWE
 70
-2
  9
$DIMTMOVE
 70
0
  9
$DIMFXL
 40
1.0
  9
$DIMFXLON
 70
0
  9
$DIMJOGANG
 40
0.785398163397
  9
$DIMTFILL
 70
0
  9
$DIMTFILLCLR
 70
0
  9
$DIMARCSYM
 70
0
  9
$DIMLTYPE
  6

  9
$DIMLTEX1
  6

  9
$DIMLTEX2
  6

  9
$DIMTXTDIRECTION
 70
0
  9
$LUNITS
 70
2
  9
$LUPREC
 70
4
  9
$SKETCHINC
 40
1.0
  9
$FILLETRAD
 40
10.0
  9
$AUNITS
 70
0
  9
$AUPREC
 70
2
  9
$MENU
  1
.
  9
$ELEVATION
 40
0.0
  9
$PELEVATION
 40
0.0
  9
$THICKNESS
 40
0.0
  9
$LIMCHECK
 70
0
  9
$CHAMFERA
 40
0.0
  9
$CHAMFERB
 40
0.0
  9
$CHAMFERC
 40
0.0
  9
$CHAMFERD
 40
0.0
  9
$SKPOLY
 70
0
  9
$TDCREATE
 40
2461321.987974537
  9
$TDUCREATE
 40
2458532.153996898
  9
$TDUPDATE
 40
2461321.987974537
  9
$TDUUPDATE
 40
2458532.1544311
  9
$TDINDWG
 40
0.0
  9
$TDUSRTIMER
 40
0.0
  9
$USRTIMER
 70
1
  9
$ANGBASE
 50
0.0
  9
$ANGDIR
 70
0
  9
$PDMODE
 70
0
  9
$PDSIZE
 40
0.0
  9
$PLINEWID
 40
0.0
  9
$SPLFRAME
 70
0
  9
$SPLINETYPE
 70
6
  9
$SPLINESEGS
 70
8
  9
$HANDSEED
  5
101
  9
$SURFTAB1
 70
6
  9
$SURFTAB2
 70
6
  9
$SURFTYPE
 70
6
  9
$SURFU
 70
6
  9
$SURFV
 70
6
  9
$UCSBASE
  2

  9
$UCSNAME
  2

  9
$UCSORG
 10
0.0
 20
0.0
 30
0.0
  9
$UCSXDIR
 10
1.0
 20
0.0
 30
0.0
  9
$UCSYDIR
 10
0.0
 20
1.0
 30
0.0
  9
$UCSORTHOREF
  2

  9
$UCSORTHOVIEW
 70
0
  9
$UCSORGTOP
 10
0.0
 20
0.0
 30
0.0
  9
$UCSORGBOTTOM
 10
0.0
 20
0.0
 30
0.0
  9
$UCSORGLEFT
 10
0.0
 20
0.0
 30
0.0
  9
$UCSORGRIGHT
 10
0.0
 20
0.0
 30
0.0
  9
$UCSORGFRONT
 10
0.0
 20
0.0
 30
0.0
  9
$UCSORGBACK
 10
0.0
 20
0.0
 30
0.0
  9
$PUCSBASE
  2

  9
$PUCSNAME
  2

  9
$PUCSORG
 10
0.0
 20
0.0
 30
0.0
  9
$PUCSXDIR
 10
1.0
 20
0.0
 30
0.0
  9
$PUCSYDIR
 10
0.0
 20
1.0
 30
0.0
  9
$PUCSORTHOREF
  2

  9
$PUCSORTHOVIEW
 70
0
  9
$PUCSORGTOP
 10
0.0
 20
0.0
 30
0.0
  9
$PUCSORGBOTTOM
 10
0.0
 20
0.0
 30
0.0
  9
$PUCSORGLEFT
 10
0.0
 20
0.0
 30
0.0
  9
$PUCSORGRIGHT
 10
0.0
 20
0.0
 30
0.0
  9
$PUCSORGFRONT
 10
0.0
 20
0.0
 30
0.0
  9
$PUCSORGBACK
 10
0.0
 20
0.0
 30
0.0
  9
$USERI1
 70
0
  9
$USERI2
 70
0
  9
$USERI3
 70
0
  9
$USERI4
 70
0
  9
$USERI5
 70
0
  9
$USERR1
 40
0.0
  9
$USERR2
 40
0.0
  9
$USERR3
 40
0.0
  9
$USERR4
 40
0.0
  9
$USERR5
 40
0.0
  9
$WORLDVIEW
 70
1
  9
$SHADEDGE
 70
3
  9
$SHADEDIF
 70
70
  9
$TILEMODE
 70
1
  9
$MAXACTVP
 70
64
  9
$PINSBASE
 10
0.0
 20
0.0
 30
0.0
  9
$PLIMCHECK
 70
0
  9
$PEXTMIN
 10
1e+20
 20
1e+20
 30
1e+20
  9
$PEXTMAX
 10
-1e+20
 20
-1e+20
 30
-1e+20
  9
$PLIMMIN
 10
0.0
 20
0.0
  9
$PLIMMAX
 10
420.0
 20
297.0
  9
$UNITMODE
 70
0
  9
$VISRETAIN
 70
1
  9
$PLINEGEN
 70
0
  9
$PSLTSCALE
 70
1
  9
$TREEDEPTH
 70
3020
  9
$CMLSTYLE
  2
Standard
  9
$CMLJUST
 70
0
  9
$CMLSCALE
 40
20.0
  9
$PROXYGRAPHICS
 70
1
  9
$MEASUREMENT
 70
1
  9
$CELWEIGHT
370
-1
  9
$ENDCAPS
280
0
  9
$JOINSTYLE
280
0
  9
$LWDISPLAY
290
0
  9
$INSUNITS
 70
4
  9
$HYPERLINKBASE
  1

  9
$STYLESHEET
  1

  9
$XEDIT
290
1
  9
$CEPSNTYPE
380
0
  9
$PSTYLEMODE
290
1
  9
$FINGERPRINTGUID
  2
{475E7766-3884-4C6F-99F4-B5FD5B3DBC57}
  9
$VERSIONGUID
  2
{D8B8685F-0CF8-4DED-B445-F77C1631694A}
  9
$EXTNAMES
290
1
  9
$PSVPSCALE
 40
0.0
  9
$OLESTARTUP
290
0
  9
$SORTENTS
280
127
  9
$INDEXCTL
280
0
  9
$HIDETEXT
280
1
  9
$XCLIPFRAME
280
1
  9
$HALOGAP
280
0
  9
$OBSCOLOR
 70
257
  9
$OBSLTYPE
280
0
  9
$INTERSECTIONDISPLAY
280
0
  9
$INTERSECTIONCOLOR
 70
257
  9
$DIMASSOC
280
2
  9
$PROJECTNAME
  1

  9
$CAMERADISPLAY
290
0
  9
$LENSLENGTH
 40
50.0
  9
$CAMERAHEIGHT
 40
0.0
  9
$STEPSPERSEC
 40
24.0
  9
$STEPSIZE
 40
100.0
  9
$3DDWFPREC
 40
2.0
  9
$PSOLWIDTH
 40
0.005
  9
$PSOLHEIGHT
 40
0.08
  9
$LOFTANG1
 40
1.570796326795
  9
$LOFTANG2
 40
1.570796326795
  9
$LOFTMAG1
 40
0.0
  9
$LOFTMAG2
 40
0.0
  9
$LOFTPARAM
 70
7
  9
$LOFTNORMALS
280
1
  9
$LATITUDE
 40
37.795
  9
$LONGITUDE
 40
-122.394
  9
$NORTHDIRECTION
 40
0.0
  9
$TIMEZONE
 70
-8000
  9
$LIGHTGLYPHDISPLAY
280
1
  9
$TILEMODELIGHTSYNCH
280
1
  9
$CMATERIAL
347
20
  9
$SOLIDHIST
280
0
  9
$SHOWHIST
280
1
  9
$DWFFRAME
280
2
  9
$DGNFRAME
280
2
  9
$REALWORLDSCALE
290
1
  9
$INTERFERECOLOR
 62
256
  9
$CSHADOW
280
0
  9
$SHADOWPLANELOCATION
 40
0.0
  0
ENDSEC
  0
SECTION
  2
CLASSES
  0
CLASS
  1
ACDBDICTIONARYWDFLT
  2
AcDbDictionaryWithDefault
  3
ObjectDBX Classes
 90
0
 91
0
280
0
281
0
  0
CLASS
  1
SUN
  2
AcDbSun
  3
SCENEOE
 90
1153
 91
0
280
0
281
0
  0
CLASS
  1
VISUALSTYLE
  2
AcDbVisualStyle
  3
ObjectDBX Classes
 90
4095
 91
0
280
0
281
0
  0
CLASS
  1
MATERIAL
  2
AcDbMaterial
  3
ObjectDBX Classes
 90
1153
 91
0
280
0
281
0
  0
CLASS
  1
SCALE
  2
AcDbScale
  3
ObjectDBX Classes
 90
1153
 91
0
280
0
281
0
  0
CLASS
  1
TABLESTYLE
  2
AcDbTableStyle
  3
ObjectDBX Classes
 90
4095
 91
0
280
0
281
0
  0
CLASS
  1
MLEADERSTYLE
  2
AcDbMLeaderStyle
  3
ACDB_MLEADERSTYLE_CLASS
 90
4095
 91
0
280
0
281
0
  0
CLASS
  1
DICTIONARYVAR
  2
AcDbDictionaryVar
  3
ObjectDBX Classes
 90
0
 91
0
280
0
281
0
  0
CLASS
  1
CELLSTYLEMAP
  2
AcDbCellStyleMap
  3
ObjectDBX Classes
 90
1152
 91
0
280
0
281
0
  0
CLASS
  1
MENTALRAYRENDERSETTINGS
  2
AcDbMentalRayRenderSettings
  3
SCENEOE
 90
1024
 91
0
280
0
281
0
  0
CLASS
  1
ACDBDETAILVIEWSTYLE
  2
AcDbDetailViewStyle
  3
ObjectDBX Classes
 90
1025
 91
0
280
0
281
0
  0
CLASS
  1
ACDBSECTIONVIEWSTYLE
  2
AcDbSectionViewStyle
  3
ObjectDBX Classes
 90
1025
 91
0
280
0
281
0
  0
CLASS
  1
RASTERVARIABLES
  2
AcDbRasterVariables
  3
ISM
 90
0
 91
0
280
0
281
0
  0
CLASS
  1
ACDBPLACEHOLDER
  2
AcDbPlaceHolder
  3
ObjectDBX Classes
 90
0
 91
0
280
0
281
0
  0
CLASS
  1
LAYOUT
  2
AcDbLayout
  3
ObjectDBX Classes
 90
0
 91
0
280
0
281
0
  0
ENDSEC
  0
SECTION
  2
TABLES
  0
TABLE
  2
VPORT
  5
8
330
0
100
AcDbSymbolTable
 70
1
  0
VPORT
  5
FD
330
8
100
AcDbSymbolTableRecord
100
AcDbViewportTableRecord
  2
*Active
 70
0
 10
0.0
 20
0.0
 11
1.0
 21
1.0
 12
90.0
 22
85.75
 13
0.0
 23
0.0
 14
0.5
 24
0.5
 15
0.5
 25
0.5
 16
0.0
 26
0.0
 36
1.0
 17
0.0
 27
0.0
 37
0.0
 40
171.5
 41
1.34
 42
50.0
 43
0.0
 44
0.0
 50
0.0
 51
0.0
 71
0
 72
1000
 73
1
 74
3
 75
0
 76
0
 77
0
 78
0
281
0
 65
1
110
0.0
120
0.0
130
0.0
111
1.0
121
0.0
131
0.0
112
0.0
122
1.0
132
0.0
 79
0
146
0.0
  0
ENDTAB
  0
TABLE
  2
LTYPE
  5
2
330
0
100
AcDbSymbolTable
 70
3
  0
LTYPE
  5
24
330
2
100
AcDbSymbolTableRecord
100
AcDbLinetypeTableRecord
  2
ByBlock
 70
0
  3

 72
65
 73
0
 40
0.0
  0
LTYPE
  5
25
330
2
100
AcDbSymbolTableRecord
100
AcDbLinetypeTableRecord
  2
ByLayer
 70
0
  3

 72
65
 73
0
 40
0.0
  0
LTYPE
  5
26
330
2
100
AcDbSymbolTableRecord
100
AcDbLinetypeTableRecord
  2
Continuous
 70
0
  3

 72
65
 73
0
 40
0.0
  0
ENDTAB
  0
TABLE
  2
LAYER
  5
1
330
0
100
AcDbSymbolTable
 70
4
  0
LAYER
  5
27
330
1
100
AcDbSymbolTableRecord
100
AcDbLayerTableRecord
  2
0
 70
0
 62
7
  6
Continuous
370
-3
390
13
347
21
  0
LAYER
  5
28
330
1
100
AcDbSymbolTableRecord
100
AcDbLayerTableRecord
  2
Defpoints
 70
0
 62
7
  6
Continuous
290
0
370
-3
390
13
347
21
  0
LAYER
  5
2F
330
1
100
AcDbSymbolTableRecord
100
AcDbLayerTableRecord
  2
CUT
 70
0
 62
1
  6
Continuous
370
-3
390
13
347
21
  0
LAYER
  5
30
330
1
100
AcDbSymbolTableRecord
100
AcDbLayerTableRecord
  2
ENGRAVE
 70
0
 62
7
  6
Continuous
370
-3
390
13
347
21
  0
ENDTAB
  0
TABLE
  2
STYLE
  5
5
330
0
100
AcDbSymbolTable
 70
1
  0
STYLE
  5
29
330
5
100
AcDbSymbolTableRecord
100
AcDbTextStyleTableRecord
  2
Standard
 70
0
 40
0.0
 41
1.0
 50
0.0
 71
0
 42
2.5
  3
txt
  4

  0
ENDTAB
  0
TABLE
  2
VIEW
  5
7
330
0
100
AcDbSymbolTable
 70
0
  0
ENDTAB
  0
TABLE
  2
UCS
  5
6
330
0
100
AcDbSymbolTable
 70
0
  0
ENDTAB
  0
TABLE
  2
APPID
  5
3
330
0
100
AcDbSymbolTable
 70
3
  0
APPID
  5
2A
330
3
100
AcDbSymbolTableRecord
100
AcDbRegAppTableRecord
  2
ACAD
 70
0
  0
APPID
  5
FE
330
3
100
AcDbSymbolTableRecord
100
AcDbRegAppTableRecord
  2
HATCHBACKGROUNDCOLOR
 70
0
  0
APPID
  5
FF
330
3
100
AcDbSymbolTableRecord
100
AcDbRegAppTableRecord
  2
EZDXF
 70
0
  0
ENDTAB
  0
TABLE
  2
DIMSTYLE
  5
4
330
0
100
AcDbSymbolTable
 70
1
100
AcDbDimStyleTable
  0
DIMSTYLE
105
2B
330
4
100
AcDbSymbolTableRecord
100
AcDbDimStyleTableRecord
  2
Standard
 70
0
 40
1.0
 41
2.5
 42
0.625
 43
3.75
 44
1.25
 45
0.0
 46
0.0
 47
0.0
 48
0.0
 49
2.5
140
2.5
141
2.5
142
0.0
143
0.03937007874
144
1.0
145
0.0
146
1.0
147
0.625
148
0.0
 69
0
 70
0
 71
0
 72
0
 73
0
 74
0
 75
0
 76
0
 77
1
 78
8
 79
3
170
0
171
3
172
1
173
0
174
0
175
0
176
0
177
0
178
0
179
2
271
2
272
2
273
2
274
3
275
0
276
0
277
2
278
44
279
0
280
0
281
0
282
0
283
0
284
8
285
0
286
0
288
0
289
3
290
0
371
-2
372
-2
  0
ENDTAB
  0
TABLE
  2
BLOCK_RECORD
  5
9
330
0
100
AcDbSymbolTable
 70
2
  0
BLOCK_RECORD
  5
17
330
9
100
AcDbSymbolTableRecord
100
AcDbBlockTableRecord
  2
*Model_Space
340
1A
 70
0
280
1
281
0
  0
BLOCK_RECORD
  5
1B
330
9
100
AcDbSymbolTableRecord
100
AcDbBlockTableRecord
  2
*Paper_Space
340
1E
 70
0
280
1
281
0
  0
ENDTAB
  0
ENDSEC
  0
SECTION
  2
BLOCKS
  0
BLOCK
  5
18
330
17
100
AcDbEntity
  8
0
100
AcDbBlockBegin
  2
*Model_Space
 70
0
 10
0.0
 20
0.0
 30
0.0
  3
*Model_Space
  1

  0
ENDBLK
  5
19
330
17
100
AcDbEntity
  8
0
100
AcDbBlockEnd
  0
BLOCK
  5
1C
330
1B
100
AcDbEntity
  8
0
100
AcDbBlockBegin
  2
*Paper_Space
 70
0
 10
0.0
 20
0.0
 30
0.0
  3
*Paper_Space
  1

  0
ENDBLK
  5
1D
330
1B
100
AcDbEntity
  8
0
100
AcDbBlockEnd
  0
ENDSEC
  0
SECTION
  2
ENTITIES
  0
LINE
  5
31
330
17
100
AcDbEntity
  8
CUT
100
AcDbLine
 10
0.0
 20
159.5
 30
0.0
 11
0.0
 21
12.0
 31
0.0
  0
ARC
  5
32
330
17
100
AcDbEntity
  8
CUT
100
AcDbCircle
 10
12.0
 20
12.0
 30
0.0
 40
12.0
100
AcDbArc
 50
-180.0
 51
-90.0
  0
LINE
  5
33
330
17
100
AcDbEntity
  8
CUT
100
AcDbLine
 10
12.0
 20
0.0
 30
0.0
 11
168.0
 21
0.0
 31
0.0
  0
ARC
  5
34
330
17
100
AcDbEntity
  8
CUT
100
AcDbCircle
 10
168.0
 20
12.0
 30
0.0
 40
12.0
100
AcDbArc
 50
-90.0
 51
0.0
  0
LINE
  5
35
330
17
100
AcDbEntity
  8
CUT
100
AcDbLine
 10
180.0
 20
12.0
 30
0.0
 11
180.0
 21
159.5
 31
0.0
  0
ARC
  5
36
330
17
100
AcDbEntity
  8
CUT
100
AcDbCircle
 10
168.0
 20
159.5
 30
0.0
 40
12.0
100
AcDbArc
 50
0.0
 51
90.0
  0
LINE
  5
37
330
17
100
AcDbEntity
  8
CUT
100
AcDbLine
 10
168.0
 20
171.5
 30
0.0
 11
12.0
 21
171.5
 31
0.0
  0
ARC
  5
38
330
17
100
AcDbEntity
  8
CUT
100
AcDbCircle
 10
12.0
 20
159.5
 30
0.0
 40
12.0
100
AcDbArc
 50
90.0
 51
180.0
  0
CIRCLE
  5
39
330
17
100
AcDbEntity
  8
CUT
100
AcDbCircle
 10
7.0
 20
7.0
 30
0.0
 40
1.7
  0
CIRCLE
  5
3A
330
17
100
AcDbEntity
  8
CUT
100
AcDbCircle
 10
50.5
 20
19.5
 30
0.0
 40
1.35
  0
LINE
  5
3B
330
17
100
AcDbEntity
  8
CUT
100
AcDbLine
 10
51.5
 20
26.5
 30
0.0
 11
87.5
 21
26.5
 31
0.0
  0
ARC
  5
3C
330
17
100
AcDbEntity
  8
CUT
100
AcDbCircle
 10
87.5
 20
25.0
 30
0.0
 40
1.5
100
AcDbArc
 50
-90.0
 51
90.0
  0
LINE
  5
3D
330
17
100
AcDbEntity
  8
CUT
100
AcDbLine
 10
87.5
 20
23.5
 30
0.0
 11
51.5
 21
23.5
 31
0.0
  0
ARC
  5
3E
330
17
100
AcDbEntity
  8
CUT
100
AcDbCircle
 10
51.5
 20
25.0
 30
0.0
 40
1.5
100
AcDbArc
 50
-270.0
 51
-90.0
  0
LINE
  5
3F
330
17
100
AcDbEntity
  8
CUT
100
AcDbLine
 10
51.5
 20
34.0
 30
0.0
 11
87.5
 21
34.0
 31
0.0
  0
ARC
  5
40
330
17
100
AcDbEntity
  8
CUT
100
AcDbCircle
 10
87.5
 20
32.5
 30
0.0
 40
1.5
100
AcDbArc
 50
-90.0
 51
90.0
  0
LINE
  5
41
330
17
100
AcDbEntity
  8
CUT
100
AcDbLine
 10
87.5
 20
31.0
 30
0.0
 11
51.5
 21
31.0
 31
0.0
  0
ARC
  5
42
330
17
100
AcDbEntity
  8
CUT
100
AcDbCircle
 10
51.5
 20
32.5
 30
0.0
 40
1.5
100
AcDbArc
 50
-270.0
 51
-90.0
  0
LINE
  5
43
330
17
100
AcDbEntity
  8
CUT
100
AcDbLine
 10
51.5
 20
41.5
 30
0.0
 11
87.5
 21
41.5
 31
0.0
  0
ARC
  5
44
330
17
100
AcDbEntity
  8
CUT
100
AcDbCircle
 10
87.5
 20
40.0
 30
0.0
 40
1.5
100
AcDbArc
 50
-90.0
 51
90.0
  0
LINE
  5
45
330
17
100
AcDbEntity
  8
CUT
100
AcDbLine
 10
87.5
 20
38.5
 30
0.0
 11
51.5
 21
38.5
 31
0.0
  0
ARC
  5
46
330
17
100
AcDbEntity
  8
CUT
100
AcDbCircle
 10
51.5
 20
40.0
 30
0.0
 40
1.5
100
AcDbArc
 50
-270.0
 51
-90.0
  0
LINE
  5
47
330
17
100
AcDbEntity
  8
CUT
100
AcDbLine
 10
51.5
 20
49.0
 30
0.0
 11
87.5
 21
49.0
 31
0.0
  0
ARC
  5
48
330
17
100
AcDbEntity
  8
CUT
100
AcDbCircle
 10
87.5
 20
47.5
 30
0.0
 40
1.5
100
AcDbArc
 50
-90.0
 51
90.0
  0
LINE
  5
49
330
17
100
AcDbEntity
  8
CUT
100
AcDbLine
 10
87.5
 20
46.0
 30
0.0
 11
51.5
 21
46.0
 31
0.0
  0
ARC
  5
4A
330
17
100
AcDbEntity
  8
CUT
100
AcDbCircle
 10
51.5
 20
47.5
 30
0.0
 40
1.5
100
AcDbArc
 50
-270.0
 51
-90.0
  0
LINE
  5
4B
330
17
100
AcDbEntity
  8
CUT
100
AcDbLine
 10
51.5
 20
56.5
 30
0.0
 11
87.5
 21
56.5
 31
0.0
  0
ARC
  5
4C
330
17
100
AcDbEntity
  8
CUT
100
AcDbCircle
 10
87.5
 20
55.0
 30
0.0
 40
1.5
100
AcDbArc
 50
-90.0
 51
90.0
  0
LINE
  5
4D
330
17
100
AcDbEntity
  8
CUT
100
AcDbLine
 10
87.5
 20
53.5
 30
0.0
 11
51.5
 21
53.5
 31
0.0
  0
ARC
  5
4E
330
17
100
AcDbEntity
  8
CUT
100
AcDbCircle
 10
51.5
 20
55.0
 30
0.0
 40
1.5
100
AcDbArc
 50
-270.0
 51
-90.0
  0
LINE
  5
4F
330
17
100
AcDbEntity
  8
CUT
100
AcDbLine
 10
51.5
 20
64.0
 30
0.0
 11
87.5
 21
64.0
 31
0.0
  0
ARC
  5
50
330
17
100
AcDbEntity
  8
CUT
100
AcDbCircle
 10
87.5
 20
62.5
 30
0.0
 40
1.5
100
AcDbArc
 50
-90.0
 51
90.0
  0
LINE
  5
51
330
17
100
AcDbEntity
  8
CUT
100
AcDbLine
 10
87.5
 20
61.0
 30
0.0
 11
51.5
 21
61.0
 31
0.0
  0
ARC
  5
52
330
17
100
AcDbEntity
  8
CUT
100
AcDbCircle
 10
51.5
 20
62.5
 30
0.0
 40
1.5
100
AcDbArc
 50
-270.0
 51
-90.0
  0
CIRCLE
  5
53
330
17
100
AcDbEntity
  8
CUT
100
AcDbCircle
 10
50.5
 20
68.5
 30
0.0
 40
1.35
  0
CIRCLE
  5
54
330
17
100
AcDbEntity
  8
CUT
100
AcDbCircle
 10
108.5
 20
19.5
 30
0.0
 40
1.35
  0
CIRCLE
  5
55
330
17
100
AcDbEntity
  8
CUT
100
AcDbCircle
 10
113.3
 20
7.0
 30
0.0
 40
1.7
  0
CIRCLE
  5
56
330
17
100
AcDbEntity
  8
CUT
100
AcDbCircle
 10
108.5
 20
68.5
 30
0.0
 40
1.35
  0
CIRCLE
  5
57
330
17
100
AcDbEntity
  8
CUT
100
AcDbCircle
 10
7.0
 20
164.5
 30
0.0
 40
1.7
  0
CIRCLE
  5
58
330
17
100
AcDbEntity
  8
CUT
100
AcDbCircle
 10
52.0
 20
155.0
 30
0.0
 40
6.1
  0
CIRCLE
  5
59
330
17
100
AcDbEntity
  8
CUT
100
AcDbCircle
 10
173.0
 20
164.5
 30
0.0
 40
1.7
  0
SPLINE
  5
5A
330
17
100
AcDbEntity
  8
ENGRAVE
100
AcDbSpline
 70
0
 71
2
 72
24
 73
21
 74
0
 40
0.0
 40
0.0
 40
0.0
 40
1.0
 40
1.0
 40
2.0
 40
2.0
 40
2.9065133400261827
 40
2.9065133400261827
 40
3.8130266800524004
 40
3.8130266800524004
 40
4.719540020078625
 40
4.719540020078625
 40
5.626080683652502
 40
5.626080683652502
 40
6.532621347226371
 40
6.532621347226371
 40
7.439162010800276
 40
7.439162010800276
 40
8.43919215216336
 40
8.43919215216336
 40
9.439222293526443
 40
9.439222293526443
 40
9.439222293526443
 10
46.22608005000001
 20
144.61318687500003
 30
0.0
 10
46.075933175
 20
145.02829375000005
 30
0.0
 10
45.72928004999999
 20
145.26234031250002
 30
0.0
 10
45.382626925
 20
145.49638687500004
 30
0.0
 10
44.9101063
 20
145.496386875
 30
0.0
 10
44.48176005
 20
145.49638687500004
 30
0.0
 10
44.157186925000005
 20
145.297666875
 30
0.0
 10
43.83261379999999
 20
145.09894687500008
 30
0.0
 10
43.6515534875
 20
144.73904
 30
0.0
 10
43.470493175000016
 20
144.379133125
 30
0.0
 10
43.470493174999994
 20
143.90221375000007
 30
0.0
 10
43.470493175
 20
143.42528
 30
0.0
 10
43.651553487499996
 20
143.06316656250002
 30
0.0
 10
43.832613800000004
 20
142.70105312500002
 30
0.0
 10
44.15718692499998
 20
142.502333125
 30
0.0
 10
44.481760050000005
 20
142.30361312500008
 30
0.0
 10
44.910106299999995
 20
142.30361312500003
 30
0.0
 10
45.382626925
 20
142.30361312500008
 30
0.0
 10
45.72928005000001
 20
142.54208
 30
0.0
 10
46.075933175
 20
142.78054687500003
 30
0.0
 10
46.22608005000001
 20
143.191240625
 30
0.0
  0
LINE
  5
5B
330
17
100
AcDbEntity
  8
ENGRAVE
100
AcDbLine
 10
45.80656005
 20
144.45862687500002
 30
0.0
 11
46.22608005
 21
144.61318687500003
 31
0.0
  0
SPLINE
  5
5C
330
17
100
AcDbEntity
  8
ENGRAVE
100
AcDbSpline
 70
0
 71
3
 72
32
 73
28
 74
0
 40
0.0
 40
0.0
 40
0.0
 40
0.0
 40
1.0
 40
1.0
 40
1.0
 40
1.9999999999999793
 40
1.9999999999999793
 40
1.9999999999999793
 40
2.9188844411208157
 40
2.9188844411208157
 40
2.9188844411208157
 40
4.756653323362423
 40
4.756653323362423
 40
4.756653323362423
 40
5.675501287787593
 40
5.675501287787593
 40
5.675501287787593
 40
6.594349252212764
 40
6.594349252212764
 40
6.594349252212764
 40
7.513197216637914
 40
7.513197216637914
 40
7.513197216637914
 40
8.513157519920815
 40
8.513157519920815
 40
8.513157519920815
 40
9.513117823203737
 40
9.513117823203737
 40
9.513117823203737
 40
9.513117823203737
 10
45.80656005
 20
143.34137312500002
 30
0.0
 10
45.73296005
 20
143.15001312499996
 30
0.0
 10
45.61961557083334
 20
143.00060656250002
 30
0.0
 10
45.4665266125
 20
142.89315343750002
 30
0.0
 10
45.313437654166655
 20
142.78570031250004
 30
0.0
 10
45.12796421666666
 20
142.73197374999992
 30
0.0
 10
44.91010630000001
 20
142.73197375000004
 30
0.0
 10
44.709920049999965
 20
142.7319737499999
 30
0.0
 10
44.53549140416669
 20
142.77981375000002
 30
0.0
 10
44.38682036249999
 20
142.87549375000006
 30
0.0
 10
44.09154857316875
 20
143.0652454348041
 30
0.0
 10
43.91886350599789
 20
143.42099456519585
 30
0.0
 10
43.9209338
 20
143.90221375000002
 30
0.0
 10
43.920933799999965
 20
144.14361791666667
 30
0.0
 10
43.96141380000001
 20
144.3504334375
 30
0.0
 10
44.04237380000001
 20
144.52266031250002
 30
0.0
 10
44.12333379999996
 20
144.69488718750003
 30
0.0
 10
44.23814932083336
 20
144.82884062499994
 30
0.0
 10
44.38682036250002
 20
144.92452062500004
 30
0.0
 10
44.53549140416667
 20
145.02020062500003
 30
0.0
 10
44.70992004999999
 20
145.06804062499995
 30
0.0
 10
44.9101063
 20
145.068040625
 30
0.0
 10
45.12796421666666
 20
145.0680406249999
 30
0.0
 10
45.31343765416666
 20
145.01431166666677
 30
0.0
 10
45.4665266125
 20
144.90685375
 30
0.0
 10
45.61961557083334
 20
144.7993958333334
 30
0.0
 10
45.73296005000001
 20
144.64998687499994
 30
0.0
 10
45.806560049999995
 20
144.45862687500002
 30
0.0
  0
LINE
  5
5D
330
17
100
AcDbEntity
  8
ENGRAVE
100
AcDbLine
 10
46.22608005
 20
143.19124062500003
 30
0.0
 11
45.80656005
 21
143.34137312500002
 31
0.0
  0
LINE
  5
5E
330
17
100
AcDbEntity
  8
ENGRAVE
100
AcDbLine
 10
46.716253175000006
 20
142.36102687500002
 30
0.0
 11
47.166679425000005
 21
142.36102687500002
 31
0.0
  0
LINE
  5
5F
330
17
100
AcDbEntity
  8
ENGRAVE
100
AcDbLine
 10
46.716253175000006
 20
145.43897312500002
 30
0.0
 11
46.716253175000006
 21
142.36102687500002
 31
0.0
  0
LINE
  5
60
330
17
100
AcDbEntity
  8
ENGRAVE
100
AcDbLine
 10
47.166679425000005
 20
145.43897312500002
 30
0.0
 11
46.716253175000006
 21
145.43897312500002
 31
0.0
  0
LINE
  5
61
330
17
100
AcDbEntity
  8
ENGRAVE
100
AcDbLine
 10
47.166679425000005
 20
144.14950687500001
 30
0.0
 11
47.166679425000005
 21
145.43897312500002
 31
0.0
  0
LINE
  5
62
330
17
100
AcDbEntity
  8
ENGRAVE
100
AcDbLine
 10
48.6195463
 20
144.14950687500001
 30
0.0
 11
47.166679425000005
 21
144.14950687500001
 31
0.0
  0
LINE
  5
63
330
17
100
AcDbEntity
  8
ENGRAVE
100
AcDbLine
 10
48.6195463
 20
145.43897312500002
 30
0.0
 11
48.6195463
 21
144.14950687500001
 31
0.0
  0
LINE
  5
64
330
17
100
AcDbEntity
  8
ENGRAVE
100
AcDbLine
 10
49.069986925
 20
145.43897312500002
 30
0.0
 11
48.6195463
 21
145.43897312500002
 31
0.0
  0
LINE
  5
65
330
17
100
AcDbEntity
  8
ENGRAVE
100
AcDbLine
 10
49.069986925
 20
142.36102687500002
 30
0.0
 11
49.069986925
 21
145.43897312500002
 31
0.0
  0
LINE
  5
66
330
17
100
AcDbEntity
  8
ENGRAVE
100
AcDbLine
 10
48.6195463
 20
142.36102687500002
 30
0.0
 11
49.069986925
 21
142.36102687500002
 31
0.0
  0
LINE
  5
67
330
17
100
AcDbEntity
  8
ENGRAVE
100
AcDbLine
 10
48.6195463
 20
143.729986875
 30
0.0
 11
48.6195463
 21
142.36102687500002
 31
0.0
  0
LINE
  5
68
330
17
100
AcDbEntity
  8
ENGRAVE
100
AcDbLine
 10
47.166679425000005
 20
143.729986875
 30
0.0
 11
48.6195463
 21
143.729986875
 31
0.0
  0
LINE
  5
69
330
17
100
AcDbEntity
  8
ENGRAVE
100
AcDbLine
 10
47.166679425000005
 20
142.36102687500002
 30
0.0
 11
47.166679425000005
 21
143.729986875
 31
0.0
  0
LINE
  5
6A
330
17
100
AcDbEntity
  8
ENGRAVE
100
AcDbLine
 10
49.4630138
 20
142.36102687500002
 30
0.0
 11
49.957600049999996
 21
142.36102687500002
 31
0.0
  0
LINE
  5
6B
330
17
100
AcDbEntity
  8
ENGRAVE
100
AcDbLine
 10
50.659746925
 20
145.43897312500002
 30
0.0
 11
49.4630138
 21
142.36102687500002
 31
0.0
  0
LINE
  5
6C
330
17
100
AcDbEntity
  8
ENGRAVE
100
AcDbLine
 10
51.0086138
 20
145.43897312500002
 30
0.0
 11
50.659746925
 21
145.43897312500002
 31
0.0
  0
LINE
  5
6D
330
17
100
AcDbEntity
  8
ENGRAVE
100
AcDbLine
 10
52.200933799999994
 20
142.36102687500002
 30
0.0
 11
51.0086138
 21
145.43897312500002
 31
0.0
  0
LINE
  5
6E
330
17
100
AcDbEntity
  8
ENGRAVE
100
AcDbLine
 10
51.710760674999996
 20
142.36102687500002
 30
0.0
 11
52.200933799999994
 21
142.36102687500002
 31
0.0
  0
LINE
  5
6F
330
17
100
AcDbEntity
  8
ENGRAVE
100
AcDbLine
 10
51.463453175
 20
143.04550687500003
 30
0.0
 11
51.710760674999996
 21
142.36102687500002
 31
0.0
  0
LINE
  5
70
330
17
100
AcDbEntity
  8
ENGRAVE
100
AcDbLine
 10
50.204893174999995
 20
143.04550687500003
 30
0.0
 11
51.463453175
 21
143.04550687500003
 31
0.0
  0
LINE
  5
71
330
17
100
AcDbEntity
  8
ENGRAVE
100
AcDbLine
 10
49.957600049999996
 20
142.36102687500002
 30
0.0
 11
50.204893174999995
 21
143.04550687500003
 31
0.0
  0
LINE
  5
72
330
17
100
AcDbEntity
  8
ENGRAVE
100
AcDbLine
 10
51.3177338
 20
143.44736000000003
 30
0.0
 11
50.350626925
 21
143.44736000000003
 31
0.0
  0
LINE
  5
73
330
17
100
AcDbEntity
  8
ENGRAVE
100
AcDbLine
 10
50.836386925
 20
144.78541375000003
 30
0.0
 11
51.3177338
 21
143.44736000000003
 31
0.0
  0
LINE
  5
74
330
17
100
AcDbEntity
  8
ENGRAVE
100
AcDbLine
 10
50.350626925
 20
143.44736000000003
 30
0.0
 11
50.836386925
 21
144.78541375000003
 31
0.0
  0
LINE
  5
75
330
17
100
AcDbEntity
  8
ENGRAVE
100
AcDbLine
 10
52.598373800000005
 20
142.36102687500002
 30
0.0
 11
53.048800050000004
 21
142.36102687500002
 31
0.0
  0
LINE
  5
76
330
17
100
AcDbEntity
  8
ENGRAVE
100
AcDbLine
 10
52.598373800000005
 20
145.43897312500002
 30
0.0
 11
52.598373800000005
 21
142.36102687500002
 31
0.0
  0
LINE
  5
77
330
17
100
AcDbEntity
  8
ENGRAVE
100
AcDbLine
 10
53.5478138
 20
145.43897312500002
 30
0.0
 11
52.598373800000005
 21
145.43897312500002
 31
0.0
  0
SPLINE
  5
78
330
17
100
AcDbEntity
  8
ENGRAVE
100
AcDbSpline
 70
0
 71
3
 72
14
 73
10
 74
0
 40
0.0
 40
0.0
 40
0.0
 40
0.0
 40
1.0
 40
1.0
 40
1.0
 40
1.6777705439814194
 40
1.6777705439814194
 40
1.6777705439814194
 40
3.0333116319444082
 40
3.0333116319444082
 40
3.0333116319444082
 40
3.0333116319444082
 10
54.35594755
 20
143.94196062500004
 30
0.0
 10
54.50608963333333
 20
144.09210270833336
 30
0.0
 10
54.581160675
 20
144.29965374999995
 30
0.0
 10
54.58116067500001
 20
144.56461375000003
 30
0.0
 10
54.58116067500005
 20
144.74419583333344
 30
0.0
 10
54.54509619583331
 20
144.89949135416663
 30
0.0
 10
54.4729672375
 20
145.0305003125
 30
0.0
 10
54.32710025688736
 20
145.29090916522063
 30
0.0
 10
54.0322311972793
 20
145.44058218894602
 30
0.0
 10
53.54781379999999
 20
145.43897312500002
 30
0.0
  0
SPLINE
  5
79
330
17
100
AcDbEntity
  8
ENGRAVE
100
AcDbSpline
 70
0
 71
2
 72
6
 73
3
 74
0
 40
0.0
 40
0.0
 40
0.0
 40
1.0
 40
1.0
 40
1.0
 10
54.35594755
 20
143.94196062500004
 30
0.0
 10
54.214626925000005
 20
143.80505312500003
 30
0.0
 10
54.00266755
 20
143.73881312500004
 30
0.0
  0
LINE
  5
7A
330
17
100
AcDbEntity
  8
ENGRAVE
100
AcDbLine
 10
54.81962755
 20
142.36102687500002
 30
0.0
 11
54.00266755
 21
143.73881312500004
 31
0.0
  0
LINE
  5
7B
330
17
100
AcDbEntity
  8
ENGRAVE
100
AcDbLine
 10
54.302946925
 20
142.36102687500002
 30
0.0
 11
54.81962755
 21
142.36102687500002
 31
0.0
  0
LINE
  5
7C
330
17
100
AcDbEntity
  8
ENGRAVE
100
AcDbLine
 10
53.543400675
 20
143.67700062500003
 30
0.0
 11
54.302946925
 21
142.36102687500002
 31
0.0
  0
SPLINE
  5
7D
330
17
100
AcDbEntity
  8
ENGRAVE
100
AcDbSpline
 70
0
 71
2
 72
6
 73
3
 74
0
 40
0.0
 40
0.0
 40
0.0
 40
1.0
 40
1.0
 40
1.0
 10
53.543400675
 20
143.67700062500003
 30
0.0
 10
53.53456005
 20
143.67700062500003
 30
0.0
 10
53.525733800000005
 20
143.67700062500003
 30
0.0
  0
LINE
  5
7E
330
17
100
AcDbEntity
  8
ENGRAVE
100
AcDbLine
 10
53.048800050000004
 20
143.67700062500003
 30
0.0
 11
53.525733800000005
 21
143.67700062500003
 31
0.0
  0
LINE
  5
7F
330
17
100
AcDbEntity
  8
ENGRAVE
100
AcDbLine
 10
53.048800050000004
 20
142.36102687500002
 30
0.0
 11
53.048800050000004
 21
143.67700062500003
 31
0.0
  0
LINE
  5
80
330
17
100
AcDbEntity
  8
ENGRAVE
100
AcDbLine
 10
53.048800050000004
 20
144.07444062500002
 30
0.0
 11
53.048800050000004
 21
145.03712000000002
 31
0.0
  0
LINE
  5
81
330
17
100
AcDbEntity
  8
ENGRAVE
100
AcDbLine
 10
53.5036538
 20
144.07444062500002
 30
0.0
 11
53.048800050000004
 21
144.07444062500002
 31
0.0
  0
SPLINE
  5
82
330
17
100
AcDbEntity
  8
ENGRAVE
100
AcDbSpline
 70
0
 71
3
 72
17
 73
13
 74
0
 40
0.0
 40
0.0
 40
0.0
 40
0.0
 40
1.0
 40
1.0
 40
1.0
 40
2.9999999999997606
 40
2.9999999999997606
 40
2.9999999999997606
 40
4.999999999999835
 40
4.999999999999835
 40
4.999999999999835
 40
5.999999999999934
 40
5.999999999999934
 40
5.999999999999934
 40
5.999999999999934
 10
53.5036538
 20
145.03712000000002
 30
0.0
 10
53.6243558833333
 20
145.03712
 30
0.0
 10
53.73181140416669
 20
145.0224
 30
0.0
 10
53.8260203625
 20
144.99296000000004
 30
0.0
 10
54.01167763758054
 20
144.93223882352584
 30
0.0
 10
54.137908191586135
 20
144.80344836397413
 30
0.0
 10
54.13514755
 20
144.5601934375
 30
0.0
 10
54.13813805786411
 20
144.31716837730377
 30
0.0
 10
54.010712250469204
 20
144.18424058102957
 30
0.0
 10
53.828226925
 20
144.12080718750002
 30
0.0
 10
53.73548900833339
 20
144.08989614583342
 30
0.0
 10
53.62729796666665
 20
144.07444062500002
 30
0.0
 10
53.5036538
 20
144.07444062500002
 30
0.0
  0
LINE
  5
83
330
17
100
AcDbEntity
  8
ENGRAVE
100
AcDbLine
 10
53.048800050000004
 20
145.03712000000002
 30
0.0
 11
53.5036538
 21
145.03712000000002
 31
0.0
  0
SPLINE
  5
84
330
17
100
AcDbEntity
  8
ENGRAVE
100
AcDbSpline
 70
0
 71
3
 72
32
 73
28
 74
0
 40
0.0
 40
0.0
 40
0.0
 40
0.0
 40
1.0
 40
1.0
 40
1.0
 40
2.0
 40
2.0
 40
2.0
 40
2.9065133400261827
 40
2.9065133400261827
 40
2.9065133400261827
 40
3.8130266800524004
 40
3.8130266800524004
 40
3.8130266800524004
 40
4.719540020078625
 40
4.719540020078625
 40
4.719540020078625
 40
5.626053360104904
 40
5.626053360104904
 40
5.626053360104904
 40
6.532566700131175
 40
6.532566700131175
 40
6.532566700131175
 40
7.439080040157469
 40
7.439080040157469
 40
7.439080040157469
 40
8.364899599808952
 40
8.364899599808952
 40
8.364899599808952
 40
8.364899599808952
 10
57.888747550000005
 20
144.61318687500003
 30
0.0
 10
57.788649633333314
 20
144.88992479166663
 30
0.0
 10
57.62304963333335
 20
145.10630927083338
 30
0.0
 10
57.39194754999999
 20
145.26234031250002
 30
0.0
 10
57.16084546666666
 20
145.41837135416665
 30
0.0
 10
56.88778755000001
 20
145.496386875
 30
0.0
 10
56.5727738
 20
145.496386875
 30
0.0
 10
56.28720963333334
 20
145.4963868750001
 30
0.0
 10
56.03623650833331
 20
145.43014687499993
 30
0.0
 10
55.81985442500002
 20
145.29766687500003
 30
0.0
 10
55.603472341666624
 20
145.165186875
 30
0.0
 10
55.434927862500004
 20
144.9789779166667
 30
0.0
 10
55.3142209875
 20
144.73904000000002
 30
0.0
 10
55.1935141125
 20
144.49910208333333
 30
0.0
 10
55.13316067500001
 20
144.22015760416673
 30
0.0
 10
55.13316067499999
 20
143.90220656250003
 30
0.0
 10
55.13316067500001
 20
143.58425552083338
 30
0.0
 10
55.193514112499976
 20
143.30457552083325
 30
0.0
 10
55.31422098750001
 20
143.06316656250007
 30
0.0
 10
55.4349278625
 20
142.82175760416663
 30
0.0
 10
55.601263383333304
 20
142.634813125
 30
0.0
 10
55.81322755
 20
142.50233312500006
 30
0.0
 10
56.02519171666665
 20
142.369853125
 30
0.0
 10
56.26954275833333
 20
142.30361312500008
 30
0.0
 10
56.54628067500002
 20
142.30361312500006
 30
0.0
 10
56.82707191394252
 20
142.30453259011185
 30
0.0
 10
57.08688172772413
 20
142.37924532655478
 30
0.0
 10
57.2793338
 20
142.55092062500003
 30
0.0
  0
LINE
  5
85
330
17
100
AcDbEntity
  8
ENGRAVE
100
AcDbLine
 10
57.46922755
 20
144.45862687500002
 30
0.0
 11
57.88874755
 21
144.61318687500003
 31
0.0
  0
SPLINE
  5
86
330
17
100
AcDbEntity
  8
ENGRAVE
100
AcDbSpline
 70
0
 71
3
 72
32
 73
28
 74
0
 40
0.0
 40
0.0
 40
0.0
 40
0.0
 40
2.0
 40
2.0
 40
2.0
 40
2.9999999999999587
 40
2.9999999999999587
 40
2.9999999999999587
 40
4.942801339285652
 40
4.942801339285652
 40
4.942801339285652
 40
8.828404017856903
 40
8.828404017856903
 40
8.828404017856903
 40
10.771205357142527
 40
10.771205357142527
 40
10.771205357142527
 40
12.714006696428152
 40
12.714006696428152
 40
12.714006696428152
 40
14.656808035713732
 40
14.656808035713732
 40
14.656808035713732
 40
16.771112351189736
 40
16.771112351189736
 40
16.771112351189736
 40
18.885416666665783
 40
18.885416666665783
 40
18.885416666665783
 40
18.885416666665783
 10
57.40740067499999
 20
143.21773374999998
 30
0.0
 10
57.298513852030624
 20
142.96927392360965
 30
0.0
 10
57.10044749796936
 20
142.83101743055704
 30
0.0
 10
56.88852067499999
 20
142.77392718750002
 30
0.0
 10
56.78106275833329
 20
142.7459582291666
 30
0.0
 10
56.67581380000003
 20
142.73197374999998
 30
0.0
 10
56.57277379999999
 20
142.73197375
 30
0.0
 10
56.37258754999997
 20
142.73197374999992
 30
0.0
 10
56.19815890416667
 20
142.77981374999996
 30
0.0
 10
56.0494878625
 20
142.87549375000006
 30
0.0
 10
55.7542160731688
 20
143.06524468605423
 30
0.0
 10
55.58153100599787
 20
143.42099770977916
 30
0.0
 10
55.583601300000005
 20
143.90220656250008
 30
0.0
 10
55.58360129999997
 20
144.14361552083332
 30
0.0
 10
55.62408130000003
 20
144.35043343750002
 30
0.0
 10
55.705041300000005
 20
144.52266031250002
 30
0.0
 10
55.78600129999996
 20
144.6948871875
 30
0.0
 10
55.90081682083335
 20
144.82884062499997
 30
0.0
 10
56.049487862499994
 20
144.924520625
 30
0.0
 10
56.198158904166654
 20
145.02020062499994
 30
0.0
 10
56.37258754999999
 20
145.06804062500007
 30
0.0
 10
56.57277380000001
 20
145.068040625
 30
0.0
 10
56.790631716666695
 20
145.06804062500012
 30
0.0
 10
56.97610515416665
 20
145.0143116666666
 30
0.0
 10
57.1291941125
 20
144.90685375
 30
0.0
 10
57.28228307083337
 20
144.79939583333342
 30
0.0
 10
57.39562754999995
 20
144.64998687499997
 30
0.0
 10
57.46922755
 20
144.45862687500002
 30
0.0
  0
SPLINE
  5
87
330
17
100
AcDbEntity
  8
ENGRAVE
100
AcDbSpline
 70
0
 71
2
 72
6
 73
3
 74
0
 40
0.0
 40
0.0
 40
0.0
 40
1.0
 40
1.0
 40
1.0
 10
57.407400675
 20
143.21773375
 30
0.0
 10
57.4780538
 20
143.36788062500003
 30
0.0
 10
57.486894424999996
 20
143.59309375
 30
0.0
  0
LINE
  5
88
330
17
100
AcDbEntity
  8
ENGRAVE
100
AcDbLine
 10
56.71850755
 20
143.59309375
 30
0.0
 11
57.486894424999996
 21
143.59309375
 31
0.0
  0
LINE
  5
89
330
17
100
AcDbEntity
  8
ENGRAVE
100
AcDbLine
 10
56.71850755
 20
143.994946875
 30
0.0
 11
56.71850755
 21
143.59309375
 31
0.0
  0
LINE
  5
8A
330
17
100
AcDbEntity
  8
ENGRAVE
100
AcDbLine
 10
57.88874755
 20
143.994946875
 30
0.0
 11
56.71850755
 21
143.994946875
 31
0.0
  0
LINE
  5
8B
330
17
100
AcDbEntity
  8
ENGRAVE
100
AcDbLine
 10
57.88874755
 20
142.36102687500002
 30
0.0
 11
57.88874755
 21
143.994946875
 31
0.0
  0
LINE
  5
8C
330
17
100
AcDbEntity
  8
ENGRAVE
100
AcDbLine
 10
57.491307549999995
 20
142.36102687500002
 30
0.0
 11
57.88874755
 21
142.36102687500002
 31
0.0
  0
LINE
  5
8D
330
17
100
AcDbEntity
  8
ENGRAVE
100
AcDbLine
 10
57.44714755
 20
142.75405375000003
 30
0.0
 11
57.491307549999995
 21
142.36102687500002
 31
0.0
  0
SPLINE
  5
8E
330
17
100
AcDbEntity
  8
ENGRAVE
100
AcDbSpline
 70
0
 71
2
 72
6
 73
3
 74
0
 40
0.0
 40
0.0
 40
0.0
 40
1.0
 40
1.0
 40
1.0
 10
57.44714755
 20
142.75405375000003
 30
0.0
 10
57.380907549999996
 20
142.63481312500002
 30
0.0
 10
57.279333799999996
 20
142.55092062500003
 30
0.0
  0
LINE
  5
8F
330
17
100
AcDbEntity
  8
ENGRAVE
100
AcDbLine
 10
58.4937338
 20
142.36102687500002
 30
0.0
 11
60.529506925
 21
142.36102687500002
 31
0.0
  0
LINE
  5
90
330
17
100
AcDbEntity
  8
ENGRAVE
100
AcDbLine
 10
58.4937338
 20
145.43897312500002
 30
0.0
 11
58.4937338
 21
142.36102687500002
 31
0.0
  0
LINE
  5
91
330
17
100
AcDbEntity
  8
ENGRAVE
100
AcDbLine
 10
60.529506925
 20
145.43897312500002
 30
0.0
 11
58.4937338
 21
145.43897312500002
 31
0.0
  0
LINE
  5
92
330
17
100
AcDbEntity
  8
ENGRAVE
100
AcDbLine
 10
60.529506925
 20
145.03712000000002
 30
0.0
 11
60.529506925
 21
145.43897312500002
 31
0.0
  0
LINE
  5
93
330
17
100
AcDbEntity
  8
ENGRAVE
100
AcDbLine
 10
58.94416005
 20
145.03712000000002
 30
0.0
 11
60.529506925
 21
145.03712000000002
 31
0.0
  0
LINE
  5
94
330
17
100
AcDbEntity
  8
ENGRAVE
100
AcDbLine
 10
58.94416005
 20
144.13625312500002
 30
0.0
 11
58.94416005
 21
145.03712000000002
 31
0.0
  0
LINE
  5
95
330
17
100
AcDbEntity
  8
ENGRAVE
100
AcDbLine
 10
60.397026925
 20
144.13625312500002
 30
0.0
 11
58.94416005
 21
144.13625312500002
 31
0.0
  0
LINE
  5
96
330
17
100
AcDbEntity
  8
ENGRAVE
100
AcDbLine
 10
60.397026925
 20
143.73440000000002
 30
0.0
 11
60.397026925
 21
144.13625312500002
 31
0.0
  0
LINE
  5
97
330
17
100
AcDbEntity
  8
ENGRAVE
100
AcDbLine
 10
58.94416005
 20
143.73440000000002
 30
0.0
 11
60.397026925
 21
143.73440000000002
 31
0.0
  0
LINE
  5
98
330
17
100
AcDbEntity
  8
ENGRAVE
100
AcDbLine
 10
58.94416005
 20
142.76288000000002
 30
0.0
 11
58.94416005
 21
143.73440000000002
 31
0.0
  0
LINE
  5
99
330
17
100
AcDbEntity
  8
ENGRAVE
100
AcDbLine
 10
60.529506925
 20
142.76288000000002
 30
0.0
 11
58.94416005
 21
142.76288000000002
 31
0.0
  0
LINE
  5
9A
330
17
100
AcDbEntity
  8
ENGRAVE
100
AcDbLine
 10
60.529506925
 20
142.36102687500002
 30
0.0
 11
60.529506925
 21
142.76288000000002
 31
0.0
  0
LINE
  5
9B
330
17
100
AcDbEntity
  8
ENGRAVE
100
AcDbLine
 10
62.81769814453125
 20
85.18055185546875
 30
0.0
 11
59.25799443359375
 21
85.18055185546875
 31
0.0
  0
SPLINE
  5
9C
330
17
100
AcDbEntity
  8
ENGRAVE
100
AcDbSpline
 70
0
 71
2
 72
14
 73
11
 74
0
 40
0.0
 40
0.0
 40
0.0
 40
1.0
 40
1.0
 40
1.9999999999999332
 40
1.9999999999999332
 40
2.545575614086907
 40
2.545575614086907
 40
3.091151228173926
 40
3.091151228173926
 40
3.636726842260969
 40
3.636726842260969
 40
3.636726842260969
 10
64.19909072265625
 20
84.86175927734375
 30
0.0
 10
64.12664072265625
 20
85.11294443359377
 30
0.0
 10
64.01796572265624
 20
85.21919814453125
 30
0.0
 10
63.90929072265625
 20
85.32545185546874
 30
0.0
 10
63.69678330078125
 20
85.32545185546874
 30
0.0
 10
63.580844433593754
 20
85.32545185546874
 30
0.0
 10
63.45768886718751
 20
85.29164814453125
 30
0.0
 10
63.334533300781246
 20
85.25784443359376
 30
0.0
 10
63.18238515625
 20
85.21919814453123
 30
0.0
 10
63.03023701171874
 20
85.18055185546875
 30
0.0
 10
62.81769814453125
 20
85.18055185546874
 30
0.0
  0
LINE
  5
9D
330
17
100
AcDbEntity
  8
ENGRAVE
100
AcDbLine
 10
64.62894814453125
 20
83.34999443359375
 30
0.0
 11
64.19909072265625
 21
84.86175927734375
 31
0.0
  0
SPLINE
  5
9E
330
17
100
AcDbEntity
  8
ENGRAVE
100
AcDbSpline
 70
0
 71
2
 72
8
 73
5
 74
0
 40
0.0
 40
0.0
 40
0.0
 40
1.0
 40
1.0
 40
2.0
 40
2.0
 40
2.0
 10
64.35364443359374
 20
82.98774443359375
 30
0.0
 10
64.50338701171876
 20
83.01189443359377
 30
0.0
 10
64.58549072265625
 20
83.10849443359375
 30
0.0
 10
64.66759443359376
 20
83.20509443359376
 30
0.0
 10
64.62894814453125
 20
83.34999443359375
 30
0.0
  0
SPLINE
  5
9F
330
17
100
AcDbEntity
  8
ENGRAVE
100
AcDbSpline
 70
0
 71
2
 72
8
 73
5
 74
0
 40
0.0
 40
0.0
 40
0.0
 40
1.0
 40
1.0
 40
1.9999999999999614
 40
1.9999999999999614
 40
1.9999999999999614
 10
63.92859814453124
 20
83.20990556640623
 30
0.0
 10
64.00589072265626
 20
83.05535185546876
 30
0.0
 10
64.1218138671875
 20
83.01429999999999
 30
0.0
 10
64.23773701171876
 20
82.97324814453124
 30
0.0
 10
64.35364443359374
 20
82.98774443359375
 30
0.0
  0
SPLINE
  5
A0
330
17
100
AcDbEntity
  8
ENGRAVE
100
AcDbSpline
 70
0
 71
2
 72
10
 73
7
 74
0
 40
0.0
 40
0.0
 40
0.0
 40
1.0
 40
1.0
 40
2.0
 40
2.0
 40
3.0000000000000124
 40
3.0000000000000124
 40
3.0000000000000124
 10
62.26709072265625
 20
84.53334443359375
 30
0.0
 10
62.59069443359374
 20
84.53334443359375
 30
0.0
 10
62.8611712890625
 20
84.427075
 30
0.0
 10
63.13164814453125
 20
84.32080556640625
 30
0.0
 10
63.390065722656246
 20
84.03583242187499
 30
0.0
 10
63.64848330078126
 20
83.75085927734375
 30
0.0
 10
63.92859814453125
 20
83.20990556640623
 30
0.0
  0
LINE
  5
A1
330
17
100
AcDbEntity
  8
ENGRAVE
100
AcDbLine
 10
61.76959443359375
 20
84.53334443359375
 30
0.0
 11
62.26709072265625
 21
84.53334443359375
 31
0.0
  0
LINE
  5
A2
330
17
100
AcDbEntity
  8
ENGRAVE
100
AcDbLine
 10
61.76959443359375
 20
81.98309814453125
 30
0.0
 11
61.76959443359375
 21
84.53334443359375
 31
0.0
  0
LINE
  5
A3
330
17
100
AcDbEntity
  8
ENGRAVE
100
AcDbLine
 10
62.26224814453125
 20
81.98309814453125
 30
0.0
 11
61.76959443359375
 21
81.98309814453125
 31
0.0
  0
SPLINE
  5
A4
330
17
100
AcDbEntity
  8
ENGRAVE
100
AcDbSpline
 70
0
 71
2
 72
8
 73
5
 74
0
 40
0.0
 40
0.0
 40
0.0
 40
1.0
 40
1.0
 40
2.0
 40
2.0
 40
2.0
 10
62.98674814453125
 20
82.61580927734374
 30
0.0
 10
62.86599814453125
 20
82.23909443359376
 30
0.0
 10
62.72594072265624
 20
82.11109628906252
 30
0.0
 10
62.58588330078125
 20
81.98309814453125
 30
0.0
 10
62.26224814453124
 20
81.98309814453127
 30
0.0
  0
SPLINE
  5
A5
330
17
100
AcDbEntity
  8
ENGRAVE
100
AcDbSpline
 70
0
 71
3
 72
11
 73
7
 74
0
 40
0.0
 40
0.0
 40
0.0
 40
0.0
 40
1.0
 40
1.0
 40
1.0
 40
1.8147076552139791
 40
1.8147076552139791
 40
1.8147076552139791
 40
1.8147076552139791
 10
63.61949072265625
 20
82.61099814453125
 30
0.0
 10
63.58085491536456
 20
82.77843395182289
 30
0.0
 10
63.474590722656245
 20
82.86215185546877
 30
0.0
 10
63.30069814453125
 20
82.86215185546877
 30
0.0
 10
63.160533389506426
 20
82.85963605516244
 30
0.0
 10
63.04322644122276
 20
82.79865346306676
 30
0.0
 10
62.986748144531255
 20
82.61580927734376
 30
0.0
  0
LINE
  5
A6
330
17
100
AcDbEntity
  8
ENGRAVE
100
AcDbLine
 10
63.99623701171875
 20
81.04605927734374
 30
0.0
 11
63.61949072265625
 21
82.61099814453125
 31
0.0
  0
SPLINE
  5
A7
330
17
100
AcDbEntity
  8
ENGRAVE
100
AcDbSpline
 70
0
 71
2
 72
8
 73
5
 74
0
 40
0.0
 40
0.0
 40
0.0
 40
1.0
 40
1.0
 40
2.0
 40
2.0
 40
2.0
 10
63.822344433593756
 20
80.65484814453124
 30
0.0
 10
63.93828330078126
 20
80.70314814453124
 30
0.0
 10
63.9889888671875
 20
80.7925
 30
0.0
 10
64.03969443359375
 20
80.88185185546875
 30
0.0
 10
63.99623701171875
 20
81.04605927734374
 30
0.0
  0
SPLINE
  5
A8
330
17
100
AcDbEntity
  8
ENGRAVE
100
AcDbSpline
 70
0
 71
3
 72
8
 73
4
 74
0
 40
0.0
 40
0.0
 40
0.0
 40
0.0
 40
2.000000000000057
 40
2.000000000000057
 40
2.000000000000057
 40
2.000000000000057
 10
63.37799072265625
 20
80.81905556640625
 30
0.0
 10
63.50678744687456
 20
80.64418156263832
 30
0.0
 10
63.65493286562542
 20
80.59786537746581
 30
0.0
 10
63.82234443359375
 20
80.65484814453124
 30
0.0
  0
SPLINE
  5
A9
330
17
100
AcDbEntity
  8
ENGRAVE
100
AcDbSpline
 70
0
 71
2
 72
10
 73
7
 74
0
 40
0.0
 40
0.0
 40
0.0
 40
1.0
 40
1.0
 40
2.0
 40
2.0
 40
3.0000000000000306
 40
3.0000000000000306
 40
3.0000000000000306
 10
62.38299814453124
 20
81.35035556640625
 30
0.0
 10
62.638994433593744
 20
81.35035556640626
 30
0.0
 10
62.803217578125
 20
81.30447685546875
 30
0.0
 10
62.96744072265626
 20
81.25859814453125
 30
0.0
 10
63.0954388671875
 20
81.14267499999998
 30
0.0
 10
63.223437011718744
 20
81.02675185546875
 30
0.0
 10
63.37799072265625
 20
80.81905556640623
 30
0.0
  0
LINE
  5
AA
330
17
100
AcDbEntity
  8
ENGRAVE
100
AcDbLine
 10
61.76959443359375
 20
81.35035556640625
 30
0.0
 11
62.38299814453125
 21
81.35035556640625
 31
0.0
  0
LINE
  5
AB
330
17
100
AcDbEntity
  8
ENGRAVE
100
AcDbLine
 10
61.76959443359375
 20
79.42800927734375
 30
0.0
 11
61.76959443359375
 21
81.35035556640625
 31
0.0
  0
SPLINE
  5
AC
330
17
100
AcDbEntity
  8
ENGRAVE
100
AcDbSpline
 70
0
 71
3
 72
8
 73
4
 74
0
 40
0.0
 40
0.0
 40
0.0
 40
0.0
 40
1.9999999999999583
 40
1.9999999999999583
 40
1.9999999999999583
 40
1.9999999999999583
 10
62.01593701171875
 20
79.12374443359374
 30
0.0
 10
61.83309282599572
 20
79.16084586622195
 30
0.0
 10
61.7721102339001
 20
79.27497945929889
 30
0.0
 10
61.76959443359375
 20
79.42800927734375
 30
0.0
  0
LINE
  5
AD
330
17
100
AcDbEntity
  8
ENGRAVE
100
AcDbLine
 10
62.32023330078125
 20
79.06094814453125
 30
0.0
 11
62.01593701171875
 21
79.12374443359374
 31
0.0
  0
SPLINE
  5
AE
330
17
100
AcDbEntity
  8
ENGRAVE
100
AcDbSpline
 70
0
 71
3
 72
11
 73
7
 74
0
 40
0.0
 40
0.0
 40
0.0
 40
0.0
 40
2.0
 40
2.0
 40
2.0
 40
4.137373737373705
 40
4.137373737373705
 40
4.137373737373705
 40
4.137373737373705
 10
62.20913701171875
 20
78.41855185546875
 30
0.0
 10
62.474154244653285
 20
78.41603933094399
 30
0.0
 10
62.5945346225342
 20
78.53857551280598
 30
0.0
 10
62.595537011718754
 20
78.72284814453126
 30
0.0
 10
62.593024487194015
 20
78.92447431821361
 30
0.0
 10
62.522360669055956
 20
79.02028004376555
 30
0.0
 10
62.320233300781254
 20
79.06094814453125
 30
0.0
  0
LINE
  5
AF
330
17
100
AcDbEntity
  8
ENGRAVE
100
AcDbLine
 10
59.25799443359375
 20
78.41855185546875
 30
0.0
 11
62.20913701171875
 21
78.41855185546875
 31
0.0
  0
SPLINE
  5
B0
330
17
100
AcDbEntity
  8
ENGRAVE
100
AcDbSpline
 70
0
 71
3
 72
11
 73
7
 74
0
 40
0.0
 40
0.0
 40
0.0
 40
0.0
 40
1.0
 40
1.0
 40
1.0
 40
2.1374952125622726
 40
2.1374952125622726
 40
2.1374952125622726
 40
2.1374952125622726
 10
59.10828330078125
 20
79.05610556640625
 30
0.0
 10
58.95049072265623
 20
78.99814137369786
 30
0.0
 10
58.87159443359374
 20
78.88705556640625
 30
0.0
 10
58.87159443359374
 20
78.72284814453126
 30
0.0
 10
58.872596822778306
 20
78.53857551280598
 30
0.0
 10
58.99297720065919
 20
78.41603933094402
 30
0.0
 10
59.25799443359375
 20
78.41855185546875
 30
0.0
  0
LINE
  5
B1
330
17
100
AcDbEntity
  8
ENGRAVE
100
AcDbLine
 10
59.29664072265625
 20
79.12374443359374
 30
0.0
 11
59.10828330078125
 21
79.05610556640625
 31
0.0
  0
SPLINE
  5
B2
330
17
100
AcDbEntity
  8
ENGRAVE
100
AcDbSpline
 70
0
 71
3
 72
8
 73
4
 74
0
 40
0.0
 40
0.0
 40
0.0
 40
0.0
 40
2.0
 40
2.0
 40
2.0
 40
2.0
 10
59.54298330078125
 20
79.42800927734373
 30
0.0
 10
59.5424788304073
 20
79.27195918861857
 30
0.0
 10
59.46460196386351
 20
79.18319452231891
 30
0.0
 10
59.29664072265625
 20
79.12374443359373
 30
0.0
  0
LINE
  5
B3
330
17
100
AcDbEntity
  8
ENGRAVE
100
AcDbLine
 10
59.54298330078125
 20
84.17109443359375
 30
0.0
 11
59.54298330078125
 21
79.42800927734375
 31
0.0
  0
SPLINE
  5
B4
330
17
100
AcDbEntity
  8
ENGRAVE
100
AcDbSpline
 70
0
 71
3
 72
8
 73
4
 74
0
 40
0.0
 40
0.0
 40
0.0
 40
0.0
 40
2.0
 40
2.0
 40
2.0
 40
2.0
 10
59.29664072265625
 20
84.47535927734377
 30
0.0
 10
59.464601963863494
 20
84.41590918861857
 30
0.0
 10
59.54247883040732
 20
84.32714452231886
 30
0.0
 10
59.54298330078125
 20
84.17109443359377
 30
0.0
  0
LINE
  5
B5
330
17
100
AcDbEntity
  8
ENGRAVE
100
AcDbLine
 10
59.10828330078125
 20
84.54299814453125
 30
0.0
 11
59.29664072265625
 21
84.47535927734376
 31
0.0
  0
SPLINE
  5
B6
330
17
100
AcDbEntity
  8
ENGRAVE
100
AcDbSpline
 70
0
 71
3
 72
11
 73
7
 74
0
 40
0.0
 40
0.0
 40
0.0
 40
0.0
 40
2.0
 40
2.0
 40
2.0
 40
3.758249158249103
 40
3.758249158249103
 40
3.758249158249103
 40
3.758249158249103
 10
59.257994433593744
 20
85.18055185546875
 30
0.0
 10
58.99297720065918
 20
85.18306437999345
 30
0.0
 10
58.8725968227783
 20
85.06052819813151
 30
0.0
 10
58.87159443359375
 20
84.87625556640624
 30
0.0
 10
58.871594433593714
 20
84.71204814453121
 30
0.0
 10
58.95049072265624
 20
84.6009623372396
 30
0.0
 10
59.10828330078126
 20
84.54299814453127
 30
0.0
  0
LINE
  5
B7
330
17
100
AcDbEntity
  8
ENGRAVE
100
AcDbLine
 10
67.42553701171876
 20
79.37489814453124
 30
0.0
 11
67.42553701171876
 21
85.30614443359374
 31
0.0
  0
SPLINE
  5
B8
330
17
100
AcDbEntity
  8
ENGRAVE
100
AcDbSpline
 70
0
 71
2
 72
8
 73
5
 74
0
 40
0.0
 40
0.0
 40
0.0
 40
1.0
 40
1.0
 40
1.9999999999999394
 40
1.9999999999999394
 40
1.9999999999999394
 10
67.55594072265626
 20
79.00780556640625
 30
0.0
 10
67.48349072265626
 20
79.03679814453126
 30
0.0
 10
67.45451386718752
 20
79.11407499999999
 30
0.0
 10
67.42553701171875
 20
79.19135185546877
 30
0.0
 10
67.42553701171877
 20
79.37489814453124
 30
0.0
  0
LINE
  5
B9
330
17
100
AcDbEntity
  8
ENGRAVE
100
AcDbLine
 10
67.66703701171875
 20
78.95950556640625
 30
0.0
 11
67.55594072265626
 21
79.00780556640625
 31
0.0
  0
SPLINE
  5
BA
330
17
100
AcDbEntity
  8
ENGRAVE
100
AcDbSpline
 70
0
 71
3
 72
11
 73
7
 74
0
 40
0.0
 40
0.0
 40
0.0
 40
0.0
 40
2.0
 40
2.0
 40
2.0
 40
3.4611917876815146
 40
3.4611917876815146
 40
3.4611917876815146
 40
3.4611917876815146
 10
67.52213701171875
 20
78.41855185546873
 30
0.0
 10
67.76191876164218
 20
78.4165405255363
 30
0.0
 10
67.86353800919113
 20
78.52359899269284
 30
0.0
 10
67.86504814453126
 20
78.68904443359375
 30
0.0
 10
67.86353800919113
 20
78.81138438697874
 30
0.0
 10
67.81021876164228
 20
78.90156561302123
 30
0.0
 10
67.66703701171875
 20
78.95950556640625
 30
0.0
  0
LINE
  5
BB
330
17
100
AcDbEntity
  8
ENGRAVE
100
AcDbLine
 10
65.30514814453126
 20
78.41855185546875
 30
0.0
 11
67.52213701171875
 21
78.41855185546875
 31
0.0
  0
SPLINE
  5
BC
330
17
100
AcDbEntity
  8
ENGRAVE
100
AcDbSpline
 70
0
 71
3
 72
11
 73
7
 74
0
 40
0.0
 40
0.0
 40
0.0
 40
0.0
 40
2.000000000000144
 40
2.000000000000144
 40
2.000000000000144
 40
4.73749143248836
 40
4.73749143248836
 40
4.73749143248836
 40
4.73749143248836
 10
65.16024814453125
 20
78.95950556640625
 30
0.0
 10
65.01706639460774
 20
78.90156561302118
 30
0.0
 10
64.96374714705888
 20
78.81138438697876
 30
0.0
 10
64.96223701171876
 20
78.68904443359374
 30
0.0
 10
64.96374714705888
 20
78.52359899269281
 30
0.0
 10
65.06536639460779
 20
78.41654052553633
 30
0.0
 10
65.30514814453126
 20
78.41855185546873
 30
0.0
  0
LINE
  5
BD
330
17
100
AcDbEntity
  8
ENGRAVE
100
AcDbLine
 10
65.27134443359375
 20
79.00780556640625
 30
0.0
 11
65.16024814453125
 21
78.95950556640625
 31
0.0
  0
SPLINE
  5
BE
330
17
100
AcDbEntity
  8
ENGRAVE
100
AcDbSpline
 70
0
 71
2
 72
8
 73
5
 74
0
 40
0.0
 40
0.0
 40
0.0
 40
1.0
 40
1.0
 40
1.9999999999999394
 40
1.9999999999999394
 40
1.9999999999999394
 10
65.40174814453125
 20
79.37489814453124
 30
0.0
 10
65.40174814453125
 20
79.19135185546877
 30
0.0
 10
65.37277128906251
 20
79.11407499999999
 30
0.0
 10
65.34379443359374
 20
79.03679814453128
 30
0.0
 10
65.27134443359375
 20
79.00780556640625
 30
0.0
  0
LINE
  5
BF
330
17
100
AcDbEntity
  8
ENGRAVE
100
AcDbLine
 10
65.40174814453125
 20
84.25800927734375
 30
0.0
 11
65.40174814453125
 21
79.37489814453124
 31
0.0
  0
SPLINE
  5
C0
330
17
100
AcDbEntity
  8
ENGRAVE
100
AcDbSpline
 70
0
 71
2
 72
8
 73
5
 74
0
 40
0.0
 40
0.0
 40
0.0
 40
1.0
 40
1.0
 40
2.000000000000274
 40
2.000000000000274
 40
2.000000000000274
 10
65.24235185546875
 20
84.55265185546877
 30
0.0
 10
65.32448701171876
 20
84.52850185546878
 30
0.0
 10
65.363117578125
 20
84.46812685546874
 30
0.0
 10
65.40174814453124
 20
84.40775185546875
 30
0.0
 10
65.40174814453125
 20
84.25800927734373
 30
0.0
  0
LINE
  5
C1
330
17
100
AcDbEntity
  8
ENGRAVE
100
AcDbLine
 10
65.13128701171875
 20
84.58164443359375
 30
0.0
 11
65.24235185546875
 21
84.55265185546875
 31
0.0
  0
SPLINE
  5
C2
330
17
100
AcDbEntity
  8
ENGRAVE
100
AcDbSpline
 70
0
 71
3
 72
14
 73
10
 74
0
 40
0.0
 40
0.0
 40
0.0
 40
0.0
 40
1.0
 40
1.0
 40
1.0
 40
1.9999999999999907
 40
1.9999999999999907
 40
1.9999999999999907
 40
3.7277300976621928
 40
3.7277300976621928
 40
3.7277300976621928
 40
3.7277300976621928
 10
65.22788701171875
 20
85.11775556640626
 30
0.0
 10
65.11839443359374
 20
85.07589137369789
 30
0.0
 10
65.04433024088544
 20
85.03403242187501
 30
0.0
 10
65.00569443359376
 20
84.9921787109375
 30
0.0
 10
64.96705862630208
 20
84.95032499999995
 30
0.0
 10
64.94774072265626
 20
84.89398024088548
 30
0.0
 10
64.94774072265623
 20
84.82314443359371
 30
0.0
 10
64.94874638762246
 20
84.69975033659587
 30
0.0
 10
65.00148134675251
 20
84.62772498892498
 30
0.0
 10
65.13128701171877
 20
84.58164443359375
 30
0.0
  0
LINE
  5
C3
330
17
100
AcDbEntity
  8
ENGRAVE
100
AcDbLine
 10
66.35809443359375
 20
85.54280185546875
 30
0.0
 11
65.22788701171875
 21
85.11775556640625
 31
0.0
  0
SPLINE
  5
C4
330
17
100
AcDbEntity
  8
ENGRAVE
100
AcDbSpline
 70
0
 71
2
 72
12
 73
9
 74
0
 40
0.0
 40
0.0
 40
0.0
 40
1.0
 40
1.0
 40
2.0
 40
2.0
 40
2.489004629629619
 40
2.489004629629619
 40
2.978009259259238
 40
2.978009259259238
 40
2.978009259259238
 10
67.42553701171876
 20
85.30614443359374
 30
0.0
 10
67.42553701171877
 20
85.48000556640626
 30
0.0
 10
67.31686201171875
 20
85.5959287109375
 30
0.0
 10
67.20818701171875
 20
85.71185185546878
 30
0.0
 10
66.99083701171875
 20
85.71185185546874
 30
0.0
 10
66.88455185546877
 20
85.71185185546874
 30
0.0
 10
66.74449443359376
 20
85.67320556640627
 30
0.0
 10
66.60443701171876
 20
85.63455927734375
 30
0.0
 10
66.35809443359375
 20
85.54280185546877
 30
0.0
  0
LINE
  5
C5
330
17
100
AcDbEntity
  8
ENGRAVE
100
AcDbLine
 10
68.65715556640626
 20
81.73675556640625
 30
0.0
 11
68.65715556640626
 21
79.79994443359375
 31
0.0
  0
SPLINE
  5
C6
330
17
100
AcDbEntity
  8
ENGRAVE
100
AcDbSpline
 70
0
 71
2
 72
8
 73
5
 74
0
 40
0.0
 40
0.0
 40
0.0
 40
1.0
 40
1.0
 40
1.9999999999998357
 40
1.9999999999998357
 40
1.9999999999998357
 10
68.49775927734376
 20
82.02655556640624
 30
0.0
 10
68.57989443359375
 20
82.00724814453126
 30
0.0
 10
68.618525
 20
81.94445185546874
 30
0.0
 10
68.65715556640626
 20
81.88165556640624
 30
0.0
 10
68.65715556640626
 20
81.73675556640625
 30
0.0
  0
LINE
  5
C7
330
17
100
AcDbEntity
  8
ENGRAVE
100
AcDbLine
 10
68.38669443359376
 20
82.06035927734375
 30
0.0
 11
68.49775927734376
 21
82.02655556640624
 31
0.0
  0
SPLINE
  5
C8
330
17
100
AcDbEntity
  8
ENGRAVE
100
AcDbSpline
 70
0
 71
3
 72
14
 73
10
 74
0
 40
0.0
 40
0.0
 40
0.0
 40
0.0
 40
1.0
 40
1.0
 40
1.0
 40
1.9999999999998779
 40
1.9999999999998779
 40
1.9999999999998779
 40
3.5652420039621036
 40
3.5652420039621036
 40
3.5652420039621036
 40
3.5652420039621036
 10
68.48329443359376
 20
82.59650185546874
 30
0.0
 10
68.37380185546871
 20
82.55463766276038
 30
0.0
 10
68.29973766276044
 20
82.51277871093748
 30
0.0
 10
68.26110185546874
 20
82.470925
 30
0.0
 10
68.22246604817707
 20
82.42907128906246
 30
0.0
 10
68.20314814453127
 20
82.3711123372396
 30
0.0
 10
68.20314814453126
 20
82.29704814453126
 30
0.0
 10
68.20415380949748
 20
82.18162095370687
 30
0.0
 10
68.25688876862752
 20
82.09851485358482
 30
0.0
 10
68.38669443359376
 20
82.06035927734375
 30
0.0
  0
LINE
  5
C9
330
17
100
AcDbEntity
  8
ENGRAVE
100
AcDbLine
 10
69.61350185546875
 20
83.01670556640624
 30
0.0
 11
68.48329443359376
 21
82.59650185546874
 31
0.0
  0
SPLINE
  5
CA
330
17
100
AcDbEntity
  8
ENGRAVE
100
AcDbSpline
 70
0
 71
2
 72
12
 73
9
 74
0
 40
0.0
 40
0.0
 40
0.0
 40
1.0
 40
1.0
 40
2.0000000000000613
 40
2.0000000000000613
 40
2.4890046296297754
 40
2.4890046296297754
 40
2.9780092592594896
 40
2.9780092592594896
 40
2.9780092592594896
 10
70.68094443359375
 20
82.78485927734374
 30
0.0
 10
70.68094443359374
 20
82.95875185546873
 30
0.0
 10
70.57226943359376
 20
83.074675
 30
0.0
 10
70.46359443359378
 20
83.19059814453126
 30
0.0
 10
70.24624443359376
 20
83.19059814453125
 30
0.0
 10
70.13995927734376
 20
83.19059814453125
 30
0.0
 10
69.99990185546875
 20
83.15195185546875
 30
0.0
 10
69.85984443359374
 20
83.11330556640625
 30
0.0
 10
69.61350185546875
 20
83.01670556640624
 30
0.0
  0
LINE
  5
CB
330
17
100
AcDbEntity
  8
ENGRAVE
100
AcDbLine
 10
70.68094443359375
 20
80.08005927734375
 30
0.0
 11
70.68094443359375
 21
82.78485927734374
 31
0.0
  0
SPLINE
  5
CC
330
17
100
AcDbEntity
  8
ENGRAVE
100
AcDbSpline
 70
0
 71
2
 72
10
 73
7
 74
0
 40
0.0
 40
0.0
 40
0.0
 40
1.0
 40
1.0
 40
2.656358087487427
 40
2.656358087487427
 40
4.312716174974854
 40
4.312716174974854
 40
4.312716174974854
 10
71.54550185546876
 20
79.52945185546875
 30
0.0
 10
71.37160927734375
 20
79.46665556640625
 30
0.0
 10
71.21705556640626
 20
79.46665556640623
 30
0.0
 10
70.96105927734376
 20
79.46665556640625
 30
0.0
 10
70.82100185546875
 20
79.621225
 30
0.0
 10
70.68094443359374
 20
79.77579443359375
 30
0.0
 10
70.68094443359375
 20
80.08005927734375
 30
0.0
  0
SPLINE
  5
CD
330
17
100
AcDbEntity
  8
ENGRAVE
100
AcDbSpline
 70
0
 71
2
 72
6
 73
3
 74
0
 40
0.0
 40
0.0
 40
0.0
 40
1.0
 40
1.0
 40
1.0
 10
71.54550185546876
 20
79.52945185546875
 30
0.0
 10
71.65175556640625
 20
79.56809814453125
 30
0.0
 10
71.74835556640626
 20
79.63570556640624
 30
0.0
  0
LINE
  5
CE
330
17
100
AcDbEntity
  8
ENGRAVE
100
AcDbLine
 10
71.74835556640626
 20
81.73675556640625
 30
0.0
 11
71.74835556640626
 21
79.63570556640624
 31
0.0
  0
SPLINE
  5
CF
330
17
100
AcDbEntity
  8
ENGRAVE
100
AcDbSpline
 70
0
 71
2
 72
8
 73
5
 74
0
 40
0.0
 40
0.0
 40
0.0
 40
1.0
 40
1.0
 40
1.9999999999998357
 40
1.9999999999998357
 40
1.9999999999998357
 10
71.59380185546875
 20
82.02655556640624
 30
0.0
 10
71.67109443359375
 20
82.00724814453126
 30
0.0
 10
71.70972500000002
 20
81.94445185546874
 30
0.0
 10
71.74835556640622
 20
81.88165556640624
 30
0.0
 10
71.74835556640626
 20
81.73675556640625
 30
0.0
  0
LINE
  5
D0
330
17
100
AcDbEntity
  8
ENGRAVE
100
AcDbLine
 10
71.47789443359376
 20
82.06035927734375
 30
0.0
 11
71.59380185546875
 21
82.02655556640624
 31
0.0
  0
SPLINE
  5
D1
330
17
100
AcDbEntity
  8
ENGRAVE
100
AcDbSpline
 70
0
 71
3
 72
14
 73
10
 74
0
 40
0.0
 40
0.0
 40
0.0
 40
0.0
 40
1.0
 40
1.0
 40
1.0
 40
1.9999999999997693
 40
1.9999999999997693
 40
1.9999999999997693
 40
3.565242003961825
 40
3.565242003961825
 40
3.565242003961825
 40
3.565242003961825
 10
71.57449443359376
 20
82.59650185546874
 30
0.0
 10
71.46823024088538
 20
82.55463766276038
 30
0.0
 10
71.39497314453128
 20
82.51277871093747
 30
0.0
 10
71.35472314453125
 20
82.47092500000001
 30
0.0
 10
71.31447314453125
 20
82.42907128906246
 30
0.0
 10
71.29434814453126
 20
82.37111233723958
 30
0.0
 10
71.29434814453126
 20
82.29704814453125
 30
0.0
 10
71.2953538094975
 20
82.18162095370687
 30
0.0
 10
71.34808876862746
 20
82.09851485358482
 30
0.0
 10
71.47789443359376
 20
82.06035927734375
 30
0.0
  0
LINE
  5
D2
330
17
100
AcDbEntity
  8
ENGRAVE
100
AcDbLine
 10
72.70954443359375
 20
83.01670556640624
 30
0.0
 11
71.57449443359376
 21
82.59650185546874
 31
0.0
  0
SPLINE
  5
D3
330
17
100
AcDbEntity
  8
ENGRAVE
100
AcDbSpline
 70
0
 71
2
 72
12
 73
9
 74
0
 40
0.0
 40
0.0
 40
0.0
 40
1.0
 40
1.0
 40
2.000000000000061
 40
2.000000000000061
 40
2.690590606107675
 40
2.690590606107675
 40
3.3811812122153535
 40
3.3811812122153535
 40
3.3811812122153535
 10
73.77214443359375
 20
82.78485927734374
 30
0.0
 10
73.77214443359375
 20
82.95875185546873
 30
0.0
 10
73.66829628906251
 20
83.074675
 30
0.0
 10
73.56444814453127
 20
83.19059814453126
 30
0.0
 10
73.36159443359375
 20
83.19059814453125
 30
0.0
 10
73.22150556640625
 20
83.19059814453125
 30
0.0
 10
73.08143242187501
 20
83.1495462890625
 30
0.0
 10
72.94135927734374
 20
83.10849443359375
 30
0.0
 10
72.70954443359375
 20
83.01670556640624
 30
0.0
  0
LINE
  5
D4
330
17
100
AcDbEntity
  8
ENGRAVE
100
AcDbLine
 10
73.77214443359375
 20
79.37489814453124
 30
0.0
 11
73.77214443359375
 21
82.78485927734374
 31
0.0
  0
SPLINE
  5
D5
330
17
100
AcDbEntity
  8
ENGRAVE
100
AcDbSpline
 70
0
 71
2
 72
8
 73
5
 74
0
 40
0.0
 40
0.0
 40
0.0
 40
1.0
 40
1.0
 40
2.0
 40
2.0
 40
2.0
 10
73.90254814453124
 20
79.00780556640625
 30
0.0
 10
73.83009814453126
 20
79.03679814453125
 30
0.0
 10
73.80112128906251
 20
79.11407500000001
 30
0.0
 10
73.77214443359377
 20
79.19135185546875
 30
0.0
 10
73.77214443359375
 20
79.37489814453126
 30
0.0
  0
LINE
  5
D6
330
17
100
AcDbEntity
  8
ENGRAVE
100
AcDbLine
 10
74.01364443359375
 20
78.95950556640625
 30
0.0
 11
73.90254814453125
 21
79.00780556640625
 31
0.0
  0
SPLINE
  5
D7
330
17
100
AcDbEntity
  8
ENGRAVE
100
AcDbSpline
 70
0
 71
3
 72
11
 73
7
 74
0
 40
0.0
 40
0.0
 40
0.0
 40
0.0
 40
1.9999999999999027
 40
1.9999999999999027
 40
1.9999999999999027
 40
3.4611917876812752
 40
3.4611917876812752
 40
3.4611917876812752
 40
3.4611917876812752
 10
73.86874443359375
 20
78.41855185546873
 30
0.0
 10
74.10852618351716
 20
78.4165405255363
 30
0.0
 10
74.21014543106617
 20
78.52359899269284
 30
0.0
 10
74.21165556640625
 20
78.68904443359375
 30
0.0
 10
74.21014543106601
 20
78.81138438697872
 30
0.0
 10
74.1568261835173
 20
78.90156561302128
 30
0.0
 10
74.01364443359374
 20
78.95950556640625
 30
0.0
  0
LINE
  5
D8
330
17
100
AcDbEntity
  8
ENGRAVE
100
AcDbLine
 10
72.62740927734376
 20
78.41855185546875
 30
0.0
 11
73.86874443359376
 21
78.41855185546875
 31
0.0
  0
SPLINE
  5
D9
330
17
100
AcDbEntity
  8
ENGRAVE
100
AcDbSpline
 70
0
 71
2
 72
6
 73
3
 74
0
 40
0.0
 40
0.0
 40
0.0
 40
1.0
 40
1.0
 40
1.0
 10
72.62740927734376
 20
78.41855185546875
 30
0.0
 10
72.30380556640625
 20
78.41855185546875
 30
0.0
 10
72.06230556640625
 20
78.69385556640624
 30
0.0
  0
SPLINE
  5
DA
330
17
100
AcDbEntity
  8
ENGRAVE
100
AcDbSpline
 70
0
 71
2
 72
6
 73
3
 74
0
 40
0.0
 40
0.0
 40
0.0
 40
1.0
 40
1.0
 40
1.0
 10
72.06230556640625
 20
78.69385556640624
 30
0.0
 10
71.87875927734376
 20
78.89189814453125
 30
0.0
 10
71.83530185546876
 20
79.14789443359375
 30
0.0
  0
SPLINE
  5
DB
330
17
100
AcDbEntity
  8
ENGRAVE
100
AcDbSpline
 70
0
 71
2
 72
6
 73
3
 74
0
 40
0.0
 40
0.0
 40
0.0
 40
1.0
 40
1.0
 40
1.0
 10
71.83530185546876
 20
79.14789443359375
 30
0.0
 10
71.35230185546875
 20
78.73250185546875
 30
0.0
 10
70.97555556640626
 20
78.54414443359374
 30
0.0
  0
SPLINE
  5
DC
330
17
100
AcDbEntity
  8
ENGRAVE
100
AcDbSpline
 70
0
 71
2
 72
10
 73
7
 74
0
 40
0.0
 40
0.0
 40
0.0
 40
1.0
 40
1.0
 40
2.0000000000000173
 40
2.0000000000000173
 40
2.661508413461581
 40
2.661508413461581
 40
2.661508413461581
 10
68.65715556640626
 20
79.79994443359375
 30
0.0
 10
68.65715556640626
 20
79.11890185546875
 30
0.0
 10
69.04597685546875
 20
78.703525
 30
0.0
 10
69.43479814453124
 20
78.28814814453122
 30
0.0
 10
70.06269814453125
 20
78.28814814453125
 30
0.0
 10
70.47805927734376
 20
78.28814814453125
 30
0.0
 10
70.97555556640626
 20
78.54414443359374
 30
0.0
  0
LINE
  5
DD
330
17
100
AcDbEntity
  8
ENGRAVE
100
AcDbLine
 10
78.07081298828126
 20
81.38900185546875
 30
0.0
 11
77.53951298828126
 21
82.15214814453125
 31
0.0
  0
LINE
  5
DE
330
17
100
AcDbEntity
  8
ENGRAVE
100
AcDbLine
 10
78.40410185546875
 20
81.84300927734375
 30
0.0
 11
78.07081298828126
 21
81.38900185546875
 31
0.0
  0
SPLINE
  5
DF
330
17
100
AcDbEntity
  8
ENGRAVE
100
AcDbSpline
 70
0
 71
2
 72
8
 73
5
 74
0
 40
0.0
 40
0.0
 40
0.0
 40
1.0
 40
1.0
 40
1.9999999999999862
 40
1.9999999999999862
 40
1.9999999999999862
 10
78.35580185546877
 20
82.48059443359375
 30
0.0
 10
78.51519814453124
 20
82.41295556640627
 30
0.0
 10
78.544175
 20
82.2415
 30
0.0
 10
78.57315185546878
 20
82.07004443359376
 30
0.0
 10
78.40410185546875
 20
81.84300927734375
 30
0.0
  0
LINE
  5
E0
330
17
100
AcDbEntity
  8
ENGRAVE
100
AcDbLine
 10
78.26401298828125
 20
82.51920927734375
 30
0.0
 11
78.35580185546875
 21
82.48059443359375
 31
0.0
  0
SPLINE
  5
E1
330
17
100
AcDbEntity
  8
ENGRAVE
100
AcDbSpline
 70
0
 71
3
 72
14
 73
10
 74
0
 40
0.0
 40
0.0
 40
0.0
 40
0.0
 40
1.0
 40
1.0
 40
1.0
 40
2.0000000000000955
 40
2.0000000000000955
 40
2.0000000000000955
 40
3.3334940921150387
 40
3.3334940921150387
 40
3.3334940921150387
 40
3.3334940921150387
 10
78.41375556640627
 20
83.05050927734375
 30
0.0
 10
78.31392718098954
 20
83.05050927734374
 30
0.0
 10
78.23342718098961
 20
83.02635927734374
 30
0.0
 10
78.17225556640626
 20
82.97805927734376
 30
0.0
 10
78.11108395182302
 20
82.9297592773438
 30
0.0
 10
78.08049814453123
 20
82.86214137369785
 30
0.0
 10
78.08049814453128
 20
82.77520556640629
 30
0.0
 10
78.08049814453129
 20
82.65776704564941
 30
0.0
 10
78.14166975911459
 20
82.5851194126839
 30
0.0
 10
78.26401298828125
 20
82.51920927734373
 30
0.0
  0
LINE
  5
E2
330
17
100
AcDbEntity
  8
ENGRAVE
100
AcDbLine
 10
79.73716298828126
 20
83.05050927734375
 30
0.0
 11
78.41375556640625
 21
83.05050927734375
 31
0.0
  0
SPLINE
  5
E3
330
17
100
AcDbEntity
  8
ENGRAVE
100
AcDbSpline
 70
0
 71
3
 72
14
 73
10
 74
0
 40
0.0
 40
0.0
 40
0.0
 40
0.0
 40
1.0
 40
1.0
 40
1.0
 40
2.0000000000002416
 40
2.0000000000002416
 40
2.0000000000002416
 40
4.842357779302069
 40
4.842357779302069
 40
4.842357779302069
 40
4.842357779302069
 10
79.84344814453127
 20
82.48059443359374
 30
0.0
 10
79.92715556640624
 20
82.52889443359373
 30
0.0
 10
79.98591637369793
 20
82.57477838541666
 30
0.0
 10
80.01973056640624
 20
82.6182462890625
 30
0.0
 10
80.05354475911459
 20
82.66171419270827
 30
0.0
 10
80.07045185546876
 20
82.71403395182293
 30
0.0
 10
80.07045185546876
 20
82.77520556640624
 30
0.0
 10
80.07196199080894
 20
82.9475670456494
 30
0.0
 10
79.94818123835776
 20
83.05201941268392
 30
0.0
 10
79.73716298828126
 20
83.05050927734374
 30
0.0
  0
SPLINE
  5
E4
330
17
100
AcDbEntity
  8
ENGRAVE
100
AcDbSpline
 70
0
 71
2
 72
8
 73
5
 74
0
 40
0.0
 40
0.0
 40
0.0
 40
1.0
 40
1.0
 40
2.0000000000000355
 40
2.0000000000000355
 40
2.0000000000000355
 10
78.91125185546878
 20
81.59185556640625
 30
0.0
 10
79.22035927734376
 20
81.97825556640626
 30
0.0
 10
79.4063111328125
 20
82.17628242187499
 30
0.0
 10
79.59226298828126
 20
82.37430927734377
 30
0.0
 10
79.84344814453127
 20
82.48059443359375
 30
0.0
  0
LINE
  5
E5
330
17
100
AcDbEntity
  8
ENGRAVE
100
AcDbLine
 10
78.40891298828126
 20
80.92049814453125
 30
0.0
 11
78.91125185546876
 21
81.59185556640625
 31
0.0
  0
LINE
  5
E6
330
17
100
AcDbEntity
  8
ENGRAVE
100
AcDbLine
 10
79.52465556640625
 20
79.40870185546875
 30
0.0
 11
78.40891298828126
 21
80.92049814453125
 31
0.0
  0
SPLINE
  5
E7
330
17
100
AcDbEntity
  8
ENGRAVE
100
AcDbSpline
 70
0
 71
2
 72
8
 73
5
 74
0
 40
0.0
 40
0.0
 40
0.0
 40
1.0
 40
1.0
 40
2.0
 40
2.0
 40
2.0
 10
79.94004814453126
 20
78.96915927734375
 30
0.0
 10
79.85791298828124
 20
79.02230185546875
 30
0.0
 10
79.76615556640625
 20
79.11890185546876
 30
0.0
 10
79.67439814453124
 20
79.21550185546873
 30
0.0
 10
79.52465556640625
 20
79.40870185546876
 30
0.0
  0
SPLINE
  5
E8
330
17
100
AcDbEntity
  8
ENGRAVE
100
AcDbSpline
 70
0
 71
3
 72
11
 73
7
 74
0
 40
0.0
 40
0.0
 40
0.0
 40
0.0
 40
2.0
 40
2.0
 40
2.0
 40
3.462058602554499
 40
3.462058602554499
 40
3.462058602554499
 40
3.462058602554499
 10
79.79030556640626
 20
78.41855185546875
 30
0.0
 10
80.00082262189046
 20
78.41603277938069
 30
0.0
 10
80.13041689633872
 20
78.5289597987443
 30
0.0
 10
80.12840556640626
 20
78.69385556640623
 30
0.0
 10
80.1279010960323
 20
78.81875979874422
 30
0.0
 10
80.0693526149052
 20
78.88936858667243
 30
0.0
 10
79.94004814453126
 20
78.96915927734373
 30
0.0
  0
LINE
  5
E9
330
17
100
AcDbEntity
  8
ENGRAVE
100
AcDbLine
 10
77.23524814453125
 20
78.41855185546875
 30
0.0
 11
79.79030556640626
 21
78.41855185546875
 31
0.0
  0
SPLINE
  5
EA
330
17
100
AcDbEntity
  8
ENGRAVE
100
AcDbSpline
 70
0
 71
3
 72
11
 73
7
 74
0
 40
0.0
 40
0.0
 40
0.0
 40
0.0
 40
2.0000000000000475
 40
2.0000000000000475
 40
2.0000000000000475
 40
4.842357779301151
 40
4.842357779301151
 40
4.842357779301151
 40
4.842357779301151
 10
77.04685927734376
 20
78.93535556640626
 30
0.0
 10
76.94435217974929
 20
78.89624280384558
 30
0.0
 10
76.88695524212568
 20
78.82153929250856
 30
0.0
 10
76.88746298828124
 20
78.69869814453125
 30
0.0
 10
76.88545165834891
 20
78.52684113566205
 30
0.0
 10
77.01827431821361
 20
78.41653724975463
 30
0.0
 10
77.23524814453125
 20
78.41855185546876
 30
0.0
  0
LINE
  5
EB
330
17
100
AcDbEntity
  8
ENGRAVE
100
AcDbLine
 10
77.16279814453125
 20
78.97400185546874
 30
0.0
 11
77.04685927734376
 21
78.93535556640624
 31
0.0
  0
SPLINE
  5
EC
330
17
100
AcDbEntity
  8
ENGRAVE
100
AcDbSpline
 70
0
 71
3
 72
8
 73
4
 74
0
 40
0.0
 40
0.0
 40
0.0
 40
0.0
 40
1.9999999999998321
 40
1.9999999999998321
 40
1.9999999999998321
 40
1.9999999999998321
 10
77.16760927734376
 20
79.32659814453125
 30
0.0
 10
77.30978208651935
 20
79.12442229760984
 30
0.0
 10
77.3039685645223
 20
79.02804931697348
 30
0.0
 10
77.16279814453125
 20
78.97400185546874
 30
0.0
  0
LINE
  5
ED
330
17
100
AcDbEntity
  8
ENGRAVE
100
AcDbLine
 10
76.61215927734376
 20
80.13320185546876
 30
0.0
 11
77.16760927734376
 21
79.32659814453125
 31
0.0
  0
LINE
  5
EE
330
17
100
AcDbEntity
  8
ENGRAVE
100
AcDbLine
 10
76.23541298828125
 20
79.62120927734375
 30
0.0
 11
76.61215927734376
 21
80.13320185546876
 31
0.0
  0
SPLINE
  5
EF
330
17
100
AcDbEntity
  8
ENGRAVE
100
AcDbSpline
 70
0
 71
2
 72
8
 73
5
 74
0
 40
0.0
 40
0.0
 40
0.0
 40
1.0
 40
1.0
 40
1.9999999999998996
 40
1.9999999999998996
 40
1.9999999999998996
 10
76.28371298828125
 20
78.99815185546875
 30
0.0
 10
76.12915927734376
 20
79.07060185546875
 30
0.0
 10
76.10018242187502
 20
79.23240371093752
 30
0.0
 10
76.07120556640626
 20
79.39420556640624
 30
0.0
 10
76.23541298828125
 20
79.62120927734377
 30
0.0
  0
LINE
  5
F0
330
17
100
AcDbEntity
  8
ENGRAVE
100
AcDbLine
 10
76.38031298828126
 20
78.94985185546875
 30
0.0
 11
76.28371298828125
 21
78.99815185546875
 31
0.0
  0
SPLINE
  5
F1
330
17
100
AcDbEntity
  8
ENGRAVE
100
AcDbSpline
 70
0
 71
3
 72
14
 73
10
 74
0
 40
0.0
 40
0.0
 40
0.0
 40
0.0
 40
1.0
 40
1.0
 40
1.0
 40
2.0
 40
2.0
 40
2.0
 40
3.4611917876814227
 40
3.4611917876814227
 40
3.4611917876814227
 40
3.4611917876814227
 10
76.23060185546875
 20
78.42339443359374
 30
0.0
 10
76.33363766276041
 20
78.42339443359371
 30
0.0
 10
76.41493951822918
 20
78.44834628906251
 30
0.0
 10
76.474507421875
 20
78.49825
 30
0.0
 10
76.53407532552085
 20
78.54815371093748
 30
0.0
 10
76.56385927734375
 20
78.61496975911462
 30
0.0
 10
76.56385927734375
 20
78.69869814453125
 30
0.0
 10
76.56385600156207
 20
78.82304942784869
 30
0.0
 10
76.50270142031297
 20
78.88990057215129
 30
0.0
 10
76.38031298828125
 20
78.94985185546875
 30
0.0
  0
LINE
  5
F2
330
17
100
AcDbEntity
  8
ENGRAVE
100
AcDbLine
 10
74.90235185546875
 20
78.42339443359374
 30
0.0
 11
76.23060185546876
 21
78.42339443359374
 31
0.0
  0
SPLINE
  5
F3
330
17
100
AcDbEntity
  8
ENGRAVE
100
AcDbSpline
 70
0
 71
2
 72
12
 73
9
 74
0
 40
0.0
 40
0.0
 40
0.0
 40
1.0
 40
1.0
 40
1.99999999999997
 40
1.99999999999997
 40
3.368745716243841
 40
3.368745716243841
 40
4.737491432487712
 40
4.737491432487712
 40
4.737491432487712
 10
74.80090927734375
 20
78.99330927734376
 30
0.0
 10
74.67534814453126
 20
78.92085927734375
 30
0.0
 10
74.62462685546878
 20
78.85565742187501
 30
0.0
 10
74.57390556640624
 20
78.79045556640624
 30
0.0
 10
74.57390556640625
 20
78.69869814453125
 30
0.0
 10
74.57390556640627
 20
78.57310556640628
 30
0.0
 10
74.663257421875
 20
78.49825
 30
0.0
 10
74.75260927734374
 20
78.42339443359374
 30
0.0
 10
74.90235185546875
 20
78.42339443359374
 30
0.0
  0
SPLINE
  5
F4
330
17
100
AcDbEntity
  8
ENGRAVE
100
AcDbSpline
 70
0
 71
2
 72
10
 73
7
 74
0
 40
0.0
 40
0.0
 40
0.0
 40
1.0
 40
1.0
 40
2.0000000000000417
 40
2.0000000000000417
 40
3.0000000000000835
 40
3.0000000000000835
 40
3.0000000000000835
 10
75.72826298828126
 20
79.87239443359375
 30
0.0
 10
75.52540927734375
 20
79.61639814453127
 30
0.0
 10
75.38050927734376
 20
79.44734814453125
 30
0.0
 10
75.23560927734377
 20
79.27829814453123
 30
0.0
 10
75.10278427734376
 20
79.1720287109375
 30
0.0
 10
74.96995927734378
 20
79.06575927734377
 30
0.0
 10
74.80090927734376
 20
78.99330927734376
 30
0.0
  0
LINE
  5
F5
330
17
100
AcDbEntity
  8
ENGRAVE
100
AcDbLine
 10
76.27890185546876
 20
80.60170556640625
 30
0.0
 11
75.72826298828126
 21
79.87239443359375
 31
0.0
  0
LINE
  5
F6
330
17
100
AcDbEntity
  8
ENGRAVE
100
AcDbLine
 10
75.24526298828125
 20
82.11350185546875
 30
0.0
 11
76.27890185546876
 21
80.60170556640625
 31
0.0
  0
SPLINE
  5
F7
330
17
100
AcDbEntity
  8
ENGRAVE
100
AcDbSpline
 70
0
 71
2
 72
8
 73
5
 74
0
 40
0.0
 40
0.0
 40
0.0
 40
1.0
 40
1.0
 40
2.000000000000024
 40
2.000000000000024
 40
2.000000000000024
 10
74.82024814453126
 20
82.47090927734374
 30
0.0
 10
74.92650185546876
 20
82.42745185546875
 30
0.0
 10
75.03275556640625
 20
82.350175
 30
0.0
 10
75.13900927734375
 20
82.27289814453128
 30
0.0
 10
75.24526298828124
 20
82.11350185546874
 30
0.0
  0
SPLINE
  5
F8
330
17
100
AcDbEntity
  8
ENGRAVE
100
AcDbSpline
 70
0
 71
2
 72
12
 73
9
 74
0
 40
0.0
 40
0.0
 40
0.0
 40
1.0
 40
1.0
 40
2.000000000000017
 40
2.000000000000017
 40
2.851941162286033
 40
2.851941162286033
 40
3.703882324571972
 40
3.703882324571972
 40
3.703882324571972
 10
74.95065185546876
 20
83.05050927734376
 30
0.0
 10
74.79609814453126
 20
83.05050927734374
 30
0.0
 10
74.70432500000001
 20
82.97565371093751
 30
0.0
 10
74.61255185546875
 20
82.90079814453127
 30
0.0
 10
74.61255185546875
 20
82.77039443359376
 30
0.0
 10
74.61255185546878
 20
82.65929814453126
 30
0.0
 10
74.656025
 20
82.58925371093751
 30
0.0
 10
74.6994981445313
 20
82.51920927734376
 30
0.0
 10
74.82024814453126
 20
82.47090927734376
 30
0.0
  0
LINE
  5
F9
330
17
100
AcDbEntity
  8
ENGRAVE
100
AcDbLine
 10
77.43325927734375
 20
83.05050927734375
 30
0.0
 11
74.95065185546876
 21
83.05050927734375
 31
0.0
  0
SPLINE
  5
FA
330
17
100
AcDbEntity
  8
ENGRAVE
100
AcDbSpline
 70
0
 71
3
 72
11
 73
7
 74
0
 40
0.0
 40
0.0
 40
0.0
 40
0.0
 40
2.0
 40
2.0
 40
2.0
 40
4.999638336347488
 40
4.999638336347488
 40
4.999638336347488
 40
4.999638336347488
 10
77.64095556640628
 20
82.52405185546874
 30
0.0
 10
77.72468395182287
 20
82.59046646118284
 30
0.0
 10
77.76654814453124
 20
82.65726257527547
 30
0.0
 10
77.76654814453126
 20
82.77520556640624
 30
0.0
 10
77.76906722061929
 20
82.94756704564941
 30
0.0
 10
77.6368118158391
 20
83.05201941268392
 30
0.0
 10
77.43325927734375
 20
83.05050927734375
 30
0.0
  0
LINE
  5
FB
330
17
100
AcDbEntity
  8
ENGRAVE
100
AcDbLine
 10
77.53470185546875
 20
82.46125556640625
 30
0.0
 11
77.64095556640626
 21
82.52405185546876
 31
0.0
  0
SPLINE
  5
FC
330
17
100
AcDbEntity
  8
ENGRAVE
100
AcDbSpline
 70
0
 71
2
 72
8
 73
5
 74
0
 40
0.0
 40
0.0
 40
0.0
 40
1.0
 40
1.0
 40
2.0000000000000075
 40
2.0000000000000075
 40
2.0000000000000075
 10
77.53951298828125
 20
82.15214814453124
 30
0.0
 10
77.45259814453127
 20
82.27770927734375
 30
0.0
 10
77.4550037109375
 20
82.345332421875
 30
0.0
 10
77.45740927734376
 20
82.41295556640625
 30
0.0
 10
77.53470185546874
 20
82.46125556640625
 30
0.0
  0
ENDSEC
  0
SECTION
  2
OBJECTS
  0
DICTIONARY
  5
A
330
0
100
AcDbDictionary
281
1
  3
ACAD_COLOR
350
B
  3
ACAD_GROUP
350
C
  3
ACAD_LAYOUT
350
D
  3
ACAD_MATERIAL
350
E
  3
ACAD_MLEADERSTYLE
350
F
  3
ACAD_MLINESTYLE
350
10
  3
ACAD_PLOTSETTINGS
350
11
  3
ACAD_PLOTSTYLENAME
350
12
  3
ACAD_SCALELIST
350
14
  3
ACAD_TABLESTYLE
350
15
  3
ACAD_VISUALSTYLE
350
16
  3
EZDXF_META
350
2D
  0
DICTIONARY
  5
B
330
A
100
AcDbDictionary
281
1
  0
DICTIONARY
  5
C
330
A
100
AcDbDictionary
281
1
  0
DICTIONARY
  5
D
330
A
100
AcDbDictionary
281
1
  3
Model
350
1A
  3
Layout1
350
1E
  0
DICTIONARY
  5
E
330
A
100
AcDbDictionary
281
1
  3
ByBlock
350
1F
  3
ByLayer
350
20
  3
Global
350
21
  0
DICTIONARY
  5
F
330
A
100
AcDbDictionary
281
1
  3
Standard
350
2C
  0
DICTIONARY
  5
10
330
A
100
AcDbDictionary
281
1
  3
Standard
350
22
  0
DICTIONARY
  5
11
330
A
100
AcDbDictionary
281
1
  0
ACDBDICTIONARYWDFLT
  5
12
330
A
100
AcDbDictionary
281
1
  3
Normal
350
13
100
AcDbDictionaryWithDefault
340
13
  0
ACDBPLACEHOLDER
  5
13
330
12
  0
DICTIONARY
  5
14
330
A
100
AcDbDictionary
281
1
  0
DICTIONARY
  5
15
330
A
100
AcDbDictionary
281
1
  0
DICTIONARY
  5
16
330
A
100
AcDbDictionary
281
1
  0
LAYOUT
  5
1A
330
D
100
AcDbPlotSettings
  1

  4
A3
  6

 40
7.5
 41
20.0
 42
7.5
 43
20.0
 44
420.0
 45
297.0
 46
0.0
 47
0.0
 48
0.0
 49
0.0
140
0.0
141
0.0
142
1.0
143
1.0
 70
1024
 72
1
 73
0
 74
5
  7

 75
16
 76
0
 77
2
 78
300
147
1.0
148
0.0
149
0.0
100
AcDbLayout
  1
Model
 70
1
 71
0
 10
0.0
 20
0.0
 11
420.0
 21
297.0
 12
0.0
 22
0.0
 32
0.0
 14
1e+20
 24
1e+20
 34
1e+20
 15
-1e+20
 25
-1e+20
 35
-1e+20
146
0.0
 13
0.0
 23
0.0
 33
0.0
 16
1.0
 26
0.0
 36
0.0
 17
0.0
 27
1.0
 37
0.0
 76
1
330
17
  0
LAYOUT
  5
1E
330
D
100
AcDbPlotSettings
  1

  4
A3
  6

 40
7.5
 41
20.0
 42
7.5
 43
20.0
 44
420.0
 45
297.0
 46
0.0
 47
0.0
 48
0.0
 49
0.0
140
0.0
141
0.0
142
1.0
143
1.0
 70
0
 72
1
 73
0
 74
5
  7

 75
16
 76
0
 77
2
 78
300
147
1.0
148
0.0
149
0.0
100
AcDbLayout
  1
Layout1
 70
1
 71
1
 10
0.0
 20
0.0
 11
420.0
 21
297.0
 12
0.0
 22
0.0
 32
0.0
 14
1e+20
 24
1e+20
 34
1e+20
 15
-1e+20
 25
-1e+20
 35
-1e+20
146
0.0
 13
0.0
 23
0.0
 33
0.0
 16
1.0
 26
0.0
 36
0.0
 17
0.0
 27
1.0
 37
0.0
 76
1
330
1B
  0
MATERIAL
  5
1F
102
{ACAD_REACTORS
330
E
102
}
330
E
100
AcDbMaterial
  1
ByBlock
  2

 70
0
 40
1.0
 71
1
 41
1.0
 91
-1023410177
 42
1.0
 72
1
  3

 73
1
 74
1
 75
1
 44
0.5
 73
0
 45
1.0
 46
1.0
 77
1
  4

 78
1
 79
1
170
1
 48
1.0
171
1
  6

172
1
173
1
174
1
140
1.0
141
1.0
175
1
  7

176
1
177
1
178
1
143
1.0
179
1
  8

270
1
271
1
272
1
145
1.0
146
1.0
273
1
  9

274
1
275
1
276
1
 42
1.0
 72
1
  3

 73
1
 74
1
 75
1
 94
63
  0
MATERIAL
  5
20
102
{ACAD_REACTORS
330
E
102
}
330
E
100
AcDbMaterial
  1
ByLayer
  2

 70
0
 40
1.0
 71
1
 41
1.0
 91
-1023410177
 42
1.0
 72
1
  3

 73
1
 74
1
 75
1
 44
0.5
 73
0
 45
1.0
 46
1.0
 77
1
  4

 78
1
 79
1
170
1
 48
1.0
171
1
  6

172
1
173
1
174
1
140
1.0
141
1.0
175
1
  7

176
1
177
1
178
1
143
1.0
179
1
  8

270
1
271
1
272
1
145
1.0
146
1.0
273
1
  9

274
1
275
1
276
1
 42
1.0
 72
1
  3

 73
1
 74
1
 75
1
 94
63
  0
MATERIAL
  5
21
102
{ACAD_REACTORS
330
E
102
}
330
E
100
AcDbMaterial
  1
Global
  2

 70
0
 40
1.0
 71
1
 41
1.0
 91
-1023410177
 42
1.0
 72
1
  3

 73
1
 74
1
 75
1
 44
0.5
 73
0
 45
1.0
 46
1.0
 77
1
  4

 78
1
 79
1
170
1
 48
1.0
171
1
  6

172
1
173
1
174
1
140
1.0
141
1.0
175
1
  7

176
1
177
1
178
1
143
1.0
179
1
  8

270
1
271
1
272
1
145
1.0
146
1.0
273
1
  9

274
1
275
1
276
1
 42
1.0
 72
1
  3

 73
1
 74
1
 75
1
 94
63
  0
MLINESTYLE
  5
22
102
{ACAD_REACTORS
330
10
102
}
330
10
100
AcDbMlineStyle
  2
Standard
 70
0
  3

 62
256
 51
90.0
 52
90.0
 71
2
 49
0.5
 62
256
  6
BYLAYER
 49
-0.5
 62
256
  6
BYLAYER
  0
MLEADERSTYLE
  5
2C
102
{ACAD_REACTORS
330
F
102
}
330
F
100
AcDbMLeaderStyle
179
2
170
2
171
1
172
0
 90
2
 40
0.0
 41
0.0
173
1
 91
-1056964608
 92
-2
290
1
 42
2.0
291
1
 43
8.0
  3
Standard
 44
4.0
300

342
29
174
1
175
1
176
0
178
1
 93
-1056964608
 45
4.0
292
0
297
0
 46
4.0
 94
-1056964608
 47
1.0
 49
1.0
140
1.0
294
1
141
0.0
177
0
142
1.0
295
0
296
0
143
3.75
271
0
272
9
273
9
  0
DICTIONARY
  5
2D
330
A
100
AcDbDictionary
280
1
281
1
  3
CREATED_BY_EZDXF
350
2E
  3
WRITTEN_BY_EZDXF
350
100
  0
DICTIONARYVAR
  5
2E
330
2D
100
DictionaryVariables
280
0
  1
1.4.4 @ 2026-10-08T03:42:41.322961+00:00
  0
DICTIONARYVAR
  5
100
330
2D
100
DictionaryVariables
280
0
  1
1.4.4 @ 2026-10-08T03:42:41.412820+00:00
  0
ENDSEC
  0
EOF
