  0
SECTION
  2
HEADER
  9
$ACADVER
  1
AC1027
  9
$ACADMAINTVER
 70
105
  9
$DWGCODEPAGE
  3
ANSI_1252
  9
$LASTSAVEDBY
  1
ezdxf
  9
$REQUIREDVERSIONS
160
0
  9
$INSBASE
 10
0.0
 20
0.0
 30
0.0
  9
$EXTMIN
 10
1e+20
 20
1e+20
 30
1e+20
  9
$EXTMAX
 10
-1e+20
 20
-1e+20
 30
-1e+20
  9
$LIMMIN
 10
0.0
 20
0.0
  9
$LIMMAX
 10
420.0
 20
297.0
  9
$ORTHOMODE
 70
0
  9
$REGENMODE
 70
1
  9
$FILLMODE
 70
1
  9
$QTEXTMODE
 70
0
  9
$MIRRTEXT
 70
1
  9
$LTSCALE
 40
1.0
  9
$ATTMODE
 70
1
  9
$TEXTSIZE
 40
2.5
  9
$TRACEWID
 40
1.0
  9
$TEXTSTYLE
  7
Standard
  9
$CLAYER
  8
0
  9
$CELTYPE
  6
ByLayer
  9
$CECOLOR
 62
256
  9
$CELTSCALE
 40
1.0
  9
$DISPSILH
 70
0
  9
$DIMSCALE
 40
1.0
  9
$DIMASZ
 40
2.5
  9
$DIMEXO
 40
0.625
  9
$DIMDLI
 40
3.75
  9
$DIMRND
 40
0.0
  9
$DIMDLE
 40
0.0
  9
$DIMEXE
 40
1.25
  9
$DIMTP
 40
0.0
  9
$DIMTM
 40
0.0
  9
$DIMTXT
 40
2.5
  9
$DIMCEN
 40
2.5
  9
$DIMTSZ
 40
0.0
  9
$DIMTOL
 70
0
  9
$DIMLIM
 70
0
  9
$DIMTIH
 70
0
  9
$DIMTOH
 70
0
  9
$DIMSE1
 70
0
  9
$DIMSE2
 70
0
  9
$DIMTAD
 70
1
  9
$DIMZIN
 70
8
  9
$DIMBLK
  1

  9
$DIMASO
 70
1
  9
$DIMSHO
 70
1
  9
$DIMPOST
  1

  9
$DIMAPOST
  1

  9
$DIMALT
 70
0
  9
$DIMALTD
 70
3
  9
$DIMALTF
 40
0.03937007874
  9
$DIMLFAC
 40
1.0
  9
$DIMTOFL
 70
1
  9
$DIMTVP
 40
0.0
  9
$DIMTIX
 70
0
  9
$DIMSOXD
 70
0
  9
$DIMSAH
 70
0
  9
$DIMBLK1
  1

  9
$DIMBLK2
  1

  9
$DIMSTYLE
  2
ISO-25
  9
$DIMCLRD
 70
0
  9
$DIMCLRE
 70
0
  9
$DIMCLRT
 70
0
  9
$DIMTFAC
 40
1.0
  9
$DIMGAP
 40
0.625
  9
$DIMJUST
 70
0
  9
$DIMSD1
 70
0
  9
$DIMSD2
 70
0
  9
$DIMTOLJ
 70
0
  9
$DIMTZIN
 70
8
  9
$DIMALTZ
 70
0
  9
$DIMALTTZ
 70
0
  9
$DIMUPT
 70
0
  9
$DIMDEC
 70
2
  9
$DIMTDEC
 70
2
  9
$DIMALTU
 70
2
  9
$DIMALTTD
 70
3
  9
$DIMTXSTY
  7
Standard
  9
$DIMAUNIT
 70
0
  9
$DIMADEC
 70
0
  9
$DIMALTRND
 40
0.0
  9
$DIMAZIN
 70
0
  9
$DIMDSEP
 70
44
  9
$DIMATFIT
 70
3
  9
$DIMFRAC
 70
0
  9
$DIMLDRBLK
  1

  9
$DIMLUNIT
 70
2
  9
$DIMLWD
 70
-2
  9
$DIMLWE
 70
-2
  9
$DIMTMOVE
 70
0
  9
$DIMFXL
 40
1.0
  9
$DIMFXLON
 70
0
  9
$DIMJOGANG
 40
0.785398163397
  9
$DIMTFILL
 70
0
  9
$DIMTFILLCLR
 70
0
  9
$DIMARCSYM
 70
0
  9
$DIMLTYPE
  6

  9
$DIMLTEX1
  6

  9
$DIMLTEX2
  6

  9
$DIMTXTDIRECTION
 70
0
  9
$LUNITS
 70
2
  9
$LUPREC
 70
4
  9
$SKETCHINC
 40
1.0
  9
$FILLETRAD
 40
10.0
  9
$AUNITS
 70
0
  9
$AUPREC
 70
2
  9
$MENU
  1
.
  9
$ELEVATION
 40
0.0
  9
$PELEVATION
 40
0.0
  9
$THICKNESS
 40
0.0
  9
$LIMCHECK
 70
0
  9
$CHAMFERA
 40
0.0
  9
$CHAMFERB
 40
0.0
  9
$CHAMFERC
 40
0.0
  9
$CHAMFERD
 40
0.0
  9
$SKPOLY
 70
0
  9
$TDCREATE
 40
2461321.971608796
  9
$TDUCREATE
 40
2458532.153996898
  9
$TDUPDATE
 40
2461321.971608796
  9
$TDUUPDATE
 40
2458532.1544311
  9
$TDINDWG
 40
0.0
  9
$TDUSRTIMER
 40
0.0
  9
$USRTIMER
 70
1
  9
$ANGBASE
 50
0.0
  9
$ANGDIR
 70
0
  9
$PDMODE
 70
0
  9
$PDSIZE
 40
0.0
  9
$PLINEWID
 40
0.0
  9
$SPLFRAME
 70
0
  9
$SPLINETYPE
 70
6
  9
$SPLINESEGS
 70
8
  9
$HANDSEED
  5
10C
  9
$SURFTAB1
 70
6
  9
$SURFTAB2
 70
6
  9
$SURFTYPE
 70
6
  9
$SURFU
 70
6
  9
$SURFV
 70
6
  9
$UCSBASE
  2

  9
$UCSNAME
  2

  9
$UCSORG
 10
0.0
 20
0.0
 30
0.0
  9
$UCSXDIR
 10
1.0
 20
0.0
 30
0.0
  9
$UCSYDIR
 10
0.0
 20
1.0
 30
0.0
  9
$UCSORTHOREF
  2

  9
$UCSORTHOVIEW
 70
0
  9
$UCSORGTOP
 10
0.0
 20
0.0
 30
0.0
  9
$UCSORGBOTTOM
 10
0.0
 20
0.0
 30
0.0
  9
$UCSORGLEFT
 10
0.0
 20
0.0
 30
0.0
  9
$UCSORGRIGHT
 10
0.0
 20
0.0
 30
0.0
  9
$UCSORGFRONT
 10
0.0
 20
0.0
 30
0.0
  9
$UCSORGBACK
 10
0.0
 20
0.0
 30
0.0
  9
$PUCSBASE
  2

  9
$PUCSNAME
  2

  9
$PUCSORG
 10
0.0
 20
0.0
 30
0.0
  9
$PUCSXDIR
 10
1.0
 20
0.0
 30
0.0
  9
$PUCSYDIR
 10
0.0
 20
1.0
 30
0.0
  9
$PUCSORTHOREF
  2

  9
$PUCSORTHOVIEW
 70
0
  9
$PUCSORGTOP
 10
0.0
 20
0.0
 30
0.0
  9
$PUCSORGBOTTOM
 10
0.0
 20
0.0
 30
0.0
  9
$PUCSORGLEFT
 10
0.0
 20
0.0
 30
0.0
  9
$PUCSORGRIGHT
 10
0.0
 20
0.0
 30
0.0
  9
$PUCSORGFRONT
 10
0.0
 20
0.0
 30
0.0
  9
$PUCSORGBACK
 10
0.0
 20
0.0
 30
0.0
  9
$USERI1
 70
0
  9
$USERI2
 70
0
  9
$USERI3
 70
0
  9
$USERI4
 70
0
  9
$USERI5
 70
0
  9
$USERR1
 40
0.0
  9
$USERR2
 40
0.0
  9
$USERR3
 40
0.0
  9
$USERR4
 40
0.0
  9
$USERR5
 40
0.0
  9
$WORLDVIEW
 70
1
  9
$SHADEDGE
 70
3
  9
$SHADEDIF
 70
70
  9
$TILEMODE
 70
1
  9
$MAXACTVP
 70
64
  9
$PINSBASE
 10
0.0
 20
0.0
 30
0.0
  9
$PLIMCHECK
 70
0
  9
$PEXTMIN
 10
1e+20
 20
1e+20
 30
1e+20
  9
$PEXTMAX
 10
-1e+20
 20
-1e+20
 30
-1e+20
  9
$PLIMMIN
 10
0.0
 20
0.0
  9
$PLIMMAX
 10
420.0
 20
297.0
  9
$UNITMODE
 70
0
  9
$VISRETAIN
 70
1
  9
$PLINEGEN
 70
0
  9
$PSLTSCALE
 70
1
  9
$TREEDEPTH
 70
3020
  9
$CMLSTYLE
  2
Standard
  9
$CMLJUST
 70
0
  9
$CMLSCALE
 40
20.0
  9
$PROXYGRAPHICS
 70
1
  9
$MEASUREMENT
 70
1
  9
$CELWEIGHT
370
-1
  9
$ENDCAPS
280
0
  9
$JOINSTYLE
280
0
  9
$LWDISPLAY
290
0
  9
$INSUNITS
 70
4
  9
$HYPERLINKBASE
  1

  9
$STYLESHEET
  1

  9
$XEDIT
290
1
  9
$CEPSNTYPE
380
0
  9
$PSTYLEMODE
290
1
  9
$FINGERPRINTGUID
  2
{6742A5F3-3876-4EF9-B37B-DA7CF4F33F42}
  9
$VERSIONGUID
  2
{03547D27-0EB8-4CDC-8864-D0A1EF57F9DC}
  9
$EXTNAMES
290
1
  9
$PSVPSCALE
 40
0.0
  9
$OLESTARTUP
290
0
  9
$SORTENTS
280
127
  9
$INDEXCTL
280
0
  9
$HIDETEXT
280
1
  9
$XCLIPFRAME
280
1
  9
$HALOGAP
280
0
  9
$OBSCOLOR
 70
257
  9
$OBSLTYPE
280
0
  9
$INTERSECTIONDISPLAY
280
0
  9
$INTERSECTIONCOLOR
 70
257
  9
$DIMASSOC
280
2
  9
$PROJECTNAME
  1

  9
$CAMERADISPLAY
290
0
  9
$LENSLENGTH
 40
50.0
  9
$CAMERAHEIGHT
 40
0.0
  9
$STEPSPERSEC
 40
24.0
  9
$STEPSIZE
 40
100.0
  9
$3DDWFPREC
 40
2.0
  9
$PSOLWIDTH
 40
0.005
  9
$PSOLHEIGHT
 40
0.08
  9
$LOFTANG1
 40
1.570796326795
  9
$LOFTANG2
 40
1.570796326795
  9
$LOFTMAG1
 40
0.0
  9
$LOFTMAG2
 40
0.0
  9
$LOFTPARAM
 70
7
  9
$LOFTNORMALS
280
1
  9
$LATITUDE
 40
37.795
  9
$LONGITUDE
 40
-122.394
  9
$NORTHDIRECTION
 40
0.0
  9
$TIMEZONE
 70
-8000
  9
$LIGHTGLYPHDISPLAY
280
1
  9
$TILEMODELIGHTSYNCH
280
1
  9
$CMATERIAL
347
20
  9
$SOLIDHIST
280
0
  9
$SHOWHIST
280
1
  9
$DWFFRAME
280
2
  9
$DGNFRAME
280
2
  9
$REALWORLDSCALE
290
1
  9
$INTERFERECOLOR
 62
256
  9
$CSHADOW
280
0
  9
$SHADOWPLANELOCATION
 40
0.0
  0
ENDSEC
  0
SECTION
  2
CLASSES
  0
CLASS
  1
ACDBDICTIONARYWDFLT
  2
AcDbDictionaryWithDefault
  3
ObjectDBX Classes
 90
0
 91
0
280
0
281
0
  0
CLASS
  1
SUN
  2
AcDbSun
  3
SCENEOE
 90
1153
 91
0
280
0
281
0
  0
CLASS
  1
VISUALSTYLE
  2
AcDbVisualStyle
  3
ObjectDBX Classes
 90
4095
 91
0
280
0
281
0
  0
CLASS
  1
MATERIAL
  2
AcDbMaterial
  3
ObjectDBX Classes
 90
1153
 91
0
280
0
281
0
  0
CLASS
  1
SCALE
  2
AcDbScale
  3
ObjectDBX Classes
 90
1153
 91
0
280
0
281
0
  0
CLASS
  1
TABLESTYLE
  2
AcDbTableStyle
  3
ObjectDBX Classes
 90
4095
 91
0
280
0
281
0
  0
CLASS
  1
MLEADERSTYLE
  2
AcDbMLeaderStyle
  3
ACDB_MLEADERSTYLE_CLASS
 90
4095
 91
0
280
0
281
0
  0
CLASS
  1
DICTIONARYVAR
  2
AcDbDictionaryVar
  3
ObjectDBX Classes
 90
0
 91
0
280
0
281
0
  0
CLASS
  1
CELLSTYLEMAP
  2
AcDbCellStyleMap
  3
ObjectDBX Classes
 90
1152
 91
0
280
0
281
0
  0
CLASS
  1
MENTALRAYRENDERSETTINGS
  2
AcDbMentalRayRenderSettings
  3
SCENEOE
 90
1024
 91
0
280
0
281
0
  0
CLASS
  1
ACDBDETAILVIEWSTYLE
  2
AcDbDetailViewStyle
  3
ObjectDBX Classes
 90
1025
 91
0
280
0
281
0
  0
CLASS
  1
ACDBSECTIONVIEWSTYLE
  2
AcDbSectionViewStyle
  3
ObjectDBX Classes
 90
1025
 91
0
280
0
281
0
  0
CLASS
  1
RASTERVARIABLES
  2
AcDbRasterVariables
  3
ISM
 90
0
 91
0
280
0
281
0
  0
CLASS
  1
ACDBPLACEHOLDER
  2
AcDbPlaceHolder
  3
ObjectDBX Classes
 90
0
 91
0
280
0
281
0
  0
CLASS
  1
LAYOUT
  2
AcDbLayout
  3
ObjectDBX Classes
 90
0
 91
0
280
0
281
0
  0
ENDSEC
  0
SECTION
  2
TABLES
  0
TABLE
  2
VPORT
  5
8
330
0
100
AcDbSymbolTable
 70
1
  0
VPORT
  5
108
330
8
100
AcDbSymbolTableRecord
100
AcDbViewportTableRecord
  2
*Active
 70
0
 10
0.0
 20
0.0
 11
1.0
 21
1.0
 12
90.0
 22
83.25
 13
0.0
 23
0.0
 14
0.5
 24
0.5
 15
0.5
 25
0.5
 16
0.0
 26
0.0
 36
1.0
 17
0.0
 27
0.0
 37
0.0
 40
166.5
 41
1.34
 42
50.0
 43
0.0
 44
0.0
 50
0.0
 51
0.0
 71
0
 72
1000
 73
1
 74
3
 75
0
 76
0
 77
0
 78
0
281
0
 65
1
110
0.0
120
0.0
130
0.0
111
1.0
121
0.0
131
0.0
112
0.0
122
1.0
132
0.0
 79
0
146
0.0
  0
ENDTAB
  0
TABLE
  2
LTYPE
  5
2
330
0
100
AcDbSymbolTable
 70
3
  0
LTYPE
  5
24
330
2
100
AcDbSymbolTableRecord
100
AcDbLinetypeTableRecord
  2
ByBlock
 70
0
  3

 72
65
 73
0
 40
0.0
  0
LTYPE
  5
25
330
2
100
AcDbSymbolTableRecord
100
AcDbLinetypeTableRecord
  2
ByLayer
 70
0
  3

 72
65
 73
0
 40
0.0
  0
LTYPE
  5
26
330
2
100
AcDbSymbolTableRecord
100
AcDbLinetypeTableRecord
  2
Continuous
 70
0
  3

 72
65
 73
0
 40
0.0
  0
ENDTAB
  0
TABLE
  2
LAYER
  5
1
330
0
100
AcDbSymbolTable
 70
4
  0
LAYER
  5
27
330
1
100
AcDbSymbolTableRecord
100
AcDbLayerTableRecord
  2
0
 70
0
 62
7
  6
Continuous
370
-3
390
13
347
21
  0
LAYER
  5
28
330
1
100
AcDbSymbolTableRecord
100
AcDbLayerTableRecord
  2
Defpoints
 70
0
 62
7
  6
Continuous
290
0
370
-3
390
13
347
21
  0
LAYER
  5
2F
330
1
100
AcDbSymbolTableRecord
100
AcDbLayerTableRecord
  2
CUT
 70
0
 62
1
  6
Continuous
370
-3
390
13
347
21
  0
LAYER
  5
30
330
1
100
AcDbSymbolTableRecord
100
AcDbLayerTableRecord
  2
ENGRAVE
 70
0
 62
7
  6
Continuous
370
-3
390
13
347
21
  0
ENDTAB
  0
TABLE
  2
STYLE
  5
5
330
0
100
AcDbSymbolTable
 70
1
  0
STYLE
  5
29
330
5
100
AcDbSymbolTableRecord
100
AcDbTextStyleTableRecord
  2
Standard
 70
0
 40
0.0
 41
1.0
 50
0.0
 71
0
 42
2.5
  3
txt
  4

  0
ENDTAB
  0
TABLE
  2
VIEW
  5
7
330
0
100
AcDbSymbolTable
 70
0
  0
ENDTAB
  0
TABLE
  2
UCS
  5
6
330
0
100
AcDbSymbolTable
 70
0
  0
ENDTAB
  0
TABLE
  2
APPID
  5
3
330
0
100
AcDbSymbolTable
 70
3
  0
APPID
  5
2A
330
3
100
AcDbSymbolTableRecord
100
AcDbRegAppTableRecord
  2
ACAD
 70
0
  0
APPID
  5
109
330
3
100
AcDbSymbolTableRecord
100
AcDbRegAppTableRecord
  2
HATCHBACKGROUNDCOLOR
 70
0
  0
APPID
  5
10A
330
3
100
AcDbSymbolTableRecord
100
AcDbRegAppTableRecord
  2
EZDXF
 70
0
  0
ENDTAB
  0
TABLE
  2
DIMSTYLE
  5
4
330
0
100
AcDbSymbolTable
 70
1
100
AcDbDimStyleTable
  0
DIMSTYLE
105
2B
330
4
100
AcDbSymbolTableRecord
100
AcDbDimStyleTableRecord
  2
Standard
 70
0
 40
1.0
 41
2.5
 42
0.625
 43
3.75
 44
1.25
 45
0.0
 46
0.0
 47
0.0
 48
0.0
 49
2.5
140
2.5
141
2.5
142
0.0
143
0.03937007874
144
1.0
145
0.0
146
1.0
147
0.625
148
0.0
 69
0
 70
0
 71
0
 72
0
 73
0
 74
0
 75
0
 76
0
 77
1
 78
8
 79
3
170
0
171
3
172
1
173
0
174
0
175
0
176
0
177
0
178
0
179
2
271
2
272
2
273
2
274
3
275
0
276
0
277
2
278
44
279
0
280
0
281
0
282
0
283
0
284
8
285
0
286
0
288
0
289
3
290
0
371
-2
372
-2
  0
ENDTAB
  0
TABLE
  2
BLOCK_RECORD
  5
9
330
0
100
AcDbSymbolTable
 70
2
  0
BLOCK_RECORD
  5
17
330
9
100
AcDbSymbolTableRecord
100
AcDbBlockTableRecord
  2
*Model_Space
340
1A
 70
0
280
1
281
0
  0
BLOCK_RECORD
  5
1B
330
9
100
AcDbSymbolTableRecord
100
AcDbBlockTableRecord
  2
*Paper_Space
340
1E
 70
0
280
1
281
0
  0
ENDTAB
  0
ENDSEC
  0
SECTION
  2
BLOCKS
  0
BLOCK
  5
18
330
17
100
AcDbEntity
  8
0
100
AcDbBlockBegin
  2
*Model_Space
 70
0
 10
0.0
 20
0.0
 30
0.0
  3
*Model_Space
  1

  0
ENDBLK
  5
19
330
17
100
AcDbEntity
  8
0
100
AcDbBlockEnd
  0
BLOCK
  5
1C
330
1B
100
AcDbEntity
  8
0
100
AcDbBlockBegin
  2
*Paper_Space
 70
0
 10
0.0
 20
0.0
 30
0.0
  3
*Paper_Space
  1

  0
ENDBLK
  5
1D
330
1B
100
AcDbEntity
  8
0
100
AcDbBlockEnd
  0
ENDSEC
  0
SECTION
  2
ENTITIES
  0
LINE
  5
31
330
17
100
AcDbEntity
  8
CUT
100
AcDbLine
 10
0.0
 20
160.5
 30
0.0
 11
0.0
 21
6.0
 31
0.0
  0
ARC
  5
32
330
17
100
AcDbEntity
  8
CUT
100
AcDbCircle
 10
6.0
 20
6.0
 30
0.0
 40
6.0
100
AcDbArc
 50
180.0
 51
270.0
  0
ARC
  5
33
330
17
100
AcDbEntity
  8
CUT
100
AcDbCircle
 10
6.0
 20
160.5
 30
0.0
 40
6.0
100
AcDbArc
 50
90.0
 51
180.0
  0
LINE
  5
34
330
17
100
AcDbEntity
  8
CUT
100
AcDbLine
 10
6.0
 20
0.0
 30
0.0
 11
174.0
 21
0.0
 31
0.0
  0
LINE
  5
35
330
17
100
AcDbEntity
  8
CUT
100
AcDbLine
 10
174.0
 20
166.5
 30
0.0
 11
6.0
 21
166.5
 31
0.0
  0
ARC
  5
36
330
17
100
AcDbEntity
  8
CUT
100
AcDbCircle
 10
174.0
 20
6.0
 30
0.0
 40
6.0
100
AcDbArc
 50
270.0
 51
360.0
  0
ARC
  5
37
330
17
100
AcDbEntity
  8
CUT
100
AcDbCircle
 10
174.0
 20
160.5
 30
0.0
 40
6.0
100
AcDbArc
 50
0.0
 51
90.0
  0
LINE
  5
38
330
17
100
AcDbEntity
  8
CUT
100
AcDbLine
 10
180.0
 20
6.0
 30
0.0
 11
180.0
 21
160.5
 31
0.0
  0
CIRCLE
  5
39
330
17
100
AcDbEntity
  8
CUT
100
AcDbCircle
 10
90.0
 20
34.8
 30
0.0
 40
7.387794646274727
  0
ARC
  5
3A
330
17
100
AcDbEntity
  8
CUT
100
AcDbCircle
 10
120.29
 20
34.79
 30
0.0
 40
5.111644277956717
100
AcDbArc
 50
180.0
 51
270.0
  0
LINE
  5
3B
330
17
100
AcDbEntity
  8
CUT
100
AcDbLine
 10
115.17835572204328
 20
34.79
 30
0.0
 11
115.17835572204328
 21
34.81
 31
0.0
  0
LINE
  5
3C
330
17
100
AcDbEntity
  8
CUT
100
AcDbLine
 10
123.71
 20
29.678355722043282
 30
0.0
 11
120.28999999999999
 21
29.678355722043282
 31
0.0
  0
ARC
  5
3D
330
17
100
AcDbEntity
  8
CUT
100
AcDbCircle
 10
120.29
 20
34.809999999999995
 30
0.0
 40
5.111644277956717
100
AcDbArc
 50
90.0
 51
180.0
  0
ARC
  5
3E
330
17
100
AcDbEntity
  8
CUT
100
AcDbCircle
 10
123.71
 20
34.79
 30
0.0
 40
5.111644277956717
100
AcDbArc
 50
270.0
 51
360.0
  0
LINE
  5
3F
330
17
100
AcDbEntity
  8
CUT
100
AcDbLine
 10
120.28999999999999
 20
39.921644277956716
 30
0.0
 11
123.71
 21
39.921644277956716
 31
0.0
  0
LINE
  5
40
330
17
100
AcDbEntity
  8
CUT
100
AcDbLine
 10
128.82164427795672
 20
34.81
 30
0.0
 11
128.82164427795672
 21
34.79
 31
0.0
  0
ARC
  5
41
330
17
100
AcDbEntity
  8
CUT
100
AcDbCircle
 10
123.71
 20
34.809999999999995
 30
0.0
 40
5.111644277956717
100
AcDbArc
 50
0.0
 51
90.0
  0
CIRCLE
  5
42
330
17
100
AcDbEntity
  8
CUT
100
AcDbCircle
 10
174.25
 20
34.8
 30
0.0
 40
1.55
  0
LINE
  5
43
330
17
100
AcDbEntity
  8
CUT
100
AcDbLine
 10
166.0
 20
61.39999999999999
 30
0.0
 11
13.799999999999997
 21
61.39999999999999
 31
0.0
  0
LINE
  5
44
330
17
100
AcDbEntity
  8
CUT
100
AcDbLine
 10
13.799999999999997
 20
61.39999999999999
 30
0.0
 11
13.799999999999997
 21
145.3
 31
0.0
  0
LINE
  5
45
330
17
100
AcDbEntity
  8
CUT
100
AcDbLine
 10
166.0
 20
145.3
 30
0.0
 11
166.0
 21
61.39999999999999
 31
0.0
  0
LINE
  5
46
330
17
100
AcDbEntity
  8
CUT
100
AcDbLine
 10
13.799999999999997
 20
145.3
 30
0.0
 11
166.0
 21
145.3
 31
0.0
  0
LINE
  5
47
330
17
100
AcDbEntity
  8
ENGRAVE
100
AcDbLine
 10
17.829832912499995
 20
38.43491640625
 30
0.0
 11
13.761600099999997
 21
38.43491640625
 31
0.0
  0
SPLINE
  5
48
330
17
100
AcDbEntity
  8
ENGRAVE
100
AcDbSpline
 70
0
 71
2
 72
6
 73
3
 74
0
 40
0.0
 40
0.0
 40
0.0
 40
1.0
 40
1.0
 40
1.0
 10
17.829832912499995
 20
38.43491640625
 30
0.0
 10
18.072734474999997
 20
38.43491640625
 30
0.0
 10
18.246618068749996
 20
38.47908359375
 30
0.0
  0
SPLINE
  5
49
330
17
100
AcDbEntity
  8
ENGRAVE
100
AcDbSpline
 70
0
 71
2
 72
6
 73
3
 74
0
 40
0.0
 40
0.0
 40
0.0
 40
1.0
 40
1.0
 40
1.0
 10
18.246618068749996
 20
38.47908359375
 30
0.0
 10
18.420501662499998
 20
38.52325078125
 30
0.0
 10
18.561250881249997
 20
38.56188359375
 30
0.0
  0
SPLINE
  5
4A
330
17
100
AcDbEntity
  8
ENGRAVE
100
AcDbSpline
 70
0
 71
2
 72
6
 73
3
 74
0
 40
0.0
 40
0.0
 40
0.0
 40
1.0
 40
1.0
 40
1.0
 10
18.561250881249997
 20
38.56188359375
 30
0.0
 10
18.7020001
 20
38.60051640625
 30
0.0
 10
18.834501662499996
 20
38.60051640625
 30
0.0
  0
SPLINE
  5
4B
330
17
100
AcDbEntity
  8
ENGRAVE
100
AcDbSpline
 70
0
 71
2
 72
6
 73
3
 74
0
 40
0.0
 40
0.0
 40
0.0
 40
1.0
 40
1.0
 40
1.0
 10
18.834501662499996
 20
38.60051640625
 30
0.0
 10
19.077367287499996
 20
38.60051640625
 30
0.0
 10
19.201567287499998
 20
38.47908359375
 30
0.0
  0
SPLINE
  5
4C
330
17
100
AcDbEntity
  8
ENGRAVE
100
AcDbSpline
 70
0
 71
2
 72
6
 73
3
 74
0
 40
0.0
 40
0.0
 40
0.0
 40
1.0
 40
1.0
 40
1.0
 10
19.201567287499998
 20
38.47908359375
 30
0.0
 10
19.325767287499996
 20
38.35765078125
 30
0.0
 10
19.4085672875
 20
38.07058203125
 30
0.0
  0
LINE
  5
4D
330
17
100
AcDbEntity
  8
ENGRAVE
100
AcDbLine
 10
19.899832912499996
 20
36.34285078125
 30
0.0
 11
19.4085672875
 21
38.07058203125
 31
0.0
  0
SPLINE
  5
4E
330
17
100
AcDbEntity
  8
ENGRAVE
100
AcDbSpline
 70
0
 71
2
 72
6
 73
3
 74
0
 40
0.0
 40
0.0
 40
0.0
 40
1.0
 40
1.0
 40
1.0
 10
19.899832912499996
 20
36.34285078125
 30
0.0
 10
19.944000099999997
 20
36.177250781249995
 30
0.0
 10
19.8501672875
 20
36.06685078125
 30
0.0
  0
SPLINE
  5
4F
330
17
100
AcDbEntity
  8
ENGRAVE
100
AcDbSpline
 70
0
 71
2
 72
6
 73
3
 74
0
 40
0.0
 40
0.0
 40
0.0
 40
1.0
 40
1.0
 40
1.0
 10
19.8501672875
 20
36.06685078125
 30
0.0
 10
19.756334474999996
 20
35.95645078125
 30
0.0
 10
19.585200099999998
 20
35.92885078125
 30
0.0
  0
SPLINE
  5
50
330
17
100
AcDbEntity
  8
ENGRAVE
100
AcDbSpline
 70
0
 71
2
 72
6
 73
3
 74
0
 40
0.0
 40
0.0
 40
0.0
 40
1.0
 40
1.0
 40
1.0
 10
19.585200099999998
 20
35.92885078125
 30
0.0
 10
19.452734474999996
 20
35.91228359375
 30
0.0
 10
19.320250881249997
 20
35.959199999999996
 30
0.0
  0
SPLINE
  5
51
330
17
100
AcDbEntity
  8
ENGRAVE
100
AcDbSpline
 70
0
 71
2
 72
6
 73
3
 74
0
 40
0.0
 40
0.0
 40
0.0
 40
1.0
 40
1.0
 40
1.0
 10
19.320250881249997
 20
35.959199999999996
 30
0.0
 10
19.187767287499998
 20
36.00611640625
 30
0.0
 10
19.0994329125
 20
36.18274921875
 30
0.0
  0
SPLINE
  5
52
330
17
100
AcDbEntity
  8
ENGRAVE
100
AcDbSpline
 70
0
 71
2
 72
6
 73
3
 74
0
 40
0.0
 40
0.0
 40
0.0
 40
1.0
 40
1.0
 40
1.0
 10
19.0994329125
 20
36.18274921875
 30
0.0
 10
18.779301662499996
 20
36.80098203125
 30
0.0
 10
18.483967287499997
 20
37.126665625
 30
0.0
  0
SPLINE
  5
53
330
17
100
AcDbEntity
  8
ENGRAVE
100
AcDbSpline
 70
0
 71
2
 72
6
 73
3
 74
0
 40
0.0
 40
0.0
 40
0.0
 40
1.0
 40
1.0
 40
1.0
 10
18.483967287499997
 20
37.126665625
 30
0.0
 10
18.188632912499997
 20
37.45234921875
 30
0.0
 10
17.87951650625
 20
37.5738
 30
0.0
  0
SPLINE
  5
54
330
17
100
AcDbEntity
  8
ENGRAVE
100
AcDbSpline
 70
0
 71
2
 72
6
 73
3
 74
0
 40
0.0
 40
0.0
 40
0.0
 40
1.0
 40
1.0
 40
1.0
 10
17.87951650625
 20
37.5738
 30
0.0
 10
17.570400099999997
 20
37.695250781249996
 30
0.0
 10
17.200567287499997
 20
37.695250781249996
 30
0.0
  0
LINE
  5
55
330
17
100
AcDbEntity
  8
ENGRAVE
100
AcDbLine
 10
16.6320001
 20
37.695250781249996
 30
0.0
 11
17.200567287499997
 21
37.695250781249996
 31
0.0
  0
LINE
  5
56
330
17
100
AcDbEntity
  8
ENGRAVE
100
AcDbLine
 10
16.6320001
 20
34.78068359375
 30
0.0
 11
16.6320001
 21
37.695250781249996
 31
0.0
  0
LINE
  5
57
330
17
100
AcDbEntity
  8
ENGRAVE
100
AcDbLine
 10
17.195032912499997
 20
34.78068359375
 30
0.0
 11
16.6320001
 21
34.78068359375
 31
0.0
  0
SPLINE
  5
58
330
17
100
AcDbEntity
  8
ENGRAVE
100
AcDbSpline
 70
0
 71
2
 72
6
 73
3
 74
0
 40
0.0
 40
0.0
 40
0.0
 40
1.0
 40
1.0
 40
1.0
 10
17.195032912499997
 20
34.78068359375
 30
0.0
 10
17.5649016625
 20
34.78068359375
 30
0.0
 10
17.724967287499997
 20
34.9269671875
 30
0.0
  0
SPLINE
  5
59
330
17
100
AcDbEntity
  8
ENGRAVE
100
AcDbSpline
 70
0
 71
2
 72
6
 73
3
 74
0
 40
0.0
 40
0.0
 40
0.0
 40
1.0
 40
1.0
 40
1.0
 10
17.724967287499997
 20
34.9269671875
 30
0.0
 10
17.885032912499998
 20
35.073250781249996
 30
0.0
 10
18.023032912499996
 20
35.50378203125
 30
0.0
  0
SPLINE
  5
5A
330
17
100
AcDbEntity
  8
ENGRAVE
100
AcDbSpline
 70
0
 71
2
 72
6
 73
3
 74
0
 40
0.0
 40
0.0
 40
0.0
 40
1.0
 40
1.0
 40
1.0
 10
18.023032912499996
 20
35.50378203125
 30
0.0
 10
18.072734474999997
 20
35.65834921875
 30
0.0
 10
18.166567287499998
 20
35.7218328125
 30
0.0
  0
SPLINE
  5
5B
330
17
100
AcDbEntity
  8
ENGRAVE
100
AcDbSpline
 70
0
 71
2
 72
6
 73
3
 74
0
 40
0.0
 40
0.0
 40
0.0
 40
1.0
 40
1.0
 40
1.0
 10
18.166567287499998
 20
35.7218328125
 30
0.0
 10
18.2604001
 20
35.78531640625
 30
0.0
 10
18.3818329125
 20
35.78531640625
 30
0.0
  0
SPLINE
  5
5C
330
17
100
AcDbEntity
  8
ENGRAVE
100
AcDbSpline
 70
0
 71
2
 72
6
 73
3
 74
0
 40
0.0
 40
0.0
 40
0.0
 40
1.0
 40
1.0
 40
1.0
 10
18.3818329125
 20
35.78531640625
 30
0.0
 10
18.679934474999996
 20
35.78531640625
 30
0.0
 10
18.746167287499997
 20
35.498283593749996
 30
0.0
  0
LINE
  5
5D
330
17
100
AcDbEntity
  8
ENGRAVE
100
AcDbLine
 10
19.176734474999996
 20
33.70978203125
 30
0.0
 11
18.746167287499997
 21
35.498283593749996
 31
0.0
  0
SPLINE
  5
5E
330
17
100
AcDbEntity
  8
ENGRAVE
100
AcDbSpline
 70
0
 71
2
 72
6
 73
3
 74
0
 40
0.0
 40
0.0
 40
0.0
 40
1.0
 40
1.0
 40
1.0
 10
19.176734474999996
 20
33.70978203125
 30
0.0
 10
19.2264001
 20
33.52211640625
 30
0.0
 10
19.168450881249996
 20
33.42
 30
0.0
  0
SPLINE
  5
5F
330
17
100
AcDbEntity
  8
ENGRAVE
100
AcDbSpline
 70
0
 71
2
 72
6
 73
3
 74
0
 40
0.0
 40
0.0
 40
0.0
 40
1.0
 40
1.0
 40
1.0
 10
19.168450881249996
 20
33.42
 30
0.0
 10
19.1105016625
 20
33.31788359375
 30
0.0
 10
18.978000099999996
 20
33.26268359375
 30
0.0
  0
SPLINE
  5
60
330
17
100
AcDbEntity
  8
ENGRAVE
100
AcDbSpline
 70
0
 71
2
 72
6
 73
3
 74
0
 40
0.0
 40
0.0
 40
0.0
 40
1.0
 40
1.0
 40
1.0
 10
18.978000099999996
 20
33.26268359375
 30
0.0
 10
18.834501662499996
 20
33.21298203125
 30
0.0
 10
18.707534474999996
 20
33.25714921875
 30
0.0
  0
SPLINE
  5
61
330
17
100
AcDbEntity
  8
ENGRAVE
100
AcDbSpline
 70
0
 71
2
 72
6
 73
3
 74
0
 40
0.0
 40
0.0
 40
0.0
 40
1.0
 40
1.0
 40
1.0
 10
18.707534474999996
 20
33.25714921875
 30
0.0
 10
18.580567287499996
 20
33.301316406249995
 30
0.0
 10
18.470167287499997
 20
33.45034921875
 30
0.0
  0
SPLINE
  5
62
330
17
100
AcDbEntity
  8
ENGRAVE
100
AcDbSpline
 70
0
 71
2
 72
6
 73
3
 74
0
 40
0.0
 40
0.0
 40
0.0
 40
1.0
 40
1.0
 40
1.0
 10
18.470167287499997
 20
33.45034921875
 30
0.0
 10
18.293534474999998
 20
33.68771640625
 30
0.0
 10
18.147250881249995
 20
33.8202
 30
0.0
  0
SPLINE
  5
63
330
17
100
AcDbEntity
  8
ENGRAVE
100
AcDbSpline
 70
0
 71
2
 72
6
 73
3
 74
0
 40
0.0
 40
0.0
 40
0.0
 40
1.0
 40
1.0
 40
1.0
 10
18.147250881249995
 20
33.8202
 30
0.0
 10
18.000967287499996
 20
33.952683593749995
 30
0.0
 10
17.813283693749998
 20
34.005116406249996
 30
0.0
  0
SPLINE
  5
64
330
17
100
AcDbEntity
  8
ENGRAVE
100
AcDbSpline
 70
0
 71
2
 72
6
 73
3
 74
0
 40
0.0
 40
0.0
 40
0.0
 40
1.0
 40
1.0
 40
1.0
 10
17.813283693749998
 20
34.005116406249996
 30
0.0
 10
17.625600099999996
 20
34.05754921875
 30
0.0
 10
17.3330329125
 20
34.05754921875
 30
0.0
  0
LINE
  5
65
330
17
100
AcDbEntity
  8
ENGRAVE
100
AcDbLine
 10
16.6320001
 20
34.05754921875
 30
0.0
 11
17.3330329125
 21
34.05754921875
 31
0.0
  0
LINE
  5
66
330
17
100
AcDbEntity
  8
ENGRAVE
100
AcDbLine
 10
16.6320001
 20
31.860582031249997
 30
0.0
 11
16.6320001
 21
34.05754921875
 31
0.0
  0
SPLINE
  5
67
330
17
100
AcDbEntity
  8
ENGRAVE
100
AcDbSpline
 70
0
 71
2
 72
6
 73
3
 74
0
 40
0.0
 40
0.0
 40
0.0
 40
1.0
 40
1.0
 40
1.0
 10
16.6320001
 20
31.860582031249997
 30
0.0
 10
16.6320001
 20
31.72811640625
 30
0.0
 10
16.69548369375
 20
31.6370328125
 30
0.0
  0
SPLINE
  5
68
330
17
100
AcDbEntity
  8
ENGRAVE
100
AcDbSpline
 70
0
 71
2
 72
6
 73
3
 74
0
 40
0.0
 40
0.0
 40
0.0
 40
1.0
 40
1.0
 40
1.0
 10
16.69548369375
 20
31.6370328125
 30
0.0
 10
16.7589672875
 20
31.54594921875
 30
0.0
 10
16.913534475
 20
31.51285078125
 30
0.0
  0
LINE
  5
69
330
17
100
AcDbEntity
  8
ENGRAVE
100
AcDbLine
 10
17.261301662499996
 20
31.441083593749998
 30
0.0
 11
16.913534475
 21
31.51285078125
 31
0.0
  0
SPLINE
  5
6A
330
17
100
AcDbEntity
  8
ENGRAVE
100
AcDbSpline
 70
0
 71
2
 72
6
 73
3
 74
0
 40
0.0
 40
0.0
 40
0.0
 40
1.0
 40
1.0
 40
1.0
 10
17.261301662499996
 20
31.441083593749998
 30
0.0
 10
17.432400099999995
 20
31.407949218749998
 30
0.0
 10
17.504167287499996
 20
31.316865625
 30
0.0
  0
SPLINE
  5
6B
330
17
100
AcDbEntity
  8
ENGRAVE
100
AcDbSpline
 70
0
 71
2
 72
6
 73
3
 74
0
 40
0.0
 40
0.0
 40
0.0
 40
1.0
 40
1.0
 40
1.0
 10
17.504167287499996
 20
31.316865625
 30
0.0
 10
17.575934474999997
 20
31.22578203125
 30
0.0
 10
17.575934474999997
 20
31.05468359375
 30
0.0
  0
SPLINE
  5
6C
330
17
100
AcDbEntity
  8
ENGRAVE
100
AcDbSpline
 70
0
 71
2
 72
6
 73
3
 74
0
 40
0.0
 40
0.0
 40
0.0
 40
1.0
 40
1.0
 40
1.0
 10
17.575934474999997
 20
31.05468359375
 30
0.0
 10
17.575934474999997
 20
30.89458203125
 30
0.0
 10
17.468283693749996
 20
30.80074921875
 30
0.0
  0
SPLINE
  5
6D
330
17
100
AcDbEntity
  8
ENGRAVE
100
AcDbSpline
 70
0
 71
2
 72
6
 73
3
 74
0
 40
0.0
 40
0.0
 40
0.0
 40
1.0
 40
1.0
 40
1.0
 10
17.468283693749996
 20
30.80074921875
 30
0.0
 10
17.360632912499998
 20
30.70691640625
 30
0.0
 10
17.134334474999996
 20
30.70691640625
 30
0.0
  0
LINE
  5
6E
330
17
100
AcDbEntity
  8
ENGRAVE
100
AcDbLine
 10
13.761600099999997
 20
30.70691640625
 30
0.0
 11
17.134334474999996
 21
30.70691640625
 31
0.0
  0
SPLINE
  5
6F
330
17
100
AcDbEntity
  8
ENGRAVE
100
AcDbSpline
 70
0
 71
2
 72
6
 73
3
 74
0
 40
0.0
 40
0.0
 40
0.0
 40
1.0
 40
1.0
 40
1.0
 10
13.761600099999997
 20
30.70691640625
 30
0.0
 10
13.535301662499997
 20
30.70691640625
 30
0.0
 10
13.427650881249997
 20
30.80074921875
 30
0.0
  0
SPLINE
  5
70
330
17
100
AcDbEntity
  8
ENGRAVE
100
AcDbSpline
 70
0
 71
2
 72
6
 73
3
 74
0
 40
0.0
 40
0.0
 40
0.0
 40
1.0
 40
1.0
 40
1.0
 10
13.427650881249997
 20
30.80074921875
 30
0.0
 10
13.320000099999998
 20
30.89458203125
 30
0.0
 10
13.320000099999998
 20
31.05468359375
 30
0.0
  0
SPLINE
  5
71
330
17
100
AcDbEntity
  8
ENGRAVE
100
AcDbSpline
 70
0
 71
2
 72
6
 73
3
 74
0
 40
0.0
 40
0.0
 40
0.0
 40
1.0
 40
1.0
 40
1.0
 10
13.320000099999998
 20
31.05468359375
 30
0.0
 10
13.320000099999998
 20
31.336182031249997
 30
0.0
 10
13.590501662499998
 20
31.435549218749998
 30
0.0
  0
LINE
  5
72
330
17
100
AcDbEntity
  8
ENGRAVE
100
AcDbLine
 10
13.805767287499997
 20
31.51285078125
 30
0.0
 11
13.590501662499998
 21
31.435549218749998
 31
0.0
  0
SPLINE
  5
73
330
17
100
AcDbEntity
  8
ENGRAVE
100
AcDbSpline
 70
0
 71
2
 72
6
 73
3
 74
0
 40
0.0
 40
0.0
 40
0.0
 40
1.0
 40
1.0
 40
1.0
 10
13.805767287499997
 20
31.51285078125
 30
0.0
 10
13.949301662499998
 20
31.562516406249998
 30
0.0
 10
14.018301662499997
 20
31.64531640625
 30
0.0
  0
SPLINE
  5
74
330
17
100
AcDbEntity
  8
ENGRAVE
100
AcDbSpline
 70
0
 71
2
 72
6
 73
3
 74
0
 40
0.0
 40
0.0
 40
0.0
 40
1.0
 40
1.0
 40
1.0
 10
14.018301662499997
 20
31.64531640625
 30
0.0
 10
14.087301662499998
 20
31.72811640625
 30
0.0
 10
14.087301662499998
 20
31.860582031249997
 30
0.0
  0
LINE
  5
75
330
17
100
AcDbEntity
  8
ENGRAVE
100
AcDbLine
 10
14.087301662499998
 20
37.28125078125
 30
0.0
 11
14.087301662499998
 21
31.860582031249997
 31
0.0
  0
SPLINE
  5
76
330
17
100
AcDbEntity
  8
ENGRAVE
100
AcDbSpline
 70
0
 71
2
 72
6
 73
3
 74
0
 40
0.0
 40
0.0
 40
0.0
 40
1.0
 40
1.0
 40
1.0
 10
14.087301662499998
 20
37.28125078125
 30
0.0
 10
14.087301662499998
 20
37.413716406249996
 30
0.0
 10
14.018301662499997
 20
37.496516406249995
 30
0.0
  0
SPLINE
  5
77
330
17
100
AcDbEntity
  8
ENGRAVE
100
AcDbSpline
 70
0
 71
2
 72
6
 73
3
 74
0
 40
0.0
 40
0.0
 40
0.0
 40
1.0
 40
1.0
 40
1.0
 10
14.018301662499997
 20
37.496516406249995
 30
0.0
 10
13.949301662499998
 20
37.57931640625
 30
0.0
 10
13.805767287499997
 20
37.62898203125
 30
0.0
  0
LINE
  5
78
330
17
100
AcDbEntity
  8
ENGRAVE
100
AcDbLine
 10
13.590501662499998
 20
37.70628359375
 30
0.0
 11
13.805767287499997
 21
37.62898203125
 31
0.0
  0
SPLINE
  5
79
330
17
100
AcDbEntity
  8
ENGRAVE
100
AcDbSpline
 70
0
 71
2
 72
6
 73
3
 74
0
 40
0.0
 40
0.0
 40
0.0
 40
1.0
 40
1.0
 40
1.0
 10
13.590501662499998
 20
37.70628359375
 30
0.0
 10
13.320000099999998
 20
37.80565078125
 30
0.0
 10
13.320000099999998
 20
38.08714921875
 30
0.0
  0
SPLINE
  5
7A
330
17
100
AcDbEntity
  8
ENGRAVE
100
AcDbSpline
 70
0
 71
2
 72
6
 73
3
 74
0
 40
0.0
 40
0.0
 40
0.0
 40
1.0
 40
1.0
 40
1.0
 10
13.320000099999998
 20
38.08714921875
 30
0.0
 10
13.320000099999998
 20
38.247250781249996
 30
0.0
 10
13.427650881249997
 20
38.34108359375
 30
0.0
  0
SPLINE
  5
7B
330
17
100
AcDbEntity
  8
ENGRAVE
100
AcDbSpline
 70
0
 71
2
 72
6
 73
3
 74
0
 40
0.0
 40
0.0
 40
0.0
 40
1.0
 40
1.0
 40
1.0
 10
13.427650881249997
 20
38.34108359375
 30
0.0
 10
13.535301662499997
 20
38.43491640625
 30
0.0
 10
13.761600099999997
 20
38.43491640625
 30
0.0
  0
LINE
  5
7C
330
17
100
AcDbEntity
  8
ENGRAVE
100
AcDbLine
 10
23.095934474999996
 20
31.79988359375
 30
0.0
 11
23.095934474999996
 21
38.57845078125
 31
0.0
  0
SPLINE
  5
7D
330
17
100
AcDbEntity
  8
ENGRAVE
100
AcDbSpline
 70
0
 71
2
 72
6
 73
3
 74
0
 40
0.0
 40
0.0
 40
0.0
 40
1.0
 40
1.0
 40
1.0
 10
23.095934474999996
 20
31.79988359375
 30
0.0
 10
23.095934474999996
 20
31.590116406249997
 30
0.0
 10
23.129050881249995
 20
31.5018
 30
0.0
  0
SPLINE
  5
7E
330
17
100
AcDbEntity
  8
ENGRAVE
100
AcDbSpline
 70
0
 71
2
 72
6
 73
3
 74
0
 40
0.0
 40
0.0
 40
0.0
 40
1.0
 40
1.0
 40
1.0
 10
23.129050881249995
 20
31.5018
 30
0.0
 10
23.162167287499997
 20
31.413483593749998
 30
0.0
 10
23.244967287499996
 20
31.38034921875
 30
0.0
  0
LINE
  5
7F
330
17
100
AcDbEntity
  8
ENGRAVE
100
AcDbLine
 10
23.371934474999996
 20
31.32514921875
 30
0.0
 11
23.244967287499996
 21
31.38034921875
 31
0.0
  0
SPLINE
  5
80
330
17
100
AcDbEntity
  8
ENGRAVE
100
AcDbSpline
 70
0
 71
2
 72
6
 73
3
 74
0
 40
0.0
 40
0.0
 40
0.0
 40
1.0
 40
1.0
 40
1.0
 10
23.371934474999996
 20
31.32514921875
 30
0.0
 10
23.493367287499996
 20
31.27548359375
 30
0.0
 10
23.545800099999997
 20
31.1982
 30
0.0
  0
SPLINE
  5
81
330
17
100
AcDbEntity
  8
ENGRAVE
100
AcDbSpline
 70
0
 71
2
 72
6
 73
3
 74
0
 40
0.0
 40
0.0
 40
0.0
 40
1.0
 40
1.0
 40
1.0
 10
23.545800099999997
 20
31.1982
 30
0.0
 10
23.598232912499995
 20
31.12091640625
 30
0.0
 10
23.598232912499995
 20
31.016050781249998
 30
0.0
  0
SPLINE
  5
82
330
17
100
AcDbEntity
  8
ENGRAVE
100
AcDbSpline
 70
0
 71
2
 72
6
 73
3
 74
0
 40
0.0
 40
0.0
 40
0.0
 40
1.0
 40
1.0
 40
1.0
 10
23.598232912499995
 20
31.016050781249998
 30
0.0
 10
23.598232912499995
 20
30.87251640625
 30
0.0
 10
23.504400099999998
 20
30.789716406249998
 30
0.0
  0
SPLINE
  5
83
330
17
100
AcDbEntity
  8
ENGRAVE
100
AcDbSpline
 70
0
 71
2
 72
6
 73
3
 74
0
 40
0.0
 40
0.0
 40
0.0
 40
1.0
 40
1.0
 40
1.0
 10
23.504400099999998
 20
30.789716406249998
 30
0.0
 10
23.410567287499997
 20
30.70691640625
 30
0.0
 10
23.206334474999995
 20
30.70691640625
 30
0.0
  0
LINE
  5
84
330
17
100
AcDbEntity
  8
ENGRAVE
100
AcDbLine
 10
20.672632912499996
 20
30.70691640625
 30
0.0
 11
23.206334474999995
 21
30.70691640625
 31
0.0
  0
SPLINE
  5
85
330
17
100
AcDbEntity
  8
ENGRAVE
100
AcDbSpline
 70
0
 71
2
 72
6
 73
3
 74
0
 40
0.0
 40
0.0
 40
0.0
 40
1.0
 40
1.0
 40
1.0
 10
20.672632912499996
 20
30.70691640625
 30
0.0
 10
20.468400099999997
 20
30.70691640625
 30
0.0
 10
20.374567287499996
 20
30.789716406249998
 30
0.0
  0
SPLINE
  5
86
330
17
100
AcDbEntity
  8
ENGRAVE
100
AcDbSpline
 70
0
 71
2
 72
6
 73
3
 74
0
 40
0.0
 40
0.0
 40
0.0
 40
1.0
 40
1.0
 40
1.0
 10
20.374567287499996
 20
30.789716406249998
 30
0.0
 10
20.280734474999996
 20
30.87251640625
 30
0.0
 10
20.280734474999996
 20
31.016050781249998
 30
0.0
  0
SPLINE
  5
87
330
17
100
AcDbEntity
  8
ENGRAVE
100
AcDbSpline
 70
0
 71
2
 72
6
 73
3
 74
0
 40
0.0
 40
0.0
 40
0.0
 40
1.0
 40
1.0
 40
1.0
 10
20.280734474999996
 20
31.016050781249998
 30
0.0
 10
20.280734474999996
 20
31.12091640625
 30
0.0
 10
20.333167287499997
 20
31.1982
 30
0.0
  0
SPLINE
  5
88
330
17
100
AcDbEntity
  8
ENGRAVE
100
AcDbSpline
 70
0
 71
2
 72
6
 73
3
 74
0
 40
0.0
 40
0.0
 40
0.0
 40
1.0
 40
1.0
 40
1.0
 10
20.333167287499997
 20
31.1982
 30
0.0
 10
20.385600099999998
 20
31.27548359375
 30
0.0
 10
20.507032912499998
 20
31.32514921875
 30
0.0
  0
LINE
  5
89
330
17
100
AcDbEntity
  8
ENGRAVE
100
AcDbLine
 10
20.634000099999998
 20
31.38034921875
 30
0.0
 11
20.507032912499998
 21
31.32514921875
 31
0.0
  0
SPLINE
  5
8A
330
17
100
AcDbEntity
  8
ENGRAVE
100
AcDbSpline
 70
0
 71
2
 72
6
 73
3
 74
0
 40
0.0
 40
0.0
 40
0.0
 40
1.0
 40
1.0
 40
1.0
 10
20.634000099999998
 20
31.38034921875
 30
0.0
 10
20.716800099999997
 20
31.413483593749998
 30
0.0
 10
20.749916506249996
 20
31.5018
 30
0.0
  0
SPLINE
  5
8B
330
17
100
AcDbEntity
  8
ENGRAVE
100
AcDbSpline
 70
0
 71
2
 72
6
 73
3
 74
0
 40
0.0
 40
0.0
 40
0.0
 40
1.0
 40
1.0
 40
1.0
 10
20.749916506249996
 20
31.5018
 30
0.0
 10
20.783032912499998
 20
31.590116406249997
 30
0.0
 10
20.783032912499998
 20
31.79988359375
 30
0.0
  0
LINE
  5
8C
330
17
100
AcDbEntity
  8
ENGRAVE
100
AcDbLine
 10
20.783032912499998
 20
37.38058203125
 30
0.0
 11
20.783032912499998
 21
31.79988359375
 31
0.0
  0
SPLINE
  5
8D
330
17
100
AcDbEntity
  8
ENGRAVE
100
AcDbSpline
 70
0
 71
2
 72
6
 73
3
 74
0
 40
0.0
 40
0.0
 40
0.0
 40
1.0
 40
1.0
 40
1.0
 10
20.783032912499998
 20
37.38058203125
 30
0.0
 10
20.783032912499998
 20
37.55171640625
 30
0.0
 10
20.738883693749997
 20
37.62071640625
 30
0.0
  0
SPLINE
  5
8E
330
17
100
AcDbEntity
  8
ENGRAVE
100
AcDbSpline
 70
0
 71
2
 72
6
 73
3
 74
0
 40
0.0
 40
0.0
 40
0.0
 40
1.0
 40
1.0
 40
1.0
 10
20.738883693749997
 20
37.62071640625
 30
0.0
 10
20.694734474999997
 20
37.68971640625
 30
0.0
 10
20.600865724999995
 20
37.71731640625
 30
0.0
  0
LINE
  5
8F
330
17
100
AcDbEntity
  8
ENGRAVE
100
AcDbLine
 10
20.473934474999997
 20
37.750450781249995
 30
0.0
 11
20.600865724999995
 21
37.71731640625
 31
0.0
  0
SPLINE
  5
90
330
17
100
AcDbEntity
  8
ENGRAVE
100
AcDbSpline
 70
0
 71
2
 72
6
 73
3
 74
0
 40
0.0
 40
0.0
 40
0.0
 40
1.0
 40
1.0
 40
1.0
 10
20.473934474999997
 20
37.750450781249995
 30
0.0
 10
20.363534474999998
 20
37.78908359375
 30
0.0
 10
20.313850881249998
 20
37.85531640625
 30
0.0
  0
SPLINE
  5
91
330
17
100
AcDbEntity
  8
ENGRAVE
100
AcDbSpline
 70
0
 71
2
 72
6
 73
3
 74
0
 40
0.0
 40
0.0
 40
0.0
 40
1.0
 40
1.0
 40
1.0
 10
20.313850881249998
 20
37.85531640625
 30
0.0
 10
20.264167287499998
 20
37.92154921875
 30
0.0
 10
20.264167287499998
 20
38.02645078125
 30
0.0
  0
SPLINE
  5
92
330
17
100
AcDbEntity
  8
ENGRAVE
100
AcDbSpline
 70
0
 71
2
 72
6
 73
3
 74
0
 40
0.0
 40
0.0
 40
0.0
 40
1.0
 40
1.0
 40
1.0
 10
20.264167287499998
 20
38.02645078125
 30
0.0
 10
20.264167287499998
 20
38.147883593749995
 30
0.0
 10
20.330400099999995
 20
38.219632812499995
 30
0.0
  0
SPLINE
  5
93
330
17
100
AcDbEntity
  8
ENGRAVE
100
AcDbSpline
 70
0
 71
2
 72
6
 73
3
 74
0
 40
0.0
 40
0.0
 40
0.0
 40
1.0
 40
1.0
 40
1.0
 10
20.330400099999995
 20
38.219632812499995
 30
0.0
 10
20.396632912499996
 20
38.291382031249995
 30
0.0
 10
20.584334474999995
 20
38.363149218749996
 30
0.0
  0
LINE
  5
94
330
17
100
AcDbEntity
  8
ENGRAVE
100
AcDbLine
 10
21.876000099999995
 20
38.84891640625
 30
0.0
 11
20.584334474999995
 21
38.363149218749996
 31
0.0
  0
SPLINE
  5
95
330
17
100
AcDbEntity
  8
ENGRAVE
100
AcDbSpline
 70
0
 71
2
 72
6
 73
3
 74
0
 40
0.0
 40
0.0
 40
0.0
 40
1.0
 40
1.0
 40
1.0
 10
21.876000099999995
 20
38.84891640625
 30
0.0
 10
22.157534474999995
 20
38.95378203125
 30
0.0
 10
22.317600099999996
 20
38.997949218749994
 30
0.0
  0
SPLINE
  5
96
330
17
100
AcDbEntity
  8
ENGRAVE
100
AcDbSpline
 70
0
 71
2
 72
6
 73
3
 74
0
 40
0.0
 40
0.0
 40
0.0
 40
1.0
 40
1.0
 40
1.0
 10
22.317600099999996
 20
38.997949218749994
 30
0.0
 10
22.477665724999994
 20
39.04211640625
 30
0.0
 10
22.599134474999996
 20
39.04211640625
 30
0.0
  0
SPLINE
  5
97
330
17
100
AcDbEntity
  8
ENGRAVE
100
AcDbSpline
 70
0
 71
2
 72
6
 73
3
 74
0
 40
0.0
 40
0.0
 40
0.0
 40
1.0
 40
1.0
 40
1.0
 10
22.599134474999996
 20
39.04211640625
 30
0.0
 10
22.847534474999996
 20
39.04211640625
 30
0.0
 10
22.971734474999998
 20
38.9096328125
 30
0.0
  0
SPLINE
  5
98
330
17
100
AcDbEntity
  8
ENGRAVE
100
AcDbSpline
 70
0
 71
2
 72
6
 73
3
 74
0
 40
0.0
 40
0.0
 40
0.0
 40
1.0
 40
1.0
 40
1.0
 10
22.971734474999998
 20
38.9096328125
 30
0.0
 10
23.095934474999996
 20
38.77714921875
 30
0.0
 10
23.095934474999996
 20
38.57845078125
 30
0.0
  0
LINE
  5
99
330
17
100
AcDbEntity
  8
ENGRAVE
100
AcDbLine
 10
24.503498537499997
 20
34.49914921875
 30
0.0
 11
24.503498537499997
 21
32.28565078125
 31
0.0
  0
SPLINE
  5
9A
330
17
100
AcDbEntity
  8
ENGRAVE
100
AcDbSpline
 70
0
 71
2
 72
6
 73
3
 74
0
 40
0.0
 40
0.0
 40
0.0
 40
1.0
 40
1.0
 40
1.0
 10
24.503498537499997
 20
34.49914921875
 30
0.0
 10
24.503498537499997
 20
34.664749218749996
 30
0.0
 10
24.459349318749997
 20
34.73651640625
 30
0.0
  0
SPLINE
  5
9B
330
17
100
AcDbEntity
  8
ENGRAVE
100
AcDbSpline
 70
0
 71
2
 72
6
 73
3
 74
0
 40
0.0
 40
0.0
 40
0.0
 40
1.0
 40
1.0
 40
1.0
 10
24.459349318749997
 20
34.73651640625
 30
0.0
 10
24.415200099999996
 20
34.80828359375
 30
0.0
 10
24.321331349999998
 20
34.83034921875
 30
0.0
  0
LINE
  5
9C
330
17
100
AcDbEntity
  8
ENGRAVE
100
AcDbLine
 10
24.1944001
 20
34.86898203125
 30
0.0
 11
24.321331349999998
 21
34.83034921875
 31
0.0
  0
SPLINE
  5
9D
330
17
100
AcDbEntity
  8
ENGRAVE
100
AcDbSpline
 70
0
 71
2
 72
6
 73
3
 74
0
 40
0.0
 40
0.0
 40
0.0
 40
1.0
 40
1.0
 40
1.0
 10
24.1944001
 20
34.86898203125
 30
0.0
 10
24.084000099999997
 20
34.90211640625
 30
0.0
 10
24.034316506249997
 20
34.97111640625
 30
0.0
  0
SPLINE
  5
9E
330
17
100
AcDbEntity
  8
ENGRAVE
100
AcDbSpline
 70
0
 71
2
 72
6
 73
3
 74
0
 40
0.0
 40
0.0
 40
0.0
 40
1.0
 40
1.0
 40
1.0
 10
24.034316506249997
 20
34.97111640625
 30
0.0
 10
23.984632912499997
 20
35.04011640625
 30
0.0
 10
23.984632912499997
 20
35.13948359375
 30
0.0
  0
SPLINE
  5
9F
330
17
100
AcDbEntity
  8
ENGRAVE
100
AcDbSpline
 70
0
 71
2
 72
6
 73
3
 74
0
 40
0.0
 40
0.0
 40
0.0
 40
1.0
 40
1.0
 40
1.0
 10
23.984632912499997
 20
35.13948359375
 30
0.0
 10
23.984632912499997
 20
35.26645078125
 30
0.0
 10
24.050865724999998
 20
35.3382
 30
0.0
  0
SPLINE
  5
A0
330
17
100
AcDbEntity
  8
ENGRAVE
100
AcDbSpline
 70
0
 71
2
 72
6
 73
3
 74
0
 40
0.0
 40
0.0
 40
0.0
 40
1.0
 40
1.0
 40
1.0
 10
24.050865724999998
 20
35.3382
 30
0.0
 10
24.1170985375
 20
35.40994921875
 30
0.0
 10
24.304800099999998
 20
35.48171640625
 30
0.0
  0
LINE
  5
A1
330
17
100
AcDbEntity
  8
ENGRAVE
100
AcDbLine
 10
25.596465724999998
 20
35.96194921875
 30
0.0
 11
24.304800099999998
 21
35.48171640625
 31
0.0
  0
SPLINE
  5
A2
330
17
100
AcDbEntity
  8
ENGRAVE
100
AcDbSpline
 70
0
 71
2
 72
6
 73
3
 74
0
 40
0.0
 40
0.0
 40
0.0
 40
1.0
 40
1.0
 40
1.0
 10
25.596465724999998
 20
35.96194921875
 30
0.0
 10
25.878000099999998
 20
36.07234921875
 30
0.0
 10
26.038065724999996
 20
36.11651640625
 30
0.0
  0
SPLINE
  5
A3
330
17
100
AcDbEntity
  8
ENGRAVE
100
AcDbSpline
 70
0
 71
2
 72
6
 73
3
 74
0
 40
0.0
 40
0.0
 40
0.0
 40
1.0
 40
1.0
 40
1.0
 10
26.038065724999996
 20
36.11651640625
 30
0.0
 10
26.198131349999997
 20
36.16068359375
 30
0.0
 10
26.3196001
 20
36.16068359375
 30
0.0
  0
SPLINE
  5
A4
330
17
100
AcDbEntity
  8
ENGRAVE
100
AcDbSpline
 70
0
 71
2
 72
6
 73
3
 74
0
 40
0.0
 40
0.0
 40
0.0
 40
1.0
 40
1.0
 40
1.0
 10
26.3196001
 20
36.16068359375
 30
0.0
 10
26.5680001
 20
36.16068359375
 30
0.0
 10
26.692200099999997
 20
36.0282
 30
0.0
  0
SPLINE
  5
A5
330
17
100
AcDbEntity
  8
ENGRAVE
100
AcDbSpline
 70
0
 71
2
 72
6
 73
3
 74
0
 40
0.0
 40
0.0
 40
0.0
 40
1.0
 40
1.0
 40
1.0
 10
26.692200099999997
 20
36.0282
 30
0.0
 10
26.816400099999996
 20
35.895716406249996
 30
0.0
 10
26.816400099999996
 20
35.69698203125
 30
0.0
  0
LINE
  5
A6
330
17
100
AcDbEntity
  8
ENGRAVE
100
AcDbLine
 10
26.816400099999996
 20
32.60578203125
 30
0.0
 11
26.816400099999996
 21
35.69698203125
 31
0.0
  0
SPLINE
  5
A7
330
17
100
AcDbEntity
  8
ENGRAVE
100
AcDbSpline
 70
0
 71
2
 72
6
 73
3
 74
0
 40
0.0
 40
0.0
 40
0.0
 40
1.0
 40
1.0
 40
1.0
 10
26.816400099999996
 20
32.60578203125
 30
0.0
 10
26.816400099999996
 20
32.25805078125
 30
0.0
 10
26.976465724999997
 20
32.0814
 30
0.0
  0
SPLINE
  5
A8
330
17
100
AcDbEntity
  8
ENGRAVE
100
AcDbSpline
 70
0
 71
2
 72
6
 73
3
 74
0
 40
0.0
 40
0.0
 40
0.0
 40
1.0
 40
1.0
 40
1.0
 10
26.976465724999997
 20
32.0814
 30
0.0
 10
27.13653135
 20
31.90474921875
 30
0.0
 10
27.429098537499996
 20
31.90474921875
 30
0.0
  0
SPLINE
  5
A9
330
17
100
AcDbEntity
  8
ENGRAVE
100
AcDbSpline
 70
0
 71
2
 72
6
 73
3
 74
0
 40
0.0
 40
0.0
 40
0.0
 40
1.0
 40
1.0
 40
1.0
 10
27.429098537499996
 20
31.90474921875
 30
0.0
 10
27.60573135
 20
31.90474921875
 30
0.0
 10
27.804465724999996
 20
31.97651640625
 30
0.0
  0
SPLINE
  5
AA
330
17
100
AcDbEntity
  8
ENGRAVE
100
AcDbSpline
 70
0
 71
2
 72
6
 73
3
 74
0
 40
0.0
 40
0.0
 40
0.0
 40
1.0
 40
1.0
 40
1.0
 10
27.804465724999996
 20
31.97651640625
 30
0.0
 10
27.925898537499997
 20
32.02068359375
 30
0.0
 10
28.0362985375
 20
32.097949218749996
 30
0.0
  0
LINE
  5
AB
330
17
100
AcDbEntity
  8
ENGRAVE
100
AcDbLine
 10
28.0362985375
 20
34.49914921875
 30
0.0
 11
28.0362985375
 21
32.097949218749996
 31
0.0
  0
SPLINE
  5
AC
330
17
100
AcDbEntity
  8
ENGRAVE
100
AcDbSpline
 70
0
 71
2
 72
6
 73
3
 74
0
 40
0.0
 40
0.0
 40
0.0
 40
1.0
 40
1.0
 40
1.0
 10
28.0362985375
 20
34.49914921875
 30
0.0
 10
28.0362985375
 20
34.664749218749996
 30
0.0
 10
27.99214931875
 20
34.73651640625
 30
0.0
  0
SPLINE
  5
AD
330
17
100
AcDbEntity
  8
ENGRAVE
100
AcDbSpline
 70
0
 71
2
 72
6
 73
3
 74
0
 40
0.0
 40
0.0
 40
0.0
 40
1.0
 40
1.0
 40
1.0
 10
27.99214931875
 20
34.73651640625
 30
0.0
 10
27.948000099999998
 20
34.80828359375
 30
0.0
 10
27.859665725
 20
34.83034921875
 30
0.0
  0
LINE
  5
AE
330
17
100
AcDbEntity
  8
ENGRAVE
100
AcDbLine
 10
27.727200099999997
 20
34.86898203125
 30
0.0
 11
27.859665725
 21
34.83034921875
 31
0.0
  0
SPLINE
  5
AF
330
17
100
AcDbEntity
  8
ENGRAVE
100
AcDbSpline
 70
0
 71
2
 72
6
 73
3
 74
0
 40
0.0
 40
0.0
 40
0.0
 40
1.0
 40
1.0
 40
1.0
 10
27.727200099999997
 20
34.86898203125
 30
0.0
 10
27.6168001
 20
34.90211640625
 30
0.0
 10
27.56711650625
 20
34.97111640625
 30
0.0
  0
SPLINE
  5
B0
330
17
100
AcDbEntity
  8
ENGRAVE
100
AcDbSpline
 70
0
 71
2
 72
6
 73
3
 74
0
 40
0.0
 40
0.0
 40
0.0
 40
1.0
 40
1.0
 40
1.0
 10
27.56711650625
 20
34.97111640625
 30
0.0
 10
27.5174329125
 20
35.04011640625
 30
0.0
 10
27.5174329125
 20
35.13948359375
 30
0.0
  0
SPLINE
  5
B1
330
17
100
AcDbEntity
  8
ENGRAVE
100
AcDbSpline
 70
0
 71
2
 72
6
 73
3
 74
0
 40
0.0
 40
0.0
 40
0.0
 40
1.0
 40
1.0
 40
1.0
 10
27.5174329125
 20
35.13948359375
 30
0.0
 10
27.5174329125
 20
35.26645078125
 30
0.0
 10
27.586432912499998
 20
35.3382
 30
0.0
  0
SPLINE
  5
B2
330
17
100
AcDbEntity
  8
ENGRAVE
100
AcDbSpline
 70
0
 71
2
 72
6
 73
3
 74
0
 40
0.0
 40
0.0
 40
0.0
 40
1.0
 40
1.0
 40
1.0
 10
27.586432912499998
 20
35.3382
 30
0.0
 10
27.655432912499997
 20
35.40994921875
 30
0.0
 10
27.837600099999996
 20
35.48171640625
 30
0.0
  0
LINE
  5
B3
330
17
100
AcDbEntity
  8
ENGRAVE
100
AcDbLine
 10
29.1348001
 20
35.96194921875
 30
0.0
 11
27.837600099999996
 21
35.48171640625
 31
0.0
  0
SPLINE
  5
B4
330
17
100
AcDbEntity
  8
ENGRAVE
100
AcDbSpline
 70
0
 71
2
 72
6
 73
3
 74
0
 40
0.0
 40
0.0
 40
0.0
 40
1.0
 40
1.0
 40
1.0
 10
29.1348001
 20
35.96194921875
 30
0.0
 10
29.399731349999996
 20
36.06685078125
 30
0.0
 10
29.55981494375
 20
36.1137671875
 30
0.0
  0
SPLINE
  5
B5
330
17
100
AcDbEntity
  8
ENGRAVE
100
AcDbSpline
 70
0
 71
2
 72
6
 73
3
 74
0
 40
0.0
 40
0.0
 40
0.0
 40
1.0
 40
1.0
 40
1.0
 10
29.55981494375
 20
36.1137671875
 30
0.0
 10
29.719898537499997
 20
36.16068359375
 30
0.0
 10
29.880000099999997
 20
36.16068359375
 30
0.0
  0
SPLINE
  5
B6
330
17
100
AcDbEntity
  8
ENGRAVE
100
AcDbSpline
 70
0
 71
2
 72
6
 73
3
 74
0
 40
0.0
 40
0.0
 40
0.0
 40
1.0
 40
1.0
 40
1.0
 10
29.880000099999997
 20
36.16068359375
 30
0.0
 10
30.1118329125
 20
36.16068359375
 30
0.0
 10
30.230516506249998
 20
36.0282
 30
0.0
  0
SPLINE
  5
B7
330
17
100
AcDbEntity
  8
ENGRAVE
100
AcDbSpline
 70
0
 71
2
 72
6
 73
3
 74
0
 40
0.0
 40
0.0
 40
0.0
 40
1.0
 40
1.0
 40
1.0
 10
30.230516506249998
 20
36.0282
 30
0.0
 10
30.349200099999997
 20
35.895716406249996
 30
0.0
 10
30.349200099999997
 20
35.69698203125
 30
0.0
  0
LINE
  5
B8
330
17
100
AcDbEntity
  8
ENGRAVE
100
AcDbLine
 10
30.349200099999997
 20
31.79988359375
 30
0.0
 11
30.349200099999997
 21
35.69698203125
 31
0.0
  0
SPLINE
  5
B9
330
17
100
AcDbEntity
  8
ENGRAVE
100
AcDbSpline
 70
0
 71
2
 72
6
 73
3
 74
0
 40
0.0
 40
0.0
 40
0.0
 40
1.0
 40
1.0
 40
1.0
 10
30.349200099999997
 20
31.79988359375
 30
0.0
 10
30.349200099999997
 20
31.590116406249997
 30
0.0
 10
30.38231650625
 20
31.5018
 30
0.0
  0
SPLINE
  5
BA
330
17
100
AcDbEntity
  8
ENGRAVE
100
AcDbSpline
 70
0
 71
2
 72
6
 73
3
 74
0
 40
0.0
 40
0.0
 40
0.0
 40
1.0
 40
1.0
 40
1.0
 10
30.38231650625
 20
31.5018
 30
0.0
 10
30.4154329125
 20
31.413483593749998
 30
0.0
 10
30.498232912499997
 20
31.38034921875
 30
0.0
  0
LINE
  5
BB
330
17
100
AcDbEntity
  8
ENGRAVE
100
AcDbLine
 10
30.625200099999997
 20
31.32514921875
 30
0.0
 11
30.498232912499997
 21
31.38034921875
 31
0.0
  0
SPLINE
  5
BC
330
17
100
AcDbEntity
  8
ENGRAVE
100
AcDbSpline
 70
0
 71
2
 72
6
 73
3
 74
0
 40
0.0
 40
0.0
 40
0.0
 40
1.0
 40
1.0
 40
1.0
 10
30.625200099999997
 20
31.32514921875
 30
0.0
 10
30.746632912499997
 20
31.27548359375
 30
0.0
 10
30.799065725
 20
31.1982
 30
0.0
  0
SPLINE
  5
BD
330
17
100
AcDbEntity
  8
ENGRAVE
100
AcDbSpline
 70
0
 71
2
 72
6
 73
3
 74
0
 40
0.0
 40
0.0
 40
0.0
 40
1.0
 40
1.0
 40
1.0
 10
30.799065725
 20
31.1982
 30
0.0
 10
30.8514985375
 20
31.12091640625
 30
0.0
 10
30.8514985375
 20
31.016050781249998
 30
0.0
  0
SPLINE
  5
BE
330
17
100
AcDbEntity
  8
ENGRAVE
100
AcDbSpline
 70
0
 71
2
 72
6
 73
3
 74
0
 40
0.0
 40
0.0
 40
0.0
 40
1.0
 40
1.0
 40
1.0
 10
30.8514985375
 20
31.016050781249998
 30
0.0
 10
30.8514985375
 20
30.87251640625
 30
0.0
 10
30.757665724999995
 20
30.789716406249998
 30
0.0
  0
SPLINE
  5
BF
330
17
100
AcDbEntity
  8
ENGRAVE
100
AcDbSpline
 70
0
 71
2
 72
6
 73
3
 74
0
 40
0.0
 40
0.0
 40
0.0
 40
1.0
 40
1.0
 40
1.0
 10
30.757665724999995
 20
30.789716406249998
 30
0.0
 10
30.6638329125
 20
30.70691640625
 30
0.0
 10
30.459600099999996
 20
30.70691640625
 30
0.0
  0
LINE
  5
C0
330
17
100
AcDbEntity
  8
ENGRAVE
100
AcDbLine
 10
29.040931349999997
 20
30.70691640625
 30
0.0
 11
30.459600099999996
 21
30.70691640625
 31
0.0
  0
SPLINE
  5
C1
330
17
100
AcDbEntity
  8
ENGRAVE
100
AcDbSpline
 70
0
 71
2
 72
6
 73
3
 74
0
 40
0.0
 40
0.0
 40
0.0
 40
1.0
 40
1.0
 40
1.0
 10
29.040931349999997
 20
30.70691640625
 30
0.0
 10
28.671098537499997
 20
30.70691640625
 30
0.0
 10
28.395098537499997
 20
31.02154921875
 30
0.0
  0
SPLINE
  5
C2
330
17
100
AcDbEntity
  8
ENGRAVE
100
AcDbSpline
 70
0
 71
2
 72
6
 73
3
 74
0
 40
0.0
 40
0.0
 40
0.0
 40
1.0
 40
1.0
 40
1.0
 10
28.395098537499997
 20
31.02154921875
 30
0.0
 10
28.18533135
 20
31.24788359375
 30
0.0
 10
28.135665724999996
 20
31.540450781249998
 30
0.0
  0
SPLINE
  5
C3
330
17
100
AcDbEntity
  8
ENGRAVE
100
AcDbSpline
 70
0
 71
2
 72
6
 73
3
 74
0
 40
0.0
 40
0.0
 40
0.0
 40
1.0
 40
1.0
 40
1.0
 10
28.135665724999996
 20
31.540450781249998
 30
0.0
 10
27.583665724999996
 20
31.065716406249997
 30
0.0
 10
27.153098537499996
 20
30.85045078125
 30
0.0
  0
SPLINE
  5
C4
330
17
100
AcDbEntity
  8
ENGRAVE
100
AcDbSpline
 70
0
 71
2
 72
6
 73
3
 74
0
 40
0.0
 40
0.0
 40
0.0
 40
1.0
 40
1.0
 40
1.0
 10
27.153098537499996
 20
30.85045078125
 30
0.0
 10
26.58453135
 20
30.55788359375
 30
0.0
 10
26.109832912499996
 20
30.55788359375
 30
0.0
  0
SPLINE
  5
C5
330
17
100
AcDbEntity
  8
ENGRAVE
100
AcDbSpline
 70
0
 71
2
 72
6
 73
3
 74
0
 40
0.0
 40
0.0
 40
0.0
 40
1.0
 40
1.0
 40
1.0
 10
26.109832912499996
 20
30.55788359375
 30
0.0
 10
25.3922329125
 20
30.55788359375
 30
0.0
 10
24.947865724999996
 20
31.0326
 30
0.0
  0
SPLINE
  5
C6
330
17
100
AcDbEntity
  8
ENGRAVE
100
AcDbSpline
 70
0
 71
2
 72
6
 73
3
 74
0
 40
0.0
 40
0.0
 40
0.0
 40
1.0
 40
1.0
 40
1.0
 10
24.947865724999996
 20
31.0326
 30
0.0
 10
24.503498537499997
 20
31.50731640625
 30
0.0
 10
24.503498537499997
 20
32.28565078125
 30
0.0
  0
LINE
  5
C7
330
17
100
AcDbEntity
  8
ENGRAVE
100
AcDbLine
 10
35.26196416249999
 20
34.10171640625
 30
0.0
 11
34.654764162499994
 21
34.973883593749996
 31
0.0
  0
LINE
  5
C8
330
17
100
AcDbEntity
  8
ENGRAVE
100
AcDbLine
 10
35.64286572499999
 20
34.620582031249995
 30
0.0
 11
35.26196416249999
 21
34.10171640625
 31
0.0
  0
SPLINE
  5
C9
330
17
100
AcDbEntity
  8
ENGRAVE
100
AcDbSpline
 70
0
 71
2
 72
6
 73
3
 74
0
 40
0.0
 40
0.0
 40
0.0
 40
1.0
 40
1.0
 40
1.0
 10
35.64286572499999
 20
34.620582031249995
 30
0.0
 10
35.836065725
 20
34.88005078125
 30
0.0
 10
35.802949318749995
 20
35.076
 30
0.0
  0
SPLINE
  5
CA
330
17
100
AcDbEntity
  8
ENGRAVE
100
AcDbSpline
 70
0
 71
2
 72
6
 73
3
 74
0
 40
0.0
 40
0.0
 40
0.0
 40
1.0
 40
1.0
 40
1.0
 10
35.802949318749995
 20
35.076
 30
0.0
 10
35.76983291249999
 20
35.271949218749995
 30
0.0
 10
35.587665724999994
 20
35.34925078125
 30
0.0
  0
LINE
  5
CB
330
17
100
AcDbEntity
  8
ENGRAVE
100
AcDbLine
 10
35.4827641625
 20
35.39338203125
 30
0.0
 11
35.587665724999994
 21
35.34925078125
 31
0.0
  0
SPLINE
  5
CC
330
17
100
AcDbEntity
  8
ENGRAVE
100
AcDbSpline
 70
0
 71
2
 72
6
 73
3
 74
0
 40
0.0
 40
0.0
 40
0.0
 40
1.0
 40
1.0
 40
1.0
 10
35.4827641625
 20
35.39338203125
 30
0.0
 10
35.377898537499995
 20
35.44858203125
 30
0.0
 10
35.325465724999994
 20
35.51758203125
 30
0.0
  0
SPLINE
  5
CD
330
17
100
AcDbEntity
  8
ENGRAVE
100
AcDbSpline
 70
0
 71
2
 72
6
 73
3
 74
0
 40
0.0
 40
0.0
 40
0.0
 40
1.0
 40
1.0
 40
1.0
 10
35.325465724999994
 20
35.51758203125
 30
0.0
 10
35.27303291249999
 20
35.586582031249996
 30
0.0
 10
35.27303291249999
 20
35.68594921875
 30
0.0
  0
SPLINE
  5
CE
330
17
100
AcDbEntity
  8
ENGRAVE
100
AcDbSpline
 70
0
 71
2
 72
6
 73
3
 74
0
 40
0.0
 40
0.0
 40
0.0
 40
1.0
 40
1.0
 40
1.0
 10
35.27303291249999
 20
35.68594921875
 30
0.0
 10
35.27303291249999
 20
35.83498203125
 30
0.0
 10
35.377898537499995
 20
35.91778203125
 30
0.0
  0
SPLINE
  5
CF
330
17
100
AcDbEntity
  8
ENGRAVE
100
AcDbSpline
 70
0
 71
2
 72
6
 73
3
 74
0
 40
0.0
 40
0.0
 40
0.0
 40
1.0
 40
1.0
 40
1.0
 10
35.377898537499995
 20
35.91778203125
 30
0.0
 10
35.4827641625
 20
36.00058203125
 30
0.0
 10
35.6538985375
 20
36.00058203125
 30
0.0
  0
LINE
  5
D0
330
17
100
AcDbEntity
  8
ENGRAVE
100
AcDbLine
 10
37.166364162499995
 20
36.00058203125
 30
0.0
 11
35.6538985375
 21
36.00058203125
 31
0.0
  0
SPLINE
  5
D1
330
17
100
AcDbEntity
  8
ENGRAVE
100
AcDbSpline
 70
0
 71
2
 72
6
 73
3
 74
0
 40
0.0
 40
0.0
 40
0.0
 40
1.0
 40
1.0
 40
1.0
 10
37.166364162499995
 20
36.00058203125
 30
0.0
 10
37.348531349999995
 20
36.00058203125
 30
0.0
 10
37.447898537499995
 20
35.91778203125
 30
0.0
  0
SPLINE
  5
D2
330
17
100
AcDbEntity
  8
ENGRAVE
100
AcDbSpline
 70
0
 71
2
 72
6
 73
3
 74
0
 40
0.0
 40
0.0
 40
0.0
 40
1.0
 40
1.0
 40
1.0
 10
37.447898537499995
 20
35.91778203125
 30
0.0
 10
37.547265724999995
 20
35.83498203125
 30
0.0
 10
37.547265724999995
 20
35.68594921875
 30
0.0
  0
SPLINE
  5
D3
330
17
100
AcDbEntity
  8
ENGRAVE
100
AcDbSpline
 70
0
 71
2
 72
6
 73
3
 74
0
 40
0.0
 40
0.0
 40
0.0
 40
1.0
 40
1.0
 40
1.0
 10
37.547265724999995
 20
35.68594921875
 30
0.0
 10
37.547265724999995
 20
35.58108359375
 30
0.0
 10
37.4892985375
 20
35.506567187499996
 30
0.0
  0
SPLINE
  5
D4
330
17
100
AcDbEntity
  8
ENGRAVE
100
AcDbSpline
 70
0
 71
2
 72
6
 73
3
 74
0
 40
0.0
 40
0.0
 40
0.0
 40
1.0
 40
1.0
 40
1.0
 10
37.4892985375
 20
35.506567187499996
 30
0.0
 10
37.431331349999994
 20
35.43205078125
 30
0.0
 10
37.287832912499994
 20
35.34925078125
 30
0.0
  0
SPLINE
  5
D5
330
17
100
AcDbEntity
  8
ENGRAVE
100
AcDbSpline
 70
0
 71
2
 72
6
 73
3
 74
0
 40
0.0
 40
0.0
 40
0.0
 40
1.0
 40
1.0
 40
1.0
 10
37.287832912499994
 20
35.34925078125
 30
0.0
 10
37.0007641625
 20
35.22778203125
 30
0.0
 10
36.788247756249994
 20
35.001465624999994
 30
0.0
  0
SPLINE
  5
D6
330
17
100
AcDbEntity
  8
ENGRAVE
100
AcDbSpline
 70
0
 71
2
 72
6
 73
3
 74
0
 40
0.0
 40
0.0
 40
0.0
 40
1.0
 40
1.0
 40
1.0
 10
36.788247756249994
 20
35.001465624999994
 30
0.0
 10
36.57573135
 20
34.77514921875
 30
0.0
 10
36.22246572499999
 20
34.33354921875
 30
0.0
  0
LINE
  5
D7
330
17
100
AcDbEntity
  8
ENGRAVE
100
AcDbLine
 10
35.648364162499995
 20
33.56628359375
 30
0.0
 11
36.22246572499999
 21
34.33354921875
 31
0.0
  0
LINE
  5
D8
330
17
100
AcDbEntity
  8
ENGRAVE
100
AcDbLine
 10
36.923498537499995
 20
31.838516406249997
 30
0.0
 11
35.648364162499995
 21
33.56628359375
 31
0.0
  0
SPLINE
  5
D9
330
17
100
AcDbEntity
  8
ENGRAVE
100
AcDbSpline
 70
0
 71
2
 72
6
 73
3
 74
0
 40
0.0
 40
0.0
 40
0.0
 40
1.0
 40
1.0
 40
1.0
 10
36.923498537499995
 20
31.838516406249997
 30
0.0
 10
37.094632912499996
 20
31.617716406249997
 30
0.0
 10
37.19949853749999
 20
31.50731640625
 30
0.0
  0
SPLINE
  5
DA
330
17
100
AcDbEntity
  8
ENGRAVE
100
AcDbSpline
 70
0
 71
2
 72
6
 73
3
 74
0
 40
0.0
 40
0.0
 40
0.0
 40
1.0
 40
1.0
 40
1.0
 10
37.19949853749999
 20
31.50731640625
 30
0.0
 10
37.30436416249999
 20
31.39691640625
 30
0.0
 10
37.39823291249999
 20
31.336182031249997
 30
0.0
  0
SPLINE
  5
DB
330
17
100
AcDbEntity
  8
ENGRAVE
100
AcDbSpline
 70
0
 71
2
 72
6
 73
3
 74
0
 40
0.0
 40
0.0
 40
0.0
 40
1.0
 40
1.0
 40
1.0
 10
37.39823291249999
 20
31.336182031249997
 30
0.0
 10
37.5086329125
 20
31.26994921875
 30
0.0
 10
37.56106572499999
 20
31.1982
 30
0.0
  0
SPLINE
  5
DC
330
17
100
AcDbEntity
  8
ENGRAVE
100
AcDbSpline
 70
0
 71
2
 72
6
 73
3
 74
0
 40
0.0
 40
0.0
 40
0.0
 40
1.0
 40
1.0
 40
1.0
 10
37.56106572499999
 20
31.1982
 30
0.0
 10
37.61349853749999
 20
31.12645078125
 30
0.0
 10
37.61349853749999
 20
31.02154921875
 30
0.0
  0
SPLINE
  5
DD
330
17
100
AcDbEntity
  8
ENGRAVE
100
AcDbSpline
 70
0
 71
2
 72
6
 73
3
 74
0
 40
0.0
 40
0.0
 40
0.0
 40
1.0
 40
1.0
 40
1.0
 10
37.61349853749999
 20
31.02154921875
 30
0.0
 10
37.61349853749999
 20
30.87805078125
 30
0.0
 10
37.511382131249995
 20
30.79248359375
 30
0.0
  0
SPLINE
  5
DE
330
17
100
AcDbEntity
  8
ENGRAVE
100
AcDbSpline
 70
0
 71
2
 72
6
 73
3
 74
0
 40
0.0
 40
0.0
 40
0.0
 40
1.0
 40
1.0
 40
1.0
 10
37.511382131249995
 20
30.79248359375
 30
0.0
 10
37.409265725
 20
30.70691640625
 30
0.0
 10
37.2270985375
 20
30.70691640625
 30
0.0
  0
LINE
  5
DF
330
17
100
AcDbEntity
  8
ENGRAVE
100
AcDbLine
 10
34.30703291249999
 20
30.70691640625
 30
0.0
 11
37.2270985375
 21
30.70691640625
 31
0.0
  0
SPLINE
  5
E0
330
17
100
AcDbEntity
  8
ENGRAVE
100
AcDbSpline
 70
0
 71
2
 72
6
 73
3
 74
0
 40
0.0
 40
0.0
 40
0.0
 40
1.0
 40
1.0
 40
1.0
 10
34.30703291249999
 20
30.70691640625
 30
0.0
 10
34.119331349999996
 20
30.70691640625
 30
0.0
 10
34.01444775624999
 20
30.79248359375
 30
0.0
  0
SPLINE
  5
E1
330
17
100
AcDbEntity
  8
ENGRAVE
100
AcDbSpline
 70
0
 71
2
 72
6
 73
3
 74
0
 40
0.0
 40
0.0
 40
0.0
 40
1.0
 40
1.0
 40
1.0
 10
34.01444775624999
 20
30.79248359375
 30
0.0
 10
33.9095641625
 20
30.87805078125
 30
0.0
 10
33.9095641625
 20
31.02708359375
 30
0.0
  0
SPLINE
  5
E2
330
17
100
AcDbEntity
  8
ENGRAVE
100
AcDbSpline
 70
0
 71
2
 72
6
 73
3
 74
0
 40
0.0
 40
0.0
 40
0.0
 40
1.0
 40
1.0
 40
1.0
 10
33.9095641625
 20
31.02708359375
 30
0.0
 10
33.9095641625
 20
31.131949218749998
 30
0.0
 10
33.956498537499996
 20
31.1982
 30
0.0
  0
SPLINE
  5
E3
330
17
100
AcDbEntity
  8
ENGRAVE
100
AcDbSpline
 70
0
 71
2
 72
6
 73
3
 74
0
 40
0.0
 40
0.0
 40
0.0
 40
1.0
 40
1.0
 40
1.0
 10
33.956498537499996
 20
31.1982
 30
0.0
 10
34.003432912499996
 20
31.264450781249998
 30
0.0
 10
34.091731349999996
 20
31.29754921875
 30
0.0
  0
LINE
  5
E4
330
17
100
AcDbEntity
  8
ENGRAVE
100
AcDbLine
 10
34.22423291249999
 20
31.341716406249997
 30
0.0
 11
34.091731349999996
 21
31.29754921875
 31
0.0
  0
SPLINE
  5
E5
330
17
100
AcDbEntity
  8
ENGRAVE
100
AcDbSpline
 70
0
 71
2
 72
6
 73
3
 74
0
 40
0.0
 40
0.0
 40
0.0
 40
1.0
 40
1.0
 40
1.0
 10
34.22423291249999
 20
31.341716406249997
 30
0.0
 10
34.345665724999996
 20
31.38588359375
 30
0.0
 10
34.348414943749994
 20
31.47971640625
 30
0.0
  0
SPLINE
  5
E6
330
17
100
AcDbEntity
  8
ENGRAVE
100
AcDbSpline
 70
0
 71
2
 72
6
 73
3
 74
0
 40
0.0
 40
0.0
 40
0.0
 40
1.0
 40
1.0
 40
1.0
 10
34.348414943749994
 20
31.47971640625
 30
0.0
 10
34.3511641625
 20
31.57354921875
 30
0.0
 10
34.229731349999994
 20
31.744683593749997
 30
0.0
  0
LINE
  5
E7
330
17
100
AcDbEntity
  8
ENGRAVE
100
AcDbLine
 10
33.594931349999996
 20
32.66651640625
 30
0.0
 11
34.229731349999994
 21
31.744683593749997
 31
0.0
  0
LINE
  5
E8
330
17
100
AcDbEntity
  8
ENGRAVE
100
AcDbLine
 10
33.16436416249999
 20
32.08138203125
 30
0.0
 11
33.594931349999996
 21
32.66651640625
 31
0.0
  0
SPLINE
  5
E9
330
17
100
AcDbEntity
  8
ENGRAVE
100
AcDbSpline
 70
0
 71
2
 72
6
 73
3
 74
0
 40
0.0
 40
0.0
 40
0.0
 40
1.0
 40
1.0
 40
1.0
 10
33.16436416249999
 20
32.08138203125
 30
0.0
 10
32.97669853749999
 20
31.82194921875
 30
0.0
 10
33.009814943749994
 20
31.6370328125
 30
0.0
  0
SPLINE
  5
EA
330
17
100
AcDbEntity
  8
ENGRAVE
100
AcDbSpline
 70
0
 71
2
 72
6
 73
3
 74
0
 40
0.0
 40
0.0
 40
0.0
 40
1.0
 40
1.0
 40
1.0
 10
33.009814943749994
 20
31.6370328125
 30
0.0
 10
33.042931349999996
 20
31.45211640625
 30
0.0
 10
33.21956416249999
 20
31.36931640625
 30
0.0
  0
LINE
  5
EB
330
17
100
AcDbEntity
  8
ENGRAVE
100
AcDbLine
 10
33.3299641625
 20
31.314116406249997
 30
0.0
 11
33.21956416249999
 21
31.36931640625
 31
0.0
  0
SPLINE
  5
EC
330
17
100
AcDbEntity
  8
ENGRAVE
100
AcDbSpline
 70
0
 71
2
 72
6
 73
3
 74
0
 40
0.0
 40
0.0
 40
0.0
 40
1.0
 40
1.0
 40
1.0
 10
33.3299641625
 20
31.314116406249997
 30
0.0
 10
33.434865724999995
 20
31.264450781249998
 30
0.0
 10
33.487298537499996
 20
31.1982
 30
0.0
  0
SPLINE
  5
ED
330
17
100
AcDbEntity
  8
ENGRAVE
100
AcDbSpline
 70
0
 71
2
 72
6
 73
3
 74
0
 40
0.0
 40
0.0
 40
0.0
 40
1.0
 40
1.0
 40
1.0
 10
33.487298537499996
 20
31.1982
 30
0.0
 10
33.53973135
 20
31.131949218749998
 30
0.0
 10
33.53973135
 20
31.02708359375
 30
0.0
  0
SPLINE
  5
EE
330
17
100
AcDbEntity
  8
ENGRAVE
100
AcDbSpline
 70
0
 71
2
 72
6
 73
3
 74
0
 40
0.0
 40
0.0
 40
0.0
 40
1.0
 40
1.0
 40
1.0
 10
33.53973135
 20
31.02708359375
 30
0.0
 10
33.53973135
 20
30.883549218749998
 30
0.0
 10
33.43761494374999
 20
30.798
 30
0.0
  0
SPLINE
  5
EF
330
17
100
AcDbEntity
  8
ENGRAVE
100
AcDbSpline
 70
0
 71
2
 72
6
 73
3
 74
0
 40
0.0
 40
0.0
 40
0.0
 40
1.0
 40
1.0
 40
1.0
 10
33.43761494374999
 20
30.798
 30
0.0
 10
33.335498537499994
 20
30.71245078125
 30
0.0
 10
33.158865725
 20
30.71245078125
 30
0.0
  0
LINE
  5
F0
330
17
100
AcDbEntity
  8
ENGRAVE
100
AcDbLine
 10
31.640865724999994
 20
30.71245078125
 30
0.0
 11
33.158865725
 21
30.71245078125
 31
0.0
  0
SPLINE
  5
F1
330
17
100
AcDbEntity
  8
ENGRAVE
100
AcDbSpline
 70
0
 71
2
 72
6
 73
3
 74
0
 40
0.0
 40
0.0
 40
0.0
 40
1.0
 40
1.0
 40
1.0
 10
31.640865724999994
 20
30.71245078125
 30
0.0
 10
31.469731349999996
 20
30.71245078125
 30
0.0
 10
31.367614943749995
 20
30.798
 30
0.0
  0
SPLINE
  5
F2
330
17
100
AcDbEntity
  8
ENGRAVE
100
AcDbSpline
 70
0
 71
2
 72
6
 73
3
 74
0
 40
0.0
 40
0.0
 40
0.0
 40
1.0
 40
1.0
 40
1.0
 10
31.367614943749995
 20
30.798
 30
0.0
 10
31.265498537499994
 20
30.883549218749998
 30
0.0
 10
31.265498537499994
 20
31.02708359375
 30
0.0
  0
SPLINE
  5
F3
330
17
100
AcDbEntity
  8
ENGRAVE
100
AcDbSpline
 70
0
 71
2
 72
6
 73
3
 74
0
 40
0.0
 40
0.0
 40
0.0
 40
1.0
 40
1.0
 40
1.0
 10
31.265498537499994
 20
31.02708359375
 30
0.0
 10
31.265498537499994
 20
31.131949218749998
 30
0.0
 10
31.323465724999995
 20
31.206465625
 30
0.0
  0
SPLINE
  5
F4
330
17
100
AcDbEntity
  8
ENGRAVE
100
AcDbSpline
 70
0
 71
2
 72
6
 73
3
 74
0
 40
0.0
 40
0.0
 40
0.0
 40
1.0
 40
1.0
 40
1.0
 10
31.323465724999995
 20
31.206465625
 30
0.0
 10
31.381432912499996
 20
31.280982031249998
 30
0.0
 10
31.524931349999996
 20
31.363782031249997
 30
0.0
  0
SPLINE
  5
F5
330
17
100
AcDbEntity
  8
ENGRAVE
100
AcDbSpline
 70
0
 71
2
 72
6
 73
3
 74
0
 40
0.0
 40
0.0
 40
0.0
 40
1.0
 40
1.0
 40
1.0
 10
31.524931349999996
 20
31.363782031249997
 30
0.0
 10
31.718131349999997
 20
31.44658203125
 30
0.0
 10
31.869931349999995
 20
31.5680328125
 30
0.0
  0
SPLINE
  5
F6
330
17
100
AcDbEntity
  8
ENGRAVE
100
AcDbSpline
 70
0
 71
2
 72
6
 73
3
 74
0
 40
0.0
 40
0.0
 40
0.0
 40
1.0
 40
1.0
 40
1.0
 10
31.869931349999995
 20
31.5680328125
 30
0.0
 10
32.021731349999996
 20
31.689483593749998
 30
0.0
 10
32.187331349999994
 20
31.88268359375
 30
0.0
  0
SPLINE
  5
F7
330
17
100
AcDbEntity
  8
ENGRAVE
100
AcDbSpline
 70
0
 71
2
 72
6
 73
3
 74
0
 40
0.0
 40
0.0
 40
0.0
 40
1.0
 40
1.0
 40
1.0
 10
32.187331349999994
 20
31.88268359375
 30
0.0
 10
32.35293135
 20
32.07588359375
 30
0.0
 10
32.584764162499994
 20
32.36845078125
 30
0.0
  0
LINE
  5
F8
330
17
100
AcDbEntity
  8
ENGRAVE
100
AcDbLine
 10
33.214065725
 20
33.20194921875
 30
0.0
 11
32.584764162499994
 21
32.36845078125
 31
0.0
  0
LINE
  5
F9
330
17
100
AcDbEntity
  8
ENGRAVE
100
AcDbLine
 10
32.032764162499994
 20
34.92971640625
 30
0.0
 11
33.214065725
 21
33.20194921875
 31
0.0
  0
SPLINE
  5
FA
330
17
100
AcDbEntity
  8
ENGRAVE
100
AcDbSpline
 70
0
 71
2
 72
6
 73
3
 74
0
 40
0.0
 40
0.0
 40
0.0
 40
1.0
 40
1.0
 40
1.0
 10
32.032764162499994
 20
34.92971640625
 30
0.0
 10
31.911331349999994
 20
35.11188359375
 30
0.0
 10
31.789898537499994
 20
35.200199999999995
 30
0.0
  0
SPLINE
  5
FB
330
17
100
AcDbEntity
  8
ENGRAVE
100
AcDbSpline
 70
0
 71
2
 72
6
 73
3
 74
0
 40
0.0
 40
0.0
 40
0.0
 40
1.0
 40
1.0
 40
1.0
 10
31.789898537499994
 20
35.200199999999995
 30
0.0
 10
31.668465724999994
 20
35.28851640625
 30
0.0
 10
31.547032912499997
 20
35.33818203125
 30
0.0
  0
SPLINE
  5
FC
330
17
100
AcDbEntity
  8
ENGRAVE
100
AcDbSpline
 70
0
 71
2
 72
6
 73
3
 74
0
 40
0.0
 40
0.0
 40
0.0
 40
1.0
 40
1.0
 40
1.0
 10
31.547032912499997
 20
35.33818203125
 30
0.0
 10
31.409032912499995
 20
35.39338203125
 30
0.0
 10
31.359349318749995
 20
35.4734328125
 30
0.0
  0
SPLINE
  5
FD
330
17
100
AcDbEntity
  8
ENGRAVE
100
AcDbSpline
 70
0
 71
2
 72
6
 73
3
 74
0
 40
0.0
 40
0.0
 40
0.0
 40
1.0
 40
1.0
 40
1.0
 10
31.359349318749995
 20
35.4734328125
 30
0.0
 10
31.309665724999995
 20
35.55348359375
 30
0.0
 10
31.309665724999995
 20
35.68045078125
 30
0.0
  0
SPLINE
  5
FE
330
17
100
AcDbEntity
  8
ENGRAVE
100
AcDbSpline
 70
0
 71
2
 72
6
 73
3
 74
0
 40
0.0
 40
0.0
 40
0.0
 40
1.0
 40
1.0
 40
1.0
 10
31.309665724999995
 20
35.68045078125
 30
0.0
 10
31.309665724999995
 20
35.82948359375
 30
0.0
 10
31.414549318749994
 20
35.9150328125
 30
0.0
  0
SPLINE
  5
FF
330
17
100
AcDbEntity
  8
ENGRAVE
100
AcDbSpline
 70
0
 71
2
 72
6
 73
3
 74
0
 40
0.0
 40
0.0
 40
0.0
 40
1.0
 40
1.0
 40
1.0
 10
31.414549318749994
 20
35.9150328125
 30
0.0
 10
31.519432912499994
 20
36.00058203125
 30
0.0
 10
31.696065724999997
 20
36.00058203125
 30
0.0
  0
LINE
  5
100
330
17
100
AcDbEntity
  8
ENGRAVE
100
AcDbLine
 10
34.53333135
 20
36.00058203125
 30
0.0
 11
31.696065724999997
 21
36.00058203125
 31
0.0
  0
SPLINE
  5
101
330
17
100
AcDbEntity
  8
ENGRAVE
100
AcDbSpline
 70
0
 71
2
 72
6
 73
3
 74
0
 40
0.0
 40
0.0
 40
0.0
 40
1.0
 40
1.0
 40
1.0
 10
34.53333135
 20
36.00058203125
 30
0.0
 10
34.70996416249999
 20
36.00058203125
 30
0.0
 10
34.81209853749999
 20
35.91778203125
 30
0.0
  0
SPLINE
  5
102
330
17
100
AcDbEntity
  8
ENGRAVE
100
AcDbSpline
 70
0
 71
2
 72
6
 73
3
 74
0
 40
0.0
 40
0.0
 40
0.0
 40
1.0
 40
1.0
 40
1.0
 10
34.81209853749999
 20
35.91778203125
 30
0.0
 10
34.9142329125
 20
35.83498203125
 30
0.0
 10
34.9142329125
 20
35.68594921875
 30
0.0
  0
SPLINE
  5
103
330
17
100
AcDbEntity
  8
ENGRAVE
100
AcDbSpline
 70
0
 71
2
 72
6
 73
3
 74
0
 40
0.0
 40
0.0
 40
0.0
 40
1.0
 40
1.0
 40
1.0
 10
34.9142329125
 20
35.68594921875
 30
0.0
 10
34.9142329125
 20
35.586582031249996
 30
0.0
 10
34.87834931875
 20
35.52034921875
 30
0.0
  0
SPLINE
  5
104
330
17
100
AcDbEntity
  8
ENGRAVE
100
AcDbSpline
 70
0
 71
2
 72
6
 73
3
 74
0
 40
0.0
 40
0.0
 40
0.0
 40
1.0
 40
1.0
 40
1.0
 10
34.87834931875
 20
35.52034921875
 30
0.0
 10
34.842465725
 20
35.45411640625
 30
0.0
 10
34.770698537499996
 20
35.398916406249995
 30
0.0
  0
LINE
  5
105
330
17
100
AcDbEntity
  8
ENGRAVE
100
AcDbLine
 10
34.64926572499999
 20
35.32714921875
 30
0.0
 11
34.770698537499996
 21
35.398916406249995
 31
0.0
  0
SPLINE
  5
106
330
17
100
AcDbEntity
  8
ENGRAVE
100
AcDbSpline
 70
0
 71
2
 72
6
 73
3
 74
0
 40
0.0
 40
0.0
 40
0.0
 40
1.0
 40
1.0
 40
1.0
 10
34.64926572499999
 20
35.32714921875
 30
0.0
 10
34.56093135
 20
35.271949218749995
 30
0.0
 10
34.55818213124999
 20
35.194665625
 30
0.0
  0
SPLINE
  5
107
330
17
100
AcDbEntity
  8
ENGRAVE
100
AcDbSpline
 70
0
 71
2
 72
6
 73
3
 74
0
 40
0.0
 40
0.0
 40
0.0
 40
1.0
 40
1.0
 40
1.0
 10
34.55818213124999
 20
35.194665625
 30
0.0
 10
34.555432912499995
 20
35.117382031249996
 30
0.0
 10
34.654764162499994
 20
34.973883593749996
 30
0.0
  0
ENDSEC
  0
SECTION
  2
OBJECTS
  0
DICTIONARY
  5
A
330
0
100
AcDbDictionary
281
1
  3
ACAD_COLOR
350
B
  3
ACAD_GROUP
350
C
  3
ACAD_LAYOUT
350
D
  3
ACAD_MATERIAL
350
E
  3
ACAD_MLEADERSTYLE
350
F
  3
ACAD_MLINESTYLE
350
10
  3
ACAD_PLOTSETTINGS
350
11
  3
ACAD_PLOTSTYLENAME
350
12
  3
ACAD_SCALELIST
350
14
  3
ACAD_TABLESTYLE
350
15
  3
ACAD_VISUALSTYLE
350
16
  3
EZDXF_META
350
2D
  0
DICTIONARY
  5
B
330
A
100
AcDbDictionary
281
1
  0
DICTIONARY
  5
C
330
A
100
AcDbDictionary
281
1
  0
DICTIONARY
  5
D
330
A
100
AcDbDictionary
281
1
  3
Model
350
1A
  3
Layout1
350
1E
  0
DICTIONARY
  5
E
330
A
100
AcDbDictionary
281
1
  3
ByBlock
350
1F
  3
ByLayer
350
20
  3
Global
350
21
  0
DICTIONARY
  5
F
330
A
100
AcDbDictionary
281
1
  3
Standard
350
2C
  0
DICTIONARY
  5
10
330
A
100
AcDbDictionary
281
1
  3
Standard
350
22
  0
DICTIONARY
  5
11
330
A
100
AcDbDictionary
281
1
  0
ACDBDICTIONARYWDFLT
  5
12
330
A
100
AcDbDictionary
281
1
  3
Normal
350
13
100
AcDbDictionaryWithDefault
340
13
  0
ACDBPLACEHOLDER
  5
13
330
12
  0
DICTIONARY
  5
14
330
A
100
AcDbDictionary
281
1
  0
DICTIONARY
  5
15
330
A
100
AcDbDictionary
281
1
  0
DICTIONARY
  5
16
330
A
100
AcDbDictionary
281
1
  0
LAYOUT
  5
1A
330
D
100
AcDbPlotSettings
  1

  4
A3
  6

 40
7.5
 41
20.0
 42
7.5
 43
20.0
 44
420.0
 45
297.0
 46
0.0
 47
0.0
 48
0.0
 49
0.0
140
0.0
141
0.0
142
1.0
143
1.0
 70
1024
 72
1
 73
0
 74
5
  7

 75
16
 76
0
 77
2
 78
300
147
1.0
148
0.0
149
0.0
100
AcDbLayout
  1
Model
 70
1
 71
0
 10
0.0
 20
0.0
 11
420.0
 21
297.0
 12
0.0
 22
0.0
 32
0.0
 14
1e+20
 24
1e+20
 34
1e+20
 15
-1e+20
 25
-1e+20
 35
-1e+20
146
0.0
 13
0.0
 23
0.0
 33
0.0
 16
1.0
 26
0.0
 36
0.0
 17
0.0
 27
1.0
 37
0.0
 76
1
330
17
  0
LAYOUT
  5
1E
330
D
100
AcDbPlotSettings
  1

  4
A3
  6

 40
7.5
 41
20.0
 42
7.5
 43
20.0
 44
420.0
 45
297.0
 46
0.0
 47
0.0
 48
0.0
 49
0.0
140
0.0
141
0.0
142
1.0
143
1.0
 70
0
 72
1
 73
0
 74
5
  7

 75
16
 76
0
 77
2
 78
300
147
1.0
148
0.0
149
0.0
100
AcDbLayout
  1
Layout1
 70
1
 71
1
 10
0.0
 20
0.0
 11
420.0
 21
297.0
 12
0.0
 22
0.0
 32
0.0
 14
1e+20
 24
1e+20
 34
1e+20
 15
-1e+20
 25
-1e+20
 35
-1e+20
146
0.0
 13
0.0
 23
0.0
 33
0.0
 16
1.0
 26
0.0
 36
0.0
 17
0.0
 27
1.0
 37
0.0
 76
1
330
1B
  0
MATERIAL
  5
1F
102
{ACAD_REACTORS
330
E
102
}
330
E
100
AcDbMaterial
  1
ByBlock
  2

 70
0
 40
1.0
 71
1
 41
1.0
 91
-1023410177
 42
1.0
 72
1
  3

 73
1
 74
1
 75
1
 44
0.5
 73
0
 45
1.0
 46
1.0
 77
1
  4

 78
1
 79
1
170
1
 48
1.0
171
1
  6

172
1
173
1
174
1
140
1.0
141
1.0
175
1
  7

176
1
177
1
178
1
143
1.0
179
1
  8

270
1
271
1
272
1
145
1.0
146
1.0
273
1
  9

274
1
275
1
276
1
 42
1.0
 72
1
  3

 73
1
 74
1
 75
1
 94
63
  0
MATERIAL
  5
20
102
{ACAD_REACTORS
330
E
102
}
330
E
100
AcDbMaterial
  1
ByLayer
  2

 70
0
 40
1.0
 71
1
 41
1.0
 91
-1023410177
 42
1.0
 72
1
  3

 73
1
 74
1
 75
1
 44
0.5
 73
0
 45
1.0
 46
1.0
 77
1
  4

 78
1
 79
1
170
1
 48
1.0
171
1
  6

172
1
173
1
174
1
140
1.0
141
1.0
175
1
  7

176
1
177
1
178
1
143
1.0
179
1
  8

270
1
271
1
272
1
145
1.0
146
1.0
273
1
  9

274
1
275
1
276
1
 42
1.0
 72
1
  3

 73
1
 74
1
 75
1
 94
63
  0
MATERIAL
  5
21
102
{ACAD_REACTORS
330
E
102
}
330
E
100
AcDbMaterial
  1
Global
  2

 70
0
 40
1.0
 71
1
 41
1.0
 91
-1023410177
 42
1.0
 72
1
  3

 73
1
 74
1
 75
1
 44
0.5
 73
0
 45
1.0
 46
1.0
 77
1
  4

 78
1
 79
1
170
1
 48
1.0
171
1
  6

172
1
173
1
174
1
140
1.0
141
1.0
175
1
  7

176
1
177
1
178
1
143
1.0
179
1
  8

270
1
271
1
272
1
145
1.0
146
1.0
273
1
  9

274
1
275
1
276
1
 42
1.0
 72
1
  3

 73
1
 74
1
 75
1
 94
63
  0
MLINESTYLE
  5
22
102
{ACAD_REACTORS
330
10
102
}
330
10
100
AcDbMlineStyle
  2
Standard
 70
0
  3

 62
256
 51
90.0
 52
90.0
 71
2
 49
0.5
 62
256
  6
BYLAYER
 49
-0.5
 62
256
  6
BYLAYER
  0
MLEADERSTYLE
  5
2C
102
{ACAD_REACTORS
330
F
102
}
330
F
100
AcDbMLeaderStyle
179
2
170
2
171
1
172
0
 90
2
 40
0.0
 41
0.0
173
1
 91
-1056964608
 92
-2
290
1
 42
2.0
291
1
 43
8.0
  3
Standard
 44
4.0
300

342
29
174
1
175
1
176
0
178
1
 93
-1056964608
 45
4.0
292
0
297
0
 46
4.0
 94
-1056964608
 47
1.0
 49
1.0
140
1.0
294
1
141
0.0
177
0
142
1.0
295
0
296
0
143
3.75
271
0
272
9
273
9
  0
DICTIONARY
  5
2D
330
A
100
AcDbDictionary
280
1
281
1
  3
CREATED_BY_EZDXF
350
2E
  3
WRITTEN_BY_EZDXF
350
10B
  0
DICTIONARYVAR
  5
2E
330
2D
100
DictionaryVariables
280
0
  1
1.4.4 @ 2026-10-08T03:19:07.300386+00:00
  0
DICTIONARYVAR
  5
10B
330
2D
100
DictionaryVariables
280
0
  1
1.4.4 @ 2026-10-08T03:19:07.489675+00:00
  0
ENDSEC
  0
EOF
