  0
SECTION
  2
HEADER
  9
$ACADVER
  1
AC1027
  9
$ACADMAINTVER
 70
105
  9
$DWGCODEPAGE
  3
ANSI_1252
  9
$LASTSAVEDBY
  1
ezdxf
  9
$REQUIREDVERSIONS
160
0
  9
$INSBASE
 10
0.0
 20
0.0
 30
0.0
  9
$EXTMIN
 10
1e+20
 20
1e+20
 30
1e+20
  9
$EXTMAX
 10
-1e+20
 20
-1e+20
 30
-1e+20
  9
$LIMMIN
 10
0.0
 20
0.0
  9
$LIMMAX
 10
420.0
 20
297.0
  9
$ORTHOMODE
 70
0
  9
$REGENMODE
 70
1
  9
$FILLMODE
 70
1
  9
$QTEXTMODE
 70
0
  9
$MIRRTEXT
 70
1
  9
$LTSCALE
 40
1.0
  9
$ATTMODE
 70
1
  9
$TEXTSIZE
 40
2.5
  9
$TRACEWID
 40
1.0
  9
$TEXTSTYLE
  7
Standard
  9
$CLAYER
  8
0
  9
$CELTYPE
  6
ByLayer
  9
$CECOLOR
 62
256
  9
$CELTSCALE
 40
1.0
  9
$DISPSILH
 70
0
  9
$DIMSCALE
 40
1.0
  9
$DIMASZ
 40
2.5
  9
$DIMEXO
 40
0.625
  9
$DIMDLI
 40
3.75
  9
$DIMRND
 40
0.0
  9
$DIMDLE
 40
0.0
  9
$DIMEXE
 40
1.25
  9
$DIMTP
 40
0.0
  9
$DIMTM
 40
0.0
  9
$DIMTXT
 40
2.5
  9
$DIMCEN
 40
2.5
  9
$DIMTSZ
 40
0.0
  9
$DIMTOL
 70
0
  9
$DIMLIM
 70
0
  9
$DIMTIH
 70
0
  9
$DIMTOH
 70
0
  9
$DIMSE1
 70
0
  9
$DIMSE2
 70
0
  9
$DIMTAD
 70
1
  9
$DIMZIN
 70
8
  9
$DIMBLK
  1

  9
$DIMASO
 70
1
  9
$DIMSHO
 70
1
  9
$DIMPOST
  1

  9
$DIMAPOST
  1

  9
$DIMALT
 70
0
  9
$DIMALTD
 70
3
  9
$DIMALTF
 40
0.03937007874
  9
$DIMLFAC
 40
1.0
  9
$DIMTOFL
 70
1
  9
$DIMTVP
 40
0.0
  9
$DIMTIX
 70
0
  9
$DIMSOXD
 70
0
  9
$DIMSAH
 70
0
  9
$DIMBLK1
  1

  9
$DIMBLK2
  1

  9
$DIMSTYLE
  2
ISO-25
  9
$DIMCLRD
 70
0
  9
$DIMCLRE
 70
0
  9
$DIMCLRT
 70
0
  9
$DIMTFAC
 40
1.0
  9
$DIMGAP
 40
0.625
  9
$DIMJUST
 70
0
  9
$DIMSD1
 70
0
  9
$DIMSD2
 70
0
  9
$DIMTOLJ
 70
0
  9
$DIMTZIN
 70
8
  9
$DIMALTZ
 70
0
  9
$DIMALTTZ
 70
0
  9
$DIMUPT
 70
0
  9
$DIMDEC
 70
2
  9
$DIMTDEC
 70
2
  9
$DIMALTU
 70
2
  9
$DIMALTTD
 70
3
  9
$DIMTXSTY
  7
Standard
  9
$DIMAUNIT
 70
0
  9
$DIMADEC
 70
0
  9
$DIMALTRND
 40
0.0
  9
$DIMAZIN
 70
0
  9
$DIMDSEP
 70
44
  9
$DIMATFIT
 70
3
  9
$DIMFRAC
 70
0
  9
$DIMLDRBLK
  1

  9
$DIMLUNIT
 70
2
  9
$DIMLWD
 70
-2
  9
$DIMLWE
 70
-2
  9
$DIMTMOVE
 70
0
  9
$DIMFXL
 40
1.0
  9
$DIMFXLON
 70
0
  9
$DIMJOGANG
 40
0.785398163397
  9
$DIMTFILL
 70
0
  9
$DIMTFILLCLR
 70
0
  9
$DIMARCSYM
 70
0
  9
$DIMLTYPE
  6

  9
$DIMLTEX1
  6

  9
$DIMLTEX2
  6

  9
$DIMTXTDIRECTION
 70
0
  9
$LUNITS
 70
2
  9
$LUPREC
 70
4
  9
$SKETCHINC
 40
1.0
  9
$FILLETRAD
 40
10.0
  9
$AUNITS
 70
0
  9
$AUPREC
 70
2
  9
$MENU
  1
.
  9
$ELEVATION
 40
0.0
  9
$PELEVATION
 40
0.0
  9
$THICKNESS
 40
0.0
  9
$LIMCHECK
 70
0
  9
$CHAMFERA
 40
0.0
  9
$CHAMFERB
 40
0.0
  9
$CHAMFERC
 40
0.0
  9
$CHAMFERD
 40
0.0
  9
$SKPOLY
 70
0
  9
$TDCREATE
 40
2461322.7213194445
  9
$TDUCREATE
 40
2458532.153996898
  9
$TDUPDATE
 40
2461322.7213194445
  9
$TDUUPDATE
 40
2458532.1544311
  9
$TDINDWG
 40
0.0
  9
$TDUSRTIMER
 40
0.0
  9
$USRTIMER
 70
1
  9
$ANGBASE
 50
0.0
  9
$ANGDIR
 70
0
  9
$PDMODE
 70
0
  9
$PDSIZE
 40
0.0
  9
$PLINEWID
 40
0.0
  9
$SPLFRAME
 70
0
  9
$SPLINETYPE
 70
6
  9
$SPLINESEGS
 70
8
  9
$HANDSEED
  5
234
  9
$SURFTAB1
 70
6
  9
$SURFTAB2
 70
6
  9
$SURFTYPE
 70
6
  9
$SURFU
 70
6
  9
$SURFV
 70
6
  9
$UCSBASE
  2

  9
$UCSNAME
  2

  9
$UCSORG
 10
0.0
 20
0.0
 30
0.0
  9
$UCSXDIR
 10
1.0
 20
0.0
 30
0.0
  9
$UCSYDIR
 10
0.0
 20
1.0
 30
0.0
  9
$UCSORTHOREF
  2

  9
$UCSORTHOVIEW
 70
0
  9
$UCSORGTOP
 10
0.0
 20
0.0
 30
0.0
  9
$UCSORGBOTTOM
 10
0.0
 20
0.0
 30
0.0
  9
$UCSORGLEFT
 10
0.0
 20
0.0
 30
0.0
  9
$UCSORGRIGHT
 10
0.0
 20
0.0
 30
0.0
  9
$UCSORGFRONT
 10
0.0
 20
0.0
 30
0.0
  9
$UCSORGBACK
 10
0.0
 20
0.0
 30
0.0
  9
$PUCSBASE
  2

  9
$PUCSNAME
  2

  9
$PUCSORG
 10
0.0
 20
0.0
 30
0.0
  9
$PUCSXDIR
 10
1.0
 20
0.0
 30
0.0
  9
$PUCSYDIR
 10
0.0
 20
1.0
 30
0.0
  9
$PUCSORTHOREF
  2

  9
$PUCSORTHOVIEW
 70
0
  9
$PUCSORGTOP
 10
0.0
 20
0.0
 30
0.0
  9
$PUCSORGBOTTOM
 10
0.0
 20
0.0
 30
0.0
  9
$PUCSORGLEFT
 10
0.0
 20
0.0
 30
0.0
  9
$PUCSORGRIGHT
 10
0.0
 20
0.0
 30
0.0
  9
$PUCSORGFRONT
 10
0.0
 20
0.0
 30
0.0
  9
$PUCSORGBACK
 10
0.0
 20
0.0
 30
0.0
  9
$USERI1
 70
0
  9
$USERI2
 70
0
  9
$USERI3
 70
0
  9
$USERI4
 70
0
  9
$USERI5
 70
0
  9
$USERR1
 40
0.0
  9
$USERR2
 40
0.0
  9
$USERR3
 40
0.0
  9
$USERR4
 40
0.0
  9
$USERR5
 40
0.0
  9
$WORLDVIEW
 70
1
  9
$SHADEDGE
 70
3
  9
$SHADEDIF
 70
70
  9
$TILEMODE
 70
1
  9
$MAXACTVP
 70
64
  9
$PINSBASE
 10
0.0
 20
0.0
 30
0.0
  9
$PLIMCHECK
 70
0
  9
$PEXTMIN
 10
1e+20
 20
1e+20
 30
1e+20
  9
$PEXTMAX
 10
-1e+20
 20
-1e+20
 30
-1e+20
  9
$PLIMMIN
 10
0.0
 20
0.0
  9
$PLIMMAX
 10
420.0
 20
297.0
  9
$UNITMODE
 70
0
  9
$VISRETAIN
 70
1
  9
$PLINEGEN
 70
0
  9
$PSLTSCALE
 70
1
  9
$TREEDEPTH
 70
3020
  9
$CMLSTYLE
  2
Standard
  9
$CMLJUST
 70
0
  9
$CMLSCALE
 40
20.0
  9
$PROXYGRAPHICS
 70
1
  9
$MEASUREMENT
 70
1
  9
$CELWEIGHT
370
-1
  9
$ENDCAPS
280
0
  9
$JOINSTYLE
280
0
  9
$LWDISPLAY
290
0
  9
$INSUNITS
 70
4
  9
$HYPERLINKBASE
  1

  9
$STYLESHEET
  1

  9
$XEDIT
290
1
  9
$CEPSNTYPE
380
0
  9
$PSTYLEMODE
290
1
  9
$FINGERPRINTGUID
  2
{70E78559-AA7E-4DD8-996A-261E64570263}
  9
$VERSIONGUID
  2
{A46F4EE0-1535-4B07-9EA8-9D7782B17DA7}
  9
$EXTNAMES
290
1
  9
$PSVPSCALE
 40
0.0
  9
$OLESTARTUP
290
0
  9
$SORTENTS
280
127
  9
$INDEXCTL
280
0
  9
$HIDETEXT
280
1
  9
$XCLIPFRAME
280
1
  9
$HALOGAP
280
0
  9
$OBSCOLOR
 70
257
  9
$OBSLTYPE
280
0
  9
$INTERSECTIONDISPLAY
280
0
  9
$INTERSECTIONCOLOR
 70
257
  9
$DIMASSOC
280
2
  9
$PROJECTNAME
  1

  9
$CAMERADISPLAY
290
0
  9
$LENSLENGTH
 40
50.0
  9
$CAMERAHEIGHT
 40
0.0
  9
$STEPSPERSEC
 40
24.0
  9
$STEPSIZE
 40
100.0
  9
$3DDWFPREC
 40
2.0
  9
$PSOLWIDTH
 40
0.005
  9
$PSOLHEIGHT
 40
0.08
  9
$LOFTANG1
 40
1.570796326795
  9
$LOFTANG2
 40
1.570796326795
  9
$LOFTMAG1
 40
0.0
  9
$LOFTMAG2
 40
0.0
  9
$LOFTPARAM
 70
7
  9
$LOFTNORMALS
280
1
  9
$LATITUDE
 40
37.795
  9
$LONGITUDE
 40
-122.394
  9
$NORTHDIRECTION
 40
0.0
  9
$TIMEZONE
 70
-8000
  9
$LIGHTGLYPHDISPLAY
280
1
  9
$TILEMODELIGHTSYNCH
280
1
  9
$CMATERIAL
347
20
  9
$SOLIDHIST
280
0
  9
$SHOWHIST
280
1
  9
$DWFFRAME
280
2
  9
$DGNFRAME
280
2
  9
$REALWORLDSCALE
290
1
  9
$INTERFERECOLOR
 62
256
  9
$CSHADOW
280
0
  9
$SHADOWPLANELOCATION
 40
0.0
  0
ENDSEC
  0
SECTION
  2
CLASSES
  0
CLASS
  1
ACDBDICTIONARYWDFLT
  2
AcDbDictionaryWithDefault
  3
ObjectDBX Classes
 90
0
 91
0
280
0
281
0
  0
CLASS
  1
SUN
  2
AcDbSun
  3
SCENEOE
 90
1153
 91
0
280
0
281
0
  0
CLASS
  1
VISUALSTYLE
  2
AcDbVisualStyle
  3
ObjectDBX Classes
 90
4095
 91
0
280
0
281
0
  0
CLASS
  1
MATERIAL
  2
AcDbMaterial
  3
ObjectDBX Classes
 90
1153
 91
0
280
0
281
0
  0
CLASS
  1
SCALE
  2
AcDbScale
  3
ObjectDBX Classes
 90
1153
 91
0
280
0
281
0
  0
CLASS
  1
TABLESTYLE
  2
AcDbTableStyle
  3
ObjectDBX Classes
 90
4095
 91
0
280
0
281
0
  0
CLASS
  1
MLEADERSTYLE
  2
AcDbMLeaderStyle
  3
ACDB_MLEADERSTYLE_CLASS
 90
4095
 91
0
280
0
281
0
  0
CLASS
  1
DICTIONARYVAR
  2
AcDbDictionaryVar
  3
ObjectDBX Classes
 90
0
 91
0
280
0
281
0
  0
CLASS
  1
CELLSTYLEMAP
  2
AcDbCellStyleMap
  3
ObjectDBX Classes
 90
1152
 91
0
280
0
281
0
  0
CLASS
  1
MENTALRAYRENDERSETTINGS
  2
AcDbMentalRayRenderSettings
  3
SCENEOE
 90
1024
 91
0
280
0
281
0
  0
CLASS
  1
ACDBDETAILVIEWSTYLE
  2
AcDbDetailViewStyle
  3
ObjectDBX Classes
 90
1025
 91
0
280
0
281
0
  0
CLASS
  1
ACDBSECTIONVIEWSTYLE
  2
AcDbSectionViewStyle
  3
ObjectDBX Classes
 90
1025
 91
0
280
0
281
0
  0
CLASS
  1
RASTERVARIABLES
  2
AcDbRasterVariables
  3
ISM
 90
0
 91
0
280
0
281
0
  0
CLASS
  1
LAYOUT
  2
AcDbLayout
  3
ObjectDBX Classes
 90
0
 91
0
280
0
281
0
  0
CLASS
  1
ACDBPLACEHOLDER
  2
AcDbPlaceHolder
  3
ObjectDBX Classes
 90
0
 91
0
280
0
281
0
  0
ENDSEC
  0
SECTION
  2
TABLES
  0
TABLE
  2
VPORT
  5
8
330
0
100
AcDbSymbolTable
 70
1
  0
VPORT
  5
230
330
8
100
AcDbSymbolTableRecord
100
AcDbViewportTableRecord
  2
*Active
 70
0
 10
0.0
 20
0.0
 11
1.0
 21
1.0
 12
90.0
 22
85.75
 13
0.0
 23
0.0
 14
0.5
 24
0.5
 15
0.5
 25
0.5
 16
0.0
 26
0.0
 36
1.0
 17
0.0
 27
0.0
 37
0.0
 40
171.5
 41
1.34
 42
50.0
 43
0.0
 44
0.0
 50
0.0
 51
0.0
 71
0
 72
1000
 73
1
 74
3
 75
0
 76
0
 77
0
 78
0
281
0
 65
1
110
0.0
120
0.0
130
0.0
111
1.0
121
0.0
131
0.0
112
0.0
122
1.0
132
0.0
 79
0
146
0.0
  0
ENDTAB
  0
TABLE
  2
LTYPE
  5
2
330
0
100
AcDbSymbolTable
 70
3
  0
LTYPE
  5
24
330
2
100
AcDbSymbolTableRecord
100
AcDbLinetypeTableRecord
  2
ByBlock
 70
0
  3

 72
65
 73
0
 40
0.0
  0
LTYPE
  5
25
330
2
100
AcDbSymbolTableRecord
100
AcDbLinetypeTableRecord
  2
ByLayer
 70
0
  3

 72
65
 73
0
 40
0.0
  0
LTYPE
  5
26
330
2
100
AcDbSymbolTableRecord
100
AcDbLinetypeTableRecord
  2
Continuous
 70
0
  3

 72
65
 73
0
 40
0.0
  0
ENDTAB
  0
TABLE
  2
LAYER
  5
1
330
0
100
AcDbSymbolTable
 70
4
  0
LAYER
  5
27
330
1
100
AcDbSymbolTableRecord
100
AcDbLayerTableRecord
  2
0
 70
0
 62
7
  6
Continuous
370
-3
390
13
347
21
  0
LAYER
  5
28
330
1
100
AcDbSymbolTableRecord
100
AcDbLayerTableRecord
  2
Defpoints
 70
0
 62
7
  6
Continuous
290
0
370
-3
390
13
347
21
  0
LAYER
  5
2F
330
1
100
AcDbSymbolTableRecord
100
AcDbLayerTableRecord
  2
CUT
 70
0
 62
1
  6
Continuous
370
-3
390
13
347
21
  0
LAYER
  5
30
330
1
100
AcDbSymbolTableRecord
100
AcDbLayerTableRecord
  2
ENGRAVE
 70
0
 62
7
  6
Continuous
370
-3
390
13
347
21
  0
ENDTAB
  0
TABLE
  2
STYLE
  5
5
330
0
100
AcDbSymbolTable
 70
1
  0
STYLE
  5
29
330
5
100
AcDbSymbolTableRecord
100
AcDbTextStyleTableRecord
  2
Standard
 70
0
 40
0.0
 41
1.0
 50
0.0
 71
0
 42
2.5
  3
txt
  4

  0
ENDTAB
  0
TABLE
  2
VIEW
  5
7
330
0
100
AcDbSymbolTable
 70
0
  0
ENDTAB
  0
TABLE
  2
UCS
  5
6
330
0
100
AcDbSymbolTable
 70
0
  0
ENDTAB
  0
TABLE
  2
APPID
  5
3
330
0
100
AcDbSymbolTable
 70
3
  0
APPID
  5
2A
330
3
100
AcDbSymbolTableRecord
100
AcDbRegAppTableRecord
  2
ACAD
 70
0
  0
APPID
  5
231
330
3
100
AcDbSymbolTableRecord
100
AcDbRegAppTableRecord
  2
HATCHBACKGROUNDCOLOR
 70
0
  0
APPID
  5
232
330
3
100
AcDbSymbolTableRecord
100
AcDbRegAppTableRecord
  2
EZDXF
 70
0
  0
ENDTAB
  0
TABLE
  2
DIMSTYLE
  5
4
330
0
100
AcDbSymbolTable
 70
1
100
AcDbDimStyleTable
  0
DIMSTYLE
105
2B
330
4
100
AcDbSymbolTableRecord
100
AcDbDimStyleTableRecord
  2
Standard
 70
0
 40
1.0
 41
2.5
 42
0.625
 43
3.75
 44
1.25
 45
0.0
 46
0.0
 47
0.0
 48
0.0
 49
2.5
140
2.5
141
2.5
142
0.0
143
0.03937007874
144
1.0
145
0.0
146
1.0
147
0.625
148
0.0
 69
0
 70
0
 71
0
 72
0
 73
0
 74
0
 75
0
 76
0
 77
1
 78
8
 79
3
170
0
171
3
172
1
173
0
174
0
175
0
176
0
177
0
178
0
179
2
271
2
272
2
273
2
274
3
275
0
276
0
277
2
278
44
279
0
280
0
281
0
282
0
283
0
284
8
285
0
286
0
288
0
289
3
290
0
371
-2
372
-2
  0
ENDTAB
  0
TABLE
  2
BLOCK_RECORD
  5
9
330
0
100
AcDbSymbolTable
 70
2
  0
BLOCK_RECORD
  5
17
330
9
100
AcDbSymbolTableRecord
100
AcDbBlockTableRecord
  2
*Model_Space
340
1A
 70
0
280
1
281
0
  0
BLOCK_RECORD
  5
1B
330
9
100
AcDbSymbolTableRecord
100
AcDbBlockTableRecord
  2
*Paper_Space
340
1E
 70
0
280
1
281
0
  0
ENDTAB
  0
ENDSEC
  0
SECTION
  2
BLOCKS
  0
BLOCK
  5
18
330
17
100
AcDbEntity
  8
0
100
AcDbBlockBegin
  2
*Model_Space
 70
0
 10
0.0
 20
0.0
 30
0.0
  3
*Model_Space
  1

  0
ENDBLK
  5
19
330
17
100
AcDbEntity
  8
0
100
AcDbBlockEnd
  0
BLOCK
  5
1C
330
1B
100
AcDbEntity
  8
0
100
AcDbBlockBegin
  2
*Paper_Space
 70
0
 10
0.0
 20
0.0
 30
0.0
  3
*Paper_Space
  1

  0
ENDBLK
  5
1D
330
1B
100
AcDbEntity
  8
0
100
AcDbBlockEnd
  0
ENDSEC
  0
SECTION
  2
ENTITIES
  0
LINE
  5
31
330
17
100
AcDbEntity
  8
CUT
100
AcDbLine
 10
0.0
 20
159.5
 30
0.0
 11
0.0
 21
12.0
 31
0.0
  0
ARC
  5
32
330
17
100
AcDbEntity
  8
CUT
100
AcDbCircle
 10
12.0
 20
12.0
 30
0.0
 40
12.0
100
AcDbArc
 50
-180.0
 51
-90.0
  0
ARC
  5
33
330
17
100
AcDbEntity
  8
CUT
100
AcDbCircle
 10
12.0
 20
159.5
 30
0.0
 40
12.0
100
AcDbArc
 50
90.0
 51
180.0
  0
LINE
  5
34
330
17
100
AcDbEntity
  8
CUT
100
AcDbLine
 10
12.0
 20
0.0
 30
0.0
 11
168.0
 21
0.0
 31
0.0
  0
LINE
  5
35
330
17
100
AcDbEntity
  8
CUT
100
AcDbLine
 10
168.0
 20
171.5
 30
0.0
 11
12.0
 21
171.5
 31
0.0
  0
ARC
  5
36
330
17
100
AcDbEntity
  8
CUT
100
AcDbCircle
 10
168.0
 20
12.0
 30
0.0
 40
12.0
100
AcDbArc
 50
-90.0
 51
0.0
  0
ARC
  5
37
330
17
100
AcDbEntity
  8
CUT
100
AcDbCircle
 10
168.0
 20
159.5
 30
0.0
 40
12.0
100
AcDbArc
 50
0.0
 51
90.0
  0
LINE
  5
38
330
17
100
AcDbEntity
  8
CUT
100
AcDbLine
 10
180.0
 20
12.0
 30
0.0
 11
180.0
 21
159.5
 31
0.0
  0
CIRCLE
  5
39
330
17
100
AcDbEntity
  8
CUT
100
AcDbCircle
 10
7.0
 20
7.0
 30
0.0
 40
1.7
  0
CIRCLE
  5
3A
330
17
100
AcDbEntity
  8
CUT
100
AcDbCircle
 10
50.5
 20
19.5
 30
0.0
 40
1.35
  0
CIRCLE
  5
3B
330
17
100
AcDbEntity
  8
CUT
100
AcDbCircle
 10
59.29385127825613
 20
23.0
 30
0.0
 40
1.3
  0
CIRCLE
  5
3C
330
17
100
AcDbEntity
  8
CUT
100
AcDbCircle
 10
63.45077321642143
 20
25.4
 30
0.0
 40
1.3
  0
CIRCLE
  5
3D
330
17
100
AcDbEntity
  8
CUT
100
AcDbCircle
 10
67.60769515458674
 20
23.0
 30
0.0
 40
1.3
  0
CIRCLE
  5
3E
330
17
100
AcDbEntity
  8
CUT
100
AcDbCircle
 10
71.76461709275205
 20
25.4
 30
0.0
 40
1.3
  0
CIRCLE
  5
3F
330
17
100
AcDbEntity
  8
CUT
100
AcDbCircle
 10
75.92153903091734
 20
23.0
 30
0.0
 40
1.3
  0
CIRCLE
  5
40
330
17
100
AcDbEntity
  8
CUT
100
AcDbCircle
 10
80.07846096908266
 20
25.4
 30
0.0
 40
1.3
  0
CIRCLE
  5
41
330
17
100
AcDbEntity
  8
CUT
100
AcDbCircle
 10
84.23538290724795
 20
23.0
 30
0.0
 40
1.3
  0
CIRCLE
  5
42
330
17
100
AcDbEntity
  8
CUT
100
AcDbCircle
 10
88.39230484541326
 20
25.4
 30
0.0
 40
1.3
  0
CIRCLE
  5
43
330
17
100
AcDbEntity
  8
CUT
100
AcDbCircle
 10
59.29385127825613
 20
27.799999999999997
 30
0.0
 40
1.3
  0
CIRCLE
  5
44
330
17
100
AcDbEntity
  8
CUT
100
AcDbCircle
 10
63.45077321642143
 20
30.2
 30
0.0
 40
1.3
  0
CIRCLE
  5
45
330
17
100
AcDbEntity
  8
CUT
100
AcDbCircle
 10
67.60769515458674
 20
27.799999999999997
 30
0.0
 40
1.3
  0
CIRCLE
  5
46
330
17
100
AcDbEntity
  8
CUT
100
AcDbCircle
 10
59.29385127825613
 20
32.6
 30
0.0
 40
1.3
  0
CIRCLE
  5
47
330
17
100
AcDbEntity
  8
CUT
100
AcDbCircle
 10
63.45077321642143
 20
35.0
 30
0.0
 40
1.3
  0
CIRCLE
  5
48
330
17
100
AcDbEntity
  8
CUT
100
AcDbCircle
 10
67.60769515458674
 20
32.6
 30
0.0
 40
1.3
  0
CIRCLE
  5
49
330
17
100
AcDbEntity
  8
CUT
100
AcDbCircle
 10
59.29385127825613
 20
37.4
 30
0.0
 40
1.3
  0
CIRCLE
  5
4A
330
17
100
AcDbEntity
  8
CUT
100
AcDbCircle
 10
63.45077321642143
 20
39.8
 30
0.0
 40
1.3
  0
CIRCLE
  5
4B
330
17
100
AcDbEntity
  8
CUT
100
AcDbCircle
 10
67.60769515458674
 20
37.4
 30
0.0
 40
1.3
  0
CIRCLE
  5
4C
330
17
100
AcDbEntity
  8
CUT
100
AcDbCircle
 10
59.29385127825613
 20
42.199999999999996
 30
0.0
 40
1.3
  0
CIRCLE
  5
4D
330
17
100
AcDbEntity
  8
CUT
100
AcDbCircle
 10
63.45077321642143
 20
44.6
 30
0.0
 40
1.3
  0
CIRCLE
  5
4E
330
17
100
AcDbEntity
  8
CUT
100
AcDbCircle
 10
67.60769515458674
 20
42.199999999999996
 30
0.0
 40
1.3
  0
CIRCLE
  5
4F
330
17
100
AcDbEntity
  8
CUT
100
AcDbCircle
 10
71.76461709275205
 20
30.2
 30
0.0
 40
1.3
  0
CIRCLE
  5
50
330
17
100
AcDbEntity
  8
CUT
100
AcDbCircle
 10
75.92153903091734
 20
27.799999999999997
 30
0.0
 40
1.3
  0
CIRCLE
  5
51
330
17
100
AcDbEntity
  8
CUT
100
AcDbCircle
 10
71.76461709275205
 20
35.0
 30
0.0
 40
1.3
  0
CIRCLE
  5
52
330
17
100
AcDbEntity
  8
CUT
100
AcDbCircle
 10
75.92153903091734
 20
32.6
 30
0.0
 40
1.3
  0
CIRCLE
  5
53
330
17
100
AcDbEntity
  8
CUT
100
AcDbCircle
 10
84.23538290724795
 20
27.799999999999997
 30
0.0
 40
1.3
  0
CIRCLE
  5
54
330
17
100
AcDbEntity
  8
CUT
100
AcDbCircle
 10
80.07846096908266
 20
30.2
 30
0.0
 40
1.3
  0
CIRCLE
  5
55
330
17
100
AcDbEntity
  8
CUT
100
AcDbCircle
 10
88.39230484541326
 20
30.2
 30
0.0
 40
1.3
  0
CIRCLE
  5
56
330
17
100
AcDbEntity
  8
CUT
100
AcDbCircle
 10
84.23538290724795
 20
32.6
 30
0.0
 40
1.3
  0
CIRCLE
  5
57
330
17
100
AcDbEntity
  8
CUT
100
AcDbCircle
 10
80.07846096908266
 20
35.0
 30
0.0
 40
1.3
  0
CIRCLE
  5
58
330
17
100
AcDbEntity
  8
CUT
100
AcDbCircle
 10
88.39230484541326
 20
35.0
 30
0.0
 40
1.3
  0
CIRCLE
  5
59
330
17
100
AcDbEntity
  8
CUT
100
AcDbCircle
 10
71.76461709275205
 20
39.8
 30
0.0
 40
1.3
  0
CIRCLE
  5
5A
330
17
100
AcDbEntity
  8
CUT
100
AcDbCircle
 10
75.92153903091734
 20
37.4
 30
0.0
 40
1.3
  0
CIRCLE
  5
5B
330
17
100
AcDbEntity
  8
CUT
100
AcDbCircle
 10
71.76461709275205
 20
44.6
 30
0.0
 40
1.3
  0
CIRCLE
  5
5C
330
17
100
AcDbEntity
  8
CUT
100
AcDbCircle
 10
75.92153903091734
 20
42.199999999999996
 30
0.0
 40
1.3
  0
CIRCLE
  5
5D
330
17
100
AcDbEntity
  8
CUT
100
AcDbCircle
 10
84.23538290724795
 20
37.4
 30
0.0
 40
1.3
  0
CIRCLE
  5
5E
330
17
100
AcDbEntity
  8
CUT
100
AcDbCircle
 10
80.07846096908266
 20
39.8
 30
0.0
 40
1.3
  0
CIRCLE
  5
5F
330
17
100
AcDbEntity
  8
CUT
100
AcDbCircle
 10
88.39230484541326
 20
39.8
 30
0.0
 40
1.3
  0
CIRCLE
  5
60
330
17
100
AcDbEntity
  8
CUT
100
AcDbCircle
 10
84.23538290724795
 20
42.199999999999996
 30
0.0
 40
1.3
  0
CIRCLE
  5
61
330
17
100
AcDbEntity
  8
CUT
100
AcDbCircle
 10
80.07846096908266
 20
44.6
 30
0.0
 40
1.3
  0
CIRCLE
  5
62
330
17
100
AcDbEntity
  8
CUT
100
AcDbCircle
 10
88.39230484541326
 20
44.6
 30
0.0
 40
1.3
  0
CIRCLE
  5
63
330
17
100
AcDbEntity
  8
CUT
100
AcDbCircle
 10
59.29385127825613
 20
47.0
 30
0.0
 40
1.3
  0
CIRCLE
  5
64
330
17
100
AcDbEntity
  8
CUT
100
AcDbCircle
 10
63.45077321642143
 20
49.4
 30
0.0
 40
1.3
  0
CIRCLE
  5
65
330
17
100
AcDbEntity
  8
CUT
100
AcDbCircle
 10
67.60769515458674
 20
47.0
 30
0.0
 40
1.3
  0
CIRCLE
  5
66
330
17
100
AcDbEntity
  8
CUT
100
AcDbCircle
 10
59.29385127825613
 20
51.8
 30
0.0
 40
1.3
  0
CIRCLE
  5
67
330
17
100
AcDbEntity
  8
CUT
100
AcDbCircle
 10
63.45077321642143
 20
54.199999999999996
 30
0.0
 40
1.3
  0
CIRCLE
  5
68
330
17
100
AcDbEntity
  8
CUT
100
AcDbCircle
 10
67.60769515458674
 20
51.8
 30
0.0
 40
1.3
  0
CIRCLE
  5
69
330
17
100
AcDbEntity
  8
CUT
100
AcDbCircle
 10
59.29385127825613
 20
56.6
 30
0.0
 40
1.3
  0
CIRCLE
  5
6A
330
17
100
AcDbEntity
  8
CUT
100
AcDbCircle
 10
63.45077321642143
 20
59.0
 30
0.0
 40
1.3
  0
CIRCLE
  5
6B
330
17
100
AcDbEntity
  8
CUT
100
AcDbCircle
 10
67.60769515458674
 20
56.6
 30
0.0
 40
1.3
  0
CIRCLE
  5
6C
330
17
100
AcDbEntity
  8
CUT
100
AcDbCircle
 10
71.76461709275205
 20
49.4
 30
0.0
 40
1.3
  0
CIRCLE
  5
6D
330
17
100
AcDbEntity
  8
CUT
100
AcDbCircle
 10
75.92153903091734
 20
47.0
 30
0.0
 40
1.3
  0
CIRCLE
  5
6E
330
17
100
AcDbEntity
  8
CUT
100
AcDbCircle
 10
71.76461709275205
 20
54.199999999999996
 30
0.0
 40
1.3
  0
CIRCLE
  5
6F
330
17
100
AcDbEntity
  8
CUT
100
AcDbCircle
 10
75.92153903091734
 20
51.8
 30
0.0
 40
1.3
  0
CIRCLE
  5
70
330
17
100
AcDbEntity
  8
CUT
100
AcDbCircle
 10
84.23538290724795
 20
47.0
 30
0.0
 40
1.3
  0
CIRCLE
  5
71
330
17
100
AcDbEntity
  8
CUT
100
AcDbCircle
 10
80.07846096908266
 20
49.4
 30
0.0
 40
1.3
  0
CIRCLE
  5
72
330
17
100
AcDbEntity
  8
CUT
100
AcDbCircle
 10
88.39230484541326
 20
49.4
 30
0.0
 40
1.3
  0
CIRCLE
  5
73
330
17
100
AcDbEntity
  8
CUT
100
AcDbCircle
 10
84.23538290724795
 20
51.8
 30
0.0
 40
1.3
  0
CIRCLE
  5
74
330
17
100
AcDbEntity
  8
CUT
100
AcDbCircle
 10
80.07846096908266
 20
54.199999999999996
 30
0.0
 40
1.3
  0
CIRCLE
  5
75
330
17
100
AcDbEntity
  8
CUT
100
AcDbCircle
 10
88.39230484541326
 20
54.199999999999996
 30
0.0
 40
1.3
  0
CIRCLE
  5
76
330
17
100
AcDbEntity
  8
CUT
100
AcDbCircle
 10
71.76461709275205
 20
59.0
 30
0.0
 40
1.3
  0
CIRCLE
  5
77
330
17
100
AcDbEntity
  8
CUT
100
AcDbCircle
 10
75.92153903091734
 20
56.6
 30
0.0
 40
1.3
  0
CIRCLE
  5
78
330
17
100
AcDbEntity
  8
CUT
100
AcDbCircle
 10
84.23538290724795
 20
56.6
 30
0.0
 40
1.3
  0
CIRCLE
  5
79
330
17
100
AcDbEntity
  8
CUT
100
AcDbCircle
 10
80.07846096908266
 20
59.0
 30
0.0
 40
1.3
  0
CIRCLE
  5
7A
330
17
100
AcDbEntity
  8
CUT
100
AcDbCircle
 10
88.39230484541326
 20
59.0
 30
0.0
 40
1.3
  0
CIRCLE
  5
7B
330
17
100
AcDbEntity
  8
CUT
100
AcDbCircle
 10
50.5
 20
68.5
 30
0.0
 40
1.35
  0
CIRCLE
  5
7C
330
17
100
AcDbEntity
  8
CUT
100
AcDbCircle
 10
50.5
 20
82.5
 30
0.0
 40
1.35
  0
CIRCLE
  5
7D
330
17
100
AcDbEntity
  8
CUT
100
AcDbCircle
 10
92.54922678357858
 20
23.0
 30
0.0
 40
1.3
  0
CIRCLE
  5
7E
330
17
100
AcDbEntity
  8
CUT
100
AcDbCircle
 10
96.70614872174387
 20
25.4
 30
0.0
 40
1.3
  0
CIRCLE
  5
7F
330
17
100
AcDbEntity
  8
CUT
100
AcDbCircle
 10
108.5
 20
19.5
 30
0.0
 40
1.35
  0
CIRCLE
  5
80
330
17
100
AcDbEntity
  8
CUT
100
AcDbCircle
 10
113.3
 20
7.0
 30
0.0
 40
1.7
  0
CIRCLE
  5
81
330
17
100
AcDbEntity
  8
CUT
100
AcDbCircle
 10
92.54922678357858
 20
27.799999999999997
 30
0.0
 40
1.3
  0
CIRCLE
  5
82
330
17
100
AcDbEntity
  8
CUT
100
AcDbCircle
 10
96.70614872174387
 20
30.2
 30
0.0
 40
1.3
  0
CIRCLE
  5
83
330
17
100
AcDbEntity
  8
CUT
100
AcDbCircle
 10
92.54922678357858
 20
32.6
 30
0.0
 40
1.3
  0
CIRCLE
  5
84
330
17
100
AcDbEntity
  8
CUT
100
AcDbCircle
 10
96.70614872174387
 20
35.0
 30
0.0
 40
1.3
  0
CIRCLE
  5
85
330
17
100
AcDbEntity
  8
CUT
100
AcDbCircle
 10
92.54922678357858
 20
37.4
 30
0.0
 40
1.3
  0
CIRCLE
  5
86
330
17
100
AcDbEntity
  8
CUT
100
AcDbCircle
 10
96.70614872174387
 20
39.8
 30
0.0
 40
1.3
  0
CIRCLE
  5
87
330
17
100
AcDbEntity
  8
CUT
100
AcDbCircle
 10
92.54922678357858
 20
42.199999999999996
 30
0.0
 40
1.3
  0
CIRCLE
  5
88
330
17
100
AcDbEntity
  8
CUT
100
AcDbCircle
 10
96.70614872174387
 20
44.6
 30
0.0
 40
1.3
  0
CIRCLE
  5
89
330
17
100
AcDbEntity
  8
CUT
100
AcDbCircle
 10
92.54922678357858
 20
47.0
 30
0.0
 40
1.3
  0
CIRCLE
  5
8A
330
17
100
AcDbEntity
  8
CUT
100
AcDbCircle
 10
96.70614872174387
 20
49.4
 30
0.0
 40
1.3
  0
CIRCLE
  5
8B
330
17
100
AcDbEntity
  8
CUT
100
AcDbCircle
 10
92.54922678357858
 20
51.8
 30
0.0
 40
1.3
  0
CIRCLE
  5
8C
330
17
100
AcDbEntity
  8
CUT
100
AcDbCircle
 10
96.70614872174387
 20
54.199999999999996
 30
0.0
 40
1.3
  0
CIRCLE
  5
8D
330
17
100
AcDbEntity
  8
CUT
100
AcDbCircle
 10
92.54922678357858
 20
56.6
 30
0.0
 40
1.3
  0
CIRCLE
  5
8E
330
17
100
AcDbEntity
  8
CUT
100
AcDbCircle
 10
96.70614872174387
 20
59.0
 30
0.0
 40
1.3
  0
CIRCLE
  5
8F
330
17
100
AcDbEntity
  8
CUT
100
AcDbCircle
 10
108.5
 20
68.5
 30
0.0
 40
1.35
  0
CIRCLE
  5
90
330
17
100
AcDbEntity
  8
CUT
100
AcDbCircle
 10
108.5
 20
82.5
 30
0.0
 40
1.35
  0
CIRCLE
  5
91
330
17
100
AcDbEntity
  8
CUT
100
AcDbCircle
 10
38.32308546376021
 20
96.4
 30
0.0
 40
1.3
  0
CIRCLE
  5
92
330
17
100
AcDbEntity
  8
CUT
100
AcDbCircle
 10
46.636929340090816
 20
96.4
 30
0.0
 40
1.3
  0
CIRCLE
  5
93
330
17
100
AcDbEntity
  8
CUT
100
AcDbCircle
 10
42.48000740192551
 20
98.8
 30
0.0
 40
1.3
  0
CIRCLE
  5
94
330
17
100
AcDbEntity
  8
CUT
100
AcDbCircle
 10
38.32308546376021
 20
101.2
 30
0.0
 40
1.3
  0
CIRCLE
  5
95
330
17
100
AcDbEntity
  8
CUT
100
AcDbCircle
 10
46.636929340090816
 20
101.2
 30
0.0
 40
1.3
  0
CIRCLE
  5
96
330
17
100
AcDbEntity
  8
CUT
100
AcDbCircle
 10
42.48000740192551
 20
103.6
 30
0.0
 40
1.3
  0
CIRCLE
  5
97
330
17
100
AcDbEntity
  8
CUT
100
AcDbCircle
 10
38.32308546376021
 20
106.0
 30
0.0
 40
1.3
  0
CIRCLE
  5
98
330
17
100
AcDbEntity
  8
CUT
100
AcDbCircle
 10
38.32308546376021
 20
110.8
 30
0.0
 40
1.3
  0
CIRCLE
  5
99
330
17
100
AcDbEntity
  8
CUT
100
AcDbCircle
 10
46.636929340090816
 20
106.0
 30
0.0
 40
1.3
  0
CIRCLE
  5
9A
330
17
100
AcDbEntity
  8
CUT
100
AcDbCircle
 10
42.48000740192551
 20
108.4
 30
0.0
 40
1.3
  0
CIRCLE
  5
9B
330
17
100
AcDbEntity
  8
CUT
100
AcDbCircle
 10
46.636929340090816
 20
110.8
 30
0.0
 40
1.3
  0
CIRCLE
  5
9C
330
17
100
AcDbEntity
  8
CUT
100
AcDbCircle
 10
38.32308546376021
 20
115.6
 30
0.0
 40
1.3
  0
CIRCLE
  5
9D
330
17
100
AcDbEntity
  8
CUT
100
AcDbCircle
 10
42.48000740192551
 20
113.2
 30
0.0
 40
1.3
  0
CIRCLE
  5
9E
330
17
100
AcDbEntity
  8
CUT
100
AcDbCircle
 10
46.636929340090816
 20
115.6
 30
0.0
 40
1.3
  0
CIRCLE
  5
9F
330
17
100
AcDbEntity
  8
CUT
100
AcDbCircle
 10
38.32308546376021
 20
120.4
 30
0.0
 40
1.3
  0
CIRCLE
  5
A0
330
17
100
AcDbEntity
  8
CUT
100
AcDbCircle
 10
42.48000740192551
 20
118.0
 30
0.0
 40
1.3
  0
CIRCLE
  5
A1
330
17
100
AcDbEntity
  8
CUT
100
AcDbCircle
 10
46.636929340090816
 20
120.4
 30
0.0
 40
1.3
  0
CIRCLE
  5
A2
330
17
100
AcDbEntity
  8
CUT
100
AcDbCircle
 10
38.32308546376021
 20
125.2
 30
0.0
 40
1.3
  0
CIRCLE
  5
A3
330
17
100
AcDbEntity
  8
CUT
100
AcDbCircle
 10
42.48000740192551
 20
122.8
 30
0.0
 40
1.3
  0
CIRCLE
  5
A4
330
17
100
AcDbEntity
  8
CUT
100
AcDbCircle
 10
46.636929340090816
 20
125.2
 30
0.0
 40
1.3
  0
CIRCLE
  5
A5
330
17
100
AcDbEntity
  8
CUT
100
AcDbCircle
 10
50.79385127825612
 20
98.8
 30
0.0
 40
1.3
  0
CIRCLE
  5
A6
330
17
100
AcDbEntity
  8
CUT
100
AcDbCircle
 10
54.950773216421425
 20
96.4
 30
0.0
 40
1.3
  0
CIRCLE
  5
A7
330
17
100
AcDbEntity
  8
CUT
100
AcDbCircle
 10
50.79385127825612
 20
103.6
 30
0.0
 40
1.3
  0
CIRCLE
  5
A8
330
17
100
AcDbEntity
  8
CUT
100
AcDbCircle
 10
54.950773216421425
 20
101.2
 30
0.0
 40
1.3
  0
CIRCLE
  5
A9
330
17
100
AcDbEntity
  8
CUT
100
AcDbCircle
 10
63.26461709275204
 20
96.4
 30
0.0
 40
1.3
  0
CIRCLE
  5
AA
330
17
100
AcDbEntity
  8
CUT
100
AcDbCircle
 10
59.107695154586736
 20
98.8
 30
0.0
 40
1.3
  0
CIRCLE
  5
AB
330
17
100
AcDbEntity
  8
CUT
100
AcDbCircle
 10
67.42153903091734
 20
98.8
 30
0.0
 40
1.3
  0
CIRCLE
  5
AC
330
17
100
AcDbEntity
  8
CUT
100
AcDbCircle
 10
63.26461709275204
 20
101.2
 30
0.0
 40
1.3
  0
CIRCLE
  5
AD
330
17
100
AcDbEntity
  8
CUT
100
AcDbCircle
 10
59.107695154586736
 20
103.6
 30
0.0
 40
1.3
  0
CIRCLE
  5
AE
330
17
100
AcDbEntity
  8
CUT
100
AcDbCircle
 10
67.42153903091734
 20
103.6
 30
0.0
 40
1.3
  0
CIRCLE
  5
AF
330
17
100
AcDbEntity
  8
CUT
100
AcDbCircle
 10
71.57846096908266
 20
96.4
 30
0.0
 40
1.3
  0
CIRCLE
  5
B0
330
17
100
AcDbEntity
  8
CUT
100
AcDbCircle
 10
75.73538290724795
 20
98.8
 30
0.0
 40
1.3
  0
CIRCLE
  5
B1
330
17
100
AcDbEntity
  8
CUT
100
AcDbCircle
 10
71.57846096908266
 20
101.2
 30
0.0
 40
1.3
  0
CIRCLE
  5
B2
330
17
100
AcDbEntity
  8
CUT
100
AcDbCircle
 10
75.73538290724795
 20
103.6
 30
0.0
 40
1.3
  0
CIRCLE
  5
B3
330
17
100
AcDbEntity
  8
CUT
100
AcDbCircle
 10
79.89230484541326
 20
96.4
 30
0.0
 40
1.3
  0
CIRCLE
  5
B4
330
17
100
AcDbEntity
  8
CUT
100
AcDbCircle
 10
84.04922678357858
 20
98.8
 30
0.0
 40
1.3
  0
CIRCLE
  5
B5
330
17
100
AcDbEntity
  8
CUT
100
AcDbCircle
 10
88.20614872174387
 20
96.4
 30
0.0
 40
1.3
  0
CIRCLE
  5
B6
330
17
100
AcDbEntity
  8
CUT
100
AcDbCircle
 10
79.89230484541326
 20
101.2
 30
0.0
 40
1.3
  0
CIRCLE
  5
B7
330
17
100
AcDbEntity
  8
CUT
100
AcDbCircle
 10
84.04922678357858
 20
103.6
 30
0.0
 40
1.3
  0
CIRCLE
  5
B8
330
17
100
AcDbEntity
  8
CUT
100
AcDbCircle
 10
88.20614872174387
 20
101.2
 30
0.0
 40
1.3
  0
CIRCLE
  5
B9
330
17
100
AcDbEntity
  8
CUT
100
AcDbCircle
 10
50.79385127825612
 20
108.4
 30
0.0
 40
1.3
  0
CIRCLE
  5
BA
330
17
100
AcDbEntity
  8
CUT
100
AcDbCircle
 10
54.950773216421425
 20
106.0
 30
0.0
 40
1.3
  0
CIRCLE
  5
BB
330
17
100
AcDbEntity
  8
CUT
100
AcDbCircle
 10
54.950773216421425
 20
110.8
 30
0.0
 40
1.3
  0
CIRCLE
  5
BC
330
17
100
AcDbEntity
  8
CUT
100
AcDbCircle
 10
50.79385127825612
 20
113.2
 30
0.0
 40
1.3
  0
CIRCLE
  5
BD
330
17
100
AcDbEntity
  8
CUT
100
AcDbCircle
 10
54.950773216421425
 20
115.6
 30
0.0
 40
1.3
  0
CIRCLE
  5
BE
330
17
100
AcDbEntity
  8
CUT
100
AcDbCircle
 10
63.26461709275204
 20
106.0
 30
0.0
 40
1.3
  0
CIRCLE
  5
BF
330
17
100
AcDbEntity
  8
CUT
100
AcDbCircle
 10
59.107695154586736
 20
108.4
 30
0.0
 40
1.3
  0
CIRCLE
  5
C0
330
17
100
AcDbEntity
  8
CUT
100
AcDbCircle
 10
63.26461709275204
 20
110.8
 30
0.0
 40
1.3
  0
CIRCLE
  5
C1
330
17
100
AcDbEntity
  8
CUT
100
AcDbCircle
 10
67.42153903091734
 20
108.4
 30
0.0
 40
1.3
  0
CIRCLE
  5
C2
330
17
100
AcDbEntity
  8
CUT
100
AcDbCircle
 10
59.107695154586736
 20
113.2
 30
0.0
 40
1.3
  0
CIRCLE
  5
C3
330
17
100
AcDbEntity
  8
CUT
100
AcDbCircle
 10
63.26461709275204
 20
115.6
 30
0.0
 40
1.3
  0
CIRCLE
  5
C4
330
17
100
AcDbEntity
  8
CUT
100
AcDbCircle
 10
67.42153903091734
 20
113.2
 30
0.0
 40
1.3
  0
CIRCLE
  5
C5
330
17
100
AcDbEntity
  8
CUT
100
AcDbCircle
 10
50.79385127825612
 20
118.0
 30
0.0
 40
1.3
  0
CIRCLE
  5
C6
330
17
100
AcDbEntity
  8
CUT
100
AcDbCircle
 10
54.950773216421425
 20
120.4
 30
0.0
 40
1.3
  0
CIRCLE
  5
C7
330
17
100
AcDbEntity
  8
CUT
100
AcDbCircle
 10
50.79385127825612
 20
122.8
 30
0.0
 40
1.3
  0
CIRCLE
  5
C8
330
17
100
AcDbEntity
  8
CUT
100
AcDbCircle
 10
54.950773216421425
 20
125.2
 30
0.0
 40
1.3
  0
CIRCLE
  5
C9
330
17
100
AcDbEntity
  8
CUT
100
AcDbCircle
 10
59.107695154586736
 20
118.0
 30
0.0
 40
1.3
  0
CIRCLE
  5
CA
330
17
100
AcDbEntity
  8
CUT
100
AcDbCircle
 10
63.26461709275204
 20
120.4
 30
0.0
 40
1.3
  0
CIRCLE
  5
CB
330
17
100
AcDbEntity
  8
CUT
100
AcDbCircle
 10
67.42153903091734
 20
118.0
 30
0.0
 40
1.3
  0
CIRCLE
  5
CC
330
17
100
AcDbEntity
  8
CUT
100
AcDbCircle
 10
59.107695154586736
 20
122.8
 30
0.0
 40
1.3
  0
CIRCLE
  5
CD
330
17
100
AcDbEntity
  8
CUT
100
AcDbCircle
 10
63.26461709275204
 20
125.2
 30
0.0
 40
1.3
  0
CIRCLE
  5
CE
330
17
100
AcDbEntity
  8
CUT
100
AcDbCircle
 10
67.42153903091734
 20
122.8
 30
0.0
 40
1.3
  0
CIRCLE
  5
CF
330
17
100
AcDbEntity
  8
CUT
100
AcDbCircle
 10
71.57846096908266
 20
106.0
 30
0.0
 40
1.3
  0
CIRCLE
  5
D0
330
17
100
AcDbEntity
  8
CUT
100
AcDbCircle
 10
71.57846096908266
 20
110.8
 30
0.0
 40
1.3
  0
CIRCLE
  5
D1
330
17
100
AcDbEntity
  8
CUT
100
AcDbCircle
 10
75.73538290724795
 20
108.4
 30
0.0
 40
1.3
  0
CIRCLE
  5
D2
330
17
100
AcDbEntity
  8
CUT
100
AcDbCircle
 10
71.57846096908266
 20
115.6
 30
0.0
 40
1.3
  0
CIRCLE
  5
D3
330
17
100
AcDbEntity
  8
CUT
100
AcDbCircle
 10
75.73538290724795
 20
113.2
 30
0.0
 40
1.3
  0
CIRCLE
  5
D4
330
17
100
AcDbEntity
  8
CUT
100
AcDbCircle
 10
79.89230484541326
 20
106.0
 30
0.0
 40
1.3
  0
CIRCLE
  5
D5
330
17
100
AcDbEntity
  8
CUT
100
AcDbCircle
 10
79.89230484541326
 20
110.8
 30
0.0
 40
1.3
  0
CIRCLE
  5
D6
330
17
100
AcDbEntity
  8
CUT
100
AcDbCircle
 10
84.04922678357858
 20
108.4
 30
0.0
 40
1.3
  0
CIRCLE
  5
D7
330
17
100
AcDbEntity
  8
CUT
100
AcDbCircle
 10
88.20614872174387
 20
106.0
 30
0.0
 40
1.3
  0
CIRCLE
  5
D8
330
17
100
AcDbEntity
  8
CUT
100
AcDbCircle
 10
88.20614872174387
 20
110.8
 30
0.0
 40
1.3
  0
CIRCLE
  5
D9
330
17
100
AcDbEntity
  8
CUT
100
AcDbCircle
 10
84.04922678357858
 20
113.2
 30
0.0
 40
1.3
  0
CIRCLE
  5
DA
330
17
100
AcDbEntity
  8
CUT
100
AcDbCircle
 10
79.89230484541326
 20
115.6
 30
0.0
 40
1.3
  0
CIRCLE
  5
DB
330
17
100
AcDbEntity
  8
CUT
100
AcDbCircle
 10
88.20614872174387
 20
115.6
 30
0.0
 40
1.3
  0
CIRCLE
  5
DC
330
17
100
AcDbEntity
  8
CUT
100
AcDbCircle
 10
71.57846096908266
 20
120.4
 30
0.0
 40
1.3
  0
CIRCLE
  5
DD
330
17
100
AcDbEntity
  8
CUT
100
AcDbCircle
 10
75.73538290724795
 20
118.0
 30
0.0
 40
1.3
  0
CIRCLE
  5
DE
330
17
100
AcDbEntity
  8
CUT
100
AcDbCircle
 10
71.57846096908266
 20
125.2
 30
0.0
 40
1.3
  0
CIRCLE
  5
DF
330
17
100
AcDbEntity
  8
CUT
100
AcDbCircle
 10
75.73538290724795
 20
122.8
 30
0.0
 40
1.3
  0
CIRCLE
  5
E0
330
17
100
AcDbEntity
  8
CUT
100
AcDbCircle
 10
84.04922678357858
 20
118.0
 30
0.0
 40
1.3
  0
CIRCLE
  5
E1
330
17
100
AcDbEntity
  8
CUT
100
AcDbCircle
 10
79.89230484541326
 20
120.4
 30
0.0
 40
1.3
  0
CIRCLE
  5
E2
330
17
100
AcDbEntity
  8
CUT
100
AcDbCircle
 10
88.20614872174387
 20
120.4
 30
0.0
 40
1.3
  0
CIRCLE
  5
E3
330
17
100
AcDbEntity
  8
CUT
100
AcDbCircle
 10
84.04922678357858
 20
122.8
 30
0.0
 40
1.3
  0
CIRCLE
  5
E4
330
17
100
AcDbEntity
  8
CUT
100
AcDbCircle
 10
79.89230484541326
 20
125.2
 30
0.0
 40
1.3
  0
CIRCLE
  5
E5
330
17
100
AcDbEntity
  8
CUT
100
AcDbCircle
 10
88.20614872174387
 20
125.2
 30
0.0
 40
1.3
  0
CIRCLE
  5
E6
330
17
100
AcDbEntity
  8
CUT
100
AcDbCircle
 10
42.48000740192551
 20
127.6
 30
0.0
 40
1.3
  0
CIRCLE
  5
E7
330
17
100
AcDbEntity
  8
CUT
100
AcDbCircle
 10
9.0
 20
148.0
 30
0.0
 40
1.6
  0
ARC
  5
E8
330
17
100
AcDbEntity
  8
CUT
100
AcDbCircle
 10
16.55
 20
141.8
 30
0.0
 40
0.8
100
AcDbArc
 50
-180.0
 51
-90.0
  0
LINE
  5
E9
330
17
100
AcDbEntity
  8
CUT
100
AcDbLine
 10
31.45
 20
141.0
 30
0.0
 11
16.55
 21
141.0
 31
0.0
  0
LINE
  5
EA
330
17
100
AcDbEntity
  8
CUT
100
AcDbLine
 10
15.75
 20
141.8
 30
0.0
 11
15.75
 21
154.2
 31
0.0
  0
ARC
  5
EB
330
17
100
AcDbEntity
  8
CUT
100
AcDbCircle
 10
31.45
 20
141.8
 30
0.0
 40
0.8
100
AcDbArc
 50
-90.0
 51
0.0
  0
ARC
  5
EC
330
17
100
AcDbEntity
  8
CUT
100
AcDbCircle
 10
16.55
 20
154.2
 30
0.0
 40
0.8
100
AcDbArc
 50
90.0
 51
180.0
  0
LINE
  5
ED
330
17
100
AcDbEntity
  8
CUT
100
AcDbLine
 10
32.25
 20
154.2
 30
0.0
 11
32.25
 21
141.8
 31
0.0
  0
LINE
  5
EE
330
17
100
AcDbEntity
  8
CUT
100
AcDbLine
 10
16.55
 20
155.0
 30
0.0
 11
31.45
 21
155.0
 31
0.0
  0
ARC
  5
EF
330
17
100
AcDbEntity
  8
CUT
100
AcDbCircle
 10
31.45
 20
154.2
 30
0.0
 40
0.8
100
AcDbArc
 50
0.0
 51
90.0
  0
CIRCLE
  5
F0
330
17
100
AcDbEntity
  8
CUT
100
AcDbCircle
 10
7.0
 20
164.5
 30
0.0
 40
1.7
  0
CIRCLE
  5
F1
330
17
100
AcDbEntity
  8
CUT
100
AcDbCircle
 10
50.79385127825612
 20
127.6
 30
0.0
 40
1.3
  0
CIRCLE
  5
F2
330
17
100
AcDbEntity
  8
CUT
100
AcDbCircle
 10
50.5
 20
131.5
 30
0.0
 40
1.35
  0
CIRCLE
  5
F3
330
17
100
AcDbEntity
  8
CUT
100
AcDbCircle
 10
59.107695154586736
 20
127.6
 30
0.0
 40
1.3
  0
CIRCLE
  5
F4
330
17
100
AcDbEntity
  8
CUT
100
AcDbCircle
 10
67.42153903091734
 20
127.6
 30
0.0
 40
1.3
  0
CIRCLE
  5
F5
330
17
100
AcDbEntity
  8
CUT
100
AcDbCircle
 10
75.73538290724795
 20
127.6
 30
0.0
 40
1.3
  0
CIRCLE
  5
F6
330
17
100
AcDbEntity
  8
CUT
100
AcDbCircle
 10
84.04922678357858
 20
127.6
 30
0.0
 40
1.3
  0
LINE
  5
F7
330
17
100
AcDbEntity
  8
CUT
100
AcDbLine
 10
63.25
 20
141.85
 30
0.0
 11
38.75
 21
141.85
 31
0.0
  0
ARC
  5
F8
330
17
100
AcDbEntity
  8
CUT
100
AcDbCircle
 10
38.75
 20
142.85
 30
0.0
 40
1.0
100
AcDbArc
 50
-180.0
 51
-90.0
  0
ARC
  5
F9
330
17
100
AcDbEntity
  8
CUT
100
AcDbCircle
 10
63.25
 20
142.85
 30
0.0
 40
1.0
100
AcDbArc
 50
-90.0
 51
0.0
  0
LINE
  5
FA
330
17
100
AcDbEntity
  8
CUT
100
AcDbLine
 10
37.75
 20
142.85
 30
0.0
 11
37.75
 21
147.00125078222806
 31
0.0
  0
LINE
  5
FB
330
17
100
AcDbEntity
  8
CUT
100
AcDbLine
 10
64.25
 20
153.15
 30
0.0
 11
64.25
 21
142.85
 31
0.0
  0
ARC
  5
FC
330
17
100
AcDbEntity
  8
CUT
100
AcDbCircle
 10
39.0
 20
148.0
 30
0.0
 40
1.6
100
AcDbArc
 50
141.37516712694477
 51
218.6248328730543
  0
ARC
  5
FD
330
17
100
AcDbEntity
  8
CUT
100
AcDbCircle
 10
63.25
 20
153.15
 30
0.0
 40
1.0
100
AcDbArc
 50
0.0
 51
90.0
  0
LINE
  5
FE
330
17
100
AcDbEntity
  8
CUT
100
AcDbLine
 10
37.75
 20
148.99874921777197
 30
0.0
 11
37.75
 21
153.15
 31
0.0
  0
LINE
  5
FF
330
17
100
AcDbEntity
  8
CUT
100
AcDbLine
 10
38.75
 20
154.15
 30
0.0
 11
63.25
 21
154.15
 31
0.0
  0
ARC
  5
100
330
17
100
AcDbEntity
  8
CUT
100
AcDbCircle
 10
38.75
 20
153.15
 30
0.0
 40
1.0
100
AcDbArc
 50
90.0
 51
180.0
  0
CIRCLE
  5
101
330
17
100
AcDbEntity
  8
CUT
100
AcDbCircle
 10
74.0
 20
148.0
 30
0.0
 40
6.1
  0
CIRCLE
  5
102
330
17
100
AcDbEntity
  8
CUT
100
AcDbCircle
 10
92.36307065990918
 20
98.8
 30
0.0
 40
1.3
  0
CIRCLE
  5
103
330
17
100
AcDbEntity
  8
CUT
100
AcDbCircle
 10
96.5199925980745
 20
96.4
 30
0.0
 40
1.3
  0
CIRCLE
  5
104
330
17
100
AcDbEntity
  8
CUT
100
AcDbCircle
 10
92.36307065990918
 20
103.6
 30
0.0
 40
1.3
  0
CIRCLE
  5
105
330
17
100
AcDbEntity
  8
CUT
100
AcDbCircle
 10
96.5199925980745
 20
101.2
 30
0.0
 40
1.3
  0
CIRCLE
  5
106
330
17
100
AcDbEntity
  8
CUT
100
AcDbCircle
 10
100.67691453623979
 20
98.8
 30
0.0
 40
1.3
  0
CIRCLE
  5
107
330
17
100
AcDbEntity
  8
CUT
100
AcDbCircle
 10
100.67691453623979
 20
103.6
 30
0.0
 40
1.3
  0
CIRCLE
  5
108
330
17
100
AcDbEntity
  8
CUT
100
AcDbCircle
 10
92.36307065990918
 20
108.4
 30
0.0
 40
1.3
  0
CIRCLE
  5
109
330
17
100
AcDbEntity
  8
CUT
100
AcDbCircle
 10
96.5199925980745
 20
106.0
 30
0.0
 40
1.3
  0
CIRCLE
  5
10A
330
17
100
AcDbEntity
  8
CUT
100
AcDbCircle
 10
96.5199925980745
 20
110.8
 30
0.0
 40
1.3
  0
CIRCLE
  5
10B
330
17
100
AcDbEntity
  8
CUT
100
AcDbCircle
 10
92.36307065990918
 20
113.2
 30
0.0
 40
1.3
  0
CIRCLE
  5
10C
330
17
100
AcDbEntity
  8
CUT
100
AcDbCircle
 10
96.5199925980745
 20
115.6
 30
0.0
 40
1.3
  0
CIRCLE
  5
10D
330
17
100
AcDbEntity
  8
CUT
100
AcDbCircle
 10
100.67691453623979
 20
108.4
 30
0.0
 40
1.3
  0
CIRCLE
  5
10E
330
17
100
AcDbEntity
  8
CUT
100
AcDbCircle
 10
100.67691453623979
 20
113.2
 30
0.0
 40
1.3
  0
CIRCLE
  5
10F
330
17
100
AcDbEntity
  8
CUT
100
AcDbCircle
 10
92.36307065990918
 20
118.0
 30
0.0
 40
1.3
  0
CIRCLE
  5
110
330
17
100
AcDbEntity
  8
CUT
100
AcDbCircle
 10
96.5199925980745
 20
120.4
 30
0.0
 40
1.3
  0
CIRCLE
  5
111
330
17
100
AcDbEntity
  8
CUT
100
AcDbCircle
 10
92.36307065990918
 20
122.8
 30
0.0
 40
1.3
  0
CIRCLE
  5
112
330
17
100
AcDbEntity
  8
CUT
100
AcDbCircle
 10
96.5199925980745
 20
125.2
 30
0.0
 40
1.3
  0
CIRCLE
  5
113
330
17
100
AcDbEntity
  8
CUT
100
AcDbCircle
 10
100.67691453623979
 20
118.0
 30
0.0
 40
1.3
  0
CIRCLE
  5
114
330
17
100
AcDbEntity
  8
CUT
100
AcDbCircle
 10
100.67691453623979
 20
122.8
 30
0.0
 40
1.3
  0
CIRCLE
  5
115
330
17
100
AcDbEntity
  8
CUT
100
AcDbCircle
 10
92.36307065990918
 20
127.6
 30
0.0
 40
1.3
  0
CIRCLE
  5
116
330
17
100
AcDbEntity
  8
CUT
100
AcDbCircle
 10
100.67691453623979
 20
127.6
 30
0.0
 40
1.3
  0
CIRCLE
  5
117
330
17
100
AcDbEntity
  8
CUT
100
AcDbCircle
 10
108.5
 20
131.5
 30
0.0
 40
1.35
  0
CIRCLE
  5
118
330
17
100
AcDbEntity
  8
CUT
100
AcDbCircle
 10
173.0
 20
164.5
 30
0.0
 40
1.7
  0
SPLINE
  5
119
330
17
100
AcDbEntity
  8
ENGRAVE
100
AcDbSpline
 70
0
 71
2
 72
24
 73
21
 74
0
 40
0.0
 40
0.0
 40
0.0
 40
1.0
 40
1.0
 40
2.0000000000000107
 40
2.0000000000000107
 40
2.906513340026191
 40
2.906513340026191
 40
3.8130266800523644
 40
3.8130266800523644
 40
4.719540020078477
 40
4.719540020078477
 40
5.626080683652258
 40
5.626080683652258
 40
6.532621347226101
 40
6.532621347226101
 40
7.439162010799951
 40
7.439162010799951
 40
8.439192152162986
 40
8.439192152162986
 40
9.439222293526093
 40
9.439222293526093
 40
9.439222293526093
 10
68.58695005
 20
161.1686126953125
 30
0.0
 10
68.44618735468752
 20
161.557775390625
 30
0.0
 10
68.12120005
 20
161.77719404296874
 30
0.0
 10
67.79621274531252
 20
161.99661269531248
 30
0.0
 10
67.353224659375
 20
161.99661269531248
 30
0.0
 10
66.95165004999998
 20
161.99661269531254
 30
0.0
 10
66.6473627453125
 20
161.81031269531255
 30
0.0
 10
66.34307544062497
 20
161.62401269531244
 30
0.0
 10
66.17333139765626
 20
161.2866
 30
0.0
 10
66.00358735468753
 20
160.94918730468748
 30
0.0
 10
66.00358735468751
 20
160.502075390625
 30
0.0
 10
66.00358735468753
 20
160.05495000000005
 30
0.0
 10
66.17333139765626
 20
159.71546865234376
 30
0.0
 10
66.343075440625
 20
159.3759873046875
 30
0.0
 10
66.6473627453125
 20
159.1896873046875
 30
0.0
 10
66.95165004999998
 20
159.00338730468752
 30
0.0
 10
67.353224659375
 20
159.0033873046875
 30
0.0
 10
67.79621274531249
 20
159.00338730468746
 30
0.0
 10
68.12120005000001
 20
159.22695
 30
0.0
 10
68.44618735468751
 20
159.4505126953125
 30
0.0
 10
68.58695005000001
 20
159.83553808593751
 30
0.0
  0
LINE
  5
11A
330
17
100
AcDbEntity
  8
ENGRAVE
100
AcDbLine
 10
68.19365005
 20
161.0237126953125
 30
0.0
 11
68.58695005
 21
161.1686126953125
 31
0.0
  0
SPLINE
  5
11B
330
17
100
AcDbEntity
  8
ENGRAVE
100
AcDbSpline
 70
0
 71
3
 72
29
 73
25
 74
0
 40
0.0
 40
0.0
 40
0.0
 40
0.0
 40
1.0
 40
1.0
 40
1.0
 40
2.0000000000001066
 40
2.0000000000001066
 40
2.0000000000001066
 40
3.83776888224193
 40
3.83776888224193
 40
3.83776888224193
 40
4.756653323362848
 40
4.756653323362848
 40
4.756653323362848
 40
6.594349252213224
 40
6.594349252213224
 40
6.594349252213224
 40
7.513197216638456
 40
7.513197216638456
 40
7.513197216638456
 40
8.5131575199215
 40
8.5131575199215
 40
8.5131575199215
 40
9.513117823204498
 40
9.513117823204498
 40
9.513117823204498
 40
9.513117823204498
 10
68.19365005000002
 20
159.9762873046875
 30
0.0
 10
68.12465004999996
 20
159.79688730468743
 30
0.0
 10
68.01838960078129
 20
159.65681865234376
 30
0.0
 10
67.87486870234378
 20
159.55608134765623
 30
0.0
 10
67.7313478039062
 20
159.45534404296882
 30
0.0
 10
67.55746645625005
 20
159.40497539062497
 30
0.0
 10
67.353224659375
 20
159.404975390625
 30
0.0
 10
66.9802480424764
 20
159.40238728913783
 30
0.0
 10
66.68915283877361
 20
159.59524483976833
 30
0.0
 10
66.53972544062499
 20
159.91833134765625
 30
0.0
 10
66.463825440625
 20
160.0811686523437
 30
0.0
 10
66.425875440625
 20
160.27575000000002
 30
0.0
 10
66.42587544062502
 20
160.502075390625
 30
0.0
 10
66.42393453999807
 20
160.95362859908724
 30
0.0
 10
66.58582679047066
 20
161.28216768997527
 30
0.0
 10
66.86264409296876
 20
161.46048808593744
 30
0.0
 10
67.00202319453128
 20
161.55018808593758
 30
0.0
 10
67.16555004999998
 20
161.59503808593746
 30
0.0
 10
67.353224659375
 20
161.5950380859375
 30
0.0
 10
67.55746645624997
 20
161.59503808593743
 30
0.0
 10
67.73134780390626
 20
161.5446671875
 30
0.0
 10
67.87486870234375
 20
161.443925390625
 30
0.0
 10
68.01838960078128
 20
161.34318359374998
 30
0.0
 10
68.12465005000001
 20
161.2031126953125
 30
0.0
 10
68.19365005
 20
161.0237126953125
 30
0.0
  0
LINE
  5
11C
330
17
100
AcDbEntity
  8
ENGRAVE
100
AcDbLine
 10
68.58695005
 20
159.83553808593751
 30
0.0
 11
68.19365005
 21
159.9762873046875
 31
0.0
  0
LINE
  5
11D
330
17
100
AcDbEntity
  8
ENGRAVE
100
AcDbLine
 10
69.04648735468751
 20
159.0572126953125
 30
0.0
 11
69.46876196406251
 21
159.0572126953125
 31
0.0
  0
LINE
  5
11E
330
17
100
AcDbEntity
  8
ENGRAVE
100
AcDbLine
 10
69.04648735468751
 20
161.9427873046875
 30
0.0
 11
69.04648735468751
 21
159.0572126953125
 31
0.0
  0
LINE
  5
11F
330
17
100
AcDbEntity
  8
ENGRAVE
100
AcDbLine
 10
69.46876196406251
 20
161.9427873046875
 30
0.0
 11
69.04648735468751
 21
161.9427873046875
 31
0.0
  0
LINE
  5
120
330
17
100
AcDbEntity
  8
ENGRAVE
100
AcDbLine
 10
69.46876196406251
 20
160.7339126953125
 30
0.0
 11
69.46876196406251
 21
161.9427873046875
 31
0.0
  0
LINE
  5
121
330
17
100
AcDbEntity
  8
ENGRAVE
100
AcDbLine
 10
70.83082465937501
 20
160.7339126953125
 30
0.0
 11
69.46876196406251
 21
160.7339126953125
 31
0.0
  0
LINE
  5
122
330
17
100
AcDbEntity
  8
ENGRAVE
100
AcDbLine
 10
70.83082465937501
 20
161.9427873046875
 30
0.0
 11
70.83082465937501
 21
160.7339126953125
 31
0.0
  0
LINE
  5
123
330
17
100
AcDbEntity
  8
ENGRAVE
100
AcDbLine
 10
71.2531127453125
 20
161.9427873046875
 30
0.0
 11
70.83082465937501
 21
161.9427873046875
 31
0.0
  0
LINE
  5
124
330
17
100
AcDbEntity
  8
ENGRAVE
100
AcDbLine
 10
71.2531127453125
 20
159.0572126953125
 30
0.0
 11
71.2531127453125
 21
161.9427873046875
 31
0.0
  0
LINE
  5
125
330
17
100
AcDbEntity
  8
ENGRAVE
100
AcDbLine
 10
70.83082465937501
 20
159.0572126953125
 30
0.0
 11
71.2531127453125
 21
159.0572126953125
 31
0.0
  0
LINE
  5
126
330
17
100
AcDbEntity
  8
ENGRAVE
100
AcDbLine
 10
70.83082465937501
 20
160.3406126953125
 30
0.0
 11
70.83082465937501
 21
159.0572126953125
 31
0.0
  0
LINE
  5
127
330
17
100
AcDbEntity
  8
ENGRAVE
100
AcDbLine
 10
69.46876196406251
 20
160.3406126953125
 30
0.0
 11
70.83082465937501
 21
160.3406126953125
 31
0.0
  0
LINE
  5
128
330
17
100
AcDbEntity
  8
ENGRAVE
100
AcDbLine
 10
69.46876196406251
 20
159.0572126953125
 30
0.0
 11
69.46876196406251
 21
160.3406126953125
 31
0.0
  0
LINE
  5
129
330
17
100
AcDbEntity
  8
ENGRAVE
100
AcDbLine
 10
71.62157544062501
 20
159.0572126953125
 30
0.0
 11
72.08525005000001
 21
159.0572126953125
 31
0.0
  0
LINE
  5
12A
330
17
100
AcDbEntity
  8
ENGRAVE
100
AcDbLine
 10
72.74351274531251
 20
161.9427873046875
 30
0.0
 11
71.62157544062501
 21
159.0572126953125
 31
0.0
  0
LINE
  5
12B
330
17
100
AcDbEntity
  8
ENGRAVE
100
AcDbLine
 10
73.070575440625
 20
161.9427873046875
 30
0.0
 11
72.74351274531251
 21
161.9427873046875
 31
0.0
  0
LINE
  5
12C
330
17
100
AcDbEntity
  8
ENGRAVE
100
AcDbLine
 10
74.18837544062501
 20
159.0572126953125
 30
0.0
 11
73.070575440625
 21
161.9427873046875
 31
0.0
  0
LINE
  5
12D
330
17
100
AcDbEntity
  8
ENGRAVE
100
AcDbLine
 10
73.72883813593751
 20
159.0572126953125
 30
0.0
 11
74.18837544062501
 21
159.0572126953125
 31
0.0
  0
LINE
  5
12E
330
17
100
AcDbEntity
  8
ENGRAVE
100
AcDbLine
 10
73.4969873546875
 20
159.6989126953125
 30
0.0
 11
73.72883813593751
 21
159.0572126953125
 31
0.0
  0
LINE
  5
12F
330
17
100
AcDbEntity
  8
ENGRAVE
100
AcDbLine
 10
72.31708735468752
 20
159.6989126953125
 30
0.0
 11
73.4969873546875
 21
159.6989126953125
 31
0.0
  0
LINE
  5
130
330
17
100
AcDbEntity
  8
ENGRAVE
100
AcDbLine
 10
72.08525005000001
 20
159.0572126953125
 30
0.0
 11
72.31708735468752
 21
159.6989126953125
 31
0.0
  0
LINE
  5
131
330
17
100
AcDbEntity
  8
ENGRAVE
100
AcDbLine
 10
73.360375440625
 20
160.07565
 30
0.0
 11
72.45371274531252
 21
160.07565
 31
0.0
  0
LINE
  5
132
330
17
100
AcDbEntity
  8
ENGRAVE
100
AcDbLine
 10
72.90911274531251
 20
161.330075390625
 30
0.0
 11
73.360375440625
 21
160.07565
 31
0.0
  0
LINE
  5
133
330
17
100
AcDbEntity
  8
ENGRAVE
100
AcDbLine
 10
72.45371274531252
 20
160.07565
 30
0.0
 11
72.90911274531251
 21
161.330075390625
 31
0.0
  0
LINE
  5
134
330
17
100
AcDbEntity
  8
ENGRAVE
100
AcDbLine
 10
74.56097544062501
 20
159.0572126953125
 30
0.0
 11
74.98325005000001
 21
159.0572126953125
 31
0.0
  0
LINE
  5
135
330
17
100
AcDbEntity
  8
ENGRAVE
100
AcDbLine
 10
74.56097544062501
 20
161.9427873046875
 30
0.0
 11
74.56097544062501
 21
159.0572126953125
 31
0.0
  0
LINE
  5
136
330
17
100
AcDbEntity
  8
ENGRAVE
100
AcDbLine
 10
75.451075440625
 20
161.9427873046875
 30
0.0
 11
74.56097544062501
 21
161.9427873046875
 31
0.0
  0
SPLINE
  5
137
330
17
100
AcDbEntity
  8
ENGRAVE
100
AcDbSpline
 70
0
 71
3
 72
14
 73
10
 74
0
 40
0.0
 40
0.0
 40
0.0
 40
0.0
 40
1.0
 40
1.0
 40
1.0
 40
1.6777705439815431
 40
1.6777705439815431
 40
1.6777705439815431
 40
3.0333116319445157
 40
3.0333116319445157
 40
3.0333116319445157
 40
3.0333116319445157
 10
76.20870083125001
 20
160.53933808593752
 30
0.0
 10
76.34945903437499
 20
160.68009628906236
 30
0.0
 10
76.41983813593752
 20
160.87467539062513
 30
0.0
 10
76.41983813593751
 20
161.12307539062496
 30
0.0
 10
76.41983813593758
 20
161.29143359375013
 30
0.0
 10
76.38602768671875
 20
161.43702314453117
 30
0.0
 10
76.31840678828127
 20
161.55984404296873
 30
0.0
 10
76.1816564939569
 20
161.80397734239438
 30
0.0
 10
75.90521675057434
 20
161.94429580213676
 30
0.0
 10
75.451075440625
 20
161.94278730468747
 30
0.0
  0
SPLINE
  5
138
330
17
100
AcDbEntity
  8
ENGRAVE
100
AcDbSpline
 70
0
 71
2
 72
6
 73
3
 74
0
 40
0.0
 40
0.0
 40
0.0
 40
1.0
 40
1.0
 40
1.0
 10
76.20870083125001
 20
160.5393380859375
 30
0.0
 10
76.0762127453125
 20
160.4109873046875
 30
0.0
 10
75.87750083125
 20
160.3488873046875
 30
0.0
  0
LINE
  5
139
330
17
100
AcDbEntity
  8
ENGRAVE
100
AcDbLine
 10
76.64340083125
 20
159.0572126953125
 30
0.0
 11
75.87750083125
 21
160.3488873046875
 31
0.0
  0
LINE
  5
13A
330
17
100
AcDbEntity
  8
ENGRAVE
100
AcDbLine
 10
76.15901274531251
 20
159.0572126953125
 30
0.0
 11
76.64340083125
 21
159.0572126953125
 31
0.0
  0
LINE
  5
13B
330
17
100
AcDbEntity
  8
ENGRAVE
100
AcDbLine
 10
75.44693813593751
 20
160.2909380859375
 30
0.0
 11
76.15901274531251
 21
159.0572126953125
 31
0.0
  0
SPLINE
  5
13C
330
17
100
AcDbEntity
  8
ENGRAVE
100
AcDbSpline
 70
0
 71
2
 72
6
 73
3
 74
0
 40
0.0
 40
0.0
 40
0.0
 40
1.0
 40
1.0
 40
1.0
 10
75.44693813593751
 20
160.2909380859375
 30
0.0
 10
75.43865005
 20
160.2909380859375
 30
0.0
 10
75.43037544062501
 20
160.2909380859375
 30
0.0
  0
LINE
  5
13D
330
17
100
AcDbEntity
  8
ENGRAVE
100
AcDbLine
 10
74.98325005000001
 20
160.2909380859375
 30
0.0
 11
75.43037544062501
 21
160.2909380859375
 31
0.0
  0
LINE
  5
13E
330
17
100
AcDbEntity
  8
ENGRAVE
100
AcDbLine
 10
74.98325005000001
 20
159.0572126953125
 30
0.0
 11
74.98325005000001
 21
160.2909380859375
 31
0.0
  0
LINE
  5
13F
330
17
100
AcDbEntity
  8
ENGRAVE
100
AcDbLine
 10
74.98325005000001
 20
160.6635380859375
 30
0.0
 11
74.98325005000001
 21
161.56605
 31
0.0
  0
LINE
  5
140
330
17
100
AcDbEntity
  8
ENGRAVE
100
AcDbLine
 10
75.40967544062501
 20
160.6635380859375
 30
0.0
 11
74.98325005000001
 21
160.6635380859375
 31
0.0
  0
SPLINE
  5
141
330
17
100
AcDbEntity
  8
ENGRAVE
100
AcDbSpline
 70
0
 71
3
 72
17
 73
13
 74
0
 40
0.0
 40
0.0
 40
0.0
 40
0.0
 40
2.0000000000000613
 40
2.0000000000000613
 40
2.0000000000000613
 40
3.000000000000371
 40
3.000000000000371
 40
3.000000000000371
 40
4.00000000000068
 40
4.00000000000068
 40
4.00000000000068
 40
6.000000000000808
 40
6.000000000000808
 40
6.000000000000808
 40
6.000000000000808
 10
75.40967544062502
 20
161.56605000000002
 30
0.0
 10
75.63426644588365
 20
161.56454080059746
 30
0.0
 10
75.8198799431789
 20
161.51718830096507
 30
0.0
 10
75.9230381359375
 20
161.38596269531251
 30
0.0
 10
75.97547993281248
 20
161.3211044921875
 30
0.0
 10
76.00170083124999
 20
161.23209404296875
 30
0.0
 10
76.00170083125
 20
161.11893134765626
 30
0.0
 10
76.00170083124998
 20
161.00576865234376
 30
0.0
 10
75.97547993281249
 20
160.9160686523437
 30
0.0
 10
75.92303813593752
 20
160.84983134765628
 30
0.0
 10
75.81901794463643
 20
160.71606303851428
 30
0.0
 10
75.6406448506761
 20
160.66483178570445
 30
0.0
 10
75.40967544062502
 20
160.66353808593752
 30
0.0
  0
LINE
  5
142
330
17
100
AcDbEntity
  8
ENGRAVE
100
AcDbLine
 10
74.98325005000001
 20
161.56605
 30
0.0
 11
75.40967544062501
 21
161.56605
 31
0.0
  0
SPLINE
  5
143
330
17
100
AcDbEntity
  8
ENGRAVE
100
AcDbSpline
 70
0
 71
3
 72
32
 73
28
 74
0
 40
0.0
 40
0.0
 40
0.0
 40
0.0
 40
1.0
 40
1.0
 40
1.0
 40
2.0000000000000107
 40
2.0000000000000107
 40
2.0000000000000107
 40
2.906513340026191
 40
2.906513340026191
 40
2.906513340026191
 40
3.8130266800523644
 40
3.8130266800523644
 40
3.8130266800523644
 40
4.719540020078477
 40
4.719540020078477
 40
4.719540020078477
 40
5.6260533601045895
 40
5.6260533601045895
 40
5.6260533601045895
 40
6.532566700130763
 40
6.532566700130763
 40
6.532566700130763
 40
7.439080040156945
 40
7.439080040156945
 40
7.439080040156945
 40
8.364899599808284
 40
8.364899599808284
 40
8.364899599808284
 40
8.364899599808284
 10
79.52070083125
 20
161.1686126953125
 30
0.0
 10
79.42685903437496
 20
161.42805449218739
 30
0.0
 10
79.27160903437502
 20
161.63091494140627
 30
0.0
 10
79.05495083125003
 20
161.77719404296874
 30
0.0
 10
78.83829262812502
 20
161.9234731445312
 30
0.0
 10
78.58230083125001
 20
161.99661269531256
 30
0.0
 10
78.286975440625
 20
161.99661269531248
 30
0.0
 10
78.01925903437491
 20
161.99661269531242
 30
0.0
 10
77.78397172968755
 20
161.93451269531255
 30
0.0
 10
77.5811135265625
 20
161.81031269531255
 30
0.0
 10
77.37825532343749
 20
161.68611269531243
 30
0.0
 10
77.22024487421872
 20
161.51154179687498
 30
0.0
 10
77.10708217890625
 20
161.2866
 30
0.0
 10
76.99391948359371
 20
161.0616582031249
 30
0.0
 10
76.93733813593752
 20
160.80014775390623
 30
0.0
 10
76.93733813593752
 20
160.50206865234375
 30
0.0
 10
76.93733813593748
 20
160.2039895507812
 30
0.0
 10
76.99391948359374
 20
159.9417895507812
 30
0.0
 10
77.10708217890624
 20
159.71546865234376
 30
0.0
 10
77.22024487421871
 20
159.4891477539063
 30
0.0
 10
77.37618442499999
 20
159.31388730468743
 30
0.0
 10
77.57490083125002
 20
159.1896873046875
 30
0.0
 10
77.77361723749989
 20
159.0654873046874
 30
0.0
 10
78.00269633906257
 20
159.00338730468758
 30
0.0
 10
78.2621381359375
 20
159.00338730468752
 30
0.0
 10
78.52537992244615
 20
159.0042493032299
 30
0.0
 10
78.76895162286635
 20
159.0742924936451
 30
0.0
 10
78.949375440625
 20
159.2352380859375
 30
0.0
  0
LINE
  5
144
330
17
100
AcDbEntity
  8
ENGRAVE
100
AcDbLine
 10
79.12740083125
 20
161.0237126953125
 30
0.0
 11
79.52070083125
 21
161.1686126953125
 31
0.0
  0
SPLINE
  5
145
330
17
100
AcDbEntity
  8
ENGRAVE
100
AcDbSpline
 70
0
 71
3
 72
29
 73
25
 74
0
 40
0.0
 40
0.0
 40
0.0
 40
0.0
 40
2.0000000000000684
 40
2.0000000000000684
 40
2.0000000000000684
 40
3.000000000000049
 40
3.000000000000049
 40
3.000000000000049
 40
4.942801339285574
 40
4.942801339285574
 40
4.942801339285574
 40
8.828404017856677
 40
8.828404017856677
 40
8.828404017856677
 40
12.71400669642778
 40
12.71400669642778
 40
12.71400669642778
 40
14.656808035713425
 40
14.656808035713425
 40
14.656808035713425
 40
16.771112351189608
 40
16.771112351189608
 40
16.771112351189608
 40
18.885416666665698
 40
18.885416666665698
 40
18.885416666665698
 40
18.885416666665698
 10
79.06943813593752
 20
159.860375390625
 30
0.0
 10
78.96735673940363
 20
159.62744430338395
 30
0.0
 10
78.7816695324713
 20
159.49782884114714
 30
0.0
 10
78.5829881359375
 20
159.44430673828126
 30
0.0
 10
78.4822463390625
 20
159.41808583984368
 30
0.0
 10
78.38357544062498
 20
159.40497539062505
 30
0.0
 10
78.286975440625
 20
159.404975390625
 30
0.0
 10
78.09930083125006
 20
159.40497539062514
 30
0.0
 10
77.93577397578122
 20
159.44982539062485
 30
0.0
 10
77.79639487421875
 20
159.53952539062502
 30
0.0
 10
77.51957757172073
 20
159.71741689317565
 30
0.0
 10
77.35768532124801
 20
160.0509353529181
 30
0.0
 10
77.359626221875
 20
160.50206865234375
 30
0.0
 10
77.3576853212481
 20
160.95363154713434
 30
0.0
 10
77.51957757172067
 20
161.28216698802203
 30
0.0
 10
77.79639487421875
 20
161.4604880859375
 30
0.0
 10
77.93577397578119
 20
161.5501880859374
 30
0.0
 10
78.09930083125002
 20
161.59503808593752
 30
0.0
 10
78.286975440625
 20
161.5950380859375
 30
0.0
 10
78.49121723749995
 20
161.59503808593743
 30
0.0
 10
78.66509858515627
 20
161.5446671875
 30
0.0
 10
78.80861948359374
 20
161.443925390625
 30
0.0
 10
78.95214038203135
 20
161.34318359375004
 30
0.0
 10
79.05840083124997
 20
161.20311269531246
 30
0.0
 10
79.12740083124999
 20
161.0237126953125
 30
0.0
  0
SPLINE
  5
146
330
17
100
AcDbEntity
  8
ENGRAVE
100
AcDbSpline
 70
0
 71
2
 72
6
 73
3
 74
0
 40
0.0
 40
0.0
 40
0.0
 40
1.0
 40
1.0
 40
1.0
 10
79.0694381359375
 20
159.860375390625
 30
0.0
 10
79.13567544062501
 20
160.0011380859375
 30
0.0
 10
79.1439635265625
 20
160.212275390625
 30
0.0
  0
LINE
  5
147
330
17
100
AcDbEntity
  8
ENGRAVE
100
AcDbLine
 10
78.42360083125
 20
160.212275390625
 30
0.0
 11
79.1439635265625
 21
160.212275390625
 31
0.0
  0
LINE
  5
148
330
17
100
AcDbEntity
  8
ENGRAVE
100
AcDbLine
 10
78.42360083125
 20
160.5890126953125
 30
0.0
 11
78.42360083125
 21
160.212275390625
 31
0.0
  0
LINE
  5
149
330
17
100
AcDbEntity
  8
ENGRAVE
100
AcDbLine
 10
79.52070083125
 20
160.5890126953125
 30
0.0
 11
78.42360083125
 21
160.5890126953125
 31
0.0
  0
LINE
  5
14A
330
17
100
AcDbEntity
  8
ENGRAVE
100
AcDbLine
 10
79.52070083125
 20
159.0572126953125
 30
0.0
 11
79.52070083125
 21
160.5890126953125
 31
0.0
  0
LINE
  5
14B
330
17
100
AcDbEntity
  8
ENGRAVE
100
AcDbLine
 10
79.14810083125
 20
159.0572126953125
 30
0.0
 11
79.52070083125
 21
159.0572126953125
 31
0.0
  0
LINE
  5
14C
330
17
100
AcDbEntity
  8
ENGRAVE
100
AcDbLine
 10
79.10670083125001
 20
159.425675390625
 30
0.0
 11
79.14810083125
 21
159.0572126953125
 31
0.0
  0
SPLINE
  5
14D
330
17
100
AcDbEntity
  8
ENGRAVE
100
AcDbSpline
 70
0
 71
2
 72
6
 73
3
 74
0
 40
0.0
 40
0.0
 40
0.0
 40
1.0
 40
1.0
 40
1.0
 10
79.10670083125001
 20
159.425675390625
 30
0.0
 10
79.04460083125001
 20
159.3138873046875
 30
0.0
 10
78.949375440625
 20
159.2352380859375
 30
0.0
  0
LINE
  5
14E
330
17
100
AcDbEntity
  8
ENGRAVE
100
AcDbLine
 10
80.08787544062501
 20
159.0572126953125
 30
0.0
 11
81.99641274531251
 21
159.0572126953125
 31
0.0
  0
LINE
  5
14F
330
17
100
AcDbEntity
  8
ENGRAVE
100
AcDbLine
 10
80.08787544062501
 20
161.9427873046875
 30
0.0
 11
80.08787544062501
 21
159.0572126953125
 31
0.0
  0
LINE
  5
150
330
17
100
AcDbEntity
  8
ENGRAVE
100
AcDbLine
 10
81.99641274531251
 20
161.9427873046875
 30
0.0
 11
80.08787544062501
 21
161.9427873046875
 31
0.0
  0
LINE
  5
151
330
17
100
AcDbEntity
  8
ENGRAVE
100
AcDbLine
 10
81.99641274531251
 20
161.56605
 30
0.0
 11
81.99641274531251
 21
161.9427873046875
 31
0.0
  0
LINE
  5
152
330
17
100
AcDbEntity
  8
ENGRAVE
100
AcDbLine
 10
80.51015005000001
 20
161.56605
 30
0.0
 11
81.99641274531251
 21
161.56605
 31
0.0
  0
LINE
  5
153
330
17
100
AcDbEntity
  8
ENGRAVE
100
AcDbLine
 10
80.51015005000001
 20
160.7214873046875
 30
0.0
 11
80.51015005000001
 21
161.56605
 31
0.0
  0
LINE
  5
154
330
17
100
AcDbEntity
  8
ENGRAVE
100
AcDbLine
 10
81.87221274531251
 20
160.7214873046875
 30
0.0
 11
80.51015005000001
 21
160.7214873046875
 31
0.0
  0
LINE
  5
155
330
17
100
AcDbEntity
  8
ENGRAVE
100
AcDbLine
 10
81.87221274531251
 20
160.34475
 30
0.0
 11
81.87221274531251
 21
160.7214873046875
 31
0.0
  0
LINE
  5
156
330
17
100
AcDbEntity
  8
ENGRAVE
100
AcDbLine
 10
80.51015005000001
 20
160.34475
 30
0.0
 11
81.87221274531251
 21
160.34475
 31
0.0
  0
LINE
  5
157
330
17
100
AcDbEntity
  8
ENGRAVE
100
AcDbLine
 10
80.51015005000001
 20
159.43395
 30
0.0
 11
80.51015005000001
 21
160.34475
 31
0.0
  0
LINE
  5
158
330
17
100
AcDbEntity
  8
ENGRAVE
100
AcDbLine
 10
81.99641274531251
 20
159.43395
 30
0.0
 11
80.51015005000001
 21
159.43395
 31
0.0
  0
LINE
  5
159
330
17
100
AcDbEntity
  8
ENGRAVE
100
AcDbLine
 10
81.99641274531251
 20
159.0572126953125
 30
0.0
 11
81.99641274531251
 21
159.43395
 31
0.0
  0
SPLINE
  5
15A
330
17
100
AcDbEntity
  8
ENGRAVE
100
AcDbSpline
 70
0
 71
3
 72
11
 73
7
 74
0
 40
0.0
 40
0.0
 40
0.0
 40
0.0
 40
1.9999999999999483
 40
1.9999999999999483
 40
1.9999999999999483
 40
4.031777197922663
 40
4.031777197922663
 40
4.031777197922663
 40
4.031777197922663
 10
47.454094042968755
 20
160.1004873046875
 30
0.0
 10
47.45107564416368
 20
159.37866530015762
 30
0.0
 10
47.83384525427379
 20
159.00209290296735
 30
0.0
 10
48.52634326171877
 20
159.00338730468755
 30
0.0
 10
49.23118645213378
 20
159.0016604997896
 30
0.0
 10
49.60446725880373
 20
159.3887648908353
 30
0.0
 10
49.60274326171876
 20
160.1211873046875
 30
0.0
  0
LINE
  5
15B
330
17
100
AcDbEntity
  8
ENGRAVE
100
AcDbLine
 10
47.454094042968755
 20
161.9427873046875
 30
0.0
 11
47.454094042968755
 21
160.1004873046875
 31
0.0
  0
LINE
  5
15C
330
17
100
AcDbEntity
  8
ENGRAVE
100
AcDbLine
 10
47.87636865234376
 20
161.9427873046875
 30
0.0
 11
47.454094042968755
 21
161.9427873046875
 31
0.0
  0
LINE
  5
15D
330
17
100
AcDbEntity
  8
ENGRAVE
100
AcDbLine
 10
47.87636865234376
 20
160.150175390625
 30
0.0
 11
47.87636865234376
 21
161.9427873046875
 31
0.0
  0
SPLINE
  5
15E
330
17
100
AcDbEntity
  8
ENGRAVE
100
AcDbSpline
 70
0
 71
3
 72
14
 73
10
 74
0
 40
0.0
 40
0.0
 40
0.0
 40
0.0
 40
1.0
 40
1.0
 40
1.0
 40
2.999999999999702
 40
2.999999999999702
 40
2.999999999999702
 40
5.999831630934197
 40
5.999831630934197
 40
5.999831630934197
 40
5.999831630934197
 10
49.184605957031266
 20
160.150175390625
 30
0.0
 10
49.18460595703124
 20
159.984575390625
 30
0.0
 10
49.16390595703126
 20
159.84588583984376
 30
0.0
 10
49.12250595703125
 20
159.73410673828127
 30
0.0
 10
49.0388425545824
 20
159.51162743724086
 30
0.0
 10
48.84737385166762
 20
159.38733379322792
 30
0.0
 10
48.52634326171876
 20
159.38841269531247
 30
0.0
 10
48.04270687929246
 20
159.38772540466132
 30
0.0
 10
47.8787531505353
 20
159.6540527001488
 30
0.0
 10
47.87636865234376
 20
160.15017539062498
 30
0.0
  0
LINE
  5
15F
330
17
100
AcDbEntity
  8
ENGRAVE
100
AcDbLine
 10
49.18460595703126
 20
161.9427873046875
 30
0.0
 11
49.18460595703126
 21
160.150175390625
 31
0.0
  0
LINE
  5
160
330
17
100
AcDbEntity
  8
ENGRAVE
100
AcDbLine
 10
49.60274326171876
 20
161.9427873046875
 30
0.0
 11
49.18460595703126
 21
161.9427873046875
 31
0.0
  0
LINE
  5
161
330
17
100
AcDbEntity
  8
ENGRAVE
100
AcDbLine
 10
49.60274326171876
 20
160.1211873046875
 30
0.0
 11
49.60274326171876
 21
161.9427873046875
 31
0.0
  0
SPLINE
  5
162
330
17
100
AcDbEntity
  8
ENGRAVE
100
AcDbSpline
 70
0
 71
3
 72
26
 73
22
 74
0
 40
0.0
 40
0.0
 40
0.0
 40
0.0
 40
1.0
 40
1.0
 40
1.0
 40
2.000000000000049
 40
2.000000000000049
 40
2.000000000000049
 40
2.6448541267379246
 40
2.6448541267379246
 40
2.6448541267379246
 40
3.289708253475835
 40
3.289708253475835
 40
3.289708253475835
 40
3.9345623802137455
 40
3.9345623802137455
 40
3.9345623802137455
 40
4.5256786630568175
 40
4.5256786630568175
 40
4.5256786630568175
 40
5.70791122874292
 40
5.70791122874292
 40
5.70791122874292
 40
5.70791122874292
 10
50.03330595703126
 20
159.8562380859375
 30
0.0
 10
50.07470595703123
 20
159.5995544921874
 30
0.0
 10
50.18993505859375
 20
159.39393359375003
 30
0.0
 10
50.37899326171875
 20
159.239375390625
 30
0.0
 10
50.56805146484379
 20
159.08481718750008
 30
0.0
 10
50.810243261718725
 20
159.00753808593743
 30
0.0
 10
51.105568652343756
 20
159.0075380859375
 30
0.0
 10
51.29601044921873
 20
159.00753808593734
 30
0.0
 10
51.46298955078127
 20
159.04479628906253
 30
0.0
 10
51.606505957031246
 20
159.11931269531246
 30
0.0
 10
51.750022363281225
 20
159.19382910156241
 30
0.0
 10
51.862491015625025
 20
159.295258203125
 30
0.0
 10
51.9439119140625
 20
159.42360000000002
 30
0.0
 10
52.025332812499975
 20
159.5519417968749
 30
0.0
 10
52.06604326171877
 20
159.69891269531257
 30
0.0
 10
52.066043261718754
 20
159.8645126953125
 30
0.0
 10
52.066043261718725
 20
160.01631269531248
 30
0.0
 10
52.03292460937503
 20
160.14465224609373
 30
0.0
 10
51.966687304687504
 20
160.24953134765624
 30
0.0
 10
51.83507679971459
 20
160.46230865153936
 30
0.0
 10
51.58770005575419
 20
160.5984100008043
 30
0.0
 10
51.24633134765625
 20
160.7339126953125
 30
0.0
  0
LINE
  5
163
330
17
100
AcDbEntity
  8
ENGRAVE
100
AcDbLine
 10
50.44316865234375
 20
159.9555873046875
 30
0.0
 11
50.03330595703125
 21
159.8562380859375
 31
0.0
  0
SPLINE
  5
164
330
17
100
AcDbEntity
  8
ENGRAVE
100
AcDbSpline
 70
0
 71
3
 72
23
 73
19
 74
0
 40
0.0
 40
0.0
 40
0.0
 40
0.0
 40
2.0
 40
2.0
 40
2.0
 40
3.0
 40
3.0
 40
3.0
 40
4.882431785543218
 40
4.882431785543218
 40
4.882431785543218
 40
5.8236476783147815
 40
5.8236476783147815
 40
5.8236476783147815
 40
7.451544612588438
 40
7.451544612588438
 40
7.451544612588438
 40
9.079441546862133
 40
9.079441546862133
 40
9.079441546862133
 40
9.079441546862133
 10
51.02276865234375
 20
160.38201269531254
 30
0.0
 10
51.28155286007726
 20
160.28048910754984
 30
0.0
 10
51.46985085086022
 20
160.1951019080751
 30
0.0
 10
51.57131865234375
 20
160.0715126953125
 30
0.0
 10
51.622376855468744
 20
160.01079628906245
 30
0.0
 10
51.64790595703126
 20
159.9335171875
 30
0.0
 10
51.647905957031256
 20
159.83967539062502
 30
0.0
 10
51.650278558882675
 20
159.66539580731995
 30
0.0
 10
51.544099761429834
 20
159.5123079036175
 30
0.0
 10
51.38915595703125
 20
159.4401626953125
 30
0.0
 10
51.31049775390622
 20
159.4029044921874
 30
0.0
 10
51.22010595703126
 20
159.38427539062502
 30
0.0
 10
51.11798056640625
 20
159.384275390625
 30
0.0
 10
50.94134775390623
 20
159.38427539062494
 30
0.0
 10
50.79231044921874
 20
159.432575390625
 30
0.0
 10
50.67086865234377
 20
159.52917539062506
 30
0.0
 10
50.54942685546875
 20
159.625775390625
 30
0.0
 10
50.47352685546875
 20
159.76791269531253
 30
0.0
 10
50.44316865234376
 20
159.95558730468753
 30
0.0
  0
SPLINE
  5
165
330
17
100
AcDbEntity
  8
ENGRAVE
100
AcDbSpline
 70
0
 71
3
 72
23
 73
19
 74
0
 40
0.0
 40
0.0
 40
0.0
 40
0.0
 40
1.9999999999999756
 40
1.9999999999999756
 40
1.9999999999999756
 40
2.940241947237958
 40
2.940241947237958
 40
2.940241947237958
 40
3.8804838944759945
 40
3.8804838944759945
 40
3.8804838944759945
 40
4.820725841714049
 40
4.820725841714049
 40
4.820725841714049
 40
5.743567446688899
 40
5.743567446688899
 40
5.743567446688899
 40
7.5892506566386375
 40
7.5892506566386375
 40
7.5892506566386375
 40
7.5892506566386375
 10
51.93356865234375
 20
161.49153808593752
 30
0.0
 10
51.765470644898805
 20
161.82825449218737
 30
0.0
 10
51.459975644163706
 20
161.99661269531256
 30
0.0
 10
51.093143261718744
 20
161.99661269531254
 30
0.0
 10
50.919268652343774
 20
161.99661269531245
 30
0.0
 10
50.766089550781246
 20
161.96349179687502
 30
0.0
 10
50.63360595703126
 20
161.89724999999999
 30
0.0
 10
50.50112236328123
 20
161.83100820312495
 30
0.0
 10
50.39831191406253
 20
161.74061865234376
 30
0.0
 10
50.32517460937499
 20
161.62608134765628
 30
0.0
 10
50.25203730468749
 20
161.51154404296884
 30
0.0
 10
50.215468652343745
 20
161.37975449218746
 30
0.0
 10
50.21546865234375
 20
161.2307126953125
 30
0.0
 10
50.215468652343745
 20
161.08442910156253
 30
0.0
 10
50.24789775390625
 20
160.95953730468742
 30
0.0
 10
50.31275595703126
 20
160.8560373046875
 30
0.0
 10
50.44139275924352
 20
160.64623229965838
 30
0.0
 10
50.68713185013148
 20
160.51178488784154
 30
0.0
 10
51.02276865234375
 20
160.3820126953125
 30
0.0
  0
LINE
  5
166
330
17
100
AcDbEntity
  8
ENGRAVE
100
AcDbLine
 10
51.59823134765625
 20
161.2845380859375
 30
0.0
 11
51.93356865234375
 21
161.4915380859375
 31
0.0
  0
SPLINE
  5
167
330
17
100
AcDbEntity
  8
ENGRAVE
100
AcDbSpline
 70
0
 71
3
 72
20
 73
16
 74
0
 40
0.0
 40
0.0
 40
0.0
 40
0.0
 40
2.0000000000000435
 40
2.0000000000000435
 40
2.0000000000000435
 40
2.999999999999885
 40
2.999999999999885
 40
2.999999999999885
 40
3.9656488549614233
 40
3.9656488549614233
 40
3.9656488549614233
 40
5.896946564883975
 40
5.896946564883975
 40
5.896946564883975
 40
8.388734286380002
 40
8.388734286380002
 40
8.388734286380002
 40
8.388734286380002
 10
51.24633134765626
 20
160.7339126953125
 30
0.0
 10
50.97563155231739
 20
160.83586938820594
 30
0.0
 10
50.79735575237009
 20
160.91347914695024
 30
0.0
 10
50.70605595703125
 20
161.0319940429688
 30
0.0
 10
50.660514160156254
 20
161.08995673828122
 30
0.0
 10
50.63774326171876
 20
161.15895449218758
 30
0.0
 10
50.637743261718754
 20
161.2389873046875
 30
0.0
 10
50.637743261718796
 20
161.3162708984377
 30
0.0
 10
50.65637460937498
 20
161.38320224609362
 30
0.0
 10
50.69363730468751
 20
161.43978134765626
 30
0.0
 10
50.76622460249841
 20
161.55142964942561
 30
0.0
 10
50.911535065470375
 20
161.6255225966682
 30
0.0
 10
51.08073134765624
 20
161.62401269531244
 30
0.0
 10
51.301101752291416
 20
161.62487469385482
 30
0.0
 10
51.47721016177108
 20
161.50447608739512
 30
0.0
 10
51.59823134765625
 20
161.28453808593753
 30
0.0
  0
LINE
  5
168
330
17
100
AcDbEntity
  8
ENGRAVE
100
AcDbLine
 10
52.55043134765625
 20
159.0572126953125
 30
0.0
 11
53.61440595703125
 21
159.0572126953125
 31
0.0
  0
LINE
  5
169
330
17
100
AcDbEntity
  8
ENGRAVE
100
AcDbLine
 10
52.55043134765625
 20
161.9427873046875
 30
0.0
 11
52.55043134765625
 21
159.0572126953125
 31
0.0
  0
LINE
  5
16A
330
17
100
AcDbEntity
  8
ENGRAVE
100
AcDbLine
 10
53.502631347656255
 20
161.9427873046875
 30
0.0
 11
52.55043134765625
 21
161.9427873046875
 31
0.0
  0
SPLINE
  5
16B
330
17
100
AcDbEntity
  8
ENGRAVE
100
AcDbSpline
 70
0
 71
3
 72
14
 73
10
 74
0
 40
0.0
 40
0.0
 40
0.0
 40
0.0
 40
2.0000000000000195
 40
2.0000000000000195
 40
2.0000000000000195
 40
3.6600260416668737
 40
3.6600260416668737
 40
3.6600260416668737
 40
5.320052083333728
 40
5.320052083333728
 40
5.320052083333728
 40
5.320052083333728
 10
54.04910595703125
 20
160.60557539062503
 30
0.0
 10
54.26818055603985
 20
160.71890439734105
 30
0.0
 10
54.39859405333512
 20
160.94487470422138
 30
0.0
 10
54.396868652343755
 20
161.2182873046875
 30
0.0
 10
54.396868652343755
 20
161.4473708984375
 30
0.0
 10
54.31751865234376
 20
161.62539179687502
 30
0.0
 10
54.15881865234376
 20
161.75235000000004
 30
0.0
 10
54.00011865234375
 20
161.87930820312505
 30
0.0
 10
53.781389550781256
 20
161.94278730468747
 30
0.0
 10
53.50263134765625
 20
161.94278730468747
 30
0.0
  0
SPLINE
  5
16C
330
17
100
AcDbEntity
  8
ENGRAVE
100
AcDbSpline
 70
0
 71
3
 72
14
 73
10
 74
0
 40
0.0
 40
0.0
 40
0.0
 40
0.0
 40
1.0
 40
1.0
 40
1.0
 40
1.9999999999999423
 40
1.9999999999999423
 40
1.9999999999999423
 40
3.446756934584317
 40
3.446756934584317
 40
3.446756934584317
 40
3.446756934584317
 10
53.61440595703125
 20
159.0572126953125
 30
0.0
 10
53.90973134765622
 20
159.05721269531242
 30
0.0
 10
54.13881269531252
 20
159.1296626953125
 30
0.0
 10
54.30165000000001
 20
159.2745626953125
 30
0.0
 10
54.46448730468755
 20
159.4194626953126
 30
0.0
 10
54.54590595703122
 20
159.62163359374992
 30
0.0
 10
54.54590595703125
 20
159.88107539062497
 30
0.0
 10
54.54590595703123
 20
160.2551302076547
 30
0.0
 10
54.38030595703128
 20
160.50750260484523
 30
0.0
 10
54.04910595703125
 20
160.60557539062498
 30
0.0
  0
LINE
  5
16D
330
17
100
AcDbEntity
  8
ENGRAVE
100
AcDbLine
 10
52.97270595703125
 20
159.446375390625
 30
0.0
 11
52.97270595703125
 21
160.3613126953125
 31
0.0
  0
LINE
  5
16E
330
17
100
AcDbEntity
  8
ENGRAVE
100
AcDbLine
 10
53.585431347656254
 20
159.446375390625
 30
0.0
 11
52.97270595703125
 21
159.446375390625
 31
0.0
  0
SPLINE
  5
16F
330
17
100
AcDbEntity
  8
ENGRAVE
100
AcDbSpline
 70
0
 71
3
 72
11
 73
7
 74
0
 40
0.0
 40
0.0
 40
0.0
 40
0.0
 40
2.0000000000000293
 40
2.0000000000000293
 40
2.0000000000000293
 40
4.0755481850009545
 40
4.0755481850009545
 40
4.0755481850009545
 40
4.0755481850009545
 10
53.647531347656255
 20
160.3613126953125
 30
0.0
 10
53.9485439481224
 20
160.36347049948148
 30
0.0
 10
54.130356051877584
 20
160.192166805206
 30
0.0
 10
54.12776865234376
 20
159.901775390625
 30
0.0
 10
54.12776865234372
 20
159.5981753906249
 30
0.0
 10
53.94698955078129
 20
159.44637539062506
 30
0.0
 10
53.585431347656254
 20
159.446375390625
 30
0.0
  0
LINE
  5
170
330
17
100
AcDbEntity
  8
ENGRAVE
100
AcDbLine
 10
52.97270595703125
 20
160.3613126953125
 30
0.0
 11
53.647531347656255
 21
160.3613126953125
 31
0.0
  0
LINE
  5
171
330
17
100
AcDbEntity
  8
ENGRAVE
100
AcDbLine
 10
52.97270595703125
 20
160.73805
 30
0.0
 11
52.97270595703125
 21
161.5536380859375
 31
0.0
  0
LINE
  5
172
330
17
100
AcDbEntity
  8
ENGRAVE
100
AcDbLine
 10
53.55230595703125
 20
160.73805
 30
0.0
 11
52.97270595703125
 21
160.73805
 31
0.0
  0
SPLINE
  5
173
330
17
100
AcDbEntity
  8
ENGRAVE
100
AcDbSpline
 70
0
 71
3
 72
14
 73
10
 74
0
 40
0.0
 40
0.0
 40
0.0
 40
0.0
 40
1.9999999999999662
 40
1.9999999999999662
 40
1.9999999999999662
 40
3.02165298613064
 40
3.02165298613064
 40
3.02165298613064
 40
4.043305972261345
 40
4.043305972261345
 40
4.043305972261345
 40
4.043305972261345
 10
53.50263134765625
 20
161.55363808593754
 30
0.0
 10
53.80407494739363
 20
161.55536208302232
 30
0.0
 10
53.98088774791884
 20
161.40839768260264
 30
0.0
 10
53.97873134765625
 20
161.1561873046875
 30
0.0
 10
53.97873134765629
 20
161.0264708984376
 30
0.0
 10
53.93940224609375
 20
160.92435224609372
 30
0.0
 10
53.86074404296875
 20
160.84983134765622
 30
0.0
 10
53.782085839843816
 20
160.77531044921884
 30
0.0
 10
53.67927314453122
 20
160.73804999999996
 30
0.0
 10
53.55230595703125
 20
160.73804999999996
 30
0.0
  0
LINE
  5
174
330
17
100
AcDbEntity
  8
ENGRAVE
100
AcDbLine
 10
52.97270595703125
 20
161.5536380859375
 30
0.0
 11
53.502631347656255
 21
161.5536380859375
 31
0.0
  0
LINE
  5
175
330
17
100
AcDbEntity
  8
ENGRAVE
100
AcDbLine
 10
14.06813056640625
 20
159.0572126953125
 30
0.0
 11
15.97666787109375
 21
159.0572126953125
 31
0.0
  0
LINE
  5
176
330
17
100
AcDbEntity
  8
ENGRAVE
100
AcDbLine
 10
14.06813056640625
 20
161.9427873046875
 30
0.0
 11
14.06813056640625
 21
159.0572126953125
 31
0.0
  0
LINE
  5
177
330
17
100
AcDbEntity
  8
ENGRAVE
100
AcDbLine
 10
15.97666787109375
 20
161.9427873046875
 30
0.0
 11
14.06813056640625
 21
161.9427873046875
 31
0.0
  0
LINE
  5
178
330
17
100
AcDbEntity
  8
ENGRAVE
100
AcDbLine
 10
15.97666787109375
 20
161.56605
 30
0.0
 11
15.97666787109375
 21
161.9427873046875
 31
0.0
  0
LINE
  5
179
330
17
100
AcDbEntity
  8
ENGRAVE
100
AcDbLine
 10
14.49040517578125
 20
161.56605
 30
0.0
 11
15.97666787109375
 21
161.56605
 31
0.0
  0
LINE
  5
17A
330
17
100
AcDbEntity
  8
ENGRAVE
100
AcDbLine
 10
14.49040517578125
 20
160.7214873046875
 30
0.0
 11
14.49040517578125
 21
161.56605
 31
0.0
  0
LINE
  5
17B
330
17
100
AcDbEntity
  8
ENGRAVE
100
AcDbLine
 10
15.85246787109375
 20
160.7214873046875
 30
0.0
 11
14.49040517578125
 21
160.7214873046875
 31
0.0
  0
LINE
  5
17C
330
17
100
AcDbEntity
  8
ENGRAVE
100
AcDbLine
 10
15.85246787109375
 20
160.34475
 30
0.0
 11
15.85246787109375
 21
160.7214873046875
 31
0.0
  0
LINE
  5
17D
330
17
100
AcDbEntity
  8
ENGRAVE
100
AcDbLine
 10
14.49040517578125
 20
160.34475
 30
0.0
 11
15.85246787109375
 21
160.34475
 31
0.0
  0
LINE
  5
17E
330
17
100
AcDbEntity
  8
ENGRAVE
100
AcDbLine
 10
14.49040517578125
 20
159.43395
 30
0.0
 11
14.49040517578125
 21
160.34475
 31
0.0
  0
LINE
  5
17F
330
17
100
AcDbEntity
  8
ENGRAVE
100
AcDbLine
 10
15.97666787109375
 20
159.43395
 30
0.0
 11
14.49040517578125
 21
159.43395
 31
0.0
  0
LINE
  5
180
330
17
100
AcDbEntity
  8
ENGRAVE
100
AcDbLine
 10
15.97666787109375
 20
159.0572126953125
 30
0.0
 11
15.97666787109375
 21
159.43395
 31
0.0
  0
LINE
  5
181
330
17
100
AcDbEntity
  8
ENGRAVE
100
AcDbLine
 10
17.17313056640625
 20
159.0572126953125
 30
0.0
 11
17.59955595703125
 21
159.0572126953125
 31
0.0
  0
LINE
  5
182
330
17
100
AcDbEntity
  8
ENGRAVE
100
AcDbLine
 10
17.17313056640625
 20
161.56605
 30
0.0
 11
17.17313056640625
 21
159.0572126953125
 31
0.0
  0
LINE
  5
183
330
17
100
AcDbEntity
  8
ENGRAVE
100
AcDbLine
 10
16.22921865234375
 20
161.56605
 30
0.0
 11
17.17313056640625
 21
161.56605
 31
0.0
  0
LINE
  5
184
330
17
100
AcDbEntity
  8
ENGRAVE
100
AcDbLine
 10
16.22921865234375
 20
161.9427873046875
 30
0.0
 11
16.22921865234375
 21
161.56605
 31
0.0
  0
LINE
  5
185
330
17
100
AcDbEntity
  8
ENGRAVE
100
AcDbLine
 10
18.53933056640625
 20
161.9427873046875
 30
0.0
 11
16.22921865234375
 21
161.9427873046875
 31
0.0
  0
LINE
  5
186
330
17
100
AcDbEntity
  8
ENGRAVE
100
AcDbLine
 10
18.53933056640625
 20
161.56605
 30
0.0
 11
18.53933056640625
 21
161.9427873046875
 31
0.0
  0
LINE
  5
187
330
17
100
AcDbEntity
  8
ENGRAVE
100
AcDbLine
 10
17.59955595703125
 20
161.56605
 30
0.0
 11
18.53933056640625
 21
161.56605
 31
0.0
  0
LINE
  5
188
330
17
100
AcDbEntity
  8
ENGRAVE
100
AcDbLine
 10
17.59955595703125
 20
159.0572126953125
 30
0.0
 11
17.59955595703125
 21
161.56605
 31
0.0
  0
LINE
  5
189
330
17
100
AcDbEntity
  8
ENGRAVE
100
AcDbLine
 10
18.90779326171875
 20
159.0572126953125
 30
0.0
 11
19.33006787109375
 21
159.0572126953125
 31
0.0
  0
LINE
  5
18A
330
17
100
AcDbEntity
  8
ENGRAVE
100
AcDbLine
 10
18.90779326171875
 20
161.9427873046875
 30
0.0
 11
18.90779326171875
 21
159.0572126953125
 31
0.0
  0
LINE
  5
18B
330
17
100
AcDbEntity
  8
ENGRAVE
100
AcDbLine
 10
19.33006787109375
 20
161.9427873046875
 30
0.0
 11
18.90779326171875
 21
161.9427873046875
 31
0.0
  0
LINE
  5
18C
330
17
100
AcDbEntity
  8
ENGRAVE
100
AcDbLine
 10
19.33006787109375
 20
160.7339126953125
 30
0.0
 11
19.33006787109375
 21
161.9427873046875
 31
0.0
  0
LINE
  5
18D
330
17
100
AcDbEntity
  8
ENGRAVE
100
AcDbLine
 10
20.69213056640625
 20
160.7339126953125
 30
0.0
 11
19.33006787109375
 21
160.7339126953125
 31
0.0
  0
LINE
  5
18E
330
17
100
AcDbEntity
  8
ENGRAVE
100
AcDbLine
 10
20.69213056640625
 20
161.9427873046875
 30
0.0
 11
20.69213056640625
 21
160.7339126953125
 31
0.0
  0
LINE
  5
18F
330
17
100
AcDbEntity
  8
ENGRAVE
100
AcDbLine
 10
21.11441865234375
 20
161.9427873046875
 30
0.0
 11
20.69213056640625
 21
161.9427873046875
 31
0.0
  0
LINE
  5
190
330
17
100
AcDbEntity
  8
ENGRAVE
100
AcDbLine
 10
21.11441865234375
 20
159.0572126953125
 30
0.0
 11
21.11441865234375
 21
161.9427873046875
 31
0.0
  0
LINE
  5
191
330
17
100
AcDbEntity
  8
ENGRAVE
100
AcDbLine
 10
20.69213056640625
 20
159.0572126953125
 30
0.0
 11
21.11441865234375
 21
159.0572126953125
 31
0.0
  0
LINE
  5
192
330
17
100
AcDbEntity
  8
ENGRAVE
100
AcDbLine
 10
20.69213056640625
 20
160.3406126953125
 30
0.0
 11
20.69213056640625
 21
159.0572126953125
 31
0.0
  0
LINE
  5
193
330
17
100
AcDbEntity
  8
ENGRAVE
100
AcDbLine
 10
19.33006787109375
 20
160.3406126953125
 30
0.0
 11
20.69213056640625
 21
160.3406126953125
 31
0.0
  0
LINE
  5
194
330
17
100
AcDbEntity
  8
ENGRAVE
100
AcDbLine
 10
19.33006787109375
 20
159.0572126953125
 30
0.0
 11
19.33006787109375
 21
160.3406126953125
 31
0.0
  0
LINE
  5
195
330
17
100
AcDbEntity
  8
ENGRAVE
100
AcDbLine
 10
21.73541865234375
 20
159.0572126953125
 30
0.0
 11
23.64395595703125
 21
159.0572126953125
 31
0.0
  0
LINE
  5
196
330
17
100
AcDbEntity
  8
ENGRAVE
100
AcDbLine
 10
21.73541865234375
 20
161.9427873046875
 30
0.0
 11
21.73541865234375
 21
159.0572126953125
 31
0.0
  0
LINE
  5
197
330
17
100
AcDbEntity
  8
ENGRAVE
100
AcDbLine
 10
23.64395595703125
 20
161.9427873046875
 30
0.0
 11
21.73541865234375
 21
161.9427873046875
 31
0.0
  0
LINE
  5
198
330
17
100
AcDbEntity
  8
ENGRAVE
100
AcDbLine
 10
23.64395595703125
 20
161.56605
 30
0.0
 11
23.64395595703125
 21
161.9427873046875
 31
0.0
  0
LINE
  5
199
330
17
100
AcDbEntity
  8
ENGRAVE
100
AcDbLine
 10
22.157693261718748
 20
161.56605
 30
0.0
 11
23.64395595703125
 21
161.56605
 31
0.0
  0
LINE
  5
19A
330
17
100
AcDbEntity
  8
ENGRAVE
100
AcDbLine
 10
22.157693261718748
 20
160.7214873046875
 30
0.0
 11
22.157693261718748
 21
161.56605
 31
0.0
  0
LINE
  5
19B
330
17
100
AcDbEntity
  8
ENGRAVE
100
AcDbLine
 10
23.51975595703125
 20
160.7214873046875
 30
0.0
 11
22.157693261718748
 21
160.7214873046875
 31
0.0
  0
LINE
  5
19C
330
17
100
AcDbEntity
  8
ENGRAVE
100
AcDbLine
 10
23.51975595703125
 20
160.34475
 30
0.0
 11
23.51975595703125
 21
160.7214873046875
 31
0.0
  0
LINE
  5
19D
330
17
100
AcDbEntity
  8
ENGRAVE
100
AcDbLine
 10
22.157693261718748
 20
160.34475
 30
0.0
 11
23.51975595703125
 21
160.34475
 31
0.0
  0
LINE
  5
19E
330
17
100
AcDbEntity
  8
ENGRAVE
100
AcDbLine
 10
22.157693261718748
 20
159.43395
 30
0.0
 11
22.157693261718748
 21
160.34475
 31
0.0
  0
LINE
  5
19F
330
17
100
AcDbEntity
  8
ENGRAVE
100
AcDbLine
 10
23.64395595703125
 20
159.43395
 30
0.0
 11
22.157693261718748
 21
159.43395
 31
0.0
  0
LINE
  5
1A0
330
17
100
AcDbEntity
  8
ENGRAVE
100
AcDbLine
 10
23.64395595703125
 20
159.0572126953125
 30
0.0
 11
23.64395595703125
 21
159.43395
 31
0.0
  0
LINE
  5
1A1
330
17
100
AcDbEntity
  8
ENGRAVE
100
AcDbLine
 10
24.14904404296875
 20
159.0572126953125
 30
0.0
 11
24.57131865234375
 21
159.0572126953125
 31
0.0
  0
LINE
  5
1A2
330
17
100
AcDbEntity
  8
ENGRAVE
100
AcDbLine
 10
24.14904404296875
 20
161.9427873046875
 30
0.0
 11
24.14904404296875
 21
159.0572126953125
 31
0.0
  0
LINE
  5
1A3
330
17
100
AcDbEntity
  8
ENGRAVE
100
AcDbLine
 10
25.03914404296875
 20
161.9427873046875
 30
0.0
 11
24.14904404296875
 21
161.9427873046875
 31
0.0
  0
SPLINE
  5
1A4
330
17
100
AcDbEntity
  8
ENGRAVE
100
AcDbSpline
 70
0
 71
3
 72
14
 73
10
 74
0
 40
0.0
 40
0.0
 40
0.0
 40
0.0
 40
1.0
 40
1.0
 40
1.0
 40
1.6777705439815431
 40
1.6777705439815431
 40
1.6777705439815431
 40
3.0333116319444233
 40
3.0333116319444233
 40
3.0333116319444233
 40
3.0333116319444233
 10
25.796769433593752
 20
160.53933808593752
 30
0.0
 10
25.937527636718734
 20
160.68009628906236
 30
0.0
 10
26.007906738281257
 20
160.87467539062513
 30
0.0
 10
26.007906738281246
 20
161.12307539062496
 30
0.0
 10
26.007906738281275
 20
161.29143359375013
 30
0.0
 10
25.974096289062484
 20
161.43702314453117
 30
0.0
 10
25.906475390624994
 20
161.55984404296873
 30
0.0
 10
25.76972509630067
 20
161.80397734239435
 30
0.0
 10
25.493285352918083
 20
161.94429580213696
 30
0.0
 10
25.03914404296875
 20
161.94278730468747
 30
0.0
  0
SPLINE
  5
1A5
330
17
100
AcDbEntity
  8
ENGRAVE
100
AcDbSpline
 70
0
 71
2
 72
6
 73
3
 74
0
 40
0.0
 40
0.0
 40
0.0
 40
1.0
 40
1.0
 40
1.0
 10
25.79676943359375
 20
160.5393380859375
 30
0.0
 10
25.66428134765625
 20
160.4109873046875
 30
0.0
 10
25.46556943359375
 20
160.3488873046875
 30
0.0
  0
LINE
  5
1A6
330
17
100
AcDbEntity
  8
ENGRAVE
100
AcDbLine
 10
26.231469433593748
 20
159.0572126953125
 30
0.0
 11
25.46556943359375
 21
160.3488873046875
 31
0.0
  0
LINE
  5
1A7
330
17
100
AcDbEntity
  8
ENGRAVE
100
AcDbLine
 10
25.74708134765625
 20
159.0572126953125
 30
0.0
 11
26.231469433593748
 21
159.0572126953125
 31
0.0
  0
LINE
  5
1A8
330
17
100
AcDbEntity
  8
ENGRAVE
100
AcDbLine
 10
25.03500673828125
 20
160.2909380859375
 30
0.0
 11
25.74708134765625
 21
159.0572126953125
 31
0.0
  0
SPLINE
  5
1A9
330
17
100
AcDbEntity
  8
ENGRAVE
100
AcDbSpline
 70
0
 71
2
 72
6
 73
3
 74
0
 40
0.0
 40
0.0
 40
0.0
 40
1.0
 40
1.0
 40
1.0
 10
25.03500673828125
 20
160.2909380859375
 30
0.0
 10
25.02671865234375
 20
160.2909380859375
 30
0.0
 10
25.01844404296875
 20
160.2909380859375
 30
0.0
  0
LINE
  5
1AA
330
17
100
AcDbEntity
  8
ENGRAVE
100
AcDbLine
 10
24.57131865234375
 20
160.2909380859375
 30
0.0
 11
25.01844404296875
 21
160.2909380859375
 31
0.0
  0
LINE
  5
1AB
330
17
100
AcDbEntity
  8
ENGRAVE
100
AcDbLine
 10
24.57131865234375
 20
159.0572126953125
 30
0.0
 11
24.57131865234375
 21
160.2909380859375
 31
0.0
  0
LINE
  5
1AC
330
17
100
AcDbEntity
  8
ENGRAVE
100
AcDbLine
 10
24.57131865234375
 20
160.6635380859375
 30
0.0
 11
24.57131865234375
 21
161.56605
 31
0.0
  0
LINE
  5
1AD
330
17
100
AcDbEntity
  8
ENGRAVE
100
AcDbLine
 10
24.997744042968748
 20
160.6635380859375
 30
0.0
 11
24.57131865234375
 21
160.6635380859375
 31
0.0
  0
SPLINE
  5
1AE
330
17
100
AcDbEntity
  8
ENGRAVE
100
AcDbSpline
 70
0
 71
3
 72
17
 73
13
 74
0
 40
0.0
 40
0.0
 40
0.0
 40
0.0
 40
2.0000000000000853
 40
2.0000000000000853
 40
2.0000000000000853
 40
3.0000000000003473
 40
3.0000000000003473
 40
3.0000000000003473
 40
4.000000000000609
 40
4.000000000000609
 40
4.000000000000609
 40
6.000000000000782
 40
6.000000000000782
 40
6.000000000000782
 40
6.000000000000782
 10
24.997744042968748
 20
161.56605000000002
 30
0.0
 10
25.222335048227396
 20
161.56454080059746
 30
0.0
 10
25.40794854552261
 20
161.51718830096502
 30
0.0
 10
25.511106738281242
 20
161.38596269531251
 30
0.0
 10
25.56354853515627
 20
161.3211044921877
 30
0.0
 10
25.589769433593734
 20
161.23209404296867
 30
0.0
 10
25.589769433593748
 20
161.11893134765626
 30
0.0
 10
25.589769433593755
 20
161.0057686523439
 30
0.0
 10
25.563548535156244
 20
160.91606865234365
 30
0.0
 10
25.511106738281242
 20
160.84983134765628
 30
0.0
 10
25.407086546980164
 20
160.71606303851448
 30
0.0
 10
25.228713453019854
 20
160.6648317857043
 30
0.0
 10
24.997744042968748
 20
160.66353808593752
 30
0.0
  0
LINE
  5
1AF
330
17
100
AcDbEntity
  8
ENGRAVE
100
AcDbLine
 10
24.57131865234375
 20
161.56605
 30
0.0
 11
24.997744042968748
 21
161.56605
 31
0.0
  0
LINE
  5
1B0
330
17
100
AcDbEntity
  8
ENGRAVE
100
AcDbLine
 10
26.64546943359375
 20
159.0572126953125
 30
0.0
 11
27.067744042968748
 21
159.0572126953125
 31
0.0
  0
LINE
  5
1B1
330
17
100
AcDbEntity
  8
ENGRAVE
100
AcDbLine
 10
26.64546943359375
 20
161.9427873046875
 30
0.0
 11
26.64546943359375
 21
159.0572126953125
 31
0.0
  0
LINE
  5
1B2
330
17
100
AcDbEntity
  8
ENGRAVE
100
AcDbLine
 10
27.08430673828125
 20
161.9427873046875
 30
0.0
 11
26.64546943359375
 21
161.9427873046875
 31
0.0
  0
LINE
  5
1B3
330
17
100
AcDbEntity
  8
ENGRAVE
100
AcDbLine
 10
28.42153212890625
 20
159.76515
 30
0.0
 11
27.08430673828125
 21
161.9427873046875
 31
0.0
  0
LINE
  5
1B4
330
17
100
AcDbEntity
  8
ENGRAVE
100
AcDbLine
 10
28.42153212890625
 20
161.9427873046875
 30
0.0
 11
28.42153212890625
 21
159.76515
 31
0.0
  0
LINE
  5
1B5
330
17
100
AcDbEntity
  8
ENGRAVE
100
AcDbLine
 10
28.83966943359375
 20
161.9427873046875
 30
0.0
 11
28.42153212890625
 21
161.9427873046875
 31
0.0
  0
LINE
  5
1B6
330
17
100
AcDbEntity
  8
ENGRAVE
100
AcDbLine
 10
28.83966943359375
 20
159.0572126953125
 30
0.0
 11
28.83966943359375
 21
161.9427873046875
 31
0.0
  0
LINE
  5
1B7
330
17
100
AcDbEntity
  8
ENGRAVE
100
AcDbLine
 10
28.392544042968748
 20
159.0572126953125
 30
0.0
 11
28.83966943359375
 21
159.0572126953125
 31
0.0
  0
LINE
  5
1B8
330
17
100
AcDbEntity
  8
ENGRAVE
100
AcDbLine
 10
27.067744042968748
 20
161.2389873046875
 30
0.0
 11
28.392544042968748
 21
159.0572126953125
 31
0.0
  0
LINE
  5
1B9
330
17
100
AcDbEntity
  8
ENGRAVE
100
AcDbLine
 10
27.067744042968748
 20
159.0572126953125
 30
0.0
 11
27.067744042968748
 21
161.2389873046875
 31
0.0
  0
LINE
  5
1BA
330
17
100
AcDbEntity
  8
ENGRAVE
100
AcDbLine
 10
29.46066943359375
 20
159.0572126953125
 30
0.0
 11
31.36920673828125
 21
159.0572126953125
 31
0.0
  0
LINE
  5
1BB
330
17
100
AcDbEntity
  8
ENGRAVE
100
AcDbLine
 10
29.46066943359375
 20
161.9427873046875
 30
0.0
 11
29.46066943359375
 21
159.0572126953125
 31
0.0
  0
LINE
  5
1BC
330
17
100
AcDbEntity
  8
ENGRAVE
100
AcDbLine
 10
31.36920673828125
 20
161.9427873046875
 30
0.0
 11
29.46066943359375
 21
161.9427873046875
 31
0.0
  0
LINE
  5
1BD
330
17
100
AcDbEntity
  8
ENGRAVE
100
AcDbLine
 10
31.36920673828125
 20
161.56605
 30
0.0
 11
31.36920673828125
 21
161.9427873046875
 31
0.0
  0
LINE
  5
1BE
330
17
100
AcDbEntity
  8
ENGRAVE
100
AcDbLine
 10
29.88294404296875
 20
161.56605
 30
0.0
 11
31.36920673828125
 21
161.56605
 31
0.0
  0
LINE
  5
1BF
330
17
100
AcDbEntity
  8
ENGRAVE
100
AcDbLine
 10
29.88294404296875
 20
160.7214873046875
 30
0.0
 11
29.88294404296875
 21
161.56605
 31
0.0
  0
LINE
  5
1C0
330
17
100
AcDbEntity
  8
ENGRAVE
100
AcDbLine
 10
31.245006738281248
 20
160.7214873046875
 30
0.0
 11
29.88294404296875
 21
160.7214873046875
 31
0.0
  0
LINE
  5
1C1
330
17
100
AcDbEntity
  8
ENGRAVE
100
AcDbLine
 10
31.245006738281248
 20
160.34475
 30
0.0
 11
31.245006738281248
 21
160.7214873046875
 31
0.0
  0
LINE
  5
1C2
330
17
100
AcDbEntity
  8
ENGRAVE
100
AcDbLine
 10
29.88294404296875
 20
160.34475
 30
0.0
 11
31.245006738281248
 21
160.34475
 31
0.0
  0
LINE
  5
1C3
330
17
100
AcDbEntity
  8
ENGRAVE
100
AcDbLine
 10
29.88294404296875
 20
159.43395
 30
0.0
 11
29.88294404296875
 21
160.34475
 31
0.0
  0
LINE
  5
1C4
330
17
100
AcDbEntity
  8
ENGRAVE
100
AcDbLine
 10
31.36920673828125
 20
159.43395
 30
0.0
 11
29.88294404296875
 21
159.43395
 31
0.0
  0
LINE
  5
1C5
330
17
100
AcDbEntity
  8
ENGRAVE
100
AcDbLine
 10
31.36920673828125
 20
159.0572126953125
 30
0.0
 11
31.36920673828125
 21
159.43395
 31
0.0
  0
LINE
  5
1C6
330
17
100
AcDbEntity
  8
ENGRAVE
100
AcDbLine
 10
32.56566943359375
 20
159.0572126953125
 30
0.0
 11
32.992094824218746
 21
159.0572126953125
 31
0.0
  0
LINE
  5
1C7
330
17
100
AcDbEntity
  8
ENGRAVE
100
AcDbLine
 10
32.56566943359375
 20
161.56605
 30
0.0
 11
32.56566943359375
 21
159.0572126953125
 31
0.0
  0
LINE
  5
1C8
330
17
100
AcDbEntity
  8
ENGRAVE
100
AcDbLine
 10
31.62175751953125
 20
161.56605
 30
0.0
 11
32.56566943359375
 21
161.56605
 31
0.0
  0
LINE
  5
1C9
330
17
100
AcDbEntity
  8
ENGRAVE
100
AcDbLine
 10
31.62175751953125
 20
161.9427873046875
 30
0.0
 11
31.62175751953125
 21
161.56605
 31
0.0
  0
LINE
  5
1CA
330
17
100
AcDbEntity
  8
ENGRAVE
100
AcDbLine
 10
33.93186943359375
 20
161.9427873046875
 30
0.0
 11
31.62175751953125
 21
161.9427873046875
 31
0.0
  0
LINE
  5
1CB
330
17
100
AcDbEntity
  8
ENGRAVE
100
AcDbLine
 10
33.93186943359375
 20
161.56605
 30
0.0
 11
33.93186943359375
 21
161.9427873046875
 31
0.0
  0
LINE
  5
1CC
330
17
100
AcDbEntity
  8
ENGRAVE
100
AcDbLine
 10
32.992094824218746
 20
161.56605
 30
0.0
 11
33.93186943359375
 21
161.56605
 31
0.0
  0
LINE
  5
1CD
330
17
100
AcDbEntity
  8
ENGRAVE
100
AcDbLine
 10
32.992094824218746
 20
159.0572126953125
 30
0.0
 11
32.992094824218746
 21
161.56605
 31
0.0
  0
LINE
  5
1CE
330
17
100
AcDbEntity
  8
ENGRAVE
100
AcDbLine
 10
62.81769814453125
 20
85.18055185546875
 30
0.0
 11
59.25799443359375
 21
85.18055185546875
 31
0.0
  0
SPLINE
  5
1CF
330
17
100
AcDbEntity
  8
ENGRAVE
100
AcDbSpline
 70
0
 71
2
 72
14
 73
11
 74
0
 40
0.0
 40
0.0
 40
0.0
 40
1.0
 40
1.0
 40
1.9999999999999332
 40
1.9999999999999332
 40
2.545575614086907
 40
2.545575614086907
 40
3.091151228173926
 40
3.091151228173926
 40
3.636726842260969
 40
3.636726842260969
 40
3.636726842260969
 10
64.19909072265625
 20
84.86175927734375
 30
0.0
 10
64.12664072265625
 20
85.11294443359377
 30
0.0
 10
64.01796572265624
 20
85.21919814453125
 30
0.0
 10
63.90929072265625
 20
85.32545185546874
 30
0.0
 10
63.69678330078125
 20
85.32545185546874
 30
0.0
 10
63.580844433593754
 20
85.32545185546874
 30
0.0
 10
63.45768886718751
 20
85.29164814453125
 30
0.0
 10
63.334533300781246
 20
85.25784443359376
 30
0.0
 10
63.18238515625
 20
85.21919814453123
 30
0.0
 10
63.03023701171874
 20
85.18055185546875
 30
0.0
 10
62.81769814453125
 20
85.18055185546874
 30
0.0
  0
LINE
  5
1D0
330
17
100
AcDbEntity
  8
ENGRAVE
100
AcDbLine
 10
64.62894814453125
 20
83.34999443359375
 30
0.0
 11
64.19909072265625
 21
84.86175927734375
 31
0.0
  0
SPLINE
  5
1D1
330
17
100
AcDbEntity
  8
ENGRAVE
100
AcDbSpline
 70
0
 71
2
 72
8
 73
5
 74
0
 40
0.0
 40
0.0
 40
0.0
 40
1.0
 40
1.0
 40
2.0
 40
2.0
 40
2.0
 10
64.35364443359374
 20
82.98774443359375
 30
0.0
 10
64.50338701171876
 20
83.01189443359377
 30
0.0
 10
64.58549072265625
 20
83.10849443359375
 30
0.0
 10
64.66759443359376
 20
83.20509443359376
 30
0.0
 10
64.62894814453125
 20
83.34999443359375
 30
0.0
  0
SPLINE
  5
1D2
330
17
100
AcDbEntity
  8
ENGRAVE
100
AcDbSpline
 70
0
 71
2
 72
8
 73
5
 74
0
 40
0.0
 40
0.0
 40
0.0
 40
1.0
 40
1.0
 40
1.9999999999999614
 40
1.9999999999999614
 40
1.9999999999999614
 10
63.92859814453124
 20
83.20990556640623
 30
0.0
 10
64.00589072265626
 20
83.05535185546876
 30
0.0
 10
64.1218138671875
 20
83.01429999999999
 30
0.0
 10
64.23773701171876
 20
82.97324814453124
 30
0.0
 10
64.35364443359374
 20
82.98774443359375
 30
0.0
  0
SPLINE
  5
1D3
330
17
100
AcDbEntity
  8
ENGRAVE
100
AcDbSpline
 70
0
 71
2
 72
10
 73
7
 74
0
 40
0.0
 40
0.0
 40
0.0
 40
1.0
 40
1.0
 40
2.0
 40
2.0
 40
3.0000000000000124
 40
3.0000000000000124
 40
3.0000000000000124
 10
62.26709072265625
 20
84.53334443359375
 30
0.0
 10
62.59069443359374
 20
84.53334443359375
 30
0.0
 10
62.8611712890625
 20
84.427075
 30
0.0
 10
63.13164814453125
 20
84.32080556640625
 30
0.0
 10
63.390065722656246
 20
84.03583242187499
 30
0.0
 10
63.64848330078126
 20
83.75085927734375
 30
0.0
 10
63.92859814453125
 20
83.20990556640623
 30
0.0
  0
LINE
  5
1D4
330
17
100
AcDbEntity
  8
ENGRAVE
100
AcDbLine
 10
61.76959443359375
 20
84.53334443359375
 30
0.0
 11
62.26709072265625
 21
84.53334443359375
 31
0.0
  0
LINE
  5
1D5
330
17
100
AcDbEntity
  8
ENGRAVE
100
AcDbLine
 10
61.76959443359375
 20
81.98309814453125
 30
0.0
 11
61.76959443359375
 21
84.53334443359375
 31
0.0
  0
LINE
  5
1D6
330
17
100
AcDbEntity
  8
ENGRAVE
100
AcDbLine
 10
62.26224814453125
 20
81.98309814453125
 30
0.0
 11
61.76959443359375
 21
81.98309814453125
 31
0.0
  0
SPLINE
  5
1D7
330
17
100
AcDbEntity
  8
ENGRAVE
100
AcDbSpline
 70
0
 71
2
 72
8
 73
5
 74
0
 40
0.0
 40
0.0
 40
0.0
 40
1.0
 40
1.0
 40
2.0
 40
2.0
 40
2.0
 10
62.98674814453125
 20
82.61580927734374
 30
0.0
 10
62.86599814453125
 20
82.23909443359376
 30
0.0
 10
62.72594072265624
 20
82.11109628906252
 30
0.0
 10
62.58588330078125
 20
81.98309814453125
 30
0.0
 10
62.26224814453124
 20
81.98309814453127
 30
0.0
  0
SPLINE
  5
1D8
330
17
100
AcDbEntity
  8
ENGRAVE
100
AcDbSpline
 70
0
 71
3
 72
11
 73
7
 74
0
 40
0.0
 40
0.0
 40
0.0
 40
0.0
 40
1.0
 40
1.0
 40
1.0
 40
1.8147076552139791
 40
1.8147076552139791
 40
1.8147076552139791
 40
1.8147076552139791
 10
63.61949072265625
 20
82.61099814453125
 30
0.0
 10
63.58085491536456
 20
82.77843395182289
 30
0.0
 10
63.474590722656245
 20
82.86215185546877
 30
0.0
 10
63.30069814453125
 20
82.86215185546877
 30
0.0
 10
63.160533389506426
 20
82.85963605516244
 30
0.0
 10
63.04322644122276
 20
82.79865346306676
 30
0.0
 10
62.986748144531255
 20
82.61580927734376
 30
0.0
  0
LINE
  5
1D9
330
17
100
AcDbEntity
  8
ENGRAVE
100
AcDbLine
 10
63.99623701171875
 20
81.04605927734374
 30
0.0
 11
63.61949072265625
 21
82.61099814453125
 31
0.0
  0
SPLINE
  5
1DA
330
17
100
AcDbEntity
  8
ENGRAVE
100
AcDbSpline
 70
0
 71
2
 72
8
 73
5
 74
0
 40
0.0
 40
0.0
 40
0.0
 40
1.0
 40
1.0
 40
2.0
 40
2.0
 40
2.0
 10
63.822344433593756
 20
80.65484814453124
 30
0.0
 10
63.93828330078126
 20
80.70314814453124
 30
0.0
 10
63.9889888671875
 20
80.7925
 30
0.0
 10
64.03969443359375
 20
80.88185185546875
 30
0.0
 10
63.99623701171875
 20
81.04605927734374
 30
0.0
  0
SPLINE
  5
1DB
330
17
100
AcDbEntity
  8
ENGRAVE
100
AcDbSpline
 70
0
 71
3
 72
8
 73
4
 74
0
 40
0.0
 40
0.0
 40
0.0
 40
0.0
 40
2.000000000000057
 40
2.000000000000057
 40
2.000000000000057
 40
2.000000000000057
 10
63.37799072265625
 20
80.81905556640625
 30
0.0
 10
63.50678744687456
 20
80.64418156263832
 30
0.0
 10
63.65493286562542
 20
80.59786537746581
 30
0.0
 10
63.82234443359375
 20
80.65484814453124
 30
0.0
  0
SPLINE
  5
1DC
330
17
100
AcDbEntity
  8
ENGRAVE
100
AcDbSpline
 70
0
 71
2
 72
10
 73
7
 74
0
 40
0.0
 40
0.0
 40
0.0
 40
1.0
 40
1.0
 40
2.0
 40
2.0
 40
3.0000000000000306
 40
3.0000000000000306
 40
3.0000000000000306
 10
62.38299814453124
 20
81.35035556640625
 30
0.0
 10
62.638994433593744
 20
81.35035556640626
 30
0.0
 10
62.803217578125
 20
81.30447685546875
 30
0.0
 10
62.96744072265626
 20
81.25859814453125
 30
0.0
 10
63.0954388671875
 20
81.14267499999998
 30
0.0
 10
63.223437011718744
 20
81.02675185546875
 30
0.0
 10
63.37799072265625
 20
80.81905556640623
 30
0.0
  0
LINE
  5
1DD
330
17
100
AcDbEntity
  8
ENGRAVE
100
AcDbLine
 10
61.76959443359375
 20
81.35035556640625
 30
0.0
 11
62.38299814453125
 21
81.35035556640625
 31
0.0
  0
LINE
  5
1DE
330
17
100
AcDbEntity
  8
ENGRAVE
100
AcDbLine
 10
61.76959443359375
 20
79.42800927734375
 30
0.0
 11
61.76959443359375
 21
81.35035556640625
 31
0.0
  0
SPLINE
  5
1DF
330
17
100
AcDbEntity
  8
ENGRAVE
100
AcDbSpline
 70
0
 71
3
 72
8
 73
4
 74
0
 40
0.0
 40
0.0
 40
0.0
 40
0.0
 40
1.9999999999999583
 40
1.9999999999999583
 40
1.9999999999999583
 40
1.9999999999999583
 10
62.01593701171875
 20
79.12374443359374
 30
0.0
 10
61.83309282599572
 20
79.16084586622195
 30
0.0
 10
61.7721102339001
 20
79.27497945929889
 30
0.0
 10
61.76959443359375
 20
79.42800927734375
 30
0.0
  0
LINE
  5
1E0
330
17
100
AcDbEntity
  8
ENGRAVE
100
AcDbLine
 10
62.32023330078125
 20
79.06094814453125
 30
0.0
 11
62.01593701171875
 21
79.12374443359374
 31
0.0
  0
SPLINE
  5
1E1
330
17
100
AcDbEntity
  8
ENGRAVE
100
AcDbSpline
 70
0
 71
3
 72
11
 73
7
 74
0
 40
0.0
 40
0.0
 40
0.0
 40
0.0
 40
2.0
 40
2.0
 40
2.0
 40
4.137373737373705
 40
4.137373737373705
 40
4.137373737373705
 40
4.137373737373705
 10
62.20913701171875
 20
78.41855185546875
 30
0.0
 10
62.474154244653285
 20
78.41603933094399
 30
0.0
 10
62.5945346225342
 20
78.53857551280598
 30
0.0
 10
62.595537011718754
 20
78.72284814453126
 30
0.0
 10
62.593024487194015
 20
78.92447431821361
 30
0.0
 10
62.522360669055956
 20
79.02028004376555
 30
0.0
 10
62.320233300781254
 20
79.06094814453125
 30
0.0
  0
LINE
  5
1E2
330
17
100
AcDbEntity
  8
ENGRAVE
100
AcDbLine
 10
59.25799443359375
 20
78.41855185546875
 30
0.0
 11
62.20913701171875
 21
78.41855185546875
 31
0.0
  0
SPLINE
  5
1E3
330
17
100
AcDbEntity
  8
ENGRAVE
100
AcDbSpline
 70
0
 71
3
 72
11
 73
7
 74
0
 40
0.0
 40
0.0
 40
0.0
 40
0.0
 40
1.0
 40
1.0
 40
1.0
 40
2.1374952125622726
 40
2.1374952125622726
 40
2.1374952125622726
 40
2.1374952125622726
 10
59.10828330078125
 20
79.05610556640625
 30
0.0
 10
58.95049072265623
 20
78.99814137369786
 30
0.0
 10
58.87159443359374
 20
78.88705556640625
 30
0.0
 10
58.87159443359374
 20
78.72284814453126
 30
0.0
 10
58.872596822778306
 20
78.53857551280598
 30
0.0
 10
58.99297720065919
 20
78.41603933094402
 30
0.0
 10
59.25799443359375
 20
78.41855185546875
 30
0.0
  0
LINE
  5
1E4
330
17
100
AcDbEntity
  8
ENGRAVE
100
AcDbLine
 10
59.29664072265625
 20
79.12374443359374
 30
0.0
 11
59.10828330078125
 21
79.05610556640625
 31
0.0
  0
SPLINE
  5
1E5
330
17
100
AcDbEntity
  8
ENGRAVE
100
AcDbSpline
 70
0
 71
3
 72
8
 73
4
 74
0
 40
0.0
 40
0.0
 40
0.0
 40
0.0
 40
2.0
 40
2.0
 40
2.0
 40
2.0
 10
59.54298330078125
 20
79.42800927734373
 30
0.0
 10
59.5424788304073
 20
79.27195918861857
 30
0.0
 10
59.46460196386351
 20
79.18319452231891
 30
0.0
 10
59.29664072265625
 20
79.12374443359373
 30
0.0
  0
LINE
  5
1E6
330
17
100
AcDbEntity
  8
ENGRAVE
100
AcDbLine
 10
59.54298330078125
 20
84.17109443359375
 30
0.0
 11
59.54298330078125
 21
79.42800927734375
 31
0.0
  0
SPLINE
  5
1E7
330
17
100
AcDbEntity
  8
ENGRAVE
100
AcDbSpline
 70
0
 71
3
 72
8
 73
4
 74
0
 40
0.0
 40
0.0
 40
0.0
 40
0.0
 40
2.0
 40
2.0
 40
2.0
 40
2.0
 10
59.29664072265625
 20
84.47535927734377
 30
0.0
 10
59.464601963863494
 20
84.41590918861857
 30
0.0
 10
59.54247883040732
 20
84.32714452231886
 30
0.0
 10
59.54298330078125
 20
84.17109443359377
 30
0.0
  0
LINE
  5
1E8
330
17
100
AcDbEntity
  8
ENGRAVE
100
AcDbLine
 10
59.10828330078125
 20
84.54299814453125
 30
0.0
 11
59.29664072265625
 21
84.47535927734376
 31
0.0
  0
SPLINE
  5
1E9
330
17
100
AcDbEntity
  8
ENGRAVE
100
AcDbSpline
 70
0
 71
3
 72
11
 73
7
 74
0
 40
0.0
 40
0.0
 40
0.0
 40
0.0
 40
2.0
 40
2.0
 40
2.0
 40
3.758249158249103
 40
3.758249158249103
 40
3.758249158249103
 40
3.758249158249103
 10
59.257994433593744
 20
85.18055185546875
 30
0.0
 10
58.99297720065918
 20
85.18306437999345
 30
0.0
 10
58.8725968227783
 20
85.06052819813151
 30
0.0
 10
58.87159443359375
 20
84.87625556640624
 30
0.0
 10
58.871594433593714
 20
84.71204814453121
 30
0.0
 10
58.95049072265624
 20
84.6009623372396
 30
0.0
 10
59.10828330078126
 20
84.54299814453127
 30
0.0
  0
LINE
  5
1EA
330
17
100
AcDbEntity
  8
ENGRAVE
100
AcDbLine
 10
67.42553701171876
 20
79.37489814453124
 30
0.0
 11
67.42553701171876
 21
85.30614443359374
 31
0.0
  0
SPLINE
  5
1EB
330
17
100
AcDbEntity
  8
ENGRAVE
100
AcDbSpline
 70
0
 71
2
 72
8
 73
5
 74
0
 40
0.0
 40
0.0
 40
0.0
 40
1.0
 40
1.0
 40
1.9999999999999394
 40
1.9999999999999394
 40
1.9999999999999394
 10
67.55594072265626
 20
79.00780556640625
 30
0.0
 10
67.48349072265626
 20
79.03679814453126
 30
0.0
 10
67.45451386718752
 20
79.11407499999999
 30
0.0
 10
67.42553701171875
 20
79.19135185546877
 30
0.0
 10
67.42553701171877
 20
79.37489814453124
 30
0.0
  0
LINE
  5
1EC
330
17
100
AcDbEntity
  8
ENGRAVE
100
AcDbLine
 10
67.66703701171875
 20
78.95950556640625
 30
0.0
 11
67.55594072265626
 21
79.00780556640625
 31
0.0
  0
SPLINE
  5
1ED
330
17
100
AcDbEntity
  8
ENGRAVE
100
AcDbSpline
 70
0
 71
3
 72
11
 73
7
 74
0
 40
0.0
 40
0.0
 40
0.0
 40
0.0
 40
2.0
 40
2.0
 40
2.0
 40
3.4611917876815146
 40
3.4611917876815146
 40
3.4611917876815146
 40
3.4611917876815146
 10
67.52213701171875
 20
78.41855185546873
 30
0.0
 10
67.76191876164218
 20
78.4165405255363
 30
0.0
 10
67.86353800919113
 20
78.52359899269284
 30
0.0
 10
67.86504814453126
 20
78.68904443359375
 30
0.0
 10
67.86353800919113
 20
78.81138438697874
 30
0.0
 10
67.81021876164228
 20
78.90156561302123
 30
0.0
 10
67.66703701171875
 20
78.95950556640625
 30
0.0
  0
LINE
  5
1EE
330
17
100
AcDbEntity
  8
ENGRAVE
100
AcDbLine
 10
65.30514814453126
 20
78.41855185546875
 30
0.0
 11
67.52213701171875
 21
78.41855185546875
 31
0.0
  0
SPLINE
  5
1EF
330
17
100
AcDbEntity
  8
ENGRAVE
100
AcDbSpline
 70
0
 71
3
 72
11
 73
7
 74
0
 40
0.0
 40
0.0
 40
0.0
 40
0.0
 40
2.000000000000144
 40
2.000000000000144
 40
2.000000000000144
 40
4.73749143248836
 40
4.73749143248836
 40
4.73749143248836
 40
4.73749143248836
 10
65.16024814453125
 20
78.95950556640625
 30
0.0
 10
65.01706639460774
 20
78.90156561302118
 30
0.0
 10
64.96374714705888
 20
78.81138438697876
 30
0.0
 10
64.96223701171876
 20
78.68904443359374
 30
0.0
 10
64.96374714705888
 20
78.52359899269281
 30
0.0
 10
65.06536639460779
 20
78.41654052553633
 30
0.0
 10
65.30514814453126
 20
78.41855185546873
 30
0.0
  0
LINE
  5
1F0
330
17
100
AcDbEntity
  8
ENGRAVE
100
AcDbLine
 10
65.27134443359375
 20
79.00780556640625
 30
0.0
 11
65.16024814453125
 21
78.95950556640625
 31
0.0
  0
SPLINE
  5
1F1
330
17
100
AcDbEntity
  8
ENGRAVE
100
AcDbSpline
 70
0
 71
2
 72
8
 73
5
 74
0
 40
0.0
 40
0.0
 40
0.0
 40
1.0
 40
1.0
 40
1.9999999999999394
 40
1.9999999999999394
 40
1.9999999999999394
 10
65.40174814453125
 20
79.37489814453124
 30
0.0
 10
65.40174814453125
 20
79.19135185546877
 30
0.0
 10
65.37277128906251
 20
79.11407499999999
 30
0.0
 10
65.34379443359374
 20
79.03679814453128
 30
0.0
 10
65.27134443359375
 20
79.00780556640625
 30
0.0
  0
LINE
  5
1F2
330
17
100
AcDbEntity
  8
ENGRAVE
100
AcDbLine
 10
65.40174814453125
 20
84.25800927734375
 30
0.0
 11
65.40174814453125
 21
79.37489814453124
 31
0.0
  0
SPLINE
  5
1F3
330
17
100
AcDbEntity
  8
ENGRAVE
100
AcDbSpline
 70
0
 71
2
 72
8
 73
5
 74
0
 40
0.0
 40
0.0
 40
0.0
 40
1.0
 40
1.0
 40
2.000000000000274
 40
2.000000000000274
 40
2.000000000000274
 10
65.24235185546875
 20
84.55265185546877
 30
0.0
 10
65.32448701171876
 20
84.52850185546878
 30
0.0
 10
65.363117578125
 20
84.46812685546874
 30
0.0
 10
65.40174814453124
 20
84.40775185546875
 30
0.0
 10
65.40174814453125
 20
84.25800927734373
 30
0.0
  0
LINE
  5
1F4
330
17
100
AcDbEntity
  8
ENGRAVE
100
AcDbLine
 10
65.13128701171875
 20
84.58164443359375
 30
0.0
 11
65.24235185546875
 21
84.55265185546875
 31
0.0
  0
SPLINE
  5
1F5
330
17
100
AcDbEntity
  8
ENGRAVE
100
AcDbSpline
 70
0
 71
3
 72
14
 73
10
 74
0
 40
0.0
 40
0.0
 40
0.0
 40
0.0
 40
1.0
 40
1.0
 40
1.0
 40
1.9999999999999907
 40
1.9999999999999907
 40
1.9999999999999907
 40
3.7277300976621928
 40
3.7277300976621928
 40
3.7277300976621928
 40
3.7277300976621928
 10
65.22788701171875
 20
85.11775556640626
 30
0.0
 10
65.11839443359374
 20
85.07589137369789
 30
0.0
 10
65.04433024088544
 20
85.03403242187501
 30
0.0
 10
65.00569443359376
 20
84.9921787109375
 30
0.0
 10
64.96705862630208
 20
84.95032499999995
 30
0.0
 10
64.94774072265626
 20
84.89398024088548
 30
0.0
 10
64.94774072265623
 20
84.82314443359371
 30
0.0
 10
64.94874638762246
 20
84.69975033659587
 30
0.0
 10
65.00148134675251
 20
84.62772498892498
 30
0.0
 10
65.13128701171877
 20
84.58164443359375
 30
0.0
  0
LINE
  5
1F6
330
17
100
AcDbEntity
  8
ENGRAVE
100
AcDbLine
 10
66.35809443359375
 20
85.54280185546875
 30
0.0
 11
65.22788701171875
 21
85.11775556640625
 31
0.0
  0
SPLINE
  5
1F7
330
17
100
AcDbEntity
  8
ENGRAVE
100
AcDbSpline
 70
0
 71
2
 72
12
 73
9
 74
0
 40
0.0
 40
0.0
 40
0.0
 40
1.0
 40
1.0
 40
2.0
 40
2.0
 40
2.489004629629619
 40
2.489004629629619
 40
2.978009259259238
 40
2.978009259259238
 40
2.978009259259238
 10
67.42553701171876
 20
85.30614443359374
 30
0.0
 10
67.42553701171877
 20
85.48000556640626
 30
0.0
 10
67.31686201171875
 20
85.5959287109375
 30
0.0
 10
67.20818701171875
 20
85.71185185546878
 30
0.0
 10
66.99083701171875
 20
85.71185185546874
 30
0.0
 10
66.88455185546877
 20
85.71185185546874
 30
0.0
 10
66.74449443359376
 20
85.67320556640627
 30
0.0
 10
66.60443701171876
 20
85.63455927734375
 30
0.0
 10
66.35809443359375
 20
85.54280185546877
 30
0.0
  0
LINE
  5
1F8
330
17
100
AcDbEntity
  8
ENGRAVE
100
AcDbLine
 10
68.65715556640626
 20
81.73675556640625
 30
0.0
 11
68.65715556640626
 21
79.79994443359375
 31
0.0
  0
SPLINE
  5
1F9
330
17
100
AcDbEntity
  8
ENGRAVE
100
AcDbSpline
 70
0
 71
2
 72
8
 73
5
 74
0
 40
0.0
 40
0.0
 40
0.0
 40
1.0
 40
1.0
 40
1.9999999999998357
 40
1.9999999999998357
 40
1.9999999999998357
 10
68.49775927734376
 20
82.02655556640624
 30
0.0
 10
68.57989443359375
 20
82.00724814453126
 30
0.0
 10
68.618525
 20
81.94445185546874
 30
0.0
 10
68.65715556640626
 20
81.88165556640624
 30
0.0
 10
68.65715556640626
 20
81.73675556640625
 30
0.0
  0
LINE
  5
1FA
330
17
100
AcDbEntity
  8
ENGRAVE
100
AcDbLine
 10
68.38669443359376
 20
82.06035927734375
 30
0.0
 11
68.49775927734376
 21
82.02655556640624
 31
0.0
  0
SPLINE
  5
1FB
330
17
100
AcDbEntity
  8
ENGRAVE
100
AcDbSpline
 70
0
 71
3
 72
14
 73
10
 74
0
 40
0.0
 40
0.0
 40
0.0
 40
0.0
 40
1.0
 40
1.0
 40
1.0
 40
1.9999999999998779
 40
1.9999999999998779
 40
1.9999999999998779
 40
3.5652420039621036
 40
3.5652420039621036
 40
3.5652420039621036
 40
3.5652420039621036
 10
68.48329443359376
 20
82.59650185546874
 30
0.0
 10
68.37380185546871
 20
82.55463766276038
 30
0.0
 10
68.29973766276044
 20
82.51277871093748
 30
0.0
 10
68.26110185546874
 20
82.470925
 30
0.0
 10
68.22246604817707
 20
82.42907128906246
 30
0.0
 10
68.20314814453127
 20
82.3711123372396
 30
0.0
 10
68.20314814453126
 20
82.29704814453126
 30
0.0
 10
68.20415380949748
 20
82.18162095370687
 30
0.0
 10
68.25688876862752
 20
82.09851485358482
 30
0.0
 10
68.38669443359376
 20
82.06035927734375
 30
0.0
  0
LINE
  5
1FC
330
17
100
AcDbEntity
  8
ENGRAVE
100
AcDbLine
 10
69.61350185546875
 20
83.01670556640624
 30
0.0
 11
68.48329443359376
 21
82.59650185546874
 31
0.0
  0
SPLINE
  5
1FD
330
17
100
AcDbEntity
  8
ENGRAVE
100
AcDbSpline
 70
0
 71
2
 72
12
 73
9
 74
0
 40
0.0
 40
0.0
 40
0.0
 40
1.0
 40
1.0
 40
2.0000000000000613
 40
2.0000000000000613
 40
2.4890046296297754
 40
2.4890046296297754
 40
2.9780092592594896
 40
2.9780092592594896
 40
2.9780092592594896
 10
70.68094443359375
 20
82.78485927734374
 30
0.0
 10
70.68094443359374
 20
82.95875185546873
 30
0.0
 10
70.57226943359376
 20
83.074675
 30
0.0
 10
70.46359443359378
 20
83.19059814453126
 30
0.0
 10
70.24624443359376
 20
83.19059814453125
 30
0.0
 10
70.13995927734376
 20
83.19059814453125
 30
0.0
 10
69.99990185546875
 20
83.15195185546875
 30
0.0
 10
69.85984443359374
 20
83.11330556640625
 30
0.0
 10
69.61350185546875
 20
83.01670556640624
 30
0.0
  0
LINE
  5
1FE
330
17
100
AcDbEntity
  8
ENGRAVE
100
AcDbLine
 10
70.68094443359375
 20
80.08005927734375
 30
0.0
 11
70.68094443359375
 21
82.78485927734374
 31
0.0
  0
SPLINE
  5
1FF
330
17
100
AcDbEntity
  8
ENGRAVE
100
AcDbSpline
 70
0
 71
2
 72
10
 73
7
 74
0
 40
0.0
 40
0.0
 40
0.0
 40
1.0
 40
1.0
 40
2.656358087487427
 40
2.656358087487427
 40
4.312716174974854
 40
4.312716174974854
 40
4.312716174974854
 10
71.54550185546876
 20
79.52945185546875
 30
0.0
 10
71.37160927734375
 20
79.46665556640625
 30
0.0
 10
71.21705556640626
 20
79.46665556640623
 30
0.0
 10
70.96105927734376
 20
79.46665556640625
 30
0.0
 10
70.82100185546875
 20
79.621225
 30
0.0
 10
70.68094443359374
 20
79.77579443359375
 30
0.0
 10
70.68094443359375
 20
80.08005927734375
 30
0.0
  0
SPLINE
  5
200
330
17
100
AcDbEntity
  8
ENGRAVE
100
AcDbSpline
 70
0
 71
2
 72
6
 73
3
 74
0
 40
0.0
 40
0.0
 40
0.0
 40
1.0
 40
1.0
 40
1.0
 10
71.54550185546876
 20
79.52945185546875
 30
0.0
 10
71.65175556640625
 20
79.56809814453125
 30
0.0
 10
71.74835556640626
 20
79.63570556640624
 30
0.0
  0
LINE
  5
201
330
17
100
AcDbEntity
  8
ENGRAVE
100
AcDbLine
 10
71.74835556640626
 20
81.73675556640625
 30
0.0
 11
71.74835556640626
 21
79.63570556640624
 31
0.0
  0
SPLINE
  5
202
330
17
100
AcDbEntity
  8
ENGRAVE
100
AcDbSpline
 70
0
 71
2
 72
8
 73
5
 74
0
 40
0.0
 40
0.0
 40
0.0
 40
1.0
 40
1.0
 40
1.9999999999998357
 40
1.9999999999998357
 40
1.9999999999998357
 10
71.59380185546875
 20
82.02655556640624
 30
0.0
 10
71.67109443359375
 20
82.00724814453126
 30
0.0
 10
71.70972500000002
 20
81.94445185546874
 30
0.0
 10
71.74835556640622
 20
81.88165556640624
 30
0.0
 10
71.74835556640626
 20
81.73675556640625
 30
0.0
  0
LINE
  5
203
330
17
100
AcDbEntity
  8
ENGRAVE
100
AcDbLine
 10
71.47789443359376
 20
82.06035927734375
 30
0.0
 11
71.59380185546875
 21
82.02655556640624
 31
0.0
  0
SPLINE
  5
204
330
17
100
AcDbEntity
  8
ENGRAVE
100
AcDbSpline
 70
0
 71
3
 72
14
 73
10
 74
0
 40
0.0
 40
0.0
 40
0.0
 40
0.0
 40
1.0
 40
1.0
 40
1.0
 40
1.9999999999997693
 40
1.9999999999997693
 40
1.9999999999997693
 40
3.565242003961825
 40
3.565242003961825
 40
3.565242003961825
 40
3.565242003961825
 10
71.57449443359376
 20
82.59650185546874
 30
0.0
 10
71.46823024088538
 20
82.55463766276038
 30
0.0
 10
71.39497314453128
 20
82.51277871093747
 30
0.0
 10
71.35472314453125
 20
82.47092500000001
 30
0.0
 10
71.31447314453125
 20
82.42907128906246
 30
0.0
 10
71.29434814453126
 20
82.37111233723958
 30
0.0
 10
71.29434814453126
 20
82.29704814453125
 30
0.0
 10
71.2953538094975
 20
82.18162095370687
 30
0.0
 10
71.34808876862746
 20
82.09851485358482
 30
0.0
 10
71.47789443359376
 20
82.06035927734375
 30
0.0
  0
LINE
  5
205
330
17
100
AcDbEntity
  8
ENGRAVE
100
AcDbLine
 10
72.70954443359375
 20
83.01670556640624
 30
0.0
 11
71.57449443359376
 21
82.59650185546874
 31
0.0
  0
SPLINE
  5
206
330
17
100
AcDbEntity
  8
ENGRAVE
100
AcDbSpline
 70
0
 71
2
 72
12
 73
9
 74
0
 40
0.0
 40
0.0
 40
0.0
 40
1.0
 40
1.0
 40
2.000000000000061
 40
2.000000000000061
 40
2.690590606107675
 40
2.690590606107675
 40
3.3811812122153535
 40
3.3811812122153535
 40
3.3811812122153535
 10
73.77214443359375
 20
82.78485927734374
 30
0.0
 10
73.77214443359375
 20
82.95875185546873
 30
0.0
 10
73.66829628906251
 20
83.074675
 30
0.0
 10
73.56444814453127
 20
83.19059814453126
 30
0.0
 10
73.36159443359375
 20
83.19059814453125
 30
0.0
 10
73.22150556640625
 20
83.19059814453125
 30
0.0
 10
73.08143242187501
 20
83.1495462890625
 30
0.0
 10
72.94135927734374
 20
83.10849443359375
 30
0.0
 10
72.70954443359375
 20
83.01670556640624
 30
0.0
  0
LINE
  5
207
330
17
100
AcDbEntity
  8
ENGRAVE
100
AcDbLine
 10
73.77214443359375
 20
79.37489814453124
 30
0.0
 11
73.77214443359375
 21
82.78485927734374
 31
0.0
  0
SPLINE
  5
208
330
17
100
AcDbEntity
  8
ENGRAVE
100
AcDbSpline
 70
0
 71
2
 72
8
 73
5
 74
0
 40
0.0
 40
0.0
 40
0.0
 40
1.0
 40
1.0
 40
2.0
 40
2.0
 40
2.0
 10
73.90254814453124
 20
79.00780556640625
 30
0.0
 10
73.83009814453126
 20
79.03679814453125
 30
0.0
 10
73.80112128906251
 20
79.11407500000001
 30
0.0
 10
73.77214443359377
 20
79.19135185546875
 30
0.0
 10
73.77214443359375
 20
79.37489814453126
 30
0.0
  0
LINE
  5
209
330
17
100
AcDbEntity
  8
ENGRAVE
100
AcDbLine
 10
74.01364443359375
 20
78.95950556640625
 30
0.0
 11
73.90254814453125
 21
79.00780556640625
 31
0.0
  0
SPLINE
  5
20A
330
17
100
AcDbEntity
  8
ENGRAVE
100
AcDbSpline
 70
0
 71
3
 72
11
 73
7
 74
0
 40
0.0
 40
0.0
 40
0.0
 40
0.0
 40
1.9999999999999027
 40
1.9999999999999027
 40
1.9999999999999027
 40
3.4611917876812752
 40
3.4611917876812752
 40
3.4611917876812752
 40
3.4611917876812752
 10
73.86874443359375
 20
78.41855185546873
 30
0.0
 10
74.10852618351716
 20
78.4165405255363
 30
0.0
 10
74.21014543106617
 20
78.52359899269284
 30
0.0
 10
74.21165556640625
 20
78.68904443359375
 30
0.0
 10
74.21014543106601
 20
78.81138438697872
 30
0.0
 10
74.1568261835173
 20
78.90156561302128
 30
0.0
 10
74.01364443359374
 20
78.95950556640625
 30
0.0
  0
LINE
  5
20B
330
17
100
AcDbEntity
  8
ENGRAVE
100
AcDbLine
 10
72.62740927734376
 20
78.41855185546875
 30
0.0
 11
73.86874443359376
 21
78.41855185546875
 31
0.0
  0
SPLINE
  5
20C
330
17
100
AcDbEntity
  8
ENGRAVE
100
AcDbSpline
 70
0
 71
2
 72
6
 73
3
 74
0
 40
0.0
 40
0.0
 40
0.0
 40
1.0
 40
1.0
 40
1.0
 10
72.62740927734376
 20
78.41855185546875
 30
0.0
 10
72.30380556640625
 20
78.41855185546875
 30
0.0
 10
72.06230556640625
 20
78.69385556640624
 30
0.0
  0
SPLINE
  5
20D
330
17
100
AcDbEntity
  8
ENGRAVE
100
AcDbSpline
 70
0
 71
2
 72
6
 73
3
 74
0
 40
0.0
 40
0.0
 40
0.0
 40
1.0
 40
1.0
 40
1.0
 10
72.06230556640625
 20
78.69385556640624
 30
0.0
 10
71.87875927734376
 20
78.89189814453125
 30
0.0
 10
71.83530185546876
 20
79.14789443359375
 30
0.0
  0
SPLINE
  5
20E
330
17
100
AcDbEntity
  8
ENGRAVE
100
AcDbSpline
 70
0
 71
2
 72
6
 73
3
 74
0
 40
0.0
 40
0.0
 40
0.0
 40
1.0
 40
1.0
 40
1.0
 10
71.83530185546876
 20
79.14789443359375
 30
0.0
 10
71.35230185546875
 20
78.73250185546875
 30
0.0
 10
70.97555556640626
 20
78.54414443359374
 30
0.0
  0
SPLINE
  5
20F
330
17
100
AcDbEntity
  8
ENGRAVE
100
AcDbSpline
 70
0
 71
2
 72
10
 73
7
 74
0
 40
0.0
 40
0.0
 40
0.0
 40
1.0
 40
1.0
 40
2.0000000000000173
 40
2.0000000000000173
 40
2.661508413461581
 40
2.661508413461581
 40
2.661508413461581
 10
68.65715556640626
 20
79.79994443359375
 30
0.0
 10
68.65715556640626
 20
79.11890185546875
 30
0.0
 10
69.04597685546875
 20
78.703525
 30
0.0
 10
69.43479814453124
 20
78.28814814453122
 30
0.0
 10
70.06269814453125
 20
78.28814814453125
 30
0.0
 10
70.47805927734376
 20
78.28814814453125
 30
0.0
 10
70.97555556640626
 20
78.54414443359374
 30
0.0
  0
LINE
  5
210
330
17
100
AcDbEntity
  8
ENGRAVE
100
AcDbLine
 10
78.07081298828126
 20
81.38900185546875
 30
0.0
 11
77.53951298828126
 21
82.15214814453125
 31
0.0
  0
LINE
  5
211
330
17
100
AcDbEntity
  8
ENGRAVE
100
AcDbLine
 10
78.40410185546875
 20
81.84300927734375
 30
0.0
 11
78.07081298828126
 21
81.38900185546875
 31
0.0
  0
SPLINE
  5
212
330
17
100
AcDbEntity
  8
ENGRAVE
100
AcDbSpline
 70
0
 71
2
 72
8
 73
5
 74
0
 40
0.0
 40
0.0
 40
0.0
 40
1.0
 40
1.0
 40
1.9999999999999862
 40
1.9999999999999862
 40
1.9999999999999862
 10
78.35580185546877
 20
82.48059443359375
 30
0.0
 10
78.51519814453124
 20
82.41295556640627
 30
0.0
 10
78.544175
 20
82.2415
 30
0.0
 10
78.57315185546878
 20
82.07004443359376
 30
0.0
 10
78.40410185546875
 20
81.84300927734375
 30
0.0
  0
LINE
  5
213
330
17
100
AcDbEntity
  8
ENGRAVE
100
AcDbLine
 10
78.26401298828125
 20
82.51920927734375
 30
0.0
 11
78.35580185546875
 21
82.48059443359375
 31
0.0
  0
SPLINE
  5
214
330
17
100
AcDbEntity
  8
ENGRAVE
100
AcDbSpline
 70
0
 71
3
 72
14
 73
10
 74
0
 40
0.0
 40
0.0
 40
0.0
 40
0.0
 40
1.0
 40
1.0
 40
1.0
 40
2.0000000000000955
 40
2.0000000000000955
 40
2.0000000000000955
 40
3.3334940921150387
 40
3.3334940921150387
 40
3.3334940921150387
 40
3.3334940921150387
 10
78.41375556640627
 20
83.05050927734375
 30
0.0
 10
78.31392718098954
 20
83.05050927734374
 30
0.0
 10
78.23342718098961
 20
83.02635927734374
 30
0.0
 10
78.17225556640626
 20
82.97805927734376
 30
0.0
 10
78.11108395182302
 20
82.9297592773438
 30
0.0
 10
78.08049814453123
 20
82.86214137369785
 30
0.0
 10
78.08049814453128
 20
82.77520556640629
 30
0.0
 10
78.08049814453129
 20
82.65776704564941
 30
0.0
 10
78.14166975911459
 20
82.5851194126839
 30
0.0
 10
78.26401298828125
 20
82.51920927734373
 30
0.0
  0
LINE
  5
215
330
17
100
AcDbEntity
  8
ENGRAVE
100
AcDbLine
 10
79.73716298828126
 20
83.05050927734375
 30
0.0
 11
78.41375556640625
 21
83.05050927734375
 31
0.0
  0
SPLINE
  5
216
330
17
100
AcDbEntity
  8
ENGRAVE
100
AcDbSpline
 70
0
 71
3
 72
14
 73
10
 74
0
 40
0.0
 40
0.0
 40
0.0
 40
0.0
 40
1.0
 40
1.0
 40
1.0
 40
2.0000000000002416
 40
2.0000000000002416
 40
2.0000000000002416
 40
4.842357779302069
 40
4.842357779302069
 40
4.842357779302069
 40
4.842357779302069
 10
79.84344814453127
 20
82.48059443359374
 30
0.0
 10
79.92715556640624
 20
82.52889443359373
 30
0.0
 10
79.98591637369793
 20
82.57477838541666
 30
0.0
 10
80.01973056640624
 20
82.6182462890625
 30
0.0
 10
80.05354475911459
 20
82.66171419270827
 30
0.0
 10
80.07045185546876
 20
82.71403395182293
 30
0.0
 10
80.07045185546876
 20
82.77520556640624
 30
0.0
 10
80.07196199080894
 20
82.9475670456494
 30
0.0
 10
79.94818123835776
 20
83.05201941268392
 30
0.0
 10
79.73716298828126
 20
83.05050927734374
 30
0.0
  0
SPLINE
  5
217
330
17
100
AcDbEntity
  8
ENGRAVE
100
AcDbSpline
 70
0
 71
2
 72
8
 73
5
 74
0
 40
0.0
 40
0.0
 40
0.0
 40
1.0
 40
1.0
 40
2.0000000000000355
 40
2.0000000000000355
 40
2.0000000000000355
 10
78.91125185546878
 20
81.59185556640625
 30
0.0
 10
79.22035927734376
 20
81.97825556640626
 30
0.0
 10
79.4063111328125
 20
82.17628242187499
 30
0.0
 10
79.59226298828126
 20
82.37430927734377
 30
0.0
 10
79.84344814453127
 20
82.48059443359375
 30
0.0
  0
LINE
  5
218
330
17
100
AcDbEntity
  8
ENGRAVE
100
AcDbLine
 10
78.40891298828126
 20
80.92049814453125
 30
0.0
 11
78.91125185546876
 21
81.59185556640625
 31
0.0
  0
LINE
  5
219
330
17
100
AcDbEntity
  8
ENGRAVE
100
AcDbLine
 10
79.52465556640625
 20
79.40870185546875
 30
0.0
 11
78.40891298828126
 21
80.92049814453125
 31
0.0
  0
SPLINE
  5
21A
330
17
100
AcDbEntity
  8
ENGRAVE
100
AcDbSpline
 70
0
 71
2
 72
8
 73
5
 74
0
 40
0.0
 40
0.0
 40
0.0
 40
1.0
 40
1.0
 40
2.0
 40
2.0
 40
2.0
 10
79.94004814453126
 20
78.96915927734375
 30
0.0
 10
79.85791298828124
 20
79.02230185546875
 30
0.0
 10
79.76615556640625
 20
79.11890185546876
 30
0.0
 10
79.67439814453124
 20
79.21550185546873
 30
0.0
 10
79.52465556640625
 20
79.40870185546876
 30
0.0
  0
SPLINE
  5
21B
330
17
100
AcDbEntity
  8
ENGRAVE
100
AcDbSpline
 70
0
 71
3
 72
11
 73
7
 74
0
 40
0.0
 40
0.0
 40
0.0
 40
0.0
 40
2.0
 40
2.0
 40
2.0
 40
3.462058602554499
 40
3.462058602554499
 40
3.462058602554499
 40
3.462058602554499
 10
79.79030556640626
 20
78.41855185546875
 30
0.0
 10
80.00082262189046
 20
78.41603277938069
 30
0.0
 10
80.13041689633872
 20
78.5289597987443
 30
0.0
 10
80.12840556640626
 20
78.69385556640623
 30
0.0
 10
80.1279010960323
 20
78.81875979874422
 30
0.0
 10
80.0693526149052
 20
78.88936858667243
 30
0.0
 10
79.94004814453126
 20
78.96915927734373
 30
0.0
  0
LINE
  5
21C
330
17
100
AcDbEntity
  8
ENGRAVE
100
AcDbLine
 10
77.23524814453125
 20
78.41855185546875
 30
0.0
 11
79.79030556640626
 21
78.41855185546875
 31
0.0
  0
SPLINE
  5
21D
330
17
100
AcDbEntity
  8
ENGRAVE
100
AcDbSpline
 70
0
 71
3
 72
11
 73
7
 74
0
 40
0.0
 40
0.0
 40
0.0
 40
0.0
 40
2.0000000000000475
 40
2.0000000000000475
 40
2.0000000000000475
 40
4.842357779301151
 40
4.842357779301151
 40
4.842357779301151
 40
4.842357779301151
 10
77.04685927734376
 20
78.93535556640626
 30
0.0
 10
76.94435217974929
 20
78.89624280384558
 30
0.0
 10
76.88695524212568
 20
78.82153929250856
 30
0.0
 10
76.88746298828124
 20
78.69869814453125
 30
0.0
 10
76.88545165834891
 20
78.52684113566205
 30
0.0
 10
77.01827431821361
 20
78.41653724975463
 30
0.0
 10
77.23524814453125
 20
78.41855185546876
 30
0.0
  0
LINE
  5
21E
330
17
100
AcDbEntity
  8
ENGRAVE
100
AcDbLine
 10
77.16279814453125
 20
78.97400185546874
 30
0.0
 11
77.04685927734376
 21
78.93535556640624
 31
0.0
  0
SPLINE
  5
21F
330
17
100
AcDbEntity
  8
ENGRAVE
100
AcDbSpline
 70
0
 71
3
 72
8
 73
4
 74
0
 40
0.0
 40
0.0
 40
0.0
 40
0.0
 40
1.9999999999998321
 40
1.9999999999998321
 40
1.9999999999998321
 40
1.9999999999998321
 10
77.16760927734376
 20
79.32659814453125
 30
0.0
 10
77.30978208651935
 20
79.12442229760984
 30
0.0
 10
77.3039685645223
 20
79.02804931697348
 30
0.0
 10
77.16279814453125
 20
78.97400185546874
 30
0.0
  0
LINE
  5
220
330
17
100
AcDbEntity
  8
ENGRAVE
100
AcDbLine
 10
76.61215927734376
 20
80.13320185546876
 30
0.0
 11
77.16760927734376
 21
79.32659814453125
 31
0.0
  0
LINE
  5
221
330
17
100
AcDbEntity
  8
ENGRAVE
100
AcDbLine
 10
76.23541298828125
 20
79.62120927734375
 30
0.0
 11
76.61215927734376
 21
80.13320185546876
 31
0.0
  0
SPLINE
  5
222
330
17
100
AcDbEntity
  8
ENGRAVE
100
AcDbSpline
 70
0
 71
2
 72
8
 73
5
 74
0
 40
0.0
 40
0.0
 40
0.0
 40
1.0
 40
1.0
 40
1.9999999999998996
 40
1.9999999999998996
 40
1.9999999999998996
 10
76.28371298828125
 20
78.99815185546875
 30
0.0
 10
76.12915927734376
 20
79.07060185546875
 30
0.0
 10
76.10018242187502
 20
79.23240371093752
 30
0.0
 10
76.07120556640626
 20
79.39420556640624
 30
0.0
 10
76.23541298828125
 20
79.62120927734377
 30
0.0
  0
LINE
  5
223
330
17
100
AcDbEntity
  8
ENGRAVE
100
AcDbLine
 10
76.38031298828126
 20
78.94985185546875
 30
0.0
 11
76.28371298828125
 21
78.99815185546875
 31
0.0
  0
SPLINE
  5
224
330
17
100
AcDbEntity
  8
ENGRAVE
100
AcDbSpline
 70
0
 71
3
 72
14
 73
10
 74
0
 40
0.0
 40
0.0
 40
0.0
 40
0.0
 40
1.0
 40
1.0
 40
1.0
 40
2.0
 40
2.0
 40
2.0
 40
3.4611917876814227
 40
3.4611917876814227
 40
3.4611917876814227
 40
3.4611917876814227
 10
76.23060185546875
 20
78.42339443359374
 30
0.0
 10
76.33363766276041
 20
78.42339443359371
 30
0.0
 10
76.41493951822918
 20
78.44834628906251
 30
0.0
 10
76.474507421875
 20
78.49825
 30
0.0
 10
76.53407532552085
 20
78.54815371093748
 30
0.0
 10
76.56385927734375
 20
78.61496975911462
 30
0.0
 10
76.56385927734375
 20
78.69869814453125
 30
0.0
 10
76.56385600156207
 20
78.82304942784869
 30
0.0
 10
76.50270142031297
 20
78.88990057215129
 30
0.0
 10
76.38031298828125
 20
78.94985185546875
 30
0.0
  0
LINE
  5
225
330
17
100
AcDbEntity
  8
ENGRAVE
100
AcDbLine
 10
74.90235185546875
 20
78.42339443359374
 30
0.0
 11
76.23060185546876
 21
78.42339443359374
 31
0.0
  0
SPLINE
  5
226
330
17
100
AcDbEntity
  8
ENGRAVE
100
AcDbSpline
 70
0
 71
2
 72
12
 73
9
 74
0
 40
0.0
 40
0.0
 40
0.0
 40
1.0
 40
1.0
 40
1.99999999999997
 40
1.99999999999997
 40
3.368745716243841
 40
3.368745716243841
 40
4.737491432487712
 40
4.737491432487712
 40
4.737491432487712
 10
74.80090927734375
 20
78.99330927734376
 30
0.0
 10
74.67534814453126
 20
78.92085927734375
 30
0.0
 10
74.62462685546878
 20
78.85565742187501
 30
0.0
 10
74.57390556640624
 20
78.79045556640624
 30
0.0
 10
74.57390556640625
 20
78.69869814453125
 30
0.0
 10
74.57390556640627
 20
78.57310556640628
 30
0.0
 10
74.663257421875
 20
78.49825
 30
0.0
 10
74.75260927734374
 20
78.42339443359374
 30
0.0
 10
74.90235185546875
 20
78.42339443359374
 30
0.0
  0
SPLINE
  5
227
330
17
100
AcDbEntity
  8
ENGRAVE
100
AcDbSpline
 70
0
 71
2
 72
10
 73
7
 74
0
 40
0.0
 40
0.0
 40
0.0
 40
1.0
 40
1.0
 40
2.0000000000000417
 40
2.0000000000000417
 40
3.0000000000000835
 40
3.0000000000000835
 40
3.0000000000000835
 10
75.72826298828126
 20
79.87239443359375
 30
0.0
 10
75.52540927734375
 20
79.61639814453127
 30
0.0
 10
75.38050927734376
 20
79.44734814453125
 30
0.0
 10
75.23560927734377
 20
79.27829814453123
 30
0.0
 10
75.10278427734376
 20
79.1720287109375
 30
0.0
 10
74.96995927734378
 20
79.06575927734377
 30
0.0
 10
74.80090927734376
 20
78.99330927734376
 30
0.0
  0
LINE
  5
228
330
17
100
AcDbEntity
  8
ENGRAVE
100
AcDbLine
 10
76.27890185546876
 20
80.60170556640625
 30
0.0
 11
75.72826298828126
 21
79.87239443359375
 31
0.0
  0
LINE
  5
229
330
17
100
AcDbEntity
  8
ENGRAVE
100
AcDbLine
 10
75.24526298828125
 20
82.11350185546875
 30
0.0
 11
76.27890185546876
 21
80.60170556640625
 31
0.0
  0
SPLINE
  5
22A
330
17
100
AcDbEntity
  8
ENGRAVE
100
AcDbSpline
 70
0
 71
2
 72
8
 73
5
 74
0
 40
0.0
 40
0.0
 40
0.0
 40
1.0
 40
1.0
 40
2.000000000000024
 40
2.000000000000024
 40
2.000000000000024
 10
74.82024814453126
 20
82.47090927734374
 30
0.0
 10
74.92650185546876
 20
82.42745185546875
 30
0.0
 10
75.03275556640625
 20
82.350175
 30
0.0
 10
75.13900927734375
 20
82.27289814453128
 30
0.0
 10
75.24526298828124
 20
82.11350185546874
 30
0.0
  0
SPLINE
  5
22B
330
17
100
AcDbEntity
  8
ENGRAVE
100
AcDbSpline
 70
0
 71
2
 72
12
 73
9
 74
0
 40
0.0
 40
0.0
 40
0.0
 40
1.0
 40
1.0
 40
2.000000000000017
 40
2.000000000000017
 40
2.851941162286033
 40
2.851941162286033
 40
3.703882324571972
 40
3.703882324571972
 40
3.703882324571972
 10
74.95065185546876
 20
83.05050927734376
 30
0.0
 10
74.79609814453126
 20
83.05050927734374
 30
0.0
 10
74.70432500000001
 20
82.97565371093751
 30
0.0
 10
74.61255185546875
 20
82.90079814453127
 30
0.0
 10
74.61255185546875
 20
82.77039443359376
 30
0.0
 10
74.61255185546878
 20
82.65929814453126
 30
0.0
 10
74.656025
 20
82.58925371093751
 30
0.0
 10
74.6994981445313
 20
82.51920927734376
 30
0.0
 10
74.82024814453126
 20
82.47090927734376
 30
0.0
  0
LINE
  5
22C
330
17
100
AcDbEntity
  8
ENGRAVE
100
AcDbLine
 10
77.43325927734375
 20
83.05050927734375
 30
0.0
 11
74.95065185546876
 21
83.05050927734375
 31
0.0
  0
SPLINE
  5
22D
330
17
100
AcDbEntity
  8
ENGRAVE
100
AcDbSpline
 70
0
 71
3
 72
11
 73
7
 74
0
 40
0.0
 40
0.0
 40
0.0
 40
0.0
 40
2.0
 40
2.0
 40
2.0
 40
4.999638336347488
 40
4.999638336347488
 40
4.999638336347488
 40
4.999638336347488
 10
77.64095556640628
 20
82.52405185546874
 30
0.0
 10
77.72468395182287
 20
82.59046646118284
 30
0.0
 10
77.76654814453124
 20
82.65726257527547
 30
0.0
 10
77.76654814453126
 20
82.77520556640624
 30
0.0
 10
77.76906722061929
 20
82.94756704564941
 30
0.0
 10
77.6368118158391
 20
83.05201941268392
 30
0.0
 10
77.43325927734375
 20
83.05050927734375
 30
0.0
  0
LINE
  5
22E
330
17
100
AcDbEntity
  8
ENGRAVE
100
AcDbLine
 10
77.53470185546875
 20
82.46125556640625
 30
0.0
 11
77.64095556640626
 21
82.52405185546876
 31
0.0
  0
SPLINE
  5
22F
330
17
100
AcDbEntity
  8
ENGRAVE
100
AcDbSpline
 70
0
 71
2
 72
8
 73
5
 74
0
 40
0.0
 40
0.0
 40
0.0
 40
1.0
 40
1.0
 40
2.0000000000000075
 40
2.0000000000000075
 40
2.0000000000000075
 10
77.53951298828125
 20
82.15214814453124
 30
0.0
 10
77.45259814453127
 20
82.27770927734375
 30
0.0
 10
77.4550037109375
 20
82.345332421875
 30
0.0
 10
77.45740927734376
 20
82.41295556640625
 30
0.0
 10
77.53470185546874
 20
82.46125556640625
 30
0.0
  0
ENDSEC
  0
SECTION
  2
OBJECTS
  0
DICTIONARY
  5
A
330
0
100
AcDbDictionary
281
1
  3
ACAD_COLOR
350
B
  3
ACAD_GROUP
350
C
  3
ACAD_LAYOUT
350
D
  3
ACAD_MATERIAL
350
E
  3
ACAD_MLEADERSTYLE
350
F
  3
ACAD_MLINESTYLE
350
10
  3
ACAD_PLOTSETTINGS
350
11
  3
ACAD_PLOTSTYLENAME
350
12
  3
ACAD_SCALELIST
350
14
  3
ACAD_TABLESTYLE
350
15
  3
ACAD_VISUALSTYLE
350
16
  3
EZDXF_META
350
2D
  0
DICTIONARY
  5
B
330
A
100
AcDbDictionary
281
1
  0
DICTIONARY
  5
C
330
A
100
AcDbDictionary
281
1
  0
DICTIONARY
  5
D
330
A
100
AcDbDictionary
281
1
  3
Model
350
1A
  3
Layout1
350
1E
  0
DICTIONARY
  5
E
330
A
100
AcDbDictionary
281
1
  3
ByBlock
350
1F
  3
ByLayer
350
20
  3
Global
350
21
  0
DICTIONARY
  5
F
330
A
100
AcDbDictionary
281
1
  3
Standard
350
2C
  0
DICTIONARY
  5
10
330
A
100
AcDbDictionary
281
1
  3
Standard
350
22
  0
DICTIONARY
  5
11
330
A
100
AcDbDictionary
281
1
  0
ACDBDICTIONARYWDFLT
  5
12
330
A
100
AcDbDictionary
281
1
  3
Normal
350
13
100
AcDbDictionaryWithDefault
340
13
  0
ACDBPLACEHOLDER
  5
13
330
12
  0
DICTIONARY
  5
14
330
A
100
AcDbDictionary
281
1
  0
DICTIONARY
  5
15
330
A
100
AcDbDictionary
281
1
  0
DICTIONARY
  5
16
330
A
100
AcDbDictionary
281
1
  0
LAYOUT
  5
1A
330
D
100
AcDbPlotSettings
  1

  4
A3
  6

 40
7.5
 41
20.0
 42
7.5
 43
20.0
 44
420.0
 45
297.0
 46
0.0
 47
0.0
 48
0.0
 49
0.0
140
0.0
141
0.0
142
1.0
143
1.0
 70
1024
 72
1
 73
0
 74
5
  7

 75
16
 76
0
 77
2
 78
300
147
1.0
148
0.0
149
0.0
100
AcDbLayout
  1
Model
 70
1
 71
0
 10
0.0
 20
0.0
 11
420.0
 21
297.0
 12
0.0
 22
0.0
 32
0.0
 14
1e+20
 24
1e+20
 34
1e+20
 15
-1e+20
 25
-1e+20
 35
-1e+20
146
0.0
 13
0.0
 23
0.0
 33
0.0
 16
1.0
 26
0.0
 36
0.0
 17
0.0
 27
1.0
 37
0.0
 76
1
330
17
  0
LAYOUT
  5
1E
330
D
100
AcDbPlotSettings
  1

  4
A3
  6

 40
7.5
 41
20.0
 42
7.5
 43
20.0
 44
420.0
 45
297.0
 46
0.0
 47
0.0
 48
0.0
 49
0.0
140
0.0
141
0.0
142
1.0
143
1.0
 70
0
 72
1
 73
0
 74
5
  7

 75
16
 76
0
 77
2
 78
300
147
1.0
148
0.0
149
0.0
100
AcDbLayout
  1
Layout1
 70
1
 71
1
 10
0.0
 20
0.0
 11
420.0
 21
297.0
 12
0.0
 22
0.0
 32
0.0
 14
1e+20
 24
1e+20
 34
1e+20
 15
-1e+20
 25
-1e+20
 35
-1e+20
146
0.0
 13
0.0
 23
0.0
 33
0.0
 16
1.0
 26
0.0
 36
0.0
 17
0.0
 27
1.0
 37
0.0
 76
1
330
1B
  0
MATERIAL
  5
1F
102
{ACAD_REACTORS
330
E
102
}
330
E
100
AcDbMaterial
  1
ByBlock
  2

 70
0
 40
1.0
 71
1
 41
1.0
 91
-1023410177
 42
1.0
 72
1
  3

 73
1
 74
1
 75
1
 44
0.5
 73
0
 45
1.0
 46
1.0
 77
1
  4

 78
1
 79
1
170
1
 48
1.0
171
1
  6

172
1
173
1
174
1
140
1.0
141
1.0
175
1
  7

176
1
177
1
178
1
143
1.0
179
1
  8

270
1
271
1
272
1
145
1.0
146
1.0
273
1
  9

274
1
275
1
276
1
 42
1.0
 72
1
  3

 73
1
 74
1
 75
1
 94
63
  0
MATERIAL
  5
20
102
{ACAD_REACTORS
330
E
102
}
330
E
100
AcDbMaterial
  1
ByLayer
  2

 70
0
 40
1.0
 71
1
 41
1.0
 91
-1023410177
 42
1.0
 72
1
  3

 73
1
 74
1
 75
1
 44
0.5
 73
0
 45
1.0
 46
1.0
 77
1
  4

 78
1
 79
1
170
1
 48
1.0
171
1
  6

172
1
173
1
174
1
140
1.0
141
1.0
175
1
  7

176
1
177
1
178
1
143
1.0
179
1
  8

270
1
271
1
272
1
145
1.0
146
1.0
273
1
  9

274
1
275
1
276
1
 42
1.0
 72
1
  3

 73
1
 74
1
 75
1
 94
63
  0
MATERIAL
  5
21
102
{ACAD_REACTORS
330
E
102
}
330
E
100
AcDbMaterial
  1
Global
  2

 70
0
 40
1.0
 71
1
 41
1.0
 91
-1023410177
 42
1.0
 72
1
  3

 73
1
 74
1
 75
1
 44
0.5
 73
0
 45
1.0
 46
1.0
 77
1
  4

 78
1
 79
1
170
1
 48
1.0
171
1
  6

172
1
173
1
174
1
140
1.0
141
1.0
175
1
  7

176
1
177
1
178
1
143
1.0
179
1
  8

270
1
271
1
272
1
145
1.0
146
1.0
273
1
  9

274
1
275
1
276
1
 42
1.0
 72
1
  3

 73
1
 74
1
 75
1
 94
63
  0
MLINESTYLE
  5
22
102
{ACAD_REACTORS
330
10
102
}
330
10
100
AcDbMlineStyle
  2
Standard
 70
0
  3

 62
256
 51
90.0
 52
90.0
 71
2
 49
0.5
 62
256
  6
BYLAYER
 49
-0.5
 62
256
  6
BYLAYER
  0
MLEADERSTYLE
  5
2C
102
{ACAD_REACTORS
330
F
102
}
330
F
100
AcDbMLeaderStyle
179
2
170
2
171
1
172
0
 90
2
 40
0.0
 41
0.0
173
1
 91
-1056964608
 92
-2
290
1
 42
2.0
291
1
 43
8.0
  3
Standard
 44
4.0
300

342
29
174
1
175
1
176
0
178
1
 93
-1056964608
 45
4.0
292
0
297
0
 46
4.0
 94
-1056964608
 47
1.0
 49
1.0
140
1.0
294
1
141
0.0
177
0
142
1.0
295
0
296
0
143
3.75
271
0
272
9
273
9
  0
DICTIONARY
  5
2D
330
A
100
AcDbDictionary
280
1
281
1
  3
CREATED_BY_EZDXF
350
2E
  3
WRITTEN_BY_EZDXF
350
233
  0
DICTIONARYVAR
  5
2E
330
2D
100
DictionaryVariables
280
0
  1
1.4.4 @ 2026-10-08T21:18:42.217345+00:00
  0
DICTIONARYVAR
  5
233
330
2D
100
DictionaryVariables
280
0
  1
1.4.4 @ 2026-10-08T21:18:42.354329+00:00
  0
ENDSEC
  0
EOF
